G04 #@! TF.GenerationSoftware,KiCad,Pcbnew,5.1.5*
G04 #@! TF.CreationDate,2020-03-31T14:32:58+02:00*
G04 #@! TF.ProjectId,nixie_2_digit_board,6e697869-655f-4325-9f64-696769745f62,rev?*
G04 #@! TF.SameCoordinates,Original*
G04 #@! TF.FileFunction,Legend,Bot*
G04 #@! TF.FilePolarity,Positive*
%FSLAX46Y46*%
G04 Gerber Fmt 4.6, Leading zero omitted, Abs format (unit mm)*
G04 Created by KiCad (PCBNEW 5.1.5) date 2020-03-31 14:32:58*
%MOMM*%
%LPD*%
G04 APERTURE LIST*
%ADD10C,0.150000*%
%ADD11C,0.125000*%
G04 APERTURE END LIST*
D10*
X131600000Y-100295000D02*
G75*
G03X131600000Y-100295000I-200000J0D01*
G01*
X134600000Y-100895000D02*
X134600000Y-90895000D01*
X134600000Y-90895000D02*
X130600000Y-90895000D01*
X130600000Y-90895000D02*
X130600000Y-100895000D01*
X130600000Y-100895000D02*
X134600000Y-100895000D01*
X185750000Y-100425000D02*
G75*
G03X185750000Y-100425000I-200000J0D01*
G01*
X188750000Y-101025000D02*
X188750000Y-91025000D01*
X188750000Y-91025000D02*
X184750000Y-91025000D01*
X184750000Y-91025000D02*
X184750000Y-101025000D01*
X184750000Y-101025000D02*
X188750000Y-101025000D01*
D11*
X131276190Y-94894047D02*
X131680952Y-94894047D01*
X131728571Y-94917857D01*
X131752380Y-94941666D01*
X131776190Y-94989285D01*
X131776190Y-95084523D01*
X131752380Y-95132142D01*
X131728571Y-95155952D01*
X131680952Y-95179761D01*
X131276190Y-95179761D01*
X131276190Y-95370238D02*
X131276190Y-95679761D01*
X131466666Y-95513095D01*
X131466666Y-95584523D01*
X131490476Y-95632142D01*
X131514285Y-95655952D01*
X131561904Y-95679761D01*
X131680952Y-95679761D01*
X131728571Y-95655952D01*
X131752380Y-95632142D01*
X131776190Y-95584523D01*
X131776190Y-95441666D01*
X131752380Y-95394047D01*
X131728571Y-95370238D01*
X185976190Y-95644047D02*
X186380952Y-95644047D01*
X186428571Y-95667857D01*
X186452380Y-95691666D01*
X186476190Y-95739285D01*
X186476190Y-95834523D01*
X186452380Y-95882142D01*
X186428571Y-95905952D01*
X186380952Y-95929761D01*
X185976190Y-95929761D01*
X186476190Y-96191666D02*
X186476190Y-96286904D01*
X186452380Y-96334523D01*
X186428571Y-96358333D01*
X186357142Y-96405952D01*
X186261904Y-96429761D01*
X186071428Y-96429761D01*
X186023809Y-96405952D01*
X186000000Y-96382142D01*
X185976190Y-96334523D01*
X185976190Y-96239285D01*
X186000000Y-96191666D01*
X186023809Y-96167857D01*
X186071428Y-96144047D01*
X186190476Y-96144047D01*
X186238095Y-96167857D01*
X186261904Y-96191666D01*
X186285714Y-96239285D01*
X186285714Y-96334523D01*
X186261904Y-96382142D01*
X186238095Y-96405952D01*
X186190476Y-96429761D01*
M02*
