G04 #@! TF.GenerationSoftware,KiCad,Pcbnew,(6.0.5)*
G04 #@! TF.CreationDate,2022-05-31T00:33:45+02:00*
G04 #@! TF.ProjectId,nixie_control_board,6e697869-655f-4636-9f6e-74726f6c5f62,rev?*
G04 #@! TF.SameCoordinates,Original*
G04 #@! TF.FileFunction,Legend,Top*
G04 #@! TF.FilePolarity,Positive*
%FSLAX46Y46*%
G04 Gerber Fmt 4.6, Leading zero omitted, Abs format (unit mm)*
G04 Created by KiCad (PCBNEW (6.0.5)) date 2022-05-31 00:33:45*
%MOMM*%
%LPD*%
G01*
G04 APERTURE LIST*
%ADD10C,0.300000*%
%ADD11C,0.150000*%
%ADD12C,0.120000*%
%ADD13C,1.800000*%
%ADD14C,2.300000*%
G04 APERTURE END LIST*
D10*
X108452800Y-76301542D02*
X108524228Y-76158685D01*
X108524228Y-75944400D01*
X108452800Y-75730114D01*
X108309942Y-75587257D01*
X108167085Y-75515828D01*
X107881371Y-75444400D01*
X107667085Y-75444400D01*
X107381371Y-75515828D01*
X107238514Y-75587257D01*
X107095657Y-75730114D01*
X107024228Y-75944400D01*
X107024228Y-76087257D01*
X107095657Y-76301542D01*
X107167085Y-76372971D01*
X107667085Y-76372971D01*
X107667085Y-76087257D01*
X107024228Y-77015828D02*
X108524228Y-77015828D01*
X107024228Y-77872971D01*
X108524228Y-77872971D01*
X107024228Y-78587257D02*
X108524228Y-78587257D01*
X108524228Y-78944400D01*
X108452800Y-79158685D01*
X108309942Y-79301542D01*
X108167085Y-79372971D01*
X107881371Y-79444400D01*
X107667085Y-79444400D01*
X107381371Y-79372971D01*
X107238514Y-79301542D01*
X107095657Y-79158685D01*
X107024228Y-78944400D01*
X107024228Y-78587257D01*
X110324342Y-109694400D02*
X110181485Y-109622971D01*
X109967200Y-109622971D01*
X109752914Y-109694400D01*
X109610057Y-109837257D01*
X109538628Y-109980114D01*
X109467200Y-110265828D01*
X109467200Y-110480114D01*
X109538628Y-110765828D01*
X109610057Y-110908685D01*
X109752914Y-111051542D01*
X109967200Y-111122971D01*
X110110057Y-111122971D01*
X110324342Y-111051542D01*
X110395771Y-110980114D01*
X110395771Y-110480114D01*
X110110057Y-110480114D01*
X111038628Y-111122971D02*
X111038628Y-109622971D01*
X111895771Y-111122971D01*
X111895771Y-109622971D01*
X112610057Y-111122971D02*
X112610057Y-109622971D01*
X112967200Y-109622971D01*
X113181485Y-109694400D01*
X113324342Y-109837257D01*
X113395771Y-109980114D01*
X113467200Y-110265828D01*
X113467200Y-110480114D01*
X113395771Y-110765828D01*
X113324342Y-110908685D01*
X113181485Y-111051542D01*
X112967200Y-111122971D01*
X112610057Y-111122971D01*
X152380457Y-90821771D02*
X152380457Y-89321771D01*
X153237599Y-90821771D01*
X153237599Y-89321771D01*
X153951885Y-90821771D02*
X153951885Y-89821771D01*
X153951885Y-89321771D02*
X153880457Y-89393200D01*
X153951885Y-89464628D01*
X154023314Y-89393200D01*
X153951885Y-89321771D01*
X153951885Y-89464628D01*
X154523314Y-90821771D02*
X155309028Y-89821771D01*
X154523314Y-89821771D02*
X155309028Y-90821771D01*
X155880457Y-90821771D02*
X155880457Y-89821771D01*
X155880457Y-89321771D02*
X155809028Y-89393200D01*
X155880457Y-89464628D01*
X155951885Y-89393200D01*
X155880457Y-89321771D01*
X155880457Y-89464628D01*
X157166171Y-90750342D02*
X157023314Y-90821771D01*
X156737599Y-90821771D01*
X156594742Y-90750342D01*
X156523314Y-90607485D01*
X156523314Y-90036057D01*
X156594742Y-89893200D01*
X156737599Y-89821771D01*
X157023314Y-89821771D01*
X157166171Y-89893200D01*
X157237599Y-90036057D01*
X157237599Y-90178914D01*
X156523314Y-90321771D01*
X159023314Y-90821771D02*
X159023314Y-89321771D01*
X159594742Y-89321771D01*
X159737599Y-89393200D01*
X159809028Y-89464628D01*
X159880457Y-89607485D01*
X159880457Y-89821771D01*
X159809028Y-89964628D01*
X159737599Y-90036057D01*
X159594742Y-90107485D01*
X159023314Y-90107485D01*
X160737599Y-90821771D02*
X160594742Y-90750342D01*
X160523314Y-90678914D01*
X160451885Y-90536057D01*
X160451885Y-90107485D01*
X160523314Y-89964628D01*
X160594742Y-89893200D01*
X160737599Y-89821771D01*
X160951885Y-89821771D01*
X161094742Y-89893200D01*
X161166171Y-89964628D01*
X161237599Y-90107485D01*
X161237599Y-90536057D01*
X161166171Y-90678914D01*
X161094742Y-90750342D01*
X160951885Y-90821771D01*
X160737599Y-90821771D01*
X161737599Y-89821771D02*
X162023314Y-90821771D01*
X162309028Y-90107485D01*
X162594742Y-90821771D01*
X162880457Y-89821771D01*
X164023314Y-90750342D02*
X163880457Y-90821771D01*
X163594742Y-90821771D01*
X163451885Y-90750342D01*
X163380457Y-90607485D01*
X163380457Y-90036057D01*
X163451885Y-89893200D01*
X163594742Y-89821771D01*
X163880457Y-89821771D01*
X164023314Y-89893200D01*
X164094742Y-90036057D01*
X164094742Y-90178914D01*
X163380457Y-90321771D01*
X164737599Y-90821771D02*
X164737599Y-89821771D01*
X164737599Y-90107485D02*
X164809028Y-89964628D01*
X164880457Y-89893200D01*
X165023314Y-89821771D01*
X165166171Y-89821771D01*
X167451885Y-90821771D02*
X167451885Y-90036057D01*
X167380457Y-89893200D01*
X167237599Y-89821771D01*
X166951885Y-89821771D01*
X166809028Y-89893200D01*
X167451885Y-90750342D02*
X167309028Y-90821771D01*
X166951885Y-90821771D01*
X166809028Y-90750342D01*
X166737599Y-90607485D01*
X166737599Y-90464628D01*
X166809028Y-90321771D01*
X166951885Y-90250342D01*
X167309028Y-90250342D01*
X167451885Y-90178914D01*
X168166171Y-89821771D02*
X168166171Y-90821771D01*
X168166171Y-89964628D02*
X168237599Y-89893200D01*
X168380457Y-89821771D01*
X168594742Y-89821771D01*
X168737599Y-89893200D01*
X168809028Y-90036057D01*
X168809028Y-90821771D01*
X170166171Y-90821771D02*
X170166171Y-89321771D01*
X170166171Y-90750342D02*
X170023314Y-90821771D01*
X169737599Y-90821771D01*
X169594742Y-90750342D01*
X169523314Y-90678914D01*
X169451885Y-90536057D01*
X169451885Y-90107485D01*
X169523314Y-89964628D01*
X169594742Y-89893200D01*
X169737599Y-89821771D01*
X170023314Y-89821771D01*
X170166171Y-89893200D01*
X172880457Y-90678914D02*
X172809028Y-90750342D01*
X172594742Y-90821771D01*
X172451885Y-90821771D01*
X172237599Y-90750342D01*
X172094742Y-90607485D01*
X172023314Y-90464628D01*
X171951885Y-90178914D01*
X171951885Y-89964628D01*
X172023314Y-89678914D01*
X172094742Y-89536057D01*
X172237599Y-89393200D01*
X172451885Y-89321771D01*
X172594742Y-89321771D01*
X172809028Y-89393200D01*
X172880457Y-89464628D01*
X173737599Y-90821771D02*
X173594742Y-90750342D01*
X173523314Y-90678914D01*
X173451885Y-90536057D01*
X173451885Y-90107485D01*
X173523314Y-89964628D01*
X173594742Y-89893200D01*
X173737599Y-89821771D01*
X173951885Y-89821771D01*
X174094742Y-89893200D01*
X174166171Y-89964628D01*
X174237599Y-90107485D01*
X174237599Y-90536057D01*
X174166171Y-90678914D01*
X174094742Y-90750342D01*
X173951885Y-90821771D01*
X173737599Y-90821771D01*
X174880457Y-89821771D02*
X174880457Y-90821771D01*
X174880457Y-89964628D02*
X174951885Y-89893200D01*
X175094742Y-89821771D01*
X175309028Y-89821771D01*
X175451885Y-89893200D01*
X175523314Y-90036057D01*
X175523314Y-90821771D01*
X176023314Y-89821771D02*
X176594742Y-89821771D01*
X176237600Y-89321771D02*
X176237600Y-90607485D01*
X176309028Y-90750342D01*
X176451885Y-90821771D01*
X176594742Y-90821771D01*
X177094742Y-90821771D02*
X177094742Y-89821771D01*
X177094742Y-90107485D02*
X177166171Y-89964628D01*
X177237600Y-89893200D01*
X177380457Y-89821771D01*
X177523314Y-89821771D01*
X178237600Y-90821771D02*
X178094742Y-90750342D01*
X178023314Y-90678914D01*
X177951885Y-90536057D01*
X177951885Y-90107485D01*
X178023314Y-89964628D01*
X178094742Y-89893200D01*
X178237600Y-89821771D01*
X178451885Y-89821771D01*
X178594742Y-89893200D01*
X178666171Y-89964628D01*
X178737600Y-90107485D01*
X178737600Y-90536057D01*
X178666171Y-90678914D01*
X178594742Y-90750342D01*
X178451885Y-90821771D01*
X178237600Y-90821771D01*
X179594742Y-90821771D02*
X179451885Y-90750342D01*
X179380457Y-90607485D01*
X179380457Y-89321771D01*
X181809028Y-90036057D02*
X182023314Y-90107485D01*
X182094742Y-90178914D01*
X182166171Y-90321771D01*
X182166171Y-90536057D01*
X182094742Y-90678914D01*
X182023314Y-90750342D01*
X181880457Y-90821771D01*
X181309028Y-90821771D01*
X181309028Y-89321771D01*
X181809028Y-89321771D01*
X181951885Y-89393200D01*
X182023314Y-89464628D01*
X182094742Y-89607485D01*
X182094742Y-89750342D01*
X182023314Y-89893200D01*
X181951885Y-89964628D01*
X181809028Y-90036057D01*
X181309028Y-90036057D01*
X183023314Y-90821771D02*
X182880457Y-90750342D01*
X182809028Y-90678914D01*
X182737600Y-90536057D01*
X182737600Y-90107485D01*
X182809028Y-89964628D01*
X182880457Y-89893200D01*
X183023314Y-89821771D01*
X183237600Y-89821771D01*
X183380457Y-89893200D01*
X183451885Y-89964628D01*
X183523314Y-90107485D01*
X183523314Y-90536057D01*
X183451885Y-90678914D01*
X183380457Y-90750342D01*
X183237600Y-90821771D01*
X183023314Y-90821771D01*
X184809028Y-90821771D02*
X184809028Y-90036057D01*
X184737600Y-89893200D01*
X184594742Y-89821771D01*
X184309028Y-89821771D01*
X184166171Y-89893200D01*
X184809028Y-90750342D02*
X184666171Y-90821771D01*
X184309028Y-90821771D01*
X184166171Y-90750342D01*
X184094742Y-90607485D01*
X184094742Y-90464628D01*
X184166171Y-90321771D01*
X184309028Y-90250342D01*
X184666171Y-90250342D01*
X184809028Y-90178914D01*
X185523314Y-90821771D02*
X185523314Y-89821771D01*
X185523314Y-90107485D02*
X185594742Y-89964628D01*
X185666171Y-89893200D01*
X185809028Y-89821771D01*
X185951885Y-89821771D01*
X187094742Y-90821771D02*
X187094742Y-89321771D01*
X187094742Y-90750342D02*
X186951885Y-90821771D01*
X186666171Y-90821771D01*
X186523314Y-90750342D01*
X186451885Y-90678914D01*
X186380457Y-90536057D01*
X186380457Y-90107485D01*
X186451885Y-89964628D01*
X186523314Y-89893200D01*
X186666171Y-89821771D01*
X186951885Y-89821771D01*
X187094742Y-89893200D01*
X167451885Y-91736771D02*
X167951885Y-93236771D01*
X168451885Y-91736771D01*
X169737600Y-93236771D02*
X168880457Y-93236771D01*
X169309028Y-93236771D02*
X169309028Y-91736771D01*
X169166171Y-91951057D01*
X169023314Y-92093914D01*
X168880457Y-92165342D01*
X170380457Y-93093914D02*
X170451885Y-93165342D01*
X170380457Y-93236771D01*
X170309028Y-93165342D01*
X170380457Y-93093914D01*
X170380457Y-93236771D01*
X171023314Y-91879628D02*
X171094742Y-91808200D01*
X171237600Y-91736771D01*
X171594742Y-91736771D01*
X171737600Y-91808200D01*
X171809028Y-91879628D01*
X171880457Y-92022485D01*
X171880457Y-92165342D01*
X171809028Y-92379628D01*
X170951885Y-93236771D01*
X171880457Y-93236771D01*
X162487600Y-95223200D02*
X163201885Y-95223200D01*
X162344742Y-95651771D02*
X162844742Y-94151771D01*
X163344742Y-95651771D01*
X164059028Y-95651771D02*
X163916171Y-95580342D01*
X163844742Y-95437485D01*
X163844742Y-94151771D01*
X165201885Y-95580342D02*
X165059028Y-95651771D01*
X164773314Y-95651771D01*
X164630457Y-95580342D01*
X164559028Y-95437485D01*
X164559028Y-94866057D01*
X164630457Y-94723200D01*
X164773314Y-94651771D01*
X165059028Y-94651771D01*
X165201885Y-94723200D01*
X165273314Y-94866057D01*
X165273314Y-95008914D01*
X164559028Y-95151771D01*
X165773314Y-95651771D02*
X166559028Y-94651771D01*
X165773314Y-94651771D02*
X166559028Y-95651771D01*
X168273314Y-95651771D02*
X168273314Y-94151771D01*
X168273314Y-94866057D02*
X169130457Y-94866057D01*
X169130457Y-95651771D02*
X169130457Y-94151771D01*
X170059028Y-95651771D02*
X169916171Y-95580342D01*
X169844742Y-95508914D01*
X169773314Y-95366057D01*
X169773314Y-94937485D01*
X169844742Y-94794628D01*
X169916171Y-94723200D01*
X170059028Y-94651771D01*
X170273314Y-94651771D01*
X170416171Y-94723200D01*
X170487600Y-94794628D01*
X170559028Y-94937485D01*
X170559028Y-95366057D01*
X170487600Y-95508914D01*
X170416171Y-95580342D01*
X170273314Y-95651771D01*
X170059028Y-95651771D01*
X170987600Y-94651771D02*
X171559028Y-94651771D01*
X171201885Y-95651771D02*
X171201885Y-94366057D01*
X171273314Y-94223200D01*
X171416171Y-94151771D01*
X171559028Y-94151771D01*
X171844742Y-94651771D02*
X172416171Y-94651771D01*
X172059028Y-95651771D02*
X172059028Y-94366057D01*
X172130457Y-94223200D01*
X172273314Y-94151771D01*
X172416171Y-94151771D01*
X172916171Y-95651771D02*
X172916171Y-94651771D01*
X172916171Y-94794628D02*
X172987600Y-94723200D01*
X173130457Y-94651771D01*
X173344742Y-94651771D01*
X173487600Y-94723200D01*
X173559028Y-94866057D01*
X173559028Y-95651771D01*
X173559028Y-94866057D02*
X173630457Y-94723200D01*
X173773314Y-94651771D01*
X173987600Y-94651771D01*
X174130457Y-94723200D01*
X174201885Y-94866057D01*
X174201885Y-95651771D01*
X175559028Y-95651771D02*
X175559028Y-94866057D01*
X175487600Y-94723200D01*
X175344742Y-94651771D01*
X175059028Y-94651771D01*
X174916171Y-94723200D01*
X175559028Y-95580342D02*
X175416171Y-95651771D01*
X175059028Y-95651771D01*
X174916171Y-95580342D01*
X174844742Y-95437485D01*
X174844742Y-95294628D01*
X174916171Y-95151771D01*
X175059028Y-95080342D01*
X175416171Y-95080342D01*
X175559028Y-95008914D01*
X176273314Y-94651771D02*
X176273314Y-95651771D01*
X176273314Y-94794628D02*
X176344742Y-94723200D01*
X176487599Y-94651771D01*
X176701885Y-94651771D01*
X176844742Y-94723200D01*
X176916171Y-94866057D01*
X176916171Y-95651771D01*
X107024228Y-71265828D02*
X107024228Y-70408685D01*
X107024228Y-70837257D02*
X108524228Y-70837257D01*
X108309942Y-70694400D01*
X108167085Y-70551542D01*
X108095657Y-70408685D01*
X108381371Y-71837257D02*
X108452800Y-71908685D01*
X108524228Y-72051542D01*
X108524228Y-72408685D01*
X108452800Y-72551542D01*
X108381371Y-72622971D01*
X108238514Y-72694400D01*
X108095657Y-72694400D01*
X107881371Y-72622971D01*
X107024228Y-71765828D01*
X107024228Y-72694400D01*
X108524228Y-73122971D02*
X107024228Y-73622971D01*
X108524228Y-74122971D01*
X125809942Y-111122971D02*
X124952800Y-111122971D01*
X125381371Y-111122971D02*
X125381371Y-109622971D01*
X125238514Y-109837257D01*
X125095657Y-109980114D01*
X124952800Y-110051542D01*
X126667085Y-110265828D02*
X126524228Y-110194400D01*
X126452800Y-110122971D01*
X126381371Y-109980114D01*
X126381371Y-109908685D01*
X126452800Y-109765828D01*
X126524228Y-109694400D01*
X126667085Y-109622971D01*
X126952800Y-109622971D01*
X127095657Y-109694400D01*
X127167085Y-109765828D01*
X127238514Y-109908685D01*
X127238514Y-109980114D01*
X127167085Y-110122971D01*
X127095657Y-110194400D01*
X126952800Y-110265828D01*
X126667085Y-110265828D01*
X126524228Y-110337257D01*
X126452800Y-110408685D01*
X126381371Y-110551542D01*
X126381371Y-110837257D01*
X126452800Y-110980114D01*
X126524228Y-111051542D01*
X126667085Y-111122971D01*
X126952800Y-111122971D01*
X127095657Y-111051542D01*
X127167085Y-110980114D01*
X127238514Y-110837257D01*
X127238514Y-110551542D01*
X127167085Y-110408685D01*
X127095657Y-110337257D01*
X126952800Y-110265828D01*
X128167085Y-109622971D02*
X128309942Y-109622971D01*
X128452800Y-109694400D01*
X128524228Y-109765828D01*
X128595657Y-109908685D01*
X128667085Y-110194400D01*
X128667085Y-110551542D01*
X128595657Y-110837257D01*
X128524228Y-110980114D01*
X128452800Y-111051542D01*
X128309942Y-111122971D01*
X128167085Y-111122971D01*
X128024228Y-111051542D01*
X127952800Y-110980114D01*
X127881371Y-110837257D01*
X127809942Y-110551542D01*
X127809942Y-110194400D01*
X127881371Y-109908685D01*
X127952800Y-109765828D01*
X128024228Y-109694400D01*
X128167085Y-109622971D01*
X129095657Y-109622971D02*
X129595657Y-111122971D01*
X130095657Y-109622971D01*
D11*
X185286133Y-69896780D02*
X184952800Y-69420590D01*
X184714704Y-69896780D02*
X184714704Y-68896780D01*
X185095657Y-68896780D01*
X185190895Y-68944400D01*
X185238514Y-68992019D01*
X185286133Y-69087257D01*
X185286133Y-69230114D01*
X185238514Y-69325352D01*
X185190895Y-69372971D01*
X185095657Y-69420590D01*
X184714704Y-69420590D01*
X185714704Y-69896780D02*
X185714704Y-68896780D01*
X186095657Y-68896780D01*
X186190895Y-68944400D01*
X186238514Y-68992019D01*
X186286133Y-69087257D01*
X186286133Y-69230114D01*
X186238514Y-69325352D01*
X186190895Y-69372971D01*
X186095657Y-69420590D01*
X185714704Y-69420590D01*
X187238514Y-69896780D02*
X186667085Y-69896780D01*
X186952800Y-69896780D02*
X186952800Y-68896780D01*
X186857561Y-69039638D01*
X186762323Y-69134876D01*
X186667085Y-69182495D01*
X171455295Y-68703980D02*
X171455295Y-69513504D01*
X171502914Y-69608742D01*
X171550533Y-69656361D01*
X171645771Y-69703980D01*
X171836247Y-69703980D01*
X171931485Y-69656361D01*
X171979104Y-69608742D01*
X172026723Y-69513504D01*
X172026723Y-68703980D01*
X172455295Y-68799219D02*
X172502914Y-68751600D01*
X172598152Y-68703980D01*
X172836247Y-68703980D01*
X172931485Y-68751600D01*
X172979104Y-68799219D01*
X173026723Y-68894457D01*
X173026723Y-68989695D01*
X172979104Y-69132552D01*
X172407676Y-69703980D01*
X173026723Y-69703980D01*
X125800533Y-98203980D02*
X125467200Y-97727790D01*
X125229104Y-98203980D02*
X125229104Y-97203980D01*
X125610057Y-97203980D01*
X125705295Y-97251600D01*
X125752914Y-97299219D01*
X125800533Y-97394457D01*
X125800533Y-97537314D01*
X125752914Y-97632552D01*
X125705295Y-97680171D01*
X125610057Y-97727790D01*
X125229104Y-97727790D01*
X126752914Y-98203980D02*
X126181485Y-98203980D01*
X126467200Y-98203980D02*
X126467200Y-97203980D01*
X126371961Y-97346838D01*
X126276723Y-97442076D01*
X126181485Y-97489695D01*
X123871961Y-86299219D02*
X123776723Y-86251600D01*
X123681485Y-86156361D01*
X123538628Y-86013504D01*
X123443390Y-85965885D01*
X123348152Y-85965885D01*
X123395771Y-86203980D02*
X123300533Y-86156361D01*
X123205295Y-86061123D01*
X123157676Y-85870647D01*
X123157676Y-85537314D01*
X123205295Y-85346838D01*
X123300533Y-85251600D01*
X123395771Y-85203980D01*
X123586247Y-85203980D01*
X123681485Y-85251600D01*
X123776723Y-85346838D01*
X123824342Y-85537314D01*
X123824342Y-85870647D01*
X123776723Y-86061123D01*
X123681485Y-86156361D01*
X123586247Y-86203980D01*
X123395771Y-86203980D01*
X124776723Y-86203980D02*
X124205295Y-86203980D01*
X124491009Y-86203980D02*
X124491009Y-85203980D01*
X124395771Y-85346838D01*
X124300533Y-85442076D01*
X124205295Y-85489695D01*
X135729104Y-98703980D02*
X135729104Y-97703980D01*
X135967200Y-97703980D01*
X136110057Y-97751600D01*
X136205295Y-97846838D01*
X136252914Y-97942076D01*
X136300533Y-98132552D01*
X136300533Y-98275409D01*
X136252914Y-98465885D01*
X136205295Y-98561123D01*
X136110057Y-98656361D01*
X135967200Y-98703980D01*
X135729104Y-98703980D01*
X137252914Y-98703980D02*
X136681485Y-98703980D01*
X136967200Y-98703980D02*
X136967200Y-97703980D01*
X136871961Y-97846838D01*
X136776723Y-97942076D01*
X136681485Y-97989695D01*
X154729104Y-111308980D02*
X154729104Y-110308980D01*
X155110057Y-110308980D01*
X155205295Y-110356600D01*
X155252914Y-110404219D01*
X155300533Y-110499457D01*
X155300533Y-110642314D01*
X155252914Y-110737552D01*
X155205295Y-110785171D01*
X155110057Y-110832790D01*
X154729104Y-110832790D01*
X156157676Y-110642314D02*
X156157676Y-111308980D01*
X155919580Y-110261361D02*
X155681485Y-110975647D01*
X156300533Y-110975647D01*
X177369466Y-105646780D02*
X177369466Y-106361066D01*
X177321847Y-106503923D01*
X177226609Y-106599161D01*
X177083752Y-106646780D01*
X176988514Y-106646780D01*
X178369466Y-106646780D02*
X177798038Y-106646780D01*
X178083752Y-106646780D02*
X178083752Y-105646780D01*
X177988514Y-105789638D01*
X177893276Y-105884876D01*
X177798038Y-105932495D01*
X114361133Y-82801542D02*
X114313514Y-82849161D01*
X114170657Y-82896780D01*
X114075419Y-82896780D01*
X113932561Y-82849161D01*
X113837323Y-82753923D01*
X113789704Y-82658685D01*
X113742085Y-82468209D01*
X113742085Y-82325352D01*
X113789704Y-82134876D01*
X113837323Y-82039638D01*
X113932561Y-81944400D01*
X114075419Y-81896780D01*
X114170657Y-81896780D01*
X114313514Y-81944400D01*
X114361133Y-81992019D01*
X115313514Y-82896780D02*
X114742085Y-82896780D01*
X115027800Y-82896780D02*
X115027800Y-81896780D01*
X114932561Y-82039638D01*
X114837323Y-82134876D01*
X114742085Y-82182495D01*
X116309942Y-91611066D02*
X116357561Y-91658685D01*
X116405180Y-91801542D01*
X116405180Y-91896780D01*
X116357561Y-92039638D01*
X116262323Y-92134876D01*
X116167085Y-92182495D01*
X115976609Y-92230114D01*
X115833752Y-92230114D01*
X115643276Y-92182495D01*
X115548038Y-92134876D01*
X115452800Y-92039638D01*
X115405180Y-91896780D01*
X115405180Y-91801542D01*
X115452800Y-91658685D01*
X115500419Y-91611066D01*
X115405180Y-91277733D02*
X115405180Y-90658685D01*
X115786133Y-90992019D01*
X115786133Y-90849161D01*
X115833752Y-90753923D01*
X115881371Y-90706304D01*
X115976609Y-90658685D01*
X116214704Y-90658685D01*
X116309942Y-90706304D01*
X116357561Y-90753923D01*
X116405180Y-90849161D01*
X116405180Y-91134876D01*
X116357561Y-91230114D01*
X116309942Y-91277733D01*
X127550533Y-64508742D02*
X127502914Y-64556361D01*
X127360057Y-64603980D01*
X127264819Y-64603980D01*
X127121961Y-64556361D01*
X127026723Y-64461123D01*
X126979104Y-64365885D01*
X126931485Y-64175409D01*
X126931485Y-64032552D01*
X126979104Y-63842076D01*
X127026723Y-63746838D01*
X127121961Y-63651600D01*
X127264819Y-63603980D01*
X127360057Y-63603980D01*
X127502914Y-63651600D01*
X127550533Y-63699219D01*
X128407676Y-63937314D02*
X128407676Y-64603980D01*
X128169580Y-63556361D02*
X127931485Y-64270647D01*
X128550533Y-64270647D01*
X109536133Y-103051542D02*
X109488514Y-103099161D01*
X109345657Y-103146780D01*
X109250419Y-103146780D01*
X109107561Y-103099161D01*
X109012323Y-103003923D01*
X108964704Y-102908685D01*
X108917085Y-102718209D01*
X108917085Y-102575352D01*
X108964704Y-102384876D01*
X109012323Y-102289638D01*
X109107561Y-102194400D01*
X109250419Y-102146780D01*
X109345657Y-102146780D01*
X109488514Y-102194400D01*
X109536133Y-102242019D01*
X109869466Y-102146780D02*
X110536133Y-102146780D01*
X110107561Y-103146780D01*
X160550533Y-67878442D02*
X160502914Y-67926061D01*
X160360057Y-67973680D01*
X160264819Y-67973680D01*
X160121961Y-67926061D01*
X160026723Y-67830823D01*
X159979104Y-67735585D01*
X159931485Y-67545109D01*
X159931485Y-67402252D01*
X159979104Y-67211776D01*
X160026723Y-67116538D01*
X160121961Y-67021300D01*
X160264819Y-66973680D01*
X160360057Y-66973680D01*
X160502914Y-67021300D01*
X160550533Y-67068919D01*
X161121961Y-67402252D02*
X161026723Y-67354633D01*
X160979104Y-67307014D01*
X160931485Y-67211776D01*
X160931485Y-67164157D01*
X160979104Y-67068919D01*
X161026723Y-67021300D01*
X161121961Y-66973680D01*
X161312438Y-66973680D01*
X161407676Y-67021300D01*
X161455295Y-67068919D01*
X161502914Y-67164157D01*
X161502914Y-67211776D01*
X161455295Y-67307014D01*
X161407676Y-67354633D01*
X161312438Y-67402252D01*
X161121961Y-67402252D01*
X161026723Y-67449871D01*
X160979104Y-67497490D01*
X160931485Y-67592728D01*
X160931485Y-67783204D01*
X160979104Y-67878442D01*
X161026723Y-67926061D01*
X161121961Y-67973680D01*
X161312438Y-67973680D01*
X161407676Y-67926061D01*
X161455295Y-67878442D01*
X161502914Y-67783204D01*
X161502914Y-67592728D01*
X161455295Y-67497490D01*
X161407676Y-67449871D01*
X161312438Y-67402252D01*
X165286133Y-69051542D02*
X165238514Y-69099161D01*
X165095657Y-69146780D01*
X165000419Y-69146780D01*
X164857561Y-69099161D01*
X164762323Y-69003923D01*
X164714704Y-68908685D01*
X164667085Y-68718209D01*
X164667085Y-68575352D01*
X164714704Y-68384876D01*
X164762323Y-68289638D01*
X164857561Y-68194400D01*
X165000419Y-68146780D01*
X165095657Y-68146780D01*
X165238514Y-68194400D01*
X165286133Y-68242019D01*
X165762323Y-69146780D02*
X165952800Y-69146780D01*
X166048038Y-69099161D01*
X166095657Y-69051542D01*
X166190895Y-68908685D01*
X166238514Y-68718209D01*
X166238514Y-68337257D01*
X166190895Y-68242019D01*
X166143276Y-68194400D01*
X166048038Y-68146780D01*
X165857561Y-68146780D01*
X165762323Y-68194400D01*
X165714704Y-68242019D01*
X165667085Y-68337257D01*
X165667085Y-68575352D01*
X165714704Y-68670590D01*
X165762323Y-68718209D01*
X165857561Y-68765828D01*
X166048038Y-68765828D01*
X166143276Y-68718209D01*
X166190895Y-68670590D01*
X166238514Y-68575352D01*
X107849761Y-91646780D02*
X107516428Y-91170590D01*
X107278333Y-91646780D02*
X107278333Y-90646780D01*
X107659285Y-90646780D01*
X107754523Y-90694400D01*
X107802142Y-90742019D01*
X107849761Y-90837257D01*
X107849761Y-90980114D01*
X107802142Y-91075352D01*
X107754523Y-91122971D01*
X107659285Y-91170590D01*
X107278333Y-91170590D01*
X108135476Y-90646780D02*
X108468809Y-91646780D01*
X108802142Y-90646780D01*
X109659285Y-91646780D02*
X109087857Y-91646780D01*
X109373571Y-91646780D02*
X109373571Y-90646780D01*
X109278333Y-90789638D01*
X109183095Y-90884876D01*
X109087857Y-90932495D01*
X148621961Y-64953980D02*
X148288628Y-64477790D01*
X148050533Y-64953980D02*
X148050533Y-63953980D01*
X148431485Y-63953980D01*
X148526723Y-64001600D01*
X148574342Y-64049219D01*
X148621961Y-64144457D01*
X148621961Y-64287314D01*
X148574342Y-64382552D01*
X148526723Y-64430171D01*
X148431485Y-64477790D01*
X148050533Y-64477790D01*
X148907676Y-63953980D02*
X149241009Y-64953980D01*
X149574342Y-63953980D01*
X149860057Y-64049219D02*
X149907676Y-64001600D01*
X150002914Y-63953980D01*
X150241009Y-63953980D01*
X150336247Y-64001600D01*
X150383866Y-64049219D01*
X150431485Y-64144457D01*
X150431485Y-64239695D01*
X150383866Y-64382552D01*
X149812438Y-64953980D01*
X150431485Y-64953980D01*
X145309942Y-68301542D02*
X145262323Y-68349161D01*
X145119466Y-68396780D01*
X145024228Y-68396780D01*
X144881371Y-68349161D01*
X144786133Y-68253923D01*
X144738514Y-68158685D01*
X144690895Y-67968209D01*
X144690895Y-67825352D01*
X144738514Y-67634876D01*
X144786133Y-67539638D01*
X144881371Y-67444400D01*
X145024228Y-67396780D01*
X145119466Y-67396780D01*
X145262323Y-67444400D01*
X145309942Y-67492019D01*
X145690895Y-67492019D02*
X145738514Y-67444400D01*
X145833752Y-67396780D01*
X146071847Y-67396780D01*
X146167085Y-67444400D01*
X146214704Y-67492019D01*
X146262323Y-67587257D01*
X146262323Y-67682495D01*
X146214704Y-67825352D01*
X145643276Y-68396780D01*
X146262323Y-68396780D01*
X146643276Y-67492019D02*
X146690895Y-67444400D01*
X146786133Y-67396780D01*
X147024228Y-67396780D01*
X147119466Y-67444400D01*
X147167085Y-67492019D01*
X147214704Y-67587257D01*
X147214704Y-67682495D01*
X147167085Y-67825352D01*
X146595657Y-68396780D01*
X147214704Y-68396780D01*
X144324342Y-65046780D02*
X143991009Y-64570590D01*
X143752914Y-65046780D02*
X143752914Y-64046780D01*
X144133866Y-64046780D01*
X144229104Y-64094400D01*
X144276723Y-64142019D01*
X144324342Y-64237257D01*
X144324342Y-64380114D01*
X144276723Y-64475352D01*
X144229104Y-64522971D01*
X144133866Y-64570590D01*
X143752914Y-64570590D01*
X145276723Y-65046780D02*
X144705295Y-65046780D01*
X144991009Y-65046780D02*
X144991009Y-64046780D01*
X144895771Y-64189638D01*
X144800533Y-64284876D01*
X144705295Y-64332495D01*
X145895771Y-64046780D02*
X145991009Y-64046780D01*
X146086247Y-64094400D01*
X146133866Y-64142019D01*
X146181485Y-64237257D01*
X146229104Y-64427733D01*
X146229104Y-64665828D01*
X146181485Y-64856304D01*
X146133866Y-64951542D01*
X146086247Y-64999161D01*
X145991009Y-65046780D01*
X145895771Y-65046780D01*
X145800533Y-64999161D01*
X145752914Y-64951542D01*
X145705295Y-64856304D01*
X145657676Y-64665828D01*
X145657676Y-64427733D01*
X145705295Y-64237257D01*
X145752914Y-64142019D01*
X145800533Y-64094400D01*
X145895771Y-64046780D01*
X152086133Y-79396780D02*
X151609942Y-79396780D01*
X151609942Y-78396780D01*
X152371847Y-78492019D02*
X152419466Y-78444400D01*
X152514704Y-78396780D01*
X152752800Y-78396780D01*
X152848038Y-78444400D01*
X152895657Y-78492019D01*
X152943276Y-78587257D01*
X152943276Y-78682495D01*
X152895657Y-78825352D01*
X152324228Y-79396780D01*
X152943276Y-79396780D01*
X150705295Y-73203980D02*
X150705295Y-74013504D01*
X150752914Y-74108742D01*
X150800533Y-74156361D01*
X150895771Y-74203980D01*
X151086247Y-74203980D01*
X151181485Y-74156361D01*
X151229104Y-74108742D01*
X151276723Y-74013504D01*
X151276723Y-73203980D01*
X151895771Y-73632552D02*
X151800533Y-73584933D01*
X151752914Y-73537314D01*
X151705295Y-73442076D01*
X151705295Y-73394457D01*
X151752914Y-73299219D01*
X151800533Y-73251600D01*
X151895771Y-73203980D01*
X152086247Y-73203980D01*
X152181485Y-73251600D01*
X152229104Y-73299219D01*
X152276723Y-73394457D01*
X152276723Y-73442076D01*
X152229104Y-73537314D01*
X152181485Y-73584933D01*
X152086247Y-73632552D01*
X151895771Y-73632552D01*
X151800533Y-73680171D01*
X151752914Y-73727790D01*
X151705295Y-73823028D01*
X151705295Y-74013504D01*
X151752914Y-74108742D01*
X151800533Y-74156361D01*
X151895771Y-74203980D01*
X152086247Y-74203980D01*
X152181485Y-74156361D01*
X152229104Y-74108742D01*
X152276723Y-74013504D01*
X152276723Y-73823028D01*
X152229104Y-73727790D01*
X152181485Y-73680171D01*
X152086247Y-73632552D01*
X146324342Y-80358742D02*
X146276723Y-80406361D01*
X146133866Y-80453980D01*
X146038628Y-80453980D01*
X145895771Y-80406361D01*
X145800533Y-80311123D01*
X145752914Y-80215885D01*
X145705295Y-80025409D01*
X145705295Y-79882552D01*
X145752914Y-79692076D01*
X145800533Y-79596838D01*
X145895771Y-79501600D01*
X146038628Y-79453980D01*
X146133866Y-79453980D01*
X146276723Y-79501600D01*
X146324342Y-79549219D01*
X146705295Y-79549219D02*
X146752914Y-79501600D01*
X146848152Y-79453980D01*
X147086247Y-79453980D01*
X147181485Y-79501600D01*
X147229104Y-79549219D01*
X147276723Y-79644457D01*
X147276723Y-79739695D01*
X147229104Y-79882552D01*
X146657676Y-80453980D01*
X147276723Y-80453980D01*
X148229104Y-80453980D02*
X147657676Y-80453980D01*
X147943390Y-80453980D02*
X147943390Y-79453980D01*
X147848152Y-79596838D01*
X147752914Y-79692076D01*
X147657676Y-79739695D01*
X138324342Y-67358742D02*
X138276723Y-67406361D01*
X138133866Y-67453980D01*
X138038628Y-67453980D01*
X137895771Y-67406361D01*
X137800533Y-67311123D01*
X137752914Y-67215885D01*
X137705295Y-67025409D01*
X137705295Y-66882552D01*
X137752914Y-66692076D01*
X137800533Y-66596838D01*
X137895771Y-66501600D01*
X138038628Y-66453980D01*
X138133866Y-66453980D01*
X138276723Y-66501600D01*
X138324342Y-66549219D01*
X139276723Y-67453980D02*
X138705295Y-67453980D01*
X138991009Y-67453980D02*
X138991009Y-66453980D01*
X138895771Y-66596838D01*
X138800533Y-66692076D01*
X138705295Y-66739695D01*
X139752914Y-67453980D02*
X139943390Y-67453980D01*
X140038628Y-67406361D01*
X140086247Y-67358742D01*
X140181485Y-67215885D01*
X140229104Y-67025409D01*
X140229104Y-66644457D01*
X140181485Y-66549219D01*
X140133866Y-66501600D01*
X140038628Y-66453980D01*
X139848152Y-66453980D01*
X139752914Y-66501600D01*
X139705295Y-66549219D01*
X139657676Y-66644457D01*
X139657676Y-66882552D01*
X139705295Y-66977790D01*
X139752914Y-67025409D01*
X139848152Y-67073028D01*
X140038628Y-67073028D01*
X140133866Y-67025409D01*
X140181485Y-66977790D01*
X140229104Y-66882552D01*
X121436133Y-73146780D02*
X120959942Y-73146780D01*
X120959942Y-72146780D01*
X122293276Y-73146780D02*
X121721847Y-73146780D01*
X122007561Y-73146780D02*
X122007561Y-72146780D01*
X121912323Y-72289638D01*
X121817085Y-72384876D01*
X121721847Y-72432495D01*
X170609942Y-64108742D02*
X170562323Y-64156361D01*
X170419466Y-64203980D01*
X170324228Y-64203980D01*
X170181371Y-64156361D01*
X170086133Y-64061123D01*
X170038514Y-63965885D01*
X169990895Y-63775409D01*
X169990895Y-63632552D01*
X170038514Y-63442076D01*
X170086133Y-63346838D01*
X170181371Y-63251600D01*
X170324228Y-63203980D01*
X170419466Y-63203980D01*
X170562323Y-63251600D01*
X170609942Y-63299219D01*
X171562323Y-64203980D02*
X170990895Y-64203980D01*
X171276609Y-64203980D02*
X171276609Y-63203980D01*
X171181371Y-63346838D01*
X171086133Y-63442076D01*
X170990895Y-63489695D01*
X172181371Y-63203980D02*
X172276609Y-63203980D01*
X172371847Y-63251600D01*
X172419466Y-63299219D01*
X172467085Y-63394457D01*
X172514704Y-63584933D01*
X172514704Y-63823028D01*
X172467085Y-64013504D01*
X172419466Y-64108742D01*
X172371847Y-64156361D01*
X172276609Y-64203980D01*
X172181371Y-64203980D01*
X172086133Y-64156361D01*
X172038514Y-64108742D01*
X171990895Y-64013504D01*
X171943276Y-63823028D01*
X171943276Y-63584933D01*
X171990895Y-63394457D01*
X172038514Y-63299219D01*
X172086133Y-63251600D01*
X172181371Y-63203980D01*
X125800533Y-101608742D02*
X125752914Y-101656361D01*
X125610057Y-101703980D01*
X125514819Y-101703980D01*
X125371961Y-101656361D01*
X125276723Y-101561123D01*
X125229104Y-101465885D01*
X125181485Y-101275409D01*
X125181485Y-101132552D01*
X125229104Y-100942076D01*
X125276723Y-100846838D01*
X125371961Y-100751600D01*
X125514819Y-100703980D01*
X125610057Y-100703980D01*
X125752914Y-100751600D01*
X125800533Y-100799219D01*
X126705295Y-100703980D02*
X126229104Y-100703980D01*
X126181485Y-101180171D01*
X126229104Y-101132552D01*
X126324342Y-101084933D01*
X126562438Y-101084933D01*
X126657676Y-101132552D01*
X126705295Y-101180171D01*
X126752914Y-101275409D01*
X126752914Y-101513504D01*
X126705295Y-101608742D01*
X126657676Y-101656361D01*
X126562438Y-101703980D01*
X126324342Y-101703980D01*
X126229104Y-101656361D01*
X126181485Y-101608742D01*
X109036133Y-87646780D02*
X108702800Y-87170590D01*
X108464704Y-87646780D02*
X108464704Y-86646780D01*
X108845657Y-86646780D01*
X108940895Y-86694400D01*
X108988514Y-86742019D01*
X109036133Y-86837257D01*
X109036133Y-86980114D01*
X108988514Y-87075352D01*
X108940895Y-87122971D01*
X108845657Y-87170590D01*
X108464704Y-87170590D01*
X109369466Y-86646780D02*
X109988514Y-86646780D01*
X109655180Y-87027733D01*
X109798038Y-87027733D01*
X109893276Y-87075352D01*
X109940895Y-87122971D01*
X109988514Y-87218209D01*
X109988514Y-87456304D01*
X109940895Y-87551542D01*
X109893276Y-87599161D01*
X109798038Y-87646780D01*
X109512323Y-87646780D01*
X109417085Y-87599161D01*
X109369466Y-87551542D01*
X109300533Y-95703980D02*
X108967200Y-95227790D01*
X108729104Y-95703980D02*
X108729104Y-94703980D01*
X109110057Y-94703980D01*
X109205295Y-94751600D01*
X109252914Y-94799219D01*
X109300533Y-94894457D01*
X109300533Y-95037314D01*
X109252914Y-95132552D01*
X109205295Y-95180171D01*
X109110057Y-95227790D01*
X108729104Y-95227790D01*
X109681485Y-94799219D02*
X109729104Y-94751600D01*
X109824342Y-94703980D01*
X110062438Y-94703980D01*
X110157676Y-94751600D01*
X110205295Y-94799219D01*
X110252914Y-94894457D01*
X110252914Y-94989695D01*
X110205295Y-95132552D01*
X109633866Y-95703980D01*
X110252914Y-95703980D01*
X140809942Y-65051542D02*
X140762323Y-65099161D01*
X140619466Y-65146780D01*
X140524228Y-65146780D01*
X140381371Y-65099161D01*
X140286133Y-65003923D01*
X140238514Y-64908685D01*
X140190895Y-64718209D01*
X140190895Y-64575352D01*
X140238514Y-64384876D01*
X140286133Y-64289638D01*
X140381371Y-64194400D01*
X140524228Y-64146780D01*
X140619466Y-64146780D01*
X140762323Y-64194400D01*
X140809942Y-64242019D01*
X141190895Y-64242019D02*
X141238514Y-64194400D01*
X141333752Y-64146780D01*
X141571847Y-64146780D01*
X141667085Y-64194400D01*
X141714704Y-64242019D01*
X141762323Y-64337257D01*
X141762323Y-64432495D01*
X141714704Y-64575352D01*
X141143276Y-65146780D01*
X141762323Y-65146780D01*
X142381371Y-64146780D02*
X142476609Y-64146780D01*
X142571847Y-64194400D01*
X142619466Y-64242019D01*
X142667085Y-64337257D01*
X142714704Y-64527733D01*
X142714704Y-64765828D01*
X142667085Y-64956304D01*
X142619466Y-65051542D01*
X142571847Y-65099161D01*
X142476609Y-65146780D01*
X142381371Y-65146780D01*
X142286133Y-65099161D01*
X142238514Y-65051542D01*
X142190895Y-64956304D01*
X142143276Y-64765828D01*
X142143276Y-64527733D01*
X142190895Y-64337257D01*
X142238514Y-64242019D01*
X142286133Y-64194400D01*
X142381371Y-64146780D01*
X157074342Y-66708742D02*
X157026723Y-66756361D01*
X156883866Y-66803980D01*
X156788628Y-66803980D01*
X156645771Y-66756361D01*
X156550533Y-66661123D01*
X156502914Y-66565885D01*
X156455295Y-66375409D01*
X156455295Y-66232552D01*
X156502914Y-66042076D01*
X156550533Y-65946838D01*
X156645771Y-65851600D01*
X156788628Y-65803980D01*
X156883866Y-65803980D01*
X157026723Y-65851600D01*
X157074342Y-65899219D01*
X157455295Y-65899219D02*
X157502914Y-65851600D01*
X157598152Y-65803980D01*
X157836247Y-65803980D01*
X157931485Y-65851600D01*
X157979104Y-65899219D01*
X158026723Y-65994457D01*
X158026723Y-66089695D01*
X157979104Y-66232552D01*
X157407676Y-66803980D01*
X158026723Y-66803980D01*
X158360057Y-65803980D02*
X158979104Y-65803980D01*
X158645771Y-66184933D01*
X158788628Y-66184933D01*
X158883866Y-66232552D01*
X158931485Y-66280171D01*
X158979104Y-66375409D01*
X158979104Y-66613504D01*
X158931485Y-66708742D01*
X158883866Y-66756361D01*
X158788628Y-66803980D01*
X158502914Y-66803980D01*
X158407676Y-66756361D01*
X158360057Y-66708742D01*
X152109942Y-69396780D02*
X151776609Y-68920590D01*
X151538514Y-69396780D02*
X151538514Y-68396780D01*
X151919466Y-68396780D01*
X152014704Y-68444400D01*
X152062323Y-68492019D01*
X152109942Y-68587257D01*
X152109942Y-68730114D01*
X152062323Y-68825352D01*
X152014704Y-68872971D01*
X151919466Y-68920590D01*
X151538514Y-68920590D01*
X153062323Y-69396780D02*
X152490895Y-69396780D01*
X152776609Y-69396780D02*
X152776609Y-68396780D01*
X152681371Y-68539638D01*
X152586133Y-68634876D01*
X152490895Y-68682495D01*
X154014704Y-69396780D02*
X153443276Y-69396780D01*
X153728990Y-69396780D02*
X153728990Y-68396780D01*
X153633752Y-68539638D01*
X153538514Y-68634876D01*
X153443276Y-68682495D01*
X141050533Y-75453980D02*
X140717200Y-74977790D01*
X140479104Y-75453980D02*
X140479104Y-74453980D01*
X140860057Y-74453980D01*
X140955295Y-74501600D01*
X141002914Y-74549219D01*
X141050533Y-74644457D01*
X141050533Y-74787314D01*
X141002914Y-74882552D01*
X140955295Y-74930171D01*
X140860057Y-74977790D01*
X140479104Y-74977790D01*
X141526723Y-75453980D02*
X141717200Y-75453980D01*
X141812438Y-75406361D01*
X141860057Y-75358742D01*
X141955295Y-75215885D01*
X142002914Y-75025409D01*
X142002914Y-74644457D01*
X141955295Y-74549219D01*
X141907676Y-74501600D01*
X141812438Y-74453980D01*
X141621961Y-74453980D01*
X141526723Y-74501600D01*
X141479104Y-74549219D01*
X141431485Y-74644457D01*
X141431485Y-74882552D01*
X141479104Y-74977790D01*
X141526723Y-75025409D01*
X141621961Y-75073028D01*
X141812438Y-75073028D01*
X141907676Y-75025409D01*
X141955295Y-74977790D01*
X142002914Y-74882552D01*
X114936133Y-85801542D02*
X114888514Y-85849161D01*
X114745657Y-85896780D01*
X114650419Y-85896780D01*
X114507561Y-85849161D01*
X114412323Y-85753923D01*
X114364704Y-85658685D01*
X114317085Y-85468209D01*
X114317085Y-85325352D01*
X114364704Y-85134876D01*
X114412323Y-85039638D01*
X114507561Y-84944400D01*
X114650419Y-84896780D01*
X114745657Y-84896780D01*
X114888514Y-84944400D01*
X114936133Y-84992019D01*
X115317085Y-84992019D02*
X115364704Y-84944400D01*
X115459942Y-84896780D01*
X115698038Y-84896780D01*
X115793276Y-84944400D01*
X115840895Y-84992019D01*
X115888514Y-85087257D01*
X115888514Y-85182495D01*
X115840895Y-85325352D01*
X115269466Y-85896780D01*
X115888514Y-85896780D01*
X169462204Y-78396780D02*
X169462204Y-77396780D01*
X169843157Y-77396780D01*
X169938395Y-77444400D01*
X169986014Y-77492019D01*
X170033633Y-77587257D01*
X170033633Y-77730114D01*
X169986014Y-77825352D01*
X169938395Y-77872971D01*
X169843157Y-77920590D01*
X169462204Y-77920590D01*
X170366966Y-77396780D02*
X170986014Y-77396780D01*
X170652680Y-77777733D01*
X170795538Y-77777733D01*
X170890776Y-77825352D01*
X170938395Y-77872971D01*
X170986014Y-77968209D01*
X170986014Y-78206304D01*
X170938395Y-78301542D01*
X170890776Y-78349161D01*
X170795538Y-78396780D01*
X170509823Y-78396780D01*
X170414585Y-78349161D01*
X170366966Y-78301542D01*
X118229104Y-102113580D02*
X118229104Y-101113580D01*
X118610057Y-101113580D01*
X118705295Y-101161200D01*
X118752914Y-101208819D01*
X118800533Y-101304057D01*
X118800533Y-101446914D01*
X118752914Y-101542152D01*
X118705295Y-101589771D01*
X118610057Y-101637390D01*
X118229104Y-101637390D01*
X119181485Y-101208819D02*
X119229104Y-101161200D01*
X119324342Y-101113580D01*
X119562438Y-101113580D01*
X119657676Y-101161200D01*
X119705295Y-101208819D01*
X119752914Y-101304057D01*
X119752914Y-101399295D01*
X119705295Y-101542152D01*
X119133866Y-102113580D01*
X119752914Y-102113580D01*
X162729104Y-111308980D02*
X162729104Y-110308980D01*
X163110057Y-110308980D01*
X163205295Y-110356600D01*
X163252914Y-110404219D01*
X163300533Y-110499457D01*
X163300533Y-110642314D01*
X163252914Y-110737552D01*
X163205295Y-110785171D01*
X163110057Y-110832790D01*
X162729104Y-110832790D01*
X164157676Y-110308980D02*
X163967200Y-110308980D01*
X163871961Y-110356600D01*
X163824342Y-110404219D01*
X163729104Y-110547076D01*
X163681485Y-110737552D01*
X163681485Y-111118504D01*
X163729104Y-111213742D01*
X163776723Y-111261361D01*
X163871961Y-111308980D01*
X164062438Y-111308980D01*
X164157676Y-111261361D01*
X164205295Y-111213742D01*
X164252914Y-111118504D01*
X164252914Y-110880409D01*
X164205295Y-110785171D01*
X164157676Y-110737552D01*
X164062438Y-110689933D01*
X163871961Y-110689933D01*
X163776723Y-110737552D01*
X163729104Y-110785171D01*
X163681485Y-110880409D01*
X115614304Y-69304780D02*
X115614304Y-68304780D01*
X115995257Y-68304780D01*
X116090495Y-68352400D01*
X116138114Y-68400019D01*
X116185733Y-68495257D01*
X116185733Y-68638114D01*
X116138114Y-68733352D01*
X116090495Y-68780971D01*
X115995257Y-68828590D01*
X115614304Y-68828590D01*
X117138114Y-69304780D02*
X116566685Y-69304780D01*
X116852400Y-69304780D02*
X116852400Y-68304780D01*
X116757161Y-68447638D01*
X116661923Y-68542876D01*
X116566685Y-68590495D01*
X115040895Y-87346780D02*
X115040895Y-88156304D01*
X115088514Y-88251542D01*
X115136133Y-88299161D01*
X115231371Y-88346780D01*
X115421847Y-88346780D01*
X115517085Y-88299161D01*
X115564704Y-88251542D01*
X115612323Y-88156304D01*
X115612323Y-87346780D01*
X116612323Y-88346780D02*
X116040895Y-88346780D01*
X116326609Y-88346780D02*
X116326609Y-87346780D01*
X116231371Y-87489638D01*
X116136133Y-87584876D01*
X116040895Y-87632495D01*
X118219466Y-65044161D02*
X118362323Y-65091780D01*
X118600419Y-65091780D01*
X118695657Y-65044161D01*
X118743276Y-64996542D01*
X118790895Y-64901304D01*
X118790895Y-64806066D01*
X118743276Y-64710828D01*
X118695657Y-64663209D01*
X118600419Y-64615590D01*
X118409942Y-64567971D01*
X118314704Y-64520352D01*
X118267085Y-64472733D01*
X118219466Y-64377495D01*
X118219466Y-64282257D01*
X118267085Y-64187019D01*
X118314704Y-64139400D01*
X118409942Y-64091780D01*
X118648038Y-64091780D01*
X118790895Y-64139400D01*
X119124228Y-64091780D02*
X119362323Y-65091780D01*
X119552800Y-64377495D01*
X119743276Y-65091780D01*
X119981371Y-64091780D01*
X120886133Y-65091780D02*
X120314704Y-65091780D01*
X120600419Y-65091780D02*
X120600419Y-64091780D01*
X120505180Y-64234638D01*
X120409942Y-64329876D01*
X120314704Y-64377495D01*
X158729104Y-111308980D02*
X158729104Y-110308980D01*
X159110057Y-110308980D01*
X159205295Y-110356600D01*
X159252914Y-110404219D01*
X159300533Y-110499457D01*
X159300533Y-110642314D01*
X159252914Y-110737552D01*
X159205295Y-110785171D01*
X159110057Y-110832790D01*
X158729104Y-110832790D01*
X160205295Y-110308980D02*
X159729104Y-110308980D01*
X159681485Y-110785171D01*
X159729104Y-110737552D01*
X159824342Y-110689933D01*
X160062438Y-110689933D01*
X160157676Y-110737552D01*
X160205295Y-110785171D01*
X160252914Y-110880409D01*
X160252914Y-111118504D01*
X160205295Y-111213742D01*
X160157676Y-111261361D01*
X160062438Y-111308980D01*
X159824342Y-111308980D01*
X159729104Y-111261361D01*
X159681485Y-111213742D01*
X185502800Y-72869400D02*
X186002800Y-72869400D01*
X185502800Y-70519400D02*
X186002800Y-70519400D01*
X144471000Y-82353800D02*
X197811000Y-82353800D01*
X144471000Y-102673800D02*
X144471000Y-82353800D01*
X197811000Y-102673800D02*
X144471000Y-102673800D01*
X197811000Y-82353800D02*
X197811000Y-102673800D01*
X197811000Y-97593800D02*
X192731000Y-97593800D01*
X192731000Y-87433800D02*
X197811000Y-87433800D01*
X192731000Y-89973800D02*
X192731000Y-87433800D01*
X192731000Y-97593800D02*
X192731000Y-89973800D01*
X193740600Y-100127400D02*
G75*
G03*
X193740600Y-100127400I-1016000J0D01*
G01*
X196280600Y-100127400D02*
G75*
G03*
X196280600Y-100127400I-1016000J0D01*
G01*
X150560600Y-84887400D02*
G75*
G03*
X150560600Y-84887400I-1016000J0D01*
G01*
D12*
X184012800Y-68084400D02*
X183757800Y-68084400D01*
X184012800Y-71944400D02*
X184012800Y-68084400D01*
X184012800Y-75804400D02*
X183757800Y-75804400D01*
X173492800Y-71944400D02*
X173492800Y-68084400D01*
X173492800Y-68084400D02*
X173747800Y-68084400D01*
X183757800Y-68084400D02*
X183757800Y-66269400D01*
X173492800Y-71944400D02*
X173492800Y-75804400D01*
X184012800Y-71944400D02*
X184012800Y-75804400D01*
X173492800Y-75804400D02*
X173747800Y-75804400D01*
X122899064Y-98484600D02*
X118794936Y-98484600D01*
X122899064Y-95064600D02*
X118794936Y-95064600D01*
X127612800Y-88104400D02*
X125072800Y-88104400D01*
X127612800Y-90644400D02*
X125072800Y-90644400D01*
X143502800Y-85524400D02*
X143502800Y-95764400D01*
X143502800Y-95764400D02*
X127612800Y-95764400D01*
X143502800Y-85524400D02*
X127612800Y-85524400D01*
X127612800Y-93184400D02*
X125072800Y-93184400D01*
X127612800Y-85524400D02*
X127612800Y-95764400D01*
D11*
X137482800Y-105730400D02*
X140022800Y-105730400D01*
X137482800Y-105222400D02*
X140022800Y-105222400D01*
X137482800Y-104714400D02*
X140022800Y-105984400D01*
X138752800Y-105730400D02*
X138752800Y-107000400D01*
X137482800Y-105476400D02*
X140022800Y-105476400D01*
X140022800Y-100904400D02*
X140022800Y-105984400D01*
X137482800Y-105984400D02*
X140022800Y-104714400D01*
X137482800Y-104714400D02*
X140022800Y-104714400D01*
X140022800Y-105984400D02*
X137482800Y-105984400D01*
X137482800Y-105984400D02*
X137482800Y-100904400D01*
X138752800Y-100904400D02*
X138752800Y-99888400D01*
X137482800Y-100904400D02*
X140022800Y-100904400D01*
X137482800Y-104968400D02*
X140022800Y-104968400D01*
X137482800Y-105349400D02*
X140022800Y-105349400D01*
D12*
X156797200Y-104656600D02*
X154137200Y-104656600D01*
X154137200Y-107256600D02*
X154137200Y-104656600D01*
X156797200Y-109856600D02*
X155467200Y-109856600D01*
X156797200Y-108526600D02*
X156797200Y-109856600D01*
X156797200Y-107256600D02*
X156797200Y-104656600D01*
X156797200Y-107256600D02*
X154137200Y-107256600D01*
X180677200Y-108331600D02*
X179347200Y-108331600D01*
X181947200Y-108331600D02*
X181947200Y-105671600D01*
X181947200Y-108331600D02*
X197247200Y-108331600D01*
X179347200Y-108331600D02*
X179347200Y-107001600D01*
X197247200Y-108331600D02*
X197247200Y-105671600D01*
X181947200Y-105671600D02*
X197247200Y-105671600D01*
X118514052Y-83804400D02*
X117091548Y-83804400D01*
X118514052Y-81084400D02*
X117091548Y-81084400D01*
X115267800Y-93933148D02*
X115267800Y-94455652D01*
X116737800Y-93933148D02*
X116737800Y-94455652D01*
X123307200Y-64991600D02*
X123307200Y-69511600D01*
X123307200Y-69511600D02*
X131367200Y-69511600D01*
X131367200Y-64991600D02*
X123307200Y-64991600D01*
X112900700Y-103484736D02*
X112900700Y-104688864D01*
X111080700Y-103484736D02*
X111080700Y-104688864D01*
X160242800Y-69588821D02*
X160242800Y-69914379D01*
X161262800Y-69588821D02*
X161262800Y-69914379D01*
X167877521Y-68240650D02*
X168203079Y-68240650D01*
X167877521Y-69260650D02*
X168203079Y-69260650D01*
X110932800Y-92581000D02*
X110422800Y-92581000D01*
X113982800Y-90301000D02*
X113982800Y-92581000D01*
X113982800Y-92581000D02*
X113472800Y-92581000D01*
X110422800Y-92581000D02*
X110422800Y-90301000D01*
X155002800Y-67724400D02*
X152722800Y-67724400D01*
X152722800Y-64164400D02*
X155002800Y-64164400D01*
X155002800Y-67214400D02*
X155002800Y-67724400D01*
X155002800Y-64164400D02*
X155002800Y-64674400D01*
X148977200Y-67131621D02*
X148977200Y-67457179D01*
X147957200Y-67131621D02*
X147957200Y-67457179D01*
X144804421Y-66604400D02*
X145129979Y-66604400D01*
X144804421Y-65584400D02*
X145129979Y-65584400D01*
D11*
X154202800Y-78444400D02*
X154202800Y-80494400D01*
X161302800Y-73394400D02*
X161302800Y-75444400D01*
X154202800Y-75444400D02*
X154202800Y-73394400D01*
X154202800Y-73394400D02*
X161302800Y-73394400D01*
X154202800Y-80494400D02*
X161302800Y-80494400D01*
X161302800Y-80494400D02*
X161302800Y-78444400D01*
D12*
X144942800Y-72944400D02*
X144942800Y-76394400D01*
X150062800Y-72944400D02*
X150062800Y-74894400D01*
X150062800Y-72944400D02*
X150062800Y-70994400D01*
X144942800Y-72944400D02*
X144942800Y-70994400D01*
X147165579Y-77934400D02*
X146840021Y-77934400D01*
X147165579Y-78954400D02*
X146840021Y-78954400D01*
X140512800Y-70746464D02*
X140512800Y-69542336D01*
X137792800Y-70746464D02*
X137792800Y-69542336D01*
X122902800Y-71294400D02*
X125902800Y-71294400D01*
X135502800Y-83894400D02*
X132502800Y-83894400D01*
X135502800Y-71294400D02*
X135502800Y-83894400D01*
X132502800Y-71294400D02*
X135502800Y-71294400D01*
X122902800Y-83894400D02*
X122902800Y-71294400D01*
X125902800Y-83894400D02*
X122902800Y-83894400D01*
X172012800Y-65861020D02*
X172012800Y-66142180D01*
X170992800Y-65861020D02*
X170992800Y-66142180D01*
X134823800Y-104521749D02*
X126681800Y-104521749D01*
X134754800Y-105042749D02*
X126750800Y-105042749D01*
X133308800Y-107442749D02*
X128196800Y-107442749D01*
X133152800Y-107562749D02*
X128352800Y-107562749D01*
X134117800Y-106562749D02*
X131792800Y-106562749D01*
X134542800Y-105762749D02*
X131792800Y-105762749D01*
X134709800Y-105242749D02*
X131792800Y-105242749D01*
X129712800Y-106802749D02*
X127563800Y-106802749D01*
X129712800Y-106442749D02*
X127308800Y-106442749D01*
X134602800Y-105602749D02*
X131792800Y-105602749D01*
X129712800Y-106962749D02*
X127697800Y-106962749D01*
X129712800Y-106522749D02*
X127360800Y-106522749D01*
X129712800Y-106682749D02*
X127472800Y-106682749D01*
X132980800Y-107682749D02*
X128524800Y-107682749D01*
X129712800Y-106162749D02*
X127146800Y-106162749D01*
X134769800Y-104962749D02*
X126735800Y-104962749D01*
X131285800Y-108322749D02*
X130219800Y-108322749D01*
X132854800Y-107762749D02*
X128650800Y-107762749D01*
X134474800Y-105922749D02*
X131792800Y-105922749D01*
X131700800Y-108242749D02*
X129804800Y-108242749D01*
X132098800Y-108122749D02*
X129406800Y-108122749D01*
X134061800Y-106642749D02*
X131792800Y-106642749D01*
X129712800Y-106202749D02*
X127168800Y-106202749D01*
X134829800Y-104401749D02*
X126675800Y-104401749D01*
X132304800Y-108042749D02*
X129200800Y-108042749D01*
X132716800Y-107842749D02*
X128788800Y-107842749D01*
X129712800Y-105802749D02*
X126978800Y-105802749D01*
X134746800Y-105082749D02*
X126758800Y-105082749D01*
X132483800Y-107962749D02*
X129021800Y-107962749D01*
X129712800Y-105882749D02*
X127012800Y-105882749D01*
X134817800Y-104601749D02*
X126687800Y-104601749D01*
X129712800Y-107042749D02*
X127769800Y-107042749D01*
X129712800Y-106042749D02*
X127086800Y-106042749D01*
X129712800Y-107082749D02*
X127807800Y-107082749D01*
X134688800Y-105322749D02*
X131792800Y-105322749D01*
X133771800Y-107002749D02*
X131792800Y-107002749D01*
X134832800Y-104241749D02*
X126672800Y-104241749D01*
X132205800Y-108082749D02*
X129299800Y-108082749D01*
X134144800Y-106522749D02*
X131792800Y-106522749D01*
X129712800Y-106362749D02*
X127259800Y-106362749D01*
X134789800Y-104841749D02*
X126715800Y-104841749D01*
X133356800Y-107402749D02*
X128148800Y-107402749D01*
X133067800Y-99832051D02*
X133067800Y-100632051D01*
X133493800Y-107282749D02*
X128011800Y-107282749D01*
X132397800Y-108002749D02*
X129107800Y-108002749D01*
X129712800Y-106482749D02*
X127334800Y-106482749D01*
X134826800Y-104481749D02*
X126678800Y-104481749D01*
X134762800Y-105002749D02*
X126742800Y-105002749D01*
X134666800Y-105402749D02*
X131792800Y-105402749D01*
X134587800Y-105642749D02*
X131792800Y-105642749D01*
X129712800Y-105682749D02*
X126931800Y-105682749D01*
X129712800Y-106642749D02*
X127443800Y-106642749D01*
X133039800Y-107642749D02*
X128465800Y-107642749D01*
X134820800Y-104561749D02*
X126684800Y-104561749D01*
X134794800Y-104801749D02*
X126710800Y-104801749D01*
X134456800Y-105962749D02*
X131792800Y-105962749D01*
X129712800Y-106002749D02*
X127066800Y-106002749D01*
X129712800Y-105202749D02*
X126785800Y-105202749D01*
X129712800Y-105482749D02*
X126863800Y-105482749D01*
X134090800Y-106602749D02*
X131792800Y-106602749D01*
X129712800Y-105162749D02*
X126776800Y-105162749D01*
X134526800Y-105802749D02*
X131792800Y-105802749D01*
X132565800Y-107922749D02*
X128939800Y-107922749D01*
X133578800Y-107202749D02*
X127926800Y-107202749D01*
X134399800Y-106082749D02*
X131792800Y-106082749D01*
X129712800Y-105322749D02*
X126816800Y-105322749D01*
X134492800Y-105882749D02*
X131792800Y-105882749D01*
X134813800Y-104641749D02*
X126691800Y-104641749D01*
X133735800Y-107042749D02*
X131792800Y-107042749D01*
X134573800Y-105682749D02*
X131792800Y-105682749D01*
X134379800Y-106122749D02*
X131792800Y-106122749D01*
X133206800Y-107522749D02*
X128298800Y-107522749D01*
X129712800Y-105602749D02*
X126902800Y-105602749D01*
X129712800Y-105642749D02*
X126917800Y-105642749D01*
X131981800Y-108162749D02*
X129523800Y-108162749D01*
X129712800Y-105762749D02*
X126962800Y-105762749D01*
X134196800Y-106442749D02*
X131792800Y-106442749D01*
X129712800Y-105562749D02*
X126889800Y-105562749D01*
X129712800Y-107002749D02*
X127733800Y-107002749D01*
X129712800Y-106602749D02*
X127414800Y-106602749D01*
X129712800Y-105522749D02*
X126875800Y-105522749D01*
X129712800Y-107162749D02*
X127885800Y-107162749D01*
X134358800Y-106162749D02*
X131792800Y-106162749D01*
X133619800Y-107162749D02*
X131792800Y-107162749D01*
X134776800Y-104921749D02*
X126728800Y-104921749D01*
X134737800Y-105122749D02*
X131792800Y-105122749D01*
X129712800Y-105242749D02*
X126795800Y-105242749D01*
X134728800Y-105162749D02*
X131792800Y-105162749D01*
X133536800Y-107242749D02*
X127968800Y-107242749D01*
X133842800Y-106922749D02*
X131792800Y-106922749D01*
X129712800Y-107122749D02*
X127845800Y-107122749D01*
X129712800Y-106242749D02*
X127190800Y-106242749D01*
X129712800Y-106762749D02*
X127532800Y-106762749D01*
X134418800Y-106042749D02*
X131792800Y-106042749D01*
X129712800Y-105402749D02*
X126838800Y-105402749D01*
X134629800Y-105522749D02*
X131792800Y-105522749D01*
X129712800Y-105842749D02*
X126995800Y-105842749D01*
X133876800Y-106882749D02*
X131792800Y-106882749D01*
X131520800Y-108282749D02*
X129984800Y-108282749D01*
X129712800Y-106722749D02*
X127502800Y-106722749D01*
X134782800Y-104881749D02*
X126722800Y-104881749D01*
X129712800Y-105442749D02*
X126850800Y-105442749D01*
X134269800Y-106322749D02*
X131792800Y-106322749D01*
X129712800Y-105122749D02*
X126767800Y-105122749D01*
X133807800Y-106962749D02*
X131792800Y-106962749D01*
X131850800Y-108202749D02*
X129654800Y-108202749D01*
X134654800Y-105442749D02*
X131792800Y-105442749D01*
X133659800Y-107122749D02*
X131792800Y-107122749D01*
X134828800Y-104441749D02*
X126676800Y-104441749D01*
X129712800Y-106122749D02*
X127125800Y-106122749D01*
X134336800Y-106202749D02*
X131792800Y-106202749D01*
X134557800Y-105722749D02*
X131792800Y-105722749D01*
X134245800Y-106362749D02*
X131792800Y-106362749D01*
X134002800Y-106722749D02*
X131792800Y-106722749D01*
X132642800Y-107882749D02*
X128862800Y-107882749D01*
X133097800Y-107602749D02*
X128407800Y-107602749D01*
X134677800Y-105362749D02*
X131792800Y-105362749D01*
X129712800Y-105962749D02*
X127048800Y-105962749D01*
X134170800Y-106482749D02*
X131792800Y-106482749D01*
X134615800Y-105562749D02*
X131792800Y-105562749D01*
X134809800Y-104681749D02*
X126695800Y-104681749D01*
X129712800Y-105282749D02*
X126805800Y-105282749D01*
X133467800Y-100232051D02*
X132667800Y-100232051D01*
X133972800Y-106762749D02*
X131792800Y-106762749D01*
X132786800Y-107802749D02*
X128718800Y-107802749D01*
X134509800Y-105842749D02*
X131792800Y-105842749D01*
X132918800Y-107722749D02*
X128586800Y-107722749D01*
X133908800Y-106842749D02*
X131792800Y-106842749D01*
X133941800Y-106802749D02*
X131792800Y-106802749D01*
X134832800Y-104321749D02*
X126672800Y-104321749D01*
X133403800Y-107362749D02*
X128101800Y-107362749D01*
X134831800Y-104361749D02*
X126673800Y-104361749D01*
X134804800Y-104721749D02*
X126700800Y-104721749D01*
X129712800Y-106922749D02*
X127662800Y-106922749D01*
X134641800Y-105482749D02*
X131792800Y-105482749D01*
X129712800Y-106322749D02*
X127235800Y-106322749D01*
X129712800Y-106402749D02*
X127283800Y-106402749D01*
X129712800Y-106842749D02*
X127596800Y-106842749D01*
X129712800Y-106562749D02*
X127387800Y-106562749D01*
X133257800Y-107482749D02*
X128247800Y-107482749D01*
X129712800Y-106082749D02*
X127105800Y-106082749D01*
X134832800Y-104281749D02*
X126672800Y-104281749D01*
X134032800Y-106682749D02*
X131792800Y-106682749D01*
X133697800Y-107082749D02*
X131792800Y-107082749D01*
X134438800Y-106002749D02*
X131792800Y-106002749D01*
X129712800Y-105922749D02*
X127030800Y-105922749D01*
X134221800Y-106402749D02*
X131792800Y-106402749D01*
X129712800Y-106282749D02*
X127212800Y-106282749D01*
X133449800Y-107322749D02*
X128055800Y-107322749D01*
X134314800Y-106242749D02*
X131792800Y-106242749D01*
X129712800Y-105722749D02*
X126947800Y-105722749D01*
X134800800Y-104761749D02*
X126704800Y-104761749D01*
X134699800Y-105282749D02*
X131792800Y-105282749D01*
X134719800Y-105202749D02*
X131792800Y-105202749D01*
X134292800Y-106282749D02*
X131792800Y-106282749D01*
X129712800Y-106882749D02*
X127628800Y-106882749D01*
X129712800Y-105362749D02*
X126827800Y-105362749D01*
X134872800Y-104241749D02*
G75*
G03*
X134872800Y-104241749I-4120000J0D01*
G01*
X111586621Y-87785000D02*
X111912179Y-87785000D01*
X111586621Y-86765000D02*
X111912179Y-86765000D01*
X114475400Y-99868064D02*
X114475400Y-95763936D01*
X111055400Y-99868064D02*
X111055400Y-95763936D01*
X142477200Y-66838821D02*
X142477200Y-67164379D01*
X141457200Y-66838821D02*
X141457200Y-67164379D01*
X156807200Y-69953664D02*
X156807200Y-68749536D01*
X158627200Y-69953664D02*
X158627200Y-68749536D01*
X153262800Y-71107179D02*
X153262800Y-70781621D01*
X152242800Y-71107179D02*
X152242800Y-70781621D01*
X141129979Y-72741600D02*
X140804421Y-72741600D01*
X141129979Y-73761600D02*
X140804421Y-73761600D01*
X118464052Y-84709400D02*
X117941548Y-84709400D01*
X118464052Y-86179400D02*
X117941548Y-86179400D01*
X170200300Y-70650650D02*
X170200300Y-76660650D01*
X163380300Y-76660650D02*
X164640300Y-76660650D01*
X163380300Y-72900650D02*
X163380300Y-76660650D01*
X170200300Y-76660650D02*
X168940300Y-76660650D01*
D11*
X118252800Y-110444400D02*
X120252800Y-110444400D01*
X120252800Y-110444400D02*
X120252800Y-109444400D01*
X120252800Y-109444400D02*
X123252800Y-109444400D01*
X118252800Y-109444400D02*
X118252800Y-110444400D01*
X124252800Y-110444400D02*
X124252800Y-102444400D01*
X115252800Y-109444400D02*
X118252800Y-109444400D01*
X114252800Y-110444400D02*
X124252800Y-110444400D01*
X114252800Y-102444400D02*
X114252800Y-106444400D01*
X124252800Y-102444400D02*
X114252800Y-102444400D01*
X123252800Y-109444400D02*
X123252800Y-110444400D01*
X114252800Y-106444400D02*
X114252800Y-110444400D01*
X115252800Y-110444400D02*
X115252800Y-109444400D01*
D12*
X164797200Y-104656600D02*
X162137200Y-104656600D01*
X164797200Y-107256600D02*
X164797200Y-104656600D01*
X162137200Y-107256600D02*
X162137200Y-104656600D01*
X164797200Y-108526600D02*
X164797200Y-109856600D01*
X164797200Y-109856600D02*
X163467200Y-109856600D01*
X164797200Y-107256600D02*
X162137200Y-107256600D01*
D11*
X110202800Y-75694400D02*
X110202800Y-78694400D01*
X109202800Y-79694400D02*
X117202800Y-79694400D01*
X110202800Y-70694400D02*
X110202800Y-73694400D01*
X110202800Y-78694400D02*
X109202800Y-78694400D01*
X117202800Y-79694400D02*
X117202800Y-69694400D01*
X109202800Y-70694400D02*
X110202800Y-70694400D01*
X117202800Y-69694400D02*
X113202800Y-69694400D01*
X113202800Y-69694400D02*
X109202800Y-69694400D01*
X109202800Y-73694400D02*
X109202800Y-75694400D01*
X110202800Y-73694400D02*
X109202800Y-73694400D01*
X109202800Y-69694400D02*
X109202800Y-79694400D01*
X109202800Y-75694400D02*
X110202800Y-75694400D01*
D12*
X116942800Y-90644400D02*
X116942800Y-88694400D01*
X122062800Y-90644400D02*
X122062800Y-92594400D01*
X122062800Y-90644400D02*
X122062800Y-87194400D01*
X116942800Y-90644400D02*
X116942800Y-92594400D01*
X118222800Y-66969400D02*
X118222800Y-65639400D01*
X118222800Y-68239400D02*
X120882800Y-68239400D01*
X120882800Y-68239400D02*
X120882800Y-70839400D01*
X118222800Y-68239400D02*
X118222800Y-70839400D01*
X118222800Y-70839400D02*
X120882800Y-70839400D01*
X118222800Y-65639400D02*
X119552800Y-65639400D01*
X160797200Y-107256600D02*
X158137200Y-107256600D01*
X158137200Y-107256600D02*
X158137200Y-104656600D01*
X160797200Y-108526600D02*
X160797200Y-109856600D01*
X160797200Y-107256600D02*
X160797200Y-104656600D01*
X160797200Y-104656600D02*
X158137200Y-104656600D01*
X160797200Y-109856600D02*
X159467200Y-109856600D01*
D13*
X195264600Y-100127400D03*
X192724600Y-100127400D03*
X190184600Y-100127400D03*
X187644600Y-100127400D03*
X185104600Y-100127400D03*
X182564600Y-100127400D03*
X180024600Y-100127400D03*
X177484600Y-100127400D03*
X174944600Y-100127400D03*
X172404600Y-100127400D03*
X169864600Y-100127400D03*
X167324600Y-100127400D03*
X164784600Y-100127400D03*
X162244600Y-100127400D03*
X159704600Y-100127400D03*
X157164600Y-100127400D03*
X154624600Y-100127400D03*
X152084600Y-100127400D03*
X149544600Y-100127400D03*
X147004600Y-100127400D03*
X147004600Y-84887400D03*
X149544600Y-84887400D03*
X152084600Y-84887400D03*
X154624600Y-84887400D03*
X157164600Y-84887400D03*
X159704600Y-84887400D03*
X162244600Y-84887400D03*
X164784600Y-84887400D03*
X167324600Y-84887400D03*
X169864600Y-84887400D03*
X172404600Y-84887400D03*
X174944600Y-84887400D03*
X177484600Y-84887400D03*
X180024600Y-84887400D03*
X182564600Y-84887400D03*
X185104600Y-84887400D03*
X187644600Y-84887400D03*
X190184600Y-84887400D03*
X192724600Y-84887400D03*
X195264600Y-84887400D03*
D14*
X116752800Y-106444400D03*
X121752800Y-106444400D03*
X113202800Y-77194400D03*
X113202800Y-72194400D03*
M02*
