G04 #@! TF.GenerationSoftware,KiCad,Pcbnew,(6.0.5)*
G04 #@! TF.CreationDate,2022-05-31T00:33:45+02:00*
G04 #@! TF.ProjectId,nixie_control_board,6e697869-655f-4636-9f6e-74726f6c5f62,rev?*
G04 #@! TF.SameCoordinates,Original*
G04 #@! TF.FileFunction,Soldermask,Top*
G04 #@! TF.FilePolarity,Negative*
%FSLAX46Y46*%
G04 Gerber Fmt 4.6, Leading zero omitted, Abs format (unit mm)*
G04 Created by KiCad (PCBNEW (6.0.5)) date 2022-05-31 00:33:45*
%MOMM*%
%LPD*%
G01*
G04 APERTURE LIST*
G04 Aperture macros list*
%AMRoundRect*
0 Rectangle with rounded corners*
0 $1 Rounding radius*
0 $2 $3 $4 $5 $6 $7 $8 $9 X,Y pos of 4 corners*
0 Add a 4 corners polygon primitive as box body*
4,1,4,$2,$3,$4,$5,$6,$7,$8,$9,$2,$3,0*
0 Add four circle primitives for the rounded corners*
1,1,$1+$1,$2,$3*
1,1,$1+$1,$4,$5*
1,1,$1+$1,$6,$7*
1,1,$1+$1,$8,$9*
0 Add four rect primitives between the rounded corners*
20,1,$1+$1,$2,$3,$4,$5,0*
20,1,$1+$1,$4,$5,$6,$7,0*
20,1,$1+$1,$6,$7,$8,$9,0*
20,1,$1+$1,$8,$9,$2,$3,0*%
G04 Aperture macros list end*
%ADD10C,3.400000*%
%ADD11RoundRect,0.200000X0.250000X0.200000X-0.250000X0.200000X-0.250000X-0.200000X0.250000X-0.200000X0*%
%ADD12RoundRect,0.200000X0.250000X0.150000X-0.250000X0.150000X-0.250000X-0.150000X0.250000X-0.150000X0*%
%ADD13C,2.200000*%
%ADD14RoundRect,0.350000X-0.150000X0.875000X-0.150000X-0.875000X0.150000X-0.875000X0.150000X0.875000X0*%
%ADD15RoundRect,0.449750X0.425250X1.425250X-0.425250X1.425250X-0.425250X-1.425250X0.425250X-1.425250X0*%
%ADD16O,3.900000X3.900000*%
%ADD17RoundRect,0.200000X-1.000000X0.952500X-1.000000X-0.952500X1.000000X-0.952500X1.000000X0.952500X0*%
%ADD18O,2.400000X2.305000*%
%ADD19RoundRect,0.200000X-0.999490X0.999490X-0.999490X-0.999490X0.999490X-0.999490X0.999490X0.999490X0*%
%ADD20C,2.398980*%
%ADD21RoundRect,0.200000X0.850000X0.850000X-0.850000X0.850000X-0.850000X-0.850000X0.850000X-0.850000X0*%
%ADD22O,2.100000X2.100000*%
%ADD23RoundRect,0.200000X0.850000X-0.850000X0.850000X0.850000X-0.850000X0.850000X-0.850000X-0.850000X0*%
%ADD24RoundRect,0.450000X0.325000X1.100000X-0.325000X1.100000X-0.325000X-1.100000X0.325000X-1.100000X0*%
%ADD25RoundRect,0.450000X-0.475000X0.250000X-0.475000X-0.250000X0.475000X-0.250000X0.475000X0.250000X0*%
%ADD26RoundRect,0.450000X-0.787500X-1.025000X0.787500X-1.025000X0.787500X1.025000X-0.787500X1.025000X0*%
%ADD27RoundRect,0.450000X-0.625000X0.375000X-0.625000X-0.375000X0.625000X-0.375000X0.625000X0.375000X0*%
%ADD28RoundRect,0.418750X-0.256250X0.218750X-0.256250X-0.218750X0.256250X-0.218750X0.256250X0.218750X0*%
%ADD29RoundRect,0.418750X-0.218750X-0.256250X0.218750X-0.256250X0.218750X0.256250X-0.218750X0.256250X0*%
%ADD30RoundRect,0.200000X0.600000X0.600000X-0.600000X0.600000X-0.600000X-0.600000X0.600000X-0.600000X0*%
%ADD31RoundRect,0.200000X0.800000X0.750000X-0.800000X0.750000X-0.800000X-0.750000X0.800000X-0.750000X0*%
%ADD32RoundRect,0.200000X-0.600000X0.600000X-0.600000X-0.600000X0.600000X-0.600000X0.600000X0.600000X0*%
%ADD33RoundRect,0.200000X-0.750000X0.800000X-0.750000X-0.800000X0.750000X-0.800000X0.750000X0.800000X0*%
%ADD34RoundRect,0.200000X-1.350000X-1.100000X1.350000X-1.100000X1.350000X1.100000X-1.350000X1.100000X0*%
%ADD35RoundRect,0.350000X0.150000X-0.825000X0.150000X0.825000X-0.150000X0.825000X-0.150000X-0.825000X0*%
%ADD36RoundRect,0.418750X0.218750X0.256250X-0.218750X0.256250X-0.218750X-0.256250X0.218750X-0.256250X0*%
%ADD37RoundRect,0.450000X1.075000X-0.375000X1.075000X0.375000X-1.075000X0.375000X-1.075000X-0.375000X0*%
%ADD38RoundRect,0.200000X-2.700000X1.450000X-2.700000X-1.450000X2.700000X-1.450000X2.700000X1.450000X0*%
%ADD39RoundRect,0.425000X-0.250000X0.225000X-0.250000X-0.225000X0.250000X-0.225000X0.250000X0.225000X0*%
%ADD40RoundRect,0.200000X-0.800000X0.800000X-0.800000X-0.800000X0.800000X-0.800000X0.800000X0.800000X0*%
%ADD41C,2.000000*%
%ADD42RoundRect,0.449750X1.425250X-0.425250X1.425250X0.425250X-1.425250X0.425250X-1.425250X-0.425250X0*%
%ADD43RoundRect,0.450000X1.425000X-0.425000X1.425000X0.425000X-1.425000X0.425000X-1.425000X-0.425000X0*%
%ADD44RoundRect,0.450000X0.625000X-0.375000X0.625000X0.375000X-0.625000X0.375000X-0.625000X-0.375000X0*%
%ADD45RoundRect,0.418750X0.256250X-0.218750X0.256250X0.218750X-0.256250X0.218750X-0.256250X-0.218750X0*%
%ADD46RoundRect,0.450000X0.250000X0.475000X-0.250000X0.475000X-0.250000X-0.475000X0.250000X-0.475000X0*%
%ADD47RoundRect,0.200000X-0.750000X1.000000X-0.750000X-1.000000X0.750000X-1.000000X0.750000X1.000000X0*%
%ADD48RoundRect,0.200000X-1.900000X1.000000X-1.900000X-1.000000X1.900000X-1.000000X1.900000X1.000000X0*%
%ADD49C,2.700000*%
%ADD50RoundRect,0.350000X-0.150000X0.675000X-0.150000X-0.675000X0.150000X-0.675000X0.150000X0.675000X0*%
%ADD51RoundRect,0.200000X-0.850000X-0.850000X0.850000X-0.850000X0.850000X0.850000X-0.850000X0.850000X0*%
G04 APERTURE END LIST*
D10*
X108202800Y-65194400D03*
X202202800Y-65194400D03*
X202202800Y-109194400D03*
X108202800Y-109194400D03*
D11*
X186252800Y-72444400D03*
D12*
X186252800Y-71944400D03*
X186252800Y-71444400D03*
D11*
X186252800Y-70944400D03*
X185252800Y-70944400D03*
D12*
X185252800Y-71444400D03*
X185252800Y-71944400D03*
D11*
X185252800Y-72444400D03*
D13*
X195264600Y-100127400D03*
X192724600Y-100127400D03*
X190184600Y-100127400D03*
X187644600Y-100127400D03*
X185104600Y-100127400D03*
X182564600Y-100127400D03*
X180024600Y-100127400D03*
X177484600Y-100127400D03*
X174944600Y-100127400D03*
X172404600Y-100127400D03*
X169864600Y-100127400D03*
X167324600Y-100127400D03*
X164784600Y-100127400D03*
X162244600Y-100127400D03*
X159704600Y-100127400D03*
X157164600Y-100127400D03*
X154624600Y-100127400D03*
X152084600Y-100127400D03*
X149544600Y-100127400D03*
X147004600Y-100127400D03*
X147004600Y-84887400D03*
X149544600Y-84887400D03*
X152084600Y-84887400D03*
X154624600Y-84887400D03*
X157164600Y-84887400D03*
X159704600Y-84887400D03*
X162244600Y-84887400D03*
X164784600Y-84887400D03*
X167324600Y-84887400D03*
X169864600Y-84887400D03*
X172404600Y-84887400D03*
X174944600Y-84887400D03*
X177484600Y-84887400D03*
X180024600Y-84887400D03*
X182564600Y-84887400D03*
X185104600Y-84887400D03*
X187644600Y-84887400D03*
X190184600Y-84887400D03*
X192724600Y-84887400D03*
X195264600Y-84887400D03*
D14*
X183197800Y-67294400D03*
X181927800Y-67294400D03*
X180657800Y-67294400D03*
X179387800Y-67294400D03*
X178117800Y-67294400D03*
X176847800Y-67294400D03*
X175577800Y-67294400D03*
X174307800Y-67294400D03*
X174307800Y-76594400D03*
X175577800Y-76594400D03*
X176847800Y-76594400D03*
X178117800Y-76594400D03*
X179387800Y-76594400D03*
X180657800Y-76594400D03*
X181927800Y-76594400D03*
X183197800Y-76594400D03*
D15*
X123747000Y-96774600D03*
X117947000Y-96774600D03*
D16*
X140582800Y-90644400D03*
D17*
X123922800Y-88104400D03*
D18*
X123922800Y-90644400D03*
X123922800Y-93184400D03*
D19*
X138752800Y-108524400D03*
D20*
X138752800Y-98364400D03*
D21*
X155467200Y-108526600D03*
D22*
X155467200Y-105986600D03*
D23*
X180677200Y-107001600D03*
D22*
X183217200Y-107001600D03*
X185757200Y-107001600D03*
X188297200Y-107001600D03*
X190837200Y-107001600D03*
X193377200Y-107001600D03*
X195917200Y-107001600D03*
D24*
X119277800Y-82444400D03*
X116327800Y-82444400D03*
D25*
X116002800Y-93244400D03*
X116002800Y-95144400D03*
D26*
X124604700Y-67251600D03*
X130829700Y-67251600D03*
D27*
X111990700Y-102686800D03*
X111990700Y-105486800D03*
D28*
X160752800Y-68964100D03*
X160752800Y-70539100D03*
D29*
X167252800Y-68750650D03*
X168827800Y-68750650D03*
D30*
X113602800Y-89211000D03*
D31*
X112202800Y-92451000D03*
D30*
X110802800Y-89211000D03*
D32*
X151632800Y-64544400D03*
D33*
X154872800Y-65944400D03*
D32*
X151632800Y-67344400D03*
D28*
X148467200Y-66506900D03*
X148467200Y-68081900D03*
D29*
X144179700Y-66094400D03*
X145754700Y-66094400D03*
D34*
X155202800Y-76944400D03*
X160302800Y-76944400D03*
D35*
X145597800Y-75419400D03*
X146867800Y-75419400D03*
X148137800Y-75419400D03*
X149407800Y-75419400D03*
X149407800Y-70469400D03*
X148137800Y-70469400D03*
X146867800Y-70469400D03*
X145597800Y-70469400D03*
D36*
X147790300Y-78444400D03*
X146215300Y-78444400D03*
D37*
X139152800Y-71544400D03*
X139152800Y-68744400D03*
D38*
X129202800Y-82544400D03*
X129202800Y-72644400D03*
D39*
X171502800Y-65226600D03*
X171502800Y-66776600D03*
D40*
X130752800Y-102341749D03*
D41*
X130752800Y-106141749D03*
D29*
X110961900Y-87275000D03*
X112536900Y-87275000D03*
D42*
X112765400Y-100716000D03*
D43*
X112765400Y-94916000D03*
D28*
X141967200Y-66214100D03*
X141967200Y-67789100D03*
D44*
X157717200Y-70751600D03*
X157717200Y-67951600D03*
D45*
X152752800Y-71731900D03*
X152752800Y-70156900D03*
D36*
X141754700Y-73251600D03*
X140179700Y-73251600D03*
D46*
X119152800Y-85444400D03*
X117252800Y-85444400D03*
D47*
X169090300Y-71600650D03*
X166790300Y-71600650D03*
X164490300Y-71600650D03*
D48*
X166790300Y-77900650D03*
D49*
X116752800Y-106444400D03*
X121752800Y-106444400D03*
D21*
X163467200Y-108526600D03*
D22*
X163467200Y-105986600D03*
D49*
X113202800Y-77194400D03*
X113202800Y-72194400D03*
D50*
X121407800Y-88019400D03*
X120137800Y-88019400D03*
X118867800Y-88019400D03*
X117597800Y-88019400D03*
X117597800Y-93269400D03*
X118867800Y-93269400D03*
X120137800Y-93269400D03*
X121407800Y-93269400D03*
D51*
X119552800Y-66969400D03*
D22*
X119552800Y-69509400D03*
D21*
X159467200Y-108526600D03*
D22*
X159467200Y-105986600D03*
G36*
X116929719Y-95023889D02*
G01*
X116949395Y-95090901D01*
X117001738Y-95136256D01*
X117070291Y-95146113D01*
X117133466Y-95117261D01*
X117150442Y-95099244D01*
X117167469Y-95077054D01*
X117169317Y-95076289D01*
X117170904Y-95077507D01*
X117170665Y-95079460D01*
X117126064Y-95139845D01*
X117081934Y-95265508D01*
X117074000Y-95349443D01*
X117074000Y-95719384D01*
X117073000Y-95721116D01*
X117071000Y-95721116D01*
X117070081Y-95719947D01*
X117050404Y-95652932D01*
X116998061Y-95607577D01*
X116929508Y-95597720D01*
X116866333Y-95626572D01*
X116849357Y-95644589D01*
X116832256Y-95666875D01*
X116830408Y-95667640D01*
X116828821Y-95666422D01*
X116829060Y-95664469D01*
X116873707Y-95604022D01*
X116917861Y-95478289D01*
X116925800Y-95394307D01*
X116925800Y-95024452D01*
X116926800Y-95022720D01*
X116928800Y-95022720D01*
X116929719Y-95023889D01*
G37*
G36*
X117098970Y-92701417D02*
G01*
X117099800Y-92703039D01*
X117099800Y-93785756D01*
X117098800Y-93787488D01*
X117096800Y-93787488D01*
X117095881Y-93786319D01*
X117076205Y-93719307D01*
X117023862Y-93673952D01*
X116955309Y-93664095D01*
X116892134Y-93692947D01*
X116875158Y-93710964D01*
X116832260Y-93766870D01*
X116830412Y-93767635D01*
X116828825Y-93766417D01*
X116829064Y-93764464D01*
X116873707Y-93704022D01*
X116917861Y-93578289D01*
X116925800Y-93494307D01*
X116925800Y-92994493D01*
X116917861Y-92910511D01*
X116873707Y-92784778D01*
X116829025Y-92724283D01*
X116828801Y-92722296D01*
X116830409Y-92721108D01*
X116832221Y-92721877D01*
X116875047Y-92777690D01*
X116931220Y-92818707D01*
X117000355Y-92822826D01*
X117060742Y-92788913D01*
X117093301Y-92727562D01*
X117095810Y-92702837D01*
X117096980Y-92701215D01*
X117098970Y-92701417D01*
G37*
G36*
X123845259Y-91794506D02*
G01*
X123875326Y-91794900D01*
X123970204Y-91794900D01*
X124060247Y-91786626D01*
X124062063Y-91787464D01*
X124062246Y-91789455D01*
X124061162Y-91790479D01*
X123997012Y-91815701D01*
X123956489Y-91871867D01*
X123952766Y-91941026D01*
X123987022Y-92001217D01*
X124048586Y-92033439D01*
X124065380Y-92035586D01*
X124100888Y-92037634D01*
X124101179Y-92037673D01*
X124152299Y-92048259D01*
X124153792Y-92049589D01*
X124153386Y-92051547D01*
X124151658Y-92052203D01*
X124000341Y-92034294D01*
X123970274Y-92033900D01*
X123875396Y-92033900D01*
X123785353Y-92042174D01*
X123783537Y-92041336D01*
X123783354Y-92039345D01*
X123784438Y-92038321D01*
X123848588Y-92013099D01*
X123889111Y-91956933D01*
X123892834Y-91887774D01*
X123858578Y-91827583D01*
X123797014Y-91795361D01*
X123780220Y-91793214D01*
X123744712Y-91791166D01*
X123744421Y-91791127D01*
X123693301Y-91780541D01*
X123691808Y-91779211D01*
X123692214Y-91777253D01*
X123693942Y-91776597D01*
X123845259Y-91794506D01*
G37*
G36*
X124150400Y-89255900D02*
G01*
X124150400Y-89257900D01*
X124149231Y-89258819D01*
X124082219Y-89278495D01*
X124036864Y-89330838D01*
X124027007Y-89399391D01*
X124055778Y-89462389D01*
X124114261Y-89499974D01*
X124123770Y-89502350D01*
X124152307Y-89508260D01*
X124153800Y-89509590D01*
X124153394Y-89511548D01*
X124151666Y-89512204D01*
X124000341Y-89494294D01*
X123970274Y-89493900D01*
X123875396Y-89493900D01*
X123718822Y-89508287D01*
X123717006Y-89507449D01*
X123716823Y-89505458D01*
X123717907Y-89504434D01*
X123782635Y-89478986D01*
X123823158Y-89422819D01*
X123826881Y-89353661D01*
X123792625Y-89293469D01*
X123731086Y-89261260D01*
X123707058Y-89258890D01*
X123705432Y-89257725D01*
X123705628Y-89255735D01*
X123707254Y-89254900D01*
X124148668Y-89254900D01*
X124150400Y-89255900D01*
G37*
G36*
X185659695Y-70622607D02*
G01*
X185665623Y-70628535D01*
X185726672Y-70661869D01*
X185795831Y-70656923D01*
X185839928Y-70628584D01*
X185845905Y-70622607D01*
X185847837Y-70622089D01*
X185849251Y-70623503D01*
X185848982Y-70625132D01*
X185819909Y-70668642D01*
X185804800Y-70744599D01*
X185804800Y-71144201D01*
X185819680Y-71219010D01*
X185819680Y-71219790D01*
X185804800Y-71294599D01*
X185804800Y-71594201D01*
X185819909Y-71670158D01*
X185835365Y-71693289D01*
X185835496Y-71695285D01*
X185835365Y-71695511D01*
X185819909Y-71718642D01*
X185804800Y-71794599D01*
X185804800Y-72094201D01*
X185819680Y-72169010D01*
X185819680Y-72169790D01*
X185804800Y-72244599D01*
X185804800Y-72644201D01*
X185819909Y-72720158D01*
X185848982Y-72763668D01*
X185849113Y-72765664D01*
X185847450Y-72766775D01*
X185845905Y-72766193D01*
X185839977Y-72760265D01*
X185778928Y-72726931D01*
X185709769Y-72731877D01*
X185665672Y-72760216D01*
X185659695Y-72766193D01*
X185657763Y-72766711D01*
X185656349Y-72765297D01*
X185656618Y-72763668D01*
X185685691Y-72720158D01*
X185700800Y-72644201D01*
X185700800Y-72244599D01*
X185685920Y-72169790D01*
X185685920Y-72169010D01*
X185700800Y-72094201D01*
X185700800Y-71794599D01*
X185685691Y-71718642D01*
X185670235Y-71695511D01*
X185670104Y-71693515D01*
X185670235Y-71693289D01*
X185685691Y-71670158D01*
X185700800Y-71594201D01*
X185700800Y-71294599D01*
X185685920Y-71219790D01*
X185685920Y-71219010D01*
X185700800Y-71144201D01*
X185700800Y-70744599D01*
X185685691Y-70668642D01*
X185656618Y-70625132D01*
X185656487Y-70623136D01*
X185658150Y-70622025D01*
X185659695Y-70622607D01*
G37*
G36*
X140389497Y-72333198D02*
G01*
X140390160Y-72335085D01*
X140388959Y-72336563D01*
X140378108Y-72341057D01*
X140323949Y-72384700D01*
X140302076Y-72450415D01*
X140319204Y-72517521D01*
X140369982Y-72564800D01*
X140407070Y-72575959D01*
X140408441Y-72577415D01*
X140407864Y-72579331D01*
X140406181Y-72579849D01*
X140398295Y-72578600D01*
X139961105Y-72578600D01*
X139832176Y-72599020D01*
X139816882Y-72606813D01*
X139814885Y-72606708D01*
X139813977Y-72604926D01*
X139814744Y-72603454D01*
X139862649Y-72566076D01*
X139885550Y-72500714D01*
X139869477Y-72433347D01*
X139819499Y-72385328D01*
X139762326Y-72371343D01*
X139760881Y-72369960D01*
X139761356Y-72368017D01*
X139762801Y-72367400D01*
X140227707Y-72367400D01*
X140311689Y-72359461D01*
X140387531Y-72332828D01*
X140389497Y-72333198D01*
G37*
M02*
