M48
INCH,TZ
T1C0.0157
T2C0.0236
T3C0.0300
T4C0.0315
T5C0.0320
T6C0.0354
T7C0.0394
T8C0.0394
T9C0.0500
T10C0.0512
T11C0.0590
T12C0.0591
T13C0.1181
%
G90
G05
T1
X50669Y-35169
X52051Y-25772
X52551Y-22953
X52555Y-25764
X52933Y-28516
X53402Y-35165
X54051Y-25431
X54051Y-27248
X54638Y-37996
X55783Y-42343
X67011Y-53120
X70758Y-53120
T2
X57390Y-53744
X59752Y-53744
T3
X69094Y-23594
X70094Y-23594
X71094Y-23594
T4
X62037Y-50302
X63533Y-50302
T5
X56811Y-56850
X57811Y-56850
X58811Y-56850
T6
X66429Y-22031
X67429Y-22031
X68429Y-22031
X57228Y-25992
X57228Y-26992
X57228Y-27992
X57228Y-28992
X57228Y-29992
X57228Y-30992
X57228Y-31992
X57228Y-32992
X57228Y-33992
X57228Y-34992
X57228Y-35992
X57228Y-36992
X57228Y-37992
X57228Y-38992
X57228Y-39992
X57228Y-40992
X57228Y-41992
X57228Y-42992
X57228Y-43992
X57228Y-44992
X63228Y-25992
X63228Y-26992
X63228Y-27992
X63228Y-28992
X63228Y-29992
X63228Y-30992
X63228Y-31992
X63228Y-32992
X63228Y-33992
X63228Y-34992
X63228Y-35992
X63228Y-36992
X63228Y-37992
X63228Y-38992
X63228Y-39992
X63228Y-40992
X63228Y-41992
X63228Y-42992
X63228Y-43992
X63228Y-44992
X60421Y-33992
X60421Y-34992
X60421Y-35992
X60421Y-36992
T7
X55457Y-23992
X55457Y-24992
X55457Y-25992
X55457Y-26992
X55457Y-27992
X55457Y-28992
X55457Y-29992
X47791Y-26185
X55500Y-32000
X55500Y-33000
X49685Y-53858
X50685Y-53858
T8
X60437Y-49256
T9
X56437Y-49256
T10
X66134Y-20929
X68890Y-20929
X56689Y-51224
X57689Y-51224
X58689Y-51224
X56339Y-20929
X64213Y-20929
T11
X66406Y-29443
X67406Y-26943
X66406Y-44404
X67406Y-41904
X66406Y-36923
X67406Y-34423
T12
X61445Y-56000
X63413Y-56000
X48425Y-56220
X50394Y-56220
T13
X48807Y-29587
X48807Y-41398
X60028Y-29587
X60028Y-41398
T0
M30
