M48
INCH,TZ
T1C0.0157
T2C0.0236
T3C0.0300
T4C0.0315
T5C0.0320
T6C0.0354
T7C0.0394
T8C0.0394
T9C0.0500
T10C0.0512
T11C0.0591
%
G90
G05
T1
X49260Y-48760
X50669Y-35169
X51134Y-47280
X52295Y-36268
X53402Y-35165
X54094Y-35134
X54102Y-36866
X55240Y-35000
X55240Y-35587
X55783Y-40750
X55902Y-38437
X63705Y-53024
T2
X60189Y-53815
T3
X65752Y-26795
X65752Y-27795
X65752Y-28795
T4
X64953Y-49315
X66449Y-49315
T5
X58543Y-56827
X59543Y-56827
X60543Y-56827
T6
X57228Y-25992
X57228Y-26992
X57228Y-27992
X57228Y-28992
X57228Y-29992
X57228Y-30992
X57228Y-31992
X57228Y-32992
X57228Y-33992
X57228Y-34992
X57228Y-35992
X57228Y-36992
X57228Y-37992
X57228Y-38992
X57228Y-39992
X57228Y-40992
X57228Y-41992
X57228Y-42992
X57228Y-43992
X57228Y-44992
X63228Y-25992
X63228Y-26992
X63228Y-27992
X63228Y-28992
X63228Y-29992
X63228Y-30992
X63228Y-31992
X63228Y-32992
X63228Y-33992
X63228Y-34992
X63228Y-35992
X63228Y-36992
X63228Y-37992
X63228Y-38992
X63228Y-39992
X63228Y-40992
X63228Y-41992
X63228Y-42992
X63228Y-43992
X63228Y-44992
T7
X50937Y-52705
X51937Y-52705
X49299Y-23079
X60154Y-38972
X61154Y-38972
X58472Y-23996
X58472Y-24996
X58472Y-25996
X58472Y-26996
X58472Y-27996
X58472Y-28996
X58472Y-29996
X58500Y-32209
X58500Y-33209
X60154Y-41854
X61154Y-41854
X60154Y-40409
X61154Y-40409
T8
X63236Y-49327
T9
X59236Y-49327
T10
X61787Y-20957
X61787Y-23713
X59488Y-51295
X60488Y-51295
X61488Y-51295
X51906Y-21898
X51906Y-29772
T11
X62799Y-56295
X64768Y-56295
X51224Y-56291
X53193Y-56291
T0
M30
