G04 #@! TF.GenerationSoftware,KiCad,Pcbnew,5.0.0*
G04 #@! TF.CreationDate,2018-07-28T18:19:29+02:00*
G04 #@! TF.ProjectId,nixie_control_board,6E697869655F636F6E74726F6C5F626F,rev?*
G04 #@! TF.SameCoordinates,Original*
G04 #@! TF.FileFunction,Copper,L1,Top,Signal*
G04 #@! TF.FilePolarity,Positive*
%FSLAX46Y46*%
G04 Gerber Fmt 4.6, Leading zero omitted, Abs format (unit mm)*
G04 Created by KiCad (PCBNEW 5.0.0) date Sat Jul 28 18:19:29 2018*
%MOMM*%
%LPD*%
G01*
G04 APERTURE LIST*
G04 #@! TA.AperFunction,SMDPad,CuDef*
%ADD10R,4.000000X0.400000*%
G04 #@! TD*
G04 #@! TA.AperFunction,ComponentPad*
%ADD11C,1.524000*%
G04 #@! TD*
G04 #@! TA.AperFunction,SMDPad,CuDef*
%ADD12R,4.000000X6.000000*%
G04 #@! TD*
G04 #@! TA.AperFunction,ComponentPad*
%ADD13C,1.800000*%
G04 #@! TD*
G04 #@! TA.AperFunction,SMDPad,CuDef*
%ADD14R,0.599440X1.625000*%
G04 #@! TD*
G04 #@! TA.AperFunction,ViaPad*
%ADD15C,0.600000*%
G04 #@! TD*
G04 #@! TA.AperFunction,SMDPad,CuDef*
%ADD16R,0.800000X0.750000*%
G04 #@! TD*
G04 #@! TA.AperFunction,SMDPad,CuDef*
%ADD17R,0.500000X0.400000*%
G04 #@! TD*
G04 #@! TA.AperFunction,SMDPad,CuDef*
%ADD18R,0.500000X0.300000*%
G04 #@! TD*
G04 #@! TA.AperFunction,ComponentPad*
%ADD19C,2.286000*%
G04 #@! TD*
G04 #@! TA.AperFunction,ComponentPad*
%ADD20R,1.300000X1.300000*%
G04 #@! TD*
G04 #@! TA.AperFunction,ComponentPad*
%ADD21C,1.300000*%
G04 #@! TD*
G04 #@! TA.AperFunction,ComponentPad*
%ADD22C,1.998980*%
G04 #@! TD*
G04 #@! TA.AperFunction,ComponentPad*
%ADD23R,1.998980X1.998980*%
G04 #@! TD*
G04 #@! TA.AperFunction,ComponentPad*
%ADD24C,2.300000*%
G04 #@! TD*
G04 #@! TA.AperFunction,SMDPad,CuDef*
%ADD25R,3.200000X1.000000*%
G04 #@! TD*
G04 #@! TA.AperFunction,SMDPad,CuDef*
%ADD26R,3.800000X2.000000*%
G04 #@! TD*
G04 #@! TA.AperFunction,SMDPad,CuDef*
%ADD27R,1.500000X2.000000*%
G04 #@! TD*
G04 #@! TA.AperFunction,SMDPad,CuDef*
%ADD28R,0.500000X0.900000*%
G04 #@! TD*
G04 #@! TA.AperFunction,SMDPad,CuDef*
%ADD29R,1.524000X0.760000*%
G04 #@! TD*
G04 #@! TA.AperFunction,SMDPad,CuDef*
%ADD30R,0.900000X0.500000*%
G04 #@! TD*
G04 #@! TA.AperFunction,SMDPad,CuDef*
%ADD31R,2.500000X1.000000*%
G04 #@! TD*
G04 #@! TA.AperFunction,SMDPad,CuDef*
%ADD32R,1.000000X1.250000*%
G04 #@! TD*
G04 #@! TA.AperFunction,SMDPad,CuDef*
%ADD33R,1.000000X3.200000*%
G04 #@! TD*
G04 #@! TA.AperFunction,ComponentPad*
%ADD34C,3.200000*%
G04 #@! TD*
G04 #@! TA.AperFunction,ComponentPad*
%ADD35C,2.000000*%
G04 #@! TD*
G04 #@! TA.AperFunction,ComponentPad*
%ADD36R,1.700000X1.700000*%
G04 #@! TD*
G04 #@! TA.AperFunction,SMDPad,CuDef*
%ADD37R,0.750000X0.800000*%
G04 #@! TD*
G04 #@! TA.AperFunction,SMDPad,CuDef*
%ADD38R,1.600000X1.000000*%
G04 #@! TD*
G04 #@! TA.AperFunction,SMDPad,CuDef*
%ADD39R,2.200000X2.700000*%
G04 #@! TD*
G04 #@! TA.AperFunction,SMDPad,CuDef*
%ADD40R,1.200000X1.200000*%
G04 #@! TD*
G04 #@! TA.AperFunction,SMDPad,CuDef*
%ADD41R,1.600000X1.500000*%
G04 #@! TD*
G04 #@! TA.AperFunction,ComponentPad*
%ADD42O,1.700000X1.700000*%
G04 #@! TD*
G04 #@! TA.AperFunction,SMDPad,CuDef*
%ADD43R,1.549400X0.599440*%
G04 #@! TD*
G04 #@! TA.AperFunction,ComponentPad*
%ADD44C,1.600000*%
G04 #@! TD*
G04 #@! TA.AperFunction,SMDPad,CuDef*
%ADD45R,0.914400X0.914400*%
G04 #@! TD*
G04 #@! TA.AperFunction,ViaPad*
%ADD46C,0.800000*%
G04 #@! TD*
G04 #@! TA.AperFunction,ViaPad*
%ADD47C,1.000000*%
G04 #@! TD*
G04 #@! TA.AperFunction,Conductor*
%ADD48C,0.400000*%
G04 #@! TD*
G04 #@! TA.AperFunction,Conductor*
%ADD49C,0.600000*%
G04 #@! TD*
G04 #@! TA.AperFunction,Conductor*
%ADD50C,1.000000*%
G04 #@! TD*
G04 #@! TA.AperFunction,Conductor*
%ADD51C,0.800000*%
G04 #@! TD*
G04 #@! TA.AperFunction,Conductor*
%ADD52C,1.600000*%
G04 #@! TD*
G04 #@! TA.AperFunction,Conductor*
%ADD53C,0.030000*%
G04 #@! TD*
G04 #@! TA.AperFunction,Conductor*
%ADD54C,0.150000*%
G04 #@! TD*
G04 #@! TA.AperFunction,Conductor*
%ADD55C,0.254000*%
G04 #@! TD*
G04 APERTURE END LIST*
D10*
G04 #@! TO.P,U7,30*
G04 #@! TO.N,GND*
X126330000Y-80920058D03*
G04 #@! TO.P,U7,29*
X126330000Y-81620056D03*
G04 #@! TO.P,U7,25*
X126330000Y-84420048D03*
G04 #@! TO.P,U7,27*
G04 #@! TO.N,Net-(C14-Pad1)*
X126330000Y-83020052D03*
G04 #@! TO.P,U7,15*
G04 #@! TO.N,GND*
X126330000Y-91420028D03*
G04 #@! TO.P,U7,19*
G04 #@! TO.N,SDA*
X126330000Y-88620036D03*
G04 #@! TO.P,U7,13*
G04 #@! TO.N,GND*
X126330000Y-92820024D03*
G04 #@! TO.P,U7,21*
X126330000Y-87220040D03*
G04 #@! TO.P,U7,23*
X126330000Y-85820044D03*
G04 #@! TO.P,U7,17*
X126330000Y-90020032D03*
G04 #@! TO.P,U7,28*
G04 #@! TO.N,Net-(C12-Pad1)*
X126330000Y-82320054D03*
G04 #@! TO.P,U7,26*
G04 #@! TO.N,Net-(R6-Pad1)*
X126330000Y-83720050D03*
G04 #@! TO.P,U7,24*
G04 #@! TO.N,GND*
X126330000Y-85120046D03*
G04 #@! TO.P,U7,10*
X126330000Y-94920018D03*
G04 #@! TO.P,U7,2*
G04 #@! TO.N,Net-(C15-Pad1)*
X126330000Y-100520002D03*
G04 #@! TO.P,U7,4*
G04 #@! TO.N,Net-(C16-Pad1)*
X126330000Y-99120006D03*
G04 #@! TO.P,U7,7*
G04 #@! TO.N,Net-(U7-Pad7)*
X126330000Y-97020012D03*
G04 #@! TO.P,U7,6*
G04 #@! TO.N,+3V3*
X126330000Y-97720010D03*
G04 #@! TO.P,U7,18*
G04 #@! TO.N,SCL*
X126330000Y-89320034D03*
G04 #@! TO.P,U7,14*
G04 #@! TO.N,DISP_RESET*
X126330000Y-92120026D03*
G04 #@! TO.P,U7,12*
G04 #@! TO.N,GND*
X126330000Y-93520022D03*
G04 #@! TO.P,U7,20*
G04 #@! TO.N,SDA*
X126330000Y-87920038D03*
G04 #@! TO.P,U7,22*
G04 #@! TO.N,GND*
X126330000Y-86520042D03*
G04 #@! TO.P,U7,16*
X126330000Y-90720030D03*
G04 #@! TO.P,U7,11*
G04 #@! TO.N,+3V3*
X126330000Y-94220020D03*
G04 #@! TO.P,U7,9*
X126330000Y-95620016D03*
G04 #@! TO.P,U7,8*
G04 #@! TO.N,GND*
X126330000Y-96320014D03*
G04 #@! TO.P,U7,5*
G04 #@! TO.N,Net-(C16-Pad2)*
X126330000Y-98420008D03*
G04 #@! TO.P,U7,3*
G04 #@! TO.N,Net-(C15-Pad2)*
X126330000Y-99820004D03*
G04 #@! TO.P,U7,1*
G04 #@! TO.N,GND*
X126330000Y-101220000D03*
G04 #@! TD*
D11*
G04 #@! TO.P,U5,1*
G04 #@! TO.N,+5V*
X175500000Y-59930000D03*
G04 #@! TO.P,U5,2*
G04 #@! TO.N,DHT*
X178040000Y-59930000D03*
G04 #@! TO.P,U5,3*
G04 #@! TO.N,GND*
X180580000Y-59930000D03*
G04 #@! TD*
D12*
G04 #@! TO.P,L1,1*
G04 #@! TO.N,+12V*
X122182000Y-128548000D03*
G04 #@! TO.P,L1,2*
G04 #@! TO.N,Net-(D1-Pad2)*
X134182000Y-128548000D03*
G04 #@! TD*
D13*
G04 #@! TO.P,MCU1,1*
G04 #@! TO.N,GND*
X160600000Y-66020000D03*
G04 #@! TO.P,MCU1,2*
X160600000Y-68560000D03*
G04 #@! TO.P,MCU1,3*
G04 #@! TO.N,Net-(MCU1-Pad3)*
X160600000Y-71100000D03*
G04 #@! TO.P,MCU1,4*
G04 #@! TO.N,Net-(MCU1-Pad4)*
X160600000Y-73640000D03*
G04 #@! TO.P,MCU1,5*
G04 #@! TO.N,SDA2*
X160600000Y-76180000D03*
G04 #@! TO.P,MCU1,6*
G04 #@! TO.N,SCL2*
X160600000Y-78720000D03*
G04 #@! TO.P,MCU1,7*
G04 #@! TO.N,DHT*
X160600000Y-81260000D03*
G04 #@! TO.P,MCU1,8*
G04 #@! TO.N,Net-(MCU1-Pad8)*
X160600000Y-83800000D03*
G04 #@! TO.P,MCU1,9*
G04 #@! TO.N,MOSI*
X160600000Y-86340000D03*
G04 #@! TO.P,MCU1,10*
G04 #@! TO.N,Net-(MCU1-Pad10)*
X160600000Y-88880000D03*
G04 #@! TO.P,MCU1,11*
G04 #@! TO.N,SCK*
X160600000Y-91420000D03*
G04 #@! TO.P,MCU1,12*
G04 #@! TO.N,Net-(MCU1-Pad12)*
X160600000Y-93960000D03*
G04 #@! TO.P,MCU1,13*
G04 #@! TO.N,Net-(MCU1-Pad13)*
X160600000Y-96500000D03*
G04 #@! TO.P,MCU1,14*
G04 #@! TO.N,Net-(MCU1-Pad14)*
X160600000Y-99040000D03*
G04 #@! TO.P,MCU1,15*
G04 #@! TO.N,Net-(MCU1-Pad15)*
X160600000Y-101580000D03*
G04 #@! TO.P,MCU1,16*
G04 #@! TO.N,BUTTON_3*
X160600000Y-104120000D03*
G04 #@! TO.P,MCU1,17*
G04 #@! TO.N,BUTTON_2*
X160600000Y-106660000D03*
G04 #@! TO.P,MCU1,18*
G04 #@! TO.N,BUTTON_1*
X160600000Y-109200000D03*
G04 #@! TO.P,MCU1,19*
G04 #@! TO.N,Net-(MCU1-Pad19)*
X160600000Y-111740000D03*
G04 #@! TO.P,MCU1,20*
G04 #@! TO.N,Net-(MCU1-Pad20)*
X160600000Y-114280000D03*
G04 #@! TO.P,MCU1,21*
G04 #@! TO.N,+3V3*
X145360000Y-114280000D03*
G04 #@! TO.P,MCU1,22*
G04 #@! TO.N,GND*
X145360000Y-111740000D03*
G04 #@! TO.P,MCU1,23*
G04 #@! TO.N,+5V*
X145360000Y-109200000D03*
G04 #@! TO.P,MCU1,24*
G04 #@! TO.N,Net-(MCU1-Pad24)*
X145360000Y-106660000D03*
G04 #@! TO.P,MCU1,25*
G04 #@! TO.N,Net-(MCU1-Pad25)*
X145360000Y-104120000D03*
G04 #@! TO.P,MCU1,26*
G04 #@! TO.N,SDA*
X145360000Y-101580000D03*
G04 #@! TO.P,MCU1,27*
G04 #@! TO.N,SCL*
X145360000Y-99040000D03*
G04 #@! TO.P,MCU1,28*
G04 #@! TO.N,DISP_RESET*
X145360000Y-96500000D03*
G04 #@! TO.P,MCU1,29*
G04 #@! TO.N,Net-(MCU1-Pad29)*
X145360000Y-93960000D03*
G04 #@! TO.P,MCU1,30*
G04 #@! TO.N,Net-(MCU1-Pad30)*
X145360000Y-91420000D03*
G04 #@! TO.P,MCU1,31*
G04 #@! TO.N,Net-(MCU1-Pad31)*
X145360000Y-88880000D03*
G04 #@! TO.P,MCU1,32*
G04 #@! TO.N,Net-(MCU1-Pad32)*
X145360000Y-86340000D03*
G04 #@! TO.P,MCU1,33*
G04 #@! TO.N,Net-(MCU1-Pad33)*
X145360000Y-83800000D03*
G04 #@! TO.P,MCU1,34*
G04 #@! TO.N,Net-(MCU1-Pad34)*
X145360000Y-81260000D03*
G04 #@! TO.P,MCU1,35*
G04 #@! TO.N,BUZZER*
X145360000Y-78720000D03*
G04 #@! TO.P,MCU1,36*
G04 #@! TO.N,SHIFT_CLEAR*
X145360000Y-76180000D03*
G04 #@! TO.P,MCU1,37*
G04 #@! TO.N,SHIFT_OUT_ENABLE*
X145360000Y-73640000D03*
G04 #@! TO.P,MCU1,38*
G04 #@! TO.N,SHIFT_LATCH_CLOCK*
X145360000Y-71100000D03*
G04 #@! TO.P,MCU1,39*
G04 #@! TO.N,SHIFT_SERIAL_CLOCK*
X145360000Y-68560000D03*
G04 #@! TO.P,MCU1,40*
G04 #@! TO.N,SHIFT_SER_OUT*
X145360000Y-66020000D03*
G04 #@! TD*
D14*
G04 #@! TO.P,U1,16*
G04 #@! TO.N,SCL*
X133450000Y-71325000D03*
G04 #@! TO.P,U1,15*
G04 #@! TO.N,SDA*
X132180000Y-71325000D03*
G04 #@! TO.P,U1,14*
G04 #@! TO.N,Net-(BT1-Pad1)*
X130910000Y-71325000D03*
G04 #@! TO.P,U1,13*
G04 #@! TO.N,GND*
X129640000Y-71325000D03*
G04 #@! TO.P,U1,12*
X128370000Y-71325000D03*
G04 #@! TO.P,U1,11*
X127100000Y-71325000D03*
G04 #@! TO.P,U1,10*
X125830000Y-71325000D03*
G04 #@! TO.P,U1,9*
X124560000Y-71325000D03*
G04 #@! TO.P,U1,8*
X124560000Y-62200000D03*
G04 #@! TO.P,U1,7*
X125830000Y-62200000D03*
G04 #@! TO.P,U1,6*
X127100000Y-62200000D03*
G04 #@! TO.P,U1,5*
X128370000Y-62200000D03*
G04 #@! TO.P,U1,4*
G04 #@! TO.N,Net-(U1-Pad4)*
X129640000Y-62200000D03*
G04 #@! TO.P,U1,3*
G04 #@! TO.N,SQW*
X130910000Y-62200000D03*
G04 #@! TO.P,U1,2*
G04 #@! TO.N,+5V*
X132180000Y-62200000D03*
G04 #@! TO.P,U1,1*
G04 #@! TO.N,Net-(P5-Pad1)*
X133450000Y-62200000D03*
G04 #@! TD*
D15*
G04 #@! TO.N,GND*
G04 #@! TO.C,REF\002A\002A*
X132350000Y-138300000D03*
G04 #@! TD*
D16*
G04 #@! TO.P,C2,1*
G04 #@! TO.N,GND*
X129440000Y-59780000D03*
G04 #@! TO.P,C2,2*
G04 #@! TO.N,+5V*
X130940000Y-59780000D03*
G04 #@! TD*
D17*
G04 #@! TO.P,RP1,1*
G04 #@! TO.N,+5V*
X134450000Y-74930000D03*
D18*
G04 #@! TO.P,RP1,3*
X134450000Y-73930000D03*
G04 #@! TO.P,RP1,2*
X134450000Y-74430000D03*
D17*
G04 #@! TO.P,RP1,4*
X134450000Y-73430000D03*
D18*
G04 #@! TO.P,RP1,7*
G04 #@! TO.N,Net-(RP1-Pad7)*
X133450000Y-74430000D03*
D17*
G04 #@! TO.P,RP1,8*
G04 #@! TO.N,SDA*
X133450000Y-74930000D03*
D18*
G04 #@! TO.P,RP1,6*
G04 #@! TO.N,Net-(RP1-Pad6)*
X133450000Y-73930000D03*
D17*
G04 #@! TO.P,RP1,5*
G04 #@! TO.N,SCL*
X133450000Y-73430000D03*
G04 #@! TD*
D19*
G04 #@! TO.P,SW1,1*
G04 #@! TO.N,BUTTON_1*
X168670000Y-112785000D03*
G04 #@! TO.P,SW1,2*
G04 #@! TO.N,GND*
X171210000Y-106435000D03*
G04 #@! TD*
G04 #@! TO.P,SW2,1*
G04 #@! TO.N,BUTTON_2*
X168670000Y-93785000D03*
G04 #@! TO.P,SW2,2*
G04 #@! TO.N,GND*
X171210000Y-87435000D03*
G04 #@! TD*
G04 #@! TO.P,SW3,1*
G04 #@! TO.N,BUTTON_3*
X168670000Y-74785000D03*
G04 #@! TO.P,SW3,2*
G04 #@! TO.N,GND*
X171210000Y-68435000D03*
G04 #@! TD*
D20*
G04 #@! TO.P,C6,1*
G04 #@! TO.N,Net-(C6-Pad1)*
X152674000Y-127866000D03*
D21*
G04 #@! TO.P,C6,2*
G04 #@! TO.N,GND*
X156474000Y-127866000D03*
G04 #@! TD*
D22*
G04 #@! TO.P,D1,2*
G04 #@! TO.N,Net-(D1-Pad2)*
X138450000Y-125210000D03*
D23*
G04 #@! TO.P,D1,1*
G04 #@! TO.N,Net-(C6-Pad1)*
X148610000Y-125210000D03*
G04 #@! TD*
D24*
G04 #@! TO.P,P1,1*
G04 #@! TO.N,+12P*
X122960000Y-142350000D03*
G04 #@! TO.P,P1,2*
G04 #@! TO.N,GND*
X127960000Y-142350000D03*
G04 #@! TD*
G04 #@! TO.P,P2,1*
G04 #@! TO.N,Net-(C6-Pad1)*
X151170000Y-142340000D03*
G04 #@! TO.P,P2,2*
G04 #@! TO.N,GND*
X156170000Y-142340000D03*
G04 #@! TD*
D25*
G04 #@! TO.P,R1,1*
G04 #@! TO.N,Net-(Q1-Pad3)*
X146470000Y-134110000D03*
G04 #@! TO.P,R1,2*
G04 #@! TO.N,GND*
X146470000Y-140310000D03*
G04 #@! TD*
D11*
G04 #@! TO.P,RV1,2*
G04 #@! TO.N,Net-(R3-Pad1)*
X135830000Y-143830000D03*
G04 #@! TO.P,RV1,3*
X138370000Y-143830000D03*
G04 #@! TO.P,RV1,1*
G04 #@! TO.N,Net-(R2-Pad2)*
X133290000Y-143830000D03*
G04 #@! TD*
D26*
G04 #@! TO.P,P3,4*
G04 #@! TO.N,N/C*
X124490000Y-109680000D03*
D27*
G04 #@! TO.P,P3,2*
G04 #@! TO.N,+5V*
X124490000Y-115980000D03*
G04 #@! TO.P,P3,3*
G04 #@! TO.N,+12V*
X126790000Y-115980000D03*
G04 #@! TO.P,P3,1*
G04 #@! TO.N,GND*
X122190000Y-115980000D03*
G04 #@! TD*
D16*
G04 #@! TO.P,C8,1*
G04 #@! TO.N,+12V*
X124740000Y-121370000D03*
G04 #@! TO.P,C8,2*
G04 #@! TO.N,GND*
X123240000Y-121370000D03*
G04 #@! TD*
G04 #@! TO.P,C9,1*
G04 #@! TO.N,+5V*
X124740000Y-119780000D03*
G04 #@! TO.P,C9,2*
G04 #@! TO.N,GND*
X123240000Y-119780000D03*
G04 #@! TD*
D28*
G04 #@! TO.P,R4,1*
G04 #@! TO.N,+5V*
X124880000Y-118140000D03*
G04 #@! TO.P,R4,2*
G04 #@! TO.N,Net-(R4-Pad2)*
X123380000Y-118140000D03*
G04 #@! TD*
G04 #@! TO.P,R5,1*
G04 #@! TO.N,Net-(R4-Pad2)*
X122200000Y-118140000D03*
G04 #@! TO.P,R5,2*
G04 #@! TO.N,GND*
X120700000Y-118140000D03*
G04 #@! TD*
D29*
G04 #@! TO.P,U3,1*
G04 #@! TO.N,Net-(Q1-Pad2)*
X138690000Y-134054000D03*
G04 #@! TO.P,U3,2*
G04 #@! TO.N,+12V*
X138690000Y-135324000D03*
G04 #@! TO.P,U3,3*
G04 #@! TO.N,Net-(R2-Pad2)*
X138690000Y-136594000D03*
G04 #@! TO.P,U3,4*
G04 #@! TO.N,GND*
X138690000Y-137864000D03*
G04 #@! TO.P,U3,5*
G04 #@! TO.N,Net-(C5-Pad1)*
X143290000Y-137864000D03*
G04 #@! TO.P,U3,6*
G04 #@! TO.N,GND*
X143290000Y-136594000D03*
G04 #@! TO.P,U3,7*
X143290000Y-135324000D03*
G04 #@! TO.P,U3,8*
G04 #@! TO.N,Net-(Q1-Pad3)*
X143290000Y-134054000D03*
G04 #@! TD*
D13*
G04 #@! TO.P,U4,1*
G04 #@! TO.N,+5V*
X173810000Y-55960000D03*
G04 #@! TO.P,U4,2*
G04 #@! TO.N,BUZZER*
X171270000Y-55960000D03*
G04 #@! TO.P,U4,3*
G04 #@! TO.N,GND*
X168730000Y-55960000D03*
G04 #@! TD*
D16*
G04 #@! TO.P,C4,2*
G04 #@! TO.N,GND*
X139708000Y-139550000D03*
G04 #@! TO.P,C4,1*
G04 #@! TO.N,+12V*
X138208000Y-139550000D03*
G04 #@! TD*
D30*
G04 #@! TO.P,R3,1*
G04 #@! TO.N,Net-(R3-Pad1)*
X141720000Y-143320000D03*
G04 #@! TO.P,R3,2*
G04 #@! TO.N,GND*
X141720000Y-141820000D03*
G04 #@! TD*
D31*
G04 #@! TO.P,C3,1*
G04 #@! TO.N,+12V*
X135656000Y-140034000D03*
G04 #@! TO.P,C3,2*
G04 #@! TO.N,GND*
X135656000Y-137034000D03*
G04 #@! TD*
D32*
G04 #@! TO.P,C5,1*
G04 #@! TO.N,Net-(C5-Pad1)*
X143514000Y-139550000D03*
G04 #@! TO.P,C5,2*
G04 #@! TO.N,GND*
X141514000Y-139550000D03*
G04 #@! TD*
D31*
G04 #@! TO.P,C10,1*
G04 #@! TO.N,+12V*
X132354000Y-140034000D03*
G04 #@! TO.P,C10,2*
G04 #@! TO.N,GND*
X132354000Y-137034000D03*
G04 #@! TD*
G04 #@! TO.P,C7,1*
G04 #@! TO.N,Net-(C6-Pad1)*
X148290000Y-127900000D03*
G04 #@! TO.P,C7,2*
G04 #@! TO.N,GND*
X148290000Y-130900000D03*
G04 #@! TD*
D33*
G04 #@! TO.P,R2,1*
G04 #@! TO.N,Net-(C6-Pad1)*
X157806000Y-134216000D03*
G04 #@! TO.P,R2,2*
G04 #@! TO.N,Net-(R2-Pad2)*
X151606000Y-134216000D03*
G04 #@! TD*
D13*
G04 #@! TO.P,Q1,2*
G04 #@! TO.N,Net-(Q1-Pad2)*
X139090000Y-130210000D03*
G04 #@! TO.P,Q1,1*
G04 #@! TO.N,Net-(D1-Pad2)*
X141630000Y-130210000D03*
G04 #@! TO.P,Q1,3*
G04 #@! TO.N,Net-(Q1-Pad3)*
X144170000Y-130210000D03*
G04 #@! TD*
D15*
G04 #@! TO.N,GND*
G04 #@! TO.C,REF\002A\002A*
X135650000Y-138310000D03*
G04 #@! TD*
D13*
G04 #@! TO.P,LCD1,1*
G04 #@! TO.N,+5V*
X153470000Y-93960000D03*
G04 #@! TO.P,LCD1,2*
G04 #@! TO.N,GND*
X153470000Y-91420000D03*
G04 #@! TO.P,LCD1,3*
G04 #@! TO.N,SCL2*
X153470000Y-88880000D03*
G04 #@! TO.P,LCD1,4*
G04 #@! TO.N,SDA2*
X153470000Y-86340000D03*
D34*
G04 #@! TO.P,LCD1,*
G04 #@! TO.N,*
X152470000Y-75150000D03*
X152470000Y-105150000D03*
X123970000Y-75150000D03*
X123970000Y-105150000D03*
G04 #@! TD*
D35*
G04 #@! TO.P,BT1,1*
G04 #@! TO.N,Net-(BT1-Pad1)*
X143100000Y-53160000D03*
G04 #@! TO.P,BT1,2*
G04 #@! TO.N,GND*
X163100000Y-53160000D03*
G04 #@! TD*
D36*
G04 #@! TO.P,P5,1*
G04 #@! TO.N,Net-(P5-Pad1)*
X121390000Y-66510000D03*
G04 #@! TD*
D16*
G04 #@! TO.P,C11,1*
G04 #@! TO.N,+3V3*
X130580000Y-95570000D03*
G04 #@! TO.P,C11,2*
G04 #@! TO.N,GND*
X132080000Y-95570000D03*
G04 #@! TD*
D37*
G04 #@! TO.P,C12,2*
G04 #@! TO.N,GND*
X129800000Y-80470000D03*
G04 #@! TO.P,C12,1*
G04 #@! TO.N,Net-(C12-Pad1)*
X129800000Y-81970000D03*
G04 #@! TD*
D16*
G04 #@! TO.P,C13,2*
G04 #@! TO.N,GND*
X132090000Y-97010000D03*
G04 #@! TO.P,C13,1*
G04 #@! TO.N,+3V3*
X130590000Y-97010000D03*
G04 #@! TD*
D37*
G04 #@! TO.P,C14,2*
G04 #@! TO.N,GND*
X131240000Y-82290000D03*
G04 #@! TO.P,C14,1*
G04 #@! TO.N,Net-(C14-Pad1)*
X131240000Y-83790000D03*
G04 #@! TD*
G04 #@! TO.P,C15,1*
G04 #@! TO.N,Net-(C15-Pad1)*
X130480000Y-101700000D03*
G04 #@! TO.P,C15,2*
G04 #@! TO.N,Net-(C15-Pad2)*
X130480000Y-100200000D03*
G04 #@! TD*
G04 #@! TO.P,C16,1*
G04 #@! TO.N,Net-(C16-Pad1)*
X132080000Y-100010000D03*
G04 #@! TO.P,C16,2*
G04 #@! TO.N,Net-(C16-Pad2)*
X132080000Y-98510000D03*
G04 #@! TD*
D31*
G04 #@! TO.P,C19,1*
G04 #@! TO.N,+12V*
X168550000Y-134975000D03*
G04 #@! TO.P,C19,2*
G04 #@! TO.N,GND*
X168550000Y-137975000D03*
G04 #@! TD*
D16*
G04 #@! TO.P,C20,1*
G04 #@! TO.N,GND*
X180350000Y-133425000D03*
G04 #@! TO.P,C20,2*
G04 #@! TO.N,Net-(C20-Pad2)*
X178850000Y-133425000D03*
G04 #@! TD*
G04 #@! TO.P,C21,2*
G04 #@! TO.N,Net-(C21-Pad2)*
X171800000Y-132225000D03*
G04 #@! TO.P,C21,1*
G04 #@! TO.N,Net-(C21-Pad1)*
X173300000Y-132225000D03*
G04 #@! TD*
G04 #@! TO.P,C22,2*
G04 #@! TO.N,Net-(C22-Pad2)*
X178850000Y-136375000D03*
G04 #@! TO.P,C22,1*
G04 #@! TO.N,Net-(C22-Pad1)*
X180350000Y-136375000D03*
G04 #@! TD*
D38*
G04 #@! TO.P,C23,1*
G04 #@! TO.N,GND*
X178250000Y-131900000D03*
G04 #@! TO.P,C23,2*
G04 #@! TO.N,+3V3*
X178250000Y-128900000D03*
G04 #@! TD*
D39*
G04 #@! TO.P,L2,1*
G04 #@! TO.N,Net-(C21-Pad1)*
X173325000Y-129825000D03*
G04 #@! TO.P,L2,2*
G04 #@! TO.N,+3V3*
X173325000Y-124725000D03*
G04 #@! TD*
D30*
G04 #@! TO.P,R6,2*
G04 #@! TO.N,GND*
X129800000Y-85680000D03*
G04 #@! TO.P,R6,1*
G04 #@! TO.N,Net-(R6-Pad1)*
X129800000Y-84180000D03*
G04 #@! TD*
D28*
G04 #@! TO.P,R9,1*
G04 #@! TO.N,Net-(R9-Pad1)*
X178700000Y-134900000D03*
G04 #@! TO.P,R9,2*
G04 #@! TO.N,+12V*
X180200000Y-134900000D03*
G04 #@! TD*
G04 #@! TO.P,R10,2*
G04 #@! TO.N,Net-(C22-Pad1)*
X180200000Y-137825000D03*
G04 #@! TO.P,R10,1*
G04 #@! TO.N,GND*
X178700000Y-137825000D03*
G04 #@! TD*
G04 #@! TO.P,R11,1*
G04 #@! TO.N,GND*
X178625000Y-139375000D03*
G04 #@! TO.P,R11,2*
G04 #@! TO.N,Net-(R11-Pad2)*
X177125000Y-139375000D03*
G04 #@! TD*
D40*
G04 #@! TO.P,RV2,1*
G04 #@! TO.N,+3V3*
X172725000Y-142470000D03*
G04 #@! TO.P,RV2,3*
G04 #@! TO.N,Net-(R11-Pad2)*
X175525000Y-142470000D03*
D41*
G04 #@! TO.P,RV2,2*
G04 #@! TO.N,+3V3*
X174125000Y-139230000D03*
G04 #@! TD*
D36*
G04 #@! TO.P,SW4,1*
G04 #@! TO.N,+12P*
X126280000Y-136460000D03*
D42*
G04 #@! TO.P,SW4,2*
G04 #@! TO.N,+12V*
X128820000Y-136460000D03*
G04 #@! TD*
D43*
G04 #@! TO.P,U8,1*
G04 #@! TO.N,Net-(C21-Pad2)*
X171377520Y-133597540D03*
G04 #@! TO.P,U8,2*
G04 #@! TO.N,+12V*
X171377520Y-134867540D03*
G04 #@! TO.P,U8,3*
G04 #@! TO.N,Net-(C21-Pad1)*
X171377520Y-136132460D03*
G04 #@! TO.P,U8,4*
G04 #@! TO.N,GND*
X171377520Y-137402460D03*
G04 #@! TO.P,U8,5*
G04 #@! TO.N,Net-(R11-Pad2)*
X176772480Y-137402460D03*
G04 #@! TO.P,U8,6*
G04 #@! TO.N,Net-(C22-Pad2)*
X176772480Y-136132460D03*
G04 #@! TO.P,U8,7*
G04 #@! TO.N,Net-(R9-Pad1)*
X176772480Y-134867540D03*
G04 #@! TO.P,U8,8*
G04 #@! TO.N,Net-(C20-Pad2)*
X176772480Y-133597540D03*
G04 #@! TD*
D44*
G04 #@! TO.P,BZ1,1*
G04 #@! TO.N,+5V*
X174980000Y-53160000D03*
G04 #@! TO.P,BZ1,2*
G04 #@! TO.N,Net-(BZ1-Pad2)*
X167980000Y-53160000D03*
G04 #@! TD*
D45*
G04 #@! TO.P,Q2,1*
G04 #@! TO.N,Net-(Q2-Pad1)*
X161086000Y-59729000D03*
G04 #@! TO.P,Q2,2*
G04 #@! TO.N,Net-(BZ1-Pad2)*
X161086000Y-57951000D03*
G04 #@! TO.P,Q2,3*
G04 #@! TO.N,GND*
X159069240Y-58840000D03*
G04 #@! TD*
D28*
G04 #@! TO.P,R7,1*
G04 #@! TO.N,Net-(Q2-Pad1)*
X161080000Y-61720000D03*
G04 #@! TO.P,R7,2*
G04 #@! TO.N,BUZZER*
X159580000Y-61720000D03*
G04 #@! TD*
D36*
G04 #@! TO.P,J1,1*
G04 #@! TO.N,SHIFT_CLEAR*
X140860000Y-76180000D03*
D42*
G04 #@! TO.P,J1,2*
G04 #@! TO.N,SHIFT_OUT_ENABLE*
X140860000Y-73640000D03*
G04 #@! TO.P,J1,3*
G04 #@! TO.N,SHIFT_LATCH_CLOCK*
X140860000Y-71100000D03*
G04 #@! TO.P,J1,4*
G04 #@! TO.N,SHIFT_SERIAL_CLOCK*
X140860000Y-68560000D03*
G04 #@! TO.P,J1,5*
G04 #@! TO.N,SHIFT_SER_OUT*
X140860000Y-66020000D03*
G04 #@! TO.P,J1,6*
G04 #@! TO.N,GND*
X140860000Y-63480000D03*
G04 #@! TO.P,J1,7*
G04 #@! TO.N,+5V*
X140860000Y-60940000D03*
G04 #@! TD*
D46*
G04 #@! TO.N,+5V*
X133480000Y-58300000D03*
X137290000Y-64594760D03*
X137290000Y-69210000D03*
X134450000Y-72430000D03*
G04 #@! TO.N,SCL*
X133490000Y-65440000D03*
X128700000Y-89330000D03*
X135640000Y-89320000D03*
G04 #@! TO.N,SDA*
X132210000Y-65460000D03*
D47*
G04 #@! TO.N,Net-(R2-Pad2)*
X139600000Y-141660000D03*
X146870000Y-136610000D03*
X140870000Y-136610000D03*
D46*
G04 #@! TO.N,+12V*
X179725000Y-134925000D03*
X170150000Y-134867540D03*
G04 #@! TO.N,+3V3*
X141690000Y-107550000D03*
G04 #@! TO.N,DISP_RESET*
X138780000Y-96510000D03*
G04 #@! TD*
D48*
G04 #@! TO.N,Net-(BT1-Pad1)*
X142100001Y-55382221D02*
X142100001Y-54159999D01*
X133032212Y-64450010D02*
X142100001Y-55382221D01*
X132035988Y-64450010D02*
X133032212Y-64450010D01*
X130910000Y-65575998D02*
X132035988Y-64450010D01*
X142100001Y-54159999D02*
X143100000Y-53160000D01*
X130910000Y-71325000D02*
X130910000Y-65575998D01*
G04 #@! TO.N,+5V*
X132180000Y-61020000D02*
X132180000Y-62200000D01*
X130940000Y-59780000D02*
X132180000Y-61020000D01*
X130940000Y-59780000D02*
X132000000Y-59780000D01*
X132000000Y-59780000D02*
X133480000Y-58300000D01*
D49*
X148490000Y-106070000D02*
X145360000Y-109200000D01*
D48*
X134450000Y-74930000D02*
X134450000Y-74430000D01*
X134450000Y-74430000D02*
X134450000Y-73930000D01*
X134450000Y-73930000D02*
X134450000Y-73430000D01*
X134450000Y-73430000D02*
X134450000Y-72430000D01*
D50*
X140780000Y-109200000D02*
X145360000Y-109200000D01*
D49*
X124880000Y-119640000D02*
X124740000Y-119780000D01*
X124880000Y-118140000D02*
X124880000Y-119640000D01*
X124880000Y-116370000D02*
X124490000Y-115980000D01*
X124880000Y-118140000D02*
X124880000Y-116370000D01*
D51*
X124490000Y-114180000D02*
X126340000Y-112330000D01*
X124490000Y-115980000D02*
X124490000Y-114180000D01*
X137650000Y-112330000D02*
X140780000Y-109200000D01*
X126340000Y-112330000D02*
X137650000Y-112330000D01*
D48*
X174980000Y-59410000D02*
X175500000Y-59930000D01*
X174980000Y-53160000D02*
X174980000Y-59410000D01*
D50*
X150860000Y-93960000D02*
X153470000Y-93960000D01*
X149690000Y-95130000D02*
X150860000Y-93960000D01*
X145360000Y-109200000D02*
X149690000Y-104870000D01*
X149690000Y-104870000D02*
X149690000Y-95130000D01*
D48*
G04 #@! TO.N,GND*
X128370000Y-60850000D02*
X128370000Y-62200000D01*
X129440000Y-59780000D02*
X128370000Y-60850000D01*
X126330000Y-96320014D02*
X123720014Y-96320014D01*
X123930000Y-94920018D02*
X123929982Y-94920000D01*
X126330000Y-94920018D02*
X123930000Y-94920018D01*
G04 #@! TO.N,SCL*
X133490000Y-65440000D02*
X133490000Y-71285000D01*
X133450000Y-72537500D02*
X133450000Y-73379999D01*
X133450000Y-71325000D02*
X133450000Y-72537500D01*
X135640000Y-89320000D02*
X145360000Y-99040000D01*
X135640000Y-72100000D02*
X135640000Y-89320000D01*
X133450000Y-71325000D02*
X134865000Y-71325000D01*
X134865000Y-71325000D02*
X135640000Y-72100000D01*
X126330000Y-89320034D02*
X128690034Y-89320034D01*
X128690034Y-89320034D02*
X128700000Y-89330000D01*
G04 #@! TO.N,SDA*
X132210000Y-65460000D02*
X132210000Y-71295000D01*
X132879999Y-74980001D02*
X133450000Y-74980001D01*
X132180000Y-74280002D02*
X132879999Y-74980001D01*
X132180000Y-71325000D02*
X132180000Y-74280002D01*
X145360000Y-101580000D02*
X134770000Y-90990000D01*
X134770000Y-76790000D02*
X133450000Y-75470000D01*
X134770000Y-90990000D02*
X134770000Y-76790000D01*
X133450000Y-75470000D02*
X133450000Y-74980001D01*
X131700038Y-87920038D02*
X126330000Y-87920038D01*
X134770000Y-90990000D02*
X131700038Y-87920038D01*
X126330000Y-87920038D02*
X126330000Y-88620036D01*
D52*
G04 #@! TO.N,Net-(D1-Pad2)*
X141630000Y-130210000D02*
X141630000Y-129250000D01*
G04 #@! TO.N,Net-(Q1-Pad3)*
X144170000Y-130210000D02*
X144170000Y-131210000D01*
D51*
G04 #@! TO.N,Net-(R2-Pad2)*
X133290000Y-143830000D02*
X135460000Y-141660000D01*
X135460000Y-141660000D02*
X139600000Y-141660000D01*
X146870000Y-136610000D02*
X149212000Y-136610000D01*
X149212000Y-136610000D02*
X151606000Y-134216000D01*
X138690000Y-136594000D02*
X140854000Y-136594000D01*
X140854000Y-136594000D02*
X140870000Y-136610000D01*
G04 #@! TO.N,Net-(R3-Pad1)*
X138370000Y-143830000D02*
X141210000Y-143830000D01*
X141210000Y-143830000D02*
X141720000Y-143320000D01*
X135830000Y-143830000D02*
X138370000Y-143830000D01*
D48*
G04 #@! TO.N,BUTTON_3*
X160600000Y-104120000D02*
X162560000Y-104120000D01*
X162560000Y-104120000D02*
X166090000Y-100590000D01*
X166090000Y-77365000D02*
X168670000Y-74785000D01*
X166090000Y-100590000D02*
X166090000Y-77365000D01*
G04 #@! TO.N,BUTTON_2*
X160600000Y-106660000D02*
X165400000Y-106660000D01*
X168670000Y-103390000D02*
X168670000Y-93785000D01*
X165400000Y-106660000D02*
X168670000Y-103390000D01*
G04 #@! TO.N,BUTTON_1*
X165085000Y-109200000D02*
X160600000Y-109200000D01*
X168670000Y-112785000D02*
X165085000Y-109200000D01*
D51*
G04 #@! TO.N,SHIFT_LATCH_CLOCK*
X140860000Y-71100000D02*
X145360000Y-71100000D01*
G04 #@! TO.N,SHIFT_SERIAL_CLOCK*
X145360000Y-68560000D02*
X140860000Y-68560000D01*
G04 #@! TO.N,SHIFT_SER_OUT*
X140860000Y-66020000D02*
X145360000Y-66020000D01*
D49*
G04 #@! TO.N,Net-(R4-Pad2)*
X123380000Y-118140000D02*
X122200000Y-118140000D01*
D51*
G04 #@! TO.N,+12V*
X126790000Y-117780000D02*
X126790000Y-115980000D01*
X125940000Y-121370000D02*
X126790000Y-120520000D01*
X126790000Y-120520000D02*
X126790000Y-117780000D01*
X124740000Y-121370000D02*
X125940000Y-121370000D01*
D48*
X168657460Y-134867540D02*
X168550000Y-134975000D01*
X180200000Y-134900000D02*
X179750000Y-134900000D01*
X179750000Y-134900000D02*
X179725000Y-134925000D01*
X171377520Y-134867540D02*
X170150000Y-134867540D01*
X170150000Y-134867540D02*
X168657460Y-134867540D01*
D49*
X168550000Y-134975000D02*
X168550000Y-133325000D01*
X156595000Y-121370000D02*
X125940000Y-121370000D01*
X168550000Y-133325000D02*
X156595000Y-121370000D01*
D51*
X122132000Y-125153000D02*
X122132000Y-129898000D01*
X124740000Y-121370000D02*
X124740000Y-122545000D01*
X124740000Y-122545000D02*
X122132000Y-125153000D01*
D48*
G04 #@! TO.N,DHT*
X173850000Y-64120000D02*
X178040000Y-59930000D01*
X164600000Y-64120000D02*
X173850000Y-64120000D01*
X163100000Y-65620000D02*
X164600000Y-64120000D01*
X163100000Y-78760000D02*
X163100000Y-65620000D01*
X160600000Y-81260000D02*
X163100000Y-78760000D01*
G04 #@! TO.N,Net-(P5-Pad1)*
X121390000Y-65260000D02*
X121390000Y-66510000D01*
X122800000Y-63850000D02*
X121390000Y-65260000D01*
X132312780Y-63850000D02*
X122800000Y-63850000D01*
X133450000Y-62712780D02*
X132312780Y-63850000D01*
X133450000Y-62200000D02*
X133450000Y-62712780D01*
G04 #@! TO.N,BUZZER*
X147690000Y-76390000D02*
X145360000Y-78720000D01*
X147690000Y-64650000D02*
X147690000Y-76390000D01*
X150620000Y-61720000D02*
X159580000Y-61720000D01*
X147690000Y-64650000D02*
X150620000Y-61720000D01*
X170370001Y-56859999D02*
X171270000Y-55960000D01*
X160230001Y-62570001D02*
X164659999Y-62570001D01*
X159580000Y-61920000D02*
X160230001Y-62570001D01*
X164659999Y-62570001D02*
X170370001Y-56859999D01*
X159580000Y-61720000D02*
X159580000Y-61920000D01*
D51*
G04 #@! TO.N,SHIFT_CLEAR*
X140860000Y-76180000D02*
X145360000Y-76180000D01*
G04 #@! TO.N,SHIFT_OUT_ENABLE*
X145360000Y-73640000D02*
X140860000Y-73640000D01*
D49*
G04 #@! TO.N,SCL2*
X160600000Y-78720000D02*
X155610000Y-83710000D01*
X155610000Y-86740000D02*
X153470000Y-88880000D01*
X155610000Y-83710000D02*
X155610000Y-86740000D01*
G04 #@! TO.N,SDA2*
X153470000Y-83310000D02*
X153470000Y-86340000D01*
X160600000Y-76180000D02*
X153470000Y-83310000D01*
D51*
G04 #@! TO.N,+3V3*
X174075000Y-124725000D02*
X178250000Y-128900000D01*
X173325000Y-124725000D02*
X174075000Y-124725000D01*
D48*
X177050000Y-128900000D02*
X175150000Y-130800000D01*
X178250000Y-128900000D02*
X177050000Y-128900000D01*
X174125000Y-138080000D02*
X174125000Y-139230000D01*
X175150000Y-137055000D02*
X174125000Y-138080000D01*
X175150000Y-130800000D02*
X175150000Y-137055000D01*
X172725000Y-140630000D02*
X174125000Y-139230000D01*
X172725000Y-142470000D02*
X172725000Y-140630000D01*
X130529984Y-95620016D02*
X130580000Y-95570000D01*
X126330000Y-95620016D02*
X130529984Y-95620016D01*
X130580000Y-97000000D02*
X130590000Y-97010000D01*
X130580000Y-95570000D02*
X130580000Y-97000000D01*
X129879990Y-97720010D02*
X130590000Y-97010000D01*
X126330000Y-97720010D02*
X129879990Y-97720010D01*
X130580000Y-94795000D02*
X130580000Y-95570000D01*
X126330000Y-94220020D02*
X130005020Y-94220020D01*
D49*
X171625000Y-124725000D02*
X165160000Y-118260000D01*
X173325000Y-124725000D02*
X171625000Y-124725000D01*
X149340000Y-118260000D02*
X145360000Y-114280000D01*
X165160000Y-118260000D02*
X149340000Y-118260000D01*
X132710002Y-94525000D02*
X130310000Y-94525000D01*
X141690000Y-103504998D02*
X132710002Y-94525000D01*
D48*
X130005020Y-94220020D02*
X130310000Y-94525000D01*
D49*
X141690000Y-107550000D02*
X141690000Y-103504998D01*
D48*
X130310000Y-94525000D02*
X130580000Y-94795000D01*
G04 #@! TO.N,Net-(C12-Pad1)*
X129449946Y-82320054D02*
X129800000Y-81970000D01*
X126330000Y-82320054D02*
X129449946Y-82320054D01*
G04 #@! TO.N,Net-(C14-Pad1)*
X130470052Y-83020052D02*
X131240000Y-83790000D01*
X126330000Y-83020052D02*
X130470052Y-83020052D01*
G04 #@! TO.N,Net-(C15-Pad1)*
X130480000Y-101675000D02*
X130480000Y-101700000D01*
X129705000Y-100900000D02*
X130480000Y-101675000D01*
X129556458Y-100900000D02*
X129705000Y-100900000D01*
X129176460Y-100520002D02*
X129556458Y-100900000D01*
X126330000Y-100520002D02*
X129176460Y-100520002D01*
G04 #@! TO.N,Net-(C15-Pad2)*
X128730000Y-99820004D02*
X126330000Y-99820004D01*
X129325004Y-99820004D02*
X128730000Y-99820004D01*
X129705000Y-100200000D02*
X129325004Y-99820004D01*
X130480000Y-100200000D02*
X129705000Y-100200000D01*
G04 #@! TO.N,Net-(C16-Pad1)*
X128730000Y-99120006D02*
X126330000Y-99120006D01*
X131215006Y-99120006D02*
X128730000Y-99120006D01*
X132080000Y-99985000D02*
X131215006Y-99120006D01*
X132080000Y-100010000D02*
X132080000Y-99985000D01*
G04 #@! TO.N,Net-(C16-Pad2)*
X131453542Y-98510000D02*
X132080000Y-98510000D01*
X131363550Y-98420008D02*
X131453542Y-98510000D01*
X126330000Y-98420008D02*
X131363550Y-98420008D01*
D49*
G04 #@! TO.N,Net-(C20-Pad2)*
X178677460Y-133597540D02*
X178850000Y-133425000D01*
X176772480Y-133597540D02*
X178677460Y-133597540D01*
G04 #@! TO.N,Net-(C21-Pad2)*
X171377520Y-132647480D02*
X171800000Y-132225000D01*
X171377520Y-133597540D02*
X171377520Y-132647480D01*
G04 #@! TO.N,Net-(C21-Pad1)*
X173300000Y-133200000D02*
X173300000Y-132225000D01*
X173300000Y-135584680D02*
X173300000Y-133200000D01*
X172752220Y-136132460D02*
X173300000Y-135584680D01*
X171377520Y-136132460D02*
X172752220Y-136132460D01*
X173300000Y-129850000D02*
X173325000Y-129825000D01*
X173300000Y-132225000D02*
X173300000Y-129850000D01*
D48*
G04 #@! TO.N,Net-(C22-Pad2)*
X178607460Y-136132460D02*
X178850000Y-136375000D01*
X176772480Y-136132460D02*
X178607460Y-136132460D01*
G04 #@! TO.N,Net-(C22-Pad1)*
X180200000Y-136525000D02*
X180350000Y-136375000D01*
X180200000Y-137825000D02*
X180200000Y-136525000D01*
G04 #@! TO.N,DISP_RESET*
X134390026Y-92120026D02*
X126330000Y-92120026D01*
X138780000Y-96510000D02*
X134390026Y-92120026D01*
G04 #@! TO.N,Net-(R6-Pad1)*
X129340050Y-83720050D02*
X129800000Y-84180000D01*
X126330000Y-83720050D02*
X129340050Y-83720050D01*
G04 #@! TO.N,Net-(R9-Pad1)*
X178667540Y-134867540D02*
X178700000Y-134900000D01*
X176772480Y-134867540D02*
X178667540Y-134867540D01*
G04 #@! TO.N,Net-(R11-Pad2)*
X176525000Y-142470000D02*
X175525000Y-142470000D01*
X177125000Y-141870000D02*
X176525000Y-142470000D01*
X177125000Y-139375000D02*
X177125000Y-141870000D01*
X177125000Y-137754980D02*
X176772480Y-137402460D01*
X177125000Y-139375000D02*
X177125000Y-137754980D01*
G04 #@! TO.N,Net-(BZ1-Pad2)*
X163189000Y-57951000D02*
X167980000Y-53160000D01*
X161086000Y-57951000D02*
X163189000Y-57951000D01*
G04 #@! TO.N,Net-(Q2-Pad1)*
X161080000Y-59735000D02*
X161086000Y-59729000D01*
X161080000Y-61720000D02*
X161080000Y-59735000D01*
G04 #@! TD*
D53*
G04 #@! TO.N,Net-(D1-Pad2)*
G36*
X142436065Y-124059457D02*
X142520756Y-124262735D01*
X142535058Y-130145852D01*
X142517106Y-130247448D01*
X142358310Y-130679496D01*
X142213144Y-130840836D01*
X141772291Y-131057972D01*
X141541049Y-131069604D01*
X141078095Y-130896861D01*
X140948158Y-130800662D01*
X140685000Y-130456891D01*
X140685000Y-129410000D01*
X140645798Y-129212918D01*
X140557930Y-129000786D01*
X140543736Y-128979543D01*
X140544096Y-128859977D01*
X140542972Y-128854234D01*
X140455767Y-128641862D01*
X140452530Y-128636986D01*
X140447675Y-128633720D01*
X140235852Y-128545189D01*
X140230117Y-128544029D01*
X137741020Y-128535974D01*
X137735264Y-128537102D01*
X137522504Y-128624625D01*
X137517630Y-128627865D01*
X137514357Y-128632746D01*
X137426146Y-128845221D01*
X137425000Y-128850972D01*
X137425000Y-132457752D01*
X132105540Y-132464792D01*
X132114664Y-124272381D01*
X132199031Y-124069047D01*
X132402378Y-123984715D01*
X142232500Y-123975450D01*
X142436065Y-124059457D01*
X142436065Y-124059457D01*
G37*
X142436065Y-124059457D02*
X142520756Y-124262735D01*
X142535058Y-130145852D01*
X142517106Y-130247448D01*
X142358310Y-130679496D01*
X142213144Y-130840836D01*
X141772291Y-131057972D01*
X141541049Y-131069604D01*
X141078095Y-130896861D01*
X140948158Y-130800662D01*
X140685000Y-130456891D01*
X140685000Y-129410000D01*
X140645798Y-129212918D01*
X140557930Y-129000786D01*
X140543736Y-128979543D01*
X140544096Y-128859977D01*
X140542972Y-128854234D01*
X140455767Y-128641862D01*
X140452530Y-128636986D01*
X140447675Y-128633720D01*
X140235852Y-128545189D01*
X140230117Y-128544029D01*
X137741020Y-128535974D01*
X137735264Y-128537102D01*
X137522504Y-128624625D01*
X137517630Y-128627865D01*
X137514357Y-128632746D01*
X137426146Y-128845221D01*
X137425000Y-128850972D01*
X137425000Y-132457752D01*
X132105540Y-132464792D01*
X132114664Y-124272381D01*
X132199031Y-124069047D01*
X132402378Y-123984715D01*
X142232500Y-123975450D01*
X142436065Y-124059457D01*
G04 #@! TO.N,Net-(Q1-Pad3)*
G36*
X145000867Y-130292402D02*
X145099429Y-130463075D01*
X145611487Y-133364743D01*
X145613269Y-133369637D01*
X145715884Y-133547328D01*
X145719744Y-133551728D01*
X145723744Y-133553923D01*
X145916564Y-133624096D01*
X145921694Y-133625000D01*
X147767017Y-133625000D01*
X147970652Y-133709348D01*
X148055000Y-133912983D01*
X148055000Y-134307017D01*
X147970652Y-134510652D01*
X147767017Y-134595000D01*
X144876214Y-134595000D01*
X144680607Y-134399393D01*
X144675740Y-134396142D01*
X144670000Y-134395000D01*
X142812983Y-134395000D01*
X142609348Y-134310652D01*
X142525000Y-134107017D01*
X142525000Y-133742996D01*
X142531660Y-133680935D01*
X143232792Y-130452037D01*
X143333548Y-130288826D01*
X143514417Y-130225000D01*
X144815660Y-130225000D01*
X145000867Y-130292402D01*
X145000867Y-130292402D01*
G37*
X145000867Y-130292402D02*
X145099429Y-130463075D01*
X145611487Y-133364743D01*
X145613269Y-133369637D01*
X145715884Y-133547328D01*
X145719744Y-133551728D01*
X145723744Y-133553923D01*
X145916564Y-133624096D01*
X145921694Y-133625000D01*
X147767017Y-133625000D01*
X147970652Y-133709348D01*
X148055000Y-133912983D01*
X148055000Y-134307017D01*
X147970652Y-134510652D01*
X147767017Y-134595000D01*
X144876214Y-134595000D01*
X144680607Y-134399393D01*
X144675740Y-134396142D01*
X144670000Y-134395000D01*
X142812983Y-134395000D01*
X142609348Y-134310652D01*
X142525000Y-134107017D01*
X142525000Y-133742996D01*
X142531660Y-133680935D01*
X143232792Y-130452037D01*
X143333548Y-130288826D01*
X143514417Y-130225000D01*
X144815660Y-130225000D01*
X145000867Y-130292402D01*
G04 #@! TO.N,Net-(Q1-Pad2)*
G36*
X140070652Y-129209348D02*
X140155000Y-129412983D01*
X140155000Y-134137017D01*
X140070652Y-134340652D01*
X139867017Y-134425000D01*
X139482612Y-134425000D01*
X139452000Y-134418911D01*
X138258283Y-134418911D01*
X138069348Y-134340652D01*
X137985000Y-134137017D01*
X137985000Y-129412983D01*
X138069348Y-129209348D01*
X138272983Y-129125000D01*
X139867017Y-129125000D01*
X140070652Y-129209348D01*
X140070652Y-129209348D01*
G37*
X140070652Y-129209348D02*
X140155000Y-129412983D01*
X140155000Y-134137017D01*
X140070652Y-134340652D01*
X139867017Y-134425000D01*
X139482612Y-134425000D01*
X139452000Y-134418911D01*
X138258283Y-134418911D01*
X138069348Y-134340652D01*
X137985000Y-134137017D01*
X137985000Y-129412983D01*
X138069348Y-129209348D01*
X138272983Y-129125000D01*
X139867017Y-129125000D01*
X140070652Y-129209348D01*
G04 #@! TO.N,Net-(C5-Pad1)*
G36*
X143970652Y-137609348D02*
X144055000Y-137812983D01*
X144055000Y-139907017D01*
X143970652Y-140110652D01*
X143767017Y-140195000D01*
X143272983Y-140195000D01*
X143069348Y-140110652D01*
X142985000Y-139907017D01*
X142985000Y-138516155D01*
X142984184Y-138511274D01*
X142928262Y-138348782D01*
X142925314Y-138343725D01*
X142922254Y-138341087D01*
X142638426Y-138156575D01*
X142585000Y-138001335D01*
X142585000Y-137812983D01*
X142669348Y-137609348D01*
X142872983Y-137525000D01*
X143767017Y-137525000D01*
X143970652Y-137609348D01*
X143970652Y-137609348D01*
G37*
X143970652Y-137609348D02*
X144055000Y-137812983D01*
X144055000Y-139907017D01*
X143970652Y-140110652D01*
X143767017Y-140195000D01*
X143272983Y-140195000D01*
X143069348Y-140110652D01*
X142985000Y-139907017D01*
X142985000Y-138516155D01*
X142984184Y-138511274D01*
X142928262Y-138348782D01*
X142925314Y-138343725D01*
X142922254Y-138341087D01*
X142638426Y-138156575D01*
X142585000Y-138001335D01*
X142585000Y-137812983D01*
X142669348Y-137609348D01*
X142872983Y-137525000D01*
X143767017Y-137525000D01*
X143970652Y-137609348D01*
G04 #@! TO.N,Net-(C6-Pad1)*
G36*
X154283141Y-124070232D02*
X154460414Y-124247059D01*
X154526260Y-124490753D01*
X154543742Y-131440022D01*
X154544263Y-131443903D01*
X154611882Y-131693739D01*
X154615781Y-131700453D01*
X154799261Y-131883005D01*
X154805996Y-131886871D01*
X155056171Y-131953223D01*
X155060054Y-131953724D01*
X157977820Y-131946281D01*
X158222263Y-132011133D01*
X158400054Y-132188107D01*
X158466033Y-132432254D01*
X158474423Y-136509843D01*
X158413266Y-136747501D01*
X158244255Y-136925421D01*
X153147686Y-140100483D01*
X153144747Y-140102879D01*
X152971985Y-140284561D01*
X152968334Y-140291136D01*
X152905479Y-140533838D01*
X152905000Y-140537599D01*
X152905000Y-143228025D01*
X152839565Y-143472234D01*
X152662234Y-143649565D01*
X152418025Y-143715000D01*
X150281975Y-143715000D01*
X150037766Y-143649565D01*
X149860435Y-143472234D01*
X149795000Y-143228025D01*
X149795000Y-139712691D01*
X149942218Y-139361624D01*
X153100961Y-136257658D01*
X153104281Y-136252760D01*
X153253833Y-135896128D01*
X153255000Y-135890327D01*
X153255000Y-132537495D01*
X153254606Y-132534078D01*
X153202714Y-132312269D01*
X153199682Y-132306144D01*
X153054777Y-132130375D01*
X153052299Y-132127990D01*
X151474988Y-130925091D01*
X151330142Y-130746615D01*
X151282956Y-130521649D01*
X151299135Y-129995838D01*
X151298726Y-129991867D01*
X151237011Y-129735421D01*
X151233195Y-129728489D01*
X151049573Y-129539131D01*
X151042762Y-129535104D01*
X150788336Y-129465531D01*
X150784379Y-129465000D01*
X146790412Y-129465000D01*
X146790100Y-129465003D01*
X146769285Y-129465436D01*
X146768972Y-129465446D01*
X146665760Y-129469747D01*
X146554770Y-129363479D01*
X146545175Y-124086194D01*
X146626221Y-124005000D01*
X154039283Y-124005000D01*
X154283141Y-124070232D01*
X154283141Y-124070232D01*
G37*
X154283141Y-124070232D02*
X154460414Y-124247059D01*
X154526260Y-124490753D01*
X154543742Y-131440022D01*
X154544263Y-131443903D01*
X154611882Y-131693739D01*
X154615781Y-131700453D01*
X154799261Y-131883005D01*
X154805996Y-131886871D01*
X155056171Y-131953223D01*
X155060054Y-131953724D01*
X157977820Y-131946281D01*
X158222263Y-132011133D01*
X158400054Y-132188107D01*
X158466033Y-132432254D01*
X158474423Y-136509843D01*
X158413266Y-136747501D01*
X158244255Y-136925421D01*
X153147686Y-140100483D01*
X153144747Y-140102879D01*
X152971985Y-140284561D01*
X152968334Y-140291136D01*
X152905479Y-140533838D01*
X152905000Y-140537599D01*
X152905000Y-143228025D01*
X152839565Y-143472234D01*
X152662234Y-143649565D01*
X152418025Y-143715000D01*
X150281975Y-143715000D01*
X150037766Y-143649565D01*
X149860435Y-143472234D01*
X149795000Y-143228025D01*
X149795000Y-139712691D01*
X149942218Y-139361624D01*
X153100961Y-136257658D01*
X153104281Y-136252760D01*
X153253833Y-135896128D01*
X153255000Y-135890327D01*
X153255000Y-132537495D01*
X153254606Y-132534078D01*
X153202714Y-132312269D01*
X153199682Y-132306144D01*
X153054777Y-132130375D01*
X153052299Y-132127990D01*
X151474988Y-130925091D01*
X151330142Y-130746615D01*
X151282956Y-130521649D01*
X151299135Y-129995838D01*
X151298726Y-129991867D01*
X151237011Y-129735421D01*
X151233195Y-129728489D01*
X151049573Y-129539131D01*
X151042762Y-129535104D01*
X150788336Y-129465531D01*
X150784379Y-129465000D01*
X146790412Y-129465000D01*
X146790100Y-129465003D01*
X146769285Y-129465436D01*
X146768972Y-129465446D01*
X146665760Y-129469747D01*
X146554770Y-129363479D01*
X146545175Y-124086194D01*
X146626221Y-124005000D01*
X154039283Y-124005000D01*
X154283141Y-124070232D01*
D54*
G04 #@! TO.N,GND*
G36*
X146123207Y-123673785D02*
X145998534Y-123860923D01*
X145955165Y-124081045D01*
X145964783Y-129370941D01*
X146013457Y-129601429D01*
X146142125Y-129785220D01*
X146262343Y-129900324D01*
X146462265Y-130024932D01*
X146683940Y-130059501D01*
X146787510Y-130055185D01*
X146796410Y-130055000D01*
X150707035Y-130055000D01*
X150693180Y-130505294D01*
X150705154Y-130641014D01*
X150753452Y-130871283D01*
X150869738Y-131115588D01*
X151018001Y-131298274D01*
X151115785Y-131393147D01*
X152084212Y-132131695D01*
X151106000Y-132131695D01*
X150920665Y-132168561D01*
X150763545Y-132273545D01*
X150658561Y-132430665D01*
X150621695Y-132616000D01*
X150621695Y-133962869D01*
X148849564Y-135735000D01*
X147305360Y-135735000D01*
X147063939Y-135635000D01*
X146676061Y-135635000D01*
X146317707Y-135783435D01*
X146043435Y-136057707D01*
X145895000Y-136416061D01*
X145895000Y-136803939D01*
X146043435Y-137162293D01*
X146317707Y-137436565D01*
X146676061Y-137585000D01*
X147063939Y-137585000D01*
X147305360Y-137485000D01*
X149125822Y-137485000D01*
X149212000Y-137502142D01*
X149298178Y-137485000D01*
X149298179Y-137485000D01*
X149553408Y-137434232D01*
X149842840Y-137240840D01*
X149891659Y-137167777D01*
X150845932Y-136213504D01*
X150920665Y-136263439D01*
X151106000Y-136300305D01*
X152106000Y-136300305D01*
X152243643Y-136272926D01*
X149526537Y-138942914D01*
X149399288Y-139130677D01*
X149249736Y-139487309D01*
X149205000Y-139709673D01*
X149205000Y-143230000D01*
X149224592Y-143378820D01*
X149291579Y-143628820D01*
X149440401Y-143886586D01*
X149623414Y-144069599D01*
X149881180Y-144218421D01*
X150131180Y-144285408D01*
X150280000Y-144305000D01*
X152420000Y-144305000D01*
X152568820Y-144285408D01*
X152818820Y-144218421D01*
X153076586Y-144069599D01*
X153259599Y-143886586D01*
X153408421Y-143628820D01*
X153414227Y-143607148D01*
X180025000Y-143607148D01*
X180025000Y-144392852D01*
X180325675Y-145118748D01*
X180881252Y-145674325D01*
X181607148Y-145975000D01*
X182392852Y-145975000D01*
X183118748Y-145674325D01*
X183674325Y-145118748D01*
X183975000Y-144392852D01*
X183975000Y-143607148D01*
X183674325Y-142881252D01*
X183118748Y-142325675D01*
X182392852Y-142025000D01*
X181607148Y-142025000D01*
X180881252Y-142325675D01*
X180325675Y-142881252D01*
X180025000Y-143607148D01*
X153414227Y-143607148D01*
X153475408Y-143378820D01*
X153495000Y-143230000D01*
X153495000Y-140610848D01*
X153502157Y-140583213D01*
X153521829Y-140562525D01*
X157154007Y-138299750D01*
X166717000Y-138299750D01*
X166717000Y-138590966D01*
X166805756Y-138805243D01*
X166969757Y-138969244D01*
X167184034Y-139058000D01*
X168225250Y-139058000D01*
X168371000Y-138912250D01*
X168371000Y-138154000D01*
X166862750Y-138154000D01*
X166717000Y-138299750D01*
X157154007Y-138299750D01*
X158557851Y-137425183D01*
X158638967Y-137359034D01*
X166717000Y-137359034D01*
X166717000Y-137650250D01*
X166862750Y-137796000D01*
X168371000Y-137796000D01*
X168371000Y-137037750D01*
X168225250Y-136892000D01*
X167184034Y-136892000D01*
X166969757Y-136980756D01*
X166805756Y-137144757D01*
X166717000Y-137359034D01*
X158638967Y-137359034D01*
X158670701Y-137333156D01*
X158843713Y-137151024D01*
X158983681Y-136898306D01*
X159046285Y-136655025D01*
X159064426Y-136510545D01*
X159056028Y-132429063D01*
X159036117Y-132280237D01*
X158968574Y-132030304D01*
X158819135Y-131772792D01*
X158635645Y-131590145D01*
X158377445Y-131441893D01*
X158127204Y-131375503D01*
X157978288Y-131356278D01*
X155134249Y-131363533D01*
X155133699Y-131363387D01*
X155133550Y-131362836D01*
X155116253Y-124487295D01*
X155096349Y-124338756D01*
X155028943Y-124089288D01*
X154879923Y-123832176D01*
X154696967Y-123649680D01*
X154654137Y-123625000D01*
X157753985Y-123625000D01*
X167775001Y-133646017D01*
X167775001Y-133990695D01*
X167300000Y-133990695D01*
X167114665Y-134027561D01*
X166957545Y-134132545D01*
X166852561Y-134289665D01*
X166815695Y-134475000D01*
X166815695Y-135475000D01*
X166852561Y-135660335D01*
X166957545Y-135817455D01*
X167114665Y-135922439D01*
X167300000Y-135959305D01*
X169800000Y-135959305D01*
X169985335Y-135922439D01*
X170118515Y-135833451D01*
X170118515Y-136432180D01*
X170155381Y-136617515D01*
X170198711Y-136682362D01*
X170108576Y-136772497D01*
X170038119Y-136942597D01*
X169915966Y-136892000D01*
X168874750Y-136892000D01*
X168729000Y-137037750D01*
X168729000Y-137796000D01*
X168749000Y-137796000D01*
X168749000Y-138154000D01*
X168729000Y-138154000D01*
X168729000Y-138912250D01*
X168874750Y-139058000D01*
X169915966Y-139058000D01*
X170130243Y-138969244D01*
X170294244Y-138805243D01*
X170383000Y-138590966D01*
X170383000Y-138299750D01*
X170284692Y-138201442D01*
X170486854Y-138285180D01*
X171052770Y-138285180D01*
X171198520Y-138139430D01*
X171198520Y-137552320D01*
X171556520Y-137552320D01*
X171556520Y-138139430D01*
X171702270Y-138285180D01*
X172268186Y-138285180D01*
X172482463Y-138196424D01*
X172646464Y-138032423D01*
X172735220Y-137818146D01*
X172735220Y-137698070D01*
X172589470Y-137552320D01*
X171556520Y-137552320D01*
X171198520Y-137552320D01*
X171178520Y-137552320D01*
X171178520Y-137252600D01*
X171198520Y-137252600D01*
X171198520Y-137203460D01*
X171556520Y-137203460D01*
X171556520Y-137252600D01*
X172589470Y-137252600D01*
X172735220Y-137106850D01*
X172735220Y-136986774D01*
X172704745Y-136913200D01*
X172752220Y-136922643D01*
X172828550Y-136907460D01*
X173054610Y-136862494D01*
X173310964Y-136691204D01*
X173354203Y-136626492D01*
X173794035Y-136186661D01*
X173858744Y-136143424D01*
X174030034Y-135887070D01*
X174069875Y-135686776D01*
X174090183Y-135584680D01*
X174075000Y-135508350D01*
X174075000Y-132893748D01*
X174147439Y-132785335D01*
X174184305Y-132600000D01*
X174184305Y-131850000D01*
X174147439Y-131664665D01*
X174143858Y-131659305D01*
X174425000Y-131659305D01*
X174475000Y-131649359D01*
X174475001Y-136775405D01*
X173694714Y-137555693D01*
X173638352Y-137593353D01*
X173510298Y-137785000D01*
X173489164Y-137816629D01*
X173453545Y-137995695D01*
X173325000Y-137995695D01*
X173139665Y-138032561D01*
X172982545Y-138137545D01*
X172877561Y-138294665D01*
X172840695Y-138480000D01*
X172840695Y-139559712D01*
X172294714Y-140105693D01*
X172238353Y-140143352D01*
X172200694Y-140199713D01*
X172089164Y-140366629D01*
X172036776Y-140630000D01*
X172050001Y-140696486D01*
X172050001Y-141400614D01*
X171939665Y-141422561D01*
X171782545Y-141527545D01*
X171677561Y-141684665D01*
X171640695Y-141870000D01*
X171640695Y-143070000D01*
X171677561Y-143255335D01*
X171782545Y-143412455D01*
X171939665Y-143517439D01*
X172125000Y-143554305D01*
X173325000Y-143554305D01*
X173510335Y-143517439D01*
X173667455Y-143412455D01*
X173772439Y-143255335D01*
X173809305Y-143070000D01*
X173809305Y-141870000D01*
X173772439Y-141684665D01*
X173667455Y-141527545D01*
X173510335Y-141422561D01*
X173400000Y-141400614D01*
X173400000Y-140909593D01*
X173845288Y-140464305D01*
X174925000Y-140464305D01*
X175110335Y-140427439D01*
X175267455Y-140322455D01*
X175372439Y-140165335D01*
X175409305Y-139980000D01*
X175409305Y-138480000D01*
X175372439Y-138294665D01*
X175267455Y-138137545D01*
X175120344Y-138039249D01*
X175513475Y-137646119D01*
X175513475Y-137702180D01*
X175550341Y-137887515D01*
X175655325Y-138044635D01*
X175812445Y-138149619D01*
X175997780Y-138186485D01*
X176450001Y-138186485D01*
X176450000Y-138706082D01*
X176427561Y-138739665D01*
X176390695Y-138925000D01*
X176390695Y-139825000D01*
X176427561Y-140010335D01*
X176450000Y-140043918D01*
X176450001Y-141515883D01*
X176310335Y-141422561D01*
X176125000Y-141385695D01*
X174925000Y-141385695D01*
X174739665Y-141422561D01*
X174582545Y-141527545D01*
X174477561Y-141684665D01*
X174440695Y-141870000D01*
X174440695Y-143070000D01*
X174477561Y-143255335D01*
X174582545Y-143412455D01*
X174739665Y-143517439D01*
X174925000Y-143554305D01*
X176125000Y-143554305D01*
X176310335Y-143517439D01*
X176467455Y-143412455D01*
X176572439Y-143255335D01*
X176594506Y-143144398D01*
X176788372Y-143105836D01*
X177011648Y-142956648D01*
X177049309Y-142900284D01*
X177555289Y-142394306D01*
X177611648Y-142356648D01*
X177655620Y-142290840D01*
X177666650Y-142274331D01*
X177760836Y-142133372D01*
X177800000Y-141936481D01*
X177813224Y-141870001D01*
X177800000Y-141803521D01*
X177800000Y-140043917D01*
X177821386Y-140011911D01*
X177880756Y-140155243D01*
X178044757Y-140319244D01*
X178259034Y-140408000D01*
X178354250Y-140408000D01*
X178500000Y-140262250D01*
X178500000Y-139554000D01*
X178750000Y-139554000D01*
X178750000Y-140262250D01*
X178895750Y-140408000D01*
X178990966Y-140408000D01*
X179205243Y-140319244D01*
X179369244Y-140155243D01*
X179458000Y-139940966D01*
X179458000Y-139699750D01*
X179312250Y-139554000D01*
X178750000Y-139554000D01*
X178500000Y-139554000D01*
X178426000Y-139554000D01*
X178426000Y-139196000D01*
X178500000Y-139196000D01*
X178500000Y-138787250D01*
X178575000Y-138712250D01*
X178575000Y-138004000D01*
X178501000Y-138004000D01*
X178501000Y-137646000D01*
X178575000Y-137646000D01*
X178575000Y-137626000D01*
X178825000Y-137626000D01*
X178825000Y-137646000D01*
X178899000Y-137646000D01*
X178899000Y-138004000D01*
X178825000Y-138004000D01*
X178825000Y-138412750D01*
X178750000Y-138487750D01*
X178750000Y-139196000D01*
X179312250Y-139196000D01*
X179458000Y-139050250D01*
X179458000Y-138809034D01*
X179394282Y-138655205D01*
X179444244Y-138605243D01*
X179503614Y-138461911D01*
X179607545Y-138617455D01*
X179764665Y-138722439D01*
X179950000Y-138759305D01*
X180450000Y-138759305D01*
X180635335Y-138722439D01*
X180792455Y-138617455D01*
X180897439Y-138460335D01*
X180934305Y-138275000D01*
X180934305Y-137375000D01*
X180900369Y-137204394D01*
X180935335Y-137197439D01*
X181092455Y-137092455D01*
X181197439Y-136935335D01*
X181234305Y-136750000D01*
X181234305Y-136000000D01*
X181197439Y-135814665D01*
X181092455Y-135657545D01*
X180935335Y-135552561D01*
X180891725Y-135543886D01*
X180897439Y-135535335D01*
X180934305Y-135350000D01*
X180934305Y-134450000D01*
X180916790Y-134361948D01*
X181080243Y-134294244D01*
X181244244Y-134130243D01*
X181333000Y-133915966D01*
X181333000Y-133749750D01*
X181187250Y-133604000D01*
X180529000Y-133604000D01*
X180529000Y-133624000D01*
X180171000Y-133624000D01*
X180171000Y-133604000D01*
X180151000Y-133604000D01*
X180151000Y-133246000D01*
X180171000Y-133246000D01*
X180171000Y-132612750D01*
X180529000Y-132612750D01*
X180529000Y-133246000D01*
X181187250Y-133246000D01*
X181333000Y-133100250D01*
X181333000Y-132934034D01*
X181244244Y-132719757D01*
X181080243Y-132555756D01*
X180865966Y-132467000D01*
X180674750Y-132467000D01*
X180529000Y-132612750D01*
X180171000Y-132612750D01*
X180025250Y-132467000D01*
X179834034Y-132467000D01*
X179619757Y-132555756D01*
X179614229Y-132561284D01*
X179633000Y-132515966D01*
X179633000Y-132224750D01*
X179487250Y-132079000D01*
X178429000Y-132079000D01*
X178429000Y-132099000D01*
X178071000Y-132099000D01*
X178071000Y-132079000D01*
X177012750Y-132079000D01*
X176867000Y-132224750D01*
X176867000Y-132515966D01*
X176955756Y-132730243D01*
X177039028Y-132813515D01*
X175997780Y-132813515D01*
X175825000Y-132847884D01*
X175825000Y-131284034D01*
X176867000Y-131284034D01*
X176867000Y-131575250D01*
X177012750Y-131721000D01*
X178071000Y-131721000D01*
X178071000Y-130962750D01*
X178429000Y-130962750D01*
X178429000Y-131721000D01*
X179487250Y-131721000D01*
X179633000Y-131575250D01*
X179633000Y-131284034D01*
X179544244Y-131069757D01*
X179380243Y-130905756D01*
X179165966Y-130817000D01*
X178574750Y-130817000D01*
X178429000Y-130962750D01*
X178071000Y-130962750D01*
X177925250Y-130817000D01*
X177334034Y-130817000D01*
X177119757Y-130905756D01*
X176955756Y-131069757D01*
X176867000Y-131284034D01*
X175825000Y-131284034D01*
X175825000Y-131079593D01*
X177140272Y-129764322D01*
X177264665Y-129847439D01*
X177450000Y-129884305D01*
X179050000Y-129884305D01*
X179235335Y-129847439D01*
X179392455Y-129742455D01*
X179497439Y-129585335D01*
X179534305Y-129400000D01*
X179534305Y-128400000D01*
X179497439Y-128214665D01*
X179392455Y-128057545D01*
X179235335Y-127952561D01*
X179050000Y-127915695D01*
X178503132Y-127915695D01*
X174909305Y-124321869D01*
X174909305Y-123625000D01*
X184450000Y-123625000D01*
X184450000Y-143968044D01*
X184380663Y-144562766D01*
X184187347Y-145095341D01*
X183876696Y-145569162D01*
X183465375Y-145958810D01*
X182975449Y-146243381D01*
X182425992Y-146409795D01*
X181975501Y-146450000D01*
X125932384Y-146450000D01*
X125895611Y-141182239D01*
X125953431Y-140960545D01*
X126107259Y-140804843D01*
X126328239Y-140744341D01*
X128577938Y-140732805D01*
X129249122Y-141211673D01*
X129343225Y-141263843D01*
X129525000Y-141300000D01*
X134582564Y-141300000D01*
X133289564Y-142593000D01*
X133043945Y-142593000D01*
X132589296Y-142781322D01*
X132241322Y-143129296D01*
X132053000Y-143583945D01*
X132053000Y-144076055D01*
X132241322Y-144530704D01*
X132589296Y-144878678D01*
X133043945Y-145067000D01*
X133536055Y-145067000D01*
X133990704Y-144878678D01*
X134338678Y-144530704D01*
X134527000Y-144076055D01*
X134527000Y-143830436D01*
X134593000Y-143764436D01*
X134593000Y-144076055D01*
X134781322Y-144530704D01*
X135129296Y-144878678D01*
X135583945Y-145067000D01*
X136076055Y-145067000D01*
X136530704Y-144878678D01*
X136704382Y-144705000D01*
X137495618Y-144705000D01*
X137669296Y-144878678D01*
X138123945Y-145067000D01*
X138616055Y-145067000D01*
X139070704Y-144878678D01*
X139244382Y-144705000D01*
X141123822Y-144705000D01*
X141210000Y-144722142D01*
X141296178Y-144705000D01*
X141296179Y-144705000D01*
X141551408Y-144654232D01*
X141840840Y-144460840D01*
X141889659Y-144387777D01*
X142236324Y-144041112D01*
X142355335Y-144017439D01*
X142512455Y-143912455D01*
X142617439Y-143755335D01*
X142654305Y-143570000D01*
X142654305Y-143070000D01*
X142617439Y-142884665D01*
X142512455Y-142727545D01*
X142355335Y-142622561D01*
X142207010Y-142593057D01*
X142061408Y-142495768D01*
X141720000Y-142427858D01*
X141378591Y-142495768D01*
X141232989Y-142593057D01*
X141084665Y-142622561D01*
X140927545Y-142727545D01*
X140822561Y-142884665D01*
X140808570Y-142955000D01*
X139244382Y-142955000D01*
X139070704Y-142781322D01*
X138616055Y-142593000D01*
X138123945Y-142593000D01*
X137669296Y-142781322D01*
X137495618Y-142955000D01*
X136704382Y-142955000D01*
X136530704Y-142781322D01*
X136076055Y-142593000D01*
X135764436Y-142593000D01*
X135822436Y-142535000D01*
X139164640Y-142535000D01*
X139406061Y-142635000D01*
X139793939Y-142635000D01*
X140152293Y-142486565D01*
X140426565Y-142212293D01*
X140575000Y-141853939D01*
X140575000Y-141466061D01*
X140426565Y-141107707D01*
X140152293Y-140833435D01*
X139793939Y-140685000D01*
X139406061Y-140685000D01*
X139300000Y-140728932D01*
X139300000Y-138875000D01*
X139263843Y-138693225D01*
X139160876Y-138539124D01*
X139006775Y-138436157D01*
X138825000Y-138400000D01*
X137075000Y-138400000D01*
X136893225Y-138436157D01*
X136739124Y-138539124D01*
X136636157Y-138693225D01*
X136609946Y-138825000D01*
X131100000Y-138825000D01*
X131100000Y-136375000D01*
X137443695Y-136375000D01*
X137443695Y-136974000D01*
X137480561Y-137159335D01*
X137585545Y-137316455D01*
X137742665Y-137421439D01*
X137928000Y-137458305D01*
X138550053Y-137458305D01*
X138603821Y-137469000D01*
X140396012Y-137469000D01*
X140676061Y-137585000D01*
X141063939Y-137585000D01*
X141307774Y-137484000D01*
X142043695Y-137484000D01*
X142043695Y-138244000D01*
X142080561Y-138429335D01*
X142185545Y-138586455D01*
X142342665Y-138691439D01*
X142528000Y-138728305D01*
X142574151Y-138728305D01*
X142566561Y-138739665D01*
X142529695Y-138925000D01*
X142529695Y-140175000D01*
X142566561Y-140360335D01*
X142671545Y-140517455D01*
X142828665Y-140622439D01*
X143014000Y-140659305D01*
X144014000Y-140659305D01*
X144199335Y-140622439D01*
X144356455Y-140517455D01*
X144461439Y-140360335D01*
X144498305Y-140175000D01*
X144498305Y-138925000D01*
X144461439Y-138739665D01*
X144369990Y-138602802D01*
X144394455Y-138586455D01*
X144499439Y-138429335D01*
X144536305Y-138244000D01*
X144536305Y-137484000D01*
X144499439Y-137298665D01*
X144394455Y-137141545D01*
X144237335Y-137036561D01*
X144052000Y-136999695D01*
X142528000Y-136999695D01*
X142342665Y-137036561D01*
X142185545Y-137141545D01*
X142080561Y-137298665D01*
X142043695Y-137484000D01*
X141307774Y-137484000D01*
X141422293Y-137436565D01*
X141696565Y-137162293D01*
X141845000Y-136803939D01*
X141845000Y-136416061D01*
X141696565Y-136057707D01*
X141422293Y-135783435D01*
X141063939Y-135635000D01*
X140676061Y-135635000D01*
X140473267Y-135719000D01*
X140125000Y-135719000D01*
X140125000Y-134956751D01*
X140302175Y-134883363D01*
X140488718Y-134758718D01*
X140613363Y-134572175D01*
X140701231Y-134360043D01*
X140745000Y-134140000D01*
X140745000Y-131381137D01*
X140869857Y-131448895D01*
X141337693Y-131623460D01*
X141567596Y-131659015D01*
X141805028Y-131647071D01*
X142030202Y-131588623D01*
X142424402Y-131394465D01*
X141954927Y-133556523D01*
X141945115Y-133617179D01*
X141938283Y-133680838D01*
X141935000Y-133742196D01*
X141935000Y-134110000D01*
X141978769Y-134330043D01*
X142063897Y-134535559D01*
X142080561Y-134619335D01*
X142185545Y-134776455D01*
X142342665Y-134881439D01*
X142528000Y-134918305D01*
X142534609Y-134918305D01*
X142589957Y-134941231D01*
X142810000Y-134985000D01*
X144431828Y-134985000D01*
X144463414Y-135016586D01*
X144649957Y-135141231D01*
X144870000Y-135185000D01*
X147770000Y-135185000D01*
X147990043Y-135141231D01*
X148134128Y-135081549D01*
X148255335Y-135057439D01*
X148412455Y-134952455D01*
X148517439Y-134795335D01*
X148541549Y-134674128D01*
X148601231Y-134530043D01*
X148645000Y-134310000D01*
X148645000Y-133910000D01*
X148601231Y-133689957D01*
X148541549Y-133545872D01*
X148517439Y-133424665D01*
X148412455Y-133267545D01*
X148255335Y-133162561D01*
X148134128Y-133138451D01*
X147990043Y-133078769D01*
X147770000Y-133035000D01*
X146152414Y-133035000D01*
X145679992Y-130357938D01*
X145611675Y-130170311D01*
X145545000Y-130054855D01*
X145545000Y-129936495D01*
X145335669Y-129431125D01*
X144948875Y-129044331D01*
X144443505Y-128835000D01*
X143896495Y-128835000D01*
X143391125Y-129044331D01*
X143123033Y-129312423D01*
X143110747Y-124258320D01*
X143066526Y-124038582D01*
X142978301Y-123826822D01*
X142853576Y-123640838D01*
X142829805Y-123625000D01*
X146171903Y-123625000D01*
X146123207Y-123673785D01*
X146123207Y-123673785D01*
G37*
X146123207Y-123673785D02*
X145998534Y-123860923D01*
X145955165Y-124081045D01*
X145964783Y-129370941D01*
X146013457Y-129601429D01*
X146142125Y-129785220D01*
X146262343Y-129900324D01*
X146462265Y-130024932D01*
X146683940Y-130059501D01*
X146787510Y-130055185D01*
X146796410Y-130055000D01*
X150707035Y-130055000D01*
X150693180Y-130505294D01*
X150705154Y-130641014D01*
X150753452Y-130871283D01*
X150869738Y-131115588D01*
X151018001Y-131298274D01*
X151115785Y-131393147D01*
X152084212Y-132131695D01*
X151106000Y-132131695D01*
X150920665Y-132168561D01*
X150763545Y-132273545D01*
X150658561Y-132430665D01*
X150621695Y-132616000D01*
X150621695Y-133962869D01*
X148849564Y-135735000D01*
X147305360Y-135735000D01*
X147063939Y-135635000D01*
X146676061Y-135635000D01*
X146317707Y-135783435D01*
X146043435Y-136057707D01*
X145895000Y-136416061D01*
X145895000Y-136803939D01*
X146043435Y-137162293D01*
X146317707Y-137436565D01*
X146676061Y-137585000D01*
X147063939Y-137585000D01*
X147305360Y-137485000D01*
X149125822Y-137485000D01*
X149212000Y-137502142D01*
X149298178Y-137485000D01*
X149298179Y-137485000D01*
X149553408Y-137434232D01*
X149842840Y-137240840D01*
X149891659Y-137167777D01*
X150845932Y-136213504D01*
X150920665Y-136263439D01*
X151106000Y-136300305D01*
X152106000Y-136300305D01*
X152243643Y-136272926D01*
X149526537Y-138942914D01*
X149399288Y-139130677D01*
X149249736Y-139487309D01*
X149205000Y-139709673D01*
X149205000Y-143230000D01*
X149224592Y-143378820D01*
X149291579Y-143628820D01*
X149440401Y-143886586D01*
X149623414Y-144069599D01*
X149881180Y-144218421D01*
X150131180Y-144285408D01*
X150280000Y-144305000D01*
X152420000Y-144305000D01*
X152568820Y-144285408D01*
X152818820Y-144218421D01*
X153076586Y-144069599D01*
X153259599Y-143886586D01*
X153408421Y-143628820D01*
X153414227Y-143607148D01*
X180025000Y-143607148D01*
X180025000Y-144392852D01*
X180325675Y-145118748D01*
X180881252Y-145674325D01*
X181607148Y-145975000D01*
X182392852Y-145975000D01*
X183118748Y-145674325D01*
X183674325Y-145118748D01*
X183975000Y-144392852D01*
X183975000Y-143607148D01*
X183674325Y-142881252D01*
X183118748Y-142325675D01*
X182392852Y-142025000D01*
X181607148Y-142025000D01*
X180881252Y-142325675D01*
X180325675Y-142881252D01*
X180025000Y-143607148D01*
X153414227Y-143607148D01*
X153475408Y-143378820D01*
X153495000Y-143230000D01*
X153495000Y-140610848D01*
X153502157Y-140583213D01*
X153521829Y-140562525D01*
X157154007Y-138299750D01*
X166717000Y-138299750D01*
X166717000Y-138590966D01*
X166805756Y-138805243D01*
X166969757Y-138969244D01*
X167184034Y-139058000D01*
X168225250Y-139058000D01*
X168371000Y-138912250D01*
X168371000Y-138154000D01*
X166862750Y-138154000D01*
X166717000Y-138299750D01*
X157154007Y-138299750D01*
X158557851Y-137425183D01*
X158638967Y-137359034D01*
X166717000Y-137359034D01*
X166717000Y-137650250D01*
X166862750Y-137796000D01*
X168371000Y-137796000D01*
X168371000Y-137037750D01*
X168225250Y-136892000D01*
X167184034Y-136892000D01*
X166969757Y-136980756D01*
X166805756Y-137144757D01*
X166717000Y-137359034D01*
X158638967Y-137359034D01*
X158670701Y-137333156D01*
X158843713Y-137151024D01*
X158983681Y-136898306D01*
X159046285Y-136655025D01*
X159064426Y-136510545D01*
X159056028Y-132429063D01*
X159036117Y-132280237D01*
X158968574Y-132030304D01*
X158819135Y-131772792D01*
X158635645Y-131590145D01*
X158377445Y-131441893D01*
X158127204Y-131375503D01*
X157978288Y-131356278D01*
X155134249Y-131363533D01*
X155133699Y-131363387D01*
X155133550Y-131362836D01*
X155116253Y-124487295D01*
X155096349Y-124338756D01*
X155028943Y-124089288D01*
X154879923Y-123832176D01*
X154696967Y-123649680D01*
X154654137Y-123625000D01*
X157753985Y-123625000D01*
X167775001Y-133646017D01*
X167775001Y-133990695D01*
X167300000Y-133990695D01*
X167114665Y-134027561D01*
X166957545Y-134132545D01*
X166852561Y-134289665D01*
X166815695Y-134475000D01*
X166815695Y-135475000D01*
X166852561Y-135660335D01*
X166957545Y-135817455D01*
X167114665Y-135922439D01*
X167300000Y-135959305D01*
X169800000Y-135959305D01*
X169985335Y-135922439D01*
X170118515Y-135833451D01*
X170118515Y-136432180D01*
X170155381Y-136617515D01*
X170198711Y-136682362D01*
X170108576Y-136772497D01*
X170038119Y-136942597D01*
X169915966Y-136892000D01*
X168874750Y-136892000D01*
X168729000Y-137037750D01*
X168729000Y-137796000D01*
X168749000Y-137796000D01*
X168749000Y-138154000D01*
X168729000Y-138154000D01*
X168729000Y-138912250D01*
X168874750Y-139058000D01*
X169915966Y-139058000D01*
X170130243Y-138969244D01*
X170294244Y-138805243D01*
X170383000Y-138590966D01*
X170383000Y-138299750D01*
X170284692Y-138201442D01*
X170486854Y-138285180D01*
X171052770Y-138285180D01*
X171198520Y-138139430D01*
X171198520Y-137552320D01*
X171556520Y-137552320D01*
X171556520Y-138139430D01*
X171702270Y-138285180D01*
X172268186Y-138285180D01*
X172482463Y-138196424D01*
X172646464Y-138032423D01*
X172735220Y-137818146D01*
X172735220Y-137698070D01*
X172589470Y-137552320D01*
X171556520Y-137552320D01*
X171198520Y-137552320D01*
X171178520Y-137552320D01*
X171178520Y-137252600D01*
X171198520Y-137252600D01*
X171198520Y-137203460D01*
X171556520Y-137203460D01*
X171556520Y-137252600D01*
X172589470Y-137252600D01*
X172735220Y-137106850D01*
X172735220Y-136986774D01*
X172704745Y-136913200D01*
X172752220Y-136922643D01*
X172828550Y-136907460D01*
X173054610Y-136862494D01*
X173310964Y-136691204D01*
X173354203Y-136626492D01*
X173794035Y-136186661D01*
X173858744Y-136143424D01*
X174030034Y-135887070D01*
X174069875Y-135686776D01*
X174090183Y-135584680D01*
X174075000Y-135508350D01*
X174075000Y-132893748D01*
X174147439Y-132785335D01*
X174184305Y-132600000D01*
X174184305Y-131850000D01*
X174147439Y-131664665D01*
X174143858Y-131659305D01*
X174425000Y-131659305D01*
X174475000Y-131649359D01*
X174475001Y-136775405D01*
X173694714Y-137555693D01*
X173638352Y-137593353D01*
X173510298Y-137785000D01*
X173489164Y-137816629D01*
X173453545Y-137995695D01*
X173325000Y-137995695D01*
X173139665Y-138032561D01*
X172982545Y-138137545D01*
X172877561Y-138294665D01*
X172840695Y-138480000D01*
X172840695Y-139559712D01*
X172294714Y-140105693D01*
X172238353Y-140143352D01*
X172200694Y-140199713D01*
X172089164Y-140366629D01*
X172036776Y-140630000D01*
X172050001Y-140696486D01*
X172050001Y-141400614D01*
X171939665Y-141422561D01*
X171782545Y-141527545D01*
X171677561Y-141684665D01*
X171640695Y-141870000D01*
X171640695Y-143070000D01*
X171677561Y-143255335D01*
X171782545Y-143412455D01*
X171939665Y-143517439D01*
X172125000Y-143554305D01*
X173325000Y-143554305D01*
X173510335Y-143517439D01*
X173667455Y-143412455D01*
X173772439Y-143255335D01*
X173809305Y-143070000D01*
X173809305Y-141870000D01*
X173772439Y-141684665D01*
X173667455Y-141527545D01*
X173510335Y-141422561D01*
X173400000Y-141400614D01*
X173400000Y-140909593D01*
X173845288Y-140464305D01*
X174925000Y-140464305D01*
X175110335Y-140427439D01*
X175267455Y-140322455D01*
X175372439Y-140165335D01*
X175409305Y-139980000D01*
X175409305Y-138480000D01*
X175372439Y-138294665D01*
X175267455Y-138137545D01*
X175120344Y-138039249D01*
X175513475Y-137646119D01*
X175513475Y-137702180D01*
X175550341Y-137887515D01*
X175655325Y-138044635D01*
X175812445Y-138149619D01*
X175997780Y-138186485D01*
X176450001Y-138186485D01*
X176450000Y-138706082D01*
X176427561Y-138739665D01*
X176390695Y-138925000D01*
X176390695Y-139825000D01*
X176427561Y-140010335D01*
X176450000Y-140043918D01*
X176450001Y-141515883D01*
X176310335Y-141422561D01*
X176125000Y-141385695D01*
X174925000Y-141385695D01*
X174739665Y-141422561D01*
X174582545Y-141527545D01*
X174477561Y-141684665D01*
X174440695Y-141870000D01*
X174440695Y-143070000D01*
X174477561Y-143255335D01*
X174582545Y-143412455D01*
X174739665Y-143517439D01*
X174925000Y-143554305D01*
X176125000Y-143554305D01*
X176310335Y-143517439D01*
X176467455Y-143412455D01*
X176572439Y-143255335D01*
X176594506Y-143144398D01*
X176788372Y-143105836D01*
X177011648Y-142956648D01*
X177049309Y-142900284D01*
X177555289Y-142394306D01*
X177611648Y-142356648D01*
X177655620Y-142290840D01*
X177666650Y-142274331D01*
X177760836Y-142133372D01*
X177800000Y-141936481D01*
X177813224Y-141870001D01*
X177800000Y-141803521D01*
X177800000Y-140043917D01*
X177821386Y-140011911D01*
X177880756Y-140155243D01*
X178044757Y-140319244D01*
X178259034Y-140408000D01*
X178354250Y-140408000D01*
X178500000Y-140262250D01*
X178500000Y-139554000D01*
X178750000Y-139554000D01*
X178750000Y-140262250D01*
X178895750Y-140408000D01*
X178990966Y-140408000D01*
X179205243Y-140319244D01*
X179369244Y-140155243D01*
X179458000Y-139940966D01*
X179458000Y-139699750D01*
X179312250Y-139554000D01*
X178750000Y-139554000D01*
X178500000Y-139554000D01*
X178426000Y-139554000D01*
X178426000Y-139196000D01*
X178500000Y-139196000D01*
X178500000Y-138787250D01*
X178575000Y-138712250D01*
X178575000Y-138004000D01*
X178501000Y-138004000D01*
X178501000Y-137646000D01*
X178575000Y-137646000D01*
X178575000Y-137626000D01*
X178825000Y-137626000D01*
X178825000Y-137646000D01*
X178899000Y-137646000D01*
X178899000Y-138004000D01*
X178825000Y-138004000D01*
X178825000Y-138412750D01*
X178750000Y-138487750D01*
X178750000Y-139196000D01*
X179312250Y-139196000D01*
X179458000Y-139050250D01*
X179458000Y-138809034D01*
X179394282Y-138655205D01*
X179444244Y-138605243D01*
X179503614Y-138461911D01*
X179607545Y-138617455D01*
X179764665Y-138722439D01*
X179950000Y-138759305D01*
X180450000Y-138759305D01*
X180635335Y-138722439D01*
X180792455Y-138617455D01*
X180897439Y-138460335D01*
X180934305Y-138275000D01*
X180934305Y-137375000D01*
X180900369Y-137204394D01*
X180935335Y-137197439D01*
X181092455Y-137092455D01*
X181197439Y-136935335D01*
X181234305Y-136750000D01*
X181234305Y-136000000D01*
X181197439Y-135814665D01*
X181092455Y-135657545D01*
X180935335Y-135552561D01*
X180891725Y-135543886D01*
X180897439Y-135535335D01*
X180934305Y-135350000D01*
X180934305Y-134450000D01*
X180916790Y-134361948D01*
X181080243Y-134294244D01*
X181244244Y-134130243D01*
X181333000Y-133915966D01*
X181333000Y-133749750D01*
X181187250Y-133604000D01*
X180529000Y-133604000D01*
X180529000Y-133624000D01*
X180171000Y-133624000D01*
X180171000Y-133604000D01*
X180151000Y-133604000D01*
X180151000Y-133246000D01*
X180171000Y-133246000D01*
X180171000Y-132612750D01*
X180529000Y-132612750D01*
X180529000Y-133246000D01*
X181187250Y-133246000D01*
X181333000Y-133100250D01*
X181333000Y-132934034D01*
X181244244Y-132719757D01*
X181080243Y-132555756D01*
X180865966Y-132467000D01*
X180674750Y-132467000D01*
X180529000Y-132612750D01*
X180171000Y-132612750D01*
X180025250Y-132467000D01*
X179834034Y-132467000D01*
X179619757Y-132555756D01*
X179614229Y-132561284D01*
X179633000Y-132515966D01*
X179633000Y-132224750D01*
X179487250Y-132079000D01*
X178429000Y-132079000D01*
X178429000Y-132099000D01*
X178071000Y-132099000D01*
X178071000Y-132079000D01*
X177012750Y-132079000D01*
X176867000Y-132224750D01*
X176867000Y-132515966D01*
X176955756Y-132730243D01*
X177039028Y-132813515D01*
X175997780Y-132813515D01*
X175825000Y-132847884D01*
X175825000Y-131284034D01*
X176867000Y-131284034D01*
X176867000Y-131575250D01*
X177012750Y-131721000D01*
X178071000Y-131721000D01*
X178071000Y-130962750D01*
X178429000Y-130962750D01*
X178429000Y-131721000D01*
X179487250Y-131721000D01*
X179633000Y-131575250D01*
X179633000Y-131284034D01*
X179544244Y-131069757D01*
X179380243Y-130905756D01*
X179165966Y-130817000D01*
X178574750Y-130817000D01*
X178429000Y-130962750D01*
X178071000Y-130962750D01*
X177925250Y-130817000D01*
X177334034Y-130817000D01*
X177119757Y-130905756D01*
X176955756Y-131069757D01*
X176867000Y-131284034D01*
X175825000Y-131284034D01*
X175825000Y-131079593D01*
X177140272Y-129764322D01*
X177264665Y-129847439D01*
X177450000Y-129884305D01*
X179050000Y-129884305D01*
X179235335Y-129847439D01*
X179392455Y-129742455D01*
X179497439Y-129585335D01*
X179534305Y-129400000D01*
X179534305Y-128400000D01*
X179497439Y-128214665D01*
X179392455Y-128057545D01*
X179235335Y-127952561D01*
X179050000Y-127915695D01*
X178503132Y-127915695D01*
X174909305Y-124321869D01*
X174909305Y-123625000D01*
X184450000Y-123625000D01*
X184450000Y-143968044D01*
X184380663Y-144562766D01*
X184187347Y-145095341D01*
X183876696Y-145569162D01*
X183465375Y-145958810D01*
X182975449Y-146243381D01*
X182425992Y-146409795D01*
X181975501Y-146450000D01*
X125932384Y-146450000D01*
X125895611Y-141182239D01*
X125953431Y-140960545D01*
X126107259Y-140804843D01*
X126328239Y-140744341D01*
X128577938Y-140732805D01*
X129249122Y-141211673D01*
X129343225Y-141263843D01*
X129525000Y-141300000D01*
X134582564Y-141300000D01*
X133289564Y-142593000D01*
X133043945Y-142593000D01*
X132589296Y-142781322D01*
X132241322Y-143129296D01*
X132053000Y-143583945D01*
X132053000Y-144076055D01*
X132241322Y-144530704D01*
X132589296Y-144878678D01*
X133043945Y-145067000D01*
X133536055Y-145067000D01*
X133990704Y-144878678D01*
X134338678Y-144530704D01*
X134527000Y-144076055D01*
X134527000Y-143830436D01*
X134593000Y-143764436D01*
X134593000Y-144076055D01*
X134781322Y-144530704D01*
X135129296Y-144878678D01*
X135583945Y-145067000D01*
X136076055Y-145067000D01*
X136530704Y-144878678D01*
X136704382Y-144705000D01*
X137495618Y-144705000D01*
X137669296Y-144878678D01*
X138123945Y-145067000D01*
X138616055Y-145067000D01*
X139070704Y-144878678D01*
X139244382Y-144705000D01*
X141123822Y-144705000D01*
X141210000Y-144722142D01*
X141296178Y-144705000D01*
X141296179Y-144705000D01*
X141551408Y-144654232D01*
X141840840Y-144460840D01*
X141889659Y-144387777D01*
X142236324Y-144041112D01*
X142355335Y-144017439D01*
X142512455Y-143912455D01*
X142617439Y-143755335D01*
X142654305Y-143570000D01*
X142654305Y-143070000D01*
X142617439Y-142884665D01*
X142512455Y-142727545D01*
X142355335Y-142622561D01*
X142207010Y-142593057D01*
X142061408Y-142495768D01*
X141720000Y-142427858D01*
X141378591Y-142495768D01*
X141232989Y-142593057D01*
X141084665Y-142622561D01*
X140927545Y-142727545D01*
X140822561Y-142884665D01*
X140808570Y-142955000D01*
X139244382Y-142955000D01*
X139070704Y-142781322D01*
X138616055Y-142593000D01*
X138123945Y-142593000D01*
X137669296Y-142781322D01*
X137495618Y-142955000D01*
X136704382Y-142955000D01*
X136530704Y-142781322D01*
X136076055Y-142593000D01*
X135764436Y-142593000D01*
X135822436Y-142535000D01*
X139164640Y-142535000D01*
X139406061Y-142635000D01*
X139793939Y-142635000D01*
X140152293Y-142486565D01*
X140426565Y-142212293D01*
X140575000Y-141853939D01*
X140575000Y-141466061D01*
X140426565Y-141107707D01*
X140152293Y-140833435D01*
X139793939Y-140685000D01*
X139406061Y-140685000D01*
X139300000Y-140728932D01*
X139300000Y-138875000D01*
X139263843Y-138693225D01*
X139160876Y-138539124D01*
X139006775Y-138436157D01*
X138825000Y-138400000D01*
X137075000Y-138400000D01*
X136893225Y-138436157D01*
X136739124Y-138539124D01*
X136636157Y-138693225D01*
X136609946Y-138825000D01*
X131100000Y-138825000D01*
X131100000Y-136375000D01*
X137443695Y-136375000D01*
X137443695Y-136974000D01*
X137480561Y-137159335D01*
X137585545Y-137316455D01*
X137742665Y-137421439D01*
X137928000Y-137458305D01*
X138550053Y-137458305D01*
X138603821Y-137469000D01*
X140396012Y-137469000D01*
X140676061Y-137585000D01*
X141063939Y-137585000D01*
X141307774Y-137484000D01*
X142043695Y-137484000D01*
X142043695Y-138244000D01*
X142080561Y-138429335D01*
X142185545Y-138586455D01*
X142342665Y-138691439D01*
X142528000Y-138728305D01*
X142574151Y-138728305D01*
X142566561Y-138739665D01*
X142529695Y-138925000D01*
X142529695Y-140175000D01*
X142566561Y-140360335D01*
X142671545Y-140517455D01*
X142828665Y-140622439D01*
X143014000Y-140659305D01*
X144014000Y-140659305D01*
X144199335Y-140622439D01*
X144356455Y-140517455D01*
X144461439Y-140360335D01*
X144498305Y-140175000D01*
X144498305Y-138925000D01*
X144461439Y-138739665D01*
X144369990Y-138602802D01*
X144394455Y-138586455D01*
X144499439Y-138429335D01*
X144536305Y-138244000D01*
X144536305Y-137484000D01*
X144499439Y-137298665D01*
X144394455Y-137141545D01*
X144237335Y-137036561D01*
X144052000Y-136999695D01*
X142528000Y-136999695D01*
X142342665Y-137036561D01*
X142185545Y-137141545D01*
X142080561Y-137298665D01*
X142043695Y-137484000D01*
X141307774Y-137484000D01*
X141422293Y-137436565D01*
X141696565Y-137162293D01*
X141845000Y-136803939D01*
X141845000Y-136416061D01*
X141696565Y-136057707D01*
X141422293Y-135783435D01*
X141063939Y-135635000D01*
X140676061Y-135635000D01*
X140473267Y-135719000D01*
X140125000Y-135719000D01*
X140125000Y-134956751D01*
X140302175Y-134883363D01*
X140488718Y-134758718D01*
X140613363Y-134572175D01*
X140701231Y-134360043D01*
X140745000Y-134140000D01*
X140745000Y-131381137D01*
X140869857Y-131448895D01*
X141337693Y-131623460D01*
X141567596Y-131659015D01*
X141805028Y-131647071D01*
X142030202Y-131588623D01*
X142424402Y-131394465D01*
X141954927Y-133556523D01*
X141945115Y-133617179D01*
X141938283Y-133680838D01*
X141935000Y-133742196D01*
X141935000Y-134110000D01*
X141978769Y-134330043D01*
X142063897Y-134535559D01*
X142080561Y-134619335D01*
X142185545Y-134776455D01*
X142342665Y-134881439D01*
X142528000Y-134918305D01*
X142534609Y-134918305D01*
X142589957Y-134941231D01*
X142810000Y-134985000D01*
X144431828Y-134985000D01*
X144463414Y-135016586D01*
X144649957Y-135141231D01*
X144870000Y-135185000D01*
X147770000Y-135185000D01*
X147990043Y-135141231D01*
X148134128Y-135081549D01*
X148255335Y-135057439D01*
X148412455Y-134952455D01*
X148517439Y-134795335D01*
X148541549Y-134674128D01*
X148601231Y-134530043D01*
X148645000Y-134310000D01*
X148645000Y-133910000D01*
X148601231Y-133689957D01*
X148541549Y-133545872D01*
X148517439Y-133424665D01*
X148412455Y-133267545D01*
X148255335Y-133162561D01*
X148134128Y-133138451D01*
X147990043Y-133078769D01*
X147770000Y-133035000D01*
X146152414Y-133035000D01*
X145679992Y-130357938D01*
X145611675Y-130170311D01*
X145545000Y-130054855D01*
X145545000Y-129936495D01*
X145335669Y-129431125D01*
X144948875Y-129044331D01*
X144443505Y-128835000D01*
X143896495Y-128835000D01*
X143391125Y-129044331D01*
X143123033Y-129312423D01*
X143110747Y-124258320D01*
X143066526Y-124038582D01*
X142978301Y-123826822D01*
X142853576Y-123640838D01*
X142829805Y-123625000D01*
X146171903Y-123625000D01*
X146123207Y-123673785D01*
D55*
G36*
X182550724Y-50670285D02*
X183071898Y-50859462D01*
X183535581Y-51163467D01*
X183916887Y-51565982D01*
X184195371Y-52045427D01*
X184358476Y-52583958D01*
X184398001Y-53026825D01*
X184398000Y-117273000D01*
X149522554Y-117273000D01*
X146787000Y-114537447D01*
X146787000Y-113996152D01*
X146569753Y-113471669D01*
X146174294Y-113076210D01*
X146260554Y-112820159D01*
X145360000Y-111919605D01*
X144459446Y-112820159D01*
X144545706Y-113076210D01*
X144150247Y-113471669D01*
X143933000Y-113996152D01*
X143933000Y-114563848D01*
X144150247Y-115088331D01*
X144551669Y-115489753D01*
X145076152Y-115707000D01*
X145617447Y-115707000D01*
X147183446Y-117273000D01*
X131458437Y-117273000D01*
X131409836Y-117282667D01*
X131368634Y-117310197D01*
X131341104Y-117351399D01*
X131331437Y-117400031D01*
X131332214Y-120543000D01*
X127730586Y-120543000D01*
X127735161Y-120520000D01*
X127717000Y-120428699D01*
X127717000Y-117482117D01*
X127745625Y-117476423D01*
X127919945Y-117359945D01*
X128036423Y-117185625D01*
X128077324Y-116980000D01*
X128077324Y-114980000D01*
X128036423Y-114774375D01*
X127919945Y-114600055D01*
X127745625Y-114483577D01*
X127540000Y-114442676D01*
X126040000Y-114442676D01*
X125923000Y-114465949D01*
X126071943Y-113909033D01*
X126723976Y-113257000D01*
X137558700Y-113257000D01*
X137650000Y-113275161D01*
X137741300Y-113257000D01*
X137741302Y-113257000D01*
X138011697Y-113203215D01*
X138318330Y-112998330D01*
X138370051Y-112920924D01*
X139791639Y-111499336D01*
X143813542Y-111499336D01*
X143839161Y-112109460D01*
X144023357Y-112554148D01*
X144279841Y-112640554D01*
X145180395Y-111740000D01*
X145539605Y-111740000D01*
X146440159Y-112640554D01*
X146696643Y-112554148D01*
X146906458Y-111980664D01*
X146880839Y-111370540D01*
X146696643Y-110925852D01*
X146440159Y-110839446D01*
X145539605Y-111740000D01*
X145180395Y-111740000D01*
X144279841Y-110839446D01*
X144023357Y-110925852D01*
X143813542Y-111499336D01*
X139791639Y-111499336D01*
X141063976Y-110227000D01*
X144368916Y-110227000D01*
X144545706Y-110403790D01*
X144459446Y-110659841D01*
X145360000Y-111560395D01*
X146260554Y-110659841D01*
X146174294Y-110403790D01*
X146569753Y-110008331D01*
X146787000Y-109483848D01*
X146787000Y-109225396D01*
X150344673Y-105667724D01*
X150374065Y-105648085D01*
X150666817Y-106354848D01*
X151265152Y-106953183D01*
X152046913Y-107277000D01*
X152893087Y-107277000D01*
X153674848Y-106953183D01*
X154273183Y-106354848D01*
X154597000Y-105573087D01*
X154597000Y-104726913D01*
X154273183Y-103945152D01*
X153674848Y-103346817D01*
X152893087Y-103023000D01*
X152046913Y-103023000D01*
X151265152Y-103346817D01*
X150717000Y-103894969D01*
X150717000Y-95555396D01*
X151285397Y-94987000D01*
X152478916Y-94987000D01*
X152661669Y-95169753D01*
X153186152Y-95387000D01*
X153753848Y-95387000D01*
X154278331Y-95169753D01*
X154679753Y-94768331D01*
X154897000Y-94243848D01*
X154897000Y-93676152D01*
X154679753Y-93151669D01*
X154278331Y-92750247D01*
X153753848Y-92533000D01*
X153186152Y-92533000D01*
X152661669Y-92750247D01*
X152478916Y-92933000D01*
X150961149Y-92933000D01*
X150860000Y-92912880D01*
X150758851Y-92933000D01*
X150758850Y-92933000D01*
X150459285Y-92992587D01*
X150119574Y-93219574D01*
X150062275Y-93305328D01*
X149035328Y-94332276D01*
X148949575Y-94389574D01*
X148753209Y-94683458D01*
X148722588Y-94729285D01*
X148642880Y-95130000D01*
X148663001Y-95231154D01*
X148663000Y-104444603D01*
X146770730Y-106336873D01*
X146569753Y-105851669D01*
X146168331Y-105450247D01*
X146022881Y-105390000D01*
X146168331Y-105329753D01*
X146569753Y-104928331D01*
X146787000Y-104403848D01*
X146787000Y-103836152D01*
X146569753Y-103311669D01*
X146168331Y-102910247D01*
X146022881Y-102850000D01*
X146168331Y-102789753D01*
X146569753Y-102388331D01*
X146787000Y-101863848D01*
X146787000Y-101296152D01*
X146569753Y-100771669D01*
X146168331Y-100370247D01*
X146022881Y-100310000D01*
X146168331Y-100249753D01*
X146569753Y-99848331D01*
X146787000Y-99323848D01*
X146787000Y-98756152D01*
X146569753Y-98231669D01*
X146168331Y-97830247D01*
X146022881Y-97770000D01*
X146168331Y-97709753D01*
X146569753Y-97308331D01*
X146787000Y-96783848D01*
X146787000Y-96216152D01*
X146569753Y-95691669D01*
X146168331Y-95290247D01*
X146022881Y-95230000D01*
X146168331Y-95169753D01*
X146569753Y-94768331D01*
X146787000Y-94243848D01*
X146787000Y-93676152D01*
X146569753Y-93151669D01*
X146168331Y-92750247D01*
X146022881Y-92690000D01*
X146168331Y-92629753D01*
X146569753Y-92228331D01*
X146787000Y-91703848D01*
X146787000Y-91136152D01*
X146569753Y-90611669D01*
X146168331Y-90210247D01*
X146022881Y-90150000D01*
X146168331Y-90089753D01*
X146569753Y-89688331D01*
X146787000Y-89163848D01*
X146787000Y-88596152D01*
X146569753Y-88071669D01*
X146168331Y-87670247D01*
X146022881Y-87610000D01*
X146168331Y-87549753D01*
X146569753Y-87148331D01*
X146787000Y-86623848D01*
X146787000Y-86056152D01*
X146569753Y-85531669D01*
X146168331Y-85130247D01*
X146022881Y-85070000D01*
X146168331Y-85009753D01*
X146569753Y-84608331D01*
X146787000Y-84083848D01*
X146787000Y-83516152D01*
X146569753Y-82991669D01*
X146168331Y-82590247D01*
X146022881Y-82530000D01*
X146168331Y-82469753D01*
X146569753Y-82068331D01*
X146787000Y-81543848D01*
X146787000Y-80976152D01*
X146569753Y-80451669D01*
X146168331Y-80050247D01*
X146022881Y-79990000D01*
X146168331Y-79929753D01*
X146569753Y-79528331D01*
X146787000Y-79003848D01*
X146787000Y-78436152D01*
X146753312Y-78354821D01*
X148153441Y-76954693D01*
X148214137Y-76914137D01*
X148254692Y-76853442D01*
X148254695Y-76853439D01*
X148374818Y-76673661D01*
X148401067Y-76541697D01*
X148417000Y-76461599D01*
X148417000Y-76461595D01*
X148431241Y-76390000D01*
X148417000Y-76318405D01*
X148417000Y-74726913D01*
X150343000Y-74726913D01*
X150343000Y-75573087D01*
X150666817Y-76354848D01*
X151265152Y-76953183D01*
X152046913Y-77277000D01*
X152893087Y-77277000D01*
X153674848Y-76953183D01*
X154273183Y-76354848D01*
X154597000Y-75573087D01*
X154597000Y-74726913D01*
X154273183Y-73945152D01*
X153674848Y-73346817D01*
X152893087Y-73023000D01*
X152046913Y-73023000D01*
X151265152Y-73346817D01*
X150666817Y-73945152D01*
X150343000Y-74726913D01*
X148417000Y-74726913D01*
X148417000Y-68319336D01*
X159053542Y-68319336D01*
X159079161Y-68929460D01*
X159263357Y-69374148D01*
X159519841Y-69460554D01*
X160420395Y-68560000D01*
X160779605Y-68560000D01*
X161680159Y-69460554D01*
X161936643Y-69374148D01*
X162146458Y-68800664D01*
X162120839Y-68190540D01*
X161936643Y-67745852D01*
X161680159Y-67659446D01*
X160779605Y-68560000D01*
X160420395Y-68560000D01*
X159519841Y-67659446D01*
X159263357Y-67745852D01*
X159053542Y-68319336D01*
X148417000Y-68319336D01*
X148417000Y-67100159D01*
X159699446Y-67100159D01*
X159763401Y-67290000D01*
X159699446Y-67479841D01*
X160600000Y-68380395D01*
X161500554Y-67479841D01*
X161436599Y-67290000D01*
X161500554Y-67100159D01*
X160600000Y-66199605D01*
X159699446Y-67100159D01*
X148417000Y-67100159D01*
X148417000Y-65779336D01*
X159053542Y-65779336D01*
X159079161Y-66389460D01*
X159263357Y-66834148D01*
X159519841Y-66920554D01*
X160420395Y-66020000D01*
X160779605Y-66020000D01*
X161680159Y-66920554D01*
X161936643Y-66834148D01*
X162146458Y-66260664D01*
X162120839Y-65650540D01*
X161936643Y-65205852D01*
X161680159Y-65119446D01*
X160779605Y-66020000D01*
X160420395Y-66020000D01*
X159519841Y-65119446D01*
X159263357Y-65205852D01*
X159053542Y-65779336D01*
X148417000Y-65779336D01*
X148417000Y-64951132D01*
X148428291Y-64939841D01*
X159699446Y-64939841D01*
X160600000Y-65840395D01*
X161500554Y-64939841D01*
X161414148Y-64683357D01*
X160840664Y-64473542D01*
X160230540Y-64499161D01*
X159785852Y-64683357D01*
X159699446Y-64939841D01*
X148428291Y-64939841D01*
X150921133Y-62447000D01*
X158881269Y-62447000D01*
X158950055Y-62549945D01*
X159124375Y-62666423D01*
X159330000Y-62707324D01*
X159339192Y-62707324D01*
X159665306Y-63033439D01*
X159705864Y-63094138D01*
X159946340Y-63254819D01*
X160158402Y-63297001D01*
X160158406Y-63297001D01*
X160230000Y-63311242D01*
X160301594Y-63297001D01*
X164588404Y-63297001D01*
X164659999Y-63311242D01*
X164731594Y-63297001D01*
X164731598Y-63297001D01*
X164943660Y-63254819D01*
X165184136Y-63094138D01*
X165224695Y-63033437D01*
X170904821Y-57353312D01*
X170986152Y-57387000D01*
X171553848Y-57387000D01*
X172078331Y-57169753D01*
X172479753Y-56768331D01*
X172540000Y-56622881D01*
X172600247Y-56768331D01*
X173001669Y-57169753D01*
X173526152Y-57387000D01*
X174093848Y-57387000D01*
X174253001Y-57321077D01*
X174253001Y-59338400D01*
X174238759Y-59410000D01*
X174265176Y-59542809D01*
X174211000Y-59673602D01*
X174211000Y-60186398D01*
X174407239Y-60660160D01*
X174769840Y-61022761D01*
X175243602Y-61219000D01*
X175722867Y-61219000D01*
X173548868Y-63393000D01*
X164671593Y-63393000D01*
X164599999Y-63378759D01*
X164528405Y-63393000D01*
X164528401Y-63393000D01*
X164316339Y-63435182D01*
X164075863Y-63595863D01*
X164035305Y-63656562D01*
X162636562Y-65055306D01*
X162575864Y-65095863D01*
X162535307Y-65156561D01*
X162535306Y-65156562D01*
X162415182Y-65336340D01*
X162358759Y-65620000D01*
X162373001Y-65691600D01*
X162373000Y-78458867D01*
X162027000Y-78804867D01*
X162027000Y-78436152D01*
X161809753Y-77911669D01*
X161408331Y-77510247D01*
X161262881Y-77450000D01*
X161408331Y-77389753D01*
X161809753Y-76988331D01*
X162027000Y-76463848D01*
X162027000Y-75896152D01*
X161809753Y-75371669D01*
X161408331Y-74970247D01*
X161262881Y-74910000D01*
X161408331Y-74849753D01*
X161809753Y-74448331D01*
X162027000Y-73923848D01*
X162027000Y-73356152D01*
X161809753Y-72831669D01*
X161408331Y-72430247D01*
X161262881Y-72370000D01*
X161408331Y-72309753D01*
X161809753Y-71908331D01*
X162027000Y-71383848D01*
X162027000Y-70816152D01*
X161809753Y-70291669D01*
X161414294Y-69896210D01*
X161500554Y-69640159D01*
X160600000Y-68739605D01*
X159699446Y-69640159D01*
X159785706Y-69896210D01*
X159390247Y-70291669D01*
X159173000Y-70816152D01*
X159173000Y-71383848D01*
X159390247Y-71908331D01*
X159791669Y-72309753D01*
X159937119Y-72370000D01*
X159791669Y-72430247D01*
X159390247Y-72831669D01*
X159173000Y-73356152D01*
X159173000Y-73923848D01*
X159390247Y-74448331D01*
X159791669Y-74849753D01*
X159937119Y-74910000D01*
X159791669Y-74970247D01*
X159390247Y-75371669D01*
X159173000Y-75896152D01*
X159173000Y-76437446D01*
X152942819Y-82667628D01*
X152873767Y-82713767D01*
X152690984Y-82987322D01*
X152643000Y-83228553D01*
X152643000Y-83228556D01*
X152626800Y-83310000D01*
X152643000Y-83391444D01*
X152643001Y-85148915D01*
X152260247Y-85531669D01*
X152043000Y-86056152D01*
X152043000Y-86623848D01*
X152260247Y-87148331D01*
X152661669Y-87549753D01*
X152807119Y-87610000D01*
X152661669Y-87670247D01*
X152260247Y-88071669D01*
X152043000Y-88596152D01*
X152043000Y-89163848D01*
X152260247Y-89688331D01*
X152661669Y-90089753D01*
X153186152Y-90307000D01*
X153753848Y-90307000D01*
X154278331Y-90089753D01*
X154679753Y-89688331D01*
X154897000Y-89163848D01*
X154897000Y-88622553D01*
X156137184Y-87382370D01*
X156206233Y-87336233D01*
X156389016Y-87062679D01*
X156437000Y-86821448D01*
X156437000Y-86821444D01*
X156453200Y-86740001D01*
X156437000Y-86658558D01*
X156437000Y-84052553D01*
X159173000Y-81316554D01*
X159173000Y-81543848D01*
X159390247Y-82068331D01*
X159791669Y-82469753D01*
X159937119Y-82530000D01*
X159791669Y-82590247D01*
X159390247Y-82991669D01*
X159173000Y-83516152D01*
X159173000Y-84083848D01*
X159390247Y-84608331D01*
X159791669Y-85009753D01*
X159937119Y-85070000D01*
X159791669Y-85130247D01*
X159390247Y-85531669D01*
X159173000Y-86056152D01*
X159173000Y-86623848D01*
X159390247Y-87148331D01*
X159791669Y-87549753D01*
X159937119Y-87610000D01*
X159791669Y-87670247D01*
X159390247Y-88071669D01*
X159173000Y-88596152D01*
X159173000Y-89163848D01*
X159390247Y-89688331D01*
X159791669Y-90089753D01*
X159937119Y-90150000D01*
X159791669Y-90210247D01*
X159390247Y-90611669D01*
X159173000Y-91136152D01*
X159173000Y-91703848D01*
X159390247Y-92228331D01*
X159791669Y-92629753D01*
X159937119Y-92690000D01*
X159791669Y-92750247D01*
X159390247Y-93151669D01*
X159173000Y-93676152D01*
X159173000Y-94243848D01*
X159390247Y-94768331D01*
X159791669Y-95169753D01*
X159937119Y-95230000D01*
X159791669Y-95290247D01*
X159390247Y-95691669D01*
X159173000Y-96216152D01*
X159173000Y-96783848D01*
X159390247Y-97308331D01*
X159791669Y-97709753D01*
X159937119Y-97770000D01*
X159791669Y-97830247D01*
X159390247Y-98231669D01*
X159173000Y-98756152D01*
X159173000Y-99323848D01*
X159390247Y-99848331D01*
X159791669Y-100249753D01*
X159937119Y-100310000D01*
X159791669Y-100370247D01*
X159390247Y-100771669D01*
X159173000Y-101296152D01*
X159173000Y-101863848D01*
X159390247Y-102388331D01*
X159791669Y-102789753D01*
X159937119Y-102850000D01*
X159791669Y-102910247D01*
X159390247Y-103311669D01*
X159173000Y-103836152D01*
X159173000Y-104403848D01*
X159390247Y-104928331D01*
X159791669Y-105329753D01*
X159937119Y-105390000D01*
X159791669Y-105450247D01*
X159390247Y-105851669D01*
X159173000Y-106376152D01*
X159173000Y-106943848D01*
X159390247Y-107468331D01*
X159791669Y-107869753D01*
X159937119Y-107930000D01*
X159791669Y-107990247D01*
X159390247Y-108391669D01*
X159173000Y-108916152D01*
X159173000Y-109483848D01*
X159390247Y-110008331D01*
X159791669Y-110409753D01*
X159937119Y-110470000D01*
X159791669Y-110530247D01*
X159390247Y-110931669D01*
X159173000Y-111456152D01*
X159173000Y-112023848D01*
X159390247Y-112548331D01*
X159791669Y-112949753D01*
X159937119Y-113010000D01*
X159791669Y-113070247D01*
X159390247Y-113471669D01*
X159173000Y-113996152D01*
X159173000Y-114563848D01*
X159390247Y-115088331D01*
X159791669Y-115489753D01*
X160316152Y-115707000D01*
X160883848Y-115707000D01*
X161408331Y-115489753D01*
X161809753Y-115088331D01*
X161825249Y-115050919D01*
X172372100Y-115050919D01*
X172372100Y-115599081D01*
X172581872Y-116105518D01*
X172969482Y-116493128D01*
X173475919Y-116702900D01*
X174024081Y-116702900D01*
X174530518Y-116493128D01*
X174918128Y-116105518D01*
X175127900Y-115599081D01*
X175127900Y-115050919D01*
X174918128Y-114544482D01*
X174530518Y-114156872D01*
X174024081Y-113947100D01*
X173475919Y-113947100D01*
X172969482Y-114156872D01*
X172581872Y-114544482D01*
X172372100Y-115050919D01*
X161825249Y-115050919D01*
X162027000Y-114563848D01*
X162027000Y-113996152D01*
X161809753Y-113471669D01*
X161408331Y-113070247D01*
X161262881Y-113010000D01*
X161408331Y-112949753D01*
X161809753Y-112548331D01*
X162027000Y-112023848D01*
X162027000Y-111456152D01*
X161809753Y-110931669D01*
X161408331Y-110530247D01*
X161262881Y-110470000D01*
X161408331Y-110409753D01*
X161809753Y-110008331D01*
X161843441Y-109927000D01*
X164783868Y-109927000D01*
X167090704Y-112233838D01*
X167000000Y-112452816D01*
X167000000Y-113117184D01*
X167254243Y-113730979D01*
X167724021Y-114200757D01*
X168337816Y-114455000D01*
X169002184Y-114455000D01*
X169615979Y-114200757D01*
X170085757Y-113730979D01*
X170340000Y-113117184D01*
X170340000Y-112452816D01*
X170085757Y-111839021D01*
X169615979Y-111369243D01*
X169002184Y-111115000D01*
X168337816Y-111115000D01*
X168118838Y-111205704D01*
X166656695Y-109743562D01*
X171229100Y-109743562D01*
X171229100Y-110746438D01*
X171612884Y-111672975D01*
X172322025Y-112382116D01*
X173248562Y-112765900D01*
X174251438Y-112765900D01*
X175177975Y-112382116D01*
X175887116Y-111672975D01*
X176270900Y-110746438D01*
X176270900Y-109743562D01*
X175887116Y-108817025D01*
X175177975Y-108107884D01*
X174251438Y-107724100D01*
X173248562Y-107724100D01*
X172322025Y-108107884D01*
X171612884Y-108817025D01*
X171229100Y-109743562D01*
X166656695Y-109743562D01*
X165649696Y-108736564D01*
X165609137Y-108675863D01*
X165368661Y-108515182D01*
X165156599Y-108473000D01*
X165156595Y-108473000D01*
X165085000Y-108458759D01*
X165013405Y-108473000D01*
X161843441Y-108473000D01*
X161809753Y-108391669D01*
X161408331Y-107990247D01*
X161262881Y-107930000D01*
X161408331Y-107869753D01*
X161587121Y-107690963D01*
X170133642Y-107690963D01*
X170249806Y-107972658D01*
X170911333Y-108223062D01*
X171618329Y-108201249D01*
X172170194Y-107972658D01*
X172286358Y-107690963D01*
X171210000Y-106614605D01*
X170133642Y-107690963D01*
X161587121Y-107690963D01*
X161809753Y-107468331D01*
X161843441Y-107387000D01*
X165328405Y-107387000D01*
X165400000Y-107401241D01*
X165471595Y-107387000D01*
X165471599Y-107387000D01*
X165683661Y-107344818D01*
X165924137Y-107184137D01*
X165964696Y-107123436D01*
X166951799Y-106136333D01*
X169421938Y-106136333D01*
X169443751Y-106843329D01*
X169672342Y-107395194D01*
X169954037Y-107511358D01*
X171030395Y-106435000D01*
X169954037Y-105358642D01*
X169672342Y-105474806D01*
X169421938Y-106136333D01*
X166951799Y-106136333D01*
X167909095Y-105179037D01*
X170133642Y-105179037D01*
X171210000Y-106255395D01*
X171224143Y-106241253D01*
X171403748Y-106420858D01*
X171389605Y-106435000D01*
X172465963Y-107511358D01*
X172747658Y-107395194D01*
X172998062Y-106733667D01*
X172985914Y-106339934D01*
X173475919Y-106542900D01*
X174024081Y-106542900D01*
X174530518Y-106333128D01*
X174918128Y-105945518D01*
X175127900Y-105439081D01*
X175127900Y-104890919D01*
X174918128Y-104384482D01*
X174530518Y-103996872D01*
X174024081Y-103787100D01*
X173475919Y-103787100D01*
X172969482Y-103996872D01*
X172581872Y-104384482D01*
X172372100Y-104890919D01*
X172372100Y-105093292D01*
X172286357Y-105179035D01*
X172170194Y-104897342D01*
X171508667Y-104646938D01*
X170801671Y-104668751D01*
X170249806Y-104897342D01*
X170133642Y-105179037D01*
X167909095Y-105179037D01*
X169133441Y-103954692D01*
X169194136Y-103914137D01*
X169234692Y-103853441D01*
X169234694Y-103853439D01*
X169354817Y-103673662D01*
X169354818Y-103673661D01*
X169397000Y-103461599D01*
X169397000Y-103461595D01*
X169411241Y-103390001D01*
X169397000Y-103318407D01*
X169397000Y-96050919D01*
X172372100Y-96050919D01*
X172372100Y-96599081D01*
X172581872Y-97105518D01*
X172969482Y-97493128D01*
X173475919Y-97702900D01*
X174024081Y-97702900D01*
X174530518Y-97493128D01*
X174918128Y-97105518D01*
X175127900Y-96599081D01*
X175127900Y-96050919D01*
X174918128Y-95544482D01*
X174530518Y-95156872D01*
X174024081Y-94947100D01*
X173475919Y-94947100D01*
X172969482Y-95156872D01*
X172581872Y-95544482D01*
X172372100Y-96050919D01*
X169397000Y-96050919D01*
X169397000Y-95291461D01*
X169615979Y-95200757D01*
X170085757Y-94730979D01*
X170340000Y-94117184D01*
X170340000Y-93452816D01*
X170085757Y-92839021D01*
X169615979Y-92369243D01*
X169002184Y-92115000D01*
X168337816Y-92115000D01*
X167724021Y-92369243D01*
X167254243Y-92839021D01*
X167000000Y-93452816D01*
X167000000Y-94117184D01*
X167254243Y-94730979D01*
X167724021Y-95200757D01*
X167943001Y-95291462D01*
X167943000Y-103088867D01*
X165098868Y-105933000D01*
X161843441Y-105933000D01*
X161809753Y-105851669D01*
X161408331Y-105450247D01*
X161262881Y-105390000D01*
X161408331Y-105329753D01*
X161809753Y-104928331D01*
X161843441Y-104847000D01*
X162488405Y-104847000D01*
X162560000Y-104861241D01*
X162631595Y-104847000D01*
X162631599Y-104847000D01*
X162843661Y-104804818D01*
X163084137Y-104644137D01*
X163124696Y-104583436D01*
X166553441Y-101154692D01*
X166614136Y-101114137D01*
X166654692Y-101053441D01*
X166654694Y-101053439D01*
X166774818Y-100873661D01*
X166788351Y-100805625D01*
X166817000Y-100661599D01*
X166817000Y-100661595D01*
X166831241Y-100590000D01*
X166817000Y-100518405D01*
X166817000Y-90743562D01*
X171229100Y-90743562D01*
X171229100Y-91746438D01*
X171612884Y-92672975D01*
X172322025Y-93382116D01*
X173248562Y-93765900D01*
X174251438Y-93765900D01*
X175177975Y-93382116D01*
X175887116Y-92672975D01*
X176270900Y-91746438D01*
X176270900Y-90743562D01*
X175887116Y-89817025D01*
X175177975Y-89107884D01*
X174251438Y-88724100D01*
X173248562Y-88724100D01*
X172322025Y-89107884D01*
X171612884Y-89817025D01*
X171229100Y-90743562D01*
X166817000Y-90743562D01*
X166817000Y-88690963D01*
X170133642Y-88690963D01*
X170249806Y-88972658D01*
X170911333Y-89223062D01*
X171618329Y-89201249D01*
X172170194Y-88972658D01*
X172286358Y-88690963D01*
X171210000Y-87614605D01*
X170133642Y-88690963D01*
X166817000Y-88690963D01*
X166817000Y-87136333D01*
X169421938Y-87136333D01*
X169443751Y-87843329D01*
X169672342Y-88395194D01*
X169954037Y-88511358D01*
X171030395Y-87435000D01*
X169954037Y-86358642D01*
X169672342Y-86474806D01*
X169421938Y-87136333D01*
X166817000Y-87136333D01*
X166817000Y-86179037D01*
X170133642Y-86179037D01*
X171210000Y-87255395D01*
X171224143Y-87241253D01*
X171403748Y-87420858D01*
X171389605Y-87435000D01*
X172465963Y-88511358D01*
X172747658Y-88395194D01*
X172998062Y-87733667D01*
X172985914Y-87339934D01*
X173475919Y-87542900D01*
X174024081Y-87542900D01*
X174530518Y-87333128D01*
X174918128Y-86945518D01*
X175127900Y-86439081D01*
X175127900Y-85890919D01*
X174918128Y-85384482D01*
X174530518Y-84996872D01*
X174024081Y-84787100D01*
X173475919Y-84787100D01*
X172969482Y-84996872D01*
X172581872Y-85384482D01*
X172372100Y-85890919D01*
X172372100Y-86093292D01*
X172286357Y-86179035D01*
X172170194Y-85897342D01*
X171508667Y-85646938D01*
X170801671Y-85668751D01*
X170249806Y-85897342D01*
X170133642Y-86179037D01*
X166817000Y-86179037D01*
X166817000Y-77666132D01*
X167432213Y-77050919D01*
X172372100Y-77050919D01*
X172372100Y-77599081D01*
X172581872Y-78105518D01*
X172969482Y-78493128D01*
X173475919Y-78702900D01*
X174024081Y-78702900D01*
X174530518Y-78493128D01*
X174918128Y-78105518D01*
X175127900Y-77599081D01*
X175127900Y-77050919D01*
X174918128Y-76544482D01*
X174530518Y-76156872D01*
X174024081Y-75947100D01*
X173475919Y-75947100D01*
X172969482Y-76156872D01*
X172581872Y-76544482D01*
X172372100Y-77050919D01*
X167432213Y-77050919D01*
X168118837Y-76364296D01*
X168337816Y-76455000D01*
X169002184Y-76455000D01*
X169615979Y-76200757D01*
X170085757Y-75730979D01*
X170340000Y-75117184D01*
X170340000Y-74452816D01*
X170085757Y-73839021D01*
X169615979Y-73369243D01*
X169002184Y-73115000D01*
X168337816Y-73115000D01*
X167724021Y-73369243D01*
X167254243Y-73839021D01*
X167000000Y-74452816D01*
X167000000Y-75117184D01*
X167090704Y-75336163D01*
X165626562Y-76800306D01*
X165565864Y-76840863D01*
X165525307Y-76901561D01*
X165525306Y-76901562D01*
X165405182Y-77081340D01*
X165348759Y-77365000D01*
X165363001Y-77436600D01*
X165363000Y-100288867D01*
X162258868Y-103393000D01*
X161843441Y-103393000D01*
X161809753Y-103311669D01*
X161408331Y-102910247D01*
X161262881Y-102850000D01*
X161408331Y-102789753D01*
X161809753Y-102388331D01*
X162027000Y-101863848D01*
X162027000Y-101296152D01*
X161809753Y-100771669D01*
X161408331Y-100370247D01*
X161262881Y-100310000D01*
X161408331Y-100249753D01*
X161809753Y-99848331D01*
X162027000Y-99323848D01*
X162027000Y-98756152D01*
X161809753Y-98231669D01*
X161408331Y-97830247D01*
X161262881Y-97770000D01*
X161408331Y-97709753D01*
X161809753Y-97308331D01*
X162027000Y-96783848D01*
X162027000Y-96216152D01*
X161809753Y-95691669D01*
X161408331Y-95290247D01*
X161262881Y-95230000D01*
X161408331Y-95169753D01*
X161809753Y-94768331D01*
X162027000Y-94243848D01*
X162027000Y-93676152D01*
X161809753Y-93151669D01*
X161408331Y-92750247D01*
X161262881Y-92690000D01*
X161408331Y-92629753D01*
X161809753Y-92228331D01*
X162027000Y-91703848D01*
X162027000Y-91136152D01*
X161809753Y-90611669D01*
X161408331Y-90210247D01*
X161262881Y-90150000D01*
X161408331Y-90089753D01*
X161809753Y-89688331D01*
X162027000Y-89163848D01*
X162027000Y-88596152D01*
X161809753Y-88071669D01*
X161408331Y-87670247D01*
X161262881Y-87610000D01*
X161408331Y-87549753D01*
X161809753Y-87148331D01*
X162027000Y-86623848D01*
X162027000Y-86056152D01*
X161809753Y-85531669D01*
X161408331Y-85130247D01*
X161262881Y-85070000D01*
X161408331Y-85009753D01*
X161809753Y-84608331D01*
X162027000Y-84083848D01*
X162027000Y-83516152D01*
X161809753Y-82991669D01*
X161408331Y-82590247D01*
X161262881Y-82530000D01*
X161408331Y-82469753D01*
X161809753Y-82068331D01*
X162027000Y-81543848D01*
X162027000Y-80976152D01*
X161993312Y-80894821D01*
X163563441Y-79324692D01*
X163624136Y-79284137D01*
X163664692Y-79223441D01*
X163664694Y-79223439D01*
X163784818Y-79043661D01*
X163792775Y-79003660D01*
X163827000Y-78831599D01*
X163827000Y-78831595D01*
X163841241Y-78760000D01*
X163827000Y-78688405D01*
X163827000Y-71743562D01*
X171229100Y-71743562D01*
X171229100Y-72746438D01*
X171612884Y-73672975D01*
X172322025Y-74382116D01*
X173248562Y-74765900D01*
X174251438Y-74765900D01*
X175177975Y-74382116D01*
X175887116Y-73672975D01*
X176270900Y-72746438D01*
X176270900Y-71743562D01*
X175887116Y-70817025D01*
X175177975Y-70107884D01*
X174251438Y-69724100D01*
X173248562Y-69724100D01*
X172322025Y-70107884D01*
X171612884Y-70817025D01*
X171229100Y-71743562D01*
X163827000Y-71743562D01*
X163827000Y-69690963D01*
X170133642Y-69690963D01*
X170249806Y-69972658D01*
X170911333Y-70223062D01*
X171618329Y-70201249D01*
X172170194Y-69972658D01*
X172286358Y-69690963D01*
X171210000Y-68614605D01*
X170133642Y-69690963D01*
X163827000Y-69690963D01*
X163827000Y-68136333D01*
X169421938Y-68136333D01*
X169443751Y-68843329D01*
X169672342Y-69395194D01*
X169954037Y-69511358D01*
X171030395Y-68435000D01*
X169954037Y-67358642D01*
X169672342Y-67474806D01*
X169421938Y-68136333D01*
X163827000Y-68136333D01*
X163827000Y-67179037D01*
X170133642Y-67179037D01*
X171210000Y-68255395D01*
X171224143Y-68241253D01*
X171403748Y-68420858D01*
X171389605Y-68435000D01*
X172465963Y-69511358D01*
X172747658Y-69395194D01*
X172998062Y-68733667D01*
X172985914Y-68339934D01*
X173475919Y-68542900D01*
X174024081Y-68542900D01*
X174530518Y-68333128D01*
X174918128Y-67945518D01*
X175127900Y-67439081D01*
X175127900Y-66890919D01*
X174918128Y-66384482D01*
X174530518Y-65996872D01*
X174024081Y-65787100D01*
X173475919Y-65787100D01*
X172969482Y-65996872D01*
X172581872Y-66384482D01*
X172372100Y-66890919D01*
X172372100Y-67093292D01*
X172286357Y-67179035D01*
X172170194Y-66897342D01*
X171508667Y-66646938D01*
X170801671Y-66668751D01*
X170249806Y-66897342D01*
X170133642Y-67179037D01*
X163827000Y-67179037D01*
X163827000Y-65921132D01*
X164901133Y-64847000D01*
X173778405Y-64847000D01*
X173850000Y-64861241D01*
X173921595Y-64847000D01*
X173921599Y-64847000D01*
X174133661Y-64804818D01*
X174374137Y-64644137D01*
X174414696Y-64583436D01*
X177780442Y-61217691D01*
X177783602Y-61219000D01*
X178296398Y-61219000D01*
X178770160Y-61022761D01*
X178882708Y-60910213D01*
X179779392Y-60910213D01*
X179848857Y-61152397D01*
X180372302Y-61339144D01*
X180927368Y-61311362D01*
X181311143Y-61152397D01*
X181380608Y-60910213D01*
X180580000Y-60109605D01*
X179779392Y-60910213D01*
X178882708Y-60910213D01*
X179132761Y-60660160D01*
X179244978Y-60389244D01*
X179357603Y-60661143D01*
X179599787Y-60730608D01*
X180400395Y-59930000D01*
X180759605Y-59930000D01*
X181560213Y-60730608D01*
X181802397Y-60661143D01*
X181989144Y-60137698D01*
X181961362Y-59582632D01*
X181802397Y-59198857D01*
X181560213Y-59129392D01*
X180759605Y-59930000D01*
X180400395Y-59930000D01*
X179599787Y-59129392D01*
X179357603Y-59198857D01*
X179253371Y-59491017D01*
X179132761Y-59199840D01*
X178882708Y-58949787D01*
X179779392Y-58949787D01*
X180580000Y-59750395D01*
X181380608Y-58949787D01*
X181311143Y-58707603D01*
X180787698Y-58520856D01*
X180232632Y-58548638D01*
X179848857Y-58707603D01*
X179779392Y-58949787D01*
X178882708Y-58949787D01*
X178770160Y-58837239D01*
X178296398Y-58641000D01*
X177783602Y-58641000D01*
X177309840Y-58837239D01*
X176947239Y-59199840D01*
X176770000Y-59627732D01*
X176592761Y-59199840D01*
X176230160Y-58837239D01*
X175756398Y-58641000D01*
X175707000Y-58641000D01*
X175707000Y-54295201D01*
X175731685Y-54284976D01*
X176104976Y-53911685D01*
X176307000Y-53423957D01*
X176307000Y-52896043D01*
X176183052Y-52596805D01*
X179973000Y-52596805D01*
X179973000Y-53403195D01*
X180281593Y-54148203D01*
X180851797Y-54718407D01*
X181596805Y-55027000D01*
X182403195Y-55027000D01*
X183148203Y-54718407D01*
X183718407Y-54148203D01*
X184027000Y-53403195D01*
X184027000Y-52596805D01*
X183718407Y-51851797D01*
X183148203Y-51281593D01*
X182403195Y-50973000D01*
X181596805Y-50973000D01*
X180851797Y-51281593D01*
X180281593Y-51851797D01*
X179973000Y-52596805D01*
X176183052Y-52596805D01*
X176104976Y-52408315D01*
X175731685Y-52035024D01*
X175243957Y-51833000D01*
X174716043Y-51833000D01*
X174228315Y-52035024D01*
X173855024Y-52408315D01*
X173653000Y-52896043D01*
X173653000Y-53423957D01*
X173855024Y-53911685D01*
X174228315Y-54284976D01*
X174253000Y-54295201D01*
X174253000Y-54598923D01*
X174093848Y-54533000D01*
X173526152Y-54533000D01*
X173001669Y-54750247D01*
X172600247Y-55151669D01*
X172540000Y-55297119D01*
X172479753Y-55151669D01*
X172078331Y-54750247D01*
X171553848Y-54533000D01*
X170986152Y-54533000D01*
X170461669Y-54750247D01*
X170066210Y-55145706D01*
X169810159Y-55059446D01*
X168909605Y-55960000D01*
X168923748Y-55974143D01*
X168744143Y-56153748D01*
X168730000Y-56139605D01*
X167829446Y-57040159D01*
X167915852Y-57296643D01*
X168489336Y-57506458D01*
X168704441Y-57497426D01*
X164358867Y-61843001D01*
X161867324Y-61843001D01*
X161867324Y-61270000D01*
X161826423Y-61064375D01*
X161807000Y-61035307D01*
X161807000Y-60643751D01*
X161923145Y-60566145D01*
X162039623Y-60391825D01*
X162080524Y-60186200D01*
X162080524Y-59271800D01*
X162039623Y-59066175D01*
X161923145Y-58891855D01*
X161845539Y-58840000D01*
X161923145Y-58788145D01*
X161996742Y-58678000D01*
X163117405Y-58678000D01*
X163189000Y-58692241D01*
X163260595Y-58678000D01*
X163260599Y-58678000D01*
X163472661Y-58635818D01*
X163713137Y-58475137D01*
X163753696Y-58414436D01*
X166448796Y-55719336D01*
X167183542Y-55719336D01*
X167209161Y-56329460D01*
X167393357Y-56774148D01*
X167649841Y-56860554D01*
X168550395Y-55960000D01*
X167649841Y-55059446D01*
X167393357Y-55145852D01*
X167183542Y-55719336D01*
X166448796Y-55719336D01*
X167288291Y-54879841D01*
X167829446Y-54879841D01*
X168730000Y-55780395D01*
X169630554Y-54879841D01*
X169544148Y-54623357D01*
X168970664Y-54413542D01*
X168360540Y-54439161D01*
X167915852Y-54623357D01*
X167829446Y-54879841D01*
X167288291Y-54879841D01*
X167691358Y-54476775D01*
X167716043Y-54487000D01*
X168243957Y-54487000D01*
X168731685Y-54284976D01*
X169104976Y-53911685D01*
X169307000Y-53423957D01*
X169307000Y-52896043D01*
X169104976Y-52408315D01*
X168731685Y-52035024D01*
X168243957Y-51833000D01*
X167716043Y-51833000D01*
X167228315Y-52035024D01*
X166855024Y-52408315D01*
X166653000Y-52896043D01*
X166653000Y-53423957D01*
X166663225Y-53448642D01*
X162887868Y-57224000D01*
X161996742Y-57224000D01*
X161923145Y-57113855D01*
X161748825Y-56997377D01*
X161543200Y-56956476D01*
X160628800Y-56956476D01*
X160423175Y-56997377D01*
X160248855Y-57113855D01*
X160132377Y-57288175D01*
X160091476Y-57493800D01*
X160091476Y-58408200D01*
X160132377Y-58613825D01*
X160248855Y-58788145D01*
X160326461Y-58840000D01*
X160248855Y-58891855D01*
X160132377Y-59066175D01*
X160091476Y-59271800D01*
X160091476Y-60186200D01*
X160132377Y-60391825D01*
X160248855Y-60566145D01*
X160353001Y-60635733D01*
X160353000Y-61035306D01*
X160333577Y-61064375D01*
X160330000Y-61082358D01*
X160326423Y-61064375D01*
X160209945Y-60890055D01*
X160035625Y-60773577D01*
X159830000Y-60732676D01*
X159330000Y-60732676D01*
X159124375Y-60773577D01*
X158950055Y-60890055D01*
X158881269Y-60993000D01*
X150691595Y-60993000D01*
X150620000Y-60978759D01*
X150548405Y-60993000D01*
X150548401Y-60993000D01*
X150336339Y-61035182D01*
X150095863Y-61195863D01*
X150055306Y-61256561D01*
X147226562Y-64085306D01*
X147165863Y-64125864D01*
X147005182Y-64366340D01*
X146963000Y-64578402D01*
X146963000Y-64578405D01*
X146948759Y-64650000D01*
X146963000Y-64721595D01*
X146963001Y-76088865D01*
X146787000Y-76264866D01*
X146787000Y-75896152D01*
X146569753Y-75371669D01*
X146168331Y-74970247D01*
X146022881Y-74910000D01*
X146168331Y-74849753D01*
X146569753Y-74448331D01*
X146787000Y-73923848D01*
X146787000Y-73356152D01*
X146569753Y-72831669D01*
X146168331Y-72430247D01*
X146022881Y-72370000D01*
X146168331Y-72309753D01*
X146569753Y-71908331D01*
X146787000Y-71383848D01*
X146787000Y-70816152D01*
X146569753Y-70291669D01*
X146168331Y-69890247D01*
X146022881Y-69830000D01*
X146168331Y-69769753D01*
X146569753Y-69368331D01*
X146787000Y-68843848D01*
X146787000Y-68276152D01*
X146569753Y-67751669D01*
X146168331Y-67350247D01*
X146022881Y-67290000D01*
X146168331Y-67229753D01*
X146569753Y-66828331D01*
X146787000Y-66303848D01*
X146787000Y-65736152D01*
X146569753Y-65211669D01*
X146168331Y-64810247D01*
X145643848Y-64593000D01*
X145076152Y-64593000D01*
X144551669Y-64810247D01*
X144268916Y-65093000D01*
X141896703Y-65093000D01*
X141852762Y-65027238D01*
X141397279Y-64722894D01*
X140995623Y-64643000D01*
X140724377Y-64643000D01*
X140322721Y-64722894D01*
X139867238Y-65027238D01*
X139562894Y-65482721D01*
X139456023Y-66020000D01*
X139562894Y-66557279D01*
X139867238Y-67012762D01*
X140282154Y-67290000D01*
X139867238Y-67567238D01*
X139562894Y-68022721D01*
X139456023Y-68560000D01*
X139562894Y-69097279D01*
X139867238Y-69552762D01*
X140282154Y-69830000D01*
X139867238Y-70107238D01*
X139562894Y-70562721D01*
X139456023Y-71100000D01*
X139562894Y-71637279D01*
X139867238Y-72092762D01*
X140282154Y-72370000D01*
X139867238Y-72647238D01*
X139562894Y-73102721D01*
X139456023Y-73640000D01*
X139562894Y-74177279D01*
X139867238Y-74632762D01*
X140106566Y-74792676D01*
X140010000Y-74792676D01*
X139804375Y-74833577D01*
X139630055Y-74950055D01*
X139513577Y-75124375D01*
X139472676Y-75330000D01*
X139472676Y-77030000D01*
X139513577Y-77235625D01*
X139630055Y-77409945D01*
X139804375Y-77526423D01*
X140010000Y-77567324D01*
X141710000Y-77567324D01*
X141915625Y-77526423D01*
X142089945Y-77409945D01*
X142206423Y-77235625D01*
X142232008Y-77107000D01*
X144268916Y-77107000D01*
X144551669Y-77389753D01*
X144697119Y-77450000D01*
X144551669Y-77510247D01*
X144150247Y-77911669D01*
X143933000Y-78436152D01*
X143933000Y-79003848D01*
X144150247Y-79528331D01*
X144551669Y-79929753D01*
X144697119Y-79990000D01*
X144551669Y-80050247D01*
X144150247Y-80451669D01*
X143933000Y-80976152D01*
X143933000Y-81543848D01*
X144150247Y-82068331D01*
X144551669Y-82469753D01*
X144697119Y-82530000D01*
X144551669Y-82590247D01*
X144150247Y-82991669D01*
X143933000Y-83516152D01*
X143933000Y-84083848D01*
X144150247Y-84608331D01*
X144551669Y-85009753D01*
X144697119Y-85070000D01*
X144551669Y-85130247D01*
X144150247Y-85531669D01*
X143933000Y-86056152D01*
X143933000Y-86623848D01*
X144150247Y-87148331D01*
X144551669Y-87549753D01*
X144697119Y-87610000D01*
X144551669Y-87670247D01*
X144150247Y-88071669D01*
X143933000Y-88596152D01*
X143933000Y-89163848D01*
X144150247Y-89688331D01*
X144551669Y-90089753D01*
X144697119Y-90150000D01*
X144551669Y-90210247D01*
X144150247Y-90611669D01*
X143933000Y-91136152D01*
X143933000Y-91703848D01*
X144150247Y-92228331D01*
X144551669Y-92629753D01*
X144697119Y-92690000D01*
X144551669Y-92750247D01*
X144150247Y-93151669D01*
X143933000Y-93676152D01*
X143933000Y-94243848D01*
X144150247Y-94768331D01*
X144551669Y-95169753D01*
X144697119Y-95230000D01*
X144551669Y-95290247D01*
X144150247Y-95691669D01*
X143933000Y-96216152D01*
X143933000Y-96584867D01*
X136567000Y-89218868D01*
X136567000Y-89135608D01*
X136425873Y-88794897D01*
X136367000Y-88736024D01*
X136367000Y-72171595D01*
X136381241Y-72100000D01*
X136367000Y-72028405D01*
X136367000Y-72028401D01*
X136324818Y-71816339D01*
X136306175Y-71788438D01*
X136204695Y-71636561D01*
X136204690Y-71636556D01*
X136164136Y-71575863D01*
X136103443Y-71535309D01*
X135429696Y-70861564D01*
X135389137Y-70800863D01*
X135148661Y-70640182D01*
X134936599Y-70598000D01*
X134936595Y-70598000D01*
X134865000Y-70583759D01*
X134793405Y-70598000D01*
X134287044Y-70598000D01*
X134287044Y-70512500D01*
X134246143Y-70306875D01*
X134217000Y-70263260D01*
X134217000Y-69025608D01*
X136363000Y-69025608D01*
X136363000Y-69394392D01*
X136504127Y-69735103D01*
X136764897Y-69995873D01*
X137105608Y-70137000D01*
X137474392Y-70137000D01*
X137815103Y-69995873D01*
X138075873Y-69735103D01*
X138217000Y-69394392D01*
X138217000Y-69025608D01*
X138075873Y-68684897D01*
X137815103Y-68424127D01*
X137474392Y-68283000D01*
X137105608Y-68283000D01*
X136764897Y-68424127D01*
X136504127Y-68684897D01*
X136363000Y-69025608D01*
X134217000Y-69025608D01*
X134217000Y-66023976D01*
X134275873Y-65965103D01*
X134417000Y-65624392D01*
X134417000Y-65255608D01*
X134275873Y-64914897D01*
X134015103Y-64654127D01*
X133902761Y-64607593D01*
X134099986Y-64410368D01*
X136363000Y-64410368D01*
X136363000Y-64779152D01*
X136504127Y-65119863D01*
X136764897Y-65380633D01*
X137105608Y-65521760D01*
X137474392Y-65521760D01*
X137815103Y-65380633D01*
X138075873Y-65119863D01*
X138217000Y-64779152D01*
X138217000Y-64410368D01*
X138075873Y-64069657D01*
X137815103Y-63808887D01*
X137474392Y-63667760D01*
X137105608Y-63667760D01*
X136764897Y-63808887D01*
X136504127Y-64069657D01*
X136363000Y-64410368D01*
X134099986Y-64410368D01*
X137570354Y-60940000D01*
X139456023Y-60940000D01*
X139562894Y-61477279D01*
X139867238Y-61932762D01*
X140322721Y-62237106D01*
X140724377Y-62317000D01*
X140995623Y-62317000D01*
X141397279Y-62237106D01*
X141852762Y-61932762D01*
X142157106Y-61477279D01*
X142263977Y-60940000D01*
X142157106Y-60402721D01*
X141852762Y-59947238D01*
X141397279Y-59642894D01*
X140995623Y-59563000D01*
X140724377Y-59563000D01*
X140322721Y-59642894D01*
X139867238Y-59947238D01*
X139562894Y-60402721D01*
X139456023Y-60940000D01*
X137570354Y-60940000D01*
X142563442Y-55946913D01*
X142624137Y-55906358D01*
X142664693Y-55845662D01*
X142664695Y-55845660D01*
X142710759Y-55776720D01*
X142784819Y-55665882D01*
X142827001Y-55453820D01*
X142827001Y-55453816D01*
X142841242Y-55382222D01*
X142827001Y-55310628D01*
X142827001Y-54687000D01*
X143403739Y-54687000D01*
X143964976Y-54454528D01*
X144106972Y-54312532D01*
X162127073Y-54312532D01*
X162225736Y-54579387D01*
X162835461Y-54805908D01*
X163485460Y-54781856D01*
X163974264Y-54579387D01*
X164072927Y-54312532D01*
X163100000Y-53339605D01*
X162127073Y-54312532D01*
X144106972Y-54312532D01*
X144394528Y-54024976D01*
X144627000Y-53463739D01*
X144627000Y-52895461D01*
X161454092Y-52895461D01*
X161478144Y-53545460D01*
X161680613Y-54034264D01*
X161947468Y-54132927D01*
X162920395Y-53160000D01*
X163279605Y-53160000D01*
X164252532Y-54132927D01*
X164519387Y-54034264D01*
X164745908Y-53424539D01*
X164721856Y-52774540D01*
X164519387Y-52285736D01*
X164252532Y-52187073D01*
X163279605Y-53160000D01*
X162920395Y-53160000D01*
X161947468Y-52187073D01*
X161680613Y-52285736D01*
X161454092Y-52895461D01*
X144627000Y-52895461D01*
X144627000Y-52856261D01*
X144394528Y-52295024D01*
X144106972Y-52007468D01*
X162127073Y-52007468D01*
X163100000Y-52980395D01*
X164072927Y-52007468D01*
X163974264Y-51740613D01*
X163364539Y-51514092D01*
X162714540Y-51538144D01*
X162225736Y-51740613D01*
X162127073Y-52007468D01*
X144106972Y-52007468D01*
X143964976Y-51865472D01*
X143403739Y-51633000D01*
X142796261Y-51633000D01*
X142235024Y-51865472D01*
X141805472Y-52295024D01*
X141573000Y-52856261D01*
X141573000Y-53463739D01*
X141629462Y-53600050D01*
X141575865Y-53635862D01*
X141535308Y-53696560D01*
X141535307Y-53696561D01*
X141415183Y-53876339D01*
X141358760Y-54159999D01*
X141373002Y-54231598D01*
X141373001Y-55081088D01*
X134287044Y-62167046D01*
X134287044Y-61387500D01*
X134246143Y-61181875D01*
X134129665Y-61007555D01*
X133955345Y-60891077D01*
X133749720Y-60850176D01*
X133150280Y-60850176D01*
X132944655Y-60891077D01*
X132901353Y-60920011D01*
X132864818Y-60736339D01*
X132821321Y-60671241D01*
X132744694Y-60556561D01*
X132744692Y-60556559D01*
X132704136Y-60495863D01*
X132643440Y-60455307D01*
X132505034Y-60316901D01*
X132524137Y-60304137D01*
X132564696Y-60243436D01*
X133581133Y-59227000D01*
X133664392Y-59227000D01*
X134005103Y-59085873D01*
X134265873Y-58825103D01*
X134407000Y-58484392D01*
X134407000Y-58115608D01*
X134265873Y-57774897D01*
X134005103Y-57514127D01*
X133664392Y-57373000D01*
X133295608Y-57373000D01*
X132954897Y-57514127D01*
X132694127Y-57774897D01*
X132553000Y-58115608D01*
X132553000Y-58198867D01*
X131722696Y-59029172D01*
X131719945Y-59025055D01*
X131545625Y-58908577D01*
X131340000Y-58867676D01*
X130540000Y-58867676D01*
X130334375Y-58908577D01*
X130160055Y-59025055D01*
X130043577Y-59199375D01*
X130002676Y-59405000D01*
X130002676Y-60155000D01*
X130043577Y-60360625D01*
X130160055Y-60534945D01*
X130334375Y-60651423D01*
X130540000Y-60692324D01*
X130824192Y-60692324D01*
X130982044Y-60850176D01*
X130610280Y-60850176D01*
X130404655Y-60891077D01*
X130275000Y-60977711D01*
X130145345Y-60891077D01*
X129939720Y-60850176D01*
X129340280Y-60850176D01*
X129134655Y-60891077D01*
X128960335Y-61007555D01*
X128843857Y-61181875D01*
X128802956Y-61387500D01*
X128802956Y-63012500D01*
X128824936Y-63123000D01*
X122871593Y-63123000D01*
X122799999Y-63108759D01*
X122728405Y-63123000D01*
X122728401Y-63123000D01*
X122516339Y-63165182D01*
X122275863Y-63325863D01*
X122235305Y-63386562D01*
X120926562Y-64695306D01*
X120865863Y-64735864D01*
X120705182Y-64976340D01*
X120676074Y-65122676D01*
X120540000Y-65122676D01*
X120334375Y-65163577D01*
X120160055Y-65280055D01*
X120043577Y-65454375D01*
X120002676Y-65660000D01*
X120002676Y-67360000D01*
X120043577Y-67565625D01*
X120160055Y-67739945D01*
X120334375Y-67856423D01*
X120540000Y-67897324D01*
X122240000Y-67897324D01*
X122445625Y-67856423D01*
X122619945Y-67739945D01*
X122736423Y-67565625D01*
X122777324Y-67360000D01*
X122777324Y-65660000D01*
X122736423Y-65454375D01*
X122619945Y-65280055D01*
X122486946Y-65191187D01*
X123101133Y-64577000D01*
X130880865Y-64577000D01*
X130446562Y-65011304D01*
X130385864Y-65051861D01*
X130345307Y-65112559D01*
X130345306Y-65112560D01*
X130225182Y-65292338D01*
X130168759Y-65575998D01*
X130183001Y-65647598D01*
X130183000Y-70203396D01*
X130113857Y-70306875D01*
X130072956Y-70512500D01*
X130072956Y-72137500D01*
X130113857Y-72343125D01*
X130230335Y-72517445D01*
X130404655Y-72633923D01*
X130610280Y-72674824D01*
X131209720Y-72674824D01*
X131415345Y-72633923D01*
X131453000Y-72608762D01*
X131453001Y-74208402D01*
X131438759Y-74280002D01*
X131495182Y-74563662D01*
X131606326Y-74730000D01*
X131655864Y-74804139D01*
X131716562Y-74844696D01*
X132315304Y-75443439D01*
X132355862Y-75504138D01*
X132596338Y-75664819D01*
X132753738Y-75696128D01*
X132765182Y-75753660D01*
X132925863Y-75994136D01*
X132986562Y-76034694D01*
X134043001Y-77091134D01*
X134043000Y-89234868D01*
X132264734Y-87456602D01*
X132224175Y-87395901D01*
X131983699Y-87235220D01*
X131771637Y-87193038D01*
X131771633Y-87193038D01*
X131700038Y-87178797D01*
X131628443Y-87193038D01*
X128381903Y-87193038D01*
X128330000Y-87182714D01*
X126349697Y-87182714D01*
X126330000Y-87178796D01*
X126310303Y-87182714D01*
X124330000Y-87182714D01*
X124124375Y-87223615D01*
X123950055Y-87340093D01*
X123833577Y-87514413D01*
X123792676Y-87720038D01*
X123792676Y-88120038D01*
X123822512Y-88270037D01*
X123792676Y-88420036D01*
X123792676Y-88820036D01*
X123822512Y-88970035D01*
X123792676Y-89120034D01*
X123792676Y-89520034D01*
X123833577Y-89725659D01*
X123950055Y-89899979D01*
X124124375Y-90016457D01*
X124330000Y-90057358D01*
X128116382Y-90057358D01*
X128174897Y-90115873D01*
X128515608Y-90257000D01*
X128884392Y-90257000D01*
X129225103Y-90115873D01*
X129485873Y-89855103D01*
X129627000Y-89514392D01*
X129627000Y-89145608D01*
X129485873Y-88804897D01*
X129328014Y-88647038D01*
X131398906Y-88647038D01*
X134144893Y-91393026D01*
X128381903Y-91393026D01*
X128330000Y-91382702D01*
X124330000Y-91382702D01*
X124124375Y-91423603D01*
X123950055Y-91540081D01*
X123833577Y-91714401D01*
X123792676Y-91920026D01*
X123792676Y-92320026D01*
X123833577Y-92525651D01*
X123950055Y-92699971D01*
X124124375Y-92816449D01*
X124330000Y-92857350D01*
X128330000Y-92857350D01*
X128381903Y-92847026D01*
X134088894Y-92847026D01*
X137853000Y-96611133D01*
X137853000Y-96694392D01*
X137994127Y-97035103D01*
X138254897Y-97295873D01*
X138595608Y-97437000D01*
X138964392Y-97437000D01*
X139305103Y-97295873D01*
X139565873Y-97035103D01*
X139630631Y-96878764D01*
X143966688Y-101214822D01*
X143933000Y-101296152D01*
X143933000Y-101863848D01*
X144150247Y-102388331D01*
X144551669Y-102789753D01*
X144697119Y-102850000D01*
X144551669Y-102910247D01*
X144150247Y-103311669D01*
X143933000Y-103836152D01*
X143933000Y-104403848D01*
X144150247Y-104928331D01*
X144551669Y-105329753D01*
X144697119Y-105390000D01*
X144551669Y-105450247D01*
X144150247Y-105851669D01*
X143933000Y-106376152D01*
X143933000Y-106943848D01*
X144150247Y-107468331D01*
X144551669Y-107869753D01*
X144697119Y-107930000D01*
X144551669Y-107990247D01*
X144368916Y-108173000D01*
X142377976Y-108173000D01*
X142475873Y-108075103D01*
X142617000Y-107734392D01*
X142617000Y-107365608D01*
X142517000Y-107124186D01*
X142517000Y-103586442D01*
X142533200Y-103504998D01*
X142517000Y-103423554D01*
X142517000Y-103423550D01*
X142469016Y-103182319D01*
X142286233Y-102908765D01*
X142217184Y-102862628D01*
X133352374Y-93997819D01*
X133306235Y-93928767D01*
X133032681Y-93745984D01*
X132791450Y-93698000D01*
X132791446Y-93698000D01*
X132710002Y-93681800D01*
X132628558Y-93698000D01*
X130530572Y-93698000D01*
X130529157Y-93695883D01*
X130288681Y-93535202D01*
X130076619Y-93493020D01*
X130076615Y-93493020D01*
X130005020Y-93478779D01*
X129933425Y-93493020D01*
X128381903Y-93493020D01*
X128330000Y-93482696D01*
X124330000Y-93482696D01*
X124124375Y-93523597D01*
X123950055Y-93640075D01*
X123833577Y-93814395D01*
X123792676Y-94020020D01*
X123792676Y-94420020D01*
X123833577Y-94625645D01*
X123950055Y-94799965D01*
X124124375Y-94916443D01*
X124142348Y-94920018D01*
X124124375Y-94923593D01*
X123950055Y-95040071D01*
X123833577Y-95214391D01*
X123792676Y-95420016D01*
X123792676Y-95820016D01*
X123833577Y-96025641D01*
X123950055Y-96199961D01*
X124124375Y-96316439D01*
X124142348Y-96320014D01*
X124124375Y-96323589D01*
X123950055Y-96440067D01*
X123833577Y-96614387D01*
X123792676Y-96820012D01*
X123792676Y-97220012D01*
X123822512Y-97370011D01*
X123792676Y-97520010D01*
X123792676Y-97920010D01*
X123822512Y-98070009D01*
X123792676Y-98220008D01*
X123792676Y-98620008D01*
X123822512Y-98770007D01*
X123792676Y-98920006D01*
X123792676Y-99320006D01*
X123822512Y-99470005D01*
X123792676Y-99620004D01*
X123792676Y-100020004D01*
X123822512Y-100170003D01*
X123792676Y-100320002D01*
X123792676Y-100720002D01*
X123833577Y-100925627D01*
X123950055Y-101099947D01*
X124124375Y-101216425D01*
X124330000Y-101257326D01*
X128330000Y-101257326D01*
X128381903Y-101247002D01*
X128875328Y-101247002D01*
X128991762Y-101363436D01*
X129032321Y-101424137D01*
X129272797Y-101584818D01*
X129383757Y-101606889D01*
X129567676Y-101790809D01*
X129567676Y-102100000D01*
X129608577Y-102305625D01*
X129725055Y-102479945D01*
X129899375Y-102596423D01*
X130105000Y-102637324D01*
X130855000Y-102637324D01*
X131060625Y-102596423D01*
X131234945Y-102479945D01*
X131351423Y-102305625D01*
X131392324Y-102100000D01*
X131392324Y-101300000D01*
X131351423Y-101094375D01*
X131254954Y-100950000D01*
X131350527Y-100806965D01*
X131499375Y-100906423D01*
X131705000Y-100947324D01*
X132455000Y-100947324D01*
X132660625Y-100906423D01*
X132834945Y-100789945D01*
X132951423Y-100615625D01*
X132992324Y-100410000D01*
X132992324Y-99610000D01*
X132951423Y-99404375D01*
X132854954Y-99260000D01*
X132951423Y-99115625D01*
X132992324Y-98910000D01*
X132992324Y-98110000D01*
X132951423Y-97904375D01*
X132834945Y-97730055D01*
X132660625Y-97613577D01*
X132455000Y-97572676D01*
X131705000Y-97572676D01*
X131499375Y-97613577D01*
X131448270Y-97647725D01*
X131486423Y-97590625D01*
X131527324Y-97385000D01*
X131527324Y-96635000D01*
X131486423Y-96429375D01*
X131388295Y-96282517D01*
X131476423Y-96150625D01*
X131517324Y-95945000D01*
X131517324Y-95352000D01*
X132367449Y-95352000D01*
X140863001Y-103847553D01*
X140863000Y-107124186D01*
X140763000Y-107365608D01*
X140763000Y-107734392D01*
X140904127Y-108075103D01*
X141002024Y-108173000D01*
X140678850Y-108173000D01*
X140379285Y-108232587D01*
X140039574Y-108459574D01*
X139812587Y-108799285D01*
X139798396Y-108870628D01*
X137266025Y-111403000D01*
X126742161Y-111403000D01*
X126876594Y-110900334D01*
X126886423Y-110885625D01*
X126927324Y-110680000D01*
X126927324Y-108680000D01*
X126886423Y-108474375D01*
X126769945Y-108300055D01*
X126595625Y-108183577D01*
X126390000Y-108142676D01*
X122590000Y-108142676D01*
X122384375Y-108183577D01*
X122210055Y-108300055D01*
X122093577Y-108474375D01*
X122052676Y-108680000D01*
X122052676Y-110680000D01*
X122093577Y-110885625D01*
X122103406Y-110900334D01*
X123202676Y-115010650D01*
X123202676Y-116980000D01*
X123237023Y-117152676D01*
X123130000Y-117152676D01*
X122924375Y-117193577D01*
X122790000Y-117283364D01*
X122655625Y-117193577D01*
X122450000Y-117152676D01*
X121950000Y-117152676D01*
X121744375Y-117193577D01*
X121570055Y-117310055D01*
X121453577Y-117484375D01*
X121412676Y-117690000D01*
X121412676Y-117859088D01*
X121356799Y-118140000D01*
X121412676Y-118420912D01*
X121412676Y-118590000D01*
X121453577Y-118795625D01*
X121570055Y-118969945D01*
X121744375Y-119086423D01*
X121950000Y-119127324D01*
X122450000Y-119127324D01*
X122655625Y-119086423D01*
X122790000Y-118996636D01*
X122924375Y-119086423D01*
X123130000Y-119127324D01*
X123630000Y-119127324D01*
X123835625Y-119086423D01*
X124009945Y-118969945D01*
X124053001Y-118905508D01*
X124053001Y-118962950D01*
X123960055Y-119025055D01*
X123843577Y-119199375D01*
X123802676Y-119405000D01*
X123802676Y-120155000D01*
X123843577Y-120360625D01*
X123960055Y-120534945D01*
X124020001Y-120575000D01*
X123960055Y-120615055D01*
X123843577Y-120789375D01*
X123802676Y-120995000D01*
X123802676Y-121330601D01*
X123794839Y-121370000D01*
X123802676Y-121409399D01*
X123802676Y-121745000D01*
X123813000Y-121796905D01*
X123813001Y-122161023D01*
X122356355Y-123617670D01*
X113602000Y-123641395D01*
X113602000Y-104726913D01*
X121843000Y-104726913D01*
X121843000Y-105573087D01*
X122166817Y-106354848D01*
X122765152Y-106953183D01*
X123546913Y-107277000D01*
X124393087Y-107277000D01*
X125174848Y-106953183D01*
X125773183Y-106354848D01*
X126097000Y-105573087D01*
X126097000Y-104726913D01*
X125773183Y-103945152D01*
X125174848Y-103346817D01*
X124393087Y-103023000D01*
X123546913Y-103023000D01*
X122765152Y-103346817D01*
X122166817Y-103945152D01*
X121843000Y-104726913D01*
X113602000Y-104726913D01*
X113602000Y-81919608D01*
X119053000Y-81919608D01*
X119053001Y-100220393D01*
X119141599Y-100665806D01*
X119479096Y-101170905D01*
X119984195Y-101508402D01*
X120580000Y-101626915D01*
X121175806Y-101508402D01*
X121680905Y-101170905D01*
X122018402Y-100665806D01*
X122107000Y-100220393D01*
X122107000Y-82120054D01*
X123792676Y-82120054D01*
X123792676Y-82520054D01*
X123822512Y-82670053D01*
X123792676Y-82820052D01*
X123792676Y-83220052D01*
X123822512Y-83370051D01*
X123792676Y-83520050D01*
X123792676Y-83920050D01*
X123833577Y-84125675D01*
X123950055Y-84299995D01*
X124124375Y-84416473D01*
X124330000Y-84457374D01*
X128330000Y-84457374D01*
X128381903Y-84447050D01*
X128816067Y-84447050D01*
X128853577Y-84635625D01*
X128970055Y-84809945D01*
X129144375Y-84926423D01*
X129350000Y-84967324D01*
X130250000Y-84967324D01*
X130455625Y-84926423D01*
X130629945Y-84809945D01*
X130706250Y-84695747D01*
X130865000Y-84727324D01*
X131615000Y-84727324D01*
X131820625Y-84686423D01*
X131994945Y-84569945D01*
X132111423Y-84395625D01*
X132152324Y-84190000D01*
X132152324Y-83390000D01*
X132111423Y-83184375D01*
X131994945Y-83010055D01*
X131820625Y-82893577D01*
X131615000Y-82852676D01*
X131330808Y-82852676D01*
X131034748Y-82556616D01*
X130994189Y-82495915D01*
X130753713Y-82335234D01*
X130712324Y-82327001D01*
X130712324Y-81570000D01*
X130671423Y-81364375D01*
X130554945Y-81190055D01*
X130380625Y-81073577D01*
X130175000Y-81032676D01*
X129425000Y-81032676D01*
X129219375Y-81073577D01*
X129045055Y-81190055D01*
X128928577Y-81364375D01*
X128887676Y-81570000D01*
X128887676Y-81593054D01*
X128381903Y-81593054D01*
X128330000Y-81582730D01*
X124330000Y-81582730D01*
X124124375Y-81623631D01*
X123950055Y-81740109D01*
X123833577Y-81914429D01*
X123792676Y-82120054D01*
X122107000Y-82120054D01*
X122107000Y-81919607D01*
X122018402Y-81474194D01*
X121680905Y-80969095D01*
X121175805Y-80631598D01*
X120580000Y-80513085D01*
X119984194Y-80631598D01*
X119479095Y-80969095D01*
X119141598Y-81474195D01*
X119053000Y-81919608D01*
X113602000Y-81919608D01*
X113602000Y-74726913D01*
X121843000Y-74726913D01*
X121843000Y-75573087D01*
X122166817Y-76354848D01*
X122765152Y-76953183D01*
X123546913Y-77277000D01*
X124393087Y-77277000D01*
X125174848Y-76953183D01*
X125773183Y-76354848D01*
X126097000Y-75573087D01*
X126097000Y-74726913D01*
X125773183Y-73945152D01*
X125174848Y-73346817D01*
X124393087Y-73023000D01*
X123546913Y-73023000D01*
X122765152Y-73346817D01*
X122166817Y-73945152D01*
X121843000Y-74726913D01*
X113602000Y-74726913D01*
X113602000Y-53034976D01*
X113653085Y-52596805D01*
X113973000Y-52596805D01*
X113973000Y-53403195D01*
X114281593Y-54148203D01*
X114851797Y-54718407D01*
X115596805Y-55027000D01*
X116403195Y-55027000D01*
X117148203Y-54718407D01*
X117718407Y-54148203D01*
X118027000Y-53403195D01*
X118027000Y-52596805D01*
X117718407Y-51851797D01*
X117148203Y-51281593D01*
X116403195Y-50973000D01*
X115596805Y-50973000D01*
X114851797Y-51281593D01*
X114281593Y-51851797D01*
X113973000Y-52596805D01*
X113653085Y-52596805D01*
X113670285Y-52449276D01*
X113859462Y-51928102D01*
X114163467Y-51464419D01*
X114565982Y-51083113D01*
X115045427Y-50804629D01*
X115583958Y-50641524D01*
X116026814Y-50602000D01*
X181965024Y-50602000D01*
X182550724Y-50670285D01*
X182550724Y-50670285D01*
G37*
X182550724Y-50670285D02*
X183071898Y-50859462D01*
X183535581Y-51163467D01*
X183916887Y-51565982D01*
X184195371Y-52045427D01*
X184358476Y-52583958D01*
X184398001Y-53026825D01*
X184398000Y-117273000D01*
X149522554Y-117273000D01*
X146787000Y-114537447D01*
X146787000Y-113996152D01*
X146569753Y-113471669D01*
X146174294Y-113076210D01*
X146260554Y-112820159D01*
X145360000Y-111919605D01*
X144459446Y-112820159D01*
X144545706Y-113076210D01*
X144150247Y-113471669D01*
X143933000Y-113996152D01*
X143933000Y-114563848D01*
X144150247Y-115088331D01*
X144551669Y-115489753D01*
X145076152Y-115707000D01*
X145617447Y-115707000D01*
X147183446Y-117273000D01*
X131458437Y-117273000D01*
X131409836Y-117282667D01*
X131368634Y-117310197D01*
X131341104Y-117351399D01*
X131331437Y-117400031D01*
X131332214Y-120543000D01*
X127730586Y-120543000D01*
X127735161Y-120520000D01*
X127717000Y-120428699D01*
X127717000Y-117482117D01*
X127745625Y-117476423D01*
X127919945Y-117359945D01*
X128036423Y-117185625D01*
X128077324Y-116980000D01*
X128077324Y-114980000D01*
X128036423Y-114774375D01*
X127919945Y-114600055D01*
X127745625Y-114483577D01*
X127540000Y-114442676D01*
X126040000Y-114442676D01*
X125923000Y-114465949D01*
X126071943Y-113909033D01*
X126723976Y-113257000D01*
X137558700Y-113257000D01*
X137650000Y-113275161D01*
X137741300Y-113257000D01*
X137741302Y-113257000D01*
X138011697Y-113203215D01*
X138318330Y-112998330D01*
X138370051Y-112920924D01*
X139791639Y-111499336D01*
X143813542Y-111499336D01*
X143839161Y-112109460D01*
X144023357Y-112554148D01*
X144279841Y-112640554D01*
X145180395Y-111740000D01*
X145539605Y-111740000D01*
X146440159Y-112640554D01*
X146696643Y-112554148D01*
X146906458Y-111980664D01*
X146880839Y-111370540D01*
X146696643Y-110925852D01*
X146440159Y-110839446D01*
X145539605Y-111740000D01*
X145180395Y-111740000D01*
X144279841Y-110839446D01*
X144023357Y-110925852D01*
X143813542Y-111499336D01*
X139791639Y-111499336D01*
X141063976Y-110227000D01*
X144368916Y-110227000D01*
X144545706Y-110403790D01*
X144459446Y-110659841D01*
X145360000Y-111560395D01*
X146260554Y-110659841D01*
X146174294Y-110403790D01*
X146569753Y-110008331D01*
X146787000Y-109483848D01*
X146787000Y-109225396D01*
X150344673Y-105667724D01*
X150374065Y-105648085D01*
X150666817Y-106354848D01*
X151265152Y-106953183D01*
X152046913Y-107277000D01*
X152893087Y-107277000D01*
X153674848Y-106953183D01*
X154273183Y-106354848D01*
X154597000Y-105573087D01*
X154597000Y-104726913D01*
X154273183Y-103945152D01*
X153674848Y-103346817D01*
X152893087Y-103023000D01*
X152046913Y-103023000D01*
X151265152Y-103346817D01*
X150717000Y-103894969D01*
X150717000Y-95555396D01*
X151285397Y-94987000D01*
X152478916Y-94987000D01*
X152661669Y-95169753D01*
X153186152Y-95387000D01*
X153753848Y-95387000D01*
X154278331Y-95169753D01*
X154679753Y-94768331D01*
X154897000Y-94243848D01*
X154897000Y-93676152D01*
X154679753Y-93151669D01*
X154278331Y-92750247D01*
X153753848Y-92533000D01*
X153186152Y-92533000D01*
X152661669Y-92750247D01*
X152478916Y-92933000D01*
X150961149Y-92933000D01*
X150860000Y-92912880D01*
X150758851Y-92933000D01*
X150758850Y-92933000D01*
X150459285Y-92992587D01*
X150119574Y-93219574D01*
X150062275Y-93305328D01*
X149035328Y-94332276D01*
X148949575Y-94389574D01*
X148753209Y-94683458D01*
X148722588Y-94729285D01*
X148642880Y-95130000D01*
X148663001Y-95231154D01*
X148663000Y-104444603D01*
X146770730Y-106336873D01*
X146569753Y-105851669D01*
X146168331Y-105450247D01*
X146022881Y-105390000D01*
X146168331Y-105329753D01*
X146569753Y-104928331D01*
X146787000Y-104403848D01*
X146787000Y-103836152D01*
X146569753Y-103311669D01*
X146168331Y-102910247D01*
X146022881Y-102850000D01*
X146168331Y-102789753D01*
X146569753Y-102388331D01*
X146787000Y-101863848D01*
X146787000Y-101296152D01*
X146569753Y-100771669D01*
X146168331Y-100370247D01*
X146022881Y-100310000D01*
X146168331Y-100249753D01*
X146569753Y-99848331D01*
X146787000Y-99323848D01*
X146787000Y-98756152D01*
X146569753Y-98231669D01*
X146168331Y-97830247D01*
X146022881Y-97770000D01*
X146168331Y-97709753D01*
X146569753Y-97308331D01*
X146787000Y-96783848D01*
X146787000Y-96216152D01*
X146569753Y-95691669D01*
X146168331Y-95290247D01*
X146022881Y-95230000D01*
X146168331Y-95169753D01*
X146569753Y-94768331D01*
X146787000Y-94243848D01*
X146787000Y-93676152D01*
X146569753Y-93151669D01*
X146168331Y-92750247D01*
X146022881Y-92690000D01*
X146168331Y-92629753D01*
X146569753Y-92228331D01*
X146787000Y-91703848D01*
X146787000Y-91136152D01*
X146569753Y-90611669D01*
X146168331Y-90210247D01*
X146022881Y-90150000D01*
X146168331Y-90089753D01*
X146569753Y-89688331D01*
X146787000Y-89163848D01*
X146787000Y-88596152D01*
X146569753Y-88071669D01*
X146168331Y-87670247D01*
X146022881Y-87610000D01*
X146168331Y-87549753D01*
X146569753Y-87148331D01*
X146787000Y-86623848D01*
X146787000Y-86056152D01*
X146569753Y-85531669D01*
X146168331Y-85130247D01*
X146022881Y-85070000D01*
X146168331Y-85009753D01*
X146569753Y-84608331D01*
X146787000Y-84083848D01*
X146787000Y-83516152D01*
X146569753Y-82991669D01*
X146168331Y-82590247D01*
X146022881Y-82530000D01*
X146168331Y-82469753D01*
X146569753Y-82068331D01*
X146787000Y-81543848D01*
X146787000Y-80976152D01*
X146569753Y-80451669D01*
X146168331Y-80050247D01*
X146022881Y-79990000D01*
X146168331Y-79929753D01*
X146569753Y-79528331D01*
X146787000Y-79003848D01*
X146787000Y-78436152D01*
X146753312Y-78354821D01*
X148153441Y-76954693D01*
X148214137Y-76914137D01*
X148254692Y-76853442D01*
X148254695Y-76853439D01*
X148374818Y-76673661D01*
X148401067Y-76541697D01*
X148417000Y-76461599D01*
X148417000Y-76461595D01*
X148431241Y-76390000D01*
X148417000Y-76318405D01*
X148417000Y-74726913D01*
X150343000Y-74726913D01*
X150343000Y-75573087D01*
X150666817Y-76354848D01*
X151265152Y-76953183D01*
X152046913Y-77277000D01*
X152893087Y-77277000D01*
X153674848Y-76953183D01*
X154273183Y-76354848D01*
X154597000Y-75573087D01*
X154597000Y-74726913D01*
X154273183Y-73945152D01*
X153674848Y-73346817D01*
X152893087Y-73023000D01*
X152046913Y-73023000D01*
X151265152Y-73346817D01*
X150666817Y-73945152D01*
X150343000Y-74726913D01*
X148417000Y-74726913D01*
X148417000Y-68319336D01*
X159053542Y-68319336D01*
X159079161Y-68929460D01*
X159263357Y-69374148D01*
X159519841Y-69460554D01*
X160420395Y-68560000D01*
X160779605Y-68560000D01*
X161680159Y-69460554D01*
X161936643Y-69374148D01*
X162146458Y-68800664D01*
X162120839Y-68190540D01*
X161936643Y-67745852D01*
X161680159Y-67659446D01*
X160779605Y-68560000D01*
X160420395Y-68560000D01*
X159519841Y-67659446D01*
X159263357Y-67745852D01*
X159053542Y-68319336D01*
X148417000Y-68319336D01*
X148417000Y-67100159D01*
X159699446Y-67100159D01*
X159763401Y-67290000D01*
X159699446Y-67479841D01*
X160600000Y-68380395D01*
X161500554Y-67479841D01*
X161436599Y-67290000D01*
X161500554Y-67100159D01*
X160600000Y-66199605D01*
X159699446Y-67100159D01*
X148417000Y-67100159D01*
X148417000Y-65779336D01*
X159053542Y-65779336D01*
X159079161Y-66389460D01*
X159263357Y-66834148D01*
X159519841Y-66920554D01*
X160420395Y-66020000D01*
X160779605Y-66020000D01*
X161680159Y-66920554D01*
X161936643Y-66834148D01*
X162146458Y-66260664D01*
X162120839Y-65650540D01*
X161936643Y-65205852D01*
X161680159Y-65119446D01*
X160779605Y-66020000D01*
X160420395Y-66020000D01*
X159519841Y-65119446D01*
X159263357Y-65205852D01*
X159053542Y-65779336D01*
X148417000Y-65779336D01*
X148417000Y-64951132D01*
X148428291Y-64939841D01*
X159699446Y-64939841D01*
X160600000Y-65840395D01*
X161500554Y-64939841D01*
X161414148Y-64683357D01*
X160840664Y-64473542D01*
X160230540Y-64499161D01*
X159785852Y-64683357D01*
X159699446Y-64939841D01*
X148428291Y-64939841D01*
X150921133Y-62447000D01*
X158881269Y-62447000D01*
X158950055Y-62549945D01*
X159124375Y-62666423D01*
X159330000Y-62707324D01*
X159339192Y-62707324D01*
X159665306Y-63033439D01*
X159705864Y-63094138D01*
X159946340Y-63254819D01*
X160158402Y-63297001D01*
X160158406Y-63297001D01*
X160230000Y-63311242D01*
X160301594Y-63297001D01*
X164588404Y-63297001D01*
X164659999Y-63311242D01*
X164731594Y-63297001D01*
X164731598Y-63297001D01*
X164943660Y-63254819D01*
X165184136Y-63094138D01*
X165224695Y-63033437D01*
X170904821Y-57353312D01*
X170986152Y-57387000D01*
X171553848Y-57387000D01*
X172078331Y-57169753D01*
X172479753Y-56768331D01*
X172540000Y-56622881D01*
X172600247Y-56768331D01*
X173001669Y-57169753D01*
X173526152Y-57387000D01*
X174093848Y-57387000D01*
X174253001Y-57321077D01*
X174253001Y-59338400D01*
X174238759Y-59410000D01*
X174265176Y-59542809D01*
X174211000Y-59673602D01*
X174211000Y-60186398D01*
X174407239Y-60660160D01*
X174769840Y-61022761D01*
X175243602Y-61219000D01*
X175722867Y-61219000D01*
X173548868Y-63393000D01*
X164671593Y-63393000D01*
X164599999Y-63378759D01*
X164528405Y-63393000D01*
X164528401Y-63393000D01*
X164316339Y-63435182D01*
X164075863Y-63595863D01*
X164035305Y-63656562D01*
X162636562Y-65055306D01*
X162575864Y-65095863D01*
X162535307Y-65156561D01*
X162535306Y-65156562D01*
X162415182Y-65336340D01*
X162358759Y-65620000D01*
X162373001Y-65691600D01*
X162373000Y-78458867D01*
X162027000Y-78804867D01*
X162027000Y-78436152D01*
X161809753Y-77911669D01*
X161408331Y-77510247D01*
X161262881Y-77450000D01*
X161408331Y-77389753D01*
X161809753Y-76988331D01*
X162027000Y-76463848D01*
X162027000Y-75896152D01*
X161809753Y-75371669D01*
X161408331Y-74970247D01*
X161262881Y-74910000D01*
X161408331Y-74849753D01*
X161809753Y-74448331D01*
X162027000Y-73923848D01*
X162027000Y-73356152D01*
X161809753Y-72831669D01*
X161408331Y-72430247D01*
X161262881Y-72370000D01*
X161408331Y-72309753D01*
X161809753Y-71908331D01*
X162027000Y-71383848D01*
X162027000Y-70816152D01*
X161809753Y-70291669D01*
X161414294Y-69896210D01*
X161500554Y-69640159D01*
X160600000Y-68739605D01*
X159699446Y-69640159D01*
X159785706Y-69896210D01*
X159390247Y-70291669D01*
X159173000Y-70816152D01*
X159173000Y-71383848D01*
X159390247Y-71908331D01*
X159791669Y-72309753D01*
X159937119Y-72370000D01*
X159791669Y-72430247D01*
X159390247Y-72831669D01*
X159173000Y-73356152D01*
X159173000Y-73923848D01*
X159390247Y-74448331D01*
X159791669Y-74849753D01*
X159937119Y-74910000D01*
X159791669Y-74970247D01*
X159390247Y-75371669D01*
X159173000Y-75896152D01*
X159173000Y-76437446D01*
X152942819Y-82667628D01*
X152873767Y-82713767D01*
X152690984Y-82987322D01*
X152643000Y-83228553D01*
X152643000Y-83228556D01*
X152626800Y-83310000D01*
X152643000Y-83391444D01*
X152643001Y-85148915D01*
X152260247Y-85531669D01*
X152043000Y-86056152D01*
X152043000Y-86623848D01*
X152260247Y-87148331D01*
X152661669Y-87549753D01*
X152807119Y-87610000D01*
X152661669Y-87670247D01*
X152260247Y-88071669D01*
X152043000Y-88596152D01*
X152043000Y-89163848D01*
X152260247Y-89688331D01*
X152661669Y-90089753D01*
X153186152Y-90307000D01*
X153753848Y-90307000D01*
X154278331Y-90089753D01*
X154679753Y-89688331D01*
X154897000Y-89163848D01*
X154897000Y-88622553D01*
X156137184Y-87382370D01*
X156206233Y-87336233D01*
X156389016Y-87062679D01*
X156437000Y-86821448D01*
X156437000Y-86821444D01*
X156453200Y-86740001D01*
X156437000Y-86658558D01*
X156437000Y-84052553D01*
X159173000Y-81316554D01*
X159173000Y-81543848D01*
X159390247Y-82068331D01*
X159791669Y-82469753D01*
X159937119Y-82530000D01*
X159791669Y-82590247D01*
X159390247Y-82991669D01*
X159173000Y-83516152D01*
X159173000Y-84083848D01*
X159390247Y-84608331D01*
X159791669Y-85009753D01*
X159937119Y-85070000D01*
X159791669Y-85130247D01*
X159390247Y-85531669D01*
X159173000Y-86056152D01*
X159173000Y-86623848D01*
X159390247Y-87148331D01*
X159791669Y-87549753D01*
X159937119Y-87610000D01*
X159791669Y-87670247D01*
X159390247Y-88071669D01*
X159173000Y-88596152D01*
X159173000Y-89163848D01*
X159390247Y-89688331D01*
X159791669Y-90089753D01*
X159937119Y-90150000D01*
X159791669Y-90210247D01*
X159390247Y-90611669D01*
X159173000Y-91136152D01*
X159173000Y-91703848D01*
X159390247Y-92228331D01*
X159791669Y-92629753D01*
X159937119Y-92690000D01*
X159791669Y-92750247D01*
X159390247Y-93151669D01*
X159173000Y-93676152D01*
X159173000Y-94243848D01*
X159390247Y-94768331D01*
X159791669Y-95169753D01*
X159937119Y-95230000D01*
X159791669Y-95290247D01*
X159390247Y-95691669D01*
X159173000Y-96216152D01*
X159173000Y-96783848D01*
X159390247Y-97308331D01*
X159791669Y-97709753D01*
X159937119Y-97770000D01*
X159791669Y-97830247D01*
X159390247Y-98231669D01*
X159173000Y-98756152D01*
X159173000Y-99323848D01*
X159390247Y-99848331D01*
X159791669Y-100249753D01*
X159937119Y-100310000D01*
X159791669Y-100370247D01*
X159390247Y-100771669D01*
X159173000Y-101296152D01*
X159173000Y-101863848D01*
X159390247Y-102388331D01*
X159791669Y-102789753D01*
X159937119Y-102850000D01*
X159791669Y-102910247D01*
X159390247Y-103311669D01*
X159173000Y-103836152D01*
X159173000Y-104403848D01*
X159390247Y-104928331D01*
X159791669Y-105329753D01*
X159937119Y-105390000D01*
X159791669Y-105450247D01*
X159390247Y-105851669D01*
X159173000Y-106376152D01*
X159173000Y-106943848D01*
X159390247Y-107468331D01*
X159791669Y-107869753D01*
X159937119Y-107930000D01*
X159791669Y-107990247D01*
X159390247Y-108391669D01*
X159173000Y-108916152D01*
X159173000Y-109483848D01*
X159390247Y-110008331D01*
X159791669Y-110409753D01*
X159937119Y-110470000D01*
X159791669Y-110530247D01*
X159390247Y-110931669D01*
X159173000Y-111456152D01*
X159173000Y-112023848D01*
X159390247Y-112548331D01*
X159791669Y-112949753D01*
X159937119Y-113010000D01*
X159791669Y-113070247D01*
X159390247Y-113471669D01*
X159173000Y-113996152D01*
X159173000Y-114563848D01*
X159390247Y-115088331D01*
X159791669Y-115489753D01*
X160316152Y-115707000D01*
X160883848Y-115707000D01*
X161408331Y-115489753D01*
X161809753Y-115088331D01*
X161825249Y-115050919D01*
X172372100Y-115050919D01*
X172372100Y-115599081D01*
X172581872Y-116105518D01*
X172969482Y-116493128D01*
X173475919Y-116702900D01*
X174024081Y-116702900D01*
X174530518Y-116493128D01*
X174918128Y-116105518D01*
X175127900Y-115599081D01*
X175127900Y-115050919D01*
X174918128Y-114544482D01*
X174530518Y-114156872D01*
X174024081Y-113947100D01*
X173475919Y-113947100D01*
X172969482Y-114156872D01*
X172581872Y-114544482D01*
X172372100Y-115050919D01*
X161825249Y-115050919D01*
X162027000Y-114563848D01*
X162027000Y-113996152D01*
X161809753Y-113471669D01*
X161408331Y-113070247D01*
X161262881Y-113010000D01*
X161408331Y-112949753D01*
X161809753Y-112548331D01*
X162027000Y-112023848D01*
X162027000Y-111456152D01*
X161809753Y-110931669D01*
X161408331Y-110530247D01*
X161262881Y-110470000D01*
X161408331Y-110409753D01*
X161809753Y-110008331D01*
X161843441Y-109927000D01*
X164783868Y-109927000D01*
X167090704Y-112233838D01*
X167000000Y-112452816D01*
X167000000Y-113117184D01*
X167254243Y-113730979D01*
X167724021Y-114200757D01*
X168337816Y-114455000D01*
X169002184Y-114455000D01*
X169615979Y-114200757D01*
X170085757Y-113730979D01*
X170340000Y-113117184D01*
X170340000Y-112452816D01*
X170085757Y-111839021D01*
X169615979Y-111369243D01*
X169002184Y-111115000D01*
X168337816Y-111115000D01*
X168118838Y-111205704D01*
X166656695Y-109743562D01*
X171229100Y-109743562D01*
X171229100Y-110746438D01*
X171612884Y-111672975D01*
X172322025Y-112382116D01*
X173248562Y-112765900D01*
X174251438Y-112765900D01*
X175177975Y-112382116D01*
X175887116Y-111672975D01*
X176270900Y-110746438D01*
X176270900Y-109743562D01*
X175887116Y-108817025D01*
X175177975Y-108107884D01*
X174251438Y-107724100D01*
X173248562Y-107724100D01*
X172322025Y-108107884D01*
X171612884Y-108817025D01*
X171229100Y-109743562D01*
X166656695Y-109743562D01*
X165649696Y-108736564D01*
X165609137Y-108675863D01*
X165368661Y-108515182D01*
X165156599Y-108473000D01*
X165156595Y-108473000D01*
X165085000Y-108458759D01*
X165013405Y-108473000D01*
X161843441Y-108473000D01*
X161809753Y-108391669D01*
X161408331Y-107990247D01*
X161262881Y-107930000D01*
X161408331Y-107869753D01*
X161587121Y-107690963D01*
X170133642Y-107690963D01*
X170249806Y-107972658D01*
X170911333Y-108223062D01*
X171618329Y-108201249D01*
X172170194Y-107972658D01*
X172286358Y-107690963D01*
X171210000Y-106614605D01*
X170133642Y-107690963D01*
X161587121Y-107690963D01*
X161809753Y-107468331D01*
X161843441Y-107387000D01*
X165328405Y-107387000D01*
X165400000Y-107401241D01*
X165471595Y-107387000D01*
X165471599Y-107387000D01*
X165683661Y-107344818D01*
X165924137Y-107184137D01*
X165964696Y-107123436D01*
X166951799Y-106136333D01*
X169421938Y-106136333D01*
X169443751Y-106843329D01*
X169672342Y-107395194D01*
X169954037Y-107511358D01*
X171030395Y-106435000D01*
X169954037Y-105358642D01*
X169672342Y-105474806D01*
X169421938Y-106136333D01*
X166951799Y-106136333D01*
X167909095Y-105179037D01*
X170133642Y-105179037D01*
X171210000Y-106255395D01*
X171224143Y-106241253D01*
X171403748Y-106420858D01*
X171389605Y-106435000D01*
X172465963Y-107511358D01*
X172747658Y-107395194D01*
X172998062Y-106733667D01*
X172985914Y-106339934D01*
X173475919Y-106542900D01*
X174024081Y-106542900D01*
X174530518Y-106333128D01*
X174918128Y-105945518D01*
X175127900Y-105439081D01*
X175127900Y-104890919D01*
X174918128Y-104384482D01*
X174530518Y-103996872D01*
X174024081Y-103787100D01*
X173475919Y-103787100D01*
X172969482Y-103996872D01*
X172581872Y-104384482D01*
X172372100Y-104890919D01*
X172372100Y-105093292D01*
X172286357Y-105179035D01*
X172170194Y-104897342D01*
X171508667Y-104646938D01*
X170801671Y-104668751D01*
X170249806Y-104897342D01*
X170133642Y-105179037D01*
X167909095Y-105179037D01*
X169133441Y-103954692D01*
X169194136Y-103914137D01*
X169234692Y-103853441D01*
X169234694Y-103853439D01*
X169354817Y-103673662D01*
X169354818Y-103673661D01*
X169397000Y-103461599D01*
X169397000Y-103461595D01*
X169411241Y-103390001D01*
X169397000Y-103318407D01*
X169397000Y-96050919D01*
X172372100Y-96050919D01*
X172372100Y-96599081D01*
X172581872Y-97105518D01*
X172969482Y-97493128D01*
X173475919Y-97702900D01*
X174024081Y-97702900D01*
X174530518Y-97493128D01*
X174918128Y-97105518D01*
X175127900Y-96599081D01*
X175127900Y-96050919D01*
X174918128Y-95544482D01*
X174530518Y-95156872D01*
X174024081Y-94947100D01*
X173475919Y-94947100D01*
X172969482Y-95156872D01*
X172581872Y-95544482D01*
X172372100Y-96050919D01*
X169397000Y-96050919D01*
X169397000Y-95291461D01*
X169615979Y-95200757D01*
X170085757Y-94730979D01*
X170340000Y-94117184D01*
X170340000Y-93452816D01*
X170085757Y-92839021D01*
X169615979Y-92369243D01*
X169002184Y-92115000D01*
X168337816Y-92115000D01*
X167724021Y-92369243D01*
X167254243Y-92839021D01*
X167000000Y-93452816D01*
X167000000Y-94117184D01*
X167254243Y-94730979D01*
X167724021Y-95200757D01*
X167943001Y-95291462D01*
X167943000Y-103088867D01*
X165098868Y-105933000D01*
X161843441Y-105933000D01*
X161809753Y-105851669D01*
X161408331Y-105450247D01*
X161262881Y-105390000D01*
X161408331Y-105329753D01*
X161809753Y-104928331D01*
X161843441Y-104847000D01*
X162488405Y-104847000D01*
X162560000Y-104861241D01*
X162631595Y-104847000D01*
X162631599Y-104847000D01*
X162843661Y-104804818D01*
X163084137Y-104644137D01*
X163124696Y-104583436D01*
X166553441Y-101154692D01*
X166614136Y-101114137D01*
X166654692Y-101053441D01*
X166654694Y-101053439D01*
X166774818Y-100873661D01*
X166788351Y-100805625D01*
X166817000Y-100661599D01*
X166817000Y-100661595D01*
X166831241Y-100590000D01*
X166817000Y-100518405D01*
X166817000Y-90743562D01*
X171229100Y-90743562D01*
X171229100Y-91746438D01*
X171612884Y-92672975D01*
X172322025Y-93382116D01*
X173248562Y-93765900D01*
X174251438Y-93765900D01*
X175177975Y-93382116D01*
X175887116Y-92672975D01*
X176270900Y-91746438D01*
X176270900Y-90743562D01*
X175887116Y-89817025D01*
X175177975Y-89107884D01*
X174251438Y-88724100D01*
X173248562Y-88724100D01*
X172322025Y-89107884D01*
X171612884Y-89817025D01*
X171229100Y-90743562D01*
X166817000Y-90743562D01*
X166817000Y-88690963D01*
X170133642Y-88690963D01*
X170249806Y-88972658D01*
X170911333Y-89223062D01*
X171618329Y-89201249D01*
X172170194Y-88972658D01*
X172286358Y-88690963D01*
X171210000Y-87614605D01*
X170133642Y-88690963D01*
X166817000Y-88690963D01*
X166817000Y-87136333D01*
X169421938Y-87136333D01*
X169443751Y-87843329D01*
X169672342Y-88395194D01*
X169954037Y-88511358D01*
X171030395Y-87435000D01*
X169954037Y-86358642D01*
X169672342Y-86474806D01*
X169421938Y-87136333D01*
X166817000Y-87136333D01*
X166817000Y-86179037D01*
X170133642Y-86179037D01*
X171210000Y-87255395D01*
X171224143Y-87241253D01*
X171403748Y-87420858D01*
X171389605Y-87435000D01*
X172465963Y-88511358D01*
X172747658Y-88395194D01*
X172998062Y-87733667D01*
X172985914Y-87339934D01*
X173475919Y-87542900D01*
X174024081Y-87542900D01*
X174530518Y-87333128D01*
X174918128Y-86945518D01*
X175127900Y-86439081D01*
X175127900Y-85890919D01*
X174918128Y-85384482D01*
X174530518Y-84996872D01*
X174024081Y-84787100D01*
X173475919Y-84787100D01*
X172969482Y-84996872D01*
X172581872Y-85384482D01*
X172372100Y-85890919D01*
X172372100Y-86093292D01*
X172286357Y-86179035D01*
X172170194Y-85897342D01*
X171508667Y-85646938D01*
X170801671Y-85668751D01*
X170249806Y-85897342D01*
X170133642Y-86179037D01*
X166817000Y-86179037D01*
X166817000Y-77666132D01*
X167432213Y-77050919D01*
X172372100Y-77050919D01*
X172372100Y-77599081D01*
X172581872Y-78105518D01*
X172969482Y-78493128D01*
X173475919Y-78702900D01*
X174024081Y-78702900D01*
X174530518Y-78493128D01*
X174918128Y-78105518D01*
X175127900Y-77599081D01*
X175127900Y-77050919D01*
X174918128Y-76544482D01*
X174530518Y-76156872D01*
X174024081Y-75947100D01*
X173475919Y-75947100D01*
X172969482Y-76156872D01*
X172581872Y-76544482D01*
X172372100Y-77050919D01*
X167432213Y-77050919D01*
X168118837Y-76364296D01*
X168337816Y-76455000D01*
X169002184Y-76455000D01*
X169615979Y-76200757D01*
X170085757Y-75730979D01*
X170340000Y-75117184D01*
X170340000Y-74452816D01*
X170085757Y-73839021D01*
X169615979Y-73369243D01*
X169002184Y-73115000D01*
X168337816Y-73115000D01*
X167724021Y-73369243D01*
X167254243Y-73839021D01*
X167000000Y-74452816D01*
X167000000Y-75117184D01*
X167090704Y-75336163D01*
X165626562Y-76800306D01*
X165565864Y-76840863D01*
X165525307Y-76901561D01*
X165525306Y-76901562D01*
X165405182Y-77081340D01*
X165348759Y-77365000D01*
X165363001Y-77436600D01*
X165363000Y-100288867D01*
X162258868Y-103393000D01*
X161843441Y-103393000D01*
X161809753Y-103311669D01*
X161408331Y-102910247D01*
X161262881Y-102850000D01*
X161408331Y-102789753D01*
X161809753Y-102388331D01*
X162027000Y-101863848D01*
X162027000Y-101296152D01*
X161809753Y-100771669D01*
X161408331Y-100370247D01*
X161262881Y-100310000D01*
X161408331Y-100249753D01*
X161809753Y-99848331D01*
X162027000Y-99323848D01*
X162027000Y-98756152D01*
X161809753Y-98231669D01*
X161408331Y-97830247D01*
X161262881Y-97770000D01*
X161408331Y-97709753D01*
X161809753Y-97308331D01*
X162027000Y-96783848D01*
X162027000Y-96216152D01*
X161809753Y-95691669D01*
X161408331Y-95290247D01*
X161262881Y-95230000D01*
X161408331Y-95169753D01*
X161809753Y-94768331D01*
X162027000Y-94243848D01*
X162027000Y-93676152D01*
X161809753Y-93151669D01*
X161408331Y-92750247D01*
X161262881Y-92690000D01*
X161408331Y-92629753D01*
X161809753Y-92228331D01*
X162027000Y-91703848D01*
X162027000Y-91136152D01*
X161809753Y-90611669D01*
X161408331Y-90210247D01*
X161262881Y-90150000D01*
X161408331Y-90089753D01*
X161809753Y-89688331D01*
X162027000Y-89163848D01*
X162027000Y-88596152D01*
X161809753Y-88071669D01*
X161408331Y-87670247D01*
X161262881Y-87610000D01*
X161408331Y-87549753D01*
X161809753Y-87148331D01*
X162027000Y-86623848D01*
X162027000Y-86056152D01*
X161809753Y-85531669D01*
X161408331Y-85130247D01*
X161262881Y-85070000D01*
X161408331Y-85009753D01*
X161809753Y-84608331D01*
X162027000Y-84083848D01*
X162027000Y-83516152D01*
X161809753Y-82991669D01*
X161408331Y-82590247D01*
X161262881Y-82530000D01*
X161408331Y-82469753D01*
X161809753Y-82068331D01*
X162027000Y-81543848D01*
X162027000Y-80976152D01*
X161993312Y-80894821D01*
X163563441Y-79324692D01*
X163624136Y-79284137D01*
X163664692Y-79223441D01*
X163664694Y-79223439D01*
X163784818Y-79043661D01*
X163792775Y-79003660D01*
X163827000Y-78831599D01*
X163827000Y-78831595D01*
X163841241Y-78760000D01*
X163827000Y-78688405D01*
X163827000Y-71743562D01*
X171229100Y-71743562D01*
X171229100Y-72746438D01*
X171612884Y-73672975D01*
X172322025Y-74382116D01*
X173248562Y-74765900D01*
X174251438Y-74765900D01*
X175177975Y-74382116D01*
X175887116Y-73672975D01*
X176270900Y-72746438D01*
X176270900Y-71743562D01*
X175887116Y-70817025D01*
X175177975Y-70107884D01*
X174251438Y-69724100D01*
X173248562Y-69724100D01*
X172322025Y-70107884D01*
X171612884Y-70817025D01*
X171229100Y-71743562D01*
X163827000Y-71743562D01*
X163827000Y-69690963D01*
X170133642Y-69690963D01*
X170249806Y-69972658D01*
X170911333Y-70223062D01*
X171618329Y-70201249D01*
X172170194Y-69972658D01*
X172286358Y-69690963D01*
X171210000Y-68614605D01*
X170133642Y-69690963D01*
X163827000Y-69690963D01*
X163827000Y-68136333D01*
X169421938Y-68136333D01*
X169443751Y-68843329D01*
X169672342Y-69395194D01*
X169954037Y-69511358D01*
X171030395Y-68435000D01*
X169954037Y-67358642D01*
X169672342Y-67474806D01*
X169421938Y-68136333D01*
X163827000Y-68136333D01*
X163827000Y-67179037D01*
X170133642Y-67179037D01*
X171210000Y-68255395D01*
X171224143Y-68241253D01*
X171403748Y-68420858D01*
X171389605Y-68435000D01*
X172465963Y-69511358D01*
X172747658Y-69395194D01*
X172998062Y-68733667D01*
X172985914Y-68339934D01*
X173475919Y-68542900D01*
X174024081Y-68542900D01*
X174530518Y-68333128D01*
X174918128Y-67945518D01*
X175127900Y-67439081D01*
X175127900Y-66890919D01*
X174918128Y-66384482D01*
X174530518Y-65996872D01*
X174024081Y-65787100D01*
X173475919Y-65787100D01*
X172969482Y-65996872D01*
X172581872Y-66384482D01*
X172372100Y-66890919D01*
X172372100Y-67093292D01*
X172286357Y-67179035D01*
X172170194Y-66897342D01*
X171508667Y-66646938D01*
X170801671Y-66668751D01*
X170249806Y-66897342D01*
X170133642Y-67179037D01*
X163827000Y-67179037D01*
X163827000Y-65921132D01*
X164901133Y-64847000D01*
X173778405Y-64847000D01*
X173850000Y-64861241D01*
X173921595Y-64847000D01*
X173921599Y-64847000D01*
X174133661Y-64804818D01*
X174374137Y-64644137D01*
X174414696Y-64583436D01*
X177780442Y-61217691D01*
X177783602Y-61219000D01*
X178296398Y-61219000D01*
X178770160Y-61022761D01*
X178882708Y-60910213D01*
X179779392Y-60910213D01*
X179848857Y-61152397D01*
X180372302Y-61339144D01*
X180927368Y-61311362D01*
X181311143Y-61152397D01*
X181380608Y-60910213D01*
X180580000Y-60109605D01*
X179779392Y-60910213D01*
X178882708Y-60910213D01*
X179132761Y-60660160D01*
X179244978Y-60389244D01*
X179357603Y-60661143D01*
X179599787Y-60730608D01*
X180400395Y-59930000D01*
X180759605Y-59930000D01*
X181560213Y-60730608D01*
X181802397Y-60661143D01*
X181989144Y-60137698D01*
X181961362Y-59582632D01*
X181802397Y-59198857D01*
X181560213Y-59129392D01*
X180759605Y-59930000D01*
X180400395Y-59930000D01*
X179599787Y-59129392D01*
X179357603Y-59198857D01*
X179253371Y-59491017D01*
X179132761Y-59199840D01*
X178882708Y-58949787D01*
X179779392Y-58949787D01*
X180580000Y-59750395D01*
X181380608Y-58949787D01*
X181311143Y-58707603D01*
X180787698Y-58520856D01*
X180232632Y-58548638D01*
X179848857Y-58707603D01*
X179779392Y-58949787D01*
X178882708Y-58949787D01*
X178770160Y-58837239D01*
X178296398Y-58641000D01*
X177783602Y-58641000D01*
X177309840Y-58837239D01*
X176947239Y-59199840D01*
X176770000Y-59627732D01*
X176592761Y-59199840D01*
X176230160Y-58837239D01*
X175756398Y-58641000D01*
X175707000Y-58641000D01*
X175707000Y-54295201D01*
X175731685Y-54284976D01*
X176104976Y-53911685D01*
X176307000Y-53423957D01*
X176307000Y-52896043D01*
X176183052Y-52596805D01*
X179973000Y-52596805D01*
X179973000Y-53403195D01*
X180281593Y-54148203D01*
X180851797Y-54718407D01*
X181596805Y-55027000D01*
X182403195Y-55027000D01*
X183148203Y-54718407D01*
X183718407Y-54148203D01*
X184027000Y-53403195D01*
X184027000Y-52596805D01*
X183718407Y-51851797D01*
X183148203Y-51281593D01*
X182403195Y-50973000D01*
X181596805Y-50973000D01*
X180851797Y-51281593D01*
X180281593Y-51851797D01*
X179973000Y-52596805D01*
X176183052Y-52596805D01*
X176104976Y-52408315D01*
X175731685Y-52035024D01*
X175243957Y-51833000D01*
X174716043Y-51833000D01*
X174228315Y-52035024D01*
X173855024Y-52408315D01*
X173653000Y-52896043D01*
X173653000Y-53423957D01*
X173855024Y-53911685D01*
X174228315Y-54284976D01*
X174253000Y-54295201D01*
X174253000Y-54598923D01*
X174093848Y-54533000D01*
X173526152Y-54533000D01*
X173001669Y-54750247D01*
X172600247Y-55151669D01*
X172540000Y-55297119D01*
X172479753Y-55151669D01*
X172078331Y-54750247D01*
X171553848Y-54533000D01*
X170986152Y-54533000D01*
X170461669Y-54750247D01*
X170066210Y-55145706D01*
X169810159Y-55059446D01*
X168909605Y-55960000D01*
X168923748Y-55974143D01*
X168744143Y-56153748D01*
X168730000Y-56139605D01*
X167829446Y-57040159D01*
X167915852Y-57296643D01*
X168489336Y-57506458D01*
X168704441Y-57497426D01*
X164358867Y-61843001D01*
X161867324Y-61843001D01*
X161867324Y-61270000D01*
X161826423Y-61064375D01*
X161807000Y-61035307D01*
X161807000Y-60643751D01*
X161923145Y-60566145D01*
X162039623Y-60391825D01*
X162080524Y-60186200D01*
X162080524Y-59271800D01*
X162039623Y-59066175D01*
X161923145Y-58891855D01*
X161845539Y-58840000D01*
X161923145Y-58788145D01*
X161996742Y-58678000D01*
X163117405Y-58678000D01*
X163189000Y-58692241D01*
X163260595Y-58678000D01*
X163260599Y-58678000D01*
X163472661Y-58635818D01*
X163713137Y-58475137D01*
X163753696Y-58414436D01*
X166448796Y-55719336D01*
X167183542Y-55719336D01*
X167209161Y-56329460D01*
X167393357Y-56774148D01*
X167649841Y-56860554D01*
X168550395Y-55960000D01*
X167649841Y-55059446D01*
X167393357Y-55145852D01*
X167183542Y-55719336D01*
X166448796Y-55719336D01*
X167288291Y-54879841D01*
X167829446Y-54879841D01*
X168730000Y-55780395D01*
X169630554Y-54879841D01*
X169544148Y-54623357D01*
X168970664Y-54413542D01*
X168360540Y-54439161D01*
X167915852Y-54623357D01*
X167829446Y-54879841D01*
X167288291Y-54879841D01*
X167691358Y-54476775D01*
X167716043Y-54487000D01*
X168243957Y-54487000D01*
X168731685Y-54284976D01*
X169104976Y-53911685D01*
X169307000Y-53423957D01*
X169307000Y-52896043D01*
X169104976Y-52408315D01*
X168731685Y-52035024D01*
X168243957Y-51833000D01*
X167716043Y-51833000D01*
X167228315Y-52035024D01*
X166855024Y-52408315D01*
X166653000Y-52896043D01*
X166653000Y-53423957D01*
X166663225Y-53448642D01*
X162887868Y-57224000D01*
X161996742Y-57224000D01*
X161923145Y-57113855D01*
X161748825Y-56997377D01*
X161543200Y-56956476D01*
X160628800Y-56956476D01*
X160423175Y-56997377D01*
X160248855Y-57113855D01*
X160132377Y-57288175D01*
X160091476Y-57493800D01*
X160091476Y-58408200D01*
X160132377Y-58613825D01*
X160248855Y-58788145D01*
X160326461Y-58840000D01*
X160248855Y-58891855D01*
X160132377Y-59066175D01*
X160091476Y-59271800D01*
X160091476Y-60186200D01*
X160132377Y-60391825D01*
X160248855Y-60566145D01*
X160353001Y-60635733D01*
X160353000Y-61035306D01*
X160333577Y-61064375D01*
X160330000Y-61082358D01*
X160326423Y-61064375D01*
X160209945Y-60890055D01*
X160035625Y-60773577D01*
X159830000Y-60732676D01*
X159330000Y-60732676D01*
X159124375Y-60773577D01*
X158950055Y-60890055D01*
X158881269Y-60993000D01*
X150691595Y-60993000D01*
X150620000Y-60978759D01*
X150548405Y-60993000D01*
X150548401Y-60993000D01*
X150336339Y-61035182D01*
X150095863Y-61195863D01*
X150055306Y-61256561D01*
X147226562Y-64085306D01*
X147165863Y-64125864D01*
X147005182Y-64366340D01*
X146963000Y-64578402D01*
X146963000Y-64578405D01*
X146948759Y-64650000D01*
X146963000Y-64721595D01*
X146963001Y-76088865D01*
X146787000Y-76264866D01*
X146787000Y-75896152D01*
X146569753Y-75371669D01*
X146168331Y-74970247D01*
X146022881Y-74910000D01*
X146168331Y-74849753D01*
X146569753Y-74448331D01*
X146787000Y-73923848D01*
X146787000Y-73356152D01*
X146569753Y-72831669D01*
X146168331Y-72430247D01*
X146022881Y-72370000D01*
X146168331Y-72309753D01*
X146569753Y-71908331D01*
X146787000Y-71383848D01*
X146787000Y-70816152D01*
X146569753Y-70291669D01*
X146168331Y-69890247D01*
X146022881Y-69830000D01*
X146168331Y-69769753D01*
X146569753Y-69368331D01*
X146787000Y-68843848D01*
X146787000Y-68276152D01*
X146569753Y-67751669D01*
X146168331Y-67350247D01*
X146022881Y-67290000D01*
X146168331Y-67229753D01*
X146569753Y-66828331D01*
X146787000Y-66303848D01*
X146787000Y-65736152D01*
X146569753Y-65211669D01*
X146168331Y-64810247D01*
X145643848Y-64593000D01*
X145076152Y-64593000D01*
X144551669Y-64810247D01*
X144268916Y-65093000D01*
X141896703Y-65093000D01*
X141852762Y-65027238D01*
X141397279Y-64722894D01*
X140995623Y-64643000D01*
X140724377Y-64643000D01*
X140322721Y-64722894D01*
X139867238Y-65027238D01*
X139562894Y-65482721D01*
X139456023Y-66020000D01*
X139562894Y-66557279D01*
X139867238Y-67012762D01*
X140282154Y-67290000D01*
X139867238Y-67567238D01*
X139562894Y-68022721D01*
X139456023Y-68560000D01*
X139562894Y-69097279D01*
X139867238Y-69552762D01*
X140282154Y-69830000D01*
X139867238Y-70107238D01*
X139562894Y-70562721D01*
X139456023Y-71100000D01*
X139562894Y-71637279D01*
X139867238Y-72092762D01*
X140282154Y-72370000D01*
X139867238Y-72647238D01*
X139562894Y-73102721D01*
X139456023Y-73640000D01*
X139562894Y-74177279D01*
X139867238Y-74632762D01*
X140106566Y-74792676D01*
X140010000Y-74792676D01*
X139804375Y-74833577D01*
X139630055Y-74950055D01*
X139513577Y-75124375D01*
X139472676Y-75330000D01*
X139472676Y-77030000D01*
X139513577Y-77235625D01*
X139630055Y-77409945D01*
X139804375Y-77526423D01*
X140010000Y-77567324D01*
X141710000Y-77567324D01*
X141915625Y-77526423D01*
X142089945Y-77409945D01*
X142206423Y-77235625D01*
X142232008Y-77107000D01*
X144268916Y-77107000D01*
X144551669Y-77389753D01*
X144697119Y-77450000D01*
X144551669Y-77510247D01*
X144150247Y-77911669D01*
X143933000Y-78436152D01*
X143933000Y-79003848D01*
X144150247Y-79528331D01*
X144551669Y-79929753D01*
X144697119Y-79990000D01*
X144551669Y-80050247D01*
X144150247Y-80451669D01*
X143933000Y-80976152D01*
X143933000Y-81543848D01*
X144150247Y-82068331D01*
X144551669Y-82469753D01*
X144697119Y-82530000D01*
X144551669Y-82590247D01*
X144150247Y-82991669D01*
X143933000Y-83516152D01*
X143933000Y-84083848D01*
X144150247Y-84608331D01*
X144551669Y-85009753D01*
X144697119Y-85070000D01*
X144551669Y-85130247D01*
X144150247Y-85531669D01*
X143933000Y-86056152D01*
X143933000Y-86623848D01*
X144150247Y-87148331D01*
X144551669Y-87549753D01*
X144697119Y-87610000D01*
X144551669Y-87670247D01*
X144150247Y-88071669D01*
X143933000Y-88596152D01*
X143933000Y-89163848D01*
X144150247Y-89688331D01*
X144551669Y-90089753D01*
X144697119Y-90150000D01*
X144551669Y-90210247D01*
X144150247Y-90611669D01*
X143933000Y-91136152D01*
X143933000Y-91703848D01*
X144150247Y-92228331D01*
X144551669Y-92629753D01*
X144697119Y-92690000D01*
X144551669Y-92750247D01*
X144150247Y-93151669D01*
X143933000Y-93676152D01*
X143933000Y-94243848D01*
X144150247Y-94768331D01*
X144551669Y-95169753D01*
X144697119Y-95230000D01*
X144551669Y-95290247D01*
X144150247Y-95691669D01*
X143933000Y-96216152D01*
X143933000Y-96584867D01*
X136567000Y-89218868D01*
X136567000Y-89135608D01*
X136425873Y-88794897D01*
X136367000Y-88736024D01*
X136367000Y-72171595D01*
X136381241Y-72100000D01*
X136367000Y-72028405D01*
X136367000Y-72028401D01*
X136324818Y-71816339D01*
X136306175Y-71788438D01*
X136204695Y-71636561D01*
X136204690Y-71636556D01*
X136164136Y-71575863D01*
X136103443Y-71535309D01*
X135429696Y-70861564D01*
X135389137Y-70800863D01*
X135148661Y-70640182D01*
X134936599Y-70598000D01*
X134936595Y-70598000D01*
X134865000Y-70583759D01*
X134793405Y-70598000D01*
X134287044Y-70598000D01*
X134287044Y-70512500D01*
X134246143Y-70306875D01*
X134217000Y-70263260D01*
X134217000Y-69025608D01*
X136363000Y-69025608D01*
X136363000Y-69394392D01*
X136504127Y-69735103D01*
X136764897Y-69995873D01*
X137105608Y-70137000D01*
X137474392Y-70137000D01*
X137815103Y-69995873D01*
X138075873Y-69735103D01*
X138217000Y-69394392D01*
X138217000Y-69025608D01*
X138075873Y-68684897D01*
X137815103Y-68424127D01*
X137474392Y-68283000D01*
X137105608Y-68283000D01*
X136764897Y-68424127D01*
X136504127Y-68684897D01*
X136363000Y-69025608D01*
X134217000Y-69025608D01*
X134217000Y-66023976D01*
X134275873Y-65965103D01*
X134417000Y-65624392D01*
X134417000Y-65255608D01*
X134275873Y-64914897D01*
X134015103Y-64654127D01*
X133902761Y-64607593D01*
X134099986Y-64410368D01*
X136363000Y-64410368D01*
X136363000Y-64779152D01*
X136504127Y-65119863D01*
X136764897Y-65380633D01*
X137105608Y-65521760D01*
X137474392Y-65521760D01*
X137815103Y-65380633D01*
X138075873Y-65119863D01*
X138217000Y-64779152D01*
X138217000Y-64410368D01*
X138075873Y-64069657D01*
X137815103Y-63808887D01*
X137474392Y-63667760D01*
X137105608Y-63667760D01*
X136764897Y-63808887D01*
X136504127Y-64069657D01*
X136363000Y-64410368D01*
X134099986Y-64410368D01*
X137570354Y-60940000D01*
X139456023Y-60940000D01*
X139562894Y-61477279D01*
X139867238Y-61932762D01*
X140322721Y-62237106D01*
X140724377Y-62317000D01*
X140995623Y-62317000D01*
X141397279Y-62237106D01*
X141852762Y-61932762D01*
X142157106Y-61477279D01*
X142263977Y-60940000D01*
X142157106Y-60402721D01*
X141852762Y-59947238D01*
X141397279Y-59642894D01*
X140995623Y-59563000D01*
X140724377Y-59563000D01*
X140322721Y-59642894D01*
X139867238Y-59947238D01*
X139562894Y-60402721D01*
X139456023Y-60940000D01*
X137570354Y-60940000D01*
X142563442Y-55946913D01*
X142624137Y-55906358D01*
X142664693Y-55845662D01*
X142664695Y-55845660D01*
X142710759Y-55776720D01*
X142784819Y-55665882D01*
X142827001Y-55453820D01*
X142827001Y-55453816D01*
X142841242Y-55382222D01*
X142827001Y-55310628D01*
X142827001Y-54687000D01*
X143403739Y-54687000D01*
X143964976Y-54454528D01*
X144106972Y-54312532D01*
X162127073Y-54312532D01*
X162225736Y-54579387D01*
X162835461Y-54805908D01*
X163485460Y-54781856D01*
X163974264Y-54579387D01*
X164072927Y-54312532D01*
X163100000Y-53339605D01*
X162127073Y-54312532D01*
X144106972Y-54312532D01*
X144394528Y-54024976D01*
X144627000Y-53463739D01*
X144627000Y-52895461D01*
X161454092Y-52895461D01*
X161478144Y-53545460D01*
X161680613Y-54034264D01*
X161947468Y-54132927D01*
X162920395Y-53160000D01*
X163279605Y-53160000D01*
X164252532Y-54132927D01*
X164519387Y-54034264D01*
X164745908Y-53424539D01*
X164721856Y-52774540D01*
X164519387Y-52285736D01*
X164252532Y-52187073D01*
X163279605Y-53160000D01*
X162920395Y-53160000D01*
X161947468Y-52187073D01*
X161680613Y-52285736D01*
X161454092Y-52895461D01*
X144627000Y-52895461D01*
X144627000Y-52856261D01*
X144394528Y-52295024D01*
X144106972Y-52007468D01*
X162127073Y-52007468D01*
X163100000Y-52980395D01*
X164072927Y-52007468D01*
X163974264Y-51740613D01*
X163364539Y-51514092D01*
X162714540Y-51538144D01*
X162225736Y-51740613D01*
X162127073Y-52007468D01*
X144106972Y-52007468D01*
X143964976Y-51865472D01*
X143403739Y-51633000D01*
X142796261Y-51633000D01*
X142235024Y-51865472D01*
X141805472Y-52295024D01*
X141573000Y-52856261D01*
X141573000Y-53463739D01*
X141629462Y-53600050D01*
X141575865Y-53635862D01*
X141535308Y-53696560D01*
X141535307Y-53696561D01*
X141415183Y-53876339D01*
X141358760Y-54159999D01*
X141373002Y-54231598D01*
X141373001Y-55081088D01*
X134287044Y-62167046D01*
X134287044Y-61387500D01*
X134246143Y-61181875D01*
X134129665Y-61007555D01*
X133955345Y-60891077D01*
X133749720Y-60850176D01*
X133150280Y-60850176D01*
X132944655Y-60891077D01*
X132901353Y-60920011D01*
X132864818Y-60736339D01*
X132821321Y-60671241D01*
X132744694Y-60556561D01*
X132744692Y-60556559D01*
X132704136Y-60495863D01*
X132643440Y-60455307D01*
X132505034Y-60316901D01*
X132524137Y-60304137D01*
X132564696Y-60243436D01*
X133581133Y-59227000D01*
X133664392Y-59227000D01*
X134005103Y-59085873D01*
X134265873Y-58825103D01*
X134407000Y-58484392D01*
X134407000Y-58115608D01*
X134265873Y-57774897D01*
X134005103Y-57514127D01*
X133664392Y-57373000D01*
X133295608Y-57373000D01*
X132954897Y-57514127D01*
X132694127Y-57774897D01*
X132553000Y-58115608D01*
X132553000Y-58198867D01*
X131722696Y-59029172D01*
X131719945Y-59025055D01*
X131545625Y-58908577D01*
X131340000Y-58867676D01*
X130540000Y-58867676D01*
X130334375Y-58908577D01*
X130160055Y-59025055D01*
X130043577Y-59199375D01*
X130002676Y-59405000D01*
X130002676Y-60155000D01*
X130043577Y-60360625D01*
X130160055Y-60534945D01*
X130334375Y-60651423D01*
X130540000Y-60692324D01*
X130824192Y-60692324D01*
X130982044Y-60850176D01*
X130610280Y-60850176D01*
X130404655Y-60891077D01*
X130275000Y-60977711D01*
X130145345Y-60891077D01*
X129939720Y-60850176D01*
X129340280Y-60850176D01*
X129134655Y-60891077D01*
X128960335Y-61007555D01*
X128843857Y-61181875D01*
X128802956Y-61387500D01*
X128802956Y-63012500D01*
X128824936Y-63123000D01*
X122871593Y-63123000D01*
X122799999Y-63108759D01*
X122728405Y-63123000D01*
X122728401Y-63123000D01*
X122516339Y-63165182D01*
X122275863Y-63325863D01*
X122235305Y-63386562D01*
X120926562Y-64695306D01*
X120865863Y-64735864D01*
X120705182Y-64976340D01*
X120676074Y-65122676D01*
X120540000Y-65122676D01*
X120334375Y-65163577D01*
X120160055Y-65280055D01*
X120043577Y-65454375D01*
X120002676Y-65660000D01*
X120002676Y-67360000D01*
X120043577Y-67565625D01*
X120160055Y-67739945D01*
X120334375Y-67856423D01*
X120540000Y-67897324D01*
X122240000Y-67897324D01*
X122445625Y-67856423D01*
X122619945Y-67739945D01*
X122736423Y-67565625D01*
X122777324Y-67360000D01*
X122777324Y-65660000D01*
X122736423Y-65454375D01*
X122619945Y-65280055D01*
X122486946Y-65191187D01*
X123101133Y-64577000D01*
X130880865Y-64577000D01*
X130446562Y-65011304D01*
X130385864Y-65051861D01*
X130345307Y-65112559D01*
X130345306Y-65112560D01*
X130225182Y-65292338D01*
X130168759Y-65575998D01*
X130183001Y-65647598D01*
X130183000Y-70203396D01*
X130113857Y-70306875D01*
X130072956Y-70512500D01*
X130072956Y-72137500D01*
X130113857Y-72343125D01*
X130230335Y-72517445D01*
X130404655Y-72633923D01*
X130610280Y-72674824D01*
X131209720Y-72674824D01*
X131415345Y-72633923D01*
X131453000Y-72608762D01*
X131453001Y-74208402D01*
X131438759Y-74280002D01*
X131495182Y-74563662D01*
X131606326Y-74730000D01*
X131655864Y-74804139D01*
X131716562Y-74844696D01*
X132315304Y-75443439D01*
X132355862Y-75504138D01*
X132596338Y-75664819D01*
X132753738Y-75696128D01*
X132765182Y-75753660D01*
X132925863Y-75994136D01*
X132986562Y-76034694D01*
X134043001Y-77091134D01*
X134043000Y-89234868D01*
X132264734Y-87456602D01*
X132224175Y-87395901D01*
X131983699Y-87235220D01*
X131771637Y-87193038D01*
X131771633Y-87193038D01*
X131700038Y-87178797D01*
X131628443Y-87193038D01*
X128381903Y-87193038D01*
X128330000Y-87182714D01*
X126349697Y-87182714D01*
X126330000Y-87178796D01*
X126310303Y-87182714D01*
X124330000Y-87182714D01*
X124124375Y-87223615D01*
X123950055Y-87340093D01*
X123833577Y-87514413D01*
X123792676Y-87720038D01*
X123792676Y-88120038D01*
X123822512Y-88270037D01*
X123792676Y-88420036D01*
X123792676Y-88820036D01*
X123822512Y-88970035D01*
X123792676Y-89120034D01*
X123792676Y-89520034D01*
X123833577Y-89725659D01*
X123950055Y-89899979D01*
X124124375Y-90016457D01*
X124330000Y-90057358D01*
X128116382Y-90057358D01*
X128174897Y-90115873D01*
X128515608Y-90257000D01*
X128884392Y-90257000D01*
X129225103Y-90115873D01*
X129485873Y-89855103D01*
X129627000Y-89514392D01*
X129627000Y-89145608D01*
X129485873Y-88804897D01*
X129328014Y-88647038D01*
X131398906Y-88647038D01*
X134144893Y-91393026D01*
X128381903Y-91393026D01*
X128330000Y-91382702D01*
X124330000Y-91382702D01*
X124124375Y-91423603D01*
X123950055Y-91540081D01*
X123833577Y-91714401D01*
X123792676Y-91920026D01*
X123792676Y-92320026D01*
X123833577Y-92525651D01*
X123950055Y-92699971D01*
X124124375Y-92816449D01*
X124330000Y-92857350D01*
X128330000Y-92857350D01*
X128381903Y-92847026D01*
X134088894Y-92847026D01*
X137853000Y-96611133D01*
X137853000Y-96694392D01*
X137994127Y-97035103D01*
X138254897Y-97295873D01*
X138595608Y-97437000D01*
X138964392Y-97437000D01*
X139305103Y-97295873D01*
X139565873Y-97035103D01*
X139630631Y-96878764D01*
X143966688Y-101214822D01*
X143933000Y-101296152D01*
X143933000Y-101863848D01*
X144150247Y-102388331D01*
X144551669Y-102789753D01*
X144697119Y-102850000D01*
X144551669Y-102910247D01*
X144150247Y-103311669D01*
X143933000Y-103836152D01*
X143933000Y-104403848D01*
X144150247Y-104928331D01*
X144551669Y-105329753D01*
X144697119Y-105390000D01*
X144551669Y-105450247D01*
X144150247Y-105851669D01*
X143933000Y-106376152D01*
X143933000Y-106943848D01*
X144150247Y-107468331D01*
X144551669Y-107869753D01*
X144697119Y-107930000D01*
X144551669Y-107990247D01*
X144368916Y-108173000D01*
X142377976Y-108173000D01*
X142475873Y-108075103D01*
X142617000Y-107734392D01*
X142617000Y-107365608D01*
X142517000Y-107124186D01*
X142517000Y-103586442D01*
X142533200Y-103504998D01*
X142517000Y-103423554D01*
X142517000Y-103423550D01*
X142469016Y-103182319D01*
X142286233Y-102908765D01*
X142217184Y-102862628D01*
X133352374Y-93997819D01*
X133306235Y-93928767D01*
X133032681Y-93745984D01*
X132791450Y-93698000D01*
X132791446Y-93698000D01*
X132710002Y-93681800D01*
X132628558Y-93698000D01*
X130530572Y-93698000D01*
X130529157Y-93695883D01*
X130288681Y-93535202D01*
X130076619Y-93493020D01*
X130076615Y-93493020D01*
X130005020Y-93478779D01*
X129933425Y-93493020D01*
X128381903Y-93493020D01*
X128330000Y-93482696D01*
X124330000Y-93482696D01*
X124124375Y-93523597D01*
X123950055Y-93640075D01*
X123833577Y-93814395D01*
X123792676Y-94020020D01*
X123792676Y-94420020D01*
X123833577Y-94625645D01*
X123950055Y-94799965D01*
X124124375Y-94916443D01*
X124142348Y-94920018D01*
X124124375Y-94923593D01*
X123950055Y-95040071D01*
X123833577Y-95214391D01*
X123792676Y-95420016D01*
X123792676Y-95820016D01*
X123833577Y-96025641D01*
X123950055Y-96199961D01*
X124124375Y-96316439D01*
X124142348Y-96320014D01*
X124124375Y-96323589D01*
X123950055Y-96440067D01*
X123833577Y-96614387D01*
X123792676Y-96820012D01*
X123792676Y-97220012D01*
X123822512Y-97370011D01*
X123792676Y-97520010D01*
X123792676Y-97920010D01*
X123822512Y-98070009D01*
X123792676Y-98220008D01*
X123792676Y-98620008D01*
X123822512Y-98770007D01*
X123792676Y-98920006D01*
X123792676Y-99320006D01*
X123822512Y-99470005D01*
X123792676Y-99620004D01*
X123792676Y-100020004D01*
X123822512Y-100170003D01*
X123792676Y-100320002D01*
X123792676Y-100720002D01*
X123833577Y-100925627D01*
X123950055Y-101099947D01*
X124124375Y-101216425D01*
X124330000Y-101257326D01*
X128330000Y-101257326D01*
X128381903Y-101247002D01*
X128875328Y-101247002D01*
X128991762Y-101363436D01*
X129032321Y-101424137D01*
X129272797Y-101584818D01*
X129383757Y-101606889D01*
X129567676Y-101790809D01*
X129567676Y-102100000D01*
X129608577Y-102305625D01*
X129725055Y-102479945D01*
X129899375Y-102596423D01*
X130105000Y-102637324D01*
X130855000Y-102637324D01*
X131060625Y-102596423D01*
X131234945Y-102479945D01*
X131351423Y-102305625D01*
X131392324Y-102100000D01*
X131392324Y-101300000D01*
X131351423Y-101094375D01*
X131254954Y-100950000D01*
X131350527Y-100806965D01*
X131499375Y-100906423D01*
X131705000Y-100947324D01*
X132455000Y-100947324D01*
X132660625Y-100906423D01*
X132834945Y-100789945D01*
X132951423Y-100615625D01*
X132992324Y-100410000D01*
X132992324Y-99610000D01*
X132951423Y-99404375D01*
X132854954Y-99260000D01*
X132951423Y-99115625D01*
X132992324Y-98910000D01*
X132992324Y-98110000D01*
X132951423Y-97904375D01*
X132834945Y-97730055D01*
X132660625Y-97613577D01*
X132455000Y-97572676D01*
X131705000Y-97572676D01*
X131499375Y-97613577D01*
X131448270Y-97647725D01*
X131486423Y-97590625D01*
X131527324Y-97385000D01*
X131527324Y-96635000D01*
X131486423Y-96429375D01*
X131388295Y-96282517D01*
X131476423Y-96150625D01*
X131517324Y-95945000D01*
X131517324Y-95352000D01*
X132367449Y-95352000D01*
X140863001Y-103847553D01*
X140863000Y-107124186D01*
X140763000Y-107365608D01*
X140763000Y-107734392D01*
X140904127Y-108075103D01*
X141002024Y-108173000D01*
X140678850Y-108173000D01*
X140379285Y-108232587D01*
X140039574Y-108459574D01*
X139812587Y-108799285D01*
X139798396Y-108870628D01*
X137266025Y-111403000D01*
X126742161Y-111403000D01*
X126876594Y-110900334D01*
X126886423Y-110885625D01*
X126927324Y-110680000D01*
X126927324Y-108680000D01*
X126886423Y-108474375D01*
X126769945Y-108300055D01*
X126595625Y-108183577D01*
X126390000Y-108142676D01*
X122590000Y-108142676D01*
X122384375Y-108183577D01*
X122210055Y-108300055D01*
X122093577Y-108474375D01*
X122052676Y-108680000D01*
X122052676Y-110680000D01*
X122093577Y-110885625D01*
X122103406Y-110900334D01*
X123202676Y-115010650D01*
X123202676Y-116980000D01*
X123237023Y-117152676D01*
X123130000Y-117152676D01*
X122924375Y-117193577D01*
X122790000Y-117283364D01*
X122655625Y-117193577D01*
X122450000Y-117152676D01*
X121950000Y-117152676D01*
X121744375Y-117193577D01*
X121570055Y-117310055D01*
X121453577Y-117484375D01*
X121412676Y-117690000D01*
X121412676Y-117859088D01*
X121356799Y-118140000D01*
X121412676Y-118420912D01*
X121412676Y-118590000D01*
X121453577Y-118795625D01*
X121570055Y-118969945D01*
X121744375Y-119086423D01*
X121950000Y-119127324D01*
X122450000Y-119127324D01*
X122655625Y-119086423D01*
X122790000Y-118996636D01*
X122924375Y-119086423D01*
X123130000Y-119127324D01*
X123630000Y-119127324D01*
X123835625Y-119086423D01*
X124009945Y-118969945D01*
X124053001Y-118905508D01*
X124053001Y-118962950D01*
X123960055Y-119025055D01*
X123843577Y-119199375D01*
X123802676Y-119405000D01*
X123802676Y-120155000D01*
X123843577Y-120360625D01*
X123960055Y-120534945D01*
X124020001Y-120575000D01*
X123960055Y-120615055D01*
X123843577Y-120789375D01*
X123802676Y-120995000D01*
X123802676Y-121330601D01*
X123794839Y-121370000D01*
X123802676Y-121409399D01*
X123802676Y-121745000D01*
X123813000Y-121796905D01*
X123813001Y-122161023D01*
X122356355Y-123617670D01*
X113602000Y-123641395D01*
X113602000Y-104726913D01*
X121843000Y-104726913D01*
X121843000Y-105573087D01*
X122166817Y-106354848D01*
X122765152Y-106953183D01*
X123546913Y-107277000D01*
X124393087Y-107277000D01*
X125174848Y-106953183D01*
X125773183Y-106354848D01*
X126097000Y-105573087D01*
X126097000Y-104726913D01*
X125773183Y-103945152D01*
X125174848Y-103346817D01*
X124393087Y-103023000D01*
X123546913Y-103023000D01*
X122765152Y-103346817D01*
X122166817Y-103945152D01*
X121843000Y-104726913D01*
X113602000Y-104726913D01*
X113602000Y-81919608D01*
X119053000Y-81919608D01*
X119053001Y-100220393D01*
X119141599Y-100665806D01*
X119479096Y-101170905D01*
X119984195Y-101508402D01*
X120580000Y-101626915D01*
X121175806Y-101508402D01*
X121680905Y-101170905D01*
X122018402Y-100665806D01*
X122107000Y-100220393D01*
X122107000Y-82120054D01*
X123792676Y-82120054D01*
X123792676Y-82520054D01*
X123822512Y-82670053D01*
X123792676Y-82820052D01*
X123792676Y-83220052D01*
X123822512Y-83370051D01*
X123792676Y-83520050D01*
X123792676Y-83920050D01*
X123833577Y-84125675D01*
X123950055Y-84299995D01*
X124124375Y-84416473D01*
X124330000Y-84457374D01*
X128330000Y-84457374D01*
X128381903Y-84447050D01*
X128816067Y-84447050D01*
X128853577Y-84635625D01*
X128970055Y-84809945D01*
X129144375Y-84926423D01*
X129350000Y-84967324D01*
X130250000Y-84967324D01*
X130455625Y-84926423D01*
X130629945Y-84809945D01*
X130706250Y-84695747D01*
X130865000Y-84727324D01*
X131615000Y-84727324D01*
X131820625Y-84686423D01*
X131994945Y-84569945D01*
X132111423Y-84395625D01*
X132152324Y-84190000D01*
X132152324Y-83390000D01*
X132111423Y-83184375D01*
X131994945Y-83010055D01*
X131820625Y-82893577D01*
X131615000Y-82852676D01*
X131330808Y-82852676D01*
X131034748Y-82556616D01*
X130994189Y-82495915D01*
X130753713Y-82335234D01*
X130712324Y-82327001D01*
X130712324Y-81570000D01*
X130671423Y-81364375D01*
X130554945Y-81190055D01*
X130380625Y-81073577D01*
X130175000Y-81032676D01*
X129425000Y-81032676D01*
X129219375Y-81073577D01*
X129045055Y-81190055D01*
X128928577Y-81364375D01*
X128887676Y-81570000D01*
X128887676Y-81593054D01*
X128381903Y-81593054D01*
X128330000Y-81582730D01*
X124330000Y-81582730D01*
X124124375Y-81623631D01*
X123950055Y-81740109D01*
X123833577Y-81914429D01*
X123792676Y-82120054D01*
X122107000Y-82120054D01*
X122107000Y-81919607D01*
X122018402Y-81474194D01*
X121680905Y-80969095D01*
X121175805Y-80631598D01*
X120580000Y-80513085D01*
X119984194Y-80631598D01*
X119479095Y-80969095D01*
X119141598Y-81474195D01*
X119053000Y-81919608D01*
X113602000Y-81919608D01*
X113602000Y-74726913D01*
X121843000Y-74726913D01*
X121843000Y-75573087D01*
X122166817Y-76354848D01*
X122765152Y-76953183D01*
X123546913Y-77277000D01*
X124393087Y-77277000D01*
X125174848Y-76953183D01*
X125773183Y-76354848D01*
X126097000Y-75573087D01*
X126097000Y-74726913D01*
X125773183Y-73945152D01*
X125174848Y-73346817D01*
X124393087Y-73023000D01*
X123546913Y-73023000D01*
X122765152Y-73346817D01*
X122166817Y-73945152D01*
X121843000Y-74726913D01*
X113602000Y-74726913D01*
X113602000Y-53034976D01*
X113653085Y-52596805D01*
X113973000Y-52596805D01*
X113973000Y-53403195D01*
X114281593Y-54148203D01*
X114851797Y-54718407D01*
X115596805Y-55027000D01*
X116403195Y-55027000D01*
X117148203Y-54718407D01*
X117718407Y-54148203D01*
X118027000Y-53403195D01*
X118027000Y-52596805D01*
X117718407Y-51851797D01*
X117148203Y-51281593D01*
X116403195Y-50973000D01*
X115596805Y-50973000D01*
X114851797Y-51281593D01*
X114281593Y-51851797D01*
X113973000Y-52596805D01*
X113653085Y-52596805D01*
X113670285Y-52449276D01*
X113859462Y-51928102D01*
X114163467Y-51464419D01*
X114565982Y-51083113D01*
X115045427Y-50804629D01*
X115583958Y-50641524D01*
X116026814Y-50602000D01*
X181965024Y-50602000D01*
X182550724Y-50670285D01*
G04 #@! TO.N,+5V*
G36*
X125117312Y-114947188D02*
X125113000Y-114980000D01*
X125113000Y-116853000D01*
X123867000Y-116853000D01*
X123867000Y-114980000D01*
X123862688Y-114947188D01*
X122865166Y-111217324D01*
X126114834Y-111217324D01*
X125117312Y-114947188D01*
X125117312Y-114947188D01*
G37*
X125117312Y-114947188D02*
X125113000Y-114980000D01*
X125113000Y-116853000D01*
X123867000Y-116853000D01*
X123867000Y-114980000D01*
X123862688Y-114947188D01*
X122865166Y-111217324D01*
X126114834Y-111217324D01*
X125117312Y-114947188D01*
G04 #@! TO.N,+12V*
G36*
X124404177Y-132990447D02*
X124414085Y-133039000D01*
X124441819Y-133080065D01*
X124483156Y-133107390D01*
X124531343Y-133116818D01*
X137343000Y-133099861D01*
X137343000Y-134140000D01*
X137390676Y-134379682D01*
X137390676Y-134434000D01*
X137431577Y-134639625D01*
X137548055Y-134813945D01*
X137722375Y-134930423D01*
X137901644Y-134966081D01*
X138030057Y-135019272D01*
X138270000Y-135067000D01*
X139523000Y-135067000D01*
X139523000Y-135667000D01*
X138598698Y-135667000D01*
X138550054Y-135676676D01*
X137928000Y-135676676D01*
X137722375Y-135717577D01*
X137639429Y-135773000D01*
X130625000Y-135773000D01*
X130576399Y-135782667D01*
X130535197Y-135810197D01*
X130507667Y-135851399D01*
X130498000Y-135900000D01*
X130498000Y-139300000D01*
X130507667Y-139348601D01*
X130535197Y-139389803D01*
X130576399Y-139417333D01*
X130625000Y-139427000D01*
X137075000Y-139427000D01*
X137123601Y-139417333D01*
X137164803Y-139389803D01*
X137192333Y-139348601D01*
X137202000Y-139300000D01*
X137202000Y-139002000D01*
X138698000Y-139002000D01*
X138698000Y-140698000D01*
X129565661Y-140698000D01*
X127906811Y-139514466D01*
X127894178Y-135124177D01*
X127884371Y-135075604D01*
X127856723Y-135034481D01*
X127815442Y-135007070D01*
X127767654Y-134997543D01*
X119871098Y-134968005D01*
X119827679Y-126827000D01*
X124373628Y-126827000D01*
X124404177Y-132990447D01*
X124404177Y-132990447D01*
G37*
X124404177Y-132990447D02*
X124414085Y-133039000D01*
X124441819Y-133080065D01*
X124483156Y-133107390D01*
X124531343Y-133116818D01*
X137343000Y-133099861D01*
X137343000Y-134140000D01*
X137390676Y-134379682D01*
X137390676Y-134434000D01*
X137431577Y-134639625D01*
X137548055Y-134813945D01*
X137722375Y-134930423D01*
X137901644Y-134966081D01*
X138030057Y-135019272D01*
X138270000Y-135067000D01*
X139523000Y-135067000D01*
X139523000Y-135667000D01*
X138598698Y-135667000D01*
X138550054Y-135676676D01*
X137928000Y-135676676D01*
X137722375Y-135717577D01*
X137639429Y-135773000D01*
X130625000Y-135773000D01*
X130576399Y-135782667D01*
X130535197Y-135810197D01*
X130507667Y-135851399D01*
X130498000Y-135900000D01*
X130498000Y-139300000D01*
X130507667Y-139348601D01*
X130535197Y-139389803D01*
X130576399Y-139417333D01*
X130625000Y-139427000D01*
X137075000Y-139427000D01*
X137123601Y-139417333D01*
X137164803Y-139389803D01*
X137192333Y-139348601D01*
X137202000Y-139300000D01*
X137202000Y-139002000D01*
X138698000Y-139002000D01*
X138698000Y-140698000D01*
X129565661Y-140698000D01*
X127906811Y-139514466D01*
X127894178Y-135124177D01*
X127884371Y-135075604D01*
X127856723Y-135034481D01*
X127815442Y-135007070D01*
X127767654Y-134997543D01*
X119871098Y-134968005D01*
X119827679Y-126827000D01*
X124373628Y-126827000D01*
X124404177Y-132990447D01*
D53*
G04 #@! TO.N,+12P*
G36*
X127253653Y-135637624D02*
X127264510Y-139410649D01*
X127231064Y-139491628D01*
X127028182Y-139576390D01*
X125211073Y-139583775D01*
X125205322Y-139584947D01*
X124993091Y-139674139D01*
X124988242Y-139677415D01*
X124985003Y-139682328D01*
X124898464Y-139895655D01*
X124897365Y-139901420D01*
X124932266Y-144054604D01*
X124848783Y-144259797D01*
X124644301Y-144345000D01*
X120833382Y-144345000D01*
X120629614Y-144260518D01*
X120545400Y-144056638D01*
X120556400Y-135707198D01*
X120595603Y-135612719D01*
X127253653Y-135637624D01*
X127253653Y-135637624D01*
G37*
X127253653Y-135637624D02*
X127264510Y-139410649D01*
X127231064Y-139491628D01*
X127028182Y-139576390D01*
X125211073Y-139583775D01*
X125205322Y-139584947D01*
X124993091Y-139674139D01*
X124988242Y-139677415D01*
X124985003Y-139682328D01*
X124898464Y-139895655D01*
X124897365Y-139901420D01*
X124932266Y-144054604D01*
X124848783Y-144259797D01*
X124644301Y-144345000D01*
X120833382Y-144345000D01*
X120629614Y-144260518D01*
X120545400Y-144056638D01*
X120556400Y-135707198D01*
X120595603Y-135612719D01*
X127253653Y-135637624D01*
G04 #@! TD*
M02*
