G04 #@! TF.GenerationSoftware,KiCad,Pcbnew,5.0.1*
G04 #@! TF.CreationDate,2019-02-05T22:36:18+00:00*
G04 #@! TF.ProjectId,nixie_control_board,6E697869655F636F6E74726F6C5F626F,rev?*
G04 #@! TF.SameCoordinates,Original*
G04 #@! TF.FileFunction,Copper,L1,Top,Signal*
G04 #@! TF.FilePolarity,Positive*
%FSLAX46Y46*%
G04 Gerber Fmt 4.6, Leading zero omitted, Abs format (unit mm)*
G04 Created by KiCad (PCBNEW 5.0.1) date Di 05 Feb 2019 22:36:18 UTC*
%MOMM*%
%LPD*%
G01*
G04 APERTURE LIST*
G04 #@! TA.AperFunction,SMDPad,CuDef*
%ADD10R,0.800000X0.750000*%
G04 #@! TD*
G04 #@! TA.AperFunction,SMDPad,CuDef*
%ADD11R,1.600000X1.000000*%
G04 #@! TD*
G04 #@! TA.AperFunction,SMDPad,CuDef*
%ADD12R,2.700000X2.550000*%
G04 #@! TD*
G04 #@! TA.AperFunction,SMDPad,CuDef*
%ADD13R,4.000000X0.400000*%
G04 #@! TD*
G04 #@! TA.AperFunction,ComponentPad*
%ADD14C,1.524000*%
G04 #@! TD*
G04 #@! TA.AperFunction,SMDPad,CuDef*
%ADD15R,4.000000X6.000000*%
G04 #@! TD*
G04 #@! TA.AperFunction,ComponentPad*
%ADD16C,1.800000*%
G04 #@! TD*
G04 #@! TA.AperFunction,SMDPad,CuDef*
%ADD17R,0.599440X1.625000*%
G04 #@! TD*
G04 #@! TA.AperFunction,SMDPad,CuDef*
%ADD18R,0.500000X0.400000*%
G04 #@! TD*
G04 #@! TA.AperFunction,SMDPad,CuDef*
%ADD19R,0.500000X0.300000*%
G04 #@! TD*
G04 #@! TA.AperFunction,ComponentPad*
%ADD20C,2.286000*%
G04 #@! TD*
G04 #@! TA.AperFunction,ComponentPad*
%ADD21R,1.300000X1.300000*%
G04 #@! TD*
G04 #@! TA.AperFunction,ComponentPad*
%ADD22C,1.300000*%
G04 #@! TD*
G04 #@! TA.AperFunction,ComponentPad*
%ADD23C,1.998980*%
G04 #@! TD*
G04 #@! TA.AperFunction,ComponentPad*
%ADD24R,1.998980X1.998980*%
G04 #@! TD*
G04 #@! TA.AperFunction,ComponentPad*
%ADD25C,2.300000*%
G04 #@! TD*
G04 #@! TA.AperFunction,SMDPad,CuDef*
%ADD26R,3.200000X1.000000*%
G04 #@! TD*
G04 #@! TA.AperFunction,SMDPad,CuDef*
%ADD27R,2.000000X3.800000*%
G04 #@! TD*
G04 #@! TA.AperFunction,SMDPad,CuDef*
%ADD28R,2.000000X1.500000*%
G04 #@! TD*
G04 #@! TA.AperFunction,SMDPad,CuDef*
%ADD29R,0.500000X0.900000*%
G04 #@! TD*
G04 #@! TA.AperFunction,SMDPad,CuDef*
%ADD30R,1.524000X0.760000*%
G04 #@! TD*
G04 #@! TA.AperFunction,SMDPad,CuDef*
%ADD31R,0.750000X0.800000*%
G04 #@! TD*
G04 #@! TA.AperFunction,SMDPad,CuDef*
%ADD32R,0.900000X0.500000*%
G04 #@! TD*
G04 #@! TA.AperFunction,SMDPad,CuDef*
%ADD33R,2.500000X1.000000*%
G04 #@! TD*
G04 #@! TA.AperFunction,SMDPad,CuDef*
%ADD34R,1.000000X3.200000*%
G04 #@! TD*
G04 #@! TA.AperFunction,ComponentPad*
%ADD35C,3.200000*%
G04 #@! TD*
G04 #@! TA.AperFunction,ComponentPad*
%ADD36C,2.000000*%
G04 #@! TD*
G04 #@! TA.AperFunction,ComponentPad*
%ADD37R,1.700000X1.700000*%
G04 #@! TD*
G04 #@! TA.AperFunction,SMDPad,CuDef*
%ADD38R,2.200000X2.700000*%
G04 #@! TD*
G04 #@! TA.AperFunction,SMDPad,CuDef*
%ADD39R,1.200000X1.200000*%
G04 #@! TD*
G04 #@! TA.AperFunction,SMDPad,CuDef*
%ADD40R,1.600000X1.500000*%
G04 #@! TD*
G04 #@! TA.AperFunction,ComponentPad*
%ADD41O,1.700000X1.700000*%
G04 #@! TD*
G04 #@! TA.AperFunction,SMDPad,CuDef*
%ADD42R,1.549400X0.599440*%
G04 #@! TD*
G04 #@! TA.AperFunction,ComponentPad*
%ADD43C,1.600000*%
G04 #@! TD*
G04 #@! TA.AperFunction,SMDPad,CuDef*
%ADD44R,0.914400X0.914400*%
G04 #@! TD*
G04 #@! TA.AperFunction,ViaPad*
%ADD45C,0.800000*%
G04 #@! TD*
G04 #@! TA.AperFunction,ViaPad*
%ADD46C,1.000000*%
G04 #@! TD*
G04 #@! TA.AperFunction,Conductor*
%ADD47C,0.400000*%
G04 #@! TD*
G04 #@! TA.AperFunction,Conductor*
%ADD48C,0.800000*%
G04 #@! TD*
G04 #@! TA.AperFunction,Conductor*
%ADD49C,1.600000*%
G04 #@! TD*
G04 #@! TA.AperFunction,Conductor*
%ADD50C,0.600000*%
G04 #@! TD*
G04 #@! TA.AperFunction,Conductor*
%ADD51C,1.000000*%
G04 #@! TD*
G04 #@! TA.AperFunction,Conductor*
%ADD52C,0.030000*%
G04 #@! TD*
G04 #@! TA.AperFunction,Conductor*
%ADD53C,0.150000*%
G04 #@! TD*
G04 #@! TA.AperFunction,Conductor*
%ADD54C,0.254000*%
G04 #@! TD*
G04 APERTURE END LIST*
D10*
G04 #@! TO.P,C5,1*
G04 #@! TO.N,Net-(C5-Pad1)*
X148400000Y-139440000D03*
G04 #@! TO.P,C5,2*
G04 #@! TO.N,GND*
X146900000Y-139440000D03*
G04 #@! TD*
D11*
G04 #@! TO.P,C7,2*
G04 #@! TO.N,GND*
X153190000Y-130800000D03*
G04 #@! TO.P,C7,1*
G04 #@! TO.N,Net-(C6-Pad1)*
X153190000Y-127800000D03*
G04 #@! TD*
G04 #@! TO.P,C23,1*
G04 #@! TO.N,GND*
X178250000Y-131900000D03*
G04 #@! TO.P,C23,2*
G04 #@! TO.N,+5V*
X178250000Y-128900000D03*
G04 #@! TD*
D12*
G04 #@! TO.P,C10,1*
G04 #@! TO.N,+12V*
X136200000Y-138525000D03*
G04 #@! TO.P,C10,2*
G04 #@! TO.N,GND*
X136200000Y-144875000D03*
G04 #@! TD*
D13*
G04 #@! TO.P,U7,30*
G04 #@! TO.N,GND*
X126330000Y-80920058D03*
G04 #@! TO.P,U7,29*
X126330000Y-81620056D03*
G04 #@! TO.P,U7,25*
X126330000Y-84420048D03*
G04 #@! TO.P,U7,27*
G04 #@! TO.N,Net-(C14-Pad1)*
X126330000Y-83020052D03*
G04 #@! TO.P,U7,15*
G04 #@! TO.N,GND*
X126330000Y-91420028D03*
G04 #@! TO.P,U7,19*
G04 #@! TO.N,SDA*
X126330000Y-88620036D03*
G04 #@! TO.P,U7,13*
G04 #@! TO.N,GND*
X126330000Y-92820024D03*
G04 #@! TO.P,U7,21*
X126330000Y-87220040D03*
G04 #@! TO.P,U7,23*
X126330000Y-85820044D03*
G04 #@! TO.P,U7,17*
X126330000Y-90020032D03*
G04 #@! TO.P,U7,28*
G04 #@! TO.N,Net-(C12-Pad1)*
X126330000Y-82320054D03*
G04 #@! TO.P,U7,26*
G04 #@! TO.N,Net-(R6-Pad1)*
X126330000Y-83720050D03*
G04 #@! TO.P,U7,24*
G04 #@! TO.N,GND*
X126330000Y-85120046D03*
G04 #@! TO.P,U7,10*
X126330000Y-94920018D03*
G04 #@! TO.P,U7,2*
G04 #@! TO.N,Net-(C15-Pad1)*
X126330000Y-100520002D03*
G04 #@! TO.P,U7,4*
G04 #@! TO.N,Net-(C16-Pad1)*
X126330000Y-99120006D03*
G04 #@! TO.P,U7,7*
G04 #@! TO.N,Net-(U7-Pad7)*
X126330000Y-97020012D03*
G04 #@! TO.P,U7,6*
G04 #@! TO.N,+3V3*
X126330000Y-97720010D03*
G04 #@! TO.P,U7,18*
G04 #@! TO.N,SCL*
X126330000Y-89320034D03*
G04 #@! TO.P,U7,14*
G04 #@! TO.N,DISP_RESET*
X126330000Y-92120026D03*
G04 #@! TO.P,U7,12*
G04 #@! TO.N,GND*
X126330000Y-93520022D03*
G04 #@! TO.P,U7,20*
G04 #@! TO.N,SDA*
X126330000Y-87920038D03*
G04 #@! TO.P,U7,22*
G04 #@! TO.N,GND*
X126330000Y-86520042D03*
G04 #@! TO.P,U7,16*
X126330000Y-90720030D03*
G04 #@! TO.P,U7,11*
G04 #@! TO.N,+3V3*
X126330000Y-94220020D03*
G04 #@! TO.P,U7,9*
X126330000Y-95620016D03*
G04 #@! TO.P,U7,8*
G04 #@! TO.N,GND*
X126330000Y-96320014D03*
G04 #@! TO.P,U7,5*
G04 #@! TO.N,Net-(C16-Pad2)*
X126330000Y-98420008D03*
G04 #@! TO.P,U7,3*
G04 #@! TO.N,Net-(C15-Pad2)*
X126330000Y-99820004D03*
G04 #@! TO.P,U7,1*
G04 #@! TO.N,GND*
X126330000Y-101220000D03*
G04 #@! TD*
D14*
G04 #@! TO.P,U5,1*
G04 #@! TO.N,+5V*
X175500000Y-59930000D03*
G04 #@! TO.P,U5,2*
G04 #@! TO.N,DHT*
X178040000Y-59930000D03*
G04 #@! TO.P,U5,3*
G04 #@! TO.N,GND*
X180580000Y-59930000D03*
G04 #@! TD*
D15*
G04 #@! TO.P,L1,1*
G04 #@! TO.N,+12V*
X127082000Y-128448000D03*
G04 #@! TO.P,L1,2*
G04 #@! TO.N,Net-(D1-Pad2)*
X139082000Y-128448000D03*
G04 #@! TD*
D16*
G04 #@! TO.P,MCU1,1*
G04 #@! TO.N,GND*
X160600000Y-66020000D03*
G04 #@! TO.P,MCU1,2*
X160600000Y-68560000D03*
G04 #@! TO.P,MCU1,3*
G04 #@! TO.N,Net-(MCU1-Pad3)*
X160600000Y-71100000D03*
G04 #@! TO.P,MCU1,4*
G04 #@! TO.N,Net-(MCU1-Pad4)*
X160600000Y-73640000D03*
G04 #@! TO.P,MCU1,5*
G04 #@! TO.N,SDA2*
X160600000Y-76180000D03*
G04 #@! TO.P,MCU1,6*
G04 #@! TO.N,SCL2*
X160600000Y-78720000D03*
G04 #@! TO.P,MCU1,7*
G04 #@! TO.N,DHT*
X160600000Y-81260000D03*
G04 #@! TO.P,MCU1,8*
G04 #@! TO.N,Net-(MCU1-Pad8)*
X160600000Y-83800000D03*
G04 #@! TO.P,MCU1,9*
G04 #@! TO.N,MOSI*
X160600000Y-86340000D03*
G04 #@! TO.P,MCU1,10*
G04 #@! TO.N,Net-(MCU1-Pad10)*
X160600000Y-88880000D03*
G04 #@! TO.P,MCU1,11*
G04 #@! TO.N,SCK*
X160600000Y-91420000D03*
G04 #@! TO.P,MCU1,12*
G04 #@! TO.N,Net-(MCU1-Pad12)*
X160600000Y-93960000D03*
G04 #@! TO.P,MCU1,13*
G04 #@! TO.N,Net-(MCU1-Pad13)*
X160600000Y-96500000D03*
G04 #@! TO.P,MCU1,14*
G04 #@! TO.N,Net-(MCU1-Pad14)*
X160600000Y-99040000D03*
G04 #@! TO.P,MCU1,15*
G04 #@! TO.N,Net-(MCU1-Pad15)*
X160600000Y-101580000D03*
G04 #@! TO.P,MCU1,16*
G04 #@! TO.N,BUTTON_3*
X160600000Y-104120000D03*
G04 #@! TO.P,MCU1,17*
G04 #@! TO.N,BUTTON_2*
X160600000Y-106660000D03*
G04 #@! TO.P,MCU1,18*
G04 #@! TO.N,BUTTON_1*
X160600000Y-109200000D03*
G04 #@! TO.P,MCU1,19*
G04 #@! TO.N,Net-(MCU1-Pad19)*
X160600000Y-111740000D03*
G04 #@! TO.P,MCU1,20*
G04 #@! TO.N,Net-(MCU1-Pad20)*
X160600000Y-114280000D03*
G04 #@! TO.P,MCU1,21*
G04 #@! TO.N,+3V3*
X145360000Y-114280000D03*
G04 #@! TO.P,MCU1,22*
G04 #@! TO.N,GND*
X145360000Y-111740000D03*
G04 #@! TO.P,MCU1,23*
G04 #@! TO.N,+5V*
X145360000Y-109200000D03*
G04 #@! TO.P,MCU1,24*
G04 #@! TO.N,Net-(MCU1-Pad24)*
X145360000Y-106660000D03*
G04 #@! TO.P,MCU1,25*
G04 #@! TO.N,Net-(MCU1-Pad25)*
X145360000Y-104120000D03*
G04 #@! TO.P,MCU1,26*
G04 #@! TO.N,SDA*
X145360000Y-101580000D03*
G04 #@! TO.P,MCU1,27*
G04 #@! TO.N,SCL*
X145360000Y-99040000D03*
G04 #@! TO.P,MCU1,28*
G04 #@! TO.N,DISP_RESET*
X145360000Y-96500000D03*
G04 #@! TO.P,MCU1,29*
G04 #@! TO.N,Net-(MCU1-Pad29)*
X145360000Y-93960000D03*
G04 #@! TO.P,MCU1,30*
G04 #@! TO.N,Net-(MCU1-Pad30)*
X145360000Y-91420000D03*
G04 #@! TO.P,MCU1,31*
G04 #@! TO.N,BUZZER*
X145360000Y-88880000D03*
G04 #@! TO.P,MCU1,32*
G04 #@! TO.N,Net-(MCU1-Pad32)*
X145360000Y-86340000D03*
G04 #@! TO.P,MCU1,33*
G04 #@! TO.N,Net-(MCU1-Pad33)*
X145360000Y-83800000D03*
G04 #@! TO.P,MCU1,34*
G04 #@! TO.N,RX*
X145360000Y-81260000D03*
G04 #@! TO.P,MCU1,35*
G04 #@! TO.N,TX*
X145360000Y-78720000D03*
G04 #@! TO.P,MCU1,36*
G04 #@! TO.N,SHIFT_CLEAR*
X145360000Y-76180000D03*
G04 #@! TO.P,MCU1,37*
G04 #@! TO.N,SHIFT_OUT_ENABLE*
X145360000Y-73640000D03*
G04 #@! TO.P,MCU1,38*
G04 #@! TO.N,SHIFT_LATCH_CLOCK*
X145360000Y-71100000D03*
G04 #@! TO.P,MCU1,39*
G04 #@! TO.N,SHIFT_SERIAL_CLOCK*
X145360000Y-68560000D03*
G04 #@! TO.P,MCU1,40*
G04 #@! TO.N,SHIFT_SER_OUT*
X145360000Y-66020000D03*
G04 #@! TD*
D17*
G04 #@! TO.P,U1,16*
G04 #@! TO.N,SCL*
X133450000Y-71325000D03*
G04 #@! TO.P,U1,15*
G04 #@! TO.N,SDA*
X132180000Y-71325000D03*
G04 #@! TO.P,U1,14*
G04 #@! TO.N,Net-(BT1-Pad1)*
X130910000Y-71325000D03*
G04 #@! TO.P,U1,13*
G04 #@! TO.N,GND*
X129640000Y-71325000D03*
G04 #@! TO.P,U1,12*
X128370000Y-71325000D03*
G04 #@! TO.P,U1,11*
X127100000Y-71325000D03*
G04 #@! TO.P,U1,10*
X125830000Y-71325000D03*
G04 #@! TO.P,U1,9*
X124560000Y-71325000D03*
G04 #@! TO.P,U1,8*
X124560000Y-62200000D03*
G04 #@! TO.P,U1,7*
X125830000Y-62200000D03*
G04 #@! TO.P,U1,6*
X127100000Y-62200000D03*
G04 #@! TO.P,U1,5*
X128370000Y-62200000D03*
G04 #@! TO.P,U1,4*
G04 #@! TO.N,Net-(U1-Pad4)*
X129640000Y-62200000D03*
G04 #@! TO.P,U1,3*
G04 #@! TO.N,SQW*
X130910000Y-62200000D03*
G04 #@! TO.P,U1,2*
G04 #@! TO.N,+5V*
X132180000Y-62200000D03*
G04 #@! TO.P,U1,1*
G04 #@! TO.N,Net-(P5-Pad1)*
X133450000Y-62200000D03*
G04 #@! TD*
D10*
G04 #@! TO.P,C2,1*
G04 #@! TO.N,GND*
X129440000Y-59780000D03*
G04 #@! TO.P,C2,2*
G04 #@! TO.N,+5V*
X130940000Y-59780000D03*
G04 #@! TD*
D18*
G04 #@! TO.P,RP1,1*
G04 #@! TO.N,+5V*
X134450000Y-74930000D03*
D19*
G04 #@! TO.P,RP1,3*
X134450000Y-73930000D03*
G04 #@! TO.P,RP1,2*
X134450000Y-74430000D03*
D18*
G04 #@! TO.P,RP1,4*
X134450000Y-73430000D03*
D19*
G04 #@! TO.P,RP1,7*
G04 #@! TO.N,Net-(RP1-Pad7)*
X133450000Y-74430000D03*
D18*
G04 #@! TO.P,RP1,8*
G04 #@! TO.N,SDA*
X133450000Y-74930000D03*
D19*
G04 #@! TO.P,RP1,6*
G04 #@! TO.N,Net-(RP1-Pad6)*
X133450000Y-73930000D03*
D18*
G04 #@! TO.P,RP1,5*
G04 #@! TO.N,SCL*
X133450000Y-73430000D03*
G04 #@! TD*
D20*
G04 #@! TO.P,SW1,1*
G04 #@! TO.N,BUTTON_1*
X168670000Y-112785000D03*
G04 #@! TO.P,SW1,2*
G04 #@! TO.N,GND*
X171210000Y-106435000D03*
G04 #@! TD*
G04 #@! TO.P,SW2,1*
G04 #@! TO.N,BUTTON_2*
X168670000Y-93785000D03*
G04 #@! TO.P,SW2,2*
G04 #@! TO.N,GND*
X171210000Y-87435000D03*
G04 #@! TD*
G04 #@! TO.P,SW3,1*
G04 #@! TO.N,BUTTON_3*
X168670000Y-74785000D03*
G04 #@! TO.P,SW3,2*
G04 #@! TO.N,GND*
X171210000Y-68435000D03*
G04 #@! TD*
D21*
G04 #@! TO.P,C6,1*
G04 #@! TO.N,Net-(C6-Pad1)*
X157574000Y-127766000D03*
D22*
G04 #@! TO.P,C6,2*
G04 #@! TO.N,GND*
X161374000Y-127766000D03*
G04 #@! TD*
D23*
G04 #@! TO.P,D1,2*
G04 #@! TO.N,Net-(D1-Pad2)*
X143350000Y-125110000D03*
D24*
G04 #@! TO.P,D1,1*
G04 #@! TO.N,Net-(C6-Pad1)*
X153510000Y-125110000D03*
G04 #@! TD*
D25*
G04 #@! TO.P,P1,1*
G04 #@! TO.N,+12P*
X123000000Y-142800000D03*
G04 #@! TO.P,P1,2*
G04 #@! TO.N,GND*
X128000000Y-142800000D03*
G04 #@! TD*
G04 #@! TO.P,P2,1*
G04 #@! TO.N,Net-(C6-Pad1)*
X156070000Y-142240000D03*
G04 #@! TO.P,P2,2*
G04 #@! TO.N,GND*
X161070000Y-142240000D03*
G04 #@! TD*
D26*
G04 #@! TO.P,R1,1*
G04 #@! TO.N,Net-(Q1-Pad3)*
X151370000Y-134010000D03*
G04 #@! TO.P,R1,2*
G04 #@! TO.N,GND*
X151370000Y-140210000D03*
G04 #@! TD*
D14*
G04 #@! TO.P,RV1,2*
G04 #@! TO.N,Net-(R3-Pad1)*
X146840000Y-144400000D03*
G04 #@! TO.P,RV1,3*
X149380000Y-144400000D03*
G04 #@! TO.P,RV1,1*
G04 #@! TO.N,Net-(R2-Pad2)*
X144300000Y-144400000D03*
G04 #@! TD*
D27*
G04 #@! TO.P,P3,4*
G04 #@! TO.N,+3V3*
X133440000Y-114260000D03*
D28*
G04 #@! TO.P,P3,2*
X139740000Y-114260000D03*
G04 #@! TO.P,P3,3*
G04 #@! TO.N,+5V*
X139740000Y-111960000D03*
G04 #@! TO.P,P3,1*
G04 #@! TO.N,GND*
X139740000Y-116560000D03*
G04 #@! TD*
D10*
G04 #@! TO.P,C8,1*
G04 #@! TO.N,+5V*
X137220000Y-109410000D03*
G04 #@! TO.P,C8,2*
G04 #@! TO.N,GND*
X135720000Y-109410000D03*
G04 #@! TD*
G04 #@! TO.P,C9,1*
G04 #@! TO.N,+3V3*
X130850000Y-111050000D03*
G04 #@! TO.P,C9,2*
G04 #@! TO.N,GND*
X129350000Y-111050000D03*
G04 #@! TD*
D29*
G04 #@! TO.P,R4,1*
G04 #@! TO.N,+3V3*
X130820000Y-112980000D03*
G04 #@! TO.P,R4,2*
G04 #@! TO.N,Net-(R4-Pad2)*
X129320000Y-112980000D03*
G04 #@! TD*
G04 #@! TO.P,R5,1*
G04 #@! TO.N,Net-(R4-Pad2)*
X129300000Y-115030000D03*
G04 #@! TO.P,R5,2*
G04 #@! TO.N,GND*
X130800000Y-115030000D03*
G04 #@! TD*
D30*
G04 #@! TO.P,U3,1*
G04 #@! TO.N,Net-(Q1-Pad2)*
X143590000Y-133954000D03*
G04 #@! TO.P,U3,2*
G04 #@! TO.N,+12V*
X143590000Y-135224000D03*
G04 #@! TO.P,U3,3*
G04 #@! TO.N,Net-(R2-Pad2)*
X143590000Y-136494000D03*
G04 #@! TO.P,U3,4*
G04 #@! TO.N,GND*
X143590000Y-137764000D03*
G04 #@! TO.P,U3,5*
G04 #@! TO.N,Net-(C5-Pad1)*
X148190000Y-137764000D03*
G04 #@! TO.P,U3,6*
G04 #@! TO.N,GND*
X148190000Y-136494000D03*
G04 #@! TO.P,U3,7*
X148190000Y-135224000D03*
G04 #@! TO.P,U3,8*
G04 #@! TO.N,Net-(Q1-Pad3)*
X148190000Y-133954000D03*
G04 #@! TD*
D16*
G04 #@! TO.P,U4,1*
G04 #@! TO.N,+5V*
X173810000Y-55960000D03*
G04 #@! TO.P,U4,2*
G04 #@! TO.N,BUZZER*
X171270000Y-55960000D03*
G04 #@! TO.P,U4,3*
G04 #@! TO.N,GND*
X168730000Y-55960000D03*
G04 #@! TD*
D31*
G04 #@! TO.P,C4,2*
G04 #@! TO.N,GND*
X142620000Y-141010000D03*
G04 #@! TO.P,C4,1*
G04 #@! TO.N,+12V*
X142620000Y-139510000D03*
G04 #@! TD*
D32*
G04 #@! TO.P,R3,1*
G04 #@! TO.N,Net-(R3-Pad1)*
X152520000Y-143420000D03*
G04 #@! TO.P,R3,2*
G04 #@! TO.N,GND*
X152520000Y-141920000D03*
G04 #@! TD*
D33*
G04 #@! TO.P,C3,1*
G04 #@! TO.N,+12V*
X140300000Y-139600000D03*
G04 #@! TO.P,C3,2*
G04 #@! TO.N,GND*
X140300000Y-142600000D03*
G04 #@! TD*
D34*
G04 #@! TO.P,R2,1*
G04 #@! TO.N,Net-(C6-Pad1)*
X162706000Y-134116000D03*
G04 #@! TO.P,R2,2*
G04 #@! TO.N,Net-(R2-Pad2)*
X156506000Y-134116000D03*
G04 #@! TD*
D16*
G04 #@! TO.P,Q1,2*
G04 #@! TO.N,Net-(Q1-Pad2)*
X143990000Y-130110000D03*
G04 #@! TO.P,Q1,1*
G04 #@! TO.N,Net-(D1-Pad2)*
X146530000Y-130110000D03*
G04 #@! TO.P,Q1,3*
G04 #@! TO.N,Net-(Q1-Pad3)*
X149070000Y-130110000D03*
G04 #@! TD*
G04 #@! TO.P,LCD1,1*
G04 #@! TO.N,+5V*
X153470000Y-93960000D03*
G04 #@! TO.P,LCD1,2*
G04 #@! TO.N,GND*
X153470000Y-91420000D03*
G04 #@! TO.P,LCD1,3*
G04 #@! TO.N,SCL2*
X153470000Y-88880000D03*
G04 #@! TO.P,LCD1,4*
G04 #@! TO.N,SDA2*
X153470000Y-86340000D03*
D35*
G04 #@! TO.P,LCD1,*
G04 #@! TO.N,*
X152470000Y-75150000D03*
X152470000Y-105150000D03*
X123970000Y-75150000D03*
X123970000Y-105150000D03*
G04 #@! TD*
D36*
G04 #@! TO.P,BT1,1*
G04 #@! TO.N,Net-(BT1-Pad1)*
X143100000Y-53160000D03*
G04 #@! TO.P,BT1,2*
G04 #@! TO.N,GND*
X163100000Y-53160000D03*
G04 #@! TD*
D37*
G04 #@! TO.P,P5,1*
G04 #@! TO.N,Net-(P5-Pad1)*
X121390000Y-66510000D03*
G04 #@! TD*
D10*
G04 #@! TO.P,C11,1*
G04 #@! TO.N,+3V3*
X130580000Y-95570000D03*
G04 #@! TO.P,C11,2*
G04 #@! TO.N,GND*
X132080000Y-95570000D03*
G04 #@! TD*
D31*
G04 #@! TO.P,C12,2*
G04 #@! TO.N,GND*
X129800000Y-80470000D03*
G04 #@! TO.P,C12,1*
G04 #@! TO.N,Net-(C12-Pad1)*
X129800000Y-81970000D03*
G04 #@! TD*
D10*
G04 #@! TO.P,C13,2*
G04 #@! TO.N,GND*
X132090000Y-97010000D03*
G04 #@! TO.P,C13,1*
G04 #@! TO.N,+3V3*
X130590000Y-97010000D03*
G04 #@! TD*
D31*
G04 #@! TO.P,C14,2*
G04 #@! TO.N,GND*
X131240000Y-82290000D03*
G04 #@! TO.P,C14,1*
G04 #@! TO.N,Net-(C14-Pad1)*
X131240000Y-83790000D03*
G04 #@! TD*
G04 #@! TO.P,C15,1*
G04 #@! TO.N,Net-(C15-Pad1)*
X130480000Y-101700000D03*
G04 #@! TO.P,C15,2*
G04 #@! TO.N,Net-(C15-Pad2)*
X130480000Y-100200000D03*
G04 #@! TD*
G04 #@! TO.P,C16,1*
G04 #@! TO.N,Net-(C16-Pad1)*
X132080000Y-100010000D03*
G04 #@! TO.P,C16,2*
G04 #@! TO.N,Net-(C16-Pad2)*
X132080000Y-98510000D03*
G04 #@! TD*
D33*
G04 #@! TO.P,C19,1*
G04 #@! TO.N,+12V*
X168550000Y-134975000D03*
G04 #@! TO.P,C19,2*
G04 #@! TO.N,GND*
X168550000Y-137975000D03*
G04 #@! TD*
D10*
G04 #@! TO.P,C20,1*
G04 #@! TO.N,GND*
X180350000Y-133425000D03*
G04 #@! TO.P,C20,2*
G04 #@! TO.N,Net-(C20-Pad2)*
X178850000Y-133425000D03*
G04 #@! TD*
G04 #@! TO.P,C21,2*
G04 #@! TO.N,Net-(C21-Pad2)*
X171800000Y-132225000D03*
G04 #@! TO.P,C21,1*
G04 #@! TO.N,Net-(C21-Pad1)*
X173300000Y-132225000D03*
G04 #@! TD*
G04 #@! TO.P,C22,2*
G04 #@! TO.N,Net-(C22-Pad2)*
X178850000Y-136375000D03*
G04 #@! TO.P,C22,1*
G04 #@! TO.N,Net-(C22-Pad1)*
X180350000Y-136375000D03*
G04 #@! TD*
D38*
G04 #@! TO.P,L2,1*
G04 #@! TO.N,Net-(C21-Pad1)*
X173180000Y-127970000D03*
G04 #@! TO.P,L2,2*
G04 #@! TO.N,+5V*
X173180000Y-122870000D03*
G04 #@! TD*
D32*
G04 #@! TO.P,R6,2*
G04 #@! TO.N,GND*
X129800000Y-85680000D03*
G04 #@! TO.P,R6,1*
G04 #@! TO.N,Net-(R6-Pad1)*
X129800000Y-84180000D03*
G04 #@! TD*
D29*
G04 #@! TO.P,R9,1*
G04 #@! TO.N,Net-(R9-Pad1)*
X178700000Y-134900000D03*
G04 #@! TO.P,R9,2*
G04 #@! TO.N,+12V*
X180200000Y-134900000D03*
G04 #@! TD*
G04 #@! TO.P,R10,2*
G04 #@! TO.N,Net-(C22-Pad1)*
X180200000Y-137825000D03*
G04 #@! TO.P,R10,1*
G04 #@! TO.N,GND*
X178700000Y-137825000D03*
G04 #@! TD*
G04 #@! TO.P,R11,1*
G04 #@! TO.N,GND*
X178625000Y-139375000D03*
G04 #@! TO.P,R11,2*
G04 #@! TO.N,Net-(R11-Pad2)*
X177125000Y-139375000D03*
G04 #@! TD*
D39*
G04 #@! TO.P,RV2,1*
G04 #@! TO.N,+5V*
X172725000Y-142470000D03*
G04 #@! TO.P,RV2,3*
G04 #@! TO.N,Net-(R11-Pad2)*
X175525000Y-142470000D03*
D40*
G04 #@! TO.P,RV2,2*
G04 #@! TO.N,+5V*
X174125000Y-139230000D03*
G04 #@! TD*
D37*
G04 #@! TO.P,SW4,1*
G04 #@! TO.N,+12P*
X126200000Y-136800000D03*
D41*
G04 #@! TO.P,SW4,2*
G04 #@! TO.N,+12V*
X128740000Y-136800000D03*
G04 #@! TD*
D42*
G04 #@! TO.P,U8,1*
G04 #@! TO.N,Net-(C21-Pad2)*
X171377520Y-133597540D03*
G04 #@! TO.P,U8,2*
G04 #@! TO.N,+12V*
X171377520Y-134867540D03*
G04 #@! TO.P,U8,3*
G04 #@! TO.N,Net-(C21-Pad1)*
X171377520Y-136132460D03*
G04 #@! TO.P,U8,4*
G04 #@! TO.N,GND*
X171377520Y-137402460D03*
G04 #@! TO.P,U8,5*
G04 #@! TO.N,Net-(R11-Pad2)*
X176772480Y-137402460D03*
G04 #@! TO.P,U8,6*
G04 #@! TO.N,Net-(C22-Pad2)*
X176772480Y-136132460D03*
G04 #@! TO.P,U8,7*
G04 #@! TO.N,Net-(R9-Pad1)*
X176772480Y-134867540D03*
G04 #@! TO.P,U8,8*
G04 #@! TO.N,Net-(C20-Pad2)*
X176772480Y-133597540D03*
G04 #@! TD*
D43*
G04 #@! TO.P,BZ1,1*
G04 #@! TO.N,+5V*
X174980000Y-53160000D03*
G04 #@! TO.P,BZ1,2*
G04 #@! TO.N,Net-(BZ1-Pad2)*
X167980000Y-53160000D03*
G04 #@! TD*
D44*
G04 #@! TO.P,Q2,1*
G04 #@! TO.N,Net-(Q2-Pad1)*
X161086000Y-59729000D03*
G04 #@! TO.P,Q2,2*
G04 #@! TO.N,Net-(BZ1-Pad2)*
X161086000Y-57951000D03*
G04 #@! TO.P,Q2,3*
G04 #@! TO.N,GND*
X159069240Y-58840000D03*
G04 #@! TD*
D29*
G04 #@! TO.P,R7,1*
G04 #@! TO.N,Net-(Q2-Pad1)*
X161080000Y-61720000D03*
G04 #@! TO.P,R7,2*
G04 #@! TO.N,BUZZER*
X159580000Y-61720000D03*
G04 #@! TD*
D37*
G04 #@! TO.P,J1,1*
G04 #@! TO.N,SHIFT_CLEAR*
X140860000Y-76180000D03*
D41*
G04 #@! TO.P,J1,2*
G04 #@! TO.N,SHIFT_OUT_ENABLE*
X140860000Y-73640000D03*
G04 #@! TO.P,J1,3*
G04 #@! TO.N,SHIFT_LATCH_CLOCK*
X140860000Y-71100000D03*
G04 #@! TO.P,J1,4*
G04 #@! TO.N,SHIFT_SERIAL_CLOCK*
X140860000Y-68560000D03*
G04 #@! TO.P,J1,5*
G04 #@! TO.N,SHIFT_SER_OUT*
X140860000Y-66020000D03*
G04 #@! TO.P,J1,6*
G04 #@! TO.N,GND*
X140860000Y-63480000D03*
G04 #@! TO.P,J1,7*
G04 #@! TO.N,+5V*
X140860000Y-60940000D03*
G04 #@! TD*
D37*
G04 #@! TO.P,J2,1*
G04 #@! TO.N,TX*
X140970000Y-81280000D03*
D41*
G04 #@! TO.P,J2,2*
G04 #@! TO.N,RX*
X140970000Y-83820000D03*
G04 #@! TD*
D45*
G04 #@! TO.N,+5V*
X133480000Y-58300000D03*
X137290000Y-64594760D03*
X137290000Y-69210000D03*
X134450000Y-72430000D03*
G04 #@! TO.N,SCL*
X133490000Y-65440000D03*
X128700000Y-89330000D03*
X135640000Y-89320000D03*
G04 #@! TO.N,SDA*
X132210000Y-65460000D03*
D46*
G04 #@! TO.N,Net-(R2-Pad2)*
X151770000Y-136510000D03*
X145770000Y-136510000D03*
D45*
G04 #@! TO.N,+12V*
X179725000Y-134925000D03*
X170207460Y-134925000D03*
G04 #@! TO.N,+3V3*
X141690000Y-107550000D03*
G04 #@! TO.N,DISP_RESET*
X138780000Y-96510000D03*
G04 #@! TD*
D47*
G04 #@! TO.N,Net-(BT1-Pad1)*
X142100001Y-55382221D02*
X142100001Y-54159999D01*
X133032212Y-64450010D02*
X142100001Y-55382221D01*
X132035988Y-64450010D02*
X133032212Y-64450010D01*
X130910000Y-65575998D02*
X132035988Y-64450010D01*
X142100001Y-54159999D02*
X143100000Y-53160000D01*
X130910000Y-71325000D02*
X130910000Y-65575998D01*
G04 #@! TO.N,+5V*
X132180000Y-61020000D02*
X132180000Y-62200000D01*
X130940000Y-59780000D02*
X132000000Y-59780000D01*
X132000000Y-59780000D02*
X133480000Y-58300000D01*
X134450000Y-74930000D02*
X134450000Y-74430000D01*
X134450000Y-74430000D02*
X134450000Y-73930000D01*
X134450000Y-73930000D02*
X134450000Y-73430000D01*
X134450000Y-73430000D02*
X134450000Y-72430000D01*
D48*
X139740000Y-111960000D02*
X139990000Y-111960000D01*
X142750000Y-109200000D02*
X141680000Y-110270000D01*
X145360000Y-109200000D02*
X142750000Y-109200000D01*
X139990000Y-111960000D02*
X141680000Y-110270000D01*
X137220000Y-109440000D02*
X139740000Y-111960000D01*
X137220000Y-109410000D02*
X137220000Y-109440000D01*
D47*
G04 #@! TO.N,GND*
X128370000Y-60850000D02*
X128370000Y-62200000D01*
X129440000Y-59780000D02*
X128370000Y-60850000D01*
X126330000Y-96320014D02*
X123720014Y-96320014D01*
X123930000Y-94920018D02*
X123929982Y-94920000D01*
X126330000Y-94920018D02*
X123930000Y-94920018D01*
G04 #@! TO.N,SCL*
X133490000Y-65440000D02*
X133490000Y-71285000D01*
X133450000Y-72537500D02*
X133450000Y-73379999D01*
X133450000Y-71325000D02*
X133450000Y-72537500D01*
X135640000Y-89320000D02*
X145360000Y-99040000D01*
X135640000Y-72100000D02*
X135640000Y-89320000D01*
X133450000Y-71325000D02*
X134865000Y-71325000D01*
X134865000Y-71325000D02*
X135640000Y-72100000D01*
X126330000Y-89320034D02*
X128690034Y-89320034D01*
X128690034Y-89320034D02*
X128700000Y-89330000D01*
G04 #@! TO.N,SDA*
X132210000Y-65460000D02*
X132210000Y-71295000D01*
X132879999Y-74980001D02*
X133450000Y-74980001D01*
X132180000Y-74280002D02*
X132879999Y-74980001D01*
X132180000Y-71325000D02*
X132180000Y-74280002D01*
X145360000Y-101580000D02*
X134770000Y-90990000D01*
X134770000Y-76790000D02*
X133450000Y-75470000D01*
X134770000Y-90990000D02*
X134770000Y-76790000D01*
X133450000Y-75470000D02*
X133450000Y-74980001D01*
X131700038Y-87920038D02*
X126330000Y-87920038D01*
X134770000Y-90990000D02*
X131700038Y-87920038D01*
X126330000Y-87920038D02*
X126330000Y-88620036D01*
D49*
G04 #@! TO.N,Net-(D1-Pad2)*
X146530000Y-130110000D02*
X146530000Y-129150000D01*
G04 #@! TO.N,Net-(Q1-Pad3)*
X149070000Y-130110000D02*
X149070000Y-131110000D01*
D48*
G04 #@! TO.N,Net-(R2-Pad2)*
X151770000Y-136510000D02*
X154112000Y-136510000D01*
X154112000Y-136510000D02*
X156506000Y-134116000D01*
X143590000Y-136494000D02*
X145754000Y-136494000D01*
X145754000Y-136494000D02*
X145770000Y-136510000D01*
D50*
X145270001Y-137009999D02*
X145770000Y-136510000D01*
X145061999Y-137218001D02*
X145270001Y-137009999D01*
X145061999Y-143638001D02*
X145061999Y-137218001D01*
X144300000Y-144400000D02*
X145061999Y-143638001D01*
G04 #@! TO.N,Net-(R3-Pad1)*
X146840000Y-144400000D02*
X149380000Y-144400000D01*
X151540000Y-144400000D02*
X152520000Y-143420000D01*
X149380000Y-144400000D02*
X151540000Y-144400000D01*
D47*
G04 #@! TO.N,BUTTON_3*
X160600000Y-104120000D02*
X162560000Y-104120000D01*
X162560000Y-104120000D02*
X166090000Y-100590000D01*
X166090000Y-77365000D02*
X168670000Y-74785000D01*
X166090000Y-100590000D02*
X166090000Y-77365000D01*
G04 #@! TO.N,BUTTON_1*
X165085000Y-109200000D02*
X160600000Y-109200000D01*
X168670000Y-112785000D02*
X165085000Y-109200000D01*
D48*
G04 #@! TO.N,SHIFT_LATCH_CLOCK*
X140860000Y-71100000D02*
X145360000Y-71100000D01*
G04 #@! TO.N,SHIFT_SERIAL_CLOCK*
X145360000Y-68560000D02*
X140860000Y-68560000D01*
G04 #@! TO.N,SHIFT_SER_OUT*
X140860000Y-66020000D02*
X145360000Y-66020000D01*
D47*
G04 #@! TO.N,Net-(R4-Pad2)*
X129300000Y-113000000D02*
X129320000Y-112980000D01*
X129300000Y-115030000D02*
X129300000Y-113000000D01*
G04 #@! TO.N,+12V*
X168657460Y-134867540D02*
X168550000Y-134975000D01*
X180200000Y-134900000D02*
X179750000Y-134900000D01*
X179750000Y-134900000D02*
X179725000Y-134925000D01*
D50*
X171270060Y-134975000D02*
X171377520Y-134867540D01*
X168550000Y-134975000D02*
X171270060Y-134975000D01*
D47*
G04 #@! TO.N,DHT*
X173850000Y-64120000D02*
X178040000Y-59930000D01*
X164600000Y-64120000D02*
X173850000Y-64120000D01*
X163100000Y-65620000D02*
X164600000Y-64120000D01*
X163100000Y-78760000D02*
X163100000Y-65620000D01*
X160600000Y-81260000D02*
X163100000Y-78760000D01*
G04 #@! TO.N,Net-(P5-Pad1)*
X121390000Y-65260000D02*
X121390000Y-66510000D01*
X122800000Y-63850000D02*
X121390000Y-65260000D01*
X132312780Y-63850000D02*
X122800000Y-63850000D01*
X133450000Y-62712780D02*
X132312780Y-63850000D01*
X133450000Y-62200000D02*
X133450000Y-62712780D01*
G04 #@! TO.N,BUZZER*
X147690000Y-86550000D02*
X145360000Y-88880000D01*
X159580000Y-61720000D02*
X150620000Y-61720000D01*
X147690000Y-64650000D02*
X147690000Y-86550000D01*
X150620000Y-61720000D02*
X147690000Y-64650000D01*
D48*
G04 #@! TO.N,SHIFT_CLEAR*
X140860000Y-76180000D02*
X145360000Y-76180000D01*
G04 #@! TO.N,SHIFT_OUT_ENABLE*
X145360000Y-73640000D02*
X140860000Y-73640000D01*
D50*
G04 #@! TO.N,SCL2*
X160600000Y-78720000D02*
X155610000Y-83710000D01*
X155610000Y-86740000D02*
X153470000Y-88880000D01*
X155610000Y-83710000D02*
X155610000Y-86740000D01*
G04 #@! TO.N,SDA2*
X153470000Y-83310000D02*
X153470000Y-86340000D01*
X160600000Y-76180000D02*
X153470000Y-83310000D01*
D47*
G04 #@! TO.N,+5V*
X172725000Y-142470000D02*
X172725000Y-140630000D01*
G04 #@! TO.N,+3V3*
X130529984Y-95620016D02*
X130580000Y-95570000D01*
X126330000Y-95620016D02*
X130529984Y-95620016D01*
X130580000Y-97000000D02*
X130590000Y-97010000D01*
X130580000Y-95570000D02*
X130580000Y-97000000D01*
X129879990Y-97720010D02*
X130590000Y-97010000D01*
X126330000Y-97720010D02*
X129879990Y-97720010D01*
X130580000Y-94795000D02*
X130580000Y-95570000D01*
X126330000Y-94220020D02*
X130005020Y-94220020D01*
D50*
X132710002Y-94525000D02*
X130310000Y-94525000D01*
X141690000Y-103504998D02*
X132710002Y-94525000D01*
D47*
X130005020Y-94220020D02*
X130310000Y-94525000D01*
D50*
X141690000Y-107550000D02*
X141690000Y-103504998D01*
D47*
X130310000Y-94525000D02*
X130580000Y-94795000D01*
D50*
G04 #@! TO.N,+5V*
X174880000Y-122870000D02*
X178250000Y-126240000D01*
X178250000Y-127800000D02*
X178250000Y-128900000D01*
X178250000Y-126240000D02*
X178250000Y-127800000D01*
X173180000Y-122870000D02*
X174880000Y-122870000D01*
D47*
X132180000Y-59600000D02*
X133480000Y-58300000D01*
X132180000Y-62200000D02*
X132180000Y-59600000D01*
D48*
X173180000Y-122870000D02*
X173180000Y-122620000D01*
D51*
X149690000Y-106142792D02*
X146632792Y-109200000D01*
X173180000Y-122620000D02*
X169300000Y-118740000D01*
X156172792Y-118740000D02*
X146632792Y-109200000D01*
X169300000Y-118740000D02*
X156172792Y-118740000D01*
X145360000Y-109200000D02*
X146632792Y-109200000D01*
X153470000Y-95550000D02*
X149690000Y-99330000D01*
X153470000Y-93960000D02*
X153470000Y-95550000D01*
X149690000Y-99330000D02*
X149690000Y-106142792D01*
D47*
X175500000Y-53680000D02*
X174980000Y-53160000D01*
D50*
X174125000Y-137880000D02*
X174870000Y-137135000D01*
X174125000Y-139230000D02*
X174125000Y-137880000D01*
X174870000Y-137135000D02*
X174870000Y-130550000D01*
X176520000Y-128900000D02*
X178250000Y-128900000D01*
X174870000Y-130550000D02*
X176520000Y-128900000D01*
X172725000Y-140580000D02*
X172725000Y-140630000D01*
X174075000Y-139230000D02*
X172725000Y-140580000D01*
X174125000Y-139230000D02*
X174075000Y-139230000D01*
X172725000Y-140580000D02*
X172725000Y-142470000D01*
D47*
G04 #@! TO.N,BUTTON_2*
X168670000Y-101070000D02*
X163080000Y-106660000D01*
X168670000Y-93785000D02*
X168670000Y-101070000D01*
X160600000Y-106660000D02*
X163080000Y-106660000D01*
G04 #@! TO.N,BUZZER*
X163970000Y-63260000D02*
X170370001Y-56859999D01*
X160920000Y-63260000D02*
X163970000Y-63260000D01*
X170370001Y-56859999D02*
X171270000Y-55960000D01*
X159580000Y-61720000D02*
X159580000Y-61920000D01*
X159580000Y-61920000D02*
X160920000Y-63260000D01*
D48*
G04 #@! TO.N,+3V3*
X145340000Y-114260000D02*
X145360000Y-114280000D01*
X139740000Y-114260000D02*
X145340000Y-114260000D01*
D50*
X130850000Y-112950000D02*
X130820000Y-112980000D01*
X130850000Y-111050000D02*
X130850000Y-112950000D01*
X132160000Y-112980000D02*
X133440000Y-114260000D01*
X130820000Y-112980000D02*
X132160000Y-112980000D01*
D51*
X139740000Y-114260000D02*
X133440000Y-114260000D01*
D47*
G04 #@! TO.N,Net-(C12-Pad1)*
X129449946Y-82320054D02*
X129800000Y-81970000D01*
X126330000Y-82320054D02*
X129449946Y-82320054D01*
G04 #@! TO.N,Net-(C14-Pad1)*
X130470052Y-83020052D02*
X131240000Y-83790000D01*
X126330000Y-83020052D02*
X130470052Y-83020052D01*
G04 #@! TO.N,Net-(C15-Pad1)*
X130480000Y-101675000D02*
X130480000Y-101700000D01*
X129705000Y-100900000D02*
X130480000Y-101675000D01*
X129556458Y-100900000D02*
X129705000Y-100900000D01*
X129176460Y-100520002D02*
X129556458Y-100900000D01*
X126330000Y-100520002D02*
X129176460Y-100520002D01*
G04 #@! TO.N,Net-(C15-Pad2)*
X128730000Y-99820004D02*
X126330000Y-99820004D01*
X129325004Y-99820004D02*
X128730000Y-99820004D01*
X129705000Y-100200000D02*
X129325004Y-99820004D01*
X130480000Y-100200000D02*
X129705000Y-100200000D01*
G04 #@! TO.N,Net-(C16-Pad1)*
X128730000Y-99120006D02*
X126330000Y-99120006D01*
X131215006Y-99120006D02*
X128730000Y-99120006D01*
X132080000Y-99985000D02*
X131215006Y-99120006D01*
X132080000Y-100010000D02*
X132080000Y-99985000D01*
G04 #@! TO.N,Net-(C16-Pad2)*
X131453542Y-98510000D02*
X132080000Y-98510000D01*
X131363550Y-98420008D02*
X131453542Y-98510000D01*
X126330000Y-98420008D02*
X131363550Y-98420008D01*
D50*
G04 #@! TO.N,Net-(C20-Pad2)*
X178677460Y-133597540D02*
X178850000Y-133425000D01*
X176772480Y-133597540D02*
X178677460Y-133597540D01*
G04 #@! TO.N,Net-(C21-Pad2)*
X171377520Y-132647480D02*
X171800000Y-132225000D01*
X171377520Y-133597540D02*
X171377520Y-132647480D01*
G04 #@! TO.N,Net-(C21-Pad1)*
X173300000Y-133200000D02*
X173300000Y-132225000D01*
X173300000Y-135584680D02*
X173300000Y-133200000D01*
X172752220Y-136132460D02*
X173300000Y-135584680D01*
X171377520Y-136132460D02*
X172752220Y-136132460D01*
X173180000Y-132105000D02*
X173300000Y-132225000D01*
X173180000Y-127970000D02*
X173180000Y-132105000D01*
D47*
G04 #@! TO.N,Net-(C22-Pad2)*
X178607460Y-136132460D02*
X178850000Y-136375000D01*
X176772480Y-136132460D02*
X178607460Y-136132460D01*
G04 #@! TO.N,Net-(C22-Pad1)*
X180200000Y-136525000D02*
X180350000Y-136375000D01*
X180200000Y-137825000D02*
X180200000Y-136525000D01*
G04 #@! TO.N,DISP_RESET*
X134390026Y-92120026D02*
X126330000Y-92120026D01*
X138780000Y-96510000D02*
X134390026Y-92120026D01*
G04 #@! TO.N,Net-(R6-Pad1)*
X129340050Y-83720050D02*
X129800000Y-84180000D01*
X126330000Y-83720050D02*
X129340050Y-83720050D01*
G04 #@! TO.N,Net-(R9-Pad1)*
X178667540Y-134867540D02*
X178700000Y-134900000D01*
X176772480Y-134867540D02*
X178667540Y-134867540D01*
D50*
G04 #@! TO.N,Net-(R11-Pad2)*
X177125000Y-142070000D02*
X177125000Y-140620000D01*
X176725000Y-142470000D02*
X177125000Y-142070000D01*
X175525000Y-142470000D02*
X176725000Y-142470000D01*
X177125000Y-140620000D02*
X177125000Y-139375000D01*
X177125000Y-137754980D02*
X176772480Y-137402460D01*
X177125000Y-139375000D02*
X177125000Y-137754980D01*
D47*
G04 #@! TO.N,Net-(BZ1-Pad2)*
X163189000Y-57951000D02*
X167980000Y-53160000D01*
X161086000Y-57951000D02*
X163189000Y-57951000D01*
G04 #@! TO.N,Net-(Q2-Pad1)*
X161080000Y-59735000D02*
X161086000Y-59729000D01*
X161080000Y-61720000D02*
X161080000Y-59735000D01*
D50*
G04 #@! TO.N,RX*
X142172081Y-83820000D02*
X142910000Y-83082081D01*
X140970000Y-83820000D02*
X142172081Y-83820000D01*
X142910000Y-82437208D02*
X142910000Y-83082081D01*
X144087208Y-81260000D02*
X142910000Y-82437208D01*
X145360000Y-81260000D02*
X144087208Y-81260000D01*
G04 #@! TO.N,TX*
X142080000Y-78720000D02*
X140970000Y-79830000D01*
X140970000Y-79830000D02*
X140970000Y-81280000D01*
X145360000Y-78720000D02*
X142080000Y-78720000D01*
G04 #@! TD*
D52*
G04 #@! TO.N,Net-(D1-Pad2)*
G36*
X147336065Y-123959457D02*
X147420756Y-124162735D01*
X147435058Y-130045852D01*
X147417106Y-130147448D01*
X147258310Y-130579496D01*
X147113144Y-130740836D01*
X146672291Y-130957972D01*
X146441049Y-130969604D01*
X145978095Y-130796861D01*
X145848158Y-130700662D01*
X145585000Y-130356891D01*
X145585000Y-129310000D01*
X145545798Y-129112918D01*
X145457930Y-128900786D01*
X145443736Y-128879543D01*
X145444096Y-128759977D01*
X145442972Y-128754234D01*
X145355767Y-128541862D01*
X145352530Y-128536986D01*
X145347675Y-128533720D01*
X145135852Y-128445189D01*
X145130117Y-128444029D01*
X142641020Y-128435974D01*
X142635264Y-128437102D01*
X142422504Y-128524625D01*
X142417630Y-128527865D01*
X142414357Y-128532746D01*
X142326146Y-128745221D01*
X142325000Y-128750972D01*
X142325000Y-128966139D01*
X142264202Y-129112918D01*
X142225000Y-129310000D01*
X142225000Y-132357884D01*
X137005540Y-132364792D01*
X137014664Y-124172381D01*
X137099031Y-123969047D01*
X137302378Y-123884715D01*
X147132500Y-123875450D01*
X147336065Y-123959457D01*
X147336065Y-123959457D01*
G37*
X147336065Y-123959457D02*
X147420756Y-124162735D01*
X147435058Y-130045852D01*
X147417106Y-130147448D01*
X147258310Y-130579496D01*
X147113144Y-130740836D01*
X146672291Y-130957972D01*
X146441049Y-130969604D01*
X145978095Y-130796861D01*
X145848158Y-130700662D01*
X145585000Y-130356891D01*
X145585000Y-129310000D01*
X145545798Y-129112918D01*
X145457930Y-128900786D01*
X145443736Y-128879543D01*
X145444096Y-128759977D01*
X145442972Y-128754234D01*
X145355767Y-128541862D01*
X145352530Y-128536986D01*
X145347675Y-128533720D01*
X145135852Y-128445189D01*
X145130117Y-128444029D01*
X142641020Y-128435974D01*
X142635264Y-128437102D01*
X142422504Y-128524625D01*
X142417630Y-128527865D01*
X142414357Y-128532746D01*
X142326146Y-128745221D01*
X142325000Y-128750972D01*
X142325000Y-128966139D01*
X142264202Y-129112918D01*
X142225000Y-129310000D01*
X142225000Y-132357884D01*
X137005540Y-132364792D01*
X137014664Y-124172381D01*
X137099031Y-123969047D01*
X137302378Y-123884715D01*
X147132500Y-123875450D01*
X147336065Y-123959457D01*
G04 #@! TO.N,Net-(Q1-Pad3)*
G36*
X149900867Y-130192402D02*
X149999429Y-130363075D01*
X150511487Y-133264743D01*
X150513269Y-133269637D01*
X150615884Y-133447328D01*
X150619744Y-133451728D01*
X150623744Y-133453923D01*
X150816564Y-133524096D01*
X150821694Y-133525000D01*
X152667017Y-133525000D01*
X152870652Y-133609348D01*
X152955000Y-133812983D01*
X152955000Y-134207017D01*
X152870652Y-134410652D01*
X152667017Y-134495000D01*
X149776214Y-134495000D01*
X149580607Y-134299393D01*
X149575740Y-134296142D01*
X149570000Y-134295000D01*
X147712983Y-134295000D01*
X147509348Y-134210652D01*
X147425000Y-134007017D01*
X147425000Y-133642996D01*
X147431660Y-133580935D01*
X148132792Y-130352037D01*
X148233548Y-130188826D01*
X148414417Y-130125000D01*
X149715660Y-130125000D01*
X149900867Y-130192402D01*
X149900867Y-130192402D01*
G37*
X149900867Y-130192402D02*
X149999429Y-130363075D01*
X150511487Y-133264743D01*
X150513269Y-133269637D01*
X150615884Y-133447328D01*
X150619744Y-133451728D01*
X150623744Y-133453923D01*
X150816564Y-133524096D01*
X150821694Y-133525000D01*
X152667017Y-133525000D01*
X152870652Y-133609348D01*
X152955000Y-133812983D01*
X152955000Y-134207017D01*
X152870652Y-134410652D01*
X152667017Y-134495000D01*
X149776214Y-134495000D01*
X149580607Y-134299393D01*
X149575740Y-134296142D01*
X149570000Y-134295000D01*
X147712983Y-134295000D01*
X147509348Y-134210652D01*
X147425000Y-134007017D01*
X147425000Y-133642996D01*
X147431660Y-133580935D01*
X148132792Y-130352037D01*
X148233548Y-130188826D01*
X148414417Y-130125000D01*
X149715660Y-130125000D01*
X149900867Y-130192402D01*
G04 #@! TO.N,Net-(Q1-Pad2)*
G36*
X144970652Y-129109348D02*
X145055000Y-129312983D01*
X145055000Y-134037017D01*
X144970652Y-134240652D01*
X144767017Y-134325000D01*
X144382612Y-134325000D01*
X144352000Y-134318911D01*
X143028283Y-134318911D01*
X142839348Y-134240652D01*
X142755000Y-134037017D01*
X142755000Y-129312983D01*
X142839348Y-129109348D01*
X143042983Y-129025000D01*
X144767017Y-129025000D01*
X144970652Y-129109348D01*
X144970652Y-129109348D01*
G37*
X144970652Y-129109348D02*
X145055000Y-129312983D01*
X145055000Y-134037017D01*
X144970652Y-134240652D01*
X144767017Y-134325000D01*
X144382612Y-134325000D01*
X144352000Y-134318911D01*
X143028283Y-134318911D01*
X142839348Y-134240652D01*
X142755000Y-134037017D01*
X142755000Y-129312983D01*
X142839348Y-129109348D01*
X143042983Y-129025000D01*
X144767017Y-129025000D01*
X144970652Y-129109348D01*
G04 #@! TO.N,Net-(C5-Pad1)*
G36*
X148870652Y-137509348D02*
X148955000Y-137712983D01*
X148955000Y-139717017D01*
X148870652Y-139920652D01*
X148667017Y-140005000D01*
X148092983Y-140005000D01*
X147889348Y-139920652D01*
X147825089Y-139765516D01*
X147825089Y-139065000D01*
X147805000Y-138964006D01*
X147805000Y-138279357D01*
X147803899Y-138273717D01*
X147757314Y-138158902D01*
X147754098Y-138154013D01*
X147749456Y-138150812D01*
X147528196Y-138053468D01*
X147485000Y-137947007D01*
X147485000Y-137712983D01*
X147569348Y-137509348D01*
X147772983Y-137425000D01*
X148667017Y-137425000D01*
X148870652Y-137509348D01*
X148870652Y-137509348D01*
G37*
X148870652Y-137509348D02*
X148955000Y-137712983D01*
X148955000Y-139717017D01*
X148870652Y-139920652D01*
X148667017Y-140005000D01*
X148092983Y-140005000D01*
X147889348Y-139920652D01*
X147825089Y-139765516D01*
X147825089Y-139065000D01*
X147805000Y-138964006D01*
X147805000Y-138279357D01*
X147803899Y-138273717D01*
X147757314Y-138158902D01*
X147754098Y-138154013D01*
X147749456Y-138150812D01*
X147528196Y-138053468D01*
X147485000Y-137947007D01*
X147485000Y-137712983D01*
X147569348Y-137509348D01*
X147772983Y-137425000D01*
X148667017Y-137425000D01*
X148870652Y-137509348D01*
G04 #@! TO.N,Net-(C6-Pad1)*
G36*
X159183141Y-123970232D02*
X159360414Y-124147059D01*
X159426260Y-124390753D01*
X159443742Y-131340022D01*
X159444263Y-131343903D01*
X159511882Y-131593739D01*
X159515781Y-131600453D01*
X159699261Y-131783005D01*
X159705996Y-131786871D01*
X159956171Y-131853223D01*
X159960054Y-131853724D01*
X162877820Y-131846281D01*
X163122263Y-131911133D01*
X163300054Y-132088107D01*
X163366033Y-132332254D01*
X163374423Y-136409843D01*
X163313266Y-136647501D01*
X163144255Y-136825421D01*
X157627686Y-140262134D01*
X157624747Y-140264530D01*
X157451985Y-140446212D01*
X157448334Y-140452787D01*
X157385479Y-140695489D01*
X157385000Y-140699250D01*
X157385000Y-143128025D01*
X157319565Y-143372234D01*
X157142234Y-143549565D01*
X156898025Y-143615000D01*
X155181975Y-143615000D01*
X154937766Y-143549565D01*
X154760435Y-143372234D01*
X154695000Y-143128025D01*
X154695000Y-139612691D01*
X154842218Y-139261624D01*
X158000961Y-136157658D01*
X158004281Y-136152760D01*
X158153833Y-135796128D01*
X158155000Y-135790327D01*
X158155000Y-132437495D01*
X158154606Y-132434078D01*
X158102714Y-132212269D01*
X158099682Y-132206144D01*
X157954777Y-132030375D01*
X157952299Y-132027990D01*
X156374988Y-130825091D01*
X156230142Y-130646615D01*
X156182956Y-130421649D01*
X156199135Y-129895838D01*
X156198726Y-129891867D01*
X156137011Y-129635421D01*
X156133195Y-129628489D01*
X155949573Y-129439131D01*
X155942762Y-129435104D01*
X155688336Y-129365531D01*
X155684379Y-129365000D01*
X151690412Y-129365000D01*
X151690100Y-129365003D01*
X151669285Y-129365436D01*
X151668972Y-129365446D01*
X151565760Y-129369747D01*
X151454770Y-129263479D01*
X151445175Y-123986194D01*
X151526221Y-123905000D01*
X158939283Y-123905000D01*
X159183141Y-123970232D01*
X159183141Y-123970232D01*
G37*
X159183141Y-123970232D02*
X159360414Y-124147059D01*
X159426260Y-124390753D01*
X159443742Y-131340022D01*
X159444263Y-131343903D01*
X159511882Y-131593739D01*
X159515781Y-131600453D01*
X159699261Y-131783005D01*
X159705996Y-131786871D01*
X159956171Y-131853223D01*
X159960054Y-131853724D01*
X162877820Y-131846281D01*
X163122263Y-131911133D01*
X163300054Y-132088107D01*
X163366033Y-132332254D01*
X163374423Y-136409843D01*
X163313266Y-136647501D01*
X163144255Y-136825421D01*
X157627686Y-140262134D01*
X157624747Y-140264530D01*
X157451985Y-140446212D01*
X157448334Y-140452787D01*
X157385479Y-140695489D01*
X157385000Y-140699250D01*
X157385000Y-143128025D01*
X157319565Y-143372234D01*
X157142234Y-143549565D01*
X156898025Y-143615000D01*
X155181975Y-143615000D01*
X154937766Y-143549565D01*
X154760435Y-143372234D01*
X154695000Y-143128025D01*
X154695000Y-139612691D01*
X154842218Y-139261624D01*
X158000961Y-136157658D01*
X158004281Y-136152760D01*
X158153833Y-135796128D01*
X158155000Y-135790327D01*
X158155000Y-132437495D01*
X158154606Y-132434078D01*
X158102714Y-132212269D01*
X158099682Y-132206144D01*
X157954777Y-132030375D01*
X157952299Y-132027990D01*
X156374988Y-130825091D01*
X156230142Y-130646615D01*
X156182956Y-130421649D01*
X156199135Y-129895838D01*
X156198726Y-129891867D01*
X156137011Y-129635421D01*
X156133195Y-129628489D01*
X155949573Y-129439131D01*
X155942762Y-129435104D01*
X155688336Y-129365531D01*
X155684379Y-129365000D01*
X151690412Y-129365000D01*
X151690100Y-129365003D01*
X151669285Y-129365436D01*
X151668972Y-129365446D01*
X151565760Y-129369747D01*
X151454770Y-129263479D01*
X151445175Y-123986194D01*
X151526221Y-123905000D01*
X158939283Y-123905000D01*
X159183141Y-123970232D01*
D53*
G04 #@! TO.N,GND*
G36*
X184450000Y-143968044D02*
X184380663Y-144562766D01*
X184187347Y-145095341D01*
X183876696Y-145569162D01*
X183465375Y-145958810D01*
X182975449Y-146243381D01*
X182425992Y-146409795D01*
X181975501Y-146450000D01*
X125995476Y-146450000D01*
X125965000Y-138466324D01*
X126953556Y-138462307D01*
X127172880Y-138417870D01*
X127384224Y-138329573D01*
X127569562Y-138205188D01*
X127582528Y-138185740D01*
X133645026Y-140737792D01*
X133829318Y-140775000D01*
X143240000Y-140775000D01*
X143421775Y-140738843D01*
X143575876Y-140635876D01*
X143678843Y-140481775D01*
X143715000Y-140300000D01*
X143715000Y-138780634D01*
X143678968Y-138599162D01*
X143576107Y-138444990D01*
X143422077Y-138341917D01*
X143240327Y-138305634D01*
X142794708Y-138305327D01*
X142794121Y-137351566D01*
X142828000Y-137358305D01*
X143450053Y-137358305D01*
X143503821Y-137369000D01*
X144287000Y-137369000D01*
X144286999Y-143163000D01*
X144053945Y-143163000D01*
X143599296Y-143351322D01*
X143251322Y-143699296D01*
X143063000Y-144153945D01*
X143063000Y-144646055D01*
X143251322Y-145100704D01*
X143599296Y-145448678D01*
X144053945Y-145637000D01*
X144546055Y-145637000D01*
X145000704Y-145448678D01*
X145348678Y-145100704D01*
X145537000Y-144646055D01*
X145537000Y-144259015D01*
X145556031Y-144239984D01*
X145603000Y-144208600D01*
X145603000Y-144646055D01*
X145791322Y-145100704D01*
X146139296Y-145448678D01*
X146593945Y-145637000D01*
X147086055Y-145637000D01*
X147540704Y-145448678D01*
X147814382Y-145175000D01*
X148405618Y-145175000D01*
X148679296Y-145448678D01*
X149133945Y-145637000D01*
X149626055Y-145637000D01*
X150080704Y-145448678D01*
X150354382Y-145175000D01*
X151463670Y-145175000D01*
X151540000Y-145190183D01*
X151616330Y-145175000D01*
X151842390Y-145130034D01*
X152098744Y-144958744D01*
X152141983Y-144894032D01*
X152881711Y-144154305D01*
X152970000Y-144154305D01*
X153155335Y-144117439D01*
X153312455Y-144012455D01*
X153417439Y-143855335D01*
X153454305Y-143670000D01*
X153454305Y-143170000D01*
X153417439Y-142984665D01*
X153312455Y-142827545D01*
X153155335Y-142722561D01*
X152970000Y-142685695D01*
X152800913Y-142685695D01*
X152519999Y-142629817D01*
X152239085Y-142685695D01*
X152070000Y-142685695D01*
X151884665Y-142722561D01*
X151727545Y-142827545D01*
X151622561Y-142984665D01*
X151585695Y-143170000D01*
X151585695Y-143258289D01*
X151218985Y-143625000D01*
X150354382Y-143625000D01*
X150080704Y-143351322D01*
X149626055Y-143163000D01*
X149133945Y-143163000D01*
X148679296Y-143351322D01*
X148405618Y-143625000D01*
X147814382Y-143625000D01*
X147540704Y-143351322D01*
X147086055Y-143163000D01*
X146593945Y-143163000D01*
X146139296Y-143351322D01*
X145852074Y-143638544D01*
X145852182Y-143638002D01*
X145836999Y-143561673D01*
X145836999Y-137710000D01*
X146895000Y-137710000D01*
X146895000Y-137949933D01*
X146937187Y-138166116D01*
X146958584Y-138218853D01*
X146980561Y-138329335D01*
X147085545Y-138486455D01*
X147215000Y-138572954D01*
X147215000Y-139720000D01*
X147258769Y-139940043D01*
X147346637Y-140152175D01*
X147471282Y-140338718D01*
X147657825Y-140463363D01*
X147869957Y-140551231D01*
X148090000Y-140595000D01*
X148670000Y-140595000D01*
X148890043Y-140551231D01*
X149102175Y-140463363D01*
X149288718Y-140338718D01*
X149413363Y-140152175D01*
X149501231Y-139940043D01*
X149545000Y-139720000D01*
X149545000Y-137710000D01*
X149501231Y-137489957D01*
X149416869Y-137286288D01*
X149399439Y-137198665D01*
X149294455Y-137041545D01*
X149137335Y-136936561D01*
X148952000Y-136899695D01*
X148940563Y-136899695D01*
X148890043Y-136878769D01*
X148670000Y-136835000D01*
X147770000Y-136835000D01*
X147549957Y-136878769D01*
X147499437Y-136899695D01*
X147428000Y-136899695D01*
X147242665Y-136936561D01*
X147085545Y-137041545D01*
X146980561Y-137198665D01*
X146943695Y-137384000D01*
X146943695Y-137478065D01*
X146938769Y-137489957D01*
X146895000Y-137710000D01*
X145836999Y-137710000D01*
X145836999Y-137539016D01*
X145891015Y-137485000D01*
X145963939Y-137485000D01*
X146322293Y-137336565D01*
X146596565Y-137062293D01*
X146745000Y-136703939D01*
X146745000Y-136316061D01*
X146596565Y-135957707D01*
X146322293Y-135683435D01*
X145963939Y-135535000D01*
X145576061Y-135535000D01*
X145373267Y-135619000D01*
X145025000Y-135619000D01*
X145025000Y-134856751D01*
X145202175Y-134783363D01*
X145388718Y-134658718D01*
X145513363Y-134472175D01*
X145601231Y-134260043D01*
X145645000Y-134040000D01*
X145645000Y-131281137D01*
X145769857Y-131348895D01*
X146237693Y-131523460D01*
X146467596Y-131559015D01*
X146705028Y-131547071D01*
X146930202Y-131488623D01*
X147324402Y-131294465D01*
X146854927Y-133456523D01*
X146845115Y-133517179D01*
X146838283Y-133580838D01*
X146835000Y-133642196D01*
X146835000Y-134010000D01*
X146878769Y-134230043D01*
X146963897Y-134435559D01*
X146980561Y-134519335D01*
X147085545Y-134676455D01*
X147242665Y-134781439D01*
X147428000Y-134818305D01*
X147434609Y-134818305D01*
X147489957Y-134841231D01*
X147710000Y-134885000D01*
X149331828Y-134885000D01*
X149363414Y-134916586D01*
X149549957Y-135041231D01*
X149770000Y-135085000D01*
X152670000Y-135085000D01*
X152890043Y-135041231D01*
X153034128Y-134981549D01*
X153155335Y-134957439D01*
X153312455Y-134852455D01*
X153417439Y-134695335D01*
X153441549Y-134574128D01*
X153501231Y-134430043D01*
X153545000Y-134210000D01*
X153545000Y-133810000D01*
X153501231Y-133589957D01*
X153441549Y-133445872D01*
X153417439Y-133324665D01*
X153312455Y-133167545D01*
X153155335Y-133062561D01*
X153034128Y-133038451D01*
X152890043Y-132978769D01*
X152670000Y-132935000D01*
X151052414Y-132935000D01*
X150579992Y-130257938D01*
X150511675Y-130070311D01*
X150445000Y-129954855D01*
X150445000Y-129836495D01*
X150235669Y-129331125D01*
X149848875Y-128944331D01*
X149343505Y-128735000D01*
X148796495Y-128735000D01*
X148291125Y-128944331D01*
X148023033Y-129212423D01*
X148010747Y-124158320D01*
X147966526Y-123938582D01*
X147878301Y-123726822D01*
X147753576Y-123540838D01*
X147747241Y-123536617D01*
X151060704Y-123536220D01*
X151023207Y-123573785D01*
X150898534Y-123760923D01*
X150855165Y-123981045D01*
X150864783Y-129270941D01*
X150913457Y-129501429D01*
X151042125Y-129685220D01*
X151162343Y-129800324D01*
X151362265Y-129924932D01*
X151583940Y-129959501D01*
X151687510Y-129955185D01*
X151696410Y-129955000D01*
X155607035Y-129955000D01*
X155593180Y-130405294D01*
X155605154Y-130541014D01*
X155653452Y-130771283D01*
X155769738Y-131015588D01*
X155918001Y-131198274D01*
X156015785Y-131293147D01*
X156984212Y-132031695D01*
X156006000Y-132031695D01*
X155820665Y-132068561D01*
X155663545Y-132173545D01*
X155558561Y-132330665D01*
X155521695Y-132516000D01*
X155521695Y-133862869D01*
X153749564Y-135635000D01*
X152205360Y-135635000D01*
X151963939Y-135535000D01*
X151576061Y-135535000D01*
X151217707Y-135683435D01*
X150943435Y-135957707D01*
X150795000Y-136316061D01*
X150795000Y-136703939D01*
X150943435Y-137062293D01*
X151217707Y-137336565D01*
X151576061Y-137485000D01*
X151963939Y-137485000D01*
X152205360Y-137385000D01*
X154025822Y-137385000D01*
X154112000Y-137402142D01*
X154198178Y-137385000D01*
X154198179Y-137385000D01*
X154453408Y-137334232D01*
X154742840Y-137140840D01*
X154791659Y-137067777D01*
X155745932Y-136113504D01*
X155820665Y-136163439D01*
X156006000Y-136200305D01*
X157006000Y-136200305D01*
X157143643Y-136172926D01*
X154426537Y-138842914D01*
X154299288Y-139030677D01*
X154149736Y-139387309D01*
X154105000Y-139609673D01*
X154105000Y-143130000D01*
X154124592Y-143278820D01*
X154191579Y-143528820D01*
X154340401Y-143786586D01*
X154523414Y-143969599D01*
X154781180Y-144118421D01*
X155031180Y-144185408D01*
X155180000Y-144205000D01*
X156900000Y-144205000D01*
X157048820Y-144185408D01*
X157298820Y-144118421D01*
X157556586Y-143969599D01*
X157739599Y-143786586D01*
X157843198Y-143607148D01*
X180025000Y-143607148D01*
X180025000Y-144392852D01*
X180325675Y-145118748D01*
X180881252Y-145674325D01*
X181607148Y-145975000D01*
X182392852Y-145975000D01*
X183118748Y-145674325D01*
X183674325Y-145118748D01*
X183975000Y-144392852D01*
X183975000Y-143607148D01*
X183674325Y-142881252D01*
X183118748Y-142325675D01*
X182392852Y-142025000D01*
X181607148Y-142025000D01*
X180881252Y-142325675D01*
X180325675Y-142881252D01*
X180025000Y-143607148D01*
X157843198Y-143607148D01*
X157888421Y-143528820D01*
X157955408Y-143278820D01*
X157975000Y-143130000D01*
X157975000Y-140772499D01*
X157982157Y-140744864D01*
X158001829Y-140724176D01*
X163457851Y-137325183D01*
X163570701Y-137233156D01*
X163743713Y-137051024D01*
X163883681Y-136798306D01*
X163946285Y-136555025D01*
X163964426Y-136410545D01*
X163956028Y-132329063D01*
X163936117Y-132180237D01*
X163868574Y-131930304D01*
X163719135Y-131672792D01*
X163535645Y-131490145D01*
X163277445Y-131341893D01*
X163027204Y-131275503D01*
X162878288Y-131256278D01*
X160034249Y-131263533D01*
X160033699Y-131263387D01*
X160033550Y-131262836D01*
X160016253Y-124387295D01*
X159996349Y-124238756D01*
X159928943Y-123989288D01*
X159779923Y-123732176D01*
X159596967Y-123549680D01*
X159571838Y-123535200D01*
X160954948Y-123535034D01*
X165899528Y-132810988D01*
X166815695Y-134578542D01*
X166815695Y-135475000D01*
X166852561Y-135660335D01*
X166957545Y-135817455D01*
X167114665Y-135922439D01*
X167300000Y-135959305D01*
X169800000Y-135959305D01*
X169985335Y-135922439D01*
X170118515Y-135833451D01*
X170118515Y-136432180D01*
X170155381Y-136617515D01*
X170260365Y-136774635D01*
X170417485Y-136879619D01*
X170602820Y-136916485D01*
X172152220Y-136916485D01*
X172197591Y-136907460D01*
X172675890Y-136907460D01*
X172752220Y-136922643D01*
X172828550Y-136907460D01*
X173054610Y-136862494D01*
X173310964Y-136691204D01*
X173354203Y-136626492D01*
X173794035Y-136186661D01*
X173858744Y-136143424D01*
X174030034Y-135887070D01*
X174073258Y-135669768D01*
X174090183Y-135584680D01*
X174075000Y-135508350D01*
X174075000Y-132893748D01*
X174095001Y-132863815D01*
X174095000Y-136813984D01*
X173630966Y-137278019D01*
X173566257Y-137321256D01*
X173523020Y-137385965D01*
X173523019Y-137385966D01*
X173394966Y-137577611D01*
X173334817Y-137880000D01*
X173350001Y-137956335D01*
X173350001Y-137995695D01*
X173325000Y-137995695D01*
X173139665Y-138032561D01*
X172982545Y-138137545D01*
X172877561Y-138294665D01*
X172840695Y-138480000D01*
X172840695Y-139368290D01*
X172230968Y-139978017D01*
X172166256Y-140021256D01*
X172015126Y-140247439D01*
X171994966Y-140277611D01*
X171934817Y-140580000D01*
X171950000Y-140656330D01*
X171950000Y-141420505D01*
X171939665Y-141422561D01*
X171782545Y-141527545D01*
X171677561Y-141684665D01*
X171640695Y-141870000D01*
X171640695Y-143070000D01*
X171677561Y-143255335D01*
X171782545Y-143412455D01*
X171939665Y-143517439D01*
X172125000Y-143554305D01*
X173325000Y-143554305D01*
X173510335Y-143517439D01*
X173667455Y-143412455D01*
X173772439Y-143255335D01*
X173809305Y-143070000D01*
X173809305Y-141870000D01*
X173772439Y-141684665D01*
X173667455Y-141527545D01*
X173510335Y-141422561D01*
X173500000Y-141420505D01*
X173500000Y-140901015D01*
X173936710Y-140464305D01*
X174925000Y-140464305D01*
X175110335Y-140427439D01*
X175267455Y-140322455D01*
X175372439Y-140165335D01*
X175409305Y-139980000D01*
X175409305Y-138480000D01*
X175372439Y-138294665D01*
X175267455Y-138137545D01*
X175110335Y-138032561D01*
X175075403Y-138025612D01*
X175364035Y-137736981D01*
X175428744Y-137693744D01*
X175513475Y-137566935D01*
X175513475Y-137702180D01*
X175550341Y-137887515D01*
X175655325Y-138044635D01*
X175812445Y-138149619D01*
X175997780Y-138186485D01*
X176350001Y-138186485D01*
X176350000Y-139451329D01*
X176350001Y-139451333D01*
X176350000Y-140696329D01*
X176350001Y-140696334D01*
X176350000Y-141449065D01*
X176310335Y-141422561D01*
X176125000Y-141385695D01*
X174925000Y-141385695D01*
X174739665Y-141422561D01*
X174582545Y-141527545D01*
X174477561Y-141684665D01*
X174440695Y-141870000D01*
X174440695Y-143070000D01*
X174477561Y-143255335D01*
X174582545Y-143412455D01*
X174739665Y-143517439D01*
X174925000Y-143554305D01*
X176125000Y-143554305D01*
X176310335Y-143517439D01*
X176467455Y-143412455D01*
X176572439Y-143255335D01*
X176574495Y-143245000D01*
X176648670Y-143245000D01*
X176725000Y-143260183D01*
X176801330Y-143245000D01*
X177027390Y-143200034D01*
X177283744Y-143028744D01*
X177326984Y-142964031D01*
X177619030Y-142671984D01*
X177683744Y-142628744D01*
X177855034Y-142372390D01*
X177900000Y-142146330D01*
X177900000Y-142146329D01*
X177915183Y-142070001D01*
X177900000Y-141993672D01*
X177900000Y-138029123D01*
X177994619Y-137887515D01*
X178031485Y-137702180D01*
X178031485Y-137102740D01*
X177994619Y-136917405D01*
X177921156Y-136807460D01*
X177977125Y-136807460D01*
X178002561Y-136935335D01*
X178107545Y-137092455D01*
X178264665Y-137197439D01*
X178450000Y-137234305D01*
X179250000Y-137234305D01*
X179435335Y-137197439D01*
X179525001Y-137137527D01*
X179525001Y-137156082D01*
X179502561Y-137189665D01*
X179465695Y-137375000D01*
X179465695Y-138275000D01*
X179502561Y-138460335D01*
X179607545Y-138617455D01*
X179764665Y-138722439D01*
X179950000Y-138759305D01*
X180450000Y-138759305D01*
X180635335Y-138722439D01*
X180792455Y-138617455D01*
X180897439Y-138460335D01*
X180934305Y-138275000D01*
X180934305Y-137375000D01*
X180900369Y-137204394D01*
X180935335Y-137197439D01*
X181092455Y-137092455D01*
X181197439Y-136935335D01*
X181234305Y-136750000D01*
X181234305Y-136000000D01*
X181197439Y-135814665D01*
X181092455Y-135657545D01*
X180935335Y-135552561D01*
X180891725Y-135543886D01*
X180897439Y-135535335D01*
X180934305Y-135350000D01*
X180934305Y-134450000D01*
X180897439Y-134264665D01*
X180792455Y-134107545D01*
X180635335Y-134002561D01*
X180450000Y-133965695D01*
X179950000Y-133965695D01*
X179764665Y-134002561D01*
X179693667Y-134050000D01*
X179654231Y-134050000D01*
X179697439Y-133985335D01*
X179734305Y-133800000D01*
X179734305Y-133050000D01*
X179697439Y-132864665D01*
X179592455Y-132707545D01*
X179435335Y-132602561D01*
X179250000Y-132565695D01*
X178450000Y-132565695D01*
X178264665Y-132602561D01*
X178107545Y-132707545D01*
X178030708Y-132822540D01*
X177592551Y-132822540D01*
X177547180Y-132813515D01*
X175997780Y-132813515D01*
X175812445Y-132850381D01*
X175655325Y-132955365D01*
X175645000Y-132970817D01*
X175645000Y-130871015D01*
X176841015Y-129675000D01*
X177062473Y-129675000D01*
X177107545Y-129742455D01*
X177264665Y-129847439D01*
X177450000Y-129884305D01*
X179050000Y-129884305D01*
X179235335Y-129847439D01*
X179392455Y-129742455D01*
X179497439Y-129585335D01*
X179534305Y-129400000D01*
X179534305Y-128400000D01*
X179497439Y-128214665D01*
X179392455Y-128057545D01*
X179235335Y-127952561D01*
X179050000Y-127915695D01*
X179025000Y-127915695D01*
X179025000Y-126316330D01*
X179040183Y-126240000D01*
X178980034Y-125937610D01*
X178851981Y-125745965D01*
X178808744Y-125681256D01*
X178744035Y-125638019D01*
X177095000Y-123988985D01*
X177095000Y-123525000D01*
X184450000Y-123525000D01*
X184450000Y-143968044D01*
X184450000Y-143968044D01*
G37*
X184450000Y-143968044D02*
X184380663Y-144562766D01*
X184187347Y-145095341D01*
X183876696Y-145569162D01*
X183465375Y-145958810D01*
X182975449Y-146243381D01*
X182425992Y-146409795D01*
X181975501Y-146450000D01*
X125995476Y-146450000D01*
X125965000Y-138466324D01*
X126953556Y-138462307D01*
X127172880Y-138417870D01*
X127384224Y-138329573D01*
X127569562Y-138205188D01*
X127582528Y-138185740D01*
X133645026Y-140737792D01*
X133829318Y-140775000D01*
X143240000Y-140775000D01*
X143421775Y-140738843D01*
X143575876Y-140635876D01*
X143678843Y-140481775D01*
X143715000Y-140300000D01*
X143715000Y-138780634D01*
X143678968Y-138599162D01*
X143576107Y-138444990D01*
X143422077Y-138341917D01*
X143240327Y-138305634D01*
X142794708Y-138305327D01*
X142794121Y-137351566D01*
X142828000Y-137358305D01*
X143450053Y-137358305D01*
X143503821Y-137369000D01*
X144287000Y-137369000D01*
X144286999Y-143163000D01*
X144053945Y-143163000D01*
X143599296Y-143351322D01*
X143251322Y-143699296D01*
X143063000Y-144153945D01*
X143063000Y-144646055D01*
X143251322Y-145100704D01*
X143599296Y-145448678D01*
X144053945Y-145637000D01*
X144546055Y-145637000D01*
X145000704Y-145448678D01*
X145348678Y-145100704D01*
X145537000Y-144646055D01*
X145537000Y-144259015D01*
X145556031Y-144239984D01*
X145603000Y-144208600D01*
X145603000Y-144646055D01*
X145791322Y-145100704D01*
X146139296Y-145448678D01*
X146593945Y-145637000D01*
X147086055Y-145637000D01*
X147540704Y-145448678D01*
X147814382Y-145175000D01*
X148405618Y-145175000D01*
X148679296Y-145448678D01*
X149133945Y-145637000D01*
X149626055Y-145637000D01*
X150080704Y-145448678D01*
X150354382Y-145175000D01*
X151463670Y-145175000D01*
X151540000Y-145190183D01*
X151616330Y-145175000D01*
X151842390Y-145130034D01*
X152098744Y-144958744D01*
X152141983Y-144894032D01*
X152881711Y-144154305D01*
X152970000Y-144154305D01*
X153155335Y-144117439D01*
X153312455Y-144012455D01*
X153417439Y-143855335D01*
X153454305Y-143670000D01*
X153454305Y-143170000D01*
X153417439Y-142984665D01*
X153312455Y-142827545D01*
X153155335Y-142722561D01*
X152970000Y-142685695D01*
X152800913Y-142685695D01*
X152519999Y-142629817D01*
X152239085Y-142685695D01*
X152070000Y-142685695D01*
X151884665Y-142722561D01*
X151727545Y-142827545D01*
X151622561Y-142984665D01*
X151585695Y-143170000D01*
X151585695Y-143258289D01*
X151218985Y-143625000D01*
X150354382Y-143625000D01*
X150080704Y-143351322D01*
X149626055Y-143163000D01*
X149133945Y-143163000D01*
X148679296Y-143351322D01*
X148405618Y-143625000D01*
X147814382Y-143625000D01*
X147540704Y-143351322D01*
X147086055Y-143163000D01*
X146593945Y-143163000D01*
X146139296Y-143351322D01*
X145852074Y-143638544D01*
X145852182Y-143638002D01*
X145836999Y-143561673D01*
X145836999Y-137710000D01*
X146895000Y-137710000D01*
X146895000Y-137949933D01*
X146937187Y-138166116D01*
X146958584Y-138218853D01*
X146980561Y-138329335D01*
X147085545Y-138486455D01*
X147215000Y-138572954D01*
X147215000Y-139720000D01*
X147258769Y-139940043D01*
X147346637Y-140152175D01*
X147471282Y-140338718D01*
X147657825Y-140463363D01*
X147869957Y-140551231D01*
X148090000Y-140595000D01*
X148670000Y-140595000D01*
X148890043Y-140551231D01*
X149102175Y-140463363D01*
X149288718Y-140338718D01*
X149413363Y-140152175D01*
X149501231Y-139940043D01*
X149545000Y-139720000D01*
X149545000Y-137710000D01*
X149501231Y-137489957D01*
X149416869Y-137286288D01*
X149399439Y-137198665D01*
X149294455Y-137041545D01*
X149137335Y-136936561D01*
X148952000Y-136899695D01*
X148940563Y-136899695D01*
X148890043Y-136878769D01*
X148670000Y-136835000D01*
X147770000Y-136835000D01*
X147549957Y-136878769D01*
X147499437Y-136899695D01*
X147428000Y-136899695D01*
X147242665Y-136936561D01*
X147085545Y-137041545D01*
X146980561Y-137198665D01*
X146943695Y-137384000D01*
X146943695Y-137478065D01*
X146938769Y-137489957D01*
X146895000Y-137710000D01*
X145836999Y-137710000D01*
X145836999Y-137539016D01*
X145891015Y-137485000D01*
X145963939Y-137485000D01*
X146322293Y-137336565D01*
X146596565Y-137062293D01*
X146745000Y-136703939D01*
X146745000Y-136316061D01*
X146596565Y-135957707D01*
X146322293Y-135683435D01*
X145963939Y-135535000D01*
X145576061Y-135535000D01*
X145373267Y-135619000D01*
X145025000Y-135619000D01*
X145025000Y-134856751D01*
X145202175Y-134783363D01*
X145388718Y-134658718D01*
X145513363Y-134472175D01*
X145601231Y-134260043D01*
X145645000Y-134040000D01*
X145645000Y-131281137D01*
X145769857Y-131348895D01*
X146237693Y-131523460D01*
X146467596Y-131559015D01*
X146705028Y-131547071D01*
X146930202Y-131488623D01*
X147324402Y-131294465D01*
X146854927Y-133456523D01*
X146845115Y-133517179D01*
X146838283Y-133580838D01*
X146835000Y-133642196D01*
X146835000Y-134010000D01*
X146878769Y-134230043D01*
X146963897Y-134435559D01*
X146980561Y-134519335D01*
X147085545Y-134676455D01*
X147242665Y-134781439D01*
X147428000Y-134818305D01*
X147434609Y-134818305D01*
X147489957Y-134841231D01*
X147710000Y-134885000D01*
X149331828Y-134885000D01*
X149363414Y-134916586D01*
X149549957Y-135041231D01*
X149770000Y-135085000D01*
X152670000Y-135085000D01*
X152890043Y-135041231D01*
X153034128Y-134981549D01*
X153155335Y-134957439D01*
X153312455Y-134852455D01*
X153417439Y-134695335D01*
X153441549Y-134574128D01*
X153501231Y-134430043D01*
X153545000Y-134210000D01*
X153545000Y-133810000D01*
X153501231Y-133589957D01*
X153441549Y-133445872D01*
X153417439Y-133324665D01*
X153312455Y-133167545D01*
X153155335Y-133062561D01*
X153034128Y-133038451D01*
X152890043Y-132978769D01*
X152670000Y-132935000D01*
X151052414Y-132935000D01*
X150579992Y-130257938D01*
X150511675Y-130070311D01*
X150445000Y-129954855D01*
X150445000Y-129836495D01*
X150235669Y-129331125D01*
X149848875Y-128944331D01*
X149343505Y-128735000D01*
X148796495Y-128735000D01*
X148291125Y-128944331D01*
X148023033Y-129212423D01*
X148010747Y-124158320D01*
X147966526Y-123938582D01*
X147878301Y-123726822D01*
X147753576Y-123540838D01*
X147747241Y-123536617D01*
X151060704Y-123536220D01*
X151023207Y-123573785D01*
X150898534Y-123760923D01*
X150855165Y-123981045D01*
X150864783Y-129270941D01*
X150913457Y-129501429D01*
X151042125Y-129685220D01*
X151162343Y-129800324D01*
X151362265Y-129924932D01*
X151583940Y-129959501D01*
X151687510Y-129955185D01*
X151696410Y-129955000D01*
X155607035Y-129955000D01*
X155593180Y-130405294D01*
X155605154Y-130541014D01*
X155653452Y-130771283D01*
X155769738Y-131015588D01*
X155918001Y-131198274D01*
X156015785Y-131293147D01*
X156984212Y-132031695D01*
X156006000Y-132031695D01*
X155820665Y-132068561D01*
X155663545Y-132173545D01*
X155558561Y-132330665D01*
X155521695Y-132516000D01*
X155521695Y-133862869D01*
X153749564Y-135635000D01*
X152205360Y-135635000D01*
X151963939Y-135535000D01*
X151576061Y-135535000D01*
X151217707Y-135683435D01*
X150943435Y-135957707D01*
X150795000Y-136316061D01*
X150795000Y-136703939D01*
X150943435Y-137062293D01*
X151217707Y-137336565D01*
X151576061Y-137485000D01*
X151963939Y-137485000D01*
X152205360Y-137385000D01*
X154025822Y-137385000D01*
X154112000Y-137402142D01*
X154198178Y-137385000D01*
X154198179Y-137385000D01*
X154453408Y-137334232D01*
X154742840Y-137140840D01*
X154791659Y-137067777D01*
X155745932Y-136113504D01*
X155820665Y-136163439D01*
X156006000Y-136200305D01*
X157006000Y-136200305D01*
X157143643Y-136172926D01*
X154426537Y-138842914D01*
X154299288Y-139030677D01*
X154149736Y-139387309D01*
X154105000Y-139609673D01*
X154105000Y-143130000D01*
X154124592Y-143278820D01*
X154191579Y-143528820D01*
X154340401Y-143786586D01*
X154523414Y-143969599D01*
X154781180Y-144118421D01*
X155031180Y-144185408D01*
X155180000Y-144205000D01*
X156900000Y-144205000D01*
X157048820Y-144185408D01*
X157298820Y-144118421D01*
X157556586Y-143969599D01*
X157739599Y-143786586D01*
X157843198Y-143607148D01*
X180025000Y-143607148D01*
X180025000Y-144392852D01*
X180325675Y-145118748D01*
X180881252Y-145674325D01*
X181607148Y-145975000D01*
X182392852Y-145975000D01*
X183118748Y-145674325D01*
X183674325Y-145118748D01*
X183975000Y-144392852D01*
X183975000Y-143607148D01*
X183674325Y-142881252D01*
X183118748Y-142325675D01*
X182392852Y-142025000D01*
X181607148Y-142025000D01*
X180881252Y-142325675D01*
X180325675Y-142881252D01*
X180025000Y-143607148D01*
X157843198Y-143607148D01*
X157888421Y-143528820D01*
X157955408Y-143278820D01*
X157975000Y-143130000D01*
X157975000Y-140772499D01*
X157982157Y-140744864D01*
X158001829Y-140724176D01*
X163457851Y-137325183D01*
X163570701Y-137233156D01*
X163743713Y-137051024D01*
X163883681Y-136798306D01*
X163946285Y-136555025D01*
X163964426Y-136410545D01*
X163956028Y-132329063D01*
X163936117Y-132180237D01*
X163868574Y-131930304D01*
X163719135Y-131672792D01*
X163535645Y-131490145D01*
X163277445Y-131341893D01*
X163027204Y-131275503D01*
X162878288Y-131256278D01*
X160034249Y-131263533D01*
X160033699Y-131263387D01*
X160033550Y-131262836D01*
X160016253Y-124387295D01*
X159996349Y-124238756D01*
X159928943Y-123989288D01*
X159779923Y-123732176D01*
X159596967Y-123549680D01*
X159571838Y-123535200D01*
X160954948Y-123535034D01*
X165899528Y-132810988D01*
X166815695Y-134578542D01*
X166815695Y-135475000D01*
X166852561Y-135660335D01*
X166957545Y-135817455D01*
X167114665Y-135922439D01*
X167300000Y-135959305D01*
X169800000Y-135959305D01*
X169985335Y-135922439D01*
X170118515Y-135833451D01*
X170118515Y-136432180D01*
X170155381Y-136617515D01*
X170260365Y-136774635D01*
X170417485Y-136879619D01*
X170602820Y-136916485D01*
X172152220Y-136916485D01*
X172197591Y-136907460D01*
X172675890Y-136907460D01*
X172752220Y-136922643D01*
X172828550Y-136907460D01*
X173054610Y-136862494D01*
X173310964Y-136691204D01*
X173354203Y-136626492D01*
X173794035Y-136186661D01*
X173858744Y-136143424D01*
X174030034Y-135887070D01*
X174073258Y-135669768D01*
X174090183Y-135584680D01*
X174075000Y-135508350D01*
X174075000Y-132893748D01*
X174095001Y-132863815D01*
X174095000Y-136813984D01*
X173630966Y-137278019D01*
X173566257Y-137321256D01*
X173523020Y-137385965D01*
X173523019Y-137385966D01*
X173394966Y-137577611D01*
X173334817Y-137880000D01*
X173350001Y-137956335D01*
X173350001Y-137995695D01*
X173325000Y-137995695D01*
X173139665Y-138032561D01*
X172982545Y-138137545D01*
X172877561Y-138294665D01*
X172840695Y-138480000D01*
X172840695Y-139368290D01*
X172230968Y-139978017D01*
X172166256Y-140021256D01*
X172015126Y-140247439D01*
X171994966Y-140277611D01*
X171934817Y-140580000D01*
X171950000Y-140656330D01*
X171950000Y-141420505D01*
X171939665Y-141422561D01*
X171782545Y-141527545D01*
X171677561Y-141684665D01*
X171640695Y-141870000D01*
X171640695Y-143070000D01*
X171677561Y-143255335D01*
X171782545Y-143412455D01*
X171939665Y-143517439D01*
X172125000Y-143554305D01*
X173325000Y-143554305D01*
X173510335Y-143517439D01*
X173667455Y-143412455D01*
X173772439Y-143255335D01*
X173809305Y-143070000D01*
X173809305Y-141870000D01*
X173772439Y-141684665D01*
X173667455Y-141527545D01*
X173510335Y-141422561D01*
X173500000Y-141420505D01*
X173500000Y-140901015D01*
X173936710Y-140464305D01*
X174925000Y-140464305D01*
X175110335Y-140427439D01*
X175267455Y-140322455D01*
X175372439Y-140165335D01*
X175409305Y-139980000D01*
X175409305Y-138480000D01*
X175372439Y-138294665D01*
X175267455Y-138137545D01*
X175110335Y-138032561D01*
X175075403Y-138025612D01*
X175364035Y-137736981D01*
X175428744Y-137693744D01*
X175513475Y-137566935D01*
X175513475Y-137702180D01*
X175550341Y-137887515D01*
X175655325Y-138044635D01*
X175812445Y-138149619D01*
X175997780Y-138186485D01*
X176350001Y-138186485D01*
X176350000Y-139451329D01*
X176350001Y-139451333D01*
X176350000Y-140696329D01*
X176350001Y-140696334D01*
X176350000Y-141449065D01*
X176310335Y-141422561D01*
X176125000Y-141385695D01*
X174925000Y-141385695D01*
X174739665Y-141422561D01*
X174582545Y-141527545D01*
X174477561Y-141684665D01*
X174440695Y-141870000D01*
X174440695Y-143070000D01*
X174477561Y-143255335D01*
X174582545Y-143412455D01*
X174739665Y-143517439D01*
X174925000Y-143554305D01*
X176125000Y-143554305D01*
X176310335Y-143517439D01*
X176467455Y-143412455D01*
X176572439Y-143255335D01*
X176574495Y-143245000D01*
X176648670Y-143245000D01*
X176725000Y-143260183D01*
X176801330Y-143245000D01*
X177027390Y-143200034D01*
X177283744Y-143028744D01*
X177326984Y-142964031D01*
X177619030Y-142671984D01*
X177683744Y-142628744D01*
X177855034Y-142372390D01*
X177900000Y-142146330D01*
X177900000Y-142146329D01*
X177915183Y-142070001D01*
X177900000Y-141993672D01*
X177900000Y-138029123D01*
X177994619Y-137887515D01*
X178031485Y-137702180D01*
X178031485Y-137102740D01*
X177994619Y-136917405D01*
X177921156Y-136807460D01*
X177977125Y-136807460D01*
X178002561Y-136935335D01*
X178107545Y-137092455D01*
X178264665Y-137197439D01*
X178450000Y-137234305D01*
X179250000Y-137234305D01*
X179435335Y-137197439D01*
X179525001Y-137137527D01*
X179525001Y-137156082D01*
X179502561Y-137189665D01*
X179465695Y-137375000D01*
X179465695Y-138275000D01*
X179502561Y-138460335D01*
X179607545Y-138617455D01*
X179764665Y-138722439D01*
X179950000Y-138759305D01*
X180450000Y-138759305D01*
X180635335Y-138722439D01*
X180792455Y-138617455D01*
X180897439Y-138460335D01*
X180934305Y-138275000D01*
X180934305Y-137375000D01*
X180900369Y-137204394D01*
X180935335Y-137197439D01*
X181092455Y-137092455D01*
X181197439Y-136935335D01*
X181234305Y-136750000D01*
X181234305Y-136000000D01*
X181197439Y-135814665D01*
X181092455Y-135657545D01*
X180935335Y-135552561D01*
X180891725Y-135543886D01*
X180897439Y-135535335D01*
X180934305Y-135350000D01*
X180934305Y-134450000D01*
X180897439Y-134264665D01*
X180792455Y-134107545D01*
X180635335Y-134002561D01*
X180450000Y-133965695D01*
X179950000Y-133965695D01*
X179764665Y-134002561D01*
X179693667Y-134050000D01*
X179654231Y-134050000D01*
X179697439Y-133985335D01*
X179734305Y-133800000D01*
X179734305Y-133050000D01*
X179697439Y-132864665D01*
X179592455Y-132707545D01*
X179435335Y-132602561D01*
X179250000Y-132565695D01*
X178450000Y-132565695D01*
X178264665Y-132602561D01*
X178107545Y-132707545D01*
X178030708Y-132822540D01*
X177592551Y-132822540D01*
X177547180Y-132813515D01*
X175997780Y-132813515D01*
X175812445Y-132850381D01*
X175655325Y-132955365D01*
X175645000Y-132970817D01*
X175645000Y-130871015D01*
X176841015Y-129675000D01*
X177062473Y-129675000D01*
X177107545Y-129742455D01*
X177264665Y-129847439D01*
X177450000Y-129884305D01*
X179050000Y-129884305D01*
X179235335Y-129847439D01*
X179392455Y-129742455D01*
X179497439Y-129585335D01*
X179534305Y-129400000D01*
X179534305Y-128400000D01*
X179497439Y-128214665D01*
X179392455Y-128057545D01*
X179235335Y-127952561D01*
X179050000Y-127915695D01*
X179025000Y-127915695D01*
X179025000Y-126316330D01*
X179040183Y-126240000D01*
X178980034Y-125937610D01*
X178851981Y-125745965D01*
X178808744Y-125681256D01*
X178744035Y-125638019D01*
X177095000Y-123988985D01*
X177095000Y-123525000D01*
X184450000Y-123525000D01*
X184450000Y-143968044D01*
D54*
G36*
X182550724Y-50670285D02*
X183071898Y-50859462D01*
X183535581Y-51163467D01*
X183916887Y-51565982D01*
X184195371Y-52045427D01*
X184358476Y-52583958D01*
X184398001Y-53026825D01*
X184398000Y-118973000D01*
X170985396Y-118973000D01*
X170097726Y-118085330D01*
X170040426Y-117999574D01*
X169700715Y-117772587D01*
X169401150Y-117713000D01*
X169401149Y-117713000D01*
X169300000Y-117692880D01*
X169198851Y-117713000D01*
X156598190Y-117713000D01*
X148085188Y-109200000D01*
X150344672Y-106940517D01*
X150430426Y-106883218D01*
X150657413Y-106543507D01*
X150690274Y-106378305D01*
X151265152Y-106953183D01*
X152046913Y-107277000D01*
X152893087Y-107277000D01*
X153674848Y-106953183D01*
X154273183Y-106354848D01*
X154597000Y-105573087D01*
X154597000Y-104726913D01*
X154273183Y-103945152D01*
X153674848Y-103346817D01*
X152893087Y-103023000D01*
X152046913Y-103023000D01*
X151265152Y-103346817D01*
X150717000Y-103894969D01*
X150717000Y-99755396D01*
X154124675Y-96347723D01*
X154210426Y-96290426D01*
X154373371Y-96046561D01*
X154437412Y-95950717D01*
X154437412Y-95950716D01*
X154437413Y-95950715D01*
X154497000Y-95651150D01*
X154517120Y-95550001D01*
X154497000Y-95448852D01*
X154497000Y-94951084D01*
X154679753Y-94768331D01*
X154897000Y-94243848D01*
X154897000Y-93676152D01*
X154679753Y-93151669D01*
X154278331Y-92750247D01*
X153753848Y-92533000D01*
X153186152Y-92533000D01*
X152661669Y-92750247D01*
X152260247Y-93151669D01*
X152043000Y-93676152D01*
X152043000Y-94243848D01*
X152260247Y-94768331D01*
X152443001Y-94951085D01*
X152443001Y-95124601D01*
X149035330Y-98532274D01*
X148949574Y-98589574D01*
X148722587Y-98929286D01*
X148681631Y-99135186D01*
X148642880Y-99330000D01*
X148663000Y-99431149D01*
X148663001Y-105717394D01*
X146279240Y-108101156D01*
X146168331Y-107990247D01*
X146022881Y-107930000D01*
X146168331Y-107869753D01*
X146569753Y-107468331D01*
X146787000Y-106943848D01*
X146787000Y-106376152D01*
X146569753Y-105851669D01*
X146168331Y-105450247D01*
X146022881Y-105390000D01*
X146168331Y-105329753D01*
X146569753Y-104928331D01*
X146787000Y-104403848D01*
X146787000Y-103836152D01*
X146569753Y-103311669D01*
X146168331Y-102910247D01*
X146022881Y-102850000D01*
X146168331Y-102789753D01*
X146569753Y-102388331D01*
X146787000Y-101863848D01*
X146787000Y-101296152D01*
X146569753Y-100771669D01*
X146168331Y-100370247D01*
X146022881Y-100310000D01*
X146168331Y-100249753D01*
X146569753Y-99848331D01*
X146787000Y-99323848D01*
X146787000Y-98756152D01*
X146569753Y-98231669D01*
X146168331Y-97830247D01*
X146022881Y-97770000D01*
X146168331Y-97709753D01*
X146569753Y-97308331D01*
X146787000Y-96783848D01*
X146787000Y-96216152D01*
X146569753Y-95691669D01*
X146168331Y-95290247D01*
X146022881Y-95230000D01*
X146168331Y-95169753D01*
X146569753Y-94768331D01*
X146787000Y-94243848D01*
X146787000Y-93676152D01*
X146569753Y-93151669D01*
X146168331Y-92750247D01*
X146022881Y-92690000D01*
X146168331Y-92629753D01*
X146569753Y-92228331D01*
X146787000Y-91703848D01*
X146787000Y-91136152D01*
X146569753Y-90611669D01*
X146168331Y-90210247D01*
X146022881Y-90150000D01*
X146168331Y-90089753D01*
X146569753Y-89688331D01*
X146787000Y-89163848D01*
X146787000Y-88596152D01*
X146753312Y-88514821D01*
X148153441Y-87114693D01*
X148214137Y-87074137D01*
X148254692Y-87013442D01*
X148254695Y-87013439D01*
X148374818Y-86833661D01*
X148393448Y-86740001D01*
X148417000Y-86621599D01*
X148417000Y-86621595D01*
X148431241Y-86550000D01*
X148417000Y-86478405D01*
X148417000Y-74726913D01*
X150343000Y-74726913D01*
X150343000Y-75573087D01*
X150666817Y-76354848D01*
X151265152Y-76953183D01*
X152046913Y-77277000D01*
X152893087Y-77277000D01*
X153674848Y-76953183D01*
X154273183Y-76354848D01*
X154597000Y-75573087D01*
X154597000Y-74726913D01*
X154273183Y-73945152D01*
X153674848Y-73346817D01*
X152893087Y-73023000D01*
X152046913Y-73023000D01*
X151265152Y-73346817D01*
X150666817Y-73945152D01*
X150343000Y-74726913D01*
X148417000Y-74726913D01*
X148417000Y-68319336D01*
X159053542Y-68319336D01*
X159079161Y-68929460D01*
X159263357Y-69374148D01*
X159519841Y-69460554D01*
X160420395Y-68560000D01*
X160779605Y-68560000D01*
X161680159Y-69460554D01*
X161936643Y-69374148D01*
X162146458Y-68800664D01*
X162120839Y-68190540D01*
X161936643Y-67745852D01*
X161680159Y-67659446D01*
X160779605Y-68560000D01*
X160420395Y-68560000D01*
X159519841Y-67659446D01*
X159263357Y-67745852D01*
X159053542Y-68319336D01*
X148417000Y-68319336D01*
X148417000Y-67100159D01*
X159699446Y-67100159D01*
X159763401Y-67290000D01*
X159699446Y-67479841D01*
X160600000Y-68380395D01*
X161500554Y-67479841D01*
X161436599Y-67290000D01*
X161500554Y-67100159D01*
X160600000Y-66199605D01*
X159699446Y-67100159D01*
X148417000Y-67100159D01*
X148417000Y-65779336D01*
X159053542Y-65779336D01*
X159079161Y-66389460D01*
X159263357Y-66834148D01*
X159519841Y-66920554D01*
X160420395Y-66020000D01*
X160779605Y-66020000D01*
X161680159Y-66920554D01*
X161936643Y-66834148D01*
X162146458Y-66260664D01*
X162120839Y-65650540D01*
X161936643Y-65205852D01*
X161680159Y-65119446D01*
X160779605Y-66020000D01*
X160420395Y-66020000D01*
X159519841Y-65119446D01*
X159263357Y-65205852D01*
X159053542Y-65779336D01*
X148417000Y-65779336D01*
X148417000Y-64951132D01*
X148428291Y-64939841D01*
X159699446Y-64939841D01*
X160600000Y-65840395D01*
X161500554Y-64939841D01*
X161414148Y-64683357D01*
X160840664Y-64473542D01*
X160230540Y-64499161D01*
X159785852Y-64683357D01*
X159699446Y-64939841D01*
X148428291Y-64939841D01*
X150921133Y-62447000D01*
X158881269Y-62447000D01*
X158950055Y-62549945D01*
X159124375Y-62666423D01*
X159330000Y-62707324D01*
X159339192Y-62707324D01*
X160355305Y-63723438D01*
X160395863Y-63784137D01*
X160636339Y-63944818D01*
X160848401Y-63987000D01*
X160848405Y-63987000D01*
X160919999Y-64001241D01*
X160991593Y-63987000D01*
X163704867Y-63987000D01*
X162636562Y-65055306D01*
X162575864Y-65095863D01*
X162535307Y-65156561D01*
X162535306Y-65156562D01*
X162415182Y-65336340D01*
X162358759Y-65620000D01*
X162373001Y-65691600D01*
X162373000Y-78458867D01*
X162027000Y-78804867D01*
X162027000Y-78436152D01*
X161809753Y-77911669D01*
X161408331Y-77510247D01*
X161262881Y-77450000D01*
X161408331Y-77389753D01*
X161809753Y-76988331D01*
X162027000Y-76463848D01*
X162027000Y-75896152D01*
X161809753Y-75371669D01*
X161408331Y-74970247D01*
X161262881Y-74910000D01*
X161408331Y-74849753D01*
X161809753Y-74448331D01*
X162027000Y-73923848D01*
X162027000Y-73356152D01*
X161809753Y-72831669D01*
X161408331Y-72430247D01*
X161262881Y-72370000D01*
X161408331Y-72309753D01*
X161809753Y-71908331D01*
X162027000Y-71383848D01*
X162027000Y-70816152D01*
X161809753Y-70291669D01*
X161414294Y-69896210D01*
X161500554Y-69640159D01*
X160600000Y-68739605D01*
X159699446Y-69640159D01*
X159785706Y-69896210D01*
X159390247Y-70291669D01*
X159173000Y-70816152D01*
X159173000Y-71383848D01*
X159390247Y-71908331D01*
X159791669Y-72309753D01*
X159937119Y-72370000D01*
X159791669Y-72430247D01*
X159390247Y-72831669D01*
X159173000Y-73356152D01*
X159173000Y-73923848D01*
X159390247Y-74448331D01*
X159791669Y-74849753D01*
X159937119Y-74910000D01*
X159791669Y-74970247D01*
X159390247Y-75371669D01*
X159173000Y-75896152D01*
X159173000Y-76437446D01*
X152942819Y-82667628D01*
X152873767Y-82713767D01*
X152690984Y-82987322D01*
X152643000Y-83228553D01*
X152643000Y-83228556D01*
X152626800Y-83310000D01*
X152643000Y-83391444D01*
X152643001Y-85148915D01*
X152260247Y-85531669D01*
X152043000Y-86056152D01*
X152043000Y-86623848D01*
X152260247Y-87148331D01*
X152661669Y-87549753D01*
X152807119Y-87610000D01*
X152661669Y-87670247D01*
X152260247Y-88071669D01*
X152043000Y-88596152D01*
X152043000Y-89163848D01*
X152260247Y-89688331D01*
X152661669Y-90089753D01*
X153186152Y-90307000D01*
X153753848Y-90307000D01*
X154278331Y-90089753D01*
X154679753Y-89688331D01*
X154897000Y-89163848D01*
X154897000Y-88622553D01*
X156137184Y-87382370D01*
X156206233Y-87336233D01*
X156389016Y-87062679D01*
X156437000Y-86821448D01*
X156437000Y-86821444D01*
X156453200Y-86740001D01*
X156437000Y-86658558D01*
X156437000Y-84052553D01*
X159173000Y-81316554D01*
X159173000Y-81543848D01*
X159390247Y-82068331D01*
X159791669Y-82469753D01*
X159937119Y-82530000D01*
X159791669Y-82590247D01*
X159390247Y-82991669D01*
X159173000Y-83516152D01*
X159173000Y-84083848D01*
X159390247Y-84608331D01*
X159791669Y-85009753D01*
X159937119Y-85070000D01*
X159791669Y-85130247D01*
X159390247Y-85531669D01*
X159173000Y-86056152D01*
X159173000Y-86623848D01*
X159390247Y-87148331D01*
X159791669Y-87549753D01*
X159937119Y-87610000D01*
X159791669Y-87670247D01*
X159390247Y-88071669D01*
X159173000Y-88596152D01*
X159173000Y-89163848D01*
X159390247Y-89688331D01*
X159791669Y-90089753D01*
X159937119Y-90150000D01*
X159791669Y-90210247D01*
X159390247Y-90611669D01*
X159173000Y-91136152D01*
X159173000Y-91703848D01*
X159390247Y-92228331D01*
X159791669Y-92629753D01*
X159937119Y-92690000D01*
X159791669Y-92750247D01*
X159390247Y-93151669D01*
X159173000Y-93676152D01*
X159173000Y-94243848D01*
X159390247Y-94768331D01*
X159791669Y-95169753D01*
X159937119Y-95230000D01*
X159791669Y-95290247D01*
X159390247Y-95691669D01*
X159173000Y-96216152D01*
X159173000Y-96783848D01*
X159390247Y-97308331D01*
X159791669Y-97709753D01*
X159937119Y-97770000D01*
X159791669Y-97830247D01*
X159390247Y-98231669D01*
X159173000Y-98756152D01*
X159173000Y-99323848D01*
X159390247Y-99848331D01*
X159791669Y-100249753D01*
X159937119Y-100310000D01*
X159791669Y-100370247D01*
X159390247Y-100771669D01*
X159173000Y-101296152D01*
X159173000Y-101863848D01*
X159390247Y-102388331D01*
X159791669Y-102789753D01*
X159937119Y-102850000D01*
X159791669Y-102910247D01*
X159390247Y-103311669D01*
X159173000Y-103836152D01*
X159173000Y-104403848D01*
X159390247Y-104928331D01*
X159791669Y-105329753D01*
X159937119Y-105390000D01*
X159791669Y-105450247D01*
X159390247Y-105851669D01*
X159173000Y-106376152D01*
X159173000Y-106943848D01*
X159390247Y-107468331D01*
X159791669Y-107869753D01*
X159937119Y-107930000D01*
X159791669Y-107990247D01*
X159390247Y-108391669D01*
X159173000Y-108916152D01*
X159173000Y-109483848D01*
X159390247Y-110008331D01*
X159791669Y-110409753D01*
X159937119Y-110470000D01*
X159791669Y-110530247D01*
X159390247Y-110931669D01*
X159173000Y-111456152D01*
X159173000Y-112023848D01*
X159390247Y-112548331D01*
X159791669Y-112949753D01*
X159937119Y-113010000D01*
X159791669Y-113070247D01*
X159390247Y-113471669D01*
X159173000Y-113996152D01*
X159173000Y-114563848D01*
X159390247Y-115088331D01*
X159791669Y-115489753D01*
X160316152Y-115707000D01*
X160883848Y-115707000D01*
X161408331Y-115489753D01*
X161809753Y-115088331D01*
X161825249Y-115050919D01*
X172372100Y-115050919D01*
X172372100Y-115599081D01*
X172581872Y-116105518D01*
X172969482Y-116493128D01*
X173475919Y-116702900D01*
X174024081Y-116702900D01*
X174530518Y-116493128D01*
X174918128Y-116105518D01*
X175127900Y-115599081D01*
X175127900Y-115050919D01*
X174918128Y-114544482D01*
X174530518Y-114156872D01*
X174024081Y-113947100D01*
X173475919Y-113947100D01*
X172969482Y-114156872D01*
X172581872Y-114544482D01*
X172372100Y-115050919D01*
X161825249Y-115050919D01*
X162027000Y-114563848D01*
X162027000Y-113996152D01*
X161809753Y-113471669D01*
X161408331Y-113070247D01*
X161262881Y-113010000D01*
X161408331Y-112949753D01*
X161809753Y-112548331D01*
X162027000Y-112023848D01*
X162027000Y-111456152D01*
X161809753Y-110931669D01*
X161408331Y-110530247D01*
X161262881Y-110470000D01*
X161408331Y-110409753D01*
X161809753Y-110008331D01*
X161843441Y-109927000D01*
X164783868Y-109927000D01*
X167090704Y-112233838D01*
X167000000Y-112452816D01*
X167000000Y-113117184D01*
X167254243Y-113730979D01*
X167724021Y-114200757D01*
X168337816Y-114455000D01*
X169002184Y-114455000D01*
X169615979Y-114200757D01*
X170085757Y-113730979D01*
X170340000Y-113117184D01*
X170340000Y-112452816D01*
X170085757Y-111839021D01*
X169615979Y-111369243D01*
X169002184Y-111115000D01*
X168337816Y-111115000D01*
X168118838Y-111205704D01*
X166656695Y-109743562D01*
X171229100Y-109743562D01*
X171229100Y-110746438D01*
X171612884Y-111672975D01*
X172322025Y-112382116D01*
X173248562Y-112765900D01*
X174251438Y-112765900D01*
X175177975Y-112382116D01*
X175887116Y-111672975D01*
X176270900Y-110746438D01*
X176270900Y-109743562D01*
X175887116Y-108817025D01*
X175177975Y-108107884D01*
X174251438Y-107724100D01*
X173248562Y-107724100D01*
X172322025Y-108107884D01*
X171612884Y-108817025D01*
X171229100Y-109743562D01*
X166656695Y-109743562D01*
X165649696Y-108736564D01*
X165609137Y-108675863D01*
X165368661Y-108515182D01*
X165156599Y-108473000D01*
X165156595Y-108473000D01*
X165085000Y-108458759D01*
X165013405Y-108473000D01*
X161843441Y-108473000D01*
X161809753Y-108391669D01*
X161408331Y-107990247D01*
X161262881Y-107930000D01*
X161408331Y-107869753D01*
X161587121Y-107690963D01*
X170133642Y-107690963D01*
X170249806Y-107972658D01*
X170911333Y-108223062D01*
X171618329Y-108201249D01*
X172170194Y-107972658D01*
X172286358Y-107690963D01*
X171210000Y-106614605D01*
X170133642Y-107690963D01*
X161587121Y-107690963D01*
X161809753Y-107468331D01*
X161843441Y-107387000D01*
X163008405Y-107387000D01*
X163080000Y-107401241D01*
X163151595Y-107387000D01*
X163151599Y-107387000D01*
X163363661Y-107344818D01*
X163604137Y-107184137D01*
X163644696Y-107123436D01*
X164631799Y-106136333D01*
X169421938Y-106136333D01*
X169443751Y-106843329D01*
X169672342Y-107395194D01*
X169954037Y-107511358D01*
X171030395Y-106435000D01*
X169954037Y-105358642D01*
X169672342Y-105474806D01*
X169421938Y-106136333D01*
X164631799Y-106136333D01*
X165589095Y-105179037D01*
X170133642Y-105179037D01*
X171210000Y-106255395D01*
X171224143Y-106241253D01*
X171403748Y-106420858D01*
X171389605Y-106435000D01*
X172465963Y-107511358D01*
X172747658Y-107395194D01*
X172998062Y-106733667D01*
X172985914Y-106339934D01*
X173475919Y-106542900D01*
X174024081Y-106542900D01*
X174530518Y-106333128D01*
X174918128Y-105945518D01*
X175127900Y-105439081D01*
X175127900Y-104890919D01*
X174918128Y-104384482D01*
X174530518Y-103996872D01*
X174024081Y-103787100D01*
X173475919Y-103787100D01*
X172969482Y-103996872D01*
X172581872Y-104384482D01*
X172372100Y-104890919D01*
X172372100Y-105093292D01*
X172286357Y-105179035D01*
X172170194Y-104897342D01*
X171508667Y-104646938D01*
X170801671Y-104668751D01*
X170249806Y-104897342D01*
X170133642Y-105179037D01*
X165589095Y-105179037D01*
X169133439Y-101634694D01*
X169194137Y-101594137D01*
X169354818Y-101353661D01*
X169397000Y-101141599D01*
X169397000Y-101141595D01*
X169411241Y-101070000D01*
X169397000Y-100998405D01*
X169397000Y-96050919D01*
X172372100Y-96050919D01*
X172372100Y-96599081D01*
X172581872Y-97105518D01*
X172969482Y-97493128D01*
X173475919Y-97702900D01*
X174024081Y-97702900D01*
X174530518Y-97493128D01*
X174918128Y-97105518D01*
X175127900Y-96599081D01*
X175127900Y-96050919D01*
X174918128Y-95544482D01*
X174530518Y-95156872D01*
X174024081Y-94947100D01*
X173475919Y-94947100D01*
X172969482Y-95156872D01*
X172581872Y-95544482D01*
X172372100Y-96050919D01*
X169397000Y-96050919D01*
X169397000Y-95291461D01*
X169615979Y-95200757D01*
X170085757Y-94730979D01*
X170340000Y-94117184D01*
X170340000Y-93452816D01*
X170085757Y-92839021D01*
X169615979Y-92369243D01*
X169002184Y-92115000D01*
X168337816Y-92115000D01*
X167724021Y-92369243D01*
X167254243Y-92839021D01*
X167000000Y-93452816D01*
X167000000Y-94117184D01*
X167254243Y-94730979D01*
X167724021Y-95200757D01*
X167943000Y-95291461D01*
X167943001Y-100768866D01*
X162778868Y-105933000D01*
X161843441Y-105933000D01*
X161809753Y-105851669D01*
X161408331Y-105450247D01*
X161262881Y-105390000D01*
X161408331Y-105329753D01*
X161809753Y-104928331D01*
X161843441Y-104847000D01*
X162488405Y-104847000D01*
X162560000Y-104861241D01*
X162631595Y-104847000D01*
X162631599Y-104847000D01*
X162843661Y-104804818D01*
X163084137Y-104644137D01*
X163124696Y-104583436D01*
X166553441Y-101154692D01*
X166614136Y-101114137D01*
X166654692Y-101053441D01*
X166654694Y-101053439D01*
X166774818Y-100873661D01*
X166788351Y-100805625D01*
X166817000Y-100661599D01*
X166817000Y-100661595D01*
X166831241Y-100590000D01*
X166817000Y-100518405D01*
X166817000Y-90743562D01*
X171229100Y-90743562D01*
X171229100Y-91746438D01*
X171612884Y-92672975D01*
X172322025Y-93382116D01*
X173248562Y-93765900D01*
X174251438Y-93765900D01*
X175177975Y-93382116D01*
X175887116Y-92672975D01*
X176270900Y-91746438D01*
X176270900Y-90743562D01*
X175887116Y-89817025D01*
X175177975Y-89107884D01*
X174251438Y-88724100D01*
X173248562Y-88724100D01*
X172322025Y-89107884D01*
X171612884Y-89817025D01*
X171229100Y-90743562D01*
X166817000Y-90743562D01*
X166817000Y-88690963D01*
X170133642Y-88690963D01*
X170249806Y-88972658D01*
X170911333Y-89223062D01*
X171618329Y-89201249D01*
X172170194Y-88972658D01*
X172286358Y-88690963D01*
X171210000Y-87614605D01*
X170133642Y-88690963D01*
X166817000Y-88690963D01*
X166817000Y-87136333D01*
X169421938Y-87136333D01*
X169443751Y-87843329D01*
X169672342Y-88395194D01*
X169954037Y-88511358D01*
X171030395Y-87435000D01*
X169954037Y-86358642D01*
X169672342Y-86474806D01*
X169421938Y-87136333D01*
X166817000Y-87136333D01*
X166817000Y-86179037D01*
X170133642Y-86179037D01*
X171210000Y-87255395D01*
X171224143Y-87241253D01*
X171403748Y-87420858D01*
X171389605Y-87435000D01*
X172465963Y-88511358D01*
X172747658Y-88395194D01*
X172998062Y-87733667D01*
X172985914Y-87339934D01*
X173475919Y-87542900D01*
X174024081Y-87542900D01*
X174530518Y-87333128D01*
X174918128Y-86945518D01*
X175127900Y-86439081D01*
X175127900Y-85890919D01*
X174918128Y-85384482D01*
X174530518Y-84996872D01*
X174024081Y-84787100D01*
X173475919Y-84787100D01*
X172969482Y-84996872D01*
X172581872Y-85384482D01*
X172372100Y-85890919D01*
X172372100Y-86093292D01*
X172286357Y-86179035D01*
X172170194Y-85897342D01*
X171508667Y-85646938D01*
X170801671Y-85668751D01*
X170249806Y-85897342D01*
X170133642Y-86179037D01*
X166817000Y-86179037D01*
X166817000Y-77666132D01*
X167432213Y-77050919D01*
X172372100Y-77050919D01*
X172372100Y-77599081D01*
X172581872Y-78105518D01*
X172969482Y-78493128D01*
X173475919Y-78702900D01*
X174024081Y-78702900D01*
X174530518Y-78493128D01*
X174918128Y-78105518D01*
X175127900Y-77599081D01*
X175127900Y-77050919D01*
X174918128Y-76544482D01*
X174530518Y-76156872D01*
X174024081Y-75947100D01*
X173475919Y-75947100D01*
X172969482Y-76156872D01*
X172581872Y-76544482D01*
X172372100Y-77050919D01*
X167432213Y-77050919D01*
X168118837Y-76364296D01*
X168337816Y-76455000D01*
X169002184Y-76455000D01*
X169615979Y-76200757D01*
X170085757Y-75730979D01*
X170340000Y-75117184D01*
X170340000Y-74452816D01*
X170085757Y-73839021D01*
X169615979Y-73369243D01*
X169002184Y-73115000D01*
X168337816Y-73115000D01*
X167724021Y-73369243D01*
X167254243Y-73839021D01*
X167000000Y-74452816D01*
X167000000Y-75117184D01*
X167090704Y-75336163D01*
X165626562Y-76800306D01*
X165565864Y-76840863D01*
X165525307Y-76901561D01*
X165525306Y-76901562D01*
X165405182Y-77081340D01*
X165348759Y-77365000D01*
X165363001Y-77436600D01*
X165363000Y-100288867D01*
X162258868Y-103393000D01*
X161843441Y-103393000D01*
X161809753Y-103311669D01*
X161408331Y-102910247D01*
X161262881Y-102850000D01*
X161408331Y-102789753D01*
X161809753Y-102388331D01*
X162027000Y-101863848D01*
X162027000Y-101296152D01*
X161809753Y-100771669D01*
X161408331Y-100370247D01*
X161262881Y-100310000D01*
X161408331Y-100249753D01*
X161809753Y-99848331D01*
X162027000Y-99323848D01*
X162027000Y-98756152D01*
X161809753Y-98231669D01*
X161408331Y-97830247D01*
X161262881Y-97770000D01*
X161408331Y-97709753D01*
X161809753Y-97308331D01*
X162027000Y-96783848D01*
X162027000Y-96216152D01*
X161809753Y-95691669D01*
X161408331Y-95290247D01*
X161262881Y-95230000D01*
X161408331Y-95169753D01*
X161809753Y-94768331D01*
X162027000Y-94243848D01*
X162027000Y-93676152D01*
X161809753Y-93151669D01*
X161408331Y-92750247D01*
X161262881Y-92690000D01*
X161408331Y-92629753D01*
X161809753Y-92228331D01*
X162027000Y-91703848D01*
X162027000Y-91136152D01*
X161809753Y-90611669D01*
X161408331Y-90210247D01*
X161262881Y-90150000D01*
X161408331Y-90089753D01*
X161809753Y-89688331D01*
X162027000Y-89163848D01*
X162027000Y-88596152D01*
X161809753Y-88071669D01*
X161408331Y-87670247D01*
X161262881Y-87610000D01*
X161408331Y-87549753D01*
X161809753Y-87148331D01*
X162027000Y-86623848D01*
X162027000Y-86056152D01*
X161809753Y-85531669D01*
X161408331Y-85130247D01*
X161262881Y-85070000D01*
X161408331Y-85009753D01*
X161809753Y-84608331D01*
X162027000Y-84083848D01*
X162027000Y-83516152D01*
X161809753Y-82991669D01*
X161408331Y-82590247D01*
X161262881Y-82530000D01*
X161408331Y-82469753D01*
X161809753Y-82068331D01*
X162027000Y-81543848D01*
X162027000Y-80976152D01*
X161993312Y-80894821D01*
X163563441Y-79324692D01*
X163624136Y-79284137D01*
X163664692Y-79223441D01*
X163664694Y-79223439D01*
X163784818Y-79043661D01*
X163792737Y-79003848D01*
X163827000Y-78831599D01*
X163827000Y-78831595D01*
X163841241Y-78760000D01*
X163827000Y-78688405D01*
X163827000Y-71743562D01*
X171229100Y-71743562D01*
X171229100Y-72746438D01*
X171612884Y-73672975D01*
X172322025Y-74382116D01*
X173248562Y-74765900D01*
X174251438Y-74765900D01*
X175177975Y-74382116D01*
X175887116Y-73672975D01*
X176270900Y-72746438D01*
X176270900Y-71743562D01*
X175887116Y-70817025D01*
X175177975Y-70107884D01*
X174251438Y-69724100D01*
X173248562Y-69724100D01*
X172322025Y-70107884D01*
X171612884Y-70817025D01*
X171229100Y-71743562D01*
X163827000Y-71743562D01*
X163827000Y-69690963D01*
X170133642Y-69690963D01*
X170249806Y-69972658D01*
X170911333Y-70223062D01*
X171618329Y-70201249D01*
X172170194Y-69972658D01*
X172286358Y-69690963D01*
X171210000Y-68614605D01*
X170133642Y-69690963D01*
X163827000Y-69690963D01*
X163827000Y-68136333D01*
X169421938Y-68136333D01*
X169443751Y-68843329D01*
X169672342Y-69395194D01*
X169954037Y-69511358D01*
X171030395Y-68435000D01*
X169954037Y-67358642D01*
X169672342Y-67474806D01*
X169421938Y-68136333D01*
X163827000Y-68136333D01*
X163827000Y-67179037D01*
X170133642Y-67179037D01*
X171210000Y-68255395D01*
X171224143Y-68241253D01*
X171403748Y-68420858D01*
X171389605Y-68435000D01*
X172465963Y-69511358D01*
X172747658Y-69395194D01*
X172998062Y-68733667D01*
X172985914Y-68339934D01*
X173475919Y-68542900D01*
X174024081Y-68542900D01*
X174530518Y-68333128D01*
X174918128Y-67945518D01*
X175127900Y-67439081D01*
X175127900Y-66890919D01*
X174918128Y-66384482D01*
X174530518Y-65996872D01*
X174024081Y-65787100D01*
X173475919Y-65787100D01*
X172969482Y-65996872D01*
X172581872Y-66384482D01*
X172372100Y-66890919D01*
X172372100Y-67093292D01*
X172286357Y-67179035D01*
X172170194Y-66897342D01*
X171508667Y-66646938D01*
X170801671Y-66668751D01*
X170249806Y-66897342D01*
X170133642Y-67179037D01*
X163827000Y-67179037D01*
X163827000Y-65921132D01*
X164901133Y-64847000D01*
X173778405Y-64847000D01*
X173850000Y-64861241D01*
X173921595Y-64847000D01*
X173921599Y-64847000D01*
X174133661Y-64804818D01*
X174374137Y-64644137D01*
X174414696Y-64583436D01*
X177780442Y-61217691D01*
X177783602Y-61219000D01*
X178296398Y-61219000D01*
X178770160Y-61022761D01*
X178882708Y-60910213D01*
X179779392Y-60910213D01*
X179848857Y-61152397D01*
X180372302Y-61339144D01*
X180927368Y-61311362D01*
X181311143Y-61152397D01*
X181380608Y-60910213D01*
X180580000Y-60109605D01*
X179779392Y-60910213D01*
X178882708Y-60910213D01*
X179132761Y-60660160D01*
X179244978Y-60389244D01*
X179357603Y-60661143D01*
X179599787Y-60730608D01*
X180400395Y-59930000D01*
X180759605Y-59930000D01*
X181560213Y-60730608D01*
X181802397Y-60661143D01*
X181989144Y-60137698D01*
X181961362Y-59582632D01*
X181802397Y-59198857D01*
X181560213Y-59129392D01*
X180759605Y-59930000D01*
X180400395Y-59930000D01*
X179599787Y-59129392D01*
X179357603Y-59198857D01*
X179253371Y-59491017D01*
X179132761Y-59199840D01*
X178882708Y-58949787D01*
X179779392Y-58949787D01*
X180580000Y-59750395D01*
X181380608Y-58949787D01*
X181311143Y-58707603D01*
X180787698Y-58520856D01*
X180232632Y-58548638D01*
X179848857Y-58707603D01*
X179779392Y-58949787D01*
X178882708Y-58949787D01*
X178770160Y-58837239D01*
X178296398Y-58641000D01*
X177783602Y-58641000D01*
X177309840Y-58837239D01*
X176947239Y-59199840D01*
X176770000Y-59627732D01*
X176592761Y-59199840D01*
X176230160Y-58837239D01*
X175756398Y-58641000D01*
X175243602Y-58641000D01*
X174769840Y-58837239D01*
X174407239Y-59199840D01*
X174211000Y-59673602D01*
X174211000Y-60186398D01*
X174407239Y-60660160D01*
X174769840Y-61022761D01*
X175243602Y-61219000D01*
X175722867Y-61219000D01*
X173548868Y-63393000D01*
X164865132Y-63393000D01*
X170904821Y-57353312D01*
X170986152Y-57387000D01*
X171553848Y-57387000D01*
X172078331Y-57169753D01*
X172479753Y-56768331D01*
X172540000Y-56622881D01*
X172600247Y-56768331D01*
X173001669Y-57169753D01*
X173526152Y-57387000D01*
X174093848Y-57387000D01*
X174618331Y-57169753D01*
X175019753Y-56768331D01*
X175237000Y-56243848D01*
X175237000Y-55676152D01*
X175019753Y-55151669D01*
X174618331Y-54750247D01*
X174093848Y-54533000D01*
X173526152Y-54533000D01*
X173001669Y-54750247D01*
X172600247Y-55151669D01*
X172540000Y-55297119D01*
X172479753Y-55151669D01*
X172078331Y-54750247D01*
X171553848Y-54533000D01*
X170986152Y-54533000D01*
X170461669Y-54750247D01*
X170066210Y-55145706D01*
X169810159Y-55059446D01*
X168909605Y-55960000D01*
X168923748Y-55974143D01*
X168744143Y-56153748D01*
X168730000Y-56139605D01*
X167829446Y-57040159D01*
X167915852Y-57296643D01*
X168489336Y-57506458D01*
X168704441Y-57497426D01*
X163668868Y-62533000D01*
X161721267Y-62533000D01*
X161826423Y-62375625D01*
X161867324Y-62170000D01*
X161867324Y-61270000D01*
X161826423Y-61064375D01*
X161807000Y-61035307D01*
X161807000Y-60643751D01*
X161923145Y-60566145D01*
X162039623Y-60391825D01*
X162080524Y-60186200D01*
X162080524Y-59271800D01*
X162039623Y-59066175D01*
X161923145Y-58891855D01*
X161845539Y-58840000D01*
X161923145Y-58788145D01*
X161996742Y-58678000D01*
X163117405Y-58678000D01*
X163189000Y-58692241D01*
X163260595Y-58678000D01*
X163260599Y-58678000D01*
X163472661Y-58635818D01*
X163713137Y-58475137D01*
X163753696Y-58414436D01*
X166448796Y-55719336D01*
X167183542Y-55719336D01*
X167209161Y-56329460D01*
X167393357Y-56774148D01*
X167649841Y-56860554D01*
X168550395Y-55960000D01*
X167649841Y-55059446D01*
X167393357Y-55145852D01*
X167183542Y-55719336D01*
X166448796Y-55719336D01*
X167288291Y-54879841D01*
X167829446Y-54879841D01*
X168730000Y-55780395D01*
X169630554Y-54879841D01*
X169544148Y-54623357D01*
X168970664Y-54413542D01*
X168360540Y-54439161D01*
X167915852Y-54623357D01*
X167829446Y-54879841D01*
X167288291Y-54879841D01*
X167691358Y-54476775D01*
X167716043Y-54487000D01*
X168243957Y-54487000D01*
X168731685Y-54284976D01*
X169104976Y-53911685D01*
X169307000Y-53423957D01*
X169307000Y-52896043D01*
X173653000Y-52896043D01*
X173653000Y-53423957D01*
X173855024Y-53911685D01*
X174228315Y-54284976D01*
X174716043Y-54487000D01*
X175243957Y-54487000D01*
X175434275Y-54408168D01*
X175499999Y-54421241D01*
X175783660Y-54364818D01*
X176024137Y-54204137D01*
X176184818Y-53963660D01*
X176241241Y-53679999D01*
X176228168Y-53614275D01*
X176307000Y-53423957D01*
X176307000Y-52896043D01*
X176183052Y-52596805D01*
X179973000Y-52596805D01*
X179973000Y-53403195D01*
X180281593Y-54148203D01*
X180851797Y-54718407D01*
X181596805Y-55027000D01*
X182403195Y-55027000D01*
X183148203Y-54718407D01*
X183718407Y-54148203D01*
X184027000Y-53403195D01*
X184027000Y-52596805D01*
X183718407Y-51851797D01*
X183148203Y-51281593D01*
X182403195Y-50973000D01*
X181596805Y-50973000D01*
X180851797Y-51281593D01*
X180281593Y-51851797D01*
X179973000Y-52596805D01*
X176183052Y-52596805D01*
X176104976Y-52408315D01*
X175731685Y-52035024D01*
X175243957Y-51833000D01*
X174716043Y-51833000D01*
X174228315Y-52035024D01*
X173855024Y-52408315D01*
X173653000Y-52896043D01*
X169307000Y-52896043D01*
X169104976Y-52408315D01*
X168731685Y-52035024D01*
X168243957Y-51833000D01*
X167716043Y-51833000D01*
X167228315Y-52035024D01*
X166855024Y-52408315D01*
X166653000Y-52896043D01*
X166653000Y-53423957D01*
X166663225Y-53448642D01*
X162887868Y-57224000D01*
X161996742Y-57224000D01*
X161923145Y-57113855D01*
X161748825Y-56997377D01*
X161543200Y-56956476D01*
X160628800Y-56956476D01*
X160423175Y-56997377D01*
X160248855Y-57113855D01*
X160132377Y-57288175D01*
X160091476Y-57493800D01*
X160091476Y-58408200D01*
X160132377Y-58613825D01*
X160248855Y-58788145D01*
X160326461Y-58840000D01*
X160248855Y-58891855D01*
X160132377Y-59066175D01*
X160091476Y-59271800D01*
X160091476Y-60186200D01*
X160132377Y-60391825D01*
X160248855Y-60566145D01*
X160353001Y-60635733D01*
X160353000Y-61035306D01*
X160333577Y-61064375D01*
X160330000Y-61082358D01*
X160326423Y-61064375D01*
X160209945Y-60890055D01*
X160035625Y-60773577D01*
X159830000Y-60732676D01*
X159330000Y-60732676D01*
X159124375Y-60773577D01*
X158950055Y-60890055D01*
X158881269Y-60993000D01*
X150691595Y-60993000D01*
X150620000Y-60978759D01*
X150548405Y-60993000D01*
X150548401Y-60993000D01*
X150336339Y-61035182D01*
X150095863Y-61195863D01*
X150055306Y-61256561D01*
X147226562Y-64085306D01*
X147165863Y-64125864D01*
X147005182Y-64366340D01*
X146963000Y-64578402D01*
X146963000Y-64578405D01*
X146948759Y-64650000D01*
X146963000Y-64721595D01*
X146963001Y-86248865D01*
X146787000Y-86424866D01*
X146787000Y-86056152D01*
X146569753Y-85531669D01*
X146168331Y-85130247D01*
X146022881Y-85070000D01*
X146168331Y-85009753D01*
X146569753Y-84608331D01*
X146787000Y-84083848D01*
X146787000Y-83516152D01*
X146569753Y-82991669D01*
X146168331Y-82590247D01*
X146022881Y-82530000D01*
X146168331Y-82469753D01*
X146569753Y-82068331D01*
X146787000Y-81543848D01*
X146787000Y-80976152D01*
X146569753Y-80451669D01*
X146168331Y-80050247D01*
X146022881Y-79990000D01*
X146168331Y-79929753D01*
X146569753Y-79528331D01*
X146787000Y-79003848D01*
X146787000Y-78436152D01*
X146569753Y-77911669D01*
X146168331Y-77510247D01*
X146022881Y-77450000D01*
X146168331Y-77389753D01*
X146569753Y-76988331D01*
X146787000Y-76463848D01*
X146787000Y-75896152D01*
X146569753Y-75371669D01*
X146168331Y-74970247D01*
X146022881Y-74910000D01*
X146168331Y-74849753D01*
X146569753Y-74448331D01*
X146787000Y-73923848D01*
X146787000Y-73356152D01*
X146569753Y-72831669D01*
X146168331Y-72430247D01*
X146022881Y-72370000D01*
X146168331Y-72309753D01*
X146569753Y-71908331D01*
X146787000Y-71383848D01*
X146787000Y-70816152D01*
X146569753Y-70291669D01*
X146168331Y-69890247D01*
X146022881Y-69830000D01*
X146168331Y-69769753D01*
X146569753Y-69368331D01*
X146787000Y-68843848D01*
X146787000Y-68276152D01*
X146569753Y-67751669D01*
X146168331Y-67350247D01*
X146022881Y-67290000D01*
X146168331Y-67229753D01*
X146569753Y-66828331D01*
X146787000Y-66303848D01*
X146787000Y-65736152D01*
X146569753Y-65211669D01*
X146168331Y-64810247D01*
X145643848Y-64593000D01*
X145076152Y-64593000D01*
X144551669Y-64810247D01*
X144268916Y-65093000D01*
X141896703Y-65093000D01*
X141852762Y-65027238D01*
X141397279Y-64722894D01*
X140995623Y-64643000D01*
X140724377Y-64643000D01*
X140322721Y-64722894D01*
X139867238Y-65027238D01*
X139562894Y-65482721D01*
X139456023Y-66020000D01*
X139562894Y-66557279D01*
X139867238Y-67012762D01*
X140282154Y-67290000D01*
X139867238Y-67567238D01*
X139562894Y-68022721D01*
X139456023Y-68560000D01*
X139562894Y-69097279D01*
X139867238Y-69552762D01*
X140282154Y-69830000D01*
X139867238Y-70107238D01*
X139562894Y-70562721D01*
X139456023Y-71100000D01*
X139562894Y-71637279D01*
X139867238Y-72092762D01*
X140282154Y-72370000D01*
X139867238Y-72647238D01*
X139562894Y-73102721D01*
X139456023Y-73640000D01*
X139562894Y-74177279D01*
X139867238Y-74632762D01*
X140106566Y-74792676D01*
X140010000Y-74792676D01*
X139804375Y-74833577D01*
X139630055Y-74950055D01*
X139513577Y-75124375D01*
X139472676Y-75330000D01*
X139472676Y-77030000D01*
X139513577Y-77235625D01*
X139630055Y-77409945D01*
X139804375Y-77526423D01*
X140010000Y-77567324D01*
X141710000Y-77567324D01*
X141915625Y-77526423D01*
X142089945Y-77409945D01*
X142206423Y-77235625D01*
X142232008Y-77107000D01*
X144268916Y-77107000D01*
X144551669Y-77389753D01*
X144697119Y-77450000D01*
X144551669Y-77510247D01*
X144168916Y-77893000D01*
X142161442Y-77893000D01*
X142079999Y-77876800D01*
X141998556Y-77893000D01*
X141998552Y-77893000D01*
X141757321Y-77940984D01*
X141483767Y-78123767D01*
X141437630Y-78192817D01*
X140442819Y-79187628D01*
X140373767Y-79233767D01*
X140190984Y-79507322D01*
X140143000Y-79748553D01*
X140143000Y-79748556D01*
X140126800Y-79830000D01*
X140139267Y-79892676D01*
X140120000Y-79892676D01*
X139914375Y-79933577D01*
X139740055Y-80050055D01*
X139623577Y-80224375D01*
X139582676Y-80430000D01*
X139582676Y-82130000D01*
X139623577Y-82335625D01*
X139740055Y-82509945D01*
X139914375Y-82626423D01*
X140120000Y-82667324D01*
X140216566Y-82667324D01*
X139977238Y-82827238D01*
X139672894Y-83282721D01*
X139566023Y-83820000D01*
X139672894Y-84357279D01*
X139977238Y-84812762D01*
X140432721Y-85117106D01*
X140834377Y-85197000D01*
X141105623Y-85197000D01*
X141507279Y-85117106D01*
X141962762Y-84812762D01*
X142073521Y-84647000D01*
X142090637Y-84647000D01*
X142172081Y-84663200D01*
X142253525Y-84647000D01*
X142253529Y-84647000D01*
X142494760Y-84599016D01*
X142768314Y-84416233D01*
X142814453Y-84347181D01*
X143437183Y-83724452D01*
X143506233Y-83678314D01*
X143689016Y-83404760D01*
X143737000Y-83163529D01*
X143737000Y-83163525D01*
X143753200Y-83082082D01*
X143737000Y-83000639D01*
X143737000Y-82779761D01*
X144299339Y-82217423D01*
X144551669Y-82469753D01*
X144697119Y-82530000D01*
X144551669Y-82590247D01*
X144150247Y-82991669D01*
X143933000Y-83516152D01*
X143933000Y-84083848D01*
X144150247Y-84608331D01*
X144551669Y-85009753D01*
X144697119Y-85070000D01*
X144551669Y-85130247D01*
X144150247Y-85531669D01*
X143933000Y-86056152D01*
X143933000Y-86623848D01*
X144150247Y-87148331D01*
X144551669Y-87549753D01*
X144697119Y-87610000D01*
X144551669Y-87670247D01*
X144150247Y-88071669D01*
X143933000Y-88596152D01*
X143933000Y-89163848D01*
X144150247Y-89688331D01*
X144551669Y-90089753D01*
X144697119Y-90150000D01*
X144551669Y-90210247D01*
X144150247Y-90611669D01*
X143933000Y-91136152D01*
X143933000Y-91703848D01*
X144150247Y-92228331D01*
X144551669Y-92629753D01*
X144697119Y-92690000D01*
X144551669Y-92750247D01*
X144150247Y-93151669D01*
X143933000Y-93676152D01*
X143933000Y-94243848D01*
X144150247Y-94768331D01*
X144551669Y-95169753D01*
X144697119Y-95230000D01*
X144551669Y-95290247D01*
X144150247Y-95691669D01*
X143933000Y-96216152D01*
X143933000Y-96584867D01*
X136567000Y-89218868D01*
X136567000Y-89135608D01*
X136425873Y-88794897D01*
X136367000Y-88736024D01*
X136367000Y-72171595D01*
X136381241Y-72100000D01*
X136367000Y-72028405D01*
X136367000Y-72028401D01*
X136324818Y-71816339D01*
X136306175Y-71788438D01*
X136204695Y-71636561D01*
X136204690Y-71636556D01*
X136164136Y-71575863D01*
X136103443Y-71535309D01*
X135429696Y-70861564D01*
X135389137Y-70800863D01*
X135148661Y-70640182D01*
X134936599Y-70598000D01*
X134936595Y-70598000D01*
X134865000Y-70583759D01*
X134793405Y-70598000D01*
X134287044Y-70598000D01*
X134287044Y-70512500D01*
X134246143Y-70306875D01*
X134217000Y-70263260D01*
X134217000Y-69025608D01*
X136363000Y-69025608D01*
X136363000Y-69394392D01*
X136504127Y-69735103D01*
X136764897Y-69995873D01*
X137105608Y-70137000D01*
X137474392Y-70137000D01*
X137815103Y-69995873D01*
X138075873Y-69735103D01*
X138217000Y-69394392D01*
X138217000Y-69025608D01*
X138075873Y-68684897D01*
X137815103Y-68424127D01*
X137474392Y-68283000D01*
X137105608Y-68283000D01*
X136764897Y-68424127D01*
X136504127Y-68684897D01*
X136363000Y-69025608D01*
X134217000Y-69025608D01*
X134217000Y-66023976D01*
X134275873Y-65965103D01*
X134417000Y-65624392D01*
X134417000Y-65255608D01*
X134275873Y-64914897D01*
X134015103Y-64654127D01*
X133902761Y-64607593D01*
X134099986Y-64410368D01*
X136363000Y-64410368D01*
X136363000Y-64779152D01*
X136504127Y-65119863D01*
X136764897Y-65380633D01*
X137105608Y-65521760D01*
X137474392Y-65521760D01*
X137815103Y-65380633D01*
X138075873Y-65119863D01*
X138217000Y-64779152D01*
X138217000Y-64410368D01*
X138075873Y-64069657D01*
X137815103Y-63808887D01*
X137474392Y-63667760D01*
X137105608Y-63667760D01*
X136764897Y-63808887D01*
X136504127Y-64069657D01*
X136363000Y-64410368D01*
X134099986Y-64410368D01*
X137570354Y-60940000D01*
X139456023Y-60940000D01*
X139562894Y-61477279D01*
X139867238Y-61932762D01*
X140322721Y-62237106D01*
X140724377Y-62317000D01*
X140995623Y-62317000D01*
X141397279Y-62237106D01*
X141852762Y-61932762D01*
X142157106Y-61477279D01*
X142263977Y-60940000D01*
X142157106Y-60402721D01*
X141852762Y-59947238D01*
X141397279Y-59642894D01*
X140995623Y-59563000D01*
X140724377Y-59563000D01*
X140322721Y-59642894D01*
X139867238Y-59947238D01*
X139562894Y-60402721D01*
X139456023Y-60940000D01*
X137570354Y-60940000D01*
X142563442Y-55946913D01*
X142624137Y-55906358D01*
X142664693Y-55845662D01*
X142664695Y-55845660D01*
X142710759Y-55776720D01*
X142784819Y-55665882D01*
X142827001Y-55453820D01*
X142827001Y-55453816D01*
X142841242Y-55382222D01*
X142827001Y-55310628D01*
X142827001Y-54687000D01*
X143403739Y-54687000D01*
X143964976Y-54454528D01*
X144106972Y-54312532D01*
X162127073Y-54312532D01*
X162225736Y-54579387D01*
X162835461Y-54805908D01*
X163485460Y-54781856D01*
X163974264Y-54579387D01*
X164072927Y-54312532D01*
X163100000Y-53339605D01*
X162127073Y-54312532D01*
X144106972Y-54312532D01*
X144394528Y-54024976D01*
X144627000Y-53463739D01*
X144627000Y-52895461D01*
X161454092Y-52895461D01*
X161478144Y-53545460D01*
X161680613Y-54034264D01*
X161947468Y-54132927D01*
X162920395Y-53160000D01*
X163279605Y-53160000D01*
X164252532Y-54132927D01*
X164519387Y-54034264D01*
X164745908Y-53424539D01*
X164721856Y-52774540D01*
X164519387Y-52285736D01*
X164252532Y-52187073D01*
X163279605Y-53160000D01*
X162920395Y-53160000D01*
X161947468Y-52187073D01*
X161680613Y-52285736D01*
X161454092Y-52895461D01*
X144627000Y-52895461D01*
X144627000Y-52856261D01*
X144394528Y-52295024D01*
X144106972Y-52007468D01*
X162127073Y-52007468D01*
X163100000Y-52980395D01*
X164072927Y-52007468D01*
X163974264Y-51740613D01*
X163364539Y-51514092D01*
X162714540Y-51538144D01*
X162225736Y-51740613D01*
X162127073Y-52007468D01*
X144106972Y-52007468D01*
X143964976Y-51865472D01*
X143403739Y-51633000D01*
X142796261Y-51633000D01*
X142235024Y-51865472D01*
X141805472Y-52295024D01*
X141573000Y-52856261D01*
X141573000Y-53463739D01*
X141629462Y-53600050D01*
X141575865Y-53635862D01*
X141535308Y-53696560D01*
X141535307Y-53696561D01*
X141415183Y-53876339D01*
X141358760Y-54159999D01*
X141373002Y-54231598D01*
X141373001Y-55081088D01*
X134287044Y-62167046D01*
X134287044Y-61387500D01*
X134246143Y-61181875D01*
X134129665Y-61007555D01*
X133955345Y-60891077D01*
X133749720Y-60850176D01*
X133150280Y-60850176D01*
X132944655Y-60891077D01*
X132907000Y-60916238D01*
X132907000Y-59901132D01*
X132924472Y-59883660D01*
X133581133Y-59227000D01*
X133664392Y-59227000D01*
X134005103Y-59085873D01*
X134265873Y-58825103D01*
X134407000Y-58484392D01*
X134407000Y-58115608D01*
X134265873Y-57774897D01*
X134005103Y-57514127D01*
X133664392Y-57373000D01*
X133295608Y-57373000D01*
X132954897Y-57514127D01*
X132694127Y-57774897D01*
X132553000Y-58115608D01*
X132553000Y-58198867D01*
X131963723Y-58788145D01*
X131722696Y-59029172D01*
X131719945Y-59025055D01*
X131545625Y-58908577D01*
X131340000Y-58867676D01*
X130540000Y-58867676D01*
X130334375Y-58908577D01*
X130160055Y-59025055D01*
X130043577Y-59199375D01*
X130002676Y-59405000D01*
X130002676Y-60155000D01*
X130043577Y-60360625D01*
X130160055Y-60534945D01*
X130334375Y-60651423D01*
X130540000Y-60692324D01*
X131340000Y-60692324D01*
X131453001Y-60669847D01*
X131453000Y-60916238D01*
X131415345Y-60891077D01*
X131209720Y-60850176D01*
X130610280Y-60850176D01*
X130404655Y-60891077D01*
X130275000Y-60977711D01*
X130145345Y-60891077D01*
X129939720Y-60850176D01*
X129340280Y-60850176D01*
X129134655Y-60891077D01*
X128960335Y-61007555D01*
X128843857Y-61181875D01*
X128802956Y-61387500D01*
X128802956Y-63012500D01*
X128824936Y-63123000D01*
X122871593Y-63123000D01*
X122799999Y-63108759D01*
X122728405Y-63123000D01*
X122728401Y-63123000D01*
X122516339Y-63165182D01*
X122275863Y-63325863D01*
X122235305Y-63386562D01*
X120926562Y-64695306D01*
X120865863Y-64735864D01*
X120705182Y-64976340D01*
X120676074Y-65122676D01*
X120540000Y-65122676D01*
X120334375Y-65163577D01*
X120160055Y-65280055D01*
X120043577Y-65454375D01*
X120002676Y-65660000D01*
X120002676Y-67360000D01*
X120043577Y-67565625D01*
X120160055Y-67739945D01*
X120334375Y-67856423D01*
X120540000Y-67897324D01*
X122240000Y-67897324D01*
X122445625Y-67856423D01*
X122619945Y-67739945D01*
X122736423Y-67565625D01*
X122777324Y-67360000D01*
X122777324Y-65660000D01*
X122736423Y-65454375D01*
X122619945Y-65280055D01*
X122486946Y-65191187D01*
X123101133Y-64577000D01*
X130880865Y-64577000D01*
X130446562Y-65011304D01*
X130385864Y-65051861D01*
X130345307Y-65112559D01*
X130345306Y-65112560D01*
X130225182Y-65292338D01*
X130168759Y-65575998D01*
X130183001Y-65647598D01*
X130183000Y-70203396D01*
X130113857Y-70306875D01*
X130072956Y-70512500D01*
X130072956Y-72137500D01*
X130113857Y-72343125D01*
X130230335Y-72517445D01*
X130404655Y-72633923D01*
X130610280Y-72674824D01*
X131209720Y-72674824D01*
X131415345Y-72633923D01*
X131453000Y-72608762D01*
X131453001Y-74208402D01*
X131438759Y-74280002D01*
X131495182Y-74563662D01*
X131606326Y-74730000D01*
X131655864Y-74804139D01*
X131716562Y-74844696D01*
X132315304Y-75443439D01*
X132355862Y-75504138D01*
X132596338Y-75664819D01*
X132753738Y-75696128D01*
X132765182Y-75753660D01*
X132925863Y-75994136D01*
X132986562Y-76034694D01*
X134043001Y-77091134D01*
X134043000Y-89234868D01*
X132264734Y-87456602D01*
X132224175Y-87395901D01*
X131983699Y-87235220D01*
X131771637Y-87193038D01*
X131771633Y-87193038D01*
X131700038Y-87178797D01*
X131628443Y-87193038D01*
X128381903Y-87193038D01*
X128330000Y-87182714D01*
X126349697Y-87182714D01*
X126330000Y-87178796D01*
X126310303Y-87182714D01*
X124330000Y-87182714D01*
X124124375Y-87223615D01*
X123950055Y-87340093D01*
X123833577Y-87514413D01*
X123792676Y-87720038D01*
X123792676Y-88120038D01*
X123822512Y-88270037D01*
X123792676Y-88420036D01*
X123792676Y-88820036D01*
X123822512Y-88970035D01*
X123792676Y-89120034D01*
X123792676Y-89520034D01*
X123833577Y-89725659D01*
X123950055Y-89899979D01*
X124124375Y-90016457D01*
X124330000Y-90057358D01*
X128116382Y-90057358D01*
X128174897Y-90115873D01*
X128515608Y-90257000D01*
X128884392Y-90257000D01*
X129225103Y-90115873D01*
X129485873Y-89855103D01*
X129627000Y-89514392D01*
X129627000Y-89145608D01*
X129485873Y-88804897D01*
X129328014Y-88647038D01*
X131398906Y-88647038D01*
X134144893Y-91393026D01*
X128381903Y-91393026D01*
X128330000Y-91382702D01*
X124330000Y-91382702D01*
X124124375Y-91423603D01*
X123950055Y-91540081D01*
X123833577Y-91714401D01*
X123792676Y-91920026D01*
X123792676Y-92320026D01*
X123833577Y-92525651D01*
X123950055Y-92699971D01*
X124124375Y-92816449D01*
X124330000Y-92857350D01*
X128330000Y-92857350D01*
X128381903Y-92847026D01*
X134088894Y-92847026D01*
X137853000Y-96611133D01*
X137853000Y-96694392D01*
X137994127Y-97035103D01*
X138254897Y-97295873D01*
X138595608Y-97437000D01*
X138964392Y-97437000D01*
X139305103Y-97295873D01*
X139565873Y-97035103D01*
X139630631Y-96878764D01*
X143966688Y-101214822D01*
X143933000Y-101296152D01*
X143933000Y-101863848D01*
X144150247Y-102388331D01*
X144551669Y-102789753D01*
X144697119Y-102850000D01*
X144551669Y-102910247D01*
X144150247Y-103311669D01*
X143933000Y-103836152D01*
X143933000Y-104403848D01*
X144150247Y-104928331D01*
X144551669Y-105329753D01*
X144697119Y-105390000D01*
X144551669Y-105450247D01*
X144150247Y-105851669D01*
X143933000Y-106376152D01*
X143933000Y-106943848D01*
X144150247Y-107468331D01*
X144551669Y-107869753D01*
X144697119Y-107930000D01*
X144551669Y-107990247D01*
X144268916Y-108273000D01*
X142841301Y-108273000D01*
X142750000Y-108254839D01*
X142658699Y-108273000D01*
X142658698Y-108273000D01*
X142388303Y-108326785D01*
X142081670Y-108531670D01*
X142029951Y-108609073D01*
X141089075Y-109549950D01*
X141089072Y-109549952D01*
X139966349Y-110672676D01*
X139763652Y-110672676D01*
X138157324Y-109066349D01*
X138157324Y-109035000D01*
X138116423Y-108829375D01*
X137999945Y-108655055D01*
X137825625Y-108538577D01*
X137620000Y-108497676D01*
X137385082Y-108497676D01*
X137220000Y-108464839D01*
X137054917Y-108497676D01*
X136820000Y-108497676D01*
X136614375Y-108538577D01*
X136440055Y-108655055D01*
X136323577Y-108829375D01*
X136282676Y-109035000D01*
X136282676Y-109400601D01*
X136274839Y-109440000D01*
X136282676Y-109479399D01*
X136282676Y-109785000D01*
X136323577Y-109990625D01*
X136440055Y-110164945D01*
X136614375Y-110281423D01*
X136784235Y-110315210D01*
X138202676Y-111733652D01*
X138202676Y-112710000D01*
X138243577Y-112915625D01*
X138360055Y-113089945D01*
X138390069Y-113110000D01*
X138360055Y-113130055D01*
X138291269Y-113233000D01*
X134977324Y-113233000D01*
X134977324Y-112360000D01*
X134936423Y-112154375D01*
X134819945Y-111980055D01*
X134645625Y-111863577D01*
X134440000Y-111822676D01*
X132440000Y-111822676D01*
X132234375Y-111863577D01*
X132060055Y-111980055D01*
X131944496Y-112153000D01*
X131677000Y-112153000D01*
X131677000Y-111734523D01*
X131746423Y-111630625D01*
X131787324Y-111425000D01*
X131787324Y-110675000D01*
X131746423Y-110469375D01*
X131629945Y-110295055D01*
X131455625Y-110178577D01*
X131250000Y-110137676D01*
X130450000Y-110137676D01*
X130244375Y-110178577D01*
X130070055Y-110295055D01*
X129953577Y-110469375D01*
X129912676Y-110675000D01*
X129912676Y-111425000D01*
X129953577Y-111630625D01*
X130023000Y-111734523D01*
X130023001Y-112259389D01*
X129949945Y-112150055D01*
X129775625Y-112033577D01*
X129570000Y-111992676D01*
X129070000Y-111992676D01*
X128864375Y-112033577D01*
X128690055Y-112150055D01*
X128573577Y-112324375D01*
X128532676Y-112530000D01*
X128532676Y-113430000D01*
X128573001Y-113632728D01*
X128573000Y-114345306D01*
X128553577Y-114374375D01*
X128512676Y-114580000D01*
X128512676Y-115480000D01*
X128553577Y-115685625D01*
X128670055Y-115859945D01*
X128844375Y-115976423D01*
X129050000Y-116017324D01*
X129550000Y-116017324D01*
X129755625Y-115976423D01*
X129929945Y-115859945D01*
X130046423Y-115685625D01*
X130087324Y-115480000D01*
X130087324Y-114580000D01*
X130046423Y-114374375D01*
X130027000Y-114345307D01*
X130027000Y-113694625D01*
X130066423Y-113635625D01*
X130070000Y-113617642D01*
X130073577Y-113635625D01*
X130190055Y-113809945D01*
X130364375Y-113926423D01*
X130570000Y-113967324D01*
X131070000Y-113967324D01*
X131275625Y-113926423D01*
X131449945Y-113809945D01*
X131451913Y-113807000D01*
X131817447Y-113807000D01*
X131902676Y-113892230D01*
X131902676Y-116160000D01*
X131943577Y-116365625D01*
X132060055Y-116539945D01*
X132234375Y-116656423D01*
X132440000Y-116697324D01*
X134440000Y-116697324D01*
X134645625Y-116656423D01*
X134819945Y-116539945D01*
X134936423Y-116365625D01*
X134977324Y-116160000D01*
X134977324Y-115287000D01*
X138291269Y-115287000D01*
X138360055Y-115389945D01*
X138534375Y-115506423D01*
X138740000Y-115547324D01*
X140740000Y-115547324D01*
X140945625Y-115506423D01*
X141119945Y-115389945D01*
X141236423Y-115215625D01*
X141242117Y-115187000D01*
X144248916Y-115187000D01*
X144551669Y-115489753D01*
X145076152Y-115707000D01*
X145643848Y-115707000D01*
X146168331Y-115489753D01*
X146569753Y-115088331D01*
X146787000Y-114563848D01*
X146787000Y-113996152D01*
X146569753Y-113471669D01*
X146168331Y-113070247D01*
X145643848Y-112853000D01*
X145076152Y-112853000D01*
X144551669Y-113070247D01*
X144288916Y-113333000D01*
X141242117Y-113333000D01*
X141236423Y-113304375D01*
X141119945Y-113130055D01*
X141089931Y-113110000D01*
X141119945Y-113089945D01*
X141236423Y-112915625D01*
X141277324Y-112710000D01*
X141277324Y-111983651D01*
X142400048Y-110860928D01*
X142400050Y-110860925D01*
X143133976Y-110127000D01*
X144268916Y-110127000D01*
X144551669Y-110409753D01*
X145076152Y-110627000D01*
X145643848Y-110627000D01*
X146168331Y-110409753D01*
X146279240Y-110298844D01*
X154953394Y-118973000D01*
X113602000Y-118973000D01*
X113602000Y-104726913D01*
X121843000Y-104726913D01*
X121843000Y-105573087D01*
X122166817Y-106354848D01*
X122765152Y-106953183D01*
X123546913Y-107277000D01*
X124393087Y-107277000D01*
X125174848Y-106953183D01*
X125773183Y-106354848D01*
X126097000Y-105573087D01*
X126097000Y-104726913D01*
X125773183Y-103945152D01*
X125174848Y-103346817D01*
X124393087Y-103023000D01*
X123546913Y-103023000D01*
X122765152Y-103346817D01*
X122166817Y-103945152D01*
X121843000Y-104726913D01*
X113602000Y-104726913D01*
X113602000Y-81919608D01*
X119053000Y-81919608D01*
X119053001Y-100220393D01*
X119141599Y-100665806D01*
X119479096Y-101170905D01*
X119984195Y-101508402D01*
X120580000Y-101626915D01*
X121175806Y-101508402D01*
X121680905Y-101170905D01*
X122018402Y-100665806D01*
X122107000Y-100220393D01*
X122107000Y-94020020D01*
X123792676Y-94020020D01*
X123792676Y-94420020D01*
X123833577Y-94625645D01*
X123950055Y-94799965D01*
X124124375Y-94916443D01*
X124142348Y-94920018D01*
X124124375Y-94923593D01*
X123950055Y-95040071D01*
X123833577Y-95214391D01*
X123792676Y-95420016D01*
X123792676Y-95820016D01*
X123833577Y-96025641D01*
X123950055Y-96199961D01*
X124124375Y-96316439D01*
X124142348Y-96320014D01*
X124124375Y-96323589D01*
X123950055Y-96440067D01*
X123833577Y-96614387D01*
X123792676Y-96820012D01*
X123792676Y-97220012D01*
X123822512Y-97370011D01*
X123792676Y-97520010D01*
X123792676Y-97920010D01*
X123822512Y-98070009D01*
X123792676Y-98220008D01*
X123792676Y-98620008D01*
X123822512Y-98770007D01*
X123792676Y-98920006D01*
X123792676Y-99320006D01*
X123822512Y-99470005D01*
X123792676Y-99620004D01*
X123792676Y-100020004D01*
X123822512Y-100170003D01*
X123792676Y-100320002D01*
X123792676Y-100720002D01*
X123833577Y-100925627D01*
X123950055Y-101099947D01*
X124124375Y-101216425D01*
X124330000Y-101257326D01*
X128330000Y-101257326D01*
X128381903Y-101247002D01*
X128875328Y-101247002D01*
X128991762Y-101363436D01*
X129032321Y-101424137D01*
X129272797Y-101584818D01*
X129383757Y-101606889D01*
X129567676Y-101790809D01*
X129567676Y-102100000D01*
X129608577Y-102305625D01*
X129725055Y-102479945D01*
X129899375Y-102596423D01*
X130105000Y-102637324D01*
X130855000Y-102637324D01*
X131060625Y-102596423D01*
X131234945Y-102479945D01*
X131351423Y-102305625D01*
X131392324Y-102100000D01*
X131392324Y-101300000D01*
X131351423Y-101094375D01*
X131254954Y-100950000D01*
X131350527Y-100806965D01*
X131499375Y-100906423D01*
X131705000Y-100947324D01*
X132455000Y-100947324D01*
X132660625Y-100906423D01*
X132834945Y-100789945D01*
X132951423Y-100615625D01*
X132992324Y-100410000D01*
X132992324Y-99610000D01*
X132951423Y-99404375D01*
X132854954Y-99260000D01*
X132951423Y-99115625D01*
X132992324Y-98910000D01*
X132992324Y-98110000D01*
X132951423Y-97904375D01*
X132834945Y-97730055D01*
X132660625Y-97613577D01*
X132455000Y-97572676D01*
X131705000Y-97572676D01*
X131499375Y-97613577D01*
X131448270Y-97647725D01*
X131486423Y-97590625D01*
X131527324Y-97385000D01*
X131527324Y-96635000D01*
X131486423Y-96429375D01*
X131388295Y-96282517D01*
X131476423Y-96150625D01*
X131517324Y-95945000D01*
X131517324Y-95352000D01*
X132367449Y-95352000D01*
X140863001Y-103847553D01*
X140863000Y-107124186D01*
X140763000Y-107365608D01*
X140763000Y-107734392D01*
X140904127Y-108075103D01*
X141164897Y-108335873D01*
X141505608Y-108477000D01*
X141874392Y-108477000D01*
X142215103Y-108335873D01*
X142475873Y-108075103D01*
X142617000Y-107734392D01*
X142617000Y-107365608D01*
X142517000Y-107124186D01*
X142517000Y-103586442D01*
X142533200Y-103504998D01*
X142517000Y-103423554D01*
X142517000Y-103423550D01*
X142469016Y-103182319D01*
X142286233Y-102908765D01*
X142217184Y-102862628D01*
X133352374Y-93997819D01*
X133306235Y-93928767D01*
X133032681Y-93745984D01*
X132791450Y-93698000D01*
X132791446Y-93698000D01*
X132710002Y-93681800D01*
X132628558Y-93698000D01*
X130530572Y-93698000D01*
X130529157Y-93695883D01*
X130288681Y-93535202D01*
X130076619Y-93493020D01*
X130076615Y-93493020D01*
X130005020Y-93478779D01*
X129933425Y-93493020D01*
X128381903Y-93493020D01*
X128330000Y-93482696D01*
X124330000Y-93482696D01*
X124124375Y-93523597D01*
X123950055Y-93640075D01*
X123833577Y-93814395D01*
X123792676Y-94020020D01*
X122107000Y-94020020D01*
X122107000Y-82120054D01*
X123792676Y-82120054D01*
X123792676Y-82520054D01*
X123822512Y-82670053D01*
X123792676Y-82820052D01*
X123792676Y-83220052D01*
X123822512Y-83370051D01*
X123792676Y-83520050D01*
X123792676Y-83920050D01*
X123833577Y-84125675D01*
X123950055Y-84299995D01*
X124124375Y-84416473D01*
X124330000Y-84457374D01*
X128330000Y-84457374D01*
X128381903Y-84447050D01*
X128816067Y-84447050D01*
X128853577Y-84635625D01*
X128970055Y-84809945D01*
X129144375Y-84926423D01*
X129350000Y-84967324D01*
X130250000Y-84967324D01*
X130455625Y-84926423D01*
X130629945Y-84809945D01*
X130706250Y-84695747D01*
X130865000Y-84727324D01*
X131615000Y-84727324D01*
X131820625Y-84686423D01*
X131994945Y-84569945D01*
X132111423Y-84395625D01*
X132152324Y-84190000D01*
X132152324Y-83390000D01*
X132111423Y-83184375D01*
X131994945Y-83010055D01*
X131820625Y-82893577D01*
X131615000Y-82852676D01*
X131330808Y-82852676D01*
X131034748Y-82556616D01*
X130994189Y-82495915D01*
X130753713Y-82335234D01*
X130712324Y-82327001D01*
X130712324Y-81570000D01*
X130671423Y-81364375D01*
X130554945Y-81190055D01*
X130380625Y-81073577D01*
X130175000Y-81032676D01*
X129425000Y-81032676D01*
X129219375Y-81073577D01*
X129045055Y-81190055D01*
X128928577Y-81364375D01*
X128887676Y-81570000D01*
X128887676Y-81593054D01*
X128381903Y-81593054D01*
X128330000Y-81582730D01*
X124330000Y-81582730D01*
X124124375Y-81623631D01*
X123950055Y-81740109D01*
X123833577Y-81914429D01*
X123792676Y-82120054D01*
X122107000Y-82120054D01*
X122107000Y-81919607D01*
X122018402Y-81474194D01*
X121680905Y-80969095D01*
X121175805Y-80631598D01*
X120580000Y-80513085D01*
X119984194Y-80631598D01*
X119479095Y-80969095D01*
X119141598Y-81474195D01*
X119053000Y-81919608D01*
X113602000Y-81919608D01*
X113602000Y-74726913D01*
X121843000Y-74726913D01*
X121843000Y-75573087D01*
X122166817Y-76354848D01*
X122765152Y-76953183D01*
X123546913Y-77277000D01*
X124393087Y-77277000D01*
X125174848Y-76953183D01*
X125773183Y-76354848D01*
X126097000Y-75573087D01*
X126097000Y-74726913D01*
X125773183Y-73945152D01*
X125174848Y-73346817D01*
X124393087Y-73023000D01*
X123546913Y-73023000D01*
X122765152Y-73346817D01*
X122166817Y-73945152D01*
X121843000Y-74726913D01*
X113602000Y-74726913D01*
X113602000Y-53034976D01*
X113653085Y-52596805D01*
X113973000Y-52596805D01*
X113973000Y-53403195D01*
X114281593Y-54148203D01*
X114851797Y-54718407D01*
X115596805Y-55027000D01*
X116403195Y-55027000D01*
X117148203Y-54718407D01*
X117718407Y-54148203D01*
X118027000Y-53403195D01*
X118027000Y-52596805D01*
X117718407Y-51851797D01*
X117148203Y-51281593D01*
X116403195Y-50973000D01*
X115596805Y-50973000D01*
X114851797Y-51281593D01*
X114281593Y-51851797D01*
X113973000Y-52596805D01*
X113653085Y-52596805D01*
X113670285Y-52449276D01*
X113859462Y-51928102D01*
X114163467Y-51464419D01*
X114565982Y-51083113D01*
X115045427Y-50804629D01*
X115583958Y-50641524D01*
X116026814Y-50602000D01*
X181965024Y-50602000D01*
X182550724Y-50670285D01*
X182550724Y-50670285D01*
G37*
X182550724Y-50670285D02*
X183071898Y-50859462D01*
X183535581Y-51163467D01*
X183916887Y-51565982D01*
X184195371Y-52045427D01*
X184358476Y-52583958D01*
X184398001Y-53026825D01*
X184398000Y-118973000D01*
X170985396Y-118973000D01*
X170097726Y-118085330D01*
X170040426Y-117999574D01*
X169700715Y-117772587D01*
X169401150Y-117713000D01*
X169401149Y-117713000D01*
X169300000Y-117692880D01*
X169198851Y-117713000D01*
X156598190Y-117713000D01*
X148085188Y-109200000D01*
X150344672Y-106940517D01*
X150430426Y-106883218D01*
X150657413Y-106543507D01*
X150690274Y-106378305D01*
X151265152Y-106953183D01*
X152046913Y-107277000D01*
X152893087Y-107277000D01*
X153674848Y-106953183D01*
X154273183Y-106354848D01*
X154597000Y-105573087D01*
X154597000Y-104726913D01*
X154273183Y-103945152D01*
X153674848Y-103346817D01*
X152893087Y-103023000D01*
X152046913Y-103023000D01*
X151265152Y-103346817D01*
X150717000Y-103894969D01*
X150717000Y-99755396D01*
X154124675Y-96347723D01*
X154210426Y-96290426D01*
X154373371Y-96046561D01*
X154437412Y-95950717D01*
X154437412Y-95950716D01*
X154437413Y-95950715D01*
X154497000Y-95651150D01*
X154517120Y-95550001D01*
X154497000Y-95448852D01*
X154497000Y-94951084D01*
X154679753Y-94768331D01*
X154897000Y-94243848D01*
X154897000Y-93676152D01*
X154679753Y-93151669D01*
X154278331Y-92750247D01*
X153753848Y-92533000D01*
X153186152Y-92533000D01*
X152661669Y-92750247D01*
X152260247Y-93151669D01*
X152043000Y-93676152D01*
X152043000Y-94243848D01*
X152260247Y-94768331D01*
X152443001Y-94951085D01*
X152443001Y-95124601D01*
X149035330Y-98532274D01*
X148949574Y-98589574D01*
X148722587Y-98929286D01*
X148681631Y-99135186D01*
X148642880Y-99330000D01*
X148663000Y-99431149D01*
X148663001Y-105717394D01*
X146279240Y-108101156D01*
X146168331Y-107990247D01*
X146022881Y-107930000D01*
X146168331Y-107869753D01*
X146569753Y-107468331D01*
X146787000Y-106943848D01*
X146787000Y-106376152D01*
X146569753Y-105851669D01*
X146168331Y-105450247D01*
X146022881Y-105390000D01*
X146168331Y-105329753D01*
X146569753Y-104928331D01*
X146787000Y-104403848D01*
X146787000Y-103836152D01*
X146569753Y-103311669D01*
X146168331Y-102910247D01*
X146022881Y-102850000D01*
X146168331Y-102789753D01*
X146569753Y-102388331D01*
X146787000Y-101863848D01*
X146787000Y-101296152D01*
X146569753Y-100771669D01*
X146168331Y-100370247D01*
X146022881Y-100310000D01*
X146168331Y-100249753D01*
X146569753Y-99848331D01*
X146787000Y-99323848D01*
X146787000Y-98756152D01*
X146569753Y-98231669D01*
X146168331Y-97830247D01*
X146022881Y-97770000D01*
X146168331Y-97709753D01*
X146569753Y-97308331D01*
X146787000Y-96783848D01*
X146787000Y-96216152D01*
X146569753Y-95691669D01*
X146168331Y-95290247D01*
X146022881Y-95230000D01*
X146168331Y-95169753D01*
X146569753Y-94768331D01*
X146787000Y-94243848D01*
X146787000Y-93676152D01*
X146569753Y-93151669D01*
X146168331Y-92750247D01*
X146022881Y-92690000D01*
X146168331Y-92629753D01*
X146569753Y-92228331D01*
X146787000Y-91703848D01*
X146787000Y-91136152D01*
X146569753Y-90611669D01*
X146168331Y-90210247D01*
X146022881Y-90150000D01*
X146168331Y-90089753D01*
X146569753Y-89688331D01*
X146787000Y-89163848D01*
X146787000Y-88596152D01*
X146753312Y-88514821D01*
X148153441Y-87114693D01*
X148214137Y-87074137D01*
X148254692Y-87013442D01*
X148254695Y-87013439D01*
X148374818Y-86833661D01*
X148393448Y-86740001D01*
X148417000Y-86621599D01*
X148417000Y-86621595D01*
X148431241Y-86550000D01*
X148417000Y-86478405D01*
X148417000Y-74726913D01*
X150343000Y-74726913D01*
X150343000Y-75573087D01*
X150666817Y-76354848D01*
X151265152Y-76953183D01*
X152046913Y-77277000D01*
X152893087Y-77277000D01*
X153674848Y-76953183D01*
X154273183Y-76354848D01*
X154597000Y-75573087D01*
X154597000Y-74726913D01*
X154273183Y-73945152D01*
X153674848Y-73346817D01*
X152893087Y-73023000D01*
X152046913Y-73023000D01*
X151265152Y-73346817D01*
X150666817Y-73945152D01*
X150343000Y-74726913D01*
X148417000Y-74726913D01*
X148417000Y-68319336D01*
X159053542Y-68319336D01*
X159079161Y-68929460D01*
X159263357Y-69374148D01*
X159519841Y-69460554D01*
X160420395Y-68560000D01*
X160779605Y-68560000D01*
X161680159Y-69460554D01*
X161936643Y-69374148D01*
X162146458Y-68800664D01*
X162120839Y-68190540D01*
X161936643Y-67745852D01*
X161680159Y-67659446D01*
X160779605Y-68560000D01*
X160420395Y-68560000D01*
X159519841Y-67659446D01*
X159263357Y-67745852D01*
X159053542Y-68319336D01*
X148417000Y-68319336D01*
X148417000Y-67100159D01*
X159699446Y-67100159D01*
X159763401Y-67290000D01*
X159699446Y-67479841D01*
X160600000Y-68380395D01*
X161500554Y-67479841D01*
X161436599Y-67290000D01*
X161500554Y-67100159D01*
X160600000Y-66199605D01*
X159699446Y-67100159D01*
X148417000Y-67100159D01*
X148417000Y-65779336D01*
X159053542Y-65779336D01*
X159079161Y-66389460D01*
X159263357Y-66834148D01*
X159519841Y-66920554D01*
X160420395Y-66020000D01*
X160779605Y-66020000D01*
X161680159Y-66920554D01*
X161936643Y-66834148D01*
X162146458Y-66260664D01*
X162120839Y-65650540D01*
X161936643Y-65205852D01*
X161680159Y-65119446D01*
X160779605Y-66020000D01*
X160420395Y-66020000D01*
X159519841Y-65119446D01*
X159263357Y-65205852D01*
X159053542Y-65779336D01*
X148417000Y-65779336D01*
X148417000Y-64951132D01*
X148428291Y-64939841D01*
X159699446Y-64939841D01*
X160600000Y-65840395D01*
X161500554Y-64939841D01*
X161414148Y-64683357D01*
X160840664Y-64473542D01*
X160230540Y-64499161D01*
X159785852Y-64683357D01*
X159699446Y-64939841D01*
X148428291Y-64939841D01*
X150921133Y-62447000D01*
X158881269Y-62447000D01*
X158950055Y-62549945D01*
X159124375Y-62666423D01*
X159330000Y-62707324D01*
X159339192Y-62707324D01*
X160355305Y-63723438D01*
X160395863Y-63784137D01*
X160636339Y-63944818D01*
X160848401Y-63987000D01*
X160848405Y-63987000D01*
X160919999Y-64001241D01*
X160991593Y-63987000D01*
X163704867Y-63987000D01*
X162636562Y-65055306D01*
X162575864Y-65095863D01*
X162535307Y-65156561D01*
X162535306Y-65156562D01*
X162415182Y-65336340D01*
X162358759Y-65620000D01*
X162373001Y-65691600D01*
X162373000Y-78458867D01*
X162027000Y-78804867D01*
X162027000Y-78436152D01*
X161809753Y-77911669D01*
X161408331Y-77510247D01*
X161262881Y-77450000D01*
X161408331Y-77389753D01*
X161809753Y-76988331D01*
X162027000Y-76463848D01*
X162027000Y-75896152D01*
X161809753Y-75371669D01*
X161408331Y-74970247D01*
X161262881Y-74910000D01*
X161408331Y-74849753D01*
X161809753Y-74448331D01*
X162027000Y-73923848D01*
X162027000Y-73356152D01*
X161809753Y-72831669D01*
X161408331Y-72430247D01*
X161262881Y-72370000D01*
X161408331Y-72309753D01*
X161809753Y-71908331D01*
X162027000Y-71383848D01*
X162027000Y-70816152D01*
X161809753Y-70291669D01*
X161414294Y-69896210D01*
X161500554Y-69640159D01*
X160600000Y-68739605D01*
X159699446Y-69640159D01*
X159785706Y-69896210D01*
X159390247Y-70291669D01*
X159173000Y-70816152D01*
X159173000Y-71383848D01*
X159390247Y-71908331D01*
X159791669Y-72309753D01*
X159937119Y-72370000D01*
X159791669Y-72430247D01*
X159390247Y-72831669D01*
X159173000Y-73356152D01*
X159173000Y-73923848D01*
X159390247Y-74448331D01*
X159791669Y-74849753D01*
X159937119Y-74910000D01*
X159791669Y-74970247D01*
X159390247Y-75371669D01*
X159173000Y-75896152D01*
X159173000Y-76437446D01*
X152942819Y-82667628D01*
X152873767Y-82713767D01*
X152690984Y-82987322D01*
X152643000Y-83228553D01*
X152643000Y-83228556D01*
X152626800Y-83310000D01*
X152643000Y-83391444D01*
X152643001Y-85148915D01*
X152260247Y-85531669D01*
X152043000Y-86056152D01*
X152043000Y-86623848D01*
X152260247Y-87148331D01*
X152661669Y-87549753D01*
X152807119Y-87610000D01*
X152661669Y-87670247D01*
X152260247Y-88071669D01*
X152043000Y-88596152D01*
X152043000Y-89163848D01*
X152260247Y-89688331D01*
X152661669Y-90089753D01*
X153186152Y-90307000D01*
X153753848Y-90307000D01*
X154278331Y-90089753D01*
X154679753Y-89688331D01*
X154897000Y-89163848D01*
X154897000Y-88622553D01*
X156137184Y-87382370D01*
X156206233Y-87336233D01*
X156389016Y-87062679D01*
X156437000Y-86821448D01*
X156437000Y-86821444D01*
X156453200Y-86740001D01*
X156437000Y-86658558D01*
X156437000Y-84052553D01*
X159173000Y-81316554D01*
X159173000Y-81543848D01*
X159390247Y-82068331D01*
X159791669Y-82469753D01*
X159937119Y-82530000D01*
X159791669Y-82590247D01*
X159390247Y-82991669D01*
X159173000Y-83516152D01*
X159173000Y-84083848D01*
X159390247Y-84608331D01*
X159791669Y-85009753D01*
X159937119Y-85070000D01*
X159791669Y-85130247D01*
X159390247Y-85531669D01*
X159173000Y-86056152D01*
X159173000Y-86623848D01*
X159390247Y-87148331D01*
X159791669Y-87549753D01*
X159937119Y-87610000D01*
X159791669Y-87670247D01*
X159390247Y-88071669D01*
X159173000Y-88596152D01*
X159173000Y-89163848D01*
X159390247Y-89688331D01*
X159791669Y-90089753D01*
X159937119Y-90150000D01*
X159791669Y-90210247D01*
X159390247Y-90611669D01*
X159173000Y-91136152D01*
X159173000Y-91703848D01*
X159390247Y-92228331D01*
X159791669Y-92629753D01*
X159937119Y-92690000D01*
X159791669Y-92750247D01*
X159390247Y-93151669D01*
X159173000Y-93676152D01*
X159173000Y-94243848D01*
X159390247Y-94768331D01*
X159791669Y-95169753D01*
X159937119Y-95230000D01*
X159791669Y-95290247D01*
X159390247Y-95691669D01*
X159173000Y-96216152D01*
X159173000Y-96783848D01*
X159390247Y-97308331D01*
X159791669Y-97709753D01*
X159937119Y-97770000D01*
X159791669Y-97830247D01*
X159390247Y-98231669D01*
X159173000Y-98756152D01*
X159173000Y-99323848D01*
X159390247Y-99848331D01*
X159791669Y-100249753D01*
X159937119Y-100310000D01*
X159791669Y-100370247D01*
X159390247Y-100771669D01*
X159173000Y-101296152D01*
X159173000Y-101863848D01*
X159390247Y-102388331D01*
X159791669Y-102789753D01*
X159937119Y-102850000D01*
X159791669Y-102910247D01*
X159390247Y-103311669D01*
X159173000Y-103836152D01*
X159173000Y-104403848D01*
X159390247Y-104928331D01*
X159791669Y-105329753D01*
X159937119Y-105390000D01*
X159791669Y-105450247D01*
X159390247Y-105851669D01*
X159173000Y-106376152D01*
X159173000Y-106943848D01*
X159390247Y-107468331D01*
X159791669Y-107869753D01*
X159937119Y-107930000D01*
X159791669Y-107990247D01*
X159390247Y-108391669D01*
X159173000Y-108916152D01*
X159173000Y-109483848D01*
X159390247Y-110008331D01*
X159791669Y-110409753D01*
X159937119Y-110470000D01*
X159791669Y-110530247D01*
X159390247Y-110931669D01*
X159173000Y-111456152D01*
X159173000Y-112023848D01*
X159390247Y-112548331D01*
X159791669Y-112949753D01*
X159937119Y-113010000D01*
X159791669Y-113070247D01*
X159390247Y-113471669D01*
X159173000Y-113996152D01*
X159173000Y-114563848D01*
X159390247Y-115088331D01*
X159791669Y-115489753D01*
X160316152Y-115707000D01*
X160883848Y-115707000D01*
X161408331Y-115489753D01*
X161809753Y-115088331D01*
X161825249Y-115050919D01*
X172372100Y-115050919D01*
X172372100Y-115599081D01*
X172581872Y-116105518D01*
X172969482Y-116493128D01*
X173475919Y-116702900D01*
X174024081Y-116702900D01*
X174530518Y-116493128D01*
X174918128Y-116105518D01*
X175127900Y-115599081D01*
X175127900Y-115050919D01*
X174918128Y-114544482D01*
X174530518Y-114156872D01*
X174024081Y-113947100D01*
X173475919Y-113947100D01*
X172969482Y-114156872D01*
X172581872Y-114544482D01*
X172372100Y-115050919D01*
X161825249Y-115050919D01*
X162027000Y-114563848D01*
X162027000Y-113996152D01*
X161809753Y-113471669D01*
X161408331Y-113070247D01*
X161262881Y-113010000D01*
X161408331Y-112949753D01*
X161809753Y-112548331D01*
X162027000Y-112023848D01*
X162027000Y-111456152D01*
X161809753Y-110931669D01*
X161408331Y-110530247D01*
X161262881Y-110470000D01*
X161408331Y-110409753D01*
X161809753Y-110008331D01*
X161843441Y-109927000D01*
X164783868Y-109927000D01*
X167090704Y-112233838D01*
X167000000Y-112452816D01*
X167000000Y-113117184D01*
X167254243Y-113730979D01*
X167724021Y-114200757D01*
X168337816Y-114455000D01*
X169002184Y-114455000D01*
X169615979Y-114200757D01*
X170085757Y-113730979D01*
X170340000Y-113117184D01*
X170340000Y-112452816D01*
X170085757Y-111839021D01*
X169615979Y-111369243D01*
X169002184Y-111115000D01*
X168337816Y-111115000D01*
X168118838Y-111205704D01*
X166656695Y-109743562D01*
X171229100Y-109743562D01*
X171229100Y-110746438D01*
X171612884Y-111672975D01*
X172322025Y-112382116D01*
X173248562Y-112765900D01*
X174251438Y-112765900D01*
X175177975Y-112382116D01*
X175887116Y-111672975D01*
X176270900Y-110746438D01*
X176270900Y-109743562D01*
X175887116Y-108817025D01*
X175177975Y-108107884D01*
X174251438Y-107724100D01*
X173248562Y-107724100D01*
X172322025Y-108107884D01*
X171612884Y-108817025D01*
X171229100Y-109743562D01*
X166656695Y-109743562D01*
X165649696Y-108736564D01*
X165609137Y-108675863D01*
X165368661Y-108515182D01*
X165156599Y-108473000D01*
X165156595Y-108473000D01*
X165085000Y-108458759D01*
X165013405Y-108473000D01*
X161843441Y-108473000D01*
X161809753Y-108391669D01*
X161408331Y-107990247D01*
X161262881Y-107930000D01*
X161408331Y-107869753D01*
X161587121Y-107690963D01*
X170133642Y-107690963D01*
X170249806Y-107972658D01*
X170911333Y-108223062D01*
X171618329Y-108201249D01*
X172170194Y-107972658D01*
X172286358Y-107690963D01*
X171210000Y-106614605D01*
X170133642Y-107690963D01*
X161587121Y-107690963D01*
X161809753Y-107468331D01*
X161843441Y-107387000D01*
X163008405Y-107387000D01*
X163080000Y-107401241D01*
X163151595Y-107387000D01*
X163151599Y-107387000D01*
X163363661Y-107344818D01*
X163604137Y-107184137D01*
X163644696Y-107123436D01*
X164631799Y-106136333D01*
X169421938Y-106136333D01*
X169443751Y-106843329D01*
X169672342Y-107395194D01*
X169954037Y-107511358D01*
X171030395Y-106435000D01*
X169954037Y-105358642D01*
X169672342Y-105474806D01*
X169421938Y-106136333D01*
X164631799Y-106136333D01*
X165589095Y-105179037D01*
X170133642Y-105179037D01*
X171210000Y-106255395D01*
X171224143Y-106241253D01*
X171403748Y-106420858D01*
X171389605Y-106435000D01*
X172465963Y-107511358D01*
X172747658Y-107395194D01*
X172998062Y-106733667D01*
X172985914Y-106339934D01*
X173475919Y-106542900D01*
X174024081Y-106542900D01*
X174530518Y-106333128D01*
X174918128Y-105945518D01*
X175127900Y-105439081D01*
X175127900Y-104890919D01*
X174918128Y-104384482D01*
X174530518Y-103996872D01*
X174024081Y-103787100D01*
X173475919Y-103787100D01*
X172969482Y-103996872D01*
X172581872Y-104384482D01*
X172372100Y-104890919D01*
X172372100Y-105093292D01*
X172286357Y-105179035D01*
X172170194Y-104897342D01*
X171508667Y-104646938D01*
X170801671Y-104668751D01*
X170249806Y-104897342D01*
X170133642Y-105179037D01*
X165589095Y-105179037D01*
X169133439Y-101634694D01*
X169194137Y-101594137D01*
X169354818Y-101353661D01*
X169397000Y-101141599D01*
X169397000Y-101141595D01*
X169411241Y-101070000D01*
X169397000Y-100998405D01*
X169397000Y-96050919D01*
X172372100Y-96050919D01*
X172372100Y-96599081D01*
X172581872Y-97105518D01*
X172969482Y-97493128D01*
X173475919Y-97702900D01*
X174024081Y-97702900D01*
X174530518Y-97493128D01*
X174918128Y-97105518D01*
X175127900Y-96599081D01*
X175127900Y-96050919D01*
X174918128Y-95544482D01*
X174530518Y-95156872D01*
X174024081Y-94947100D01*
X173475919Y-94947100D01*
X172969482Y-95156872D01*
X172581872Y-95544482D01*
X172372100Y-96050919D01*
X169397000Y-96050919D01*
X169397000Y-95291461D01*
X169615979Y-95200757D01*
X170085757Y-94730979D01*
X170340000Y-94117184D01*
X170340000Y-93452816D01*
X170085757Y-92839021D01*
X169615979Y-92369243D01*
X169002184Y-92115000D01*
X168337816Y-92115000D01*
X167724021Y-92369243D01*
X167254243Y-92839021D01*
X167000000Y-93452816D01*
X167000000Y-94117184D01*
X167254243Y-94730979D01*
X167724021Y-95200757D01*
X167943000Y-95291461D01*
X167943001Y-100768866D01*
X162778868Y-105933000D01*
X161843441Y-105933000D01*
X161809753Y-105851669D01*
X161408331Y-105450247D01*
X161262881Y-105390000D01*
X161408331Y-105329753D01*
X161809753Y-104928331D01*
X161843441Y-104847000D01*
X162488405Y-104847000D01*
X162560000Y-104861241D01*
X162631595Y-104847000D01*
X162631599Y-104847000D01*
X162843661Y-104804818D01*
X163084137Y-104644137D01*
X163124696Y-104583436D01*
X166553441Y-101154692D01*
X166614136Y-101114137D01*
X166654692Y-101053441D01*
X166654694Y-101053439D01*
X166774818Y-100873661D01*
X166788351Y-100805625D01*
X166817000Y-100661599D01*
X166817000Y-100661595D01*
X166831241Y-100590000D01*
X166817000Y-100518405D01*
X166817000Y-90743562D01*
X171229100Y-90743562D01*
X171229100Y-91746438D01*
X171612884Y-92672975D01*
X172322025Y-93382116D01*
X173248562Y-93765900D01*
X174251438Y-93765900D01*
X175177975Y-93382116D01*
X175887116Y-92672975D01*
X176270900Y-91746438D01*
X176270900Y-90743562D01*
X175887116Y-89817025D01*
X175177975Y-89107884D01*
X174251438Y-88724100D01*
X173248562Y-88724100D01*
X172322025Y-89107884D01*
X171612884Y-89817025D01*
X171229100Y-90743562D01*
X166817000Y-90743562D01*
X166817000Y-88690963D01*
X170133642Y-88690963D01*
X170249806Y-88972658D01*
X170911333Y-89223062D01*
X171618329Y-89201249D01*
X172170194Y-88972658D01*
X172286358Y-88690963D01*
X171210000Y-87614605D01*
X170133642Y-88690963D01*
X166817000Y-88690963D01*
X166817000Y-87136333D01*
X169421938Y-87136333D01*
X169443751Y-87843329D01*
X169672342Y-88395194D01*
X169954037Y-88511358D01*
X171030395Y-87435000D01*
X169954037Y-86358642D01*
X169672342Y-86474806D01*
X169421938Y-87136333D01*
X166817000Y-87136333D01*
X166817000Y-86179037D01*
X170133642Y-86179037D01*
X171210000Y-87255395D01*
X171224143Y-87241253D01*
X171403748Y-87420858D01*
X171389605Y-87435000D01*
X172465963Y-88511358D01*
X172747658Y-88395194D01*
X172998062Y-87733667D01*
X172985914Y-87339934D01*
X173475919Y-87542900D01*
X174024081Y-87542900D01*
X174530518Y-87333128D01*
X174918128Y-86945518D01*
X175127900Y-86439081D01*
X175127900Y-85890919D01*
X174918128Y-85384482D01*
X174530518Y-84996872D01*
X174024081Y-84787100D01*
X173475919Y-84787100D01*
X172969482Y-84996872D01*
X172581872Y-85384482D01*
X172372100Y-85890919D01*
X172372100Y-86093292D01*
X172286357Y-86179035D01*
X172170194Y-85897342D01*
X171508667Y-85646938D01*
X170801671Y-85668751D01*
X170249806Y-85897342D01*
X170133642Y-86179037D01*
X166817000Y-86179037D01*
X166817000Y-77666132D01*
X167432213Y-77050919D01*
X172372100Y-77050919D01*
X172372100Y-77599081D01*
X172581872Y-78105518D01*
X172969482Y-78493128D01*
X173475919Y-78702900D01*
X174024081Y-78702900D01*
X174530518Y-78493128D01*
X174918128Y-78105518D01*
X175127900Y-77599081D01*
X175127900Y-77050919D01*
X174918128Y-76544482D01*
X174530518Y-76156872D01*
X174024081Y-75947100D01*
X173475919Y-75947100D01*
X172969482Y-76156872D01*
X172581872Y-76544482D01*
X172372100Y-77050919D01*
X167432213Y-77050919D01*
X168118837Y-76364296D01*
X168337816Y-76455000D01*
X169002184Y-76455000D01*
X169615979Y-76200757D01*
X170085757Y-75730979D01*
X170340000Y-75117184D01*
X170340000Y-74452816D01*
X170085757Y-73839021D01*
X169615979Y-73369243D01*
X169002184Y-73115000D01*
X168337816Y-73115000D01*
X167724021Y-73369243D01*
X167254243Y-73839021D01*
X167000000Y-74452816D01*
X167000000Y-75117184D01*
X167090704Y-75336163D01*
X165626562Y-76800306D01*
X165565864Y-76840863D01*
X165525307Y-76901561D01*
X165525306Y-76901562D01*
X165405182Y-77081340D01*
X165348759Y-77365000D01*
X165363001Y-77436600D01*
X165363000Y-100288867D01*
X162258868Y-103393000D01*
X161843441Y-103393000D01*
X161809753Y-103311669D01*
X161408331Y-102910247D01*
X161262881Y-102850000D01*
X161408331Y-102789753D01*
X161809753Y-102388331D01*
X162027000Y-101863848D01*
X162027000Y-101296152D01*
X161809753Y-100771669D01*
X161408331Y-100370247D01*
X161262881Y-100310000D01*
X161408331Y-100249753D01*
X161809753Y-99848331D01*
X162027000Y-99323848D01*
X162027000Y-98756152D01*
X161809753Y-98231669D01*
X161408331Y-97830247D01*
X161262881Y-97770000D01*
X161408331Y-97709753D01*
X161809753Y-97308331D01*
X162027000Y-96783848D01*
X162027000Y-96216152D01*
X161809753Y-95691669D01*
X161408331Y-95290247D01*
X161262881Y-95230000D01*
X161408331Y-95169753D01*
X161809753Y-94768331D01*
X162027000Y-94243848D01*
X162027000Y-93676152D01*
X161809753Y-93151669D01*
X161408331Y-92750247D01*
X161262881Y-92690000D01*
X161408331Y-92629753D01*
X161809753Y-92228331D01*
X162027000Y-91703848D01*
X162027000Y-91136152D01*
X161809753Y-90611669D01*
X161408331Y-90210247D01*
X161262881Y-90150000D01*
X161408331Y-90089753D01*
X161809753Y-89688331D01*
X162027000Y-89163848D01*
X162027000Y-88596152D01*
X161809753Y-88071669D01*
X161408331Y-87670247D01*
X161262881Y-87610000D01*
X161408331Y-87549753D01*
X161809753Y-87148331D01*
X162027000Y-86623848D01*
X162027000Y-86056152D01*
X161809753Y-85531669D01*
X161408331Y-85130247D01*
X161262881Y-85070000D01*
X161408331Y-85009753D01*
X161809753Y-84608331D01*
X162027000Y-84083848D01*
X162027000Y-83516152D01*
X161809753Y-82991669D01*
X161408331Y-82590247D01*
X161262881Y-82530000D01*
X161408331Y-82469753D01*
X161809753Y-82068331D01*
X162027000Y-81543848D01*
X162027000Y-80976152D01*
X161993312Y-80894821D01*
X163563441Y-79324692D01*
X163624136Y-79284137D01*
X163664692Y-79223441D01*
X163664694Y-79223439D01*
X163784818Y-79043661D01*
X163792737Y-79003848D01*
X163827000Y-78831599D01*
X163827000Y-78831595D01*
X163841241Y-78760000D01*
X163827000Y-78688405D01*
X163827000Y-71743562D01*
X171229100Y-71743562D01*
X171229100Y-72746438D01*
X171612884Y-73672975D01*
X172322025Y-74382116D01*
X173248562Y-74765900D01*
X174251438Y-74765900D01*
X175177975Y-74382116D01*
X175887116Y-73672975D01*
X176270900Y-72746438D01*
X176270900Y-71743562D01*
X175887116Y-70817025D01*
X175177975Y-70107884D01*
X174251438Y-69724100D01*
X173248562Y-69724100D01*
X172322025Y-70107884D01*
X171612884Y-70817025D01*
X171229100Y-71743562D01*
X163827000Y-71743562D01*
X163827000Y-69690963D01*
X170133642Y-69690963D01*
X170249806Y-69972658D01*
X170911333Y-70223062D01*
X171618329Y-70201249D01*
X172170194Y-69972658D01*
X172286358Y-69690963D01*
X171210000Y-68614605D01*
X170133642Y-69690963D01*
X163827000Y-69690963D01*
X163827000Y-68136333D01*
X169421938Y-68136333D01*
X169443751Y-68843329D01*
X169672342Y-69395194D01*
X169954037Y-69511358D01*
X171030395Y-68435000D01*
X169954037Y-67358642D01*
X169672342Y-67474806D01*
X169421938Y-68136333D01*
X163827000Y-68136333D01*
X163827000Y-67179037D01*
X170133642Y-67179037D01*
X171210000Y-68255395D01*
X171224143Y-68241253D01*
X171403748Y-68420858D01*
X171389605Y-68435000D01*
X172465963Y-69511358D01*
X172747658Y-69395194D01*
X172998062Y-68733667D01*
X172985914Y-68339934D01*
X173475919Y-68542900D01*
X174024081Y-68542900D01*
X174530518Y-68333128D01*
X174918128Y-67945518D01*
X175127900Y-67439081D01*
X175127900Y-66890919D01*
X174918128Y-66384482D01*
X174530518Y-65996872D01*
X174024081Y-65787100D01*
X173475919Y-65787100D01*
X172969482Y-65996872D01*
X172581872Y-66384482D01*
X172372100Y-66890919D01*
X172372100Y-67093292D01*
X172286357Y-67179035D01*
X172170194Y-66897342D01*
X171508667Y-66646938D01*
X170801671Y-66668751D01*
X170249806Y-66897342D01*
X170133642Y-67179037D01*
X163827000Y-67179037D01*
X163827000Y-65921132D01*
X164901133Y-64847000D01*
X173778405Y-64847000D01*
X173850000Y-64861241D01*
X173921595Y-64847000D01*
X173921599Y-64847000D01*
X174133661Y-64804818D01*
X174374137Y-64644137D01*
X174414696Y-64583436D01*
X177780442Y-61217691D01*
X177783602Y-61219000D01*
X178296398Y-61219000D01*
X178770160Y-61022761D01*
X178882708Y-60910213D01*
X179779392Y-60910213D01*
X179848857Y-61152397D01*
X180372302Y-61339144D01*
X180927368Y-61311362D01*
X181311143Y-61152397D01*
X181380608Y-60910213D01*
X180580000Y-60109605D01*
X179779392Y-60910213D01*
X178882708Y-60910213D01*
X179132761Y-60660160D01*
X179244978Y-60389244D01*
X179357603Y-60661143D01*
X179599787Y-60730608D01*
X180400395Y-59930000D01*
X180759605Y-59930000D01*
X181560213Y-60730608D01*
X181802397Y-60661143D01*
X181989144Y-60137698D01*
X181961362Y-59582632D01*
X181802397Y-59198857D01*
X181560213Y-59129392D01*
X180759605Y-59930000D01*
X180400395Y-59930000D01*
X179599787Y-59129392D01*
X179357603Y-59198857D01*
X179253371Y-59491017D01*
X179132761Y-59199840D01*
X178882708Y-58949787D01*
X179779392Y-58949787D01*
X180580000Y-59750395D01*
X181380608Y-58949787D01*
X181311143Y-58707603D01*
X180787698Y-58520856D01*
X180232632Y-58548638D01*
X179848857Y-58707603D01*
X179779392Y-58949787D01*
X178882708Y-58949787D01*
X178770160Y-58837239D01*
X178296398Y-58641000D01*
X177783602Y-58641000D01*
X177309840Y-58837239D01*
X176947239Y-59199840D01*
X176770000Y-59627732D01*
X176592761Y-59199840D01*
X176230160Y-58837239D01*
X175756398Y-58641000D01*
X175243602Y-58641000D01*
X174769840Y-58837239D01*
X174407239Y-59199840D01*
X174211000Y-59673602D01*
X174211000Y-60186398D01*
X174407239Y-60660160D01*
X174769840Y-61022761D01*
X175243602Y-61219000D01*
X175722867Y-61219000D01*
X173548868Y-63393000D01*
X164865132Y-63393000D01*
X170904821Y-57353312D01*
X170986152Y-57387000D01*
X171553848Y-57387000D01*
X172078331Y-57169753D01*
X172479753Y-56768331D01*
X172540000Y-56622881D01*
X172600247Y-56768331D01*
X173001669Y-57169753D01*
X173526152Y-57387000D01*
X174093848Y-57387000D01*
X174618331Y-57169753D01*
X175019753Y-56768331D01*
X175237000Y-56243848D01*
X175237000Y-55676152D01*
X175019753Y-55151669D01*
X174618331Y-54750247D01*
X174093848Y-54533000D01*
X173526152Y-54533000D01*
X173001669Y-54750247D01*
X172600247Y-55151669D01*
X172540000Y-55297119D01*
X172479753Y-55151669D01*
X172078331Y-54750247D01*
X171553848Y-54533000D01*
X170986152Y-54533000D01*
X170461669Y-54750247D01*
X170066210Y-55145706D01*
X169810159Y-55059446D01*
X168909605Y-55960000D01*
X168923748Y-55974143D01*
X168744143Y-56153748D01*
X168730000Y-56139605D01*
X167829446Y-57040159D01*
X167915852Y-57296643D01*
X168489336Y-57506458D01*
X168704441Y-57497426D01*
X163668868Y-62533000D01*
X161721267Y-62533000D01*
X161826423Y-62375625D01*
X161867324Y-62170000D01*
X161867324Y-61270000D01*
X161826423Y-61064375D01*
X161807000Y-61035307D01*
X161807000Y-60643751D01*
X161923145Y-60566145D01*
X162039623Y-60391825D01*
X162080524Y-60186200D01*
X162080524Y-59271800D01*
X162039623Y-59066175D01*
X161923145Y-58891855D01*
X161845539Y-58840000D01*
X161923145Y-58788145D01*
X161996742Y-58678000D01*
X163117405Y-58678000D01*
X163189000Y-58692241D01*
X163260595Y-58678000D01*
X163260599Y-58678000D01*
X163472661Y-58635818D01*
X163713137Y-58475137D01*
X163753696Y-58414436D01*
X166448796Y-55719336D01*
X167183542Y-55719336D01*
X167209161Y-56329460D01*
X167393357Y-56774148D01*
X167649841Y-56860554D01*
X168550395Y-55960000D01*
X167649841Y-55059446D01*
X167393357Y-55145852D01*
X167183542Y-55719336D01*
X166448796Y-55719336D01*
X167288291Y-54879841D01*
X167829446Y-54879841D01*
X168730000Y-55780395D01*
X169630554Y-54879841D01*
X169544148Y-54623357D01*
X168970664Y-54413542D01*
X168360540Y-54439161D01*
X167915852Y-54623357D01*
X167829446Y-54879841D01*
X167288291Y-54879841D01*
X167691358Y-54476775D01*
X167716043Y-54487000D01*
X168243957Y-54487000D01*
X168731685Y-54284976D01*
X169104976Y-53911685D01*
X169307000Y-53423957D01*
X169307000Y-52896043D01*
X173653000Y-52896043D01*
X173653000Y-53423957D01*
X173855024Y-53911685D01*
X174228315Y-54284976D01*
X174716043Y-54487000D01*
X175243957Y-54487000D01*
X175434275Y-54408168D01*
X175499999Y-54421241D01*
X175783660Y-54364818D01*
X176024137Y-54204137D01*
X176184818Y-53963660D01*
X176241241Y-53679999D01*
X176228168Y-53614275D01*
X176307000Y-53423957D01*
X176307000Y-52896043D01*
X176183052Y-52596805D01*
X179973000Y-52596805D01*
X179973000Y-53403195D01*
X180281593Y-54148203D01*
X180851797Y-54718407D01*
X181596805Y-55027000D01*
X182403195Y-55027000D01*
X183148203Y-54718407D01*
X183718407Y-54148203D01*
X184027000Y-53403195D01*
X184027000Y-52596805D01*
X183718407Y-51851797D01*
X183148203Y-51281593D01*
X182403195Y-50973000D01*
X181596805Y-50973000D01*
X180851797Y-51281593D01*
X180281593Y-51851797D01*
X179973000Y-52596805D01*
X176183052Y-52596805D01*
X176104976Y-52408315D01*
X175731685Y-52035024D01*
X175243957Y-51833000D01*
X174716043Y-51833000D01*
X174228315Y-52035024D01*
X173855024Y-52408315D01*
X173653000Y-52896043D01*
X169307000Y-52896043D01*
X169104976Y-52408315D01*
X168731685Y-52035024D01*
X168243957Y-51833000D01*
X167716043Y-51833000D01*
X167228315Y-52035024D01*
X166855024Y-52408315D01*
X166653000Y-52896043D01*
X166653000Y-53423957D01*
X166663225Y-53448642D01*
X162887868Y-57224000D01*
X161996742Y-57224000D01*
X161923145Y-57113855D01*
X161748825Y-56997377D01*
X161543200Y-56956476D01*
X160628800Y-56956476D01*
X160423175Y-56997377D01*
X160248855Y-57113855D01*
X160132377Y-57288175D01*
X160091476Y-57493800D01*
X160091476Y-58408200D01*
X160132377Y-58613825D01*
X160248855Y-58788145D01*
X160326461Y-58840000D01*
X160248855Y-58891855D01*
X160132377Y-59066175D01*
X160091476Y-59271800D01*
X160091476Y-60186200D01*
X160132377Y-60391825D01*
X160248855Y-60566145D01*
X160353001Y-60635733D01*
X160353000Y-61035306D01*
X160333577Y-61064375D01*
X160330000Y-61082358D01*
X160326423Y-61064375D01*
X160209945Y-60890055D01*
X160035625Y-60773577D01*
X159830000Y-60732676D01*
X159330000Y-60732676D01*
X159124375Y-60773577D01*
X158950055Y-60890055D01*
X158881269Y-60993000D01*
X150691595Y-60993000D01*
X150620000Y-60978759D01*
X150548405Y-60993000D01*
X150548401Y-60993000D01*
X150336339Y-61035182D01*
X150095863Y-61195863D01*
X150055306Y-61256561D01*
X147226562Y-64085306D01*
X147165863Y-64125864D01*
X147005182Y-64366340D01*
X146963000Y-64578402D01*
X146963000Y-64578405D01*
X146948759Y-64650000D01*
X146963000Y-64721595D01*
X146963001Y-86248865D01*
X146787000Y-86424866D01*
X146787000Y-86056152D01*
X146569753Y-85531669D01*
X146168331Y-85130247D01*
X146022881Y-85070000D01*
X146168331Y-85009753D01*
X146569753Y-84608331D01*
X146787000Y-84083848D01*
X146787000Y-83516152D01*
X146569753Y-82991669D01*
X146168331Y-82590247D01*
X146022881Y-82530000D01*
X146168331Y-82469753D01*
X146569753Y-82068331D01*
X146787000Y-81543848D01*
X146787000Y-80976152D01*
X146569753Y-80451669D01*
X146168331Y-80050247D01*
X146022881Y-79990000D01*
X146168331Y-79929753D01*
X146569753Y-79528331D01*
X146787000Y-79003848D01*
X146787000Y-78436152D01*
X146569753Y-77911669D01*
X146168331Y-77510247D01*
X146022881Y-77450000D01*
X146168331Y-77389753D01*
X146569753Y-76988331D01*
X146787000Y-76463848D01*
X146787000Y-75896152D01*
X146569753Y-75371669D01*
X146168331Y-74970247D01*
X146022881Y-74910000D01*
X146168331Y-74849753D01*
X146569753Y-74448331D01*
X146787000Y-73923848D01*
X146787000Y-73356152D01*
X146569753Y-72831669D01*
X146168331Y-72430247D01*
X146022881Y-72370000D01*
X146168331Y-72309753D01*
X146569753Y-71908331D01*
X146787000Y-71383848D01*
X146787000Y-70816152D01*
X146569753Y-70291669D01*
X146168331Y-69890247D01*
X146022881Y-69830000D01*
X146168331Y-69769753D01*
X146569753Y-69368331D01*
X146787000Y-68843848D01*
X146787000Y-68276152D01*
X146569753Y-67751669D01*
X146168331Y-67350247D01*
X146022881Y-67290000D01*
X146168331Y-67229753D01*
X146569753Y-66828331D01*
X146787000Y-66303848D01*
X146787000Y-65736152D01*
X146569753Y-65211669D01*
X146168331Y-64810247D01*
X145643848Y-64593000D01*
X145076152Y-64593000D01*
X144551669Y-64810247D01*
X144268916Y-65093000D01*
X141896703Y-65093000D01*
X141852762Y-65027238D01*
X141397279Y-64722894D01*
X140995623Y-64643000D01*
X140724377Y-64643000D01*
X140322721Y-64722894D01*
X139867238Y-65027238D01*
X139562894Y-65482721D01*
X139456023Y-66020000D01*
X139562894Y-66557279D01*
X139867238Y-67012762D01*
X140282154Y-67290000D01*
X139867238Y-67567238D01*
X139562894Y-68022721D01*
X139456023Y-68560000D01*
X139562894Y-69097279D01*
X139867238Y-69552762D01*
X140282154Y-69830000D01*
X139867238Y-70107238D01*
X139562894Y-70562721D01*
X139456023Y-71100000D01*
X139562894Y-71637279D01*
X139867238Y-72092762D01*
X140282154Y-72370000D01*
X139867238Y-72647238D01*
X139562894Y-73102721D01*
X139456023Y-73640000D01*
X139562894Y-74177279D01*
X139867238Y-74632762D01*
X140106566Y-74792676D01*
X140010000Y-74792676D01*
X139804375Y-74833577D01*
X139630055Y-74950055D01*
X139513577Y-75124375D01*
X139472676Y-75330000D01*
X139472676Y-77030000D01*
X139513577Y-77235625D01*
X139630055Y-77409945D01*
X139804375Y-77526423D01*
X140010000Y-77567324D01*
X141710000Y-77567324D01*
X141915625Y-77526423D01*
X142089945Y-77409945D01*
X142206423Y-77235625D01*
X142232008Y-77107000D01*
X144268916Y-77107000D01*
X144551669Y-77389753D01*
X144697119Y-77450000D01*
X144551669Y-77510247D01*
X144168916Y-77893000D01*
X142161442Y-77893000D01*
X142079999Y-77876800D01*
X141998556Y-77893000D01*
X141998552Y-77893000D01*
X141757321Y-77940984D01*
X141483767Y-78123767D01*
X141437630Y-78192817D01*
X140442819Y-79187628D01*
X140373767Y-79233767D01*
X140190984Y-79507322D01*
X140143000Y-79748553D01*
X140143000Y-79748556D01*
X140126800Y-79830000D01*
X140139267Y-79892676D01*
X140120000Y-79892676D01*
X139914375Y-79933577D01*
X139740055Y-80050055D01*
X139623577Y-80224375D01*
X139582676Y-80430000D01*
X139582676Y-82130000D01*
X139623577Y-82335625D01*
X139740055Y-82509945D01*
X139914375Y-82626423D01*
X140120000Y-82667324D01*
X140216566Y-82667324D01*
X139977238Y-82827238D01*
X139672894Y-83282721D01*
X139566023Y-83820000D01*
X139672894Y-84357279D01*
X139977238Y-84812762D01*
X140432721Y-85117106D01*
X140834377Y-85197000D01*
X141105623Y-85197000D01*
X141507279Y-85117106D01*
X141962762Y-84812762D01*
X142073521Y-84647000D01*
X142090637Y-84647000D01*
X142172081Y-84663200D01*
X142253525Y-84647000D01*
X142253529Y-84647000D01*
X142494760Y-84599016D01*
X142768314Y-84416233D01*
X142814453Y-84347181D01*
X143437183Y-83724452D01*
X143506233Y-83678314D01*
X143689016Y-83404760D01*
X143737000Y-83163529D01*
X143737000Y-83163525D01*
X143753200Y-83082082D01*
X143737000Y-83000639D01*
X143737000Y-82779761D01*
X144299339Y-82217423D01*
X144551669Y-82469753D01*
X144697119Y-82530000D01*
X144551669Y-82590247D01*
X144150247Y-82991669D01*
X143933000Y-83516152D01*
X143933000Y-84083848D01*
X144150247Y-84608331D01*
X144551669Y-85009753D01*
X144697119Y-85070000D01*
X144551669Y-85130247D01*
X144150247Y-85531669D01*
X143933000Y-86056152D01*
X143933000Y-86623848D01*
X144150247Y-87148331D01*
X144551669Y-87549753D01*
X144697119Y-87610000D01*
X144551669Y-87670247D01*
X144150247Y-88071669D01*
X143933000Y-88596152D01*
X143933000Y-89163848D01*
X144150247Y-89688331D01*
X144551669Y-90089753D01*
X144697119Y-90150000D01*
X144551669Y-90210247D01*
X144150247Y-90611669D01*
X143933000Y-91136152D01*
X143933000Y-91703848D01*
X144150247Y-92228331D01*
X144551669Y-92629753D01*
X144697119Y-92690000D01*
X144551669Y-92750247D01*
X144150247Y-93151669D01*
X143933000Y-93676152D01*
X143933000Y-94243848D01*
X144150247Y-94768331D01*
X144551669Y-95169753D01*
X144697119Y-95230000D01*
X144551669Y-95290247D01*
X144150247Y-95691669D01*
X143933000Y-96216152D01*
X143933000Y-96584867D01*
X136567000Y-89218868D01*
X136567000Y-89135608D01*
X136425873Y-88794897D01*
X136367000Y-88736024D01*
X136367000Y-72171595D01*
X136381241Y-72100000D01*
X136367000Y-72028405D01*
X136367000Y-72028401D01*
X136324818Y-71816339D01*
X136306175Y-71788438D01*
X136204695Y-71636561D01*
X136204690Y-71636556D01*
X136164136Y-71575863D01*
X136103443Y-71535309D01*
X135429696Y-70861564D01*
X135389137Y-70800863D01*
X135148661Y-70640182D01*
X134936599Y-70598000D01*
X134936595Y-70598000D01*
X134865000Y-70583759D01*
X134793405Y-70598000D01*
X134287044Y-70598000D01*
X134287044Y-70512500D01*
X134246143Y-70306875D01*
X134217000Y-70263260D01*
X134217000Y-69025608D01*
X136363000Y-69025608D01*
X136363000Y-69394392D01*
X136504127Y-69735103D01*
X136764897Y-69995873D01*
X137105608Y-70137000D01*
X137474392Y-70137000D01*
X137815103Y-69995873D01*
X138075873Y-69735103D01*
X138217000Y-69394392D01*
X138217000Y-69025608D01*
X138075873Y-68684897D01*
X137815103Y-68424127D01*
X137474392Y-68283000D01*
X137105608Y-68283000D01*
X136764897Y-68424127D01*
X136504127Y-68684897D01*
X136363000Y-69025608D01*
X134217000Y-69025608D01*
X134217000Y-66023976D01*
X134275873Y-65965103D01*
X134417000Y-65624392D01*
X134417000Y-65255608D01*
X134275873Y-64914897D01*
X134015103Y-64654127D01*
X133902761Y-64607593D01*
X134099986Y-64410368D01*
X136363000Y-64410368D01*
X136363000Y-64779152D01*
X136504127Y-65119863D01*
X136764897Y-65380633D01*
X137105608Y-65521760D01*
X137474392Y-65521760D01*
X137815103Y-65380633D01*
X138075873Y-65119863D01*
X138217000Y-64779152D01*
X138217000Y-64410368D01*
X138075873Y-64069657D01*
X137815103Y-63808887D01*
X137474392Y-63667760D01*
X137105608Y-63667760D01*
X136764897Y-63808887D01*
X136504127Y-64069657D01*
X136363000Y-64410368D01*
X134099986Y-64410368D01*
X137570354Y-60940000D01*
X139456023Y-60940000D01*
X139562894Y-61477279D01*
X139867238Y-61932762D01*
X140322721Y-62237106D01*
X140724377Y-62317000D01*
X140995623Y-62317000D01*
X141397279Y-62237106D01*
X141852762Y-61932762D01*
X142157106Y-61477279D01*
X142263977Y-60940000D01*
X142157106Y-60402721D01*
X141852762Y-59947238D01*
X141397279Y-59642894D01*
X140995623Y-59563000D01*
X140724377Y-59563000D01*
X140322721Y-59642894D01*
X139867238Y-59947238D01*
X139562894Y-60402721D01*
X139456023Y-60940000D01*
X137570354Y-60940000D01*
X142563442Y-55946913D01*
X142624137Y-55906358D01*
X142664693Y-55845662D01*
X142664695Y-55845660D01*
X142710759Y-55776720D01*
X142784819Y-55665882D01*
X142827001Y-55453820D01*
X142827001Y-55453816D01*
X142841242Y-55382222D01*
X142827001Y-55310628D01*
X142827001Y-54687000D01*
X143403739Y-54687000D01*
X143964976Y-54454528D01*
X144106972Y-54312532D01*
X162127073Y-54312532D01*
X162225736Y-54579387D01*
X162835461Y-54805908D01*
X163485460Y-54781856D01*
X163974264Y-54579387D01*
X164072927Y-54312532D01*
X163100000Y-53339605D01*
X162127073Y-54312532D01*
X144106972Y-54312532D01*
X144394528Y-54024976D01*
X144627000Y-53463739D01*
X144627000Y-52895461D01*
X161454092Y-52895461D01*
X161478144Y-53545460D01*
X161680613Y-54034264D01*
X161947468Y-54132927D01*
X162920395Y-53160000D01*
X163279605Y-53160000D01*
X164252532Y-54132927D01*
X164519387Y-54034264D01*
X164745908Y-53424539D01*
X164721856Y-52774540D01*
X164519387Y-52285736D01*
X164252532Y-52187073D01*
X163279605Y-53160000D01*
X162920395Y-53160000D01*
X161947468Y-52187073D01*
X161680613Y-52285736D01*
X161454092Y-52895461D01*
X144627000Y-52895461D01*
X144627000Y-52856261D01*
X144394528Y-52295024D01*
X144106972Y-52007468D01*
X162127073Y-52007468D01*
X163100000Y-52980395D01*
X164072927Y-52007468D01*
X163974264Y-51740613D01*
X163364539Y-51514092D01*
X162714540Y-51538144D01*
X162225736Y-51740613D01*
X162127073Y-52007468D01*
X144106972Y-52007468D01*
X143964976Y-51865472D01*
X143403739Y-51633000D01*
X142796261Y-51633000D01*
X142235024Y-51865472D01*
X141805472Y-52295024D01*
X141573000Y-52856261D01*
X141573000Y-53463739D01*
X141629462Y-53600050D01*
X141575865Y-53635862D01*
X141535308Y-53696560D01*
X141535307Y-53696561D01*
X141415183Y-53876339D01*
X141358760Y-54159999D01*
X141373002Y-54231598D01*
X141373001Y-55081088D01*
X134287044Y-62167046D01*
X134287044Y-61387500D01*
X134246143Y-61181875D01*
X134129665Y-61007555D01*
X133955345Y-60891077D01*
X133749720Y-60850176D01*
X133150280Y-60850176D01*
X132944655Y-60891077D01*
X132907000Y-60916238D01*
X132907000Y-59901132D01*
X132924472Y-59883660D01*
X133581133Y-59227000D01*
X133664392Y-59227000D01*
X134005103Y-59085873D01*
X134265873Y-58825103D01*
X134407000Y-58484392D01*
X134407000Y-58115608D01*
X134265873Y-57774897D01*
X134005103Y-57514127D01*
X133664392Y-57373000D01*
X133295608Y-57373000D01*
X132954897Y-57514127D01*
X132694127Y-57774897D01*
X132553000Y-58115608D01*
X132553000Y-58198867D01*
X131963723Y-58788145D01*
X131722696Y-59029172D01*
X131719945Y-59025055D01*
X131545625Y-58908577D01*
X131340000Y-58867676D01*
X130540000Y-58867676D01*
X130334375Y-58908577D01*
X130160055Y-59025055D01*
X130043577Y-59199375D01*
X130002676Y-59405000D01*
X130002676Y-60155000D01*
X130043577Y-60360625D01*
X130160055Y-60534945D01*
X130334375Y-60651423D01*
X130540000Y-60692324D01*
X131340000Y-60692324D01*
X131453001Y-60669847D01*
X131453000Y-60916238D01*
X131415345Y-60891077D01*
X131209720Y-60850176D01*
X130610280Y-60850176D01*
X130404655Y-60891077D01*
X130275000Y-60977711D01*
X130145345Y-60891077D01*
X129939720Y-60850176D01*
X129340280Y-60850176D01*
X129134655Y-60891077D01*
X128960335Y-61007555D01*
X128843857Y-61181875D01*
X128802956Y-61387500D01*
X128802956Y-63012500D01*
X128824936Y-63123000D01*
X122871593Y-63123000D01*
X122799999Y-63108759D01*
X122728405Y-63123000D01*
X122728401Y-63123000D01*
X122516339Y-63165182D01*
X122275863Y-63325863D01*
X122235305Y-63386562D01*
X120926562Y-64695306D01*
X120865863Y-64735864D01*
X120705182Y-64976340D01*
X120676074Y-65122676D01*
X120540000Y-65122676D01*
X120334375Y-65163577D01*
X120160055Y-65280055D01*
X120043577Y-65454375D01*
X120002676Y-65660000D01*
X120002676Y-67360000D01*
X120043577Y-67565625D01*
X120160055Y-67739945D01*
X120334375Y-67856423D01*
X120540000Y-67897324D01*
X122240000Y-67897324D01*
X122445625Y-67856423D01*
X122619945Y-67739945D01*
X122736423Y-67565625D01*
X122777324Y-67360000D01*
X122777324Y-65660000D01*
X122736423Y-65454375D01*
X122619945Y-65280055D01*
X122486946Y-65191187D01*
X123101133Y-64577000D01*
X130880865Y-64577000D01*
X130446562Y-65011304D01*
X130385864Y-65051861D01*
X130345307Y-65112559D01*
X130345306Y-65112560D01*
X130225182Y-65292338D01*
X130168759Y-65575998D01*
X130183001Y-65647598D01*
X130183000Y-70203396D01*
X130113857Y-70306875D01*
X130072956Y-70512500D01*
X130072956Y-72137500D01*
X130113857Y-72343125D01*
X130230335Y-72517445D01*
X130404655Y-72633923D01*
X130610280Y-72674824D01*
X131209720Y-72674824D01*
X131415345Y-72633923D01*
X131453000Y-72608762D01*
X131453001Y-74208402D01*
X131438759Y-74280002D01*
X131495182Y-74563662D01*
X131606326Y-74730000D01*
X131655864Y-74804139D01*
X131716562Y-74844696D01*
X132315304Y-75443439D01*
X132355862Y-75504138D01*
X132596338Y-75664819D01*
X132753738Y-75696128D01*
X132765182Y-75753660D01*
X132925863Y-75994136D01*
X132986562Y-76034694D01*
X134043001Y-77091134D01*
X134043000Y-89234868D01*
X132264734Y-87456602D01*
X132224175Y-87395901D01*
X131983699Y-87235220D01*
X131771637Y-87193038D01*
X131771633Y-87193038D01*
X131700038Y-87178797D01*
X131628443Y-87193038D01*
X128381903Y-87193038D01*
X128330000Y-87182714D01*
X126349697Y-87182714D01*
X126330000Y-87178796D01*
X126310303Y-87182714D01*
X124330000Y-87182714D01*
X124124375Y-87223615D01*
X123950055Y-87340093D01*
X123833577Y-87514413D01*
X123792676Y-87720038D01*
X123792676Y-88120038D01*
X123822512Y-88270037D01*
X123792676Y-88420036D01*
X123792676Y-88820036D01*
X123822512Y-88970035D01*
X123792676Y-89120034D01*
X123792676Y-89520034D01*
X123833577Y-89725659D01*
X123950055Y-89899979D01*
X124124375Y-90016457D01*
X124330000Y-90057358D01*
X128116382Y-90057358D01*
X128174897Y-90115873D01*
X128515608Y-90257000D01*
X128884392Y-90257000D01*
X129225103Y-90115873D01*
X129485873Y-89855103D01*
X129627000Y-89514392D01*
X129627000Y-89145608D01*
X129485873Y-88804897D01*
X129328014Y-88647038D01*
X131398906Y-88647038D01*
X134144893Y-91393026D01*
X128381903Y-91393026D01*
X128330000Y-91382702D01*
X124330000Y-91382702D01*
X124124375Y-91423603D01*
X123950055Y-91540081D01*
X123833577Y-91714401D01*
X123792676Y-91920026D01*
X123792676Y-92320026D01*
X123833577Y-92525651D01*
X123950055Y-92699971D01*
X124124375Y-92816449D01*
X124330000Y-92857350D01*
X128330000Y-92857350D01*
X128381903Y-92847026D01*
X134088894Y-92847026D01*
X137853000Y-96611133D01*
X137853000Y-96694392D01*
X137994127Y-97035103D01*
X138254897Y-97295873D01*
X138595608Y-97437000D01*
X138964392Y-97437000D01*
X139305103Y-97295873D01*
X139565873Y-97035103D01*
X139630631Y-96878764D01*
X143966688Y-101214822D01*
X143933000Y-101296152D01*
X143933000Y-101863848D01*
X144150247Y-102388331D01*
X144551669Y-102789753D01*
X144697119Y-102850000D01*
X144551669Y-102910247D01*
X144150247Y-103311669D01*
X143933000Y-103836152D01*
X143933000Y-104403848D01*
X144150247Y-104928331D01*
X144551669Y-105329753D01*
X144697119Y-105390000D01*
X144551669Y-105450247D01*
X144150247Y-105851669D01*
X143933000Y-106376152D01*
X143933000Y-106943848D01*
X144150247Y-107468331D01*
X144551669Y-107869753D01*
X144697119Y-107930000D01*
X144551669Y-107990247D01*
X144268916Y-108273000D01*
X142841301Y-108273000D01*
X142750000Y-108254839D01*
X142658699Y-108273000D01*
X142658698Y-108273000D01*
X142388303Y-108326785D01*
X142081670Y-108531670D01*
X142029951Y-108609073D01*
X141089075Y-109549950D01*
X141089072Y-109549952D01*
X139966349Y-110672676D01*
X139763652Y-110672676D01*
X138157324Y-109066349D01*
X138157324Y-109035000D01*
X138116423Y-108829375D01*
X137999945Y-108655055D01*
X137825625Y-108538577D01*
X137620000Y-108497676D01*
X137385082Y-108497676D01*
X137220000Y-108464839D01*
X137054917Y-108497676D01*
X136820000Y-108497676D01*
X136614375Y-108538577D01*
X136440055Y-108655055D01*
X136323577Y-108829375D01*
X136282676Y-109035000D01*
X136282676Y-109400601D01*
X136274839Y-109440000D01*
X136282676Y-109479399D01*
X136282676Y-109785000D01*
X136323577Y-109990625D01*
X136440055Y-110164945D01*
X136614375Y-110281423D01*
X136784235Y-110315210D01*
X138202676Y-111733652D01*
X138202676Y-112710000D01*
X138243577Y-112915625D01*
X138360055Y-113089945D01*
X138390069Y-113110000D01*
X138360055Y-113130055D01*
X138291269Y-113233000D01*
X134977324Y-113233000D01*
X134977324Y-112360000D01*
X134936423Y-112154375D01*
X134819945Y-111980055D01*
X134645625Y-111863577D01*
X134440000Y-111822676D01*
X132440000Y-111822676D01*
X132234375Y-111863577D01*
X132060055Y-111980055D01*
X131944496Y-112153000D01*
X131677000Y-112153000D01*
X131677000Y-111734523D01*
X131746423Y-111630625D01*
X131787324Y-111425000D01*
X131787324Y-110675000D01*
X131746423Y-110469375D01*
X131629945Y-110295055D01*
X131455625Y-110178577D01*
X131250000Y-110137676D01*
X130450000Y-110137676D01*
X130244375Y-110178577D01*
X130070055Y-110295055D01*
X129953577Y-110469375D01*
X129912676Y-110675000D01*
X129912676Y-111425000D01*
X129953577Y-111630625D01*
X130023000Y-111734523D01*
X130023001Y-112259389D01*
X129949945Y-112150055D01*
X129775625Y-112033577D01*
X129570000Y-111992676D01*
X129070000Y-111992676D01*
X128864375Y-112033577D01*
X128690055Y-112150055D01*
X128573577Y-112324375D01*
X128532676Y-112530000D01*
X128532676Y-113430000D01*
X128573001Y-113632728D01*
X128573000Y-114345306D01*
X128553577Y-114374375D01*
X128512676Y-114580000D01*
X128512676Y-115480000D01*
X128553577Y-115685625D01*
X128670055Y-115859945D01*
X128844375Y-115976423D01*
X129050000Y-116017324D01*
X129550000Y-116017324D01*
X129755625Y-115976423D01*
X129929945Y-115859945D01*
X130046423Y-115685625D01*
X130087324Y-115480000D01*
X130087324Y-114580000D01*
X130046423Y-114374375D01*
X130027000Y-114345307D01*
X130027000Y-113694625D01*
X130066423Y-113635625D01*
X130070000Y-113617642D01*
X130073577Y-113635625D01*
X130190055Y-113809945D01*
X130364375Y-113926423D01*
X130570000Y-113967324D01*
X131070000Y-113967324D01*
X131275625Y-113926423D01*
X131449945Y-113809945D01*
X131451913Y-113807000D01*
X131817447Y-113807000D01*
X131902676Y-113892230D01*
X131902676Y-116160000D01*
X131943577Y-116365625D01*
X132060055Y-116539945D01*
X132234375Y-116656423D01*
X132440000Y-116697324D01*
X134440000Y-116697324D01*
X134645625Y-116656423D01*
X134819945Y-116539945D01*
X134936423Y-116365625D01*
X134977324Y-116160000D01*
X134977324Y-115287000D01*
X138291269Y-115287000D01*
X138360055Y-115389945D01*
X138534375Y-115506423D01*
X138740000Y-115547324D01*
X140740000Y-115547324D01*
X140945625Y-115506423D01*
X141119945Y-115389945D01*
X141236423Y-115215625D01*
X141242117Y-115187000D01*
X144248916Y-115187000D01*
X144551669Y-115489753D01*
X145076152Y-115707000D01*
X145643848Y-115707000D01*
X146168331Y-115489753D01*
X146569753Y-115088331D01*
X146787000Y-114563848D01*
X146787000Y-113996152D01*
X146569753Y-113471669D01*
X146168331Y-113070247D01*
X145643848Y-112853000D01*
X145076152Y-112853000D01*
X144551669Y-113070247D01*
X144288916Y-113333000D01*
X141242117Y-113333000D01*
X141236423Y-113304375D01*
X141119945Y-113130055D01*
X141089931Y-113110000D01*
X141119945Y-113089945D01*
X141236423Y-112915625D01*
X141277324Y-112710000D01*
X141277324Y-111983651D01*
X142400048Y-110860928D01*
X142400050Y-110860925D01*
X143133976Y-110127000D01*
X144268916Y-110127000D01*
X144551669Y-110409753D01*
X145076152Y-110627000D01*
X145643848Y-110627000D01*
X146168331Y-110409753D01*
X146279240Y-110298844D01*
X154953394Y-118973000D01*
X113602000Y-118973000D01*
X113602000Y-104726913D01*
X121843000Y-104726913D01*
X121843000Y-105573087D01*
X122166817Y-106354848D01*
X122765152Y-106953183D01*
X123546913Y-107277000D01*
X124393087Y-107277000D01*
X125174848Y-106953183D01*
X125773183Y-106354848D01*
X126097000Y-105573087D01*
X126097000Y-104726913D01*
X125773183Y-103945152D01*
X125174848Y-103346817D01*
X124393087Y-103023000D01*
X123546913Y-103023000D01*
X122765152Y-103346817D01*
X122166817Y-103945152D01*
X121843000Y-104726913D01*
X113602000Y-104726913D01*
X113602000Y-81919608D01*
X119053000Y-81919608D01*
X119053001Y-100220393D01*
X119141599Y-100665806D01*
X119479096Y-101170905D01*
X119984195Y-101508402D01*
X120580000Y-101626915D01*
X121175806Y-101508402D01*
X121680905Y-101170905D01*
X122018402Y-100665806D01*
X122107000Y-100220393D01*
X122107000Y-94020020D01*
X123792676Y-94020020D01*
X123792676Y-94420020D01*
X123833577Y-94625645D01*
X123950055Y-94799965D01*
X124124375Y-94916443D01*
X124142348Y-94920018D01*
X124124375Y-94923593D01*
X123950055Y-95040071D01*
X123833577Y-95214391D01*
X123792676Y-95420016D01*
X123792676Y-95820016D01*
X123833577Y-96025641D01*
X123950055Y-96199961D01*
X124124375Y-96316439D01*
X124142348Y-96320014D01*
X124124375Y-96323589D01*
X123950055Y-96440067D01*
X123833577Y-96614387D01*
X123792676Y-96820012D01*
X123792676Y-97220012D01*
X123822512Y-97370011D01*
X123792676Y-97520010D01*
X123792676Y-97920010D01*
X123822512Y-98070009D01*
X123792676Y-98220008D01*
X123792676Y-98620008D01*
X123822512Y-98770007D01*
X123792676Y-98920006D01*
X123792676Y-99320006D01*
X123822512Y-99470005D01*
X123792676Y-99620004D01*
X123792676Y-100020004D01*
X123822512Y-100170003D01*
X123792676Y-100320002D01*
X123792676Y-100720002D01*
X123833577Y-100925627D01*
X123950055Y-101099947D01*
X124124375Y-101216425D01*
X124330000Y-101257326D01*
X128330000Y-101257326D01*
X128381903Y-101247002D01*
X128875328Y-101247002D01*
X128991762Y-101363436D01*
X129032321Y-101424137D01*
X129272797Y-101584818D01*
X129383757Y-101606889D01*
X129567676Y-101790809D01*
X129567676Y-102100000D01*
X129608577Y-102305625D01*
X129725055Y-102479945D01*
X129899375Y-102596423D01*
X130105000Y-102637324D01*
X130855000Y-102637324D01*
X131060625Y-102596423D01*
X131234945Y-102479945D01*
X131351423Y-102305625D01*
X131392324Y-102100000D01*
X131392324Y-101300000D01*
X131351423Y-101094375D01*
X131254954Y-100950000D01*
X131350527Y-100806965D01*
X131499375Y-100906423D01*
X131705000Y-100947324D01*
X132455000Y-100947324D01*
X132660625Y-100906423D01*
X132834945Y-100789945D01*
X132951423Y-100615625D01*
X132992324Y-100410000D01*
X132992324Y-99610000D01*
X132951423Y-99404375D01*
X132854954Y-99260000D01*
X132951423Y-99115625D01*
X132992324Y-98910000D01*
X132992324Y-98110000D01*
X132951423Y-97904375D01*
X132834945Y-97730055D01*
X132660625Y-97613577D01*
X132455000Y-97572676D01*
X131705000Y-97572676D01*
X131499375Y-97613577D01*
X131448270Y-97647725D01*
X131486423Y-97590625D01*
X131527324Y-97385000D01*
X131527324Y-96635000D01*
X131486423Y-96429375D01*
X131388295Y-96282517D01*
X131476423Y-96150625D01*
X131517324Y-95945000D01*
X131517324Y-95352000D01*
X132367449Y-95352000D01*
X140863001Y-103847553D01*
X140863000Y-107124186D01*
X140763000Y-107365608D01*
X140763000Y-107734392D01*
X140904127Y-108075103D01*
X141164897Y-108335873D01*
X141505608Y-108477000D01*
X141874392Y-108477000D01*
X142215103Y-108335873D01*
X142475873Y-108075103D01*
X142617000Y-107734392D01*
X142617000Y-107365608D01*
X142517000Y-107124186D01*
X142517000Y-103586442D01*
X142533200Y-103504998D01*
X142517000Y-103423554D01*
X142517000Y-103423550D01*
X142469016Y-103182319D01*
X142286233Y-102908765D01*
X142217184Y-102862628D01*
X133352374Y-93997819D01*
X133306235Y-93928767D01*
X133032681Y-93745984D01*
X132791450Y-93698000D01*
X132791446Y-93698000D01*
X132710002Y-93681800D01*
X132628558Y-93698000D01*
X130530572Y-93698000D01*
X130529157Y-93695883D01*
X130288681Y-93535202D01*
X130076619Y-93493020D01*
X130076615Y-93493020D01*
X130005020Y-93478779D01*
X129933425Y-93493020D01*
X128381903Y-93493020D01*
X128330000Y-93482696D01*
X124330000Y-93482696D01*
X124124375Y-93523597D01*
X123950055Y-93640075D01*
X123833577Y-93814395D01*
X123792676Y-94020020D01*
X122107000Y-94020020D01*
X122107000Y-82120054D01*
X123792676Y-82120054D01*
X123792676Y-82520054D01*
X123822512Y-82670053D01*
X123792676Y-82820052D01*
X123792676Y-83220052D01*
X123822512Y-83370051D01*
X123792676Y-83520050D01*
X123792676Y-83920050D01*
X123833577Y-84125675D01*
X123950055Y-84299995D01*
X124124375Y-84416473D01*
X124330000Y-84457374D01*
X128330000Y-84457374D01*
X128381903Y-84447050D01*
X128816067Y-84447050D01*
X128853577Y-84635625D01*
X128970055Y-84809945D01*
X129144375Y-84926423D01*
X129350000Y-84967324D01*
X130250000Y-84967324D01*
X130455625Y-84926423D01*
X130629945Y-84809945D01*
X130706250Y-84695747D01*
X130865000Y-84727324D01*
X131615000Y-84727324D01*
X131820625Y-84686423D01*
X131994945Y-84569945D01*
X132111423Y-84395625D01*
X132152324Y-84190000D01*
X132152324Y-83390000D01*
X132111423Y-83184375D01*
X131994945Y-83010055D01*
X131820625Y-82893577D01*
X131615000Y-82852676D01*
X131330808Y-82852676D01*
X131034748Y-82556616D01*
X130994189Y-82495915D01*
X130753713Y-82335234D01*
X130712324Y-82327001D01*
X130712324Y-81570000D01*
X130671423Y-81364375D01*
X130554945Y-81190055D01*
X130380625Y-81073577D01*
X130175000Y-81032676D01*
X129425000Y-81032676D01*
X129219375Y-81073577D01*
X129045055Y-81190055D01*
X128928577Y-81364375D01*
X128887676Y-81570000D01*
X128887676Y-81593054D01*
X128381903Y-81593054D01*
X128330000Y-81582730D01*
X124330000Y-81582730D01*
X124124375Y-81623631D01*
X123950055Y-81740109D01*
X123833577Y-81914429D01*
X123792676Y-82120054D01*
X122107000Y-82120054D01*
X122107000Y-81919607D01*
X122018402Y-81474194D01*
X121680905Y-80969095D01*
X121175805Y-80631598D01*
X120580000Y-80513085D01*
X119984194Y-80631598D01*
X119479095Y-80969095D01*
X119141598Y-81474195D01*
X119053000Y-81919608D01*
X113602000Y-81919608D01*
X113602000Y-74726913D01*
X121843000Y-74726913D01*
X121843000Y-75573087D01*
X122166817Y-76354848D01*
X122765152Y-76953183D01*
X123546913Y-77277000D01*
X124393087Y-77277000D01*
X125174848Y-76953183D01*
X125773183Y-76354848D01*
X126097000Y-75573087D01*
X126097000Y-74726913D01*
X125773183Y-73945152D01*
X125174848Y-73346817D01*
X124393087Y-73023000D01*
X123546913Y-73023000D01*
X122765152Y-73346817D01*
X122166817Y-73945152D01*
X121843000Y-74726913D01*
X113602000Y-74726913D01*
X113602000Y-53034976D01*
X113653085Y-52596805D01*
X113973000Y-52596805D01*
X113973000Y-53403195D01*
X114281593Y-54148203D01*
X114851797Y-54718407D01*
X115596805Y-55027000D01*
X116403195Y-55027000D01*
X117148203Y-54718407D01*
X117718407Y-54148203D01*
X118027000Y-53403195D01*
X118027000Y-52596805D01*
X117718407Y-51851797D01*
X117148203Y-51281593D01*
X116403195Y-50973000D01*
X115596805Y-50973000D01*
X114851797Y-51281593D01*
X114281593Y-51851797D01*
X113973000Y-52596805D01*
X113653085Y-52596805D01*
X113670285Y-52449276D01*
X113859462Y-51928102D01*
X114163467Y-51464419D01*
X114565982Y-51083113D01*
X115045427Y-50804629D01*
X115583958Y-50641524D01*
X116026814Y-50602000D01*
X181965024Y-50602000D01*
X182550724Y-50670285D01*
D52*
G04 #@! TO.N,+12P*
G36*
X127150503Y-135824929D02*
X127154468Y-135834491D01*
X127156039Y-137708060D01*
X127165017Y-137753780D01*
X127151064Y-137787562D01*
X126948182Y-137872324D01*
X125264223Y-137879168D01*
X125258472Y-137880340D01*
X125046241Y-137969532D01*
X125041392Y-137972808D01*
X125038153Y-137977721D01*
X124951614Y-138191048D01*
X124950515Y-138196813D01*
X125001284Y-144238320D01*
X124917801Y-144443513D01*
X124713319Y-144528716D01*
X120895683Y-144528716D01*
X120691916Y-144444234D01*
X120607702Y-144240354D01*
X120618509Y-136037180D01*
X120702843Y-135833935D01*
X120906075Y-135749572D01*
X126946598Y-135740731D01*
X127150503Y-135824929D01*
X127150503Y-135824929D01*
G37*
X127150503Y-135824929D02*
X127154468Y-135834491D01*
X127156039Y-137708060D01*
X127165017Y-137753780D01*
X127151064Y-137787562D01*
X126948182Y-137872324D01*
X125264223Y-137879168D01*
X125258472Y-137880340D01*
X125046241Y-137969532D01*
X125041392Y-137972808D01*
X125038153Y-137977721D01*
X124951614Y-138191048D01*
X124950515Y-138196813D01*
X125001284Y-144238320D01*
X124917801Y-144443513D01*
X124713319Y-144528716D01*
X120895683Y-144528716D01*
X120691916Y-144444234D01*
X120607702Y-144240354D01*
X120618509Y-136037180D01*
X120702843Y-135833935D01*
X120906075Y-135749572D01*
X126946598Y-135740731D01*
X127150503Y-135824929D01*
D54*
G04 #@! TO.N,+12V*
G36*
X162615402Y-120592021D02*
X167917572Y-130669067D01*
X169663000Y-133991331D01*
X169663000Y-135343000D01*
X167428316Y-135343000D01*
X167436993Y-134501309D01*
X167422754Y-134441557D01*
X166432754Y-132531557D01*
X166432072Y-132530260D01*
X161352072Y-123000260D01*
X161320679Y-122961919D01*
X161277004Y-122938510D01*
X161239985Y-122933000D01*
X129429049Y-122936813D01*
X129380449Y-122946486D01*
X129339251Y-122974021D01*
X129311725Y-123015226D01*
X129302064Y-123063840D01*
X129304175Y-132889845D01*
X129313853Y-132938444D01*
X129341392Y-132979640D01*
X129382599Y-133007161D01*
X129431343Y-133016818D01*
X142113000Y-133000033D01*
X142113000Y-134040000D01*
X142160728Y-134279943D01*
X142248596Y-134492075D01*
X142384512Y-134695488D01*
X142587925Y-134831404D01*
X142800057Y-134919272D01*
X143040000Y-134967000D01*
X144423000Y-134967000D01*
X144423000Y-135567000D01*
X143498698Y-135567000D01*
X143450054Y-135576676D01*
X142828000Y-135576676D01*
X142622375Y-135617577D01*
X142539429Y-135673000D01*
X142318166Y-135673000D01*
X142269565Y-135682667D01*
X142228363Y-135710197D01*
X142200833Y-135751399D01*
X142191166Y-135800078D01*
X142193000Y-138780078D01*
X142202697Y-138828673D01*
X142230253Y-138869858D01*
X142271471Y-138897363D01*
X142319912Y-138907000D01*
X143113000Y-138907547D01*
X143113000Y-140096147D01*
X142995000Y-140072676D01*
X142245000Y-140072676D01*
X142039375Y-140113577D01*
X141950443Y-140173000D01*
X133854960Y-140173000D01*
X127797968Y-137623266D01*
X127795773Y-135005738D01*
X127786065Y-134957146D01*
X127758500Y-134915967D01*
X127717275Y-134888472D01*
X127669239Y-134878846D01*
X125163548Y-134869656D01*
X125154979Y-120581993D01*
X162615402Y-120592021D01*
X162615402Y-120592021D01*
G37*
X162615402Y-120592021D02*
X167917572Y-130669067D01*
X169663000Y-133991331D01*
X169663000Y-135343000D01*
X167428316Y-135343000D01*
X167436993Y-134501309D01*
X167422754Y-134441557D01*
X166432754Y-132531557D01*
X166432072Y-132530260D01*
X161352072Y-123000260D01*
X161320679Y-122961919D01*
X161277004Y-122938510D01*
X161239985Y-122933000D01*
X129429049Y-122936813D01*
X129380449Y-122946486D01*
X129339251Y-122974021D01*
X129311725Y-123015226D01*
X129302064Y-123063840D01*
X129304175Y-132889845D01*
X129313853Y-132938444D01*
X129341392Y-132979640D01*
X129382599Y-133007161D01*
X129431343Y-133016818D01*
X142113000Y-133000033D01*
X142113000Y-134040000D01*
X142160728Y-134279943D01*
X142248596Y-134492075D01*
X142384512Y-134695488D01*
X142587925Y-134831404D01*
X142800057Y-134919272D01*
X143040000Y-134967000D01*
X144423000Y-134967000D01*
X144423000Y-135567000D01*
X143498698Y-135567000D01*
X143450054Y-135576676D01*
X142828000Y-135576676D01*
X142622375Y-135617577D01*
X142539429Y-135673000D01*
X142318166Y-135673000D01*
X142269565Y-135682667D01*
X142228363Y-135710197D01*
X142200833Y-135751399D01*
X142191166Y-135800078D01*
X142193000Y-138780078D01*
X142202697Y-138828673D01*
X142230253Y-138869858D01*
X142271471Y-138897363D01*
X142319912Y-138907000D01*
X143113000Y-138907547D01*
X143113000Y-140096147D01*
X142995000Y-140072676D01*
X142245000Y-140072676D01*
X142039375Y-140113577D01*
X141950443Y-140173000D01*
X133854960Y-140173000D01*
X127797968Y-137623266D01*
X127795773Y-135005738D01*
X127786065Y-134957146D01*
X127758500Y-134915967D01*
X127717275Y-134888472D01*
X127669239Y-134878846D01*
X125163548Y-134869656D01*
X125154979Y-120581993D01*
X162615402Y-120592021D01*
G04 #@! TD*
M02*
