M48
INCH,TZ
T1C0.0118
T2C0.0157
T3C0.0236
T4C0.0300
T5C0.0315
T6C0.0320
T7C0.0354
T8C0.0394
T9C0.0394
T10C0.0500
T11C0.0512
T12C0.0590
T13C0.0591
T14C0.1181
%
G90
G05
T1
X53406Y-54453
X52106Y-54449
T2
X50669Y-35169
X52051Y-25772
X52551Y-22953
X52555Y-25764
X52933Y-28516
X53402Y-35165
X54051Y-25431
X54051Y-27248
X54638Y-37996
X55783Y-42343
X66988Y-53097
X70758Y-53120
T3
X54961Y-55772
X55461Y-53783
X57823Y-53783
T4
X69094Y-23594
X70094Y-23594
X71094Y-23594
T5
X60108Y-50341
X61604Y-50341
T6
X52476Y-56626
X53476Y-56626
X54476Y-56626
T7
X60421Y-33992
X60421Y-34992
X60421Y-35992
X60421Y-36992
X57228Y-25992
X57228Y-26992
X57228Y-27992
X57228Y-28992
X57228Y-29992
X57228Y-30992
X57228Y-31992
X57228Y-32992
X57228Y-33992
X57228Y-34992
X57228Y-35992
X57228Y-36992
X57228Y-37992
X57228Y-38992
X57228Y-39992
X57228Y-40992
X57228Y-41992
X57228Y-42992
X57228Y-43992
X57228Y-44992
X63228Y-25992
X63228Y-26992
X63228Y-27992
X63228Y-28992
X63228Y-29992
X63228Y-30992
X63228Y-31992
X63228Y-32992
X63228Y-33992
X63228Y-34992
X63228Y-35992
X63228Y-36992
X63228Y-37992
X63228Y-38992
X63228Y-39992
X63228Y-40992
X63228Y-41992
X63228Y-42992
X63228Y-43992
X63228Y-44992
X66429Y-22031
X67429Y-22031
X68429Y-22031
T8
X49717Y-53724
X50717Y-53724
X47791Y-26185
X55457Y-23992
X55457Y-24992
X55457Y-25992
X55457Y-26992
X55457Y-27992
X55457Y-28992
X55457Y-29992
T9
X58508Y-49295
T10
X54508Y-49295
T11
X54760Y-51264
X55760Y-51264
X56760Y-51264
X66134Y-20929
X68890Y-20929
X56339Y-20929
X64213Y-20929
T12
X66406Y-36923
X67406Y-34423
X66406Y-44404
X67406Y-41904
X66406Y-29443
X67406Y-26943
T13
X59516Y-56039
X61484Y-56039
X48409Y-56043
X50378Y-56043
T14
X48807Y-29587
X48807Y-41398
X60028Y-29587
X60028Y-41398
T0
M30
