M48
INCH
T1C0.0157
T2C0.0236
T3C0.0300
T4C0.0315
T5C0.0320
T6C0.0354
T7C0.0394
T8C0.0394
T9C0.0500
T10C0.0512
T11C0.0591
%
G90
G05
T1
X4.926Y-4.876
X5.0669Y-3.5169
X5.1134Y-4.728
X5.2295Y-3.6268
X5.3402Y-3.5165
X5.4094Y-3.5134
X5.4102Y-3.6866
X5.524Y-3.5
X5.524Y-3.5587
X5.5783Y-4.075
X5.5902Y-3.8437
X6.3705Y-5.3024
T2
X6.0189Y-5.3815
T3
X6.5752Y-2.6795
X6.5752Y-2.7795
X6.5752Y-2.8795
T4
X6.4953Y-4.9315
X6.6449Y-4.9315
T5
X5.8543Y-5.6827
X5.9543Y-5.6827
X6.0543Y-5.6827
T6
X5.7228Y-2.5992
X5.7228Y-2.6992
X5.7228Y-2.7992
X5.7228Y-2.8992
X5.7228Y-2.9992
X5.7228Y-3.0992
X5.7228Y-3.1992
X5.7228Y-3.2992
X5.7228Y-3.3992
X5.7228Y-3.4992
X5.7228Y-3.5992
X5.7228Y-3.6992
X5.7228Y-3.7992
X5.7228Y-3.8992
X5.7228Y-3.9992
X5.7228Y-4.0992
X5.7228Y-4.1992
X5.7228Y-4.2992
X5.7228Y-4.3992
X5.7228Y-4.4992
X6.3228Y-2.5992
X6.3228Y-2.6992
X6.3228Y-2.7992
X6.3228Y-2.8992
X6.3228Y-2.9992
X6.3228Y-3.0992
X6.3228Y-3.1992
X6.3228Y-3.2992
X6.3228Y-3.3992
X6.3228Y-3.4992
X6.3228Y-3.5992
X6.3228Y-3.6992
X6.3228Y-3.7992
X6.3228Y-3.8992
X6.3228Y-3.9992
X6.3228Y-4.0992
X6.3228Y-4.1992
X6.3228Y-4.2992
X6.3228Y-4.3992
X6.3228Y-4.4992
T7
X6.0154Y-4.0409
X6.1154Y-4.0409
X5.0937Y-5.2705
X5.1937Y-5.2705
X5.85Y-3.2209
X5.85Y-3.3209
X6.0154Y-3.8972
X6.1154Y-3.8972
X5.8472Y-2.3996
X5.8472Y-2.4996
X5.8472Y-2.5996
X5.8472Y-2.6996
X5.8472Y-2.7996
X5.8472Y-2.8996
X5.8472Y-2.9996
X4.9299Y-2.3079
X6.0154Y-4.1854
X6.1154Y-4.1854
T8
X6.3236Y-4.9327
T9
X5.9236Y-4.9327
T10
X5.1906Y-2.1898
X5.1906Y-2.9772
X6.1787Y-2.0957
X6.1787Y-2.3713
X5.9488Y-5.1295
X6.0488Y-5.1295
X6.1488Y-5.1295
T11
X6.2799Y-5.6295
X6.4768Y-5.6295
X5.1224Y-5.6291
X5.3193Y-5.6291
T0
M30
