G04 #@! TF.GenerationSoftware,KiCad,Pcbnew,5.1.5*
G04 #@! TF.CreationDate,2020-03-31T14:29:14+02:00*
G04 #@! TF.ProjectId,nixie_control_board,6e697869-655f-4636-9f6e-74726f6c5f62,rev?*
G04 #@! TF.SameCoordinates,Original*
G04 #@! TF.FileFunction,Legend,Bot*
G04 #@! TF.FilePolarity,Positive*
%FSLAX46Y46*%
G04 Gerber Fmt 4.6, Leading zero omitted, Abs format (unit mm)*
G04 Created by KiCad (PCBNEW 5.1.5) date 2020-03-31 14:29:14*
%MOMM*%
%LPD*%
G04 APERTURE LIST*
%ADD10C,0.150000*%
%ADD11C,0.120000*%
G04 APERTURE END LIST*
D10*
X123320000Y-97070000D02*
X120580000Y-97070000D01*
X127278000Y-80198000D02*
X127278000Y-101942000D01*
X140482000Y-101942000D02*
X127278000Y-101942000D01*
X142580000Y-104420000D02*
X123320000Y-104420000D01*
X123320000Y-104420000D02*
X123320000Y-77720000D01*
X142580000Y-104420000D02*
X142580000Y-77720000D01*
X142580000Y-77720000D02*
X123320000Y-77720000D01*
X140482000Y-80198000D02*
X127278000Y-80198000D01*
X140482000Y-80198000D02*
X140482000Y-101942000D01*
X119580000Y-96070000D02*
X119580000Y-88070000D01*
X123320000Y-85070000D02*
X120580000Y-85070000D01*
D11*
X156190000Y-117340000D02*
X154930000Y-117340000D01*
X149370000Y-117340000D02*
X150630000Y-117340000D01*
X156190000Y-113580000D02*
X156190000Y-117340000D01*
X149370000Y-111330000D02*
X149370000Y-117340000D01*
D10*
X157210000Y-112120000D02*
X157210000Y-112820000D01*
X158410000Y-112820000D02*
X158410000Y-112120000D01*
X148630000Y-118740000D02*
X148630000Y-118040000D01*
X147430000Y-118040000D02*
X147430000Y-118740000D01*
X158355000Y-119070000D02*
X158355000Y-118070000D01*
X157005000Y-118070000D02*
X157005000Y-119070000D01*
X159025000Y-118070000D02*
X159025000Y-119070000D01*
X160375000Y-119070000D02*
X160375000Y-118070000D01*
X121032380Y-102308095D02*
X121841904Y-102308095D01*
X121937142Y-102355714D01*
X121984761Y-102403333D01*
X122032380Y-102498571D01*
X122032380Y-102689047D01*
X121984761Y-102784285D01*
X121937142Y-102831904D01*
X121841904Y-102879523D01*
X121032380Y-102879523D01*
X121032380Y-103260476D02*
X121032380Y-103927142D01*
X122032380Y-103498571D01*
X148772380Y-111191904D02*
X147772380Y-111191904D01*
X147772380Y-111572857D01*
X147820000Y-111668095D01*
X147867619Y-111715714D01*
X147962857Y-111763333D01*
X148105714Y-111763333D01*
X148200952Y-111715714D01*
X148248571Y-111668095D01*
X148296190Y-111572857D01*
X148296190Y-111191904D01*
X147772380Y-112096666D02*
X147772380Y-112715714D01*
X148153333Y-112382380D01*
X148153333Y-112525238D01*
X148200952Y-112620476D01*
X148248571Y-112668095D01*
X148343809Y-112715714D01*
X148581904Y-112715714D01*
X148677142Y-112668095D01*
X148724761Y-112620476D01*
X148772380Y-112525238D01*
X148772380Y-112239523D01*
X148724761Y-112144285D01*
X148677142Y-112096666D01*
X158177142Y-114803333D02*
X158224761Y-114755714D01*
X158272380Y-114612857D01*
X158272380Y-114517619D01*
X158224761Y-114374761D01*
X158129523Y-114279523D01*
X158034285Y-114231904D01*
X157843809Y-114184285D01*
X157700952Y-114184285D01*
X157510476Y-114231904D01*
X157415238Y-114279523D01*
X157320000Y-114374761D01*
X157272380Y-114517619D01*
X157272380Y-114612857D01*
X157320000Y-114755714D01*
X157367619Y-114803333D01*
X157700952Y-115374761D02*
X157653333Y-115279523D01*
X157605714Y-115231904D01*
X157510476Y-115184285D01*
X157462857Y-115184285D01*
X157367619Y-115231904D01*
X157320000Y-115279523D01*
X157272380Y-115374761D01*
X157272380Y-115565238D01*
X157320000Y-115660476D01*
X157367619Y-115708095D01*
X157462857Y-115755714D01*
X157510476Y-115755714D01*
X157605714Y-115708095D01*
X157653333Y-115660476D01*
X157700952Y-115565238D01*
X157700952Y-115374761D01*
X157748571Y-115279523D01*
X157796190Y-115231904D01*
X157891428Y-115184285D01*
X158081904Y-115184285D01*
X158177142Y-115231904D01*
X158224761Y-115279523D01*
X158272380Y-115374761D01*
X158272380Y-115565238D01*
X158224761Y-115660476D01*
X158177142Y-115708095D01*
X158081904Y-115755714D01*
X157891428Y-115755714D01*
X157796190Y-115708095D01*
X157748571Y-115660476D01*
X157700952Y-115565238D01*
X148397142Y-120673333D02*
X148444761Y-120625714D01*
X148492380Y-120482857D01*
X148492380Y-120387619D01*
X148444761Y-120244761D01*
X148349523Y-120149523D01*
X148254285Y-120101904D01*
X148063809Y-120054285D01*
X147920952Y-120054285D01*
X147730476Y-120101904D01*
X147635238Y-120149523D01*
X147540000Y-120244761D01*
X147492380Y-120387619D01*
X147492380Y-120482857D01*
X147540000Y-120625714D01*
X147587619Y-120673333D01*
X148492380Y-121149523D02*
X148492380Y-121340000D01*
X148444761Y-121435238D01*
X148397142Y-121482857D01*
X148254285Y-121578095D01*
X148063809Y-121625714D01*
X147682857Y-121625714D01*
X147587619Y-121578095D01*
X147540000Y-121530476D01*
X147492380Y-121435238D01*
X147492380Y-121244761D01*
X147540000Y-121149523D01*
X147587619Y-121101904D01*
X147682857Y-121054285D01*
X147920952Y-121054285D01*
X148016190Y-121101904D01*
X148063809Y-121149523D01*
X148111428Y-121244761D01*
X148111428Y-121435238D01*
X148063809Y-121530476D01*
X148016190Y-121578095D01*
X147920952Y-121625714D01*
X158092380Y-120773333D02*
X157616190Y-120440000D01*
X158092380Y-120201904D02*
X157092380Y-120201904D01*
X157092380Y-120582857D01*
X157140000Y-120678095D01*
X157187619Y-120725714D01*
X157282857Y-120773333D01*
X157425714Y-120773333D01*
X157520952Y-120725714D01*
X157568571Y-120678095D01*
X157616190Y-120582857D01*
X157616190Y-120201904D01*
X157425714Y-121630476D02*
X158092380Y-121630476D01*
X157044761Y-121392380D02*
X157759047Y-121154285D01*
X157759047Y-121773333D01*
X160202380Y-120843333D02*
X159726190Y-120510000D01*
X160202380Y-120271904D02*
X159202380Y-120271904D01*
X159202380Y-120652857D01*
X159250000Y-120748095D01*
X159297619Y-120795714D01*
X159392857Y-120843333D01*
X159535714Y-120843333D01*
X159630952Y-120795714D01*
X159678571Y-120748095D01*
X159726190Y-120652857D01*
X159726190Y-120271904D01*
X159202380Y-121748095D02*
X159202380Y-121271904D01*
X159678571Y-121224285D01*
X159630952Y-121271904D01*
X159583333Y-121367142D01*
X159583333Y-121605238D01*
X159630952Y-121700476D01*
X159678571Y-121748095D01*
X159773809Y-121795714D01*
X160011904Y-121795714D01*
X160107142Y-121748095D01*
X160154761Y-121700476D01*
X160202380Y-121605238D01*
X160202380Y-121367142D01*
X160154761Y-121271904D01*
X160107142Y-121224285D01*
M02*
