G04 #@! TF.GenerationSoftware,KiCad,Pcbnew,5.0.0*
G04 #@! TF.CreationDate,2018-07-28T18:19:29+02:00*
G04 #@! TF.ProjectId,nixie_control_board,6E697869655F636F6E74726F6C5F626F,rev?*
G04 #@! TF.SameCoordinates,Original*
G04 #@! TF.FileFunction,Legend,Top*
G04 #@! TF.FilePolarity,Positive*
%FSLAX46Y46*%
G04 Gerber Fmt 4.6, Leading zero omitted, Abs format (unit mm)*
G04 Created by KiCad (PCBNEW 5.0.0) date Sat Jul 28 18:19:29 2018*
%MOMM*%
%LPD*%
G01*
G04 APERTURE LIST*
%ADD10C,0.300000*%
%ADD11C,0.150000*%
%ADD12C,0.198120*%
%ADD13C,0.120000*%
%ADD14C,0.398780*%
%ADD15C,0.100000*%
%ADD16C,0.124460*%
G04 APERTURE END LIST*
D10*
X116014285Y-137528571D02*
X115157142Y-137528571D01*
X115585714Y-137528571D02*
X115585714Y-136028571D01*
X115442857Y-136242857D01*
X115300000Y-136385714D01*
X115157142Y-136457142D01*
X116585714Y-136171428D02*
X116657142Y-136100000D01*
X116800000Y-136028571D01*
X117157142Y-136028571D01*
X117300000Y-136100000D01*
X117371428Y-136171428D01*
X117442857Y-136314285D01*
X117442857Y-136457142D01*
X117371428Y-136671428D01*
X116514285Y-137528571D01*
X117442857Y-137528571D01*
X117871428Y-136028571D02*
X118371428Y-137528571D01*
X118871428Y-136028571D01*
X121300000Y-136100000D02*
X121157142Y-136028571D01*
X120942857Y-136028571D01*
X120728571Y-136100000D01*
X120585714Y-136242857D01*
X120514285Y-136385714D01*
X120442857Y-136671428D01*
X120442857Y-136885714D01*
X120514285Y-137171428D01*
X120585714Y-137314285D01*
X120728571Y-137457142D01*
X120942857Y-137528571D01*
X121085714Y-137528571D01*
X121300000Y-137457142D01*
X121371428Y-137385714D01*
X121371428Y-136885714D01*
X121085714Y-136885714D01*
X122014285Y-137528571D02*
X122014285Y-136028571D01*
X122871428Y-137528571D01*
X122871428Y-136028571D01*
X123585714Y-137528571D02*
X123585714Y-136028571D01*
X123942857Y-136028571D01*
X124157142Y-136100000D01*
X124300000Y-136242857D01*
X124371428Y-136385714D01*
X124442857Y-136671428D01*
X124442857Y-136885714D01*
X124371428Y-137171428D01*
X124300000Y-137314285D01*
X124157142Y-137457142D01*
X123942857Y-137528571D01*
X123585714Y-137528571D01*
X160070000Y-146008571D02*
X159212857Y-146008571D01*
X159641428Y-146008571D02*
X159641428Y-144508571D01*
X159498571Y-144722857D01*
X159355714Y-144865714D01*
X159212857Y-144937142D01*
X160927142Y-145151428D02*
X160784285Y-145080000D01*
X160712857Y-145008571D01*
X160641428Y-144865714D01*
X160641428Y-144794285D01*
X160712857Y-144651428D01*
X160784285Y-144580000D01*
X160927142Y-144508571D01*
X161212857Y-144508571D01*
X161355714Y-144580000D01*
X161427142Y-144651428D01*
X161498571Y-144794285D01*
X161498571Y-144865714D01*
X161427142Y-145008571D01*
X161355714Y-145080000D01*
X161212857Y-145151428D01*
X160927142Y-145151428D01*
X160784285Y-145222857D01*
X160712857Y-145294285D01*
X160641428Y-145437142D01*
X160641428Y-145722857D01*
X160712857Y-145865714D01*
X160784285Y-145937142D01*
X160927142Y-146008571D01*
X161212857Y-146008571D01*
X161355714Y-145937142D01*
X161427142Y-145865714D01*
X161498571Y-145722857D01*
X161498571Y-145437142D01*
X161427142Y-145294285D01*
X161355714Y-145222857D01*
X161212857Y-145151428D01*
X162427142Y-144508571D02*
X162570000Y-144508571D01*
X162712857Y-144580000D01*
X162784285Y-144651428D01*
X162855714Y-144794285D01*
X162927142Y-145080000D01*
X162927142Y-145437142D01*
X162855714Y-145722857D01*
X162784285Y-145865714D01*
X162712857Y-145937142D01*
X162570000Y-146008571D01*
X162427142Y-146008571D01*
X162284285Y-145937142D01*
X162212857Y-145865714D01*
X162141428Y-145722857D01*
X162070000Y-145437142D01*
X162070000Y-145080000D01*
X162141428Y-144794285D01*
X162212857Y-144651428D01*
X162284285Y-144580000D01*
X162427142Y-144508571D01*
X163355714Y-144508571D02*
X163855714Y-146008571D01*
X164355714Y-144508571D01*
X166784285Y-144580000D02*
X166641428Y-144508571D01*
X166427142Y-144508571D01*
X166212857Y-144580000D01*
X166070000Y-144722857D01*
X165998571Y-144865714D01*
X165927142Y-145151428D01*
X165927142Y-145365714D01*
X165998571Y-145651428D01*
X166070000Y-145794285D01*
X166212857Y-145937142D01*
X166427142Y-146008571D01*
X166570000Y-146008571D01*
X166784285Y-145937142D01*
X166855714Y-145865714D01*
X166855714Y-145365714D01*
X166570000Y-145365714D01*
X167498571Y-146008571D02*
X167498571Y-144508571D01*
X168355714Y-146008571D01*
X168355714Y-144508571D01*
X169070000Y-146008571D02*
X169070000Y-144508571D01*
X169427142Y-144508571D01*
X169641428Y-144580000D01*
X169784285Y-144722857D01*
X169855714Y-144865714D01*
X169927142Y-145151428D01*
X169927142Y-145365714D01*
X169855714Y-145651428D01*
X169784285Y-145794285D01*
X169641428Y-145937142D01*
X169427142Y-146008571D01*
X169070000Y-146008571D01*
D11*
G04 #@! TO.C,U7*
X126330000Y-80070000D02*
X126330000Y-80570000D01*
X126330000Y-102070000D02*
X126330000Y-101570000D01*
X122330000Y-102070000D02*
X120330000Y-97070000D01*
X126330000Y-80070000D02*
X122330000Y-80070000D01*
X126330000Y-102070000D02*
X122330000Y-102070000D01*
X122330000Y-80070000D02*
X120330000Y-85070000D01*
G04 #@! TO.C,U5*
X172960000Y-62470000D02*
X172960000Y-57390000D01*
X183120000Y-62470000D02*
X172960000Y-62470000D01*
X183120000Y-57390000D02*
X183120000Y-62470000D01*
X172960000Y-57390000D02*
X183120000Y-57390000D01*
G04 #@! TO.C,L1*
X122182000Y-134548000D02*
X122182000Y-122548000D01*
X134182000Y-134548000D02*
X122182000Y-134548000D01*
X134182000Y-122548000D02*
X134182000Y-134548000D01*
X122182000Y-122548000D02*
X134182000Y-122548000D01*
G04 #@! TO.C,MCU1*
X146376000Y-111740000D02*
G75*
G03X146376000Y-111740000I-1016000J0D01*
G01*
X161616000Y-68560000D02*
G75*
G03X161616000Y-68560000I-1016000J0D01*
G01*
X161616000Y-66020000D02*
G75*
G03X161616000Y-66020000I-1016000J0D01*
G01*
X147906400Y-68553600D02*
X147906400Y-63473600D01*
X150446400Y-68553600D02*
X147906400Y-68553600D01*
X158066400Y-68553600D02*
X150446400Y-68553600D01*
X158066400Y-63473600D02*
X158066400Y-68553600D01*
X142826400Y-63473600D02*
X163146400Y-63473600D01*
X142826400Y-116813600D02*
X142826400Y-63473600D01*
X163146400Y-116813600D02*
X142826400Y-116813600D01*
X163146400Y-63473600D02*
X163146400Y-116813600D01*
D12*
G04 #@! TO.C,U1*
X133198480Y-63851260D02*
X133198480Y-63350880D01*
X133797920Y-63851260D02*
X133198480Y-63851260D01*
X133797920Y-70294865D02*
X133797920Y-63251820D01*
X124006220Y-63251820D02*
X123902080Y-63251820D01*
X133797920Y-63251820D02*
X133693780Y-63251820D01*
X123902080Y-70301552D02*
X123902080Y-63251820D01*
X124006220Y-70301552D02*
X123902080Y-70301552D01*
X133797920Y-70294865D02*
X133693780Y-70294865D01*
D11*
G04 #@! TO.C,C2*
X129840000Y-59180000D02*
X130540000Y-59180000D01*
X130540000Y-60380000D02*
X129840000Y-60380000D01*
G04 #@! TO.C,RP1*
X133700000Y-75355000D02*
X134200000Y-75355000D01*
X133700000Y-73005000D02*
X134200000Y-73005000D01*
G04 #@! TO.C,C6*
X154649000Y-123867000D02*
X154649000Y-131865000D01*
X154789000Y-123872000D02*
X154789000Y-131860000D01*
X154929000Y-123882000D02*
X154929000Y-131850000D01*
X155069000Y-123897000D02*
X155069000Y-131835000D01*
X155209000Y-123917000D02*
X155209000Y-131815000D01*
X155349000Y-123942000D02*
X155349000Y-131790000D01*
X155489000Y-123972000D02*
X155489000Y-127693000D01*
X155489000Y-128039000D02*
X155489000Y-131760000D01*
X155629000Y-124008000D02*
X155629000Y-127331000D01*
X155629000Y-128401000D02*
X155629000Y-131724000D01*
X155769000Y-124049000D02*
X155769000Y-127157000D01*
X155769000Y-128575000D02*
X155769000Y-131683000D01*
X155909000Y-124095000D02*
X155909000Y-127041000D01*
X155909000Y-128691000D02*
X155909000Y-131637000D01*
X156049000Y-124148000D02*
X156049000Y-126961000D01*
X156049000Y-128771000D02*
X156049000Y-131584000D01*
X156189000Y-124207000D02*
X156189000Y-126907000D01*
X156189000Y-128825000D02*
X156189000Y-131525000D01*
X156329000Y-124272000D02*
X156329000Y-126877000D01*
X156329000Y-128855000D02*
X156329000Y-131460000D01*
X156469000Y-124343000D02*
X156469000Y-126866000D01*
X156469000Y-128866000D02*
X156469000Y-131389000D01*
X156609000Y-124422000D02*
X156609000Y-126875000D01*
X156609000Y-128857000D02*
X156609000Y-131310000D01*
X156749000Y-124509000D02*
X156749000Y-126905000D01*
X156749000Y-128827000D02*
X156749000Y-131223000D01*
X156889000Y-124604000D02*
X156889000Y-126956000D01*
X156889000Y-128776000D02*
X156889000Y-131128000D01*
X157029000Y-124708000D02*
X157029000Y-127034000D01*
X157029000Y-128698000D02*
X157029000Y-131024000D01*
X157169000Y-124822000D02*
X157169000Y-127147000D01*
X157169000Y-128585000D02*
X157169000Y-130910000D01*
X157309000Y-124947000D02*
X157309000Y-127316000D01*
X157309000Y-128416000D02*
X157309000Y-130785000D01*
X157449000Y-125085000D02*
X157449000Y-127644000D01*
X157449000Y-128088000D02*
X157449000Y-130647000D01*
X157589000Y-125237000D02*
X157589000Y-130495000D01*
X157729000Y-125407000D02*
X157729000Y-130325000D01*
X157869000Y-125598000D02*
X157869000Y-130134000D01*
X158009000Y-125816000D02*
X158009000Y-129916000D01*
X158149000Y-126072000D02*
X158149000Y-129660000D01*
X158289000Y-126383000D02*
X158289000Y-129349000D01*
X158429000Y-126799000D02*
X158429000Y-128933000D01*
X158569000Y-127666000D02*
X158569000Y-128066000D01*
X157474000Y-127866000D02*
G75*
G03X157474000Y-127866000I-1000000J0D01*
G01*
X158611500Y-127866000D02*
G75*
G03X158611500Y-127866000I-4037500J0D01*
G01*
G04 #@! TO.C,D1*
X140990000Y-125210000D02*
X139974000Y-125210000D01*
X145816000Y-125210000D02*
X147086000Y-125210000D01*
X145562000Y-126480000D02*
X145562000Y-123940000D01*
X145308000Y-126480000D02*
X145308000Y-123940000D01*
X145054000Y-126480000D02*
X145054000Y-123940000D01*
X145816000Y-126480000D02*
X145816000Y-123940000D01*
X144800000Y-126480000D02*
X146070000Y-123940000D01*
X146070000Y-126480000D02*
X144800000Y-123940000D01*
X144800000Y-126480000D02*
X144800000Y-123940000D01*
X145435000Y-126480000D02*
X145435000Y-123940000D01*
X146070000Y-123940000D02*
X146070000Y-126480000D01*
X146070000Y-126480000D02*
X140990000Y-126480000D01*
X140990000Y-126480000D02*
X140990000Y-123940000D01*
X140990000Y-123940000D02*
X146070000Y-123940000D01*
G04 #@! TO.C,P1*
X129460000Y-145350000D02*
X129460000Y-146350000D01*
X126460000Y-145350000D02*
X129460000Y-145350000D01*
X126460000Y-146350000D02*
X126460000Y-145350000D01*
X124460000Y-146350000D02*
X126460000Y-146350000D01*
X124460000Y-145350000D02*
X124460000Y-146350000D01*
X121460000Y-145350000D02*
X124460000Y-145350000D01*
X121460000Y-146350000D02*
X121460000Y-145350000D01*
X120460000Y-138350000D02*
X120460000Y-142350000D01*
X130460000Y-138350000D02*
X120460000Y-138350000D01*
X130460000Y-146350000D02*
X130460000Y-138350000D01*
X120460000Y-146350000D02*
X130460000Y-146350000D01*
X120460000Y-142350000D02*
X120460000Y-146350000D01*
G04 #@! TO.C,P2*
X157670000Y-145340000D02*
X157670000Y-146340000D01*
X154670000Y-145340000D02*
X157670000Y-145340000D01*
X154670000Y-146340000D02*
X154670000Y-145340000D01*
X152670000Y-146340000D02*
X154670000Y-146340000D01*
X152670000Y-145340000D02*
X152670000Y-146340000D01*
X149670000Y-145340000D02*
X152670000Y-145340000D01*
X149670000Y-146340000D02*
X149670000Y-145340000D01*
X148670000Y-138340000D02*
X148670000Y-142340000D01*
X158670000Y-138340000D02*
X148670000Y-138340000D01*
X158670000Y-146340000D02*
X158670000Y-138340000D01*
X148670000Y-146340000D02*
X158670000Y-146340000D01*
X148670000Y-142340000D02*
X148670000Y-146340000D01*
G04 #@! TO.C,R1*
X144645000Y-139810000D02*
X144645000Y-134610000D01*
X148295000Y-134610000D02*
X148295000Y-139810000D01*
G04 #@! TO.C,RV1*
X132274000Y-141798000D02*
X132274000Y-143068000D01*
X133061400Y-142547300D02*
X133023300Y-142293300D01*
X133023300Y-142293300D02*
X132845500Y-142013900D01*
X132845500Y-142013900D02*
X132528000Y-141798000D01*
X132528000Y-141798000D02*
X132083500Y-141785300D01*
X132083500Y-141785300D02*
X131727900Y-141988500D01*
X131727900Y-141988500D02*
X131550100Y-142280600D01*
X131550100Y-142280600D02*
X131499300Y-142598100D01*
X131499300Y-142598100D02*
X131600900Y-143004500D01*
X131600900Y-143004500D02*
X131943800Y-143258500D01*
X131943800Y-143258500D02*
X132121600Y-143347400D01*
X140656000Y-145608000D02*
X131004000Y-145608000D01*
X131004000Y-142560000D02*
X131004000Y-141290000D01*
X131004000Y-141290000D02*
X140656000Y-141290000D01*
X140656000Y-141290000D02*
X140656000Y-146370000D01*
X131004000Y-146370000D02*
X131004000Y-143830000D01*
X131004000Y-143830000D02*
X131004000Y-142560000D01*
D13*
G04 #@! TO.C,P3*
X127900000Y-110920000D02*
X126640000Y-110920000D01*
X121080000Y-110920000D02*
X122340000Y-110920000D01*
X127900000Y-114680000D02*
X127900000Y-110920000D01*
X121080000Y-116930000D02*
X121080000Y-110920000D01*
D11*
G04 #@! TO.C,C8*
X124340000Y-121970000D02*
X123640000Y-121970000D01*
X123640000Y-120770000D02*
X124340000Y-120770000D01*
G04 #@! TO.C,C9*
X124340000Y-120380000D02*
X123640000Y-120380000D01*
X123640000Y-119180000D02*
X124340000Y-119180000D01*
G04 #@! TO.C,R4*
X123630000Y-117465000D02*
X124630000Y-117465000D01*
X124630000Y-118815000D02*
X123630000Y-118815000D01*
G04 #@! TO.C,R5*
X120950000Y-117465000D02*
X121950000Y-117465000D01*
X121950000Y-118815000D02*
X120950000Y-118815000D01*
G04 #@! TO.C,U3*
X140313607Y-134194000D02*
G75*
G03X140313607Y-134194000I-223607J0D01*
G01*
X139590000Y-138294000D02*
X139590000Y-133694000D01*
X142390000Y-138294000D02*
X139590000Y-138294000D01*
X142390000Y-133694000D02*
X142390000Y-138294000D01*
X139590000Y-133694000D02*
X142390000Y-133694000D01*
D13*
G04 #@! TO.C,C4*
X139308000Y-140150000D02*
X138608000Y-140150000D01*
X138608000Y-138950000D02*
X139308000Y-138950000D01*
G04 #@! TO.C,R3*
X142400000Y-142070000D02*
X142400000Y-143070000D01*
X141040000Y-143070000D02*
X141040000Y-142070000D01*
G04 #@! TO.C,C3*
X134176000Y-137534000D02*
X134176000Y-139534000D01*
X137136000Y-139534000D02*
X137136000Y-137534000D01*
G04 #@! TO.C,C5*
X142014000Y-140400000D02*
X143014000Y-140400000D01*
X143014000Y-138700000D02*
X142014000Y-138700000D01*
G04 #@! TO.C,C10*
X130874000Y-137534000D02*
X130874000Y-139534000D01*
X133834000Y-139534000D02*
X133834000Y-137534000D01*
G04 #@! TO.C,C7*
X149770000Y-130400000D02*
X149770000Y-128400000D01*
X146810000Y-128400000D02*
X146810000Y-130400000D01*
G04 #@! TO.C,R2*
X152106000Y-132396000D02*
X157306000Y-132396000D01*
X157306000Y-136036000D02*
X152106000Y-136036000D01*
D11*
G04 #@! TO.C,Q1*
X145440000Y-128051000D02*
X145440000Y-128940000D01*
X137820000Y-128051000D02*
X145440000Y-128051000D01*
X137820000Y-128940000D02*
X137820000Y-128051000D01*
X137820000Y-131480000D02*
X137820000Y-128940000D01*
X145440000Y-131480000D02*
X137820000Y-131480000D01*
X145440000Y-128940000D02*
X145440000Y-131480000D01*
X137820000Y-128940000D02*
X145440000Y-128940000D01*
G04 #@! TO.C,BT1*
X159100000Y-53160000D02*
X161100000Y-53160000D01*
X145100000Y-53160000D02*
X147100000Y-53160000D01*
X146100000Y-52160000D02*
X146100000Y-54160000D01*
X139100000Y-55160000D02*
X141200000Y-55160000D01*
X139100000Y-53160000D02*
X139100000Y-55160000D01*
X141200000Y-51160000D02*
X139100000Y-51160000D01*
X139100000Y-53160000D02*
X139100000Y-51160000D01*
X165100000Y-53160000D02*
G75*
G03X165100000Y-53160000I-12000000J0D01*
G01*
D13*
G04 #@! TO.C,P5*
X120060000Y-67840000D02*
X122720000Y-67840000D01*
X120060000Y-67780000D02*
X120060000Y-67840000D01*
X122720000Y-67780000D02*
X122720000Y-67840000D01*
X120060000Y-67780000D02*
X122720000Y-67780000D01*
X120060000Y-66510000D02*
X120060000Y-65180000D01*
X120060000Y-65180000D02*
X121390000Y-65180000D01*
G04 #@! TO.C,C11*
X130980000Y-94970000D02*
X131680000Y-94970000D01*
X131680000Y-96170000D02*
X130980000Y-96170000D01*
G04 #@! TO.C,C12*
X130400000Y-80870000D02*
X130400000Y-81570000D01*
X129200000Y-81570000D02*
X129200000Y-80870000D01*
G04 #@! TO.C,C13*
X131690000Y-97610000D02*
X130990000Y-97610000D01*
X130990000Y-96410000D02*
X131690000Y-96410000D01*
G04 #@! TO.C,C14*
X131840000Y-82690000D02*
X131840000Y-83390000D01*
X130640000Y-83390000D02*
X130640000Y-82690000D01*
G04 #@! TO.C,C15*
X129880000Y-101300000D02*
X129880000Y-100600000D01*
X131080000Y-100600000D02*
X131080000Y-101300000D01*
G04 #@! TO.C,C16*
X131480000Y-99610000D02*
X131480000Y-98910000D01*
X132680000Y-98910000D02*
X132680000Y-99610000D01*
G04 #@! TO.C,C19*
X170030000Y-137475000D02*
X170030000Y-135475000D01*
X167070000Y-135475000D02*
X167070000Y-137475000D01*
G04 #@! TO.C,C20*
X179950000Y-134025000D02*
X179250000Y-134025000D01*
X179250000Y-132825000D02*
X179950000Y-132825000D01*
G04 #@! TO.C,C21*
X172200000Y-131625000D02*
X172900000Y-131625000D01*
X172900000Y-132825000D02*
X172200000Y-132825000D01*
G04 #@! TO.C,C22*
X179250000Y-135775000D02*
X179950000Y-135775000D01*
X179950000Y-136975000D02*
X179250000Y-136975000D01*
G04 #@! TO.C,C23*
X177230000Y-129400000D02*
X177230000Y-131400000D01*
X179270000Y-131400000D02*
X179270000Y-129400000D01*
D11*
G04 #@! TO.C,L2*
X174825000Y-130825000D02*
X176875000Y-130825000D01*
X176875000Y-130825000D02*
X176875000Y-123725000D01*
X176875000Y-123725000D02*
X174825000Y-123725000D01*
X171825000Y-130825000D02*
X169775000Y-130825000D01*
X169775000Y-130825000D02*
X169775000Y-123725000D01*
X169775000Y-123725000D02*
X171825000Y-123725000D01*
D13*
G04 #@! TO.C,R6*
X130480000Y-84430000D02*
X130480000Y-85430000D01*
X129120000Y-85430000D02*
X129120000Y-84430000D01*
G04 #@! TO.C,R9*
X179950000Y-135580000D02*
X178950000Y-135580000D01*
X178950000Y-134220000D02*
X179950000Y-134220000D01*
G04 #@! TO.C,R10*
X178950000Y-137145000D02*
X179950000Y-137145000D01*
X179950000Y-138505000D02*
X178950000Y-138505000D01*
G04 #@! TO.C,R11*
X177375000Y-138695000D02*
X178375000Y-138695000D01*
X178375000Y-140055000D02*
X177375000Y-140055000D01*
G04 #@! TO.C,RV2*
X175905000Y-139100000D02*
X175905000Y-141380000D01*
X175395000Y-139100000D02*
X175905000Y-139100000D01*
X172345000Y-139100000D02*
X172855000Y-139100000D01*
X172345000Y-141380000D02*
X172345000Y-139100000D01*
G04 #@! TO.C,SW4*
X130150000Y-137790000D02*
X130150000Y-135130000D01*
X127550000Y-137790000D02*
X130150000Y-137790000D01*
X127550000Y-135130000D02*
X130150000Y-135130000D01*
X127550000Y-137790000D02*
X127550000Y-135130000D01*
X126280000Y-137790000D02*
X124950000Y-137790000D01*
X124950000Y-137790000D02*
X124950000Y-136460000D01*
D10*
G04 #@! TO.C,BZ1*
X177480000Y-53160000D02*
G75*
G03X177480000Y-53160000I-6000000J0D01*
G01*
X174980000Y-54160000D02*
X174980000Y-55160000D01*
X175480000Y-54660000D02*
X174480000Y-54660000D01*
D14*
G04 #@! TO.C,Q2*
X160771040Y-60341140D02*
X159368960Y-60341140D01*
X159368960Y-60341140D02*
X159368960Y-57338860D01*
X159368960Y-57338860D02*
X160771040Y-57338860D01*
X160771040Y-57338860D02*
X160771040Y-60341140D01*
D13*
G04 #@! TO.C,R7*
X159830000Y-61040000D02*
X160830000Y-61040000D01*
X160830000Y-62400000D02*
X159830000Y-62400000D01*
G04 #@! TO.C,J1*
X142190000Y-59610000D02*
X139530000Y-59610000D01*
X142190000Y-74910000D02*
X142190000Y-59610000D01*
X139530000Y-74910000D02*
X139530000Y-59610000D01*
X142190000Y-74910000D02*
X139530000Y-74910000D01*
X142190000Y-76180000D02*
X142190000Y-77510000D01*
X142190000Y-77510000D02*
X140860000Y-77510000D01*
G04 #@! TD*
D15*
G04 #@! TO.C,U5*
X176212000Y-59930000D02*
G75*
G03X176212000Y-59930000I-712000J0D01*
G01*
X178752000Y-59930000D02*
G75*
G03X178752000Y-59930000I-712000J0D01*
G01*
X181292000Y-59930000D02*
G75*
G03X181292000Y-59930000I-712000J0D01*
G01*
G04 #@! TD*
G04 #@! TO.C,MCU1*
X161450000Y-66020000D02*
G75*
G03X161450000Y-66020000I-850000J0D01*
G01*
X161450000Y-68560000D02*
G75*
G03X161450000Y-68560000I-850000J0D01*
G01*
X161450000Y-71100000D02*
G75*
G03X161450000Y-71100000I-850000J0D01*
G01*
X161450000Y-73640000D02*
G75*
G03X161450000Y-73640000I-850000J0D01*
G01*
X161450000Y-76180000D02*
G75*
G03X161450000Y-76180000I-850000J0D01*
G01*
X161450000Y-78720000D02*
G75*
G03X161450000Y-78720000I-850000J0D01*
G01*
X161450000Y-81260000D02*
G75*
G03X161450000Y-81260000I-850000J0D01*
G01*
X161450000Y-83800000D02*
G75*
G03X161450000Y-83800000I-850000J0D01*
G01*
X161450000Y-86340000D02*
G75*
G03X161450000Y-86340000I-850000J0D01*
G01*
X161450000Y-88880000D02*
G75*
G03X161450000Y-88880000I-850000J0D01*
G01*
X161450000Y-91420000D02*
G75*
G03X161450000Y-91420000I-850000J0D01*
G01*
X161450000Y-93960000D02*
G75*
G03X161450000Y-93960000I-850000J0D01*
G01*
X161450000Y-96500000D02*
G75*
G03X161450000Y-96500000I-850000J0D01*
G01*
X161450000Y-99040000D02*
G75*
G03X161450000Y-99040000I-850000J0D01*
G01*
X161450000Y-101580000D02*
G75*
G03X161450000Y-101580000I-850000J0D01*
G01*
X161450000Y-104120000D02*
G75*
G03X161450000Y-104120000I-850000J0D01*
G01*
X161450000Y-106660000D02*
G75*
G03X161450000Y-106660000I-850000J0D01*
G01*
X161450000Y-109200000D02*
G75*
G03X161450000Y-109200000I-850000J0D01*
G01*
X161450000Y-111740000D02*
G75*
G03X161450000Y-111740000I-850000J0D01*
G01*
X161450000Y-114280000D02*
G75*
G03X161450000Y-114280000I-850000J0D01*
G01*
X146210000Y-114280000D02*
G75*
G03X146210000Y-114280000I-850000J0D01*
G01*
X146210000Y-111740000D02*
G75*
G03X146210000Y-111740000I-850000J0D01*
G01*
X146210000Y-109200000D02*
G75*
G03X146210000Y-109200000I-850000J0D01*
G01*
X146210000Y-106660000D02*
G75*
G03X146210000Y-106660000I-850000J0D01*
G01*
X146210000Y-104120000D02*
G75*
G03X146210000Y-104120000I-850000J0D01*
G01*
X146210000Y-101580000D02*
G75*
G03X146210000Y-101580000I-850000J0D01*
G01*
X146210000Y-99040000D02*
G75*
G03X146210000Y-99040000I-850000J0D01*
G01*
X146210000Y-96500000D02*
G75*
G03X146210000Y-96500000I-850000J0D01*
G01*
X146210000Y-93960000D02*
G75*
G03X146210000Y-93960000I-850000J0D01*
G01*
X146210000Y-91420000D02*
G75*
G03X146210000Y-91420000I-850000J0D01*
G01*
X146210000Y-88880000D02*
G75*
G03X146210000Y-88880000I-850000J0D01*
G01*
X146210000Y-86340000D02*
G75*
G03X146210000Y-86340000I-850000J0D01*
G01*
X146210000Y-83800000D02*
G75*
G03X146210000Y-83800000I-850000J0D01*
G01*
X146210000Y-81260000D02*
G75*
G03X146210000Y-81260000I-850000J0D01*
G01*
X146210000Y-78720000D02*
G75*
G03X146210000Y-78720000I-850000J0D01*
G01*
X146210000Y-76180000D02*
G75*
G03X146210000Y-76180000I-850000J0D01*
G01*
X146210000Y-73640000D02*
G75*
G03X146210000Y-73640000I-850000J0D01*
G01*
X146210000Y-71100000D02*
G75*
G03X146210000Y-71100000I-850000J0D01*
G01*
X146210000Y-68560000D02*
G75*
G03X146210000Y-68560000I-850000J0D01*
G01*
X146210000Y-66020000D02*
G75*
G03X146210000Y-66020000I-850000J0D01*
G01*
G04 #@! TD*
G04 #@! TO.C,SW1*
X169763000Y-112785000D02*
G75*
G03X169763000Y-112785000I-1093000J0D01*
G01*
X172303000Y-106435000D02*
G75*
G03X172303000Y-106435000I-1093000J0D01*
G01*
G04 #@! TD*
G04 #@! TO.C,SW2*
X169763000Y-93785000D02*
G75*
G03X169763000Y-93785000I-1093000J0D01*
G01*
X172303000Y-87435000D02*
G75*
G03X172303000Y-87435000I-1093000J0D01*
G01*
G04 #@! TD*
G04 #@! TO.C,SW3*
X169763000Y-74785000D02*
G75*
G03X169763000Y-74785000I-1093000J0D01*
G01*
X172303000Y-68435000D02*
G75*
G03X172303000Y-68435000I-1093000J0D01*
G01*
G04 #@! TD*
G04 #@! TO.C,P1*
X124060000Y-142350000D02*
G75*
G03X124060000Y-142350000I-1100000J0D01*
G01*
X129060000Y-142350000D02*
G75*
G03X129060000Y-142350000I-1100000J0D01*
G01*
G04 #@! TD*
G04 #@! TO.C,P2*
X152270000Y-142340000D02*
G75*
G03X152270000Y-142340000I-1100000J0D01*
G01*
X157270000Y-142340000D02*
G75*
G03X157270000Y-142340000I-1100000J0D01*
G01*
G04 #@! TD*
G04 #@! TO.C,Q1*
X139940000Y-130210000D02*
G75*
G03X139940000Y-130210000I-850000J0D01*
G01*
X142480000Y-130210000D02*
G75*
G03X142480000Y-130210000I-850000J0D01*
G01*
X145020000Y-130210000D02*
G75*
G03X145020000Y-130210000I-850000J0D01*
G01*
G04 #@! TD*
G04 #@! TO.C,BT1*
X144050000Y-53160000D02*
G75*
G03X144050000Y-53160000I-950000J0D01*
G01*
X164050000Y-53160000D02*
G75*
G03X164050000Y-53160000I-950000J0D01*
G01*
G04 #@! TD*
G04 #@! TO.C,U7*
D11*
X127792380Y-101579285D02*
X127792380Y-102150714D01*
X127792380Y-101865000D02*
X126792380Y-101865000D01*
X126935238Y-101960238D01*
X127030476Y-102055476D01*
X127078095Y-102150714D01*
G04 #@! TO.C,U5*
X177278095Y-63382380D02*
X177278095Y-64191904D01*
X177325714Y-64287142D01*
X177373333Y-64334761D01*
X177468571Y-64382380D01*
X177659047Y-64382380D01*
X177754285Y-64334761D01*
X177801904Y-64287142D01*
X177849523Y-64191904D01*
X177849523Y-63382380D01*
X178801904Y-63382380D02*
X178325714Y-63382380D01*
X178278095Y-63858571D01*
X178325714Y-63810952D01*
X178420952Y-63763333D01*
X178659047Y-63763333D01*
X178754285Y-63810952D01*
X178801904Y-63858571D01*
X178849523Y-63953809D01*
X178849523Y-64191904D01*
X178801904Y-64287142D01*
X178754285Y-64334761D01*
X178659047Y-64382380D01*
X178420952Y-64382380D01*
X178325714Y-64334761D01*
X178278095Y-64287142D01*
G04 #@! TO.C,L1*
X135153333Y-123512380D02*
X134677142Y-123512380D01*
X134677142Y-122512380D01*
X136010476Y-123512380D02*
X135439047Y-123512380D01*
X135724761Y-123512380D02*
X135724761Y-122512380D01*
X135629523Y-122655238D01*
X135534285Y-122750476D01*
X135439047Y-122798095D01*
G04 #@! TO.C,MCU1*
X140738780Y-67846933D02*
X139738780Y-67846933D01*
X140453066Y-67513600D01*
X139738780Y-67180266D01*
X140738780Y-67180266D01*
X140643542Y-66132647D02*
X140691161Y-66180266D01*
X140738780Y-66323123D01*
X140738780Y-66418361D01*
X140691161Y-66561219D01*
X140595923Y-66656457D01*
X140500685Y-66704076D01*
X140310209Y-66751695D01*
X140167352Y-66751695D01*
X139976876Y-66704076D01*
X139881638Y-66656457D01*
X139786400Y-66561219D01*
X139738780Y-66418361D01*
X139738780Y-66323123D01*
X139786400Y-66180266D01*
X139834019Y-66132647D01*
X139738780Y-65704076D02*
X140548304Y-65704076D01*
X140643542Y-65656457D01*
X140691161Y-65608838D01*
X140738780Y-65513600D01*
X140738780Y-65323123D01*
X140691161Y-65227885D01*
X140643542Y-65180266D01*
X140548304Y-65132647D01*
X139738780Y-65132647D01*
X140738780Y-64132647D02*
X140738780Y-64704076D01*
X140738780Y-64418361D02*
X139738780Y-64418361D01*
X139881638Y-64513600D01*
X139976876Y-64608838D01*
X140024495Y-64704076D01*
G04 #@! TO.C,U1*
D16*
X132094063Y-69921255D02*
X132094063Y-70406516D01*
X132122608Y-70463605D01*
X132151153Y-70492150D01*
X132208242Y-70520695D01*
X132322421Y-70520695D01*
X132379511Y-70492150D01*
X132408056Y-70463605D01*
X132436600Y-70406516D01*
X132436600Y-69921255D01*
X133036040Y-70520695D02*
X132693503Y-70520695D01*
X132864772Y-70520695D02*
X132864772Y-69921255D01*
X132807682Y-70006889D01*
X132750593Y-70063979D01*
X132693503Y-70092523D01*
G04 #@! TO.C,C2*
D11*
X132623333Y-60087142D02*
X132575714Y-60134761D01*
X132432857Y-60182380D01*
X132337619Y-60182380D01*
X132194761Y-60134761D01*
X132099523Y-60039523D01*
X132051904Y-59944285D01*
X132004285Y-59753809D01*
X132004285Y-59610952D01*
X132051904Y-59420476D01*
X132099523Y-59325238D01*
X132194761Y-59230000D01*
X132337619Y-59182380D01*
X132432857Y-59182380D01*
X132575714Y-59230000D01*
X132623333Y-59277619D01*
X133004285Y-59277619D02*
X133051904Y-59230000D01*
X133147142Y-59182380D01*
X133385238Y-59182380D01*
X133480476Y-59230000D01*
X133528095Y-59277619D01*
X133575714Y-59372857D01*
X133575714Y-59468095D01*
X133528095Y-59610952D01*
X132956666Y-60182380D01*
X133575714Y-60182380D01*
G04 #@! TO.C,RP1*
X133283333Y-76732380D02*
X132950000Y-76256190D01*
X132711904Y-76732380D02*
X132711904Y-75732380D01*
X133092857Y-75732380D01*
X133188095Y-75780000D01*
X133235714Y-75827619D01*
X133283333Y-75922857D01*
X133283333Y-76065714D01*
X133235714Y-76160952D01*
X133188095Y-76208571D01*
X133092857Y-76256190D01*
X132711904Y-76256190D01*
X133711904Y-76732380D02*
X133711904Y-75732380D01*
X134092857Y-75732380D01*
X134188095Y-75780000D01*
X134235714Y-75827619D01*
X134283333Y-75922857D01*
X134283333Y-76065714D01*
X134235714Y-76160952D01*
X134188095Y-76208571D01*
X134092857Y-76256190D01*
X133711904Y-76256190D01*
X135235714Y-76732380D02*
X134664285Y-76732380D01*
X134950000Y-76732380D02*
X134950000Y-75732380D01*
X134854761Y-75875238D01*
X134759523Y-75970476D01*
X134664285Y-76018095D01*
G04 #@! TO.C,C6*
X150703333Y-124567142D02*
X150655714Y-124614761D01*
X150512857Y-124662380D01*
X150417619Y-124662380D01*
X150274761Y-124614761D01*
X150179523Y-124519523D01*
X150131904Y-124424285D01*
X150084285Y-124233809D01*
X150084285Y-124090952D01*
X150131904Y-123900476D01*
X150179523Y-123805238D01*
X150274761Y-123710000D01*
X150417619Y-123662380D01*
X150512857Y-123662380D01*
X150655714Y-123710000D01*
X150703333Y-123757619D01*
X151560476Y-123662380D02*
X151370000Y-123662380D01*
X151274761Y-123710000D01*
X151227142Y-123757619D01*
X151131904Y-123900476D01*
X151084285Y-124090952D01*
X151084285Y-124471904D01*
X151131904Y-124567142D01*
X151179523Y-124614761D01*
X151274761Y-124662380D01*
X151465238Y-124662380D01*
X151560476Y-124614761D01*
X151608095Y-124567142D01*
X151655714Y-124471904D01*
X151655714Y-124233809D01*
X151608095Y-124138571D01*
X151560476Y-124090952D01*
X151465238Y-124043333D01*
X151274761Y-124043333D01*
X151179523Y-124090952D01*
X151131904Y-124138571D01*
X151084285Y-124233809D01*
G04 #@! TO.C,D1*
X144431904Y-127662380D02*
X144431904Y-126662380D01*
X144670000Y-126662380D01*
X144812857Y-126710000D01*
X144908095Y-126805238D01*
X144955714Y-126900476D01*
X145003333Y-127090952D01*
X145003333Y-127233809D01*
X144955714Y-127424285D01*
X144908095Y-127519523D01*
X144812857Y-127614761D01*
X144670000Y-127662380D01*
X144431904Y-127662380D01*
X145955714Y-127662380D02*
X145384285Y-127662380D01*
X145670000Y-127662380D02*
X145670000Y-126662380D01*
X145574761Y-126805238D01*
X145479523Y-126900476D01*
X145384285Y-126948095D01*
G04 #@! TO.C,P1*
X118581904Y-139462380D02*
X118581904Y-138462380D01*
X118962857Y-138462380D01*
X119058095Y-138510000D01*
X119105714Y-138557619D01*
X119153333Y-138652857D01*
X119153333Y-138795714D01*
X119105714Y-138890952D01*
X119058095Y-138938571D01*
X118962857Y-138986190D01*
X118581904Y-138986190D01*
X120105714Y-139462380D02*
X119534285Y-139462380D01*
X119820000Y-139462380D02*
X119820000Y-138462380D01*
X119724761Y-138605238D01*
X119629523Y-138700476D01*
X119534285Y-138748095D01*
G04 #@! TO.C,P2*
X148871904Y-137990380D02*
X148871904Y-136990380D01*
X149252857Y-136990380D01*
X149348095Y-137038000D01*
X149395714Y-137085619D01*
X149443333Y-137180857D01*
X149443333Y-137323714D01*
X149395714Y-137418952D01*
X149348095Y-137466571D01*
X149252857Y-137514190D01*
X148871904Y-137514190D01*
X149824285Y-137085619D02*
X149871904Y-137038000D01*
X149967142Y-136990380D01*
X150205238Y-136990380D01*
X150300476Y-137038000D01*
X150348095Y-137085619D01*
X150395714Y-137180857D01*
X150395714Y-137276095D01*
X150348095Y-137418952D01*
X149776666Y-137990380D01*
X150395714Y-137990380D01*
G04 #@! TO.C,R1*
X146095333Y-142416380D02*
X145762000Y-141940190D01*
X145523904Y-142416380D02*
X145523904Y-141416380D01*
X145904857Y-141416380D01*
X146000095Y-141464000D01*
X146047714Y-141511619D01*
X146095333Y-141606857D01*
X146095333Y-141749714D01*
X146047714Y-141844952D01*
X146000095Y-141892571D01*
X145904857Y-141940190D01*
X145523904Y-141940190D01*
X147047714Y-142416380D02*
X146476285Y-142416380D01*
X146762000Y-142416380D02*
X146762000Y-141416380D01*
X146666761Y-141559238D01*
X146571523Y-141654476D01*
X146476285Y-141702095D01*
G04 #@! TO.C,RV1*
X141614761Y-146252380D02*
X141281428Y-145776190D01*
X141043333Y-146252380D02*
X141043333Y-145252380D01*
X141424285Y-145252380D01*
X141519523Y-145300000D01*
X141567142Y-145347619D01*
X141614761Y-145442857D01*
X141614761Y-145585714D01*
X141567142Y-145680952D01*
X141519523Y-145728571D01*
X141424285Y-145776190D01*
X141043333Y-145776190D01*
X141900476Y-145252380D02*
X142233809Y-146252380D01*
X142567142Y-145252380D01*
X143424285Y-146252380D02*
X142852857Y-146252380D01*
X143138571Y-146252380D02*
X143138571Y-145252380D01*
X143043333Y-145395238D01*
X142948095Y-145490476D01*
X142852857Y-145538095D01*
G04 #@! TO.C,P3*
X120442380Y-113568095D02*
X119442380Y-113568095D01*
X119442380Y-113187142D01*
X119490000Y-113091904D01*
X119537619Y-113044285D01*
X119632857Y-112996666D01*
X119775714Y-112996666D01*
X119870952Y-113044285D01*
X119918571Y-113091904D01*
X119966190Y-113187142D01*
X119966190Y-113568095D01*
X119442380Y-112663333D02*
X119442380Y-112044285D01*
X119823333Y-112377619D01*
X119823333Y-112234761D01*
X119870952Y-112139523D01*
X119918571Y-112091904D01*
X120013809Y-112044285D01*
X120251904Y-112044285D01*
X120347142Y-112091904D01*
X120394761Y-112139523D01*
X120442380Y-112234761D01*
X120442380Y-112520476D01*
X120394761Y-112615714D01*
X120347142Y-112663333D01*
G04 #@! TO.C,C8*
X121323333Y-121717142D02*
X121275714Y-121764761D01*
X121132857Y-121812380D01*
X121037619Y-121812380D01*
X120894761Y-121764761D01*
X120799523Y-121669523D01*
X120751904Y-121574285D01*
X120704285Y-121383809D01*
X120704285Y-121240952D01*
X120751904Y-121050476D01*
X120799523Y-120955238D01*
X120894761Y-120860000D01*
X121037619Y-120812380D01*
X121132857Y-120812380D01*
X121275714Y-120860000D01*
X121323333Y-120907619D01*
X121894761Y-121240952D02*
X121799523Y-121193333D01*
X121751904Y-121145714D01*
X121704285Y-121050476D01*
X121704285Y-121002857D01*
X121751904Y-120907619D01*
X121799523Y-120860000D01*
X121894761Y-120812380D01*
X122085238Y-120812380D01*
X122180476Y-120860000D01*
X122228095Y-120907619D01*
X122275714Y-121002857D01*
X122275714Y-121050476D01*
X122228095Y-121145714D01*
X122180476Y-121193333D01*
X122085238Y-121240952D01*
X121894761Y-121240952D01*
X121799523Y-121288571D01*
X121751904Y-121336190D01*
X121704285Y-121431428D01*
X121704285Y-121621904D01*
X121751904Y-121717142D01*
X121799523Y-121764761D01*
X121894761Y-121812380D01*
X122085238Y-121812380D01*
X122180476Y-121764761D01*
X122228095Y-121717142D01*
X122275714Y-121621904D01*
X122275714Y-121431428D01*
X122228095Y-121336190D01*
X122180476Y-121288571D01*
X122085238Y-121240952D01*
G04 #@! TO.C,C9*
X121343333Y-120227142D02*
X121295714Y-120274761D01*
X121152857Y-120322380D01*
X121057619Y-120322380D01*
X120914761Y-120274761D01*
X120819523Y-120179523D01*
X120771904Y-120084285D01*
X120724285Y-119893809D01*
X120724285Y-119750952D01*
X120771904Y-119560476D01*
X120819523Y-119465238D01*
X120914761Y-119370000D01*
X121057619Y-119322380D01*
X121152857Y-119322380D01*
X121295714Y-119370000D01*
X121343333Y-119417619D01*
X121819523Y-120322380D02*
X122010000Y-120322380D01*
X122105238Y-120274761D01*
X122152857Y-120227142D01*
X122248095Y-120084285D01*
X122295714Y-119893809D01*
X122295714Y-119512857D01*
X122248095Y-119417619D01*
X122200476Y-119370000D01*
X122105238Y-119322380D01*
X121914761Y-119322380D01*
X121819523Y-119370000D01*
X121771904Y-119417619D01*
X121724285Y-119512857D01*
X121724285Y-119750952D01*
X121771904Y-119846190D01*
X121819523Y-119893809D01*
X121914761Y-119941428D01*
X122105238Y-119941428D01*
X122200476Y-119893809D01*
X122248095Y-119846190D01*
X122295714Y-119750952D01*
G04 #@! TO.C,R4*
X126383333Y-118672380D02*
X126050000Y-118196190D01*
X125811904Y-118672380D02*
X125811904Y-117672380D01*
X126192857Y-117672380D01*
X126288095Y-117720000D01*
X126335714Y-117767619D01*
X126383333Y-117862857D01*
X126383333Y-118005714D01*
X126335714Y-118100952D01*
X126288095Y-118148571D01*
X126192857Y-118196190D01*
X125811904Y-118196190D01*
X127240476Y-118005714D02*
X127240476Y-118672380D01*
X127002380Y-117624761D02*
X126764285Y-118339047D01*
X127383333Y-118339047D01*
G04 #@! TO.C,R5*
X119013333Y-118767380D02*
X118680000Y-118291190D01*
X118441904Y-118767380D02*
X118441904Y-117767380D01*
X118822857Y-117767380D01*
X118918095Y-117815000D01*
X118965714Y-117862619D01*
X119013333Y-117957857D01*
X119013333Y-118100714D01*
X118965714Y-118195952D01*
X118918095Y-118243571D01*
X118822857Y-118291190D01*
X118441904Y-118291190D01*
X119918095Y-117767380D02*
X119441904Y-117767380D01*
X119394285Y-118243571D01*
X119441904Y-118195952D01*
X119537142Y-118148333D01*
X119775238Y-118148333D01*
X119870476Y-118195952D01*
X119918095Y-118243571D01*
X119965714Y-118338809D01*
X119965714Y-118576904D01*
X119918095Y-118672142D01*
X119870476Y-118719761D01*
X119775238Y-118767380D01*
X119537142Y-118767380D01*
X119441904Y-118719761D01*
X119394285Y-118672142D01*
G04 #@! TO.C,U3*
X140128095Y-132346380D02*
X140128095Y-133155904D01*
X140175714Y-133251142D01*
X140223333Y-133298761D01*
X140318571Y-133346380D01*
X140509047Y-133346380D01*
X140604285Y-133298761D01*
X140651904Y-133251142D01*
X140699523Y-133155904D01*
X140699523Y-132346380D01*
X141080476Y-132346380D02*
X141699523Y-132346380D01*
X141366190Y-132727333D01*
X141509047Y-132727333D01*
X141604285Y-132774952D01*
X141651904Y-132822571D01*
X141699523Y-132917809D01*
X141699523Y-133155904D01*
X141651904Y-133251142D01*
X141604285Y-133298761D01*
X141509047Y-133346380D01*
X141223333Y-133346380D01*
X141128095Y-133298761D01*
X141080476Y-133251142D01*
G04 #@! TO.C,C4*
X138533333Y-141197142D02*
X138485714Y-141244761D01*
X138342857Y-141292380D01*
X138247619Y-141292380D01*
X138104761Y-141244761D01*
X138009523Y-141149523D01*
X137961904Y-141054285D01*
X137914285Y-140863809D01*
X137914285Y-140720952D01*
X137961904Y-140530476D01*
X138009523Y-140435238D01*
X138104761Y-140340000D01*
X138247619Y-140292380D01*
X138342857Y-140292380D01*
X138485714Y-140340000D01*
X138533333Y-140387619D01*
X139390476Y-140625714D02*
X139390476Y-141292380D01*
X139152380Y-140244761D02*
X138914285Y-140959047D01*
X139533333Y-140959047D01*
G04 #@! TO.C,R3*
X143413333Y-143712380D02*
X143080000Y-143236190D01*
X142841904Y-143712380D02*
X142841904Y-142712380D01*
X143222857Y-142712380D01*
X143318095Y-142760000D01*
X143365714Y-142807619D01*
X143413333Y-142902857D01*
X143413333Y-143045714D01*
X143365714Y-143140952D01*
X143318095Y-143188571D01*
X143222857Y-143236190D01*
X142841904Y-143236190D01*
X143746666Y-142712380D02*
X144365714Y-142712380D01*
X144032380Y-143093333D01*
X144175238Y-143093333D01*
X144270476Y-143140952D01*
X144318095Y-143188571D01*
X144365714Y-143283809D01*
X144365714Y-143521904D01*
X144318095Y-143617142D01*
X144270476Y-143664761D01*
X144175238Y-143712380D01*
X143889523Y-143712380D01*
X143794285Y-143664761D01*
X143746666Y-143617142D01*
G04 #@! TO.C,C3*
X135473333Y-135707142D02*
X135425714Y-135754761D01*
X135282857Y-135802380D01*
X135187619Y-135802380D01*
X135044761Y-135754761D01*
X134949523Y-135659523D01*
X134901904Y-135564285D01*
X134854285Y-135373809D01*
X134854285Y-135230952D01*
X134901904Y-135040476D01*
X134949523Y-134945238D01*
X135044761Y-134850000D01*
X135187619Y-134802380D01*
X135282857Y-134802380D01*
X135425714Y-134850000D01*
X135473333Y-134897619D01*
X135806666Y-134802380D02*
X136425714Y-134802380D01*
X136092380Y-135183333D01*
X136235238Y-135183333D01*
X136330476Y-135230952D01*
X136378095Y-135278571D01*
X136425714Y-135373809D01*
X136425714Y-135611904D01*
X136378095Y-135707142D01*
X136330476Y-135754761D01*
X136235238Y-135802380D01*
X135949523Y-135802380D01*
X135854285Y-135754761D01*
X135806666Y-135707142D01*
G04 #@! TO.C,C5*
X143353333Y-141597142D02*
X143305714Y-141644761D01*
X143162857Y-141692380D01*
X143067619Y-141692380D01*
X142924761Y-141644761D01*
X142829523Y-141549523D01*
X142781904Y-141454285D01*
X142734285Y-141263809D01*
X142734285Y-141120952D01*
X142781904Y-140930476D01*
X142829523Y-140835238D01*
X142924761Y-140740000D01*
X143067619Y-140692380D01*
X143162857Y-140692380D01*
X143305714Y-140740000D01*
X143353333Y-140787619D01*
X144258095Y-140692380D02*
X143781904Y-140692380D01*
X143734285Y-141168571D01*
X143781904Y-141120952D01*
X143877142Y-141073333D01*
X144115238Y-141073333D01*
X144210476Y-141120952D01*
X144258095Y-141168571D01*
X144305714Y-141263809D01*
X144305714Y-141501904D01*
X144258095Y-141597142D01*
X144210476Y-141644761D01*
X144115238Y-141692380D01*
X143877142Y-141692380D01*
X143781904Y-141644761D01*
X143734285Y-141597142D01*
G04 #@! TO.C,C10*
X131577142Y-135577142D02*
X131529523Y-135624761D01*
X131386666Y-135672380D01*
X131291428Y-135672380D01*
X131148571Y-135624761D01*
X131053333Y-135529523D01*
X131005714Y-135434285D01*
X130958095Y-135243809D01*
X130958095Y-135100952D01*
X131005714Y-134910476D01*
X131053333Y-134815238D01*
X131148571Y-134720000D01*
X131291428Y-134672380D01*
X131386666Y-134672380D01*
X131529523Y-134720000D01*
X131577142Y-134767619D01*
X132529523Y-135672380D02*
X131958095Y-135672380D01*
X132243809Y-135672380D02*
X132243809Y-134672380D01*
X132148571Y-134815238D01*
X132053333Y-134910476D01*
X131958095Y-134958095D01*
X133148571Y-134672380D02*
X133243809Y-134672380D01*
X133339047Y-134720000D01*
X133386666Y-134767619D01*
X133434285Y-134862857D01*
X133481904Y-135053333D01*
X133481904Y-135291428D01*
X133434285Y-135481904D01*
X133386666Y-135577142D01*
X133339047Y-135624761D01*
X133243809Y-135672380D01*
X133148571Y-135672380D01*
X133053333Y-135624761D01*
X133005714Y-135577142D01*
X132958095Y-135481904D01*
X132910476Y-135291428D01*
X132910476Y-135053333D01*
X132958095Y-134862857D01*
X133005714Y-134767619D01*
X133053333Y-134720000D01*
X133148571Y-134672380D01*
G04 #@! TO.C,C7*
X147943333Y-132917142D02*
X147895714Y-132964761D01*
X147752857Y-133012380D01*
X147657619Y-133012380D01*
X147514761Y-132964761D01*
X147419523Y-132869523D01*
X147371904Y-132774285D01*
X147324285Y-132583809D01*
X147324285Y-132440952D01*
X147371904Y-132250476D01*
X147419523Y-132155238D01*
X147514761Y-132060000D01*
X147657619Y-132012380D01*
X147752857Y-132012380D01*
X147895714Y-132060000D01*
X147943333Y-132107619D01*
X148276666Y-132012380D02*
X148943333Y-132012380D01*
X148514761Y-133012380D01*
G04 #@! TO.C,R2*
X149493333Y-134772380D02*
X149160000Y-134296190D01*
X148921904Y-134772380D02*
X148921904Y-133772380D01*
X149302857Y-133772380D01*
X149398095Y-133820000D01*
X149445714Y-133867619D01*
X149493333Y-133962857D01*
X149493333Y-134105714D01*
X149445714Y-134200952D01*
X149398095Y-134248571D01*
X149302857Y-134296190D01*
X148921904Y-134296190D01*
X149874285Y-133867619D02*
X149921904Y-133820000D01*
X150017142Y-133772380D01*
X150255238Y-133772380D01*
X150350476Y-133820000D01*
X150398095Y-133867619D01*
X150445714Y-133962857D01*
X150445714Y-134058095D01*
X150398095Y-134200952D01*
X149826666Y-134772380D01*
X150445714Y-134772380D01*
G04 #@! TO.C,Q1*
X138652761Y-127857619D02*
X138557523Y-127810000D01*
X138462285Y-127714761D01*
X138319428Y-127571904D01*
X138224190Y-127524285D01*
X138128952Y-127524285D01*
X138176571Y-127762380D02*
X138081333Y-127714761D01*
X137986095Y-127619523D01*
X137938476Y-127429047D01*
X137938476Y-127095714D01*
X137986095Y-126905238D01*
X138081333Y-126810000D01*
X138176571Y-126762380D01*
X138367047Y-126762380D01*
X138462285Y-126810000D01*
X138557523Y-126905238D01*
X138605142Y-127095714D01*
X138605142Y-127429047D01*
X138557523Y-127619523D01*
X138462285Y-127714761D01*
X138367047Y-127762380D01*
X138176571Y-127762380D01*
X139557523Y-127762380D02*
X138986095Y-127762380D01*
X139271809Y-127762380D02*
X139271809Y-126762380D01*
X139176571Y-126905238D01*
X139081333Y-127000476D01*
X138986095Y-127048095D01*
G04 #@! TO.C,BT1*
X142214285Y-62888571D02*
X142357142Y-62936190D01*
X142404761Y-62983809D01*
X142452380Y-63079047D01*
X142452380Y-63221904D01*
X142404761Y-63317142D01*
X142357142Y-63364761D01*
X142261904Y-63412380D01*
X141880952Y-63412380D01*
X141880952Y-62412380D01*
X142214285Y-62412380D01*
X142309523Y-62460000D01*
X142357142Y-62507619D01*
X142404761Y-62602857D01*
X142404761Y-62698095D01*
X142357142Y-62793333D01*
X142309523Y-62840952D01*
X142214285Y-62888571D01*
X141880952Y-62888571D01*
X142738095Y-62412380D02*
X143309523Y-62412380D01*
X143023809Y-63412380D02*
X143023809Y-62412380D01*
X144166666Y-63412380D02*
X143595238Y-63412380D01*
X143880952Y-63412380D02*
X143880952Y-62412380D01*
X143785714Y-62555238D01*
X143690476Y-62650476D01*
X143595238Y-62698095D01*
G04 #@! TO.C,P5*
X120651904Y-64632380D02*
X120651904Y-63632380D01*
X121032857Y-63632380D01*
X121128095Y-63680000D01*
X121175714Y-63727619D01*
X121223333Y-63822857D01*
X121223333Y-63965714D01*
X121175714Y-64060952D01*
X121128095Y-64108571D01*
X121032857Y-64156190D01*
X120651904Y-64156190D01*
X122128095Y-63632380D02*
X121651904Y-63632380D01*
X121604285Y-64108571D01*
X121651904Y-64060952D01*
X121747142Y-64013333D01*
X121985238Y-64013333D01*
X122080476Y-64060952D01*
X122128095Y-64108571D01*
X122175714Y-64203809D01*
X122175714Y-64441904D01*
X122128095Y-64537142D01*
X122080476Y-64584761D01*
X121985238Y-64632380D01*
X121747142Y-64632380D01*
X121651904Y-64584761D01*
X121604285Y-64537142D01*
G04 #@! TO.C,C11*
X133737142Y-95967142D02*
X133689523Y-96014761D01*
X133546666Y-96062380D01*
X133451428Y-96062380D01*
X133308571Y-96014761D01*
X133213333Y-95919523D01*
X133165714Y-95824285D01*
X133118095Y-95633809D01*
X133118095Y-95490952D01*
X133165714Y-95300476D01*
X133213333Y-95205238D01*
X133308571Y-95110000D01*
X133451428Y-95062380D01*
X133546666Y-95062380D01*
X133689523Y-95110000D01*
X133737142Y-95157619D01*
X134689523Y-96062380D02*
X134118095Y-96062380D01*
X134403809Y-96062380D02*
X134403809Y-95062380D01*
X134308571Y-95205238D01*
X134213333Y-95300476D01*
X134118095Y-95348095D01*
X135641904Y-96062380D02*
X135070476Y-96062380D01*
X135356190Y-96062380D02*
X135356190Y-95062380D01*
X135260952Y-95205238D01*
X135165714Y-95300476D01*
X135070476Y-95348095D01*
G04 #@! TO.C,C12*
X130177142Y-78942857D02*
X130224761Y-78990476D01*
X130272380Y-79133333D01*
X130272380Y-79228571D01*
X130224761Y-79371428D01*
X130129523Y-79466666D01*
X130034285Y-79514285D01*
X129843809Y-79561904D01*
X129700952Y-79561904D01*
X129510476Y-79514285D01*
X129415238Y-79466666D01*
X129320000Y-79371428D01*
X129272380Y-79228571D01*
X129272380Y-79133333D01*
X129320000Y-78990476D01*
X129367619Y-78942857D01*
X130272380Y-77990476D02*
X130272380Y-78561904D01*
X130272380Y-78276190D02*
X129272380Y-78276190D01*
X129415238Y-78371428D01*
X129510476Y-78466666D01*
X129558095Y-78561904D01*
X129367619Y-77609523D02*
X129320000Y-77561904D01*
X129272380Y-77466666D01*
X129272380Y-77228571D01*
X129320000Y-77133333D01*
X129367619Y-77085714D01*
X129462857Y-77038095D01*
X129558095Y-77038095D01*
X129700952Y-77085714D01*
X130272380Y-77657142D01*
X130272380Y-77038095D01*
G04 #@! TO.C,C13*
X133667142Y-97357142D02*
X133619523Y-97404761D01*
X133476666Y-97452380D01*
X133381428Y-97452380D01*
X133238571Y-97404761D01*
X133143333Y-97309523D01*
X133095714Y-97214285D01*
X133048095Y-97023809D01*
X133048095Y-96880952D01*
X133095714Y-96690476D01*
X133143333Y-96595238D01*
X133238571Y-96500000D01*
X133381428Y-96452380D01*
X133476666Y-96452380D01*
X133619523Y-96500000D01*
X133667142Y-96547619D01*
X134619523Y-97452380D02*
X134048095Y-97452380D01*
X134333809Y-97452380D02*
X134333809Y-96452380D01*
X134238571Y-96595238D01*
X134143333Y-96690476D01*
X134048095Y-96738095D01*
X134952857Y-96452380D02*
X135571904Y-96452380D01*
X135238571Y-96833333D01*
X135381428Y-96833333D01*
X135476666Y-96880952D01*
X135524285Y-96928571D01*
X135571904Y-97023809D01*
X135571904Y-97261904D01*
X135524285Y-97357142D01*
X135476666Y-97404761D01*
X135381428Y-97452380D01*
X135095714Y-97452380D01*
X135000476Y-97404761D01*
X134952857Y-97357142D01*
G04 #@! TO.C,C14*
X131637142Y-80802857D02*
X131684761Y-80850476D01*
X131732380Y-80993333D01*
X131732380Y-81088571D01*
X131684761Y-81231428D01*
X131589523Y-81326666D01*
X131494285Y-81374285D01*
X131303809Y-81421904D01*
X131160952Y-81421904D01*
X130970476Y-81374285D01*
X130875238Y-81326666D01*
X130780000Y-81231428D01*
X130732380Y-81088571D01*
X130732380Y-80993333D01*
X130780000Y-80850476D01*
X130827619Y-80802857D01*
X131732380Y-79850476D02*
X131732380Y-80421904D01*
X131732380Y-80136190D02*
X130732380Y-80136190D01*
X130875238Y-80231428D01*
X130970476Y-80326666D01*
X131018095Y-80421904D01*
X131065714Y-78993333D02*
X131732380Y-78993333D01*
X130684761Y-79231428D02*
X131399047Y-79469523D01*
X131399047Y-78850476D01*
G04 #@! TO.C,C15*
X130897142Y-104562857D02*
X130944761Y-104610476D01*
X130992380Y-104753333D01*
X130992380Y-104848571D01*
X130944761Y-104991428D01*
X130849523Y-105086666D01*
X130754285Y-105134285D01*
X130563809Y-105181904D01*
X130420952Y-105181904D01*
X130230476Y-105134285D01*
X130135238Y-105086666D01*
X130040000Y-104991428D01*
X129992380Y-104848571D01*
X129992380Y-104753333D01*
X130040000Y-104610476D01*
X130087619Y-104562857D01*
X130992380Y-103610476D02*
X130992380Y-104181904D01*
X130992380Y-103896190D02*
X129992380Y-103896190D01*
X130135238Y-103991428D01*
X130230476Y-104086666D01*
X130278095Y-104181904D01*
X129992380Y-102705714D02*
X129992380Y-103181904D01*
X130468571Y-103229523D01*
X130420952Y-103181904D01*
X130373333Y-103086666D01*
X130373333Y-102848571D01*
X130420952Y-102753333D01*
X130468571Y-102705714D01*
X130563809Y-102658095D01*
X130801904Y-102658095D01*
X130897142Y-102705714D01*
X130944761Y-102753333D01*
X130992380Y-102848571D01*
X130992380Y-103086666D01*
X130944761Y-103181904D01*
X130897142Y-103229523D01*
G04 #@! TO.C,C16*
X132417142Y-102842857D02*
X132464761Y-102890476D01*
X132512380Y-103033333D01*
X132512380Y-103128571D01*
X132464761Y-103271428D01*
X132369523Y-103366666D01*
X132274285Y-103414285D01*
X132083809Y-103461904D01*
X131940952Y-103461904D01*
X131750476Y-103414285D01*
X131655238Y-103366666D01*
X131560000Y-103271428D01*
X131512380Y-103128571D01*
X131512380Y-103033333D01*
X131560000Y-102890476D01*
X131607619Y-102842857D01*
X132512380Y-101890476D02*
X132512380Y-102461904D01*
X132512380Y-102176190D02*
X131512380Y-102176190D01*
X131655238Y-102271428D01*
X131750476Y-102366666D01*
X131798095Y-102461904D01*
X131512380Y-101033333D02*
X131512380Y-101223809D01*
X131560000Y-101319047D01*
X131607619Y-101366666D01*
X131750476Y-101461904D01*
X131940952Y-101509523D01*
X132321904Y-101509523D01*
X132417142Y-101461904D01*
X132464761Y-101414285D01*
X132512380Y-101319047D01*
X132512380Y-101128571D01*
X132464761Y-101033333D01*
X132417142Y-100985714D01*
X132321904Y-100938095D01*
X132083809Y-100938095D01*
X131988571Y-100985714D01*
X131940952Y-101033333D01*
X131893333Y-101128571D01*
X131893333Y-101319047D01*
X131940952Y-101414285D01*
X131988571Y-101461904D01*
X132083809Y-101509523D01*
G04 #@! TO.C,C19*
X167857142Y-133932142D02*
X167809523Y-133979761D01*
X167666666Y-134027380D01*
X167571428Y-134027380D01*
X167428571Y-133979761D01*
X167333333Y-133884523D01*
X167285714Y-133789285D01*
X167238095Y-133598809D01*
X167238095Y-133455952D01*
X167285714Y-133265476D01*
X167333333Y-133170238D01*
X167428571Y-133075000D01*
X167571428Y-133027380D01*
X167666666Y-133027380D01*
X167809523Y-133075000D01*
X167857142Y-133122619D01*
X168809523Y-134027380D02*
X168238095Y-134027380D01*
X168523809Y-134027380D02*
X168523809Y-133027380D01*
X168428571Y-133170238D01*
X168333333Y-133265476D01*
X168238095Y-133313095D01*
X169285714Y-134027380D02*
X169476190Y-134027380D01*
X169571428Y-133979761D01*
X169619047Y-133932142D01*
X169714285Y-133789285D01*
X169761904Y-133598809D01*
X169761904Y-133217857D01*
X169714285Y-133122619D01*
X169666666Y-133075000D01*
X169571428Y-133027380D01*
X169380952Y-133027380D01*
X169285714Y-133075000D01*
X169238095Y-133122619D01*
X169190476Y-133217857D01*
X169190476Y-133455952D01*
X169238095Y-133551190D01*
X169285714Y-133598809D01*
X169380952Y-133646428D01*
X169571428Y-133646428D01*
X169666666Y-133598809D01*
X169714285Y-133551190D01*
X169761904Y-133455952D01*
G04 #@! TO.C,C20*
X181857142Y-133782142D02*
X181809523Y-133829761D01*
X181666666Y-133877380D01*
X181571428Y-133877380D01*
X181428571Y-133829761D01*
X181333333Y-133734523D01*
X181285714Y-133639285D01*
X181238095Y-133448809D01*
X181238095Y-133305952D01*
X181285714Y-133115476D01*
X181333333Y-133020238D01*
X181428571Y-132925000D01*
X181571428Y-132877380D01*
X181666666Y-132877380D01*
X181809523Y-132925000D01*
X181857142Y-132972619D01*
X182238095Y-132972619D02*
X182285714Y-132925000D01*
X182380952Y-132877380D01*
X182619047Y-132877380D01*
X182714285Y-132925000D01*
X182761904Y-132972619D01*
X182809523Y-133067857D01*
X182809523Y-133163095D01*
X182761904Y-133305952D01*
X182190476Y-133877380D01*
X182809523Y-133877380D01*
X183428571Y-132877380D02*
X183523809Y-132877380D01*
X183619047Y-132925000D01*
X183666666Y-132972619D01*
X183714285Y-133067857D01*
X183761904Y-133258333D01*
X183761904Y-133496428D01*
X183714285Y-133686904D01*
X183666666Y-133782142D01*
X183619047Y-133829761D01*
X183523809Y-133877380D01*
X183428571Y-133877380D01*
X183333333Y-133829761D01*
X183285714Y-133782142D01*
X183238095Y-133686904D01*
X183190476Y-133496428D01*
X183190476Y-133258333D01*
X183238095Y-133067857D01*
X183285714Y-132972619D01*
X183333333Y-132925000D01*
X183428571Y-132877380D01*
G04 #@! TO.C,C21*
X169082142Y-132557142D02*
X169034523Y-132604761D01*
X168891666Y-132652380D01*
X168796428Y-132652380D01*
X168653571Y-132604761D01*
X168558333Y-132509523D01*
X168510714Y-132414285D01*
X168463095Y-132223809D01*
X168463095Y-132080952D01*
X168510714Y-131890476D01*
X168558333Y-131795238D01*
X168653571Y-131700000D01*
X168796428Y-131652380D01*
X168891666Y-131652380D01*
X169034523Y-131700000D01*
X169082142Y-131747619D01*
X169463095Y-131747619D02*
X169510714Y-131700000D01*
X169605952Y-131652380D01*
X169844047Y-131652380D01*
X169939285Y-131700000D01*
X169986904Y-131747619D01*
X170034523Y-131842857D01*
X170034523Y-131938095D01*
X169986904Y-132080952D01*
X169415476Y-132652380D01*
X170034523Y-132652380D01*
X170986904Y-132652380D02*
X170415476Y-132652380D01*
X170701190Y-132652380D02*
X170701190Y-131652380D01*
X170605952Y-131795238D01*
X170510714Y-131890476D01*
X170415476Y-131938095D01*
G04 #@! TO.C,C22*
X181832142Y-136732142D02*
X181784523Y-136779761D01*
X181641666Y-136827380D01*
X181546428Y-136827380D01*
X181403571Y-136779761D01*
X181308333Y-136684523D01*
X181260714Y-136589285D01*
X181213095Y-136398809D01*
X181213095Y-136255952D01*
X181260714Y-136065476D01*
X181308333Y-135970238D01*
X181403571Y-135875000D01*
X181546428Y-135827380D01*
X181641666Y-135827380D01*
X181784523Y-135875000D01*
X181832142Y-135922619D01*
X182213095Y-135922619D02*
X182260714Y-135875000D01*
X182355952Y-135827380D01*
X182594047Y-135827380D01*
X182689285Y-135875000D01*
X182736904Y-135922619D01*
X182784523Y-136017857D01*
X182784523Y-136113095D01*
X182736904Y-136255952D01*
X182165476Y-136827380D01*
X182784523Y-136827380D01*
X183165476Y-135922619D02*
X183213095Y-135875000D01*
X183308333Y-135827380D01*
X183546428Y-135827380D01*
X183641666Y-135875000D01*
X183689285Y-135922619D01*
X183736904Y-136017857D01*
X183736904Y-136113095D01*
X183689285Y-136255952D01*
X183117857Y-136827380D01*
X183736904Y-136827380D01*
G04 #@! TO.C,C23*
X180282142Y-130757142D02*
X180234523Y-130804761D01*
X180091666Y-130852380D01*
X179996428Y-130852380D01*
X179853571Y-130804761D01*
X179758333Y-130709523D01*
X179710714Y-130614285D01*
X179663095Y-130423809D01*
X179663095Y-130280952D01*
X179710714Y-130090476D01*
X179758333Y-129995238D01*
X179853571Y-129900000D01*
X179996428Y-129852380D01*
X180091666Y-129852380D01*
X180234523Y-129900000D01*
X180282142Y-129947619D01*
X180663095Y-129947619D02*
X180710714Y-129900000D01*
X180805952Y-129852380D01*
X181044047Y-129852380D01*
X181139285Y-129900000D01*
X181186904Y-129947619D01*
X181234523Y-130042857D01*
X181234523Y-130138095D01*
X181186904Y-130280952D01*
X180615476Y-130852380D01*
X181234523Y-130852380D01*
X181567857Y-129852380D02*
X182186904Y-129852380D01*
X181853571Y-130233333D01*
X181996428Y-130233333D01*
X182091666Y-130280952D01*
X182139285Y-130328571D01*
X182186904Y-130423809D01*
X182186904Y-130661904D01*
X182139285Y-130757142D01*
X182091666Y-130804761D01*
X181996428Y-130852380D01*
X181710714Y-130852380D01*
X181615476Y-130804761D01*
X181567857Y-130757142D01*
G04 #@! TO.C,L2*
X170133333Y-122777380D02*
X169657142Y-122777380D01*
X169657142Y-121777380D01*
X170419047Y-121872619D02*
X170466666Y-121825000D01*
X170561904Y-121777380D01*
X170800000Y-121777380D01*
X170895238Y-121825000D01*
X170942857Y-121872619D01*
X170990476Y-121967857D01*
X170990476Y-122063095D01*
X170942857Y-122205952D01*
X170371428Y-122777380D01*
X170990476Y-122777380D01*
G04 #@! TO.C,R6*
X130272380Y-87386666D02*
X129796190Y-87720000D01*
X130272380Y-87958095D02*
X129272380Y-87958095D01*
X129272380Y-87577142D01*
X129320000Y-87481904D01*
X129367619Y-87434285D01*
X129462857Y-87386666D01*
X129605714Y-87386666D01*
X129700952Y-87434285D01*
X129748571Y-87481904D01*
X129796190Y-87577142D01*
X129796190Y-87958095D01*
X129272380Y-86529523D02*
X129272380Y-86720000D01*
X129320000Y-86815238D01*
X129367619Y-86862857D01*
X129510476Y-86958095D01*
X129700952Y-87005714D01*
X130081904Y-87005714D01*
X130177142Y-86958095D01*
X130224761Y-86910476D01*
X130272380Y-86815238D01*
X130272380Y-86624761D01*
X130224761Y-86529523D01*
X130177142Y-86481904D01*
X130081904Y-86434285D01*
X129843809Y-86434285D01*
X129748571Y-86481904D01*
X129700952Y-86529523D01*
X129653333Y-86624761D01*
X129653333Y-86815238D01*
X129700952Y-86910476D01*
X129748571Y-86958095D01*
X129843809Y-87005714D01*
G04 #@! TO.C,R9*
X181583333Y-135352380D02*
X181250000Y-134876190D01*
X181011904Y-135352380D02*
X181011904Y-134352380D01*
X181392857Y-134352380D01*
X181488095Y-134400000D01*
X181535714Y-134447619D01*
X181583333Y-134542857D01*
X181583333Y-134685714D01*
X181535714Y-134780952D01*
X181488095Y-134828571D01*
X181392857Y-134876190D01*
X181011904Y-134876190D01*
X182059523Y-135352380D02*
X182250000Y-135352380D01*
X182345238Y-135304761D01*
X182392857Y-135257142D01*
X182488095Y-135114285D01*
X182535714Y-134923809D01*
X182535714Y-134542857D01*
X182488095Y-134447619D01*
X182440476Y-134400000D01*
X182345238Y-134352380D01*
X182154761Y-134352380D01*
X182059523Y-134400000D01*
X182011904Y-134447619D01*
X181964285Y-134542857D01*
X181964285Y-134780952D01*
X182011904Y-134876190D01*
X182059523Y-134923809D01*
X182154761Y-134971428D01*
X182345238Y-134971428D01*
X182440476Y-134923809D01*
X182488095Y-134876190D01*
X182535714Y-134780952D01*
G04 #@! TO.C,R10*
X181557142Y-138302380D02*
X181223809Y-137826190D01*
X180985714Y-138302380D02*
X180985714Y-137302380D01*
X181366666Y-137302380D01*
X181461904Y-137350000D01*
X181509523Y-137397619D01*
X181557142Y-137492857D01*
X181557142Y-137635714D01*
X181509523Y-137730952D01*
X181461904Y-137778571D01*
X181366666Y-137826190D01*
X180985714Y-137826190D01*
X182509523Y-138302380D02*
X181938095Y-138302380D01*
X182223809Y-138302380D02*
X182223809Y-137302380D01*
X182128571Y-137445238D01*
X182033333Y-137540476D01*
X181938095Y-137588095D01*
X183128571Y-137302380D02*
X183223809Y-137302380D01*
X183319047Y-137350000D01*
X183366666Y-137397619D01*
X183414285Y-137492857D01*
X183461904Y-137683333D01*
X183461904Y-137921428D01*
X183414285Y-138111904D01*
X183366666Y-138207142D01*
X183319047Y-138254761D01*
X183223809Y-138302380D01*
X183128571Y-138302380D01*
X183033333Y-138254761D01*
X182985714Y-138207142D01*
X182938095Y-138111904D01*
X182890476Y-137921428D01*
X182890476Y-137683333D01*
X182938095Y-137492857D01*
X182985714Y-137397619D01*
X183033333Y-137350000D01*
X183128571Y-137302380D01*
G04 #@! TO.C,R11*
X179907142Y-139902380D02*
X179573809Y-139426190D01*
X179335714Y-139902380D02*
X179335714Y-138902380D01*
X179716666Y-138902380D01*
X179811904Y-138950000D01*
X179859523Y-138997619D01*
X179907142Y-139092857D01*
X179907142Y-139235714D01*
X179859523Y-139330952D01*
X179811904Y-139378571D01*
X179716666Y-139426190D01*
X179335714Y-139426190D01*
X180859523Y-139902380D02*
X180288095Y-139902380D01*
X180573809Y-139902380D02*
X180573809Y-138902380D01*
X180478571Y-139045238D01*
X180383333Y-139140476D01*
X180288095Y-139188095D01*
X181811904Y-139902380D02*
X181240476Y-139902380D01*
X181526190Y-139902380D02*
X181526190Y-138902380D01*
X181430952Y-139045238D01*
X181335714Y-139140476D01*
X181240476Y-139188095D01*
G04 #@! TO.C,RV2*
X177254761Y-141527380D02*
X176921428Y-141051190D01*
X176683333Y-141527380D02*
X176683333Y-140527380D01*
X177064285Y-140527380D01*
X177159523Y-140575000D01*
X177207142Y-140622619D01*
X177254761Y-140717857D01*
X177254761Y-140860714D01*
X177207142Y-140955952D01*
X177159523Y-141003571D01*
X177064285Y-141051190D01*
X176683333Y-141051190D01*
X177540476Y-140527380D02*
X177873809Y-141527380D01*
X178207142Y-140527380D01*
X178492857Y-140622619D02*
X178540476Y-140575000D01*
X178635714Y-140527380D01*
X178873809Y-140527380D01*
X178969047Y-140575000D01*
X179016666Y-140622619D01*
X179064285Y-140717857D01*
X179064285Y-140813095D01*
X179016666Y-140955952D01*
X178445238Y-141527380D01*
X179064285Y-141527380D01*
G04 #@! TO.C,SW4*
X126101666Y-134199761D02*
X126244523Y-134247380D01*
X126482619Y-134247380D01*
X126577857Y-134199761D01*
X126625476Y-134152142D01*
X126673095Y-134056904D01*
X126673095Y-133961666D01*
X126625476Y-133866428D01*
X126577857Y-133818809D01*
X126482619Y-133771190D01*
X126292142Y-133723571D01*
X126196904Y-133675952D01*
X126149285Y-133628333D01*
X126101666Y-133533095D01*
X126101666Y-133437857D01*
X126149285Y-133342619D01*
X126196904Y-133295000D01*
X126292142Y-133247380D01*
X126530238Y-133247380D01*
X126673095Y-133295000D01*
X127006428Y-133247380D02*
X127244523Y-134247380D01*
X127435000Y-133533095D01*
X127625476Y-134247380D01*
X127863571Y-133247380D01*
X128673095Y-133580714D02*
X128673095Y-134247380D01*
X128435000Y-133199761D02*
X128196904Y-133914047D01*
X128815952Y-133914047D01*
G04 #@! TO.C,BZ1*
X170599047Y-52588571D02*
X170741904Y-52636190D01*
X170789523Y-52683809D01*
X170837142Y-52779047D01*
X170837142Y-52921904D01*
X170789523Y-53017142D01*
X170741904Y-53064761D01*
X170646666Y-53112380D01*
X170265714Y-53112380D01*
X170265714Y-52112380D01*
X170599047Y-52112380D01*
X170694285Y-52160000D01*
X170741904Y-52207619D01*
X170789523Y-52302857D01*
X170789523Y-52398095D01*
X170741904Y-52493333D01*
X170694285Y-52540952D01*
X170599047Y-52588571D01*
X170265714Y-52588571D01*
X171170476Y-52112380D02*
X171837142Y-52112380D01*
X171170476Y-53112380D01*
X171837142Y-53112380D01*
X172741904Y-53112380D02*
X172170476Y-53112380D01*
X172456190Y-53112380D02*
X172456190Y-52112380D01*
X172360952Y-52255238D01*
X172265714Y-52350476D01*
X172170476Y-52398095D01*
G04 #@! TO.C,Q2*
D16*
X158399284Y-59598129D02*
X158370740Y-59655219D01*
X158313650Y-59712308D01*
X158228016Y-59797942D01*
X158199471Y-59855032D01*
X158199471Y-59912121D01*
X158342195Y-59883577D02*
X158313650Y-59940666D01*
X158256560Y-59997756D01*
X158142381Y-60026300D01*
X157942568Y-60026300D01*
X157828389Y-59997756D01*
X157771300Y-59940666D01*
X157742755Y-59883577D01*
X157742755Y-59769398D01*
X157771300Y-59712308D01*
X157828389Y-59655219D01*
X157942568Y-59626674D01*
X158142381Y-59626674D01*
X158256560Y-59655219D01*
X158313650Y-59712308D01*
X158342195Y-59769398D01*
X158342195Y-59883577D01*
X157799844Y-59398316D02*
X157771300Y-59369771D01*
X157742755Y-59312681D01*
X157742755Y-59169958D01*
X157771300Y-59112868D01*
X157799844Y-59084323D01*
X157856934Y-59055779D01*
X157914023Y-59055779D01*
X157999658Y-59084323D01*
X158342195Y-59426860D01*
X158342195Y-59055779D01*
G04 #@! TO.C,R7*
D11*
X160163333Y-63622380D02*
X159830000Y-63146190D01*
X159591904Y-63622380D02*
X159591904Y-62622380D01*
X159972857Y-62622380D01*
X160068095Y-62670000D01*
X160115714Y-62717619D01*
X160163333Y-62812857D01*
X160163333Y-62955714D01*
X160115714Y-63050952D01*
X160068095Y-63098571D01*
X159972857Y-63146190D01*
X159591904Y-63146190D01*
X160496666Y-62622380D02*
X161163333Y-62622380D01*
X160734761Y-63622380D01*
G04 #@! TO.C,J1*
X140526666Y-77962380D02*
X140526666Y-78676666D01*
X140479047Y-78819523D01*
X140383809Y-78914761D01*
X140240952Y-78962380D01*
X140145714Y-78962380D01*
X141526666Y-78962380D02*
X140955238Y-78962380D01*
X141240952Y-78962380D02*
X141240952Y-77962380D01*
X141145714Y-78105238D01*
X141050476Y-78200476D01*
X140955238Y-78248095D01*
G04 #@! TD*
M02*
