G04 #@! TF.GenerationSoftware,KiCad,Pcbnew,5.0.1*
G04 #@! TF.CreationDate,2019-02-07T01:14:43+00:00*
G04 #@! TF.ProjectId,nixie_control_board,6E697869655F636F6E74726F6C5F626F,rev?*
G04 #@! TF.SameCoordinates,Original*
G04 #@! TF.FileFunction,Legend,Bot*
G04 #@! TF.FilePolarity,Positive*
%FSLAX46Y46*%
G04 Gerber Fmt 4.6, Leading zero omitted, Abs format (unit mm)*
G04 Created by KiCad (PCBNEW 5.0.1) date Do 07 Feb 2019 01:14:43 UTC*
%MOMM*%
%LPD*%
G01*
G04 APERTURE LIST*
%ADD10C,0.150000*%
%ADD11C,0.120000*%
G04 APERTURE END LIST*
D10*
G04 #@! TO.C,U7*
X123320000Y-97070000D02*
X120580000Y-97070000D01*
X127278000Y-80198000D02*
X127278000Y-101942000D01*
X140482000Y-101942000D02*
X127278000Y-101942000D01*
X142580000Y-104420000D02*
X123320000Y-104420000D01*
X123320000Y-104420000D02*
X123320000Y-77720000D01*
X142580000Y-104420000D02*
X142580000Y-77720000D01*
X142580000Y-77720000D02*
X123320000Y-77720000D01*
X140482000Y-80198000D02*
X127278000Y-80198000D01*
X140482000Y-80198000D02*
X140482000Y-101942000D01*
X119580000Y-96070000D02*
X119580000Y-88070000D01*
X123320000Y-85070000D02*
X120580000Y-85070000D01*
D11*
G04 #@! TO.C,P3*
X156190000Y-117340000D02*
X154930000Y-117340000D01*
X149370000Y-117340000D02*
X150630000Y-117340000D01*
X156190000Y-113580000D02*
X156190000Y-117340000D01*
X149370000Y-111330000D02*
X149370000Y-117340000D01*
D10*
G04 #@! TO.C,C8*
X157210000Y-112120000D02*
X157210000Y-112820000D01*
X158410000Y-112820000D02*
X158410000Y-112120000D01*
G04 #@! TO.C,C9*
X148630000Y-118740000D02*
X148630000Y-118040000D01*
X147430000Y-118040000D02*
X147430000Y-118740000D01*
G04 #@! TO.C,R4*
X158355000Y-119070000D02*
X158355000Y-118070000D01*
X157005000Y-118070000D02*
X157005000Y-119070000D01*
G04 #@! TO.C,R5*
X159025000Y-118070000D02*
X159025000Y-119070000D01*
X160375000Y-119070000D02*
X160375000Y-118070000D01*
G04 #@! TD*
G04 #@! TO.C,U7*
X121032380Y-102308095D02*
X121841904Y-102308095D01*
X121937142Y-102355714D01*
X121984761Y-102403333D01*
X122032380Y-102498571D01*
X122032380Y-102689047D01*
X121984761Y-102784285D01*
X121937142Y-102831904D01*
X121841904Y-102879523D01*
X121032380Y-102879523D01*
X121032380Y-103260476D02*
X121032380Y-103927142D01*
X122032380Y-103498571D01*
G04 #@! TO.C,P3*
X148732380Y-114691904D02*
X147732380Y-114691904D01*
X147732380Y-115072857D01*
X147780000Y-115168095D01*
X147827619Y-115215714D01*
X147922857Y-115263333D01*
X148065714Y-115263333D01*
X148160952Y-115215714D01*
X148208571Y-115168095D01*
X148256190Y-115072857D01*
X148256190Y-114691904D01*
X147732380Y-115596666D02*
X147732380Y-116215714D01*
X148113333Y-115882380D01*
X148113333Y-116025238D01*
X148160952Y-116120476D01*
X148208571Y-116168095D01*
X148303809Y-116215714D01*
X148541904Y-116215714D01*
X148637142Y-116168095D01*
X148684761Y-116120476D01*
X148732380Y-116025238D01*
X148732380Y-115739523D01*
X148684761Y-115644285D01*
X148637142Y-115596666D01*
G04 #@! TO.C,C8*
X158177142Y-114803333D02*
X158224761Y-114755714D01*
X158272380Y-114612857D01*
X158272380Y-114517619D01*
X158224761Y-114374761D01*
X158129523Y-114279523D01*
X158034285Y-114231904D01*
X157843809Y-114184285D01*
X157700952Y-114184285D01*
X157510476Y-114231904D01*
X157415238Y-114279523D01*
X157320000Y-114374761D01*
X157272380Y-114517619D01*
X157272380Y-114612857D01*
X157320000Y-114755714D01*
X157367619Y-114803333D01*
X157700952Y-115374761D02*
X157653333Y-115279523D01*
X157605714Y-115231904D01*
X157510476Y-115184285D01*
X157462857Y-115184285D01*
X157367619Y-115231904D01*
X157320000Y-115279523D01*
X157272380Y-115374761D01*
X157272380Y-115565238D01*
X157320000Y-115660476D01*
X157367619Y-115708095D01*
X157462857Y-115755714D01*
X157510476Y-115755714D01*
X157605714Y-115708095D01*
X157653333Y-115660476D01*
X157700952Y-115565238D01*
X157700952Y-115374761D01*
X157748571Y-115279523D01*
X157796190Y-115231904D01*
X157891428Y-115184285D01*
X158081904Y-115184285D01*
X158177142Y-115231904D01*
X158224761Y-115279523D01*
X158272380Y-115374761D01*
X158272380Y-115565238D01*
X158224761Y-115660476D01*
X158177142Y-115708095D01*
X158081904Y-115755714D01*
X157891428Y-115755714D01*
X157796190Y-115708095D01*
X157748571Y-115660476D01*
X157700952Y-115565238D01*
G04 #@! TO.C,C9*
X148477142Y-115743333D02*
X148524761Y-115695714D01*
X148572380Y-115552857D01*
X148572380Y-115457619D01*
X148524761Y-115314761D01*
X148429523Y-115219523D01*
X148334285Y-115171904D01*
X148143809Y-115124285D01*
X148000952Y-115124285D01*
X147810476Y-115171904D01*
X147715238Y-115219523D01*
X147620000Y-115314761D01*
X147572380Y-115457619D01*
X147572380Y-115552857D01*
X147620000Y-115695714D01*
X147667619Y-115743333D01*
X148572380Y-116219523D02*
X148572380Y-116410000D01*
X148524761Y-116505238D01*
X148477142Y-116552857D01*
X148334285Y-116648095D01*
X148143809Y-116695714D01*
X147762857Y-116695714D01*
X147667619Y-116648095D01*
X147620000Y-116600476D01*
X147572380Y-116505238D01*
X147572380Y-116314761D01*
X147620000Y-116219523D01*
X147667619Y-116171904D01*
X147762857Y-116124285D01*
X148000952Y-116124285D01*
X148096190Y-116171904D01*
X148143809Y-116219523D01*
X148191428Y-116314761D01*
X148191428Y-116505238D01*
X148143809Y-116600476D01*
X148096190Y-116648095D01*
X148000952Y-116695714D01*
G04 #@! TO.C,R4*
X158052380Y-115983333D02*
X157576190Y-115650000D01*
X158052380Y-115411904D02*
X157052380Y-115411904D01*
X157052380Y-115792857D01*
X157100000Y-115888095D01*
X157147619Y-115935714D01*
X157242857Y-115983333D01*
X157385714Y-115983333D01*
X157480952Y-115935714D01*
X157528571Y-115888095D01*
X157576190Y-115792857D01*
X157576190Y-115411904D01*
X157385714Y-116840476D02*
X158052380Y-116840476D01*
X157004761Y-116602380D02*
X157719047Y-116364285D01*
X157719047Y-116983333D01*
G04 #@! TO.C,R5*
X160327380Y-116133333D02*
X159851190Y-115800000D01*
X160327380Y-115561904D02*
X159327380Y-115561904D01*
X159327380Y-115942857D01*
X159375000Y-116038095D01*
X159422619Y-116085714D01*
X159517857Y-116133333D01*
X159660714Y-116133333D01*
X159755952Y-116085714D01*
X159803571Y-116038095D01*
X159851190Y-115942857D01*
X159851190Y-115561904D01*
X159327380Y-117038095D02*
X159327380Y-116561904D01*
X159803571Y-116514285D01*
X159755952Y-116561904D01*
X159708333Y-116657142D01*
X159708333Y-116895238D01*
X159755952Y-116990476D01*
X159803571Y-117038095D01*
X159898809Y-117085714D01*
X160136904Y-117085714D01*
X160232142Y-117038095D01*
X160279761Y-116990476D01*
X160327380Y-116895238D01*
X160327380Y-116657142D01*
X160279761Y-116561904D01*
X160232142Y-116514285D01*
G04 #@! TD*
M02*
