G04 #@! TF.GenerationSoftware,KiCad,Pcbnew,5.0.1*
G04 #@! TF.CreationDate,2019-02-07T01:14:43+00:00*
G04 #@! TF.ProjectId,nixie_control_board,6E697869655F636F6E74726F6C5F626F,rev?*
G04 #@! TF.SameCoordinates,Original*
G04 #@! TF.FileFunction,Paste,Top*
G04 #@! TF.FilePolarity,Positive*
%FSLAX46Y46*%
G04 Gerber Fmt 4.6, Leading zero omitted, Abs format (unit mm)*
G04 Created by KiCad (PCBNEW 5.0.1) date Do 07 Feb 2019 01:14:43 UTC*
%MOMM*%
%LPD*%
G01*
G04 APERTURE LIST*
%ADD10R,1.524000X0.760000*%
%ADD11R,0.800000X0.750000*%
%ADD12R,1.600000X1.000000*%
%ADD13R,2.700000X2.550000*%
%ADD14R,4.000000X0.400000*%
%ADD15R,4.000000X6.000000*%
%ADD16R,0.400000X0.500000*%
%ADD17R,0.300000X0.500000*%
%ADD18R,0.599440X1.625000*%
%ADD19R,0.500000X0.400000*%
%ADD20R,0.500000X0.300000*%
%ADD21R,0.599440X1.549400*%
%ADD22R,1.000000X3.200000*%
%ADD23R,0.500000X0.900000*%
%ADD24R,2.500000X1.000000*%
%ADD25R,0.750000X0.800000*%
%ADD26R,2.700000X2.200000*%
%ADD27R,0.900000X0.500000*%
%ADD28R,1.200000X1.200000*%
%ADD29R,1.500000X1.600000*%
%ADD30R,0.914400X0.914400*%
G04 APERTURE END LIST*
D10*
G04 #@! TO.C,U3*
X150700000Y-134134000D03*
X150700000Y-135404000D03*
X150700000Y-136674000D03*
X150700000Y-137944000D03*
X155300000Y-137944000D03*
X155300000Y-136674000D03*
X155300000Y-135404000D03*
X155300000Y-134134000D03*
G04 #@! TD*
D11*
G04 #@! TO.C,C5*
X155510000Y-139290000D03*
X154010000Y-139290000D03*
G04 #@! TD*
D12*
G04 #@! TO.C,C7*
X160300000Y-130980000D03*
X160300000Y-127980000D03*
G04 #@! TD*
G04 #@! TO.C,C23*
X137180000Y-120810000D03*
X137180000Y-117810000D03*
G04 #@! TD*
D13*
G04 #@! TO.C,C10*
X140570000Y-138315000D03*
X140570000Y-144665000D03*
G04 #@! TD*
D14*
G04 #@! TO.C,U7*
X126330000Y-80920058D03*
X126330000Y-81620056D03*
X126330000Y-84420048D03*
X126330000Y-83020052D03*
X126330000Y-91420028D03*
X126330000Y-88620036D03*
X126330000Y-92820024D03*
X126330000Y-87220040D03*
X126330000Y-85820044D03*
X126330000Y-90020032D03*
X126330000Y-82320054D03*
X126330000Y-83720050D03*
X126330000Y-85120046D03*
X126330000Y-94920018D03*
X126330000Y-100520002D03*
X126330000Y-99120006D03*
X126330000Y-97020012D03*
X126330000Y-97720010D03*
X126330000Y-89320034D03*
X126330000Y-92120026D03*
X126330000Y-93520022D03*
X126330000Y-87920038D03*
X126330000Y-86520042D03*
X126330000Y-90720030D03*
X126330000Y-94220020D03*
X126330000Y-95620016D03*
X126330000Y-96320014D03*
X126330000Y-98420008D03*
X126330000Y-99820004D03*
X126330000Y-101220000D03*
G04 #@! TD*
D15*
G04 #@! TO.C,L1*
X134192000Y-128628000D03*
X146192000Y-128628000D03*
G04 #@! TD*
D16*
G04 #@! TO.C,RP2*
X140420000Y-75010000D03*
D17*
X139420000Y-75010000D03*
X139920000Y-75010000D03*
D16*
X138920000Y-75010000D03*
D17*
X139920000Y-76010000D03*
D16*
X140420000Y-76010000D03*
D17*
X139420000Y-76010000D03*
D16*
X138920000Y-76010000D03*
G04 #@! TD*
D18*
G04 #@! TO.C,U1*
X133450000Y-71325000D03*
X132180000Y-71325000D03*
X130910000Y-71325000D03*
X129640000Y-71325000D03*
X128370000Y-71325000D03*
X127100000Y-71325000D03*
X125830000Y-71325000D03*
X124560000Y-71325000D03*
X124560000Y-62200000D03*
X125830000Y-62200000D03*
X127100000Y-62200000D03*
X128370000Y-62200000D03*
X129640000Y-62200000D03*
X130910000Y-62200000D03*
X132180000Y-62200000D03*
X133450000Y-62200000D03*
G04 #@! TD*
D11*
G04 #@! TO.C,C1*
X141370000Y-85710000D03*
X139870000Y-85710000D03*
G04 #@! TD*
G04 #@! TO.C,C2*
X129440000Y-59780000D03*
X130940000Y-59780000D03*
G04 #@! TD*
D19*
G04 #@! TO.C,RP1*
X136420000Y-70150000D03*
D20*
X136420000Y-69150000D03*
X136420000Y-69650000D03*
D19*
X136420000Y-68650000D03*
D20*
X135420000Y-69650000D03*
D19*
X135420000Y-70150000D03*
D20*
X135420000Y-69150000D03*
D19*
X135420000Y-68650000D03*
G04 #@! TD*
D21*
G04 #@! TO.C,U2*
X141192460Y-78172520D03*
X139922460Y-78172520D03*
X138657540Y-78172520D03*
X137387540Y-78172520D03*
X137387540Y-83567480D03*
X138657540Y-83567480D03*
X139922460Y-83567480D03*
X141192460Y-83567480D03*
G04 #@! TD*
D22*
G04 #@! TO.C,R1*
X158230000Y-135750000D03*
X164430000Y-135750000D03*
G04 #@! TD*
D11*
G04 #@! TO.C,C4*
X147160000Y-138060000D03*
X145660000Y-138060000D03*
G04 #@! TD*
D23*
G04 #@! TO.C,R3*
X155530000Y-140790000D03*
X154030000Y-140790000D03*
G04 #@! TD*
D24*
G04 #@! TO.C,C3*
X144690000Y-139610000D03*
X144690000Y-142610000D03*
G04 #@! TD*
D22*
G04 #@! TO.C,R2*
X169830000Y-131720000D03*
X163630000Y-131720000D03*
G04 #@! TD*
D11*
G04 #@! TO.C,C11*
X130580000Y-95570000D03*
X132080000Y-95570000D03*
G04 #@! TD*
D25*
G04 #@! TO.C,C12*
X129800000Y-80470000D03*
X129800000Y-81970000D03*
G04 #@! TD*
D11*
G04 #@! TO.C,C13*
X132090000Y-97010000D03*
X130590000Y-97010000D03*
G04 #@! TD*
D25*
G04 #@! TO.C,C14*
X131240000Y-82290000D03*
X131240000Y-83790000D03*
G04 #@! TD*
G04 #@! TO.C,C15*
X130480000Y-101700000D03*
X130480000Y-100200000D03*
G04 #@! TD*
G04 #@! TO.C,C16*
X132080000Y-100010000D03*
X132080000Y-98510000D03*
G04 #@! TD*
D24*
G04 #@! TO.C,C19*
X131360000Y-124360000D03*
X131360000Y-121360000D03*
G04 #@! TD*
D25*
G04 #@! TO.C,C20*
X123460000Y-121460000D03*
X123460000Y-122960000D03*
G04 #@! TD*
D11*
G04 #@! TO.C,C21*
X128260000Y-117210000D03*
X126760000Y-117210000D03*
G04 #@! TD*
D25*
G04 #@! TO.C,C22*
X126250000Y-126890000D03*
X126250000Y-128390000D03*
G04 #@! TD*
D26*
G04 #@! TO.C,L2*
X135850000Y-112050000D03*
X140950000Y-112050000D03*
G04 #@! TD*
D27*
G04 #@! TO.C,R6*
X129800000Y-85680000D03*
X129800000Y-84180000D03*
G04 #@! TD*
G04 #@! TO.C,R9*
X127900000Y-126750000D03*
X127900000Y-128250000D03*
G04 #@! TD*
D23*
G04 #@! TO.C,R10*
X126270000Y-129980000D03*
X124770000Y-129980000D03*
G04 #@! TD*
D27*
G04 #@! TO.C,R11*
X124620000Y-128250000D03*
X124620000Y-126750000D03*
G04 #@! TD*
D28*
G04 #@! TO.C,RV2*
X130690000Y-116720000D03*
X130690000Y-119520000D03*
D29*
X133930000Y-118120000D03*
G04 #@! TD*
D21*
G04 #@! TO.C,U8*
X128762460Y-119552520D03*
X127492460Y-119552520D03*
X126227540Y-119552520D03*
X124957540Y-119552520D03*
X124957540Y-124947480D03*
X126227540Y-124947480D03*
X127492460Y-124947480D03*
X128762460Y-124947480D03*
G04 #@! TD*
D30*
G04 #@! TO.C,Q2*
X148746000Y-54679000D03*
X148746000Y-52901000D03*
X146729240Y-53790000D03*
G04 #@! TD*
D23*
G04 #@! TO.C,R7*
X148740000Y-56750000D03*
X147240000Y-56750000D03*
G04 #@! TD*
M02*
