G04 #@! TF.GenerationSoftware,KiCad,Pcbnew,5.0.1*
G04 #@! TF.CreationDate,2019-02-05T22:36:18+00:00*
G04 #@! TF.ProjectId,nixie_control_board,6E697869655F636F6E74726F6C5F626F,rev?*
G04 #@! TF.SameCoordinates,Original*
G04 #@! TF.FileFunction,Legend,Bot*
G04 #@! TF.FilePolarity,Positive*
%FSLAX46Y46*%
G04 Gerber Fmt 4.6, Leading zero omitted, Abs format (unit mm)*
G04 Created by KiCad (PCBNEW 5.0.1) date Di 05 Feb 2019 22:36:18 UTC*
%MOMM*%
%LPD*%
G01*
G04 APERTURE LIST*
%ADD10C,0.150000*%
%ADD11C,0.120000*%
%ADD12C,0.381000*%
%ADD13C,0.010000*%
%ADD14C,0.100000*%
%ADD15C,0.203200*%
%ADD16C,0.074930*%
G04 APERTURE END LIST*
D10*
G04 #@! TO.C,U7*
X123320000Y-97070000D02*
X120580000Y-97070000D01*
X127278000Y-80198000D02*
X127278000Y-101942000D01*
X140482000Y-101942000D02*
X127278000Y-101942000D01*
X142580000Y-104420000D02*
X123320000Y-104420000D01*
X123320000Y-104420000D02*
X123320000Y-77720000D01*
X142580000Y-104420000D02*
X142580000Y-77720000D01*
X142580000Y-77720000D02*
X123320000Y-77720000D01*
X140482000Y-80198000D02*
X127278000Y-80198000D01*
X140482000Y-80198000D02*
X140482000Y-101942000D01*
X119580000Y-96070000D02*
X119580000Y-88070000D01*
X123320000Y-85070000D02*
X120580000Y-85070000D01*
D11*
G04 #@! TO.C,RP2*
X135690000Y-69890000D02*
X135690000Y-70390000D01*
X133330000Y-69890000D02*
X133330000Y-70390000D01*
D10*
G04 #@! TO.C,C1*
X135700000Y-59300000D02*
X135000000Y-59300000D01*
X135000000Y-60500000D02*
X135700000Y-60500000D01*
D12*
G04 #@! TO.C,SW1*
X167400000Y-103895000D02*
X167400000Y-105673000D01*
X167400000Y-114817000D02*
X167400000Y-116595000D01*
X167400000Y-116595000D02*
X169178000Y-116595000D01*
X178322000Y-116595000D02*
X180100000Y-116595000D01*
X180100000Y-116595000D02*
X180100000Y-114817000D01*
X180100000Y-105673000D02*
X180100000Y-103895000D01*
X180100000Y-103895000D02*
X178322000Y-103895000D01*
X169178000Y-103895000D02*
X167400000Y-103895000D01*
G04 #@! TO.C,SW2*
X167400000Y-84895000D02*
X167400000Y-86673000D01*
X167400000Y-95817000D02*
X167400000Y-97595000D01*
X167400000Y-97595000D02*
X169178000Y-97595000D01*
X178322000Y-97595000D02*
X180100000Y-97595000D01*
X180100000Y-97595000D02*
X180100000Y-95817000D01*
X180100000Y-86673000D02*
X180100000Y-84895000D01*
X180100000Y-84895000D02*
X178322000Y-84895000D01*
X169178000Y-84895000D02*
X167400000Y-84895000D01*
G04 #@! TO.C,SW3*
X167400000Y-65895000D02*
X167400000Y-67673000D01*
X167400000Y-76817000D02*
X167400000Y-78595000D01*
X167400000Y-78595000D02*
X169178000Y-78595000D01*
X178322000Y-78595000D02*
X180100000Y-78595000D01*
X180100000Y-78595000D02*
X180100000Y-76817000D01*
X180100000Y-67673000D02*
X180100000Y-65895000D01*
X180100000Y-65895000D02*
X178322000Y-65895000D01*
X169178000Y-65895000D02*
X167400000Y-65895000D01*
D13*
G04 #@! TO.C,U2*
X136164544Y-66351140D02*
G75*
G03X136164544Y-66351140I-144624J0D01*
G01*
X136568560Y-62901820D02*
X136449180Y-62901820D01*
X131790820Y-62901820D02*
X131671440Y-62901820D01*
X131671440Y-62901820D02*
X131671440Y-66798180D01*
X136568560Y-66798180D02*
X136449180Y-66798180D01*
X131790820Y-66798180D02*
X131671440Y-66798180D01*
X136568560Y-62901820D02*
X136568560Y-66798180D01*
D10*
G04 #@! TO.C,U4*
X179270000Y-21960000D02*
X179270000Y-58960000D01*
X163270000Y-21960000D02*
X179270000Y-21960000D01*
X163270000Y-58960000D02*
X163270000Y-21960000D01*
X179270000Y-58960000D02*
X163270000Y-58960000D01*
G04 #@! TO.C,LCD1*
X122470000Y-108150000D02*
X155470000Y-108150000D01*
X122470000Y-72150000D02*
X122470000Y-108150000D01*
X155470000Y-72150000D02*
X122470000Y-72150000D01*
X155470000Y-108150000D02*
X155470000Y-72150000D01*
G04 #@! TD*
D14*
G04 #@! TO.C,SW1*
X169763000Y-112785000D02*
G75*
G03X169763000Y-112785000I-1093000J0D01*
G01*
X172303000Y-106435000D02*
G75*
G03X172303000Y-106435000I-1093000J0D01*
G01*
G04 #@! TD*
G04 #@! TO.C,SW2*
X169763000Y-93785000D02*
G75*
G03X169763000Y-93785000I-1093000J0D01*
G01*
X172303000Y-87435000D02*
G75*
G03X172303000Y-87435000I-1093000J0D01*
G01*
G04 #@! TD*
G04 #@! TO.C,SW3*
X169763000Y-74785000D02*
G75*
G03X169763000Y-74785000I-1093000J0D01*
G01*
X172303000Y-68435000D02*
G75*
G03X172303000Y-68435000I-1093000J0D01*
G01*
G04 #@! TD*
G04 #@! TO.C,U4*
X174660000Y-55960000D02*
G75*
G03X174660000Y-55960000I-850000J0D01*
G01*
X172120000Y-55960000D02*
G75*
G03X172120000Y-55960000I-850000J0D01*
G01*
X169580000Y-55960000D02*
G75*
G03X169580000Y-55960000I-850000J0D01*
G01*
G04 #@! TD*
G04 #@! TO.C,LCD1*
X154320000Y-93960000D02*
G75*
G03X154320000Y-93960000I-850000J0D01*
G01*
X154320000Y-91420000D02*
G75*
G03X154320000Y-91420000I-850000J0D01*
G01*
X154320000Y-88880000D02*
G75*
G03X154320000Y-88880000I-850000J0D01*
G01*
X154320000Y-86340000D02*
G75*
G03X154320000Y-86340000I-850000J0D01*
G01*
X154020000Y-75150000D02*
G75*
G03X154020000Y-75150000I-1550000J0D01*
G01*
X154020000Y-105150000D02*
G75*
G03X154020000Y-105150000I-1550000J0D01*
G01*
X125520000Y-75150000D02*
G75*
G03X125520000Y-75150000I-1550000J0D01*
G01*
X125520000Y-105150000D02*
G75*
G03X125520000Y-105150000I-1550000J0D01*
G01*
G04 #@! TD*
G04 #@! TO.C,U7*
D10*
X121032380Y-102308095D02*
X121841904Y-102308095D01*
X121937142Y-102355714D01*
X121984761Y-102403333D01*
X122032380Y-102498571D01*
X122032380Y-102689047D01*
X121984761Y-102784285D01*
X121937142Y-102831904D01*
X121841904Y-102879523D01*
X121032380Y-102879523D01*
X121032380Y-103260476D02*
X121032380Y-103927142D01*
X122032380Y-103498571D01*
G04 #@! TO.C,RP2*
X137062380Y-69473333D02*
X136586190Y-69140000D01*
X137062380Y-68901904D02*
X136062380Y-68901904D01*
X136062380Y-69282857D01*
X136110000Y-69378095D01*
X136157619Y-69425714D01*
X136252857Y-69473333D01*
X136395714Y-69473333D01*
X136490952Y-69425714D01*
X136538571Y-69378095D01*
X136586190Y-69282857D01*
X136586190Y-68901904D01*
X137062380Y-69901904D02*
X136062380Y-69901904D01*
X136062380Y-70282857D01*
X136110000Y-70378095D01*
X136157619Y-70425714D01*
X136252857Y-70473333D01*
X136395714Y-70473333D01*
X136490952Y-70425714D01*
X136538571Y-70378095D01*
X136586190Y-70282857D01*
X136586190Y-69901904D01*
X136157619Y-70854285D02*
X136110000Y-70901904D01*
X136062380Y-70997142D01*
X136062380Y-71235238D01*
X136110000Y-71330476D01*
X136157619Y-71378095D01*
X136252857Y-71425714D01*
X136348095Y-71425714D01*
X136490952Y-71378095D01*
X137062380Y-70806666D01*
X137062380Y-71425714D01*
G04 #@! TO.C,C1*
X138066666Y-60247142D02*
X138114285Y-60294761D01*
X138257142Y-60342380D01*
X138352380Y-60342380D01*
X138495238Y-60294761D01*
X138590476Y-60199523D01*
X138638095Y-60104285D01*
X138685714Y-59913809D01*
X138685714Y-59770952D01*
X138638095Y-59580476D01*
X138590476Y-59485238D01*
X138495238Y-59390000D01*
X138352380Y-59342380D01*
X138257142Y-59342380D01*
X138114285Y-59390000D01*
X138066666Y-59437619D01*
X137114285Y-60342380D02*
X137685714Y-60342380D01*
X137400000Y-60342380D02*
X137400000Y-59342380D01*
X137495238Y-59485238D01*
X137590476Y-59580476D01*
X137685714Y-59628095D01*
G04 #@! TO.C,SW1*
D15*
X177439047Y-108213000D02*
X177499523Y-108430714D01*
X177499523Y-108793571D01*
X177439047Y-108938714D01*
X177378571Y-109011285D01*
X177257619Y-109083857D01*
X177136666Y-109083857D01*
X177015714Y-109011285D01*
X176955238Y-108938714D01*
X176894761Y-108793571D01*
X176834285Y-108503285D01*
X176773809Y-108358142D01*
X176713333Y-108285571D01*
X176592380Y-108213000D01*
X176471428Y-108213000D01*
X176350476Y-108285571D01*
X176290000Y-108358142D01*
X176229523Y-108503285D01*
X176229523Y-108866142D01*
X176290000Y-109083857D01*
X176229523Y-109591857D02*
X177499523Y-109954714D01*
X176592380Y-110245000D01*
X177499523Y-110535285D01*
X176229523Y-110898142D01*
X177499523Y-112277000D02*
X177499523Y-111406142D01*
X177499523Y-111841571D02*
X176229523Y-111841571D01*
X176410952Y-111696428D01*
X176531904Y-111551285D01*
X176592380Y-111406142D01*
G04 #@! TO.C,SW2*
X177439047Y-89213000D02*
X177499523Y-89430714D01*
X177499523Y-89793571D01*
X177439047Y-89938714D01*
X177378571Y-90011285D01*
X177257619Y-90083857D01*
X177136666Y-90083857D01*
X177015714Y-90011285D01*
X176955238Y-89938714D01*
X176894761Y-89793571D01*
X176834285Y-89503285D01*
X176773809Y-89358142D01*
X176713333Y-89285571D01*
X176592380Y-89213000D01*
X176471428Y-89213000D01*
X176350476Y-89285571D01*
X176290000Y-89358142D01*
X176229523Y-89503285D01*
X176229523Y-89866142D01*
X176290000Y-90083857D01*
X176229523Y-90591857D02*
X177499523Y-90954714D01*
X176592380Y-91245000D01*
X177499523Y-91535285D01*
X176229523Y-91898142D01*
X176350476Y-92406142D02*
X176290000Y-92478714D01*
X176229523Y-92623857D01*
X176229523Y-92986714D01*
X176290000Y-93131857D01*
X176350476Y-93204428D01*
X176471428Y-93277000D01*
X176592380Y-93277000D01*
X176773809Y-93204428D01*
X177499523Y-92333571D01*
X177499523Y-93277000D01*
G04 #@! TO.C,SW3*
X177439047Y-70213000D02*
X177499523Y-70430714D01*
X177499523Y-70793571D01*
X177439047Y-70938714D01*
X177378571Y-71011285D01*
X177257619Y-71083857D01*
X177136666Y-71083857D01*
X177015714Y-71011285D01*
X176955238Y-70938714D01*
X176894761Y-70793571D01*
X176834285Y-70503285D01*
X176773809Y-70358142D01*
X176713333Y-70285571D01*
X176592380Y-70213000D01*
X176471428Y-70213000D01*
X176350476Y-70285571D01*
X176290000Y-70358142D01*
X176229523Y-70503285D01*
X176229523Y-70866142D01*
X176290000Y-71083857D01*
X176229523Y-71591857D02*
X177499523Y-71954714D01*
X176592380Y-72245000D01*
X177499523Y-72535285D01*
X176229523Y-72898142D01*
X176229523Y-73333571D02*
X176229523Y-74277000D01*
X176713333Y-73769000D01*
X176713333Y-73986714D01*
X176773809Y-74131857D01*
X176834285Y-74204428D01*
X176955238Y-74277000D01*
X177257619Y-74277000D01*
X177378571Y-74204428D01*
X177439047Y-74131857D01*
X177499523Y-73986714D01*
X177499523Y-73551285D01*
X177439047Y-73406142D01*
X177378571Y-73333571D01*
G04 #@! TO.C,U2*
D16*
X138411904Y-64292380D02*
X138411904Y-65101904D01*
X138364285Y-65197142D01*
X138316666Y-65244761D01*
X138221428Y-65292380D01*
X138030952Y-65292380D01*
X137935714Y-65244761D01*
X137888095Y-65197142D01*
X137840476Y-65101904D01*
X137840476Y-64292380D01*
X137411904Y-64387619D02*
X137364285Y-64340000D01*
X137269047Y-64292380D01*
X137030952Y-64292380D01*
X136935714Y-64340000D01*
X136888095Y-64387619D01*
X136840476Y-64482857D01*
X136840476Y-64578095D01*
X136888095Y-64720952D01*
X137459523Y-65292380D01*
X136840476Y-65292380D01*
G04 #@! TO.C,U4*
D10*
X172031904Y-60412380D02*
X172031904Y-61221904D01*
X171984285Y-61317142D01*
X171936666Y-61364761D01*
X171841428Y-61412380D01*
X171650952Y-61412380D01*
X171555714Y-61364761D01*
X171508095Y-61317142D01*
X171460476Y-61221904D01*
X171460476Y-60412380D01*
X170555714Y-60745714D02*
X170555714Y-61412380D01*
X170793809Y-60364761D02*
X171031904Y-61079047D01*
X170412857Y-61079047D01*
G04 #@! TO.C,LCD1*
X121482380Y-72773333D02*
X121482380Y-72297142D01*
X120482380Y-72297142D01*
X121387142Y-73678095D02*
X121434761Y-73630476D01*
X121482380Y-73487619D01*
X121482380Y-73392380D01*
X121434761Y-73249523D01*
X121339523Y-73154285D01*
X121244285Y-73106666D01*
X121053809Y-73059047D01*
X120910952Y-73059047D01*
X120720476Y-73106666D01*
X120625238Y-73154285D01*
X120530000Y-73249523D01*
X120482380Y-73392380D01*
X120482380Y-73487619D01*
X120530000Y-73630476D01*
X120577619Y-73678095D01*
X121482380Y-74106666D02*
X120482380Y-74106666D01*
X120482380Y-74344761D01*
X120530000Y-74487619D01*
X120625238Y-74582857D01*
X120720476Y-74630476D01*
X120910952Y-74678095D01*
X121053809Y-74678095D01*
X121244285Y-74630476D01*
X121339523Y-74582857D01*
X121434761Y-74487619D01*
X121482380Y-74344761D01*
X121482380Y-74106666D01*
X121482380Y-75630476D02*
X121482380Y-75059047D01*
X121482380Y-75344761D02*
X120482380Y-75344761D01*
X120625238Y-75249523D01*
X120720476Y-75154285D01*
X120768095Y-75059047D01*
G04 #@! TD*
M02*
