G04 #@! TF.GenerationSoftware,KiCad,Pcbnew,(6.0.5)*
G04 #@! TF.CreationDate,2022-05-31T00:33:45+02:00*
G04 #@! TF.ProjectId,nixie_control_board,6e697869-655f-4636-9f6e-74726f6c5f62,rev?*
G04 #@! TF.SameCoordinates,Original*
G04 #@! TF.FileFunction,Soldermask,Bot*
G04 #@! TF.FilePolarity,Negative*
%FSLAX46Y46*%
G04 Gerber Fmt 4.6, Leading zero omitted, Abs format (unit mm)*
G04 Created by KiCad (PCBNEW (6.0.5)) date 2022-05-31 00:33:45*
%MOMM*%
%LPD*%
G01*
G04 APERTURE LIST*
G04 Aperture macros list*
%AMRoundRect*
0 Rectangle with rounded corners*
0 $1 Rounding radius*
0 $2 $3 $4 $5 $6 $7 $8 $9 X,Y pos of 4 corners*
0 Add a 4 corners polygon primitive as box body*
4,1,4,$2,$3,$4,$5,$6,$7,$8,$9,$2,$3,0*
0 Add four circle primitives for the rounded corners*
1,1,$1+$1,$2,$3*
1,1,$1+$1,$4,$5*
1,1,$1+$1,$6,$7*
1,1,$1+$1,$8,$9*
0 Add four rect primitives between the rounded corners*
20,1,$1+$1,$2,$3,$4,$5,0*
20,1,$1+$1,$4,$5,$6,$7,0*
20,1,$1+$1,$6,$7,$8,$9,0*
20,1,$1+$1,$8,$9,$2,$3,0*%
G04 Aperture macros list end*
%ADD10C,3.400000*%
%ADD11C,2.200000*%
%ADD12O,3.900000X3.900000*%
%ADD13RoundRect,0.200000X-1.000000X0.952500X-1.000000X-0.952500X1.000000X-0.952500X1.000000X0.952500X0*%
%ADD14O,2.400000X2.305000*%
%ADD15RoundRect,0.200000X-0.999490X0.999490X-0.999490X-0.999490X0.999490X-0.999490X0.999490X0.999490X0*%
%ADD16C,2.398980*%
%ADD17RoundRect,0.200000X0.850000X0.850000X-0.850000X0.850000X-0.850000X-0.850000X0.850000X-0.850000X0*%
%ADD18O,2.100000X2.100000*%
%ADD19RoundRect,0.200000X0.850000X-0.850000X0.850000X0.850000X-0.850000X0.850000X-0.850000X-0.850000X0*%
%ADD20RoundRect,0.200000X-0.800000X0.800000X-0.800000X-0.800000X0.800000X-0.800000X0.800000X0.800000X0*%
%ADD21C,2.000000*%
%ADD22C,2.700000*%
%ADD23RoundRect,0.200000X-0.850000X-0.850000X0.850000X-0.850000X0.850000X0.850000X-0.850000X0.850000X0*%
G04 APERTURE END LIST*
D10*
X108202800Y-65194400D03*
X202202800Y-65194400D03*
X202202800Y-109194400D03*
X108202800Y-109194400D03*
D11*
X195264600Y-100127400D03*
X192724600Y-100127400D03*
X190184600Y-100127400D03*
X187644600Y-100127400D03*
X185104600Y-100127400D03*
X182564600Y-100127400D03*
X180024600Y-100127400D03*
X177484600Y-100127400D03*
X174944600Y-100127400D03*
X172404600Y-100127400D03*
X169864600Y-100127400D03*
X167324600Y-100127400D03*
X164784600Y-100127400D03*
X162244600Y-100127400D03*
X159704600Y-100127400D03*
X157164600Y-100127400D03*
X154624600Y-100127400D03*
X152084600Y-100127400D03*
X149544600Y-100127400D03*
X147004600Y-100127400D03*
X147004600Y-84887400D03*
X149544600Y-84887400D03*
X152084600Y-84887400D03*
X154624600Y-84887400D03*
X157164600Y-84887400D03*
X159704600Y-84887400D03*
X162244600Y-84887400D03*
X164784600Y-84887400D03*
X167324600Y-84887400D03*
X169864600Y-84887400D03*
X172404600Y-84887400D03*
X174944600Y-84887400D03*
X177484600Y-84887400D03*
X180024600Y-84887400D03*
X182564600Y-84887400D03*
X185104600Y-84887400D03*
X187644600Y-84887400D03*
X190184600Y-84887400D03*
X192724600Y-84887400D03*
X195264600Y-84887400D03*
D12*
X140582800Y-90644400D03*
D13*
X123922800Y-88104400D03*
D14*
X123922800Y-90644400D03*
X123922800Y-93184400D03*
D15*
X138752800Y-108524400D03*
D16*
X138752800Y-98364400D03*
D17*
X155467200Y-108526600D03*
D18*
X155467200Y-105986600D03*
D19*
X180677200Y-107001600D03*
D18*
X183217200Y-107001600D03*
X185757200Y-107001600D03*
X188297200Y-107001600D03*
X190837200Y-107001600D03*
X193377200Y-107001600D03*
X195917200Y-107001600D03*
D20*
X130752800Y-102341749D03*
D21*
X130752800Y-106141749D03*
D22*
X116752800Y-106444400D03*
X121752800Y-106444400D03*
D17*
X163467200Y-108526600D03*
D18*
X163467200Y-105986600D03*
D22*
X113202800Y-77194400D03*
X113202800Y-72194400D03*
D23*
X119552800Y-66969400D03*
D18*
X119552800Y-69509400D03*
D17*
X159467200Y-108526600D03*
D18*
X159467200Y-105986600D03*
G36*
X123845259Y-91794506D02*
G01*
X123875326Y-91794900D01*
X123970204Y-91794900D01*
X124060247Y-91786626D01*
X124062063Y-91787464D01*
X124062246Y-91789455D01*
X124061162Y-91790479D01*
X123997012Y-91815701D01*
X123956489Y-91871867D01*
X123952766Y-91941026D01*
X123987022Y-92001217D01*
X124048586Y-92033439D01*
X124065380Y-92035586D01*
X124100888Y-92037634D01*
X124101179Y-92037673D01*
X124152299Y-92048259D01*
X124153792Y-92049589D01*
X124153386Y-92051547D01*
X124151658Y-92052203D01*
X124000341Y-92034294D01*
X123970274Y-92033900D01*
X123875396Y-92033900D01*
X123785353Y-92042174D01*
X123783537Y-92041336D01*
X123783354Y-92039345D01*
X123784438Y-92038321D01*
X123848588Y-92013099D01*
X123889111Y-91956933D01*
X123892834Y-91887774D01*
X123858578Y-91827583D01*
X123797014Y-91795361D01*
X123780220Y-91793214D01*
X123744712Y-91791166D01*
X123744421Y-91791127D01*
X123693301Y-91780541D01*
X123691808Y-91779211D01*
X123692214Y-91777253D01*
X123693942Y-91776597D01*
X123845259Y-91794506D01*
G37*
G36*
X124150400Y-89255900D02*
G01*
X124150400Y-89257900D01*
X124149231Y-89258819D01*
X124082219Y-89278495D01*
X124036864Y-89330838D01*
X124027007Y-89399391D01*
X124055778Y-89462389D01*
X124114261Y-89499974D01*
X124123770Y-89502350D01*
X124152307Y-89508260D01*
X124153800Y-89509590D01*
X124153394Y-89511548D01*
X124151666Y-89512204D01*
X124000341Y-89494294D01*
X123970274Y-89493900D01*
X123875396Y-89493900D01*
X123718822Y-89508287D01*
X123717006Y-89507449D01*
X123716823Y-89505458D01*
X123717907Y-89504434D01*
X123782635Y-89478986D01*
X123823158Y-89422819D01*
X123826881Y-89353661D01*
X123792625Y-89293469D01*
X123731086Y-89261260D01*
X123707058Y-89258890D01*
X123705432Y-89257725D01*
X123705628Y-89255735D01*
X123707254Y-89254900D01*
X124148668Y-89254900D01*
X124150400Y-89255900D01*
G37*
M02*
