M48
; DRILL file {KiCad (6.0.5)} date Di 31 Mai 2022 00:34:22 CEST
; FORMAT={-:-/ absolute / metric / decimal}
; #@! TF.CreationDate,2022-05-31T00:34:22+02:00
; #@! TF.GenerationSoftware,Kicad,Pcbnew,(6.0.5)
; #@! TF.FileFunction,Plated,1,2,PTH
FMAT,2
METRIC
; #@! TA.AperFunction,Plated,PTH,ViaDrill
T1C0.400
; #@! TA.AperFunction,Plated,PTH,ComponentDrill
T2C0.800
; #@! TA.AperFunction,Plated,PTH,ComponentDrill
T3C0.900
; #@! TA.AperFunction,Plated,PTH,ComponentDrill
T4C1.000
; #@! TA.AperFunction,Plated,PTH,ComponentDrill
T5C1.001
; #@! TA.AperFunction,Plated,PTH,ComponentDrill
T6C1.100
; #@! TA.AperFunction,Plated,PTH,ComponentDrill
T7C1.270
; #@! TA.AperFunction,Plated,PTH,ComponentDrill
T8C1.500
%
G90
G05
T1
X113.203Y-81.694
X113.203Y-84.694
X113.603Y-106.894
X114.803Y-105.594
X115.403Y-86.994
X116.303Y-96.694
X116.303Y-97.794
X119.403Y-95.394
X119.403Y-96.594
X119.403Y-97.794
X129.503Y-108.094
X130.803Y-108.094
X132.203Y-108.094
X133.803Y-66.394
X136.103Y-68.094
X159.403Y-71.094
X166.79Y-77.901
X170.403Y-68.194
X171.103Y-70.394
X186.253Y-75.194
T2
X130.753Y-102.342
X130.753Y-106.142
T3
X147.005Y-84.887
X147.005Y-100.127
X149.545Y-84.887
X149.545Y-100.127
X152.085Y-84.887
X152.085Y-100.127
X154.625Y-84.887
X154.625Y-100.127
X157.165Y-84.887
X157.165Y-100.127
X159.705Y-84.887
X159.705Y-100.127
X162.245Y-84.887
X162.245Y-100.127
X164.785Y-84.887
X164.785Y-100.127
X167.325Y-84.887
X167.325Y-100.127
X169.865Y-84.887
X169.865Y-100.127
X172.405Y-84.887
X172.405Y-100.127
X174.945Y-84.887
X174.945Y-100.127
X177.485Y-84.887
X177.485Y-100.127
X180.025Y-84.887
X180.025Y-100.127
X182.565Y-84.887
X182.565Y-100.127
X185.105Y-84.887
X185.105Y-100.127
X187.645Y-84.887
X187.645Y-100.127
X190.185Y-84.887
X190.185Y-100.127
X192.725Y-84.887
X192.725Y-100.127
X195.265Y-84.887
X195.265Y-100.127
T4
X119.553Y-66.969
X119.553Y-69.509
X155.467Y-105.987
X155.467Y-108.527
X159.467Y-105.987
X159.467Y-108.527
X163.467Y-105.987
X163.467Y-108.527
X180.677Y-107.002
X183.217Y-107.002
X185.757Y-107.002
X188.297Y-107.002
X190.837Y-107.002
X193.377Y-107.002
X195.917Y-107.002
T5
X138.753Y-108.524
T6
X123.923Y-88.104
X123.923Y-90.644
X123.923Y-93.184
T7
X138.753Y-98.364
T8
X113.203Y-72.194
X113.203Y-77.194
X116.753Y-106.444
X121.753Y-106.444
T0
M30
