G04 #@! TF.GenerationSoftware,KiCad,Pcbnew,5.0.0*
G04 #@! TF.CreationDate,2018-07-28T18:19:29+02:00*
G04 #@! TF.ProjectId,nixie_control_board,6E697869655F636F6E74726F6C5F626F,rev?*
G04 #@! TF.SameCoordinates,Original*
G04 #@! TF.FileFunction,Soldermask,Top*
G04 #@! TF.FilePolarity,Negative*
%FSLAX46Y46*%
G04 Gerber Fmt 4.6, Leading zero omitted, Abs format (unit mm)*
G04 Created by KiCad (PCBNEW 5.0.0) date Sat Jul 28 18:19:29 2018*
%MOMM*%
%LPD*%
G01*
G04 APERTURE LIST*
%ADD10R,4.100000X0.500000*%
%ADD11O,2.400000X20.400000*%
%ADD12C,1.924000*%
%ADD13R,4.400000X6.400000*%
%ADD14C,2.200000*%
%ADD15R,0.999440X2.025000*%
%ADD16C,3.400000*%
%ADD17R,1.200000X1.150000*%
%ADD18R,0.900000X0.800000*%
%ADD19R,0.900000X0.700000*%
%ADD20C,2.686000*%
%ADD21R,1.700000X1.700000*%
%ADD22C,1.700000*%
%ADD23C,2.398980*%
%ADD24R,2.398980X2.398980*%
%ADD25C,2.700000*%
%ADD26R,3.600000X1.400000*%
%ADD27R,4.200000X2.400000*%
%ADD28R,1.900000X2.400000*%
%ADD29R,0.900000X1.300000*%
%ADD30R,1.924000X1.160000*%
%ADD31R,1.300000X0.900000*%
%ADD32R,2.900000X1.400000*%
%ADD33R,1.400000X1.650000*%
%ADD34R,1.400000X3.600000*%
%ADD35C,3.600000*%
%ADD36C,2.400000*%
%ADD37R,2.100000X2.100000*%
%ADD38R,1.150000X1.200000*%
%ADD39R,2.000000X1.400000*%
%ADD40R,2.600000X3.100000*%
%ADD41R,1.600000X1.600000*%
%ADD42R,2.000000X1.900000*%
%ADD43O,2.100000X2.100000*%
%ADD44R,1.949400X0.999440*%
%ADD45C,2.000000*%
%ADD46R,1.314400X1.314400*%
G04 APERTURE END LIST*
D10*
G04 #@! TO.C,U7*
X126330000Y-80920058D03*
X126330000Y-81620056D03*
X126330000Y-84420048D03*
X126330000Y-83020052D03*
X126330000Y-91420028D03*
X126330000Y-88620036D03*
X126330000Y-92820024D03*
X126330000Y-87220040D03*
X126330000Y-85820044D03*
X126330000Y-90020032D03*
X126330000Y-82320054D03*
X126330000Y-83720050D03*
X126330000Y-85120046D03*
X126330000Y-94920018D03*
X126330000Y-100520002D03*
X126330000Y-99120006D03*
X126330000Y-97020012D03*
X126330000Y-97720010D03*
X126330000Y-89320034D03*
X126330000Y-92120026D03*
X126330000Y-93520022D03*
X126330000Y-87920038D03*
X126330000Y-86520042D03*
X126330000Y-90720030D03*
X126330000Y-94220020D03*
X126330000Y-95620016D03*
X126330000Y-96320014D03*
X126330000Y-98420008D03*
X126330000Y-99820004D03*
X126330000Y-101220000D03*
D11*
X120580000Y-91070000D03*
G04 #@! TD*
D12*
G04 #@! TO.C,U5*
X175500000Y-59930000D03*
X178040000Y-59930000D03*
X180580000Y-59930000D03*
G04 #@! TD*
D13*
G04 #@! TO.C,L1*
X122182000Y-128548000D03*
X134182000Y-128548000D03*
G04 #@! TD*
D14*
G04 #@! TO.C,MCU1*
X160600000Y-66020000D03*
X160600000Y-68560000D03*
X160600000Y-71100000D03*
X160600000Y-73640000D03*
X160600000Y-76180000D03*
X160600000Y-78720000D03*
X160600000Y-81260000D03*
X160600000Y-83800000D03*
X160600000Y-86340000D03*
X160600000Y-88880000D03*
X160600000Y-91420000D03*
X160600000Y-93960000D03*
X160600000Y-96500000D03*
X160600000Y-99040000D03*
X160600000Y-101580000D03*
X160600000Y-104120000D03*
X160600000Y-106660000D03*
X160600000Y-109200000D03*
X160600000Y-111740000D03*
X160600000Y-114280000D03*
X145360000Y-114280000D03*
X145360000Y-111740000D03*
X145360000Y-109200000D03*
X145360000Y-106660000D03*
X145360000Y-104120000D03*
X145360000Y-101580000D03*
X145360000Y-99040000D03*
X145360000Y-96500000D03*
X145360000Y-93960000D03*
X145360000Y-91420000D03*
X145360000Y-88880000D03*
X145360000Y-86340000D03*
X145360000Y-83800000D03*
X145360000Y-81260000D03*
X145360000Y-78720000D03*
X145360000Y-76180000D03*
X145360000Y-73640000D03*
X145360000Y-71100000D03*
X145360000Y-68560000D03*
X145360000Y-66020000D03*
G04 #@! TD*
D15*
G04 #@! TO.C,U1*
X133450000Y-71325000D03*
X132180000Y-71325000D03*
X130910000Y-71325000D03*
X129640000Y-71325000D03*
X128370000Y-71325000D03*
X127100000Y-71325000D03*
X125830000Y-71325000D03*
X124560000Y-71325000D03*
X124560000Y-62200000D03*
X125830000Y-62200000D03*
X127100000Y-62200000D03*
X128370000Y-62200000D03*
X129640000Y-62200000D03*
X130910000Y-62200000D03*
X132180000Y-62200000D03*
X133450000Y-62200000D03*
G04 #@! TD*
D16*
G04 #@! TO.C,REF\002A\002A*
X182000000Y-53000000D03*
G04 #@! TD*
G04 #@! TO.C,REF\002A\002A*
X116000000Y-53000000D03*
G04 #@! TD*
G04 #@! TO.C,REF\002A\002A*
X116000000Y-144000000D03*
G04 #@! TD*
D17*
G04 #@! TO.C,C2*
X129440000Y-59780000D03*
X130940000Y-59780000D03*
G04 #@! TD*
D18*
G04 #@! TO.C,RP1*
X134450000Y-74930000D03*
D19*
X134450000Y-73930000D03*
X134450000Y-74430000D03*
D18*
X134450000Y-73430000D03*
D19*
X133450000Y-74430000D03*
D18*
X133450000Y-74930000D03*
D19*
X133450000Y-73930000D03*
D18*
X133450000Y-73430000D03*
G04 #@! TD*
D20*
G04 #@! TO.C,SW1*
X168670000Y-112785000D03*
X171210000Y-106435000D03*
G04 #@! TD*
G04 #@! TO.C,SW2*
X168670000Y-93785000D03*
X171210000Y-87435000D03*
G04 #@! TD*
G04 #@! TO.C,SW3*
X168670000Y-74785000D03*
X171210000Y-68435000D03*
G04 #@! TD*
D21*
G04 #@! TO.C,C6*
X152674000Y-127866000D03*
D22*
X156474000Y-127866000D03*
G04 #@! TD*
D23*
G04 #@! TO.C,D1*
X138450000Y-125210000D03*
D24*
X148610000Y-125210000D03*
G04 #@! TD*
D25*
G04 #@! TO.C,P1*
X122960000Y-142350000D03*
X127960000Y-142350000D03*
G04 #@! TD*
G04 #@! TO.C,P2*
X151170000Y-142340000D03*
X156170000Y-142340000D03*
G04 #@! TD*
D26*
G04 #@! TO.C,R1*
X146470000Y-134110000D03*
X146470000Y-140310000D03*
G04 #@! TD*
D12*
G04 #@! TO.C,RV1*
X135830000Y-143830000D03*
X138370000Y-143830000D03*
X133290000Y-143830000D03*
G04 #@! TD*
D27*
G04 #@! TO.C,P3*
X124490000Y-109680000D03*
D28*
X124490000Y-115980000D03*
X126790000Y-115980000D03*
X122190000Y-115980000D03*
G04 #@! TD*
D17*
G04 #@! TO.C,C8*
X124740000Y-121370000D03*
X123240000Y-121370000D03*
G04 #@! TD*
G04 #@! TO.C,C9*
X124740000Y-119780000D03*
X123240000Y-119780000D03*
G04 #@! TD*
D29*
G04 #@! TO.C,R4*
X124880000Y-118140000D03*
X123380000Y-118140000D03*
G04 #@! TD*
G04 #@! TO.C,R5*
X122200000Y-118140000D03*
X120700000Y-118140000D03*
G04 #@! TD*
D16*
G04 #@! TO.C,REF\002A\002A*
X182000000Y-144000000D03*
G04 #@! TD*
D30*
G04 #@! TO.C,U3*
X138690000Y-134054000D03*
X138690000Y-135324000D03*
X138690000Y-136594000D03*
X138690000Y-137864000D03*
X143290000Y-137864000D03*
X143290000Y-136594000D03*
X143290000Y-135324000D03*
X143290000Y-134054000D03*
G04 #@! TD*
D14*
G04 #@! TO.C,U4*
X173810000Y-55960000D03*
X171270000Y-55960000D03*
X168730000Y-55960000D03*
G04 #@! TD*
D17*
G04 #@! TO.C,C4*
X139708000Y-139550000D03*
X138208000Y-139550000D03*
G04 #@! TD*
D31*
G04 #@! TO.C,R3*
X141720000Y-143320000D03*
X141720000Y-141820000D03*
G04 #@! TD*
D32*
G04 #@! TO.C,C3*
X135656000Y-140034000D03*
X135656000Y-137034000D03*
G04 #@! TD*
D33*
G04 #@! TO.C,C5*
X143514000Y-139550000D03*
X141514000Y-139550000D03*
G04 #@! TD*
D32*
G04 #@! TO.C,C10*
X132354000Y-140034000D03*
X132354000Y-137034000D03*
G04 #@! TD*
G04 #@! TO.C,C7*
X148290000Y-127900000D03*
X148290000Y-130900000D03*
G04 #@! TD*
D34*
G04 #@! TO.C,R2*
X157806000Y-134216000D03*
X151606000Y-134216000D03*
G04 #@! TD*
D14*
G04 #@! TO.C,Q1*
X139090000Y-130210000D03*
X141630000Y-130210000D03*
X144170000Y-130210000D03*
G04 #@! TD*
G04 #@! TO.C,LCD1*
X153470000Y-93960000D03*
X153470000Y-91420000D03*
X153470000Y-88880000D03*
X153470000Y-86340000D03*
D35*
X152470000Y-75150000D03*
X152470000Y-105150000D03*
X123970000Y-75150000D03*
X123970000Y-105150000D03*
G04 #@! TD*
D36*
G04 #@! TO.C,BT1*
X143100000Y-53160000D03*
X163100000Y-53160000D03*
G04 #@! TD*
D37*
G04 #@! TO.C,P5*
X121390000Y-66510000D03*
G04 #@! TD*
D17*
G04 #@! TO.C,C11*
X130580000Y-95570000D03*
X132080000Y-95570000D03*
G04 #@! TD*
D38*
G04 #@! TO.C,C12*
X129800000Y-80470000D03*
X129800000Y-81970000D03*
G04 #@! TD*
D17*
G04 #@! TO.C,C13*
X132090000Y-97010000D03*
X130590000Y-97010000D03*
G04 #@! TD*
D38*
G04 #@! TO.C,C14*
X131240000Y-82290000D03*
X131240000Y-83790000D03*
G04 #@! TD*
G04 #@! TO.C,C15*
X130480000Y-101700000D03*
X130480000Y-100200000D03*
G04 #@! TD*
G04 #@! TO.C,C16*
X132080000Y-100010000D03*
X132080000Y-98510000D03*
G04 #@! TD*
D32*
G04 #@! TO.C,C19*
X168550000Y-134975000D03*
X168550000Y-137975000D03*
G04 #@! TD*
D17*
G04 #@! TO.C,C20*
X180350000Y-133425000D03*
X178850000Y-133425000D03*
G04 #@! TD*
G04 #@! TO.C,C21*
X171800000Y-132225000D03*
X173300000Y-132225000D03*
G04 #@! TD*
G04 #@! TO.C,C22*
X178850000Y-136375000D03*
X180350000Y-136375000D03*
G04 #@! TD*
D39*
G04 #@! TO.C,C23*
X178250000Y-131900000D03*
X178250000Y-128900000D03*
G04 #@! TD*
D40*
G04 #@! TO.C,L2*
X173325000Y-129825000D03*
X173325000Y-124725000D03*
G04 #@! TD*
D31*
G04 #@! TO.C,R6*
X129800000Y-85680000D03*
X129800000Y-84180000D03*
G04 #@! TD*
D29*
G04 #@! TO.C,R9*
X178700000Y-134900000D03*
X180200000Y-134900000D03*
G04 #@! TD*
G04 #@! TO.C,R10*
X180200000Y-137825000D03*
X178700000Y-137825000D03*
G04 #@! TD*
G04 #@! TO.C,R11*
X178625000Y-139375000D03*
X177125000Y-139375000D03*
G04 #@! TD*
D41*
G04 #@! TO.C,RV2*
X172725000Y-142470000D03*
X175525000Y-142470000D03*
D42*
X174125000Y-139230000D03*
G04 #@! TD*
D37*
G04 #@! TO.C,SW4*
X126280000Y-136460000D03*
D43*
X128820000Y-136460000D03*
G04 #@! TD*
D44*
G04 #@! TO.C,U8*
X171377520Y-133597540D03*
X171377520Y-134867540D03*
X171377520Y-136132460D03*
X171377520Y-137402460D03*
X176772480Y-137402460D03*
X176772480Y-136132460D03*
X176772480Y-134867540D03*
X176772480Y-133597540D03*
G04 #@! TD*
D45*
G04 #@! TO.C,BZ1*
X174980000Y-53160000D03*
X167980000Y-53160000D03*
G04 #@! TD*
D46*
G04 #@! TO.C,Q2*
X161086000Y-59729000D03*
X161086000Y-57951000D03*
X159069240Y-58840000D03*
G04 #@! TD*
D29*
G04 #@! TO.C,R7*
X161080000Y-61720000D03*
X159580000Y-61720000D03*
G04 #@! TD*
D37*
G04 #@! TO.C,J1*
X140860000Y-76180000D03*
D43*
X140860000Y-73640000D03*
X140860000Y-71100000D03*
X140860000Y-68560000D03*
X140860000Y-66020000D03*
X140860000Y-63480000D03*
X140860000Y-60940000D03*
G04 #@! TD*
M02*
