G04 #@! TF.GenerationSoftware,KiCad,Pcbnew,5.0.1*
G04 #@! TF.CreationDate,2019-02-07T01:14:43+00:00*
G04 #@! TF.ProjectId,nixie_control_board,6E697869655F636F6E74726F6C5F626F,rev?*
G04 #@! TF.SameCoordinates,Original*
G04 #@! TF.FileFunction,Copper,L2,Bot,Signal*
G04 #@! TF.FilePolarity,Positive*
%FSLAX46Y46*%
G04 Gerber Fmt 4.6, Leading zero omitted, Abs format (unit mm)*
G04 Created by KiCad (PCBNEW 5.0.1) date Do 07 Feb 2019 01:14:43 UTC*
%MOMM*%
%LPD*%
G01*
G04 APERTURE LIST*
G04 #@! TA.AperFunction,EtchedComponent*
%ADD10C,0.150000*%
G04 #@! TD*
G04 #@! TA.AperFunction,ComponentPad*
%ADD11C,2.000000*%
G04 #@! TD*
G04 #@! TA.AperFunction,ComponentPad*
%ADD12C,1.524000*%
G04 #@! TD*
G04 #@! TA.AperFunction,ComponentPad*
%ADD13C,1.800000*%
G04 #@! TD*
G04 #@! TA.AperFunction,ComponentPad*
%ADD14R,1.300000X1.300000*%
G04 #@! TD*
G04 #@! TA.AperFunction,ComponentPad*
%ADD15C,1.300000*%
G04 #@! TD*
G04 #@! TA.AperFunction,ComponentPad*
%ADD16C,1.998980*%
G04 #@! TD*
G04 #@! TA.AperFunction,ComponentPad*
%ADD17R,1.998980X1.998980*%
G04 #@! TD*
G04 #@! TA.AperFunction,ComponentPad*
%ADD18C,2.300000*%
G04 #@! TD*
G04 #@! TA.AperFunction,SMDPad,CuDef*
%ADD19R,3.800000X2.000000*%
G04 #@! TD*
G04 #@! TA.AperFunction,SMDPad,CuDef*
%ADD20R,1.500000X2.000000*%
G04 #@! TD*
G04 #@! TA.AperFunction,SMDPad,CuDef*
%ADD21R,0.750000X0.800000*%
G04 #@! TD*
G04 #@! TA.AperFunction,SMDPad,CuDef*
%ADD22R,0.900000X0.500000*%
G04 #@! TD*
G04 #@! TA.AperFunction,ComponentPad*
%ADD23R,1.700000X1.700000*%
G04 #@! TD*
G04 #@! TA.AperFunction,ComponentPad*
%ADD24O,1.700000X1.700000*%
G04 #@! TD*
G04 #@! TA.AperFunction,ComponentPad*
%ADD25C,1.600000*%
G04 #@! TD*
G04 #@! TA.AperFunction,ViaPad*
%ADD26C,0.800000*%
G04 #@! TD*
G04 #@! TA.AperFunction,ViaPad*
%ADD27C,1.000000*%
G04 #@! TD*
G04 #@! TA.AperFunction,Conductor*
%ADD28C,1.000000*%
G04 #@! TD*
G04 #@! TA.AperFunction,Conductor*
%ADD29C,0.600000*%
G04 #@! TD*
G04 #@! TA.AperFunction,Conductor*
%ADD30C,0.400000*%
G04 #@! TD*
G04 #@! TA.AperFunction,Conductor*
%ADD31C,1.200000*%
G04 #@! TD*
G04 #@! TA.AperFunction,Conductor*
%ADD32C,0.800000*%
G04 #@! TD*
G04 #@! TA.AperFunction,Conductor*
%ADD33C,0.030000*%
G04 #@! TD*
G04 APERTURE END LIST*
D10*
G04 #@! TO.C,U6*
X166270000Y-107580000D02*
X166370000Y-107230000D01*
X166270000Y-107080000D02*
X166270000Y-107580000D01*
X166570000Y-107330000D02*
X166270000Y-107080000D01*
X166570000Y-107330000D02*
X166270000Y-107580000D01*
X167070000Y-107330000D02*
X165920000Y-107330000D01*
X165570000Y-106830000D02*
X165920000Y-107330000D01*
X164820000Y-107330000D02*
X164470000Y-107330000D01*
X165170000Y-106830000D02*
X164820000Y-107330000D01*
X164970000Y-106780000D02*
X165770000Y-106780000D01*
X165370000Y-105730000D02*
X165370000Y-106780000D01*
X167070000Y-107930000D02*
X167270000Y-107930000D01*
X167070000Y-107330000D02*
X167070000Y-107930000D01*
X167270000Y-107330000D02*
X167070000Y-107330000D01*
X166670000Y-106730000D02*
X166670000Y-106330000D01*
X166870000Y-106730000D02*
X166670000Y-106730000D01*
X169870000Y-107930000D02*
X169670000Y-107930000D01*
X169870000Y-107330000D02*
X169870000Y-107930000D01*
X169670000Y-107330000D02*
X169870000Y-107330000D01*
X167870000Y-107330000D02*
X167870000Y-106730000D01*
X167270000Y-107330000D02*
X167870000Y-107330000D01*
X169670000Y-107930000D02*
X167270000Y-107930000D01*
X168270000Y-107330000D02*
X169670000Y-107330000D01*
X168270000Y-106730000D02*
X168270000Y-107330000D01*
X169270000Y-106730000D02*
X168270000Y-106730000D01*
X169270000Y-106130000D02*
X169270000Y-106730000D01*
X167870000Y-106130000D02*
X169270000Y-106130000D01*
X167870000Y-106730000D02*
X166870000Y-106730000D01*
X167870000Y-104330000D02*
X167870000Y-103730000D01*
X165870000Y-105130000D02*
X166470000Y-104930000D01*
X165870000Y-105330000D02*
X165870000Y-105130000D01*
X166470000Y-105530000D02*
X165870000Y-105330000D01*
X166470000Y-104930000D02*
X166470000Y-105530000D01*
X166870000Y-105730000D02*
X167870000Y-106130000D01*
X166870000Y-104730000D02*
X166870000Y-105730000D01*
X167870000Y-104330000D02*
X166870000Y-104730000D01*
X164870000Y-105530000D02*
X167870000Y-106730000D01*
X164870000Y-104930000D02*
X164870000Y-105530000D01*
X167870000Y-103730000D02*
X164870000Y-104930000D01*
G04 #@! TD*
D11*
G04 #@! TO.P,BT1,1*
G04 #@! TO.N,Net-(BT1-Pad1)*
X131840000Y-75620000D03*
G04 #@! TO.P,BT1,2*
G04 #@! TO.N,GND*
X131840000Y-55620000D03*
G04 #@! TD*
D12*
G04 #@! TO.P,U5,1*
G04 #@! TO.N,+5V*
X167010000Y-73140000D03*
G04 #@! TO.P,U5,2*
G04 #@! TO.N,DHT*
X167010000Y-70600000D03*
G04 #@! TO.P,U5,3*
G04 #@! TO.N,GND*
X167010000Y-68060000D03*
G04 #@! TD*
D13*
G04 #@! TO.P,MCU1,1*
G04 #@! TO.N,GND*
X160600000Y-66020000D03*
G04 #@! TO.P,MCU1,2*
X160600000Y-68560000D03*
G04 #@! TO.P,MCU1,3*
G04 #@! TO.N,Net-(MCU1-Pad3)*
X160600000Y-71100000D03*
G04 #@! TO.P,MCU1,4*
G04 #@! TO.N,Net-(MCU1-Pad4)*
X160600000Y-73640000D03*
G04 #@! TO.P,MCU1,5*
G04 #@! TO.N,SDA2*
X160600000Y-76180000D03*
G04 #@! TO.P,MCU1,6*
G04 #@! TO.N,SCL2*
X160600000Y-78720000D03*
G04 #@! TO.P,MCU1,7*
G04 #@! TO.N,DHT*
X160600000Y-81260000D03*
G04 #@! TO.P,MCU1,8*
G04 #@! TO.N,Net-(MCU1-Pad8)*
X160600000Y-83800000D03*
G04 #@! TO.P,MCU1,9*
G04 #@! TO.N,MOSI*
X160600000Y-86340000D03*
G04 #@! TO.P,MCU1,10*
G04 #@! TO.N,Net-(MCU1-Pad10)*
X160600000Y-88880000D03*
G04 #@! TO.P,MCU1,11*
G04 #@! TO.N,SCK*
X160600000Y-91420000D03*
G04 #@! TO.P,MCU1,12*
G04 #@! TO.N,Net-(MCU1-Pad12)*
X160600000Y-93960000D03*
G04 #@! TO.P,MCU1,13*
G04 #@! TO.N,Net-(MCU1-Pad13)*
X160600000Y-96500000D03*
G04 #@! TO.P,MCU1,14*
G04 #@! TO.N,Net-(MCU1-Pad14)*
X160600000Y-99040000D03*
G04 #@! TO.P,MCU1,15*
G04 #@! TO.N,Net-(MCU1-Pad15)*
X160600000Y-101580000D03*
G04 #@! TO.P,MCU1,16*
G04 #@! TO.N,BUTTON_3*
X160600000Y-104120000D03*
G04 #@! TO.P,MCU1,17*
G04 #@! TO.N,BUTTON_2*
X160600000Y-106660000D03*
G04 #@! TO.P,MCU1,18*
G04 #@! TO.N,BUTTON_1*
X160600000Y-109200000D03*
G04 #@! TO.P,MCU1,19*
G04 #@! TO.N,Net-(MCU1-Pad19)*
X160600000Y-111740000D03*
G04 #@! TO.P,MCU1,20*
G04 #@! TO.N,Net-(MCU1-Pad20)*
X160600000Y-114280000D03*
G04 #@! TO.P,MCU1,21*
G04 #@! TO.N,+3V3*
X145360000Y-114280000D03*
G04 #@! TO.P,MCU1,22*
G04 #@! TO.N,GND*
X145360000Y-111740000D03*
G04 #@! TO.P,MCU1,23*
G04 #@! TO.N,+5V*
X145360000Y-109200000D03*
G04 #@! TO.P,MCU1,24*
G04 #@! TO.N,Net-(MCU1-Pad24)*
X145360000Y-106660000D03*
G04 #@! TO.P,MCU1,25*
G04 #@! TO.N,Net-(MCU1-Pad25)*
X145360000Y-104120000D03*
G04 #@! TO.P,MCU1,26*
G04 #@! TO.N,SDA*
X145360000Y-101580000D03*
G04 #@! TO.P,MCU1,27*
G04 #@! TO.N,SCL*
X145360000Y-99040000D03*
G04 #@! TO.P,MCU1,28*
G04 #@! TO.N,DISP_RESET*
X145360000Y-96500000D03*
G04 #@! TO.P,MCU1,29*
G04 #@! TO.N,Net-(MCU1-Pad29)*
X145360000Y-93960000D03*
G04 #@! TO.P,MCU1,30*
G04 #@! TO.N,Net-(MCU1-Pad30)*
X145360000Y-91420000D03*
G04 #@! TO.P,MCU1,31*
G04 #@! TO.N,BUZZER*
X145360000Y-88880000D03*
G04 #@! TO.P,MCU1,32*
G04 #@! TO.N,Net-(MCU1-Pad32)*
X145360000Y-86340000D03*
G04 #@! TO.P,MCU1,33*
G04 #@! TO.N,Net-(MCU1-Pad33)*
X145360000Y-83800000D03*
G04 #@! TO.P,MCU1,34*
G04 #@! TO.N,RX*
X145360000Y-81260000D03*
G04 #@! TO.P,MCU1,35*
G04 #@! TO.N,TX*
X145360000Y-78720000D03*
G04 #@! TO.P,MCU1,36*
G04 #@! TO.N,SHIFT_CLEAR*
X145360000Y-76180000D03*
G04 #@! TO.P,MCU1,37*
G04 #@! TO.N,SHIFT_OUT_ENABLE*
X145360000Y-73640000D03*
G04 #@! TO.P,MCU1,38*
G04 #@! TO.N,SHIFT_LATCH_CLOCK*
X145360000Y-71100000D03*
G04 #@! TO.P,MCU1,39*
G04 #@! TO.N,SHIFT_SERIAL_CLOCK*
X145360000Y-68560000D03*
G04 #@! TO.P,MCU1,40*
G04 #@! TO.N,SHIFT_SER_OUT*
X145360000Y-66020000D03*
G04 #@! TD*
D14*
G04 #@! TO.P,C6,1*
G04 #@! TO.N,Net-(C6-Pad1)*
X164980000Y-125260000D03*
D15*
G04 #@! TO.P,C6,2*
G04 #@! TO.N,GND*
X168780000Y-125260000D03*
G04 #@! TD*
D16*
G04 #@! TO.P,D1,2*
G04 #@! TO.N,Net-(D1-Pad2)*
X150460000Y-125290000D03*
D17*
G04 #@! TO.P,D1,1*
G04 #@! TO.N,Net-(C6-Pad1)*
X160620000Y-125290000D03*
G04 #@! TD*
D18*
G04 #@! TO.P,P1,1*
G04 #@! TO.N,+12P*
X130110000Y-142980000D03*
G04 #@! TO.P,P1,2*
G04 #@! TO.N,GND*
X135110000Y-142980000D03*
G04 #@! TD*
G04 #@! TO.P,P2,1*
G04 #@! TO.N,GND*
X159510000Y-142990000D03*
G04 #@! TO.P,P2,2*
G04 #@! TO.N,Net-(C6-Pad1)*
X164510000Y-142990000D03*
G04 #@! TD*
D12*
G04 #@! TO.P,RV1,2*
G04 #@! TO.N,Net-(R3-Pad1)*
X151240000Y-144340000D03*
G04 #@! TO.P,RV1,3*
X153780000Y-144340000D03*
G04 #@! TO.P,RV1,1*
G04 #@! TO.N,Net-(R2-Pad2)*
X148700000Y-144340000D03*
G04 #@! TD*
D19*
G04 #@! TO.P,P3,4*
G04 #@! TO.N,+3V3*
X152780000Y-118580000D03*
D20*
G04 #@! TO.P,P3,2*
X152780000Y-112280000D03*
G04 #@! TO.P,P3,3*
G04 #@! TO.N,+5V*
X155080000Y-112280000D03*
G04 #@! TO.P,P3,1*
G04 #@! TO.N,GND*
X150480000Y-112280000D03*
G04 #@! TD*
D21*
G04 #@! TO.P,C8,1*
G04 #@! TO.N,+5V*
X157810000Y-111720000D03*
G04 #@! TO.P,C8,2*
G04 #@! TO.N,GND*
X157810000Y-113220000D03*
G04 #@! TD*
G04 #@! TO.P,C9,1*
G04 #@! TO.N,+3V3*
X148030000Y-119140000D03*
G04 #@! TO.P,C9,2*
G04 #@! TO.N,GND*
X148030000Y-117640000D03*
G04 #@! TD*
D22*
G04 #@! TO.P,R4,1*
G04 #@! TO.N,+3V3*
X157680000Y-117820000D03*
G04 #@! TO.P,R4,2*
G04 #@! TO.N,Net-(R4-Pad2)*
X157680000Y-119320000D03*
G04 #@! TD*
G04 #@! TO.P,R5,1*
G04 #@! TO.N,Net-(R4-Pad2)*
X159700000Y-119320000D03*
G04 #@! TO.P,R5,2*
G04 #@! TO.N,GND*
X159700000Y-117820000D03*
G04 #@! TD*
D13*
G04 #@! TO.P,Q1,2*
G04 #@! TO.N,Net-(Q1-Pad2)*
X151100000Y-130290000D03*
G04 #@! TO.P,Q1,1*
G04 #@! TO.N,Net-(D1-Pad2)*
X153640000Y-130290000D03*
G04 #@! TO.P,Q1,3*
G04 #@! TO.N,Net-(Q1-Pad3)*
X156180000Y-130290000D03*
G04 #@! TD*
D23*
G04 #@! TO.P,P5,1*
G04 #@! TO.N,Net-(P5-Pad1)*
X125220000Y-58620000D03*
G04 #@! TD*
G04 #@! TO.P,SW4,1*
G04 #@! TO.N,+12P*
X129380000Y-133870000D03*
D24*
G04 #@! TO.P,SW4,2*
G04 #@! TO.N,+12V*
X131920000Y-133870000D03*
G04 #@! TD*
D25*
G04 #@! TO.P,BZ1,1*
G04 #@! TO.N,+5V*
X156940000Y-60230000D03*
G04 #@! TO.P,BZ1,2*
G04 #@! TO.N,Net-(BZ1-Pad2)*
X156940000Y-53230000D03*
G04 #@! TD*
D23*
G04 #@! TO.P,J1,1*
G04 #@! TO.N,SHIFT_CLEAR*
X148520000Y-76190000D03*
D24*
G04 #@! TO.P,J1,2*
G04 #@! TO.N,SHIFT_OUT_ENABLE*
X148520000Y-73650000D03*
G04 #@! TO.P,J1,3*
G04 #@! TO.N,SHIFT_LATCH_CLOCK*
X148520000Y-71110000D03*
G04 #@! TO.P,J1,4*
G04 #@! TO.N,SHIFT_SERIAL_CLOCK*
X148520000Y-68570000D03*
G04 #@! TO.P,J1,5*
G04 #@! TO.N,SHIFT_SER_OUT*
X148520000Y-66030000D03*
G04 #@! TO.P,J1,6*
G04 #@! TO.N,GND*
X148520000Y-63490000D03*
G04 #@! TO.P,J1,7*
G04 #@! TO.N,+5V*
X148520000Y-60950000D03*
G04 #@! TD*
D23*
G04 #@! TO.P,J2,1*
G04 #@! TO.N,TX*
X148590000Y-81810000D03*
D24*
G04 #@! TO.P,J2,2*
G04 #@! TO.N,RX*
X148590000Y-84350000D03*
G04 #@! TD*
D23*
G04 #@! TO.P,P4,1*
G04 #@! TO.N,GND*
X152790000Y-106310000D03*
D24*
G04 #@! TO.P,P4,2*
G04 #@! TO.N,BUTTON_1*
X155330000Y-106310000D03*
G04 #@! TD*
G04 #@! TO.P,P6,2*
G04 #@! TO.N,BUTTON_2*
X155330000Y-102640000D03*
D23*
G04 #@! TO.P,P6,1*
G04 #@! TO.N,GND*
X152790000Y-102640000D03*
G04 #@! TD*
G04 #@! TO.P,P7,1*
G04 #@! TO.N,GND*
X152790000Y-98990000D03*
D24*
G04 #@! TO.P,P7,2*
G04 #@! TO.N,BUTTON_3*
X155330000Y-98990000D03*
G04 #@! TD*
D26*
G04 #@! TO.N,+5V*
X141990000Y-97630000D03*
G04 #@! TO.N,GND*
X140310000Y-88900000D03*
X140310000Y-90390000D03*
G04 #@! TO.N,SCL*
X128700000Y-89330000D03*
X135640000Y-89320000D03*
G04 #@! TO.N,SDA*
X137400000Y-89240000D03*
X137420000Y-93640000D03*
D27*
G04 #@! TO.N,Net-(R2-Pad2)*
X152880000Y-136690000D03*
D26*
X161810000Y-134680000D03*
G04 #@! TO.N,+3V3*
X141690000Y-103504998D03*
G04 #@! TO.N,DISP_RESET*
X132830000Y-92120026D03*
G04 #@! TO.N,Net-(R11-Pad2)*
X125120000Y-123850000D03*
X129880000Y-120090000D03*
G04 #@! TD*
D28*
G04 #@! TO.N,+5V*
X146632792Y-109200000D02*
X145360000Y-109200000D01*
X152710002Y-109200000D02*
X146632792Y-109200000D01*
X155080000Y-111569998D02*
X152710002Y-109200000D01*
X155080000Y-112280000D02*
X155080000Y-111569998D01*
D29*
X155640000Y-111720000D02*
X155080000Y-112280000D01*
X157810000Y-111720000D02*
X155640000Y-111720000D01*
X145360000Y-109200000D02*
X143050000Y-106890000D01*
D30*
X143050000Y-106890000D02*
X143050000Y-98690000D01*
X143050000Y-98690000D02*
X141990000Y-97630000D01*
G04 #@! TO.N,SCL*
X128700000Y-89330000D02*
X135630000Y-89330000D01*
X135630000Y-89330000D02*
X135640000Y-89320000D01*
G04 #@! TO.N,SDA*
X137400000Y-93620000D02*
X137420000Y-93640000D01*
X137400000Y-89240000D02*
X137400000Y-93620000D01*
D29*
G04 #@! TO.N,Net-(R2-Pad2)*
X152880000Y-136690000D02*
X159800000Y-136690000D01*
X159800000Y-136690000D02*
X161810000Y-134680000D01*
D30*
G04 #@! TO.N,Net-(R4-Pad2)*
X157680000Y-119320000D02*
X159700000Y-119320000D01*
D31*
G04 #@! TO.N,+3V3*
X152780000Y-112280000D02*
X152780000Y-118580000D01*
D32*
X152220000Y-119140000D02*
X152780000Y-118580000D01*
X148030000Y-119140000D02*
X152220000Y-119140000D01*
D30*
X153540000Y-117820000D02*
X152780000Y-118580000D01*
X157680000Y-117820000D02*
X153540000Y-117820000D01*
D32*
X152780000Y-114080000D02*
X152780000Y-112280000D01*
X152580000Y-114280000D02*
X152780000Y-114080000D01*
X145360000Y-114280000D02*
X152580000Y-114280000D01*
D29*
X145360000Y-114280000D02*
X141690000Y-110610000D01*
X141690000Y-110610000D02*
X141690000Y-103504998D01*
D30*
G04 #@! TO.N,DISP_RESET*
X145360000Y-96500000D02*
X137220000Y-96500000D01*
X132840026Y-92120026D02*
X132830000Y-92120026D01*
X137220000Y-96500000D02*
X132840026Y-92120026D01*
G04 #@! TO.N,Net-(R11-Pad2)*
X125120000Y-123850000D02*
X128880000Y-120090000D01*
X128880000Y-120090000D02*
X129880000Y-120090000D01*
G04 #@! TD*
D33*
G04 #@! TO.N,GND*
G36*
X170583500Y-50658528D02*
X171107311Y-50848662D01*
X171573330Y-51154198D01*
X171956564Y-51558748D01*
X172236450Y-52040609D01*
X172400320Y-52581663D01*
X172440001Y-53026285D01*
X172440000Y-143965719D01*
X172371471Y-144553504D01*
X172181338Y-145077311D01*
X171875802Y-145543330D01*
X171471253Y-145926562D01*
X170989391Y-146206450D01*
X170448337Y-146370320D01*
X170003727Y-146410000D01*
X123554281Y-146410000D01*
X122966496Y-146341471D01*
X122442689Y-146151338D01*
X121976670Y-145845802D01*
X121593438Y-145441253D01*
X121313550Y-144959391D01*
X121149680Y-144418337D01*
X121110000Y-143973727D01*
X121110000Y-143429192D01*
X121715000Y-143429192D01*
X121715000Y-144230808D01*
X122021766Y-144971406D01*
X122588594Y-145538234D01*
X123329192Y-145845000D01*
X124130808Y-145845000D01*
X124871406Y-145538234D01*
X125438234Y-144971406D01*
X125745000Y-144230808D01*
X125745000Y-143429192D01*
X125438234Y-142688594D01*
X125398451Y-142648811D01*
X128445000Y-142648811D01*
X128445000Y-143311189D01*
X128698481Y-143923147D01*
X129166853Y-144391519D01*
X129778811Y-144645000D01*
X130441189Y-144645000D01*
X131053147Y-144391519D01*
X131358677Y-144085989D01*
X147423000Y-144085989D01*
X147423000Y-144594011D01*
X147617412Y-145063362D01*
X147976638Y-145422588D01*
X148445989Y-145617000D01*
X148954011Y-145617000D01*
X149423362Y-145422588D01*
X149782588Y-145063362D01*
X149970000Y-144610910D01*
X150157412Y-145063362D01*
X150516638Y-145422588D01*
X150985989Y-145617000D01*
X151494011Y-145617000D01*
X151963362Y-145422588D01*
X152322588Y-145063362D01*
X152510000Y-144610910D01*
X152697412Y-145063362D01*
X153056638Y-145422588D01*
X153525989Y-145617000D01*
X154034011Y-145617000D01*
X154503362Y-145422588D01*
X154862588Y-145063362D01*
X155057000Y-144594011D01*
X155057000Y-144085989D01*
X154862588Y-143616638D01*
X154503362Y-143257412D01*
X154034011Y-143063000D01*
X153525989Y-143063000D01*
X153056638Y-143257412D01*
X152697412Y-143616638D01*
X152510000Y-144069090D01*
X152322588Y-143616638D01*
X151963362Y-143257412D01*
X151494011Y-143063000D01*
X150985989Y-143063000D01*
X150516638Y-143257412D01*
X150157412Y-143616638D01*
X149970000Y-144069090D01*
X149782588Y-143616638D01*
X149423362Y-143257412D01*
X148954011Y-143063000D01*
X148445989Y-143063000D01*
X147976638Y-143257412D01*
X147617412Y-143616638D01*
X147423000Y-144085989D01*
X131358677Y-144085989D01*
X131521519Y-143923147D01*
X131775000Y-143311189D01*
X131775000Y-142658811D01*
X162845000Y-142658811D01*
X162845000Y-143321189D01*
X163098481Y-143933147D01*
X163566853Y-144401519D01*
X164178811Y-144655000D01*
X164841189Y-144655000D01*
X165453147Y-144401519D01*
X165921519Y-143933147D01*
X166146832Y-143389192D01*
X167855000Y-143389192D01*
X167855000Y-144190808D01*
X168161766Y-144931406D01*
X168728594Y-145498234D01*
X169469192Y-145805000D01*
X170270808Y-145805000D01*
X171011406Y-145498234D01*
X171578234Y-144931406D01*
X171885000Y-144190808D01*
X171885000Y-143389192D01*
X171578234Y-142648594D01*
X171011406Y-142081766D01*
X170270808Y-141775000D01*
X169469192Y-141775000D01*
X168728594Y-142081766D01*
X168161766Y-142648594D01*
X167855000Y-143389192D01*
X166146832Y-143389192D01*
X166175000Y-143321189D01*
X166175000Y-142658811D01*
X165921519Y-142046853D01*
X165453147Y-141578481D01*
X164841189Y-141325000D01*
X164178811Y-141325000D01*
X163566853Y-141578481D01*
X163098481Y-142046853D01*
X162845000Y-142658811D01*
X131775000Y-142658811D01*
X131775000Y-142648811D01*
X131521519Y-142036853D01*
X131053147Y-141568481D01*
X130441189Y-141315000D01*
X129778811Y-141315000D01*
X129166853Y-141568481D01*
X128698481Y-142036853D01*
X128445000Y-142648811D01*
X125398451Y-142648811D01*
X124871406Y-142121766D01*
X124130808Y-141815000D01*
X123329192Y-141815000D01*
X122588594Y-142121766D01*
X122021766Y-142688594D01*
X121715000Y-143429192D01*
X121110000Y-143429192D01*
X121110000Y-136488104D01*
X151865000Y-136488104D01*
X151865000Y-136891896D01*
X152019525Y-137264951D01*
X152305049Y-137550475D01*
X152678104Y-137705000D01*
X153081896Y-137705000D01*
X153454951Y-137550475D01*
X153500426Y-137505000D01*
X159719734Y-137505000D01*
X159800000Y-137520966D01*
X159880266Y-137505000D01*
X160117997Y-137457712D01*
X160387582Y-137277582D01*
X160433052Y-137209531D01*
X162086884Y-135555700D01*
X162328306Y-135455700D01*
X162585700Y-135198306D01*
X162725000Y-134862005D01*
X162725000Y-134497995D01*
X162585700Y-134161694D01*
X162328306Y-133904300D01*
X161992005Y-133765000D01*
X161627995Y-133765000D01*
X161291694Y-133904300D01*
X161034300Y-134161694D01*
X160934300Y-134403116D01*
X159462417Y-135875000D01*
X153500426Y-135875000D01*
X153454951Y-135829525D01*
X153081896Y-135675000D01*
X152678104Y-135675000D01*
X152305049Y-135829525D01*
X152019525Y-136115049D01*
X151865000Y-136488104D01*
X121110000Y-136488104D01*
X121110000Y-133020000D01*
X128004911Y-133020000D01*
X128004911Y-134720000D01*
X128044881Y-134920943D01*
X128158706Y-135091294D01*
X128329057Y-135205119D01*
X128530000Y-135245089D01*
X130230000Y-135245089D01*
X130430943Y-135205119D01*
X130601294Y-135091294D01*
X130715119Y-134920943D01*
X130755089Y-134720000D01*
X130755089Y-134583520D01*
X130935891Y-134854109D01*
X131387404Y-135155801D01*
X131785564Y-135235000D01*
X132054436Y-135235000D01*
X132452596Y-135155801D01*
X132904109Y-134854109D01*
X132940296Y-134799951D01*
X133975000Y-134799951D01*
X133976137Y-134805729D01*
X133979385Y-134810598D01*
X133984249Y-134813854D01*
X133989988Y-134815000D01*
X146379988Y-134825000D01*
X146385740Y-134823858D01*
X146390607Y-134820607D01*
X146393858Y-134815740D01*
X146395000Y-134810000D01*
X146395000Y-130008539D01*
X149685000Y-130008539D01*
X149685000Y-130571461D01*
X149900421Y-131091533D01*
X150298467Y-131489579D01*
X150818539Y-131705000D01*
X151381461Y-131705000D01*
X151901533Y-131489579D01*
X152299579Y-131091533D01*
X152370000Y-130921522D01*
X152440421Y-131091533D01*
X152838467Y-131489579D01*
X153358539Y-131705000D01*
X153921461Y-131705000D01*
X154441533Y-131489579D01*
X154839579Y-131091533D01*
X154910000Y-130921522D01*
X154980421Y-131091533D01*
X155378467Y-131489579D01*
X155898539Y-131705000D01*
X156461461Y-131705000D01*
X156981533Y-131489579D01*
X157379579Y-131091533D01*
X157595000Y-130571461D01*
X157595000Y-130008539D01*
X157379579Y-129488467D01*
X156981533Y-129090421D01*
X156461461Y-128875000D01*
X155898539Y-128875000D01*
X155378467Y-129090421D01*
X154980421Y-129488467D01*
X154910000Y-129658478D01*
X154839579Y-129488467D01*
X154441533Y-129090421D01*
X153921461Y-128875000D01*
X153358539Y-128875000D01*
X152838467Y-129090421D01*
X152440421Y-129488467D01*
X152370000Y-129658478D01*
X152299579Y-129488467D01*
X151901533Y-129090421D01*
X151381461Y-128875000D01*
X150818539Y-128875000D01*
X150298467Y-129090421D01*
X149900421Y-129488467D01*
X149685000Y-130008539D01*
X146395000Y-130008539D01*
X146395000Y-124988749D01*
X148945510Y-124988749D01*
X148945510Y-125591251D01*
X149176077Y-126147890D01*
X149602110Y-126573923D01*
X150158749Y-126804490D01*
X150761251Y-126804490D01*
X151317890Y-126573923D01*
X151743923Y-126147890D01*
X151974490Y-125591251D01*
X151974490Y-124988749D01*
X151743923Y-124432110D01*
X151602323Y-124290510D01*
X159095421Y-124290510D01*
X159095421Y-126289490D01*
X159135391Y-126490433D01*
X159249216Y-126660784D01*
X159419567Y-126774609D01*
X159620510Y-126814579D01*
X161619490Y-126814579D01*
X161820433Y-126774609D01*
X161990784Y-126660784D01*
X162104609Y-126490433D01*
X162144579Y-126289490D01*
X162144579Y-124610000D01*
X163804911Y-124610000D01*
X163804911Y-125910000D01*
X163844881Y-126110943D01*
X163958706Y-126281294D01*
X164129057Y-126395119D01*
X164330000Y-126435089D01*
X165630000Y-126435089D01*
X165830943Y-126395119D01*
X166001294Y-126281294D01*
X166115119Y-126110943D01*
X166155089Y-125910000D01*
X166155089Y-124610000D01*
X166115119Y-124409057D01*
X166001294Y-124238706D01*
X165830943Y-124124881D01*
X165630000Y-124084911D01*
X164330000Y-124084911D01*
X164129057Y-124124881D01*
X163958706Y-124238706D01*
X163844881Y-124409057D01*
X163804911Y-124610000D01*
X162144579Y-124610000D01*
X162144579Y-124290510D01*
X162104609Y-124089567D01*
X161990784Y-123919216D01*
X161820433Y-123805391D01*
X161619490Y-123765421D01*
X159620510Y-123765421D01*
X159419567Y-123805391D01*
X159249216Y-123919216D01*
X159135391Y-124089567D01*
X159095421Y-124290510D01*
X151602323Y-124290510D01*
X151317890Y-124006077D01*
X150761251Y-123775510D01*
X150158749Y-123775510D01*
X149602110Y-124006077D01*
X149176077Y-124432110D01*
X148945510Y-124988749D01*
X146395000Y-124988749D01*
X146395000Y-122460000D01*
X146393858Y-122454260D01*
X146390607Y-122449393D01*
X146385740Y-122446142D01*
X146380000Y-122445000D01*
X134030000Y-122445000D01*
X134024305Y-122446123D01*
X134019428Y-122449359D01*
X134016160Y-122454215D01*
X134015000Y-122459951D01*
X133975000Y-134799951D01*
X132940296Y-134799951D01*
X133205801Y-134402596D01*
X133311741Y-133870000D01*
X133205801Y-133337404D01*
X132904109Y-132885891D01*
X132452596Y-132584199D01*
X132054436Y-132505000D01*
X131785564Y-132505000D01*
X131387404Y-132584199D01*
X130935891Y-132885891D01*
X130755089Y-133156480D01*
X130755089Y-133020000D01*
X130715119Y-132819057D01*
X130601294Y-132648706D01*
X130430943Y-132534881D01*
X130230000Y-132494911D01*
X128530000Y-132494911D01*
X128329057Y-132534881D01*
X128158706Y-132648706D01*
X128044881Y-132819057D01*
X128004911Y-133020000D01*
X121110000Y-133020000D01*
X121110000Y-123667995D01*
X124205000Y-123667995D01*
X124205000Y-124032005D01*
X124344300Y-124368306D01*
X124601694Y-124625700D01*
X124937995Y-124765000D01*
X125302005Y-124765000D01*
X125638306Y-124625700D01*
X125895700Y-124368306D01*
X126035000Y-124032005D01*
X126035000Y-123946162D01*
X129176163Y-120805000D01*
X129300994Y-120805000D01*
X129361694Y-120865700D01*
X129697995Y-121005000D01*
X130062005Y-121005000D01*
X130398306Y-120865700D01*
X130655700Y-120608306D01*
X130795000Y-120272005D01*
X130795000Y-119907995D01*
X130655700Y-119571694D01*
X130398306Y-119314300D01*
X130062005Y-119175000D01*
X129697995Y-119175000D01*
X129361694Y-119314300D01*
X129300994Y-119375000D01*
X128950417Y-119375000D01*
X128880000Y-119360993D01*
X128809583Y-119375000D01*
X128809582Y-119375000D01*
X128601021Y-119416485D01*
X128364514Y-119574514D01*
X128324625Y-119634212D01*
X125023838Y-122935000D01*
X124937995Y-122935000D01*
X124601694Y-123074300D01*
X124344300Y-123331694D01*
X124205000Y-123667995D01*
X121110000Y-123667995D01*
X121110000Y-117135969D01*
X147132000Y-117135969D01*
X147132000Y-117309250D01*
X147262750Y-117440000D01*
X147842500Y-117440000D01*
X147842500Y-116847750D01*
X148217500Y-116847750D01*
X148217500Y-117440000D01*
X148797250Y-117440000D01*
X148928000Y-117309250D01*
X148928000Y-117135969D01*
X148848378Y-116943744D01*
X148701256Y-116796622D01*
X148509031Y-116717000D01*
X148348250Y-116717000D01*
X148217500Y-116847750D01*
X147842500Y-116847750D01*
X147711750Y-116717000D01*
X147550969Y-116717000D01*
X147358744Y-116796622D01*
X147211622Y-116943744D01*
X147132000Y-117135969D01*
X121110000Y-117135969D01*
X121110000Y-101509256D01*
X121171123Y-101497098D01*
X121672254Y-101162254D01*
X122007098Y-100661123D01*
X122095000Y-100219211D01*
X122095000Y-91938021D01*
X131915000Y-91938021D01*
X131915000Y-92302031D01*
X132054300Y-92638332D01*
X132311694Y-92895726D01*
X132647995Y-93035026D01*
X132743864Y-93035026D01*
X136664625Y-96955788D01*
X136704514Y-97015486D01*
X136941021Y-97173515D01*
X137220000Y-97229007D01*
X137290418Y-97215000D01*
X141171509Y-97215000D01*
X141075000Y-97447995D01*
X141075000Y-97812005D01*
X141214300Y-98148306D01*
X141471694Y-98405700D01*
X141807995Y-98545000D01*
X141893838Y-98545000D01*
X142335001Y-98986164D01*
X142335000Y-102855992D01*
X142208306Y-102729298D01*
X141872005Y-102589998D01*
X141507995Y-102589998D01*
X141171694Y-102729298D01*
X140914300Y-102986692D01*
X140775000Y-103322993D01*
X140775000Y-103687003D01*
X140875001Y-103928427D01*
X140875000Y-110529734D01*
X140859034Y-110610000D01*
X140903766Y-110834881D01*
X140922288Y-110927996D01*
X141102418Y-111197582D01*
X141170469Y-111243052D01*
X143945000Y-114017584D01*
X143945000Y-114561461D01*
X144160421Y-115081533D01*
X144558467Y-115479579D01*
X145078539Y-115695000D01*
X145641461Y-115695000D01*
X146161533Y-115479579D01*
X146446112Y-115195000D01*
X151665000Y-115195000D01*
X151665001Y-117054911D01*
X150880000Y-117054911D01*
X150679057Y-117094881D01*
X150508706Y-117208706D01*
X150394881Y-117379057D01*
X150354911Y-117580000D01*
X150354911Y-118225000D01*
X148894462Y-118225000D01*
X148928000Y-118144031D01*
X148928000Y-117970750D01*
X148797250Y-117840000D01*
X148217500Y-117840000D01*
X148217500Y-117899000D01*
X147842500Y-117899000D01*
X147842500Y-117840000D01*
X147262750Y-117840000D01*
X147132000Y-117970750D01*
X147132000Y-118144031D01*
X147211622Y-118336256D01*
X147267831Y-118392465D01*
X147169881Y-118539057D01*
X147129911Y-118740000D01*
X147129911Y-118974923D01*
X147097075Y-119140000D01*
X147129911Y-119305077D01*
X147129911Y-119540000D01*
X147169881Y-119740943D01*
X147283706Y-119911294D01*
X147454057Y-120025119D01*
X147655000Y-120065089D01*
X148405000Y-120065089D01*
X148455721Y-120055000D01*
X150663913Y-120055000D01*
X150679057Y-120065119D01*
X150880000Y-120105089D01*
X154680000Y-120105089D01*
X154880943Y-120065119D01*
X155051294Y-119951294D01*
X155165119Y-119780943D01*
X155205089Y-119580000D01*
X155205089Y-118535000D01*
X156998947Y-118535000D01*
X157029057Y-118555119D01*
X157103869Y-118570000D01*
X157029057Y-118584881D01*
X156858706Y-118698706D01*
X156744881Y-118869057D01*
X156704911Y-119070000D01*
X156704911Y-119570000D01*
X156744881Y-119770943D01*
X156858706Y-119941294D01*
X157029057Y-120055119D01*
X157230000Y-120095089D01*
X158130000Y-120095089D01*
X158330943Y-120055119D01*
X158361053Y-120035000D01*
X159018947Y-120035000D01*
X159049057Y-120055119D01*
X159250000Y-120095089D01*
X160150000Y-120095089D01*
X160350943Y-120055119D01*
X160521294Y-119941294D01*
X160635119Y-119770943D01*
X160675089Y-119570000D01*
X160675089Y-119070000D01*
X160635119Y-118869057D01*
X160521294Y-118698706D01*
X160350943Y-118584881D01*
X160150000Y-118544911D01*
X159250000Y-118544911D01*
X159049057Y-118584881D01*
X159018947Y-118605000D01*
X158361053Y-118605000D01*
X158330943Y-118584881D01*
X158256131Y-118570000D01*
X158330943Y-118555119D01*
X158501294Y-118441294D01*
X158615119Y-118270943D01*
X158655089Y-118070000D01*
X158655089Y-117570000D01*
X158615119Y-117369057D01*
X158501294Y-117198706D01*
X158330943Y-117084881D01*
X158130000Y-117044911D01*
X157230000Y-117044911D01*
X157029057Y-117084881D01*
X156998947Y-117105000D01*
X154896087Y-117105000D01*
X154880943Y-117094881D01*
X154680000Y-117054911D01*
X153895000Y-117054911D01*
X153895000Y-113655500D01*
X153901294Y-113651294D01*
X153930000Y-113608332D01*
X153958706Y-113651294D01*
X154129057Y-113765119D01*
X154330000Y-113805089D01*
X155830000Y-113805089D01*
X156030943Y-113765119D01*
X156201294Y-113651294D01*
X156268475Y-113550750D01*
X156912000Y-113550750D01*
X156912000Y-113724031D01*
X156991622Y-113916256D01*
X157138744Y-114063378D01*
X157330969Y-114143000D01*
X157491750Y-114143000D01*
X157622500Y-114012250D01*
X157622500Y-113420000D01*
X157997500Y-113420000D01*
X157997500Y-114012250D01*
X158128250Y-114143000D01*
X158289031Y-114143000D01*
X158481256Y-114063378D01*
X158628378Y-113916256D01*
X158708000Y-113724031D01*
X158708000Y-113550750D01*
X158577250Y-113420000D01*
X157997500Y-113420000D01*
X157622500Y-113420000D01*
X157042750Y-113420000D01*
X156912000Y-113550750D01*
X156268475Y-113550750D01*
X156315119Y-113480943D01*
X156355089Y-113280000D01*
X156355089Y-112535000D01*
X156986960Y-112535000D01*
X156912000Y-112715969D01*
X156912000Y-112889250D01*
X157042750Y-113020000D01*
X157622500Y-113020000D01*
X157622500Y-112961000D01*
X157997500Y-112961000D01*
X157997500Y-113020000D01*
X158577250Y-113020000D01*
X158708000Y-112889250D01*
X158708000Y-112715969D01*
X158628378Y-112523744D01*
X158572169Y-112467535D01*
X158670119Y-112320943D01*
X158710089Y-112120000D01*
X158710089Y-111320000D01*
X158670119Y-111119057D01*
X158556294Y-110948706D01*
X158385943Y-110834881D01*
X158185000Y-110794911D01*
X157435000Y-110794911D01*
X157234057Y-110834881D01*
X157129117Y-110905000D01*
X156195748Y-110905000D01*
X156030943Y-110794881D01*
X155830000Y-110754911D01*
X155700340Y-110754911D01*
X153498404Y-108552976D01*
X153441776Y-108468226D01*
X153106035Y-108243891D01*
X152809970Y-108185000D01*
X152809965Y-108185000D01*
X152710002Y-108165116D01*
X152610039Y-108185000D01*
X146346112Y-108185000D01*
X146161533Y-108000421D01*
X145991522Y-107930000D01*
X146161533Y-107859579D01*
X146559579Y-107461533D01*
X146775000Y-106941461D01*
X146775000Y-106679750D01*
X151417000Y-106679750D01*
X151417000Y-107264031D01*
X151496622Y-107456256D01*
X151643744Y-107603378D01*
X151835969Y-107683000D01*
X152420250Y-107683000D01*
X152551000Y-107552250D01*
X152551000Y-106549000D01*
X151547750Y-106549000D01*
X151417000Y-106679750D01*
X146775000Y-106679750D01*
X146775000Y-106378539D01*
X146559579Y-105858467D01*
X146161533Y-105460421D01*
X145991522Y-105390000D01*
X146073679Y-105355969D01*
X151417000Y-105355969D01*
X151417000Y-105940250D01*
X151547750Y-106071000D01*
X152551000Y-106071000D01*
X152551000Y-105067750D01*
X153029000Y-105067750D01*
X153029000Y-106071000D01*
X153049000Y-106071000D01*
X153049000Y-106549000D01*
X153029000Y-106549000D01*
X153029000Y-107552250D01*
X153159750Y-107683000D01*
X153744031Y-107683000D01*
X153936256Y-107603378D01*
X154083378Y-107456256D01*
X154163000Y-107264031D01*
X154163000Y-107020394D01*
X154345891Y-107294109D01*
X154797404Y-107595801D01*
X155195564Y-107675000D01*
X155464436Y-107675000D01*
X155862596Y-107595801D01*
X156314109Y-107294109D01*
X156615801Y-106842596D01*
X156721741Y-106310000D01*
X156615801Y-105777404D01*
X156314109Y-105325891D01*
X155862596Y-105024199D01*
X155464436Y-104945000D01*
X155195564Y-104945000D01*
X154797404Y-105024199D01*
X154345891Y-105325891D01*
X154163000Y-105599606D01*
X154163000Y-105355969D01*
X154083378Y-105163744D01*
X153936256Y-105016622D01*
X153744031Y-104937000D01*
X153159750Y-104937000D01*
X153029000Y-105067750D01*
X152551000Y-105067750D01*
X152420250Y-104937000D01*
X151835969Y-104937000D01*
X151643744Y-105016622D01*
X151496622Y-105163744D01*
X151417000Y-105355969D01*
X146073679Y-105355969D01*
X146161533Y-105319579D01*
X146559579Y-104921533D01*
X146775000Y-104401461D01*
X146775000Y-103838539D01*
X146559579Y-103318467D01*
X146250862Y-103009750D01*
X151417000Y-103009750D01*
X151417000Y-103594031D01*
X151496622Y-103786256D01*
X151643744Y-103933378D01*
X151835969Y-104013000D01*
X152420250Y-104013000D01*
X152551000Y-103882250D01*
X152551000Y-102879000D01*
X151547750Y-102879000D01*
X151417000Y-103009750D01*
X146250862Y-103009750D01*
X146161533Y-102920421D01*
X145991522Y-102850000D01*
X146161533Y-102779579D01*
X146559579Y-102381533D01*
X146775000Y-101861461D01*
X146775000Y-101685969D01*
X151417000Y-101685969D01*
X151417000Y-102270250D01*
X151547750Y-102401000D01*
X152551000Y-102401000D01*
X152551000Y-101397750D01*
X153029000Y-101397750D01*
X153029000Y-102401000D01*
X153049000Y-102401000D01*
X153049000Y-102879000D01*
X153029000Y-102879000D01*
X153029000Y-103882250D01*
X153159750Y-104013000D01*
X153744031Y-104013000D01*
X153936256Y-103933378D01*
X154083378Y-103786256D01*
X154163000Y-103594031D01*
X154163000Y-103350394D01*
X154345891Y-103624109D01*
X154797404Y-103925801D01*
X155195564Y-104005000D01*
X155464436Y-104005000D01*
X155862596Y-103925801D01*
X156314109Y-103624109D01*
X156615801Y-103172596D01*
X156721741Y-102640000D01*
X156615801Y-102107404D01*
X156314109Y-101655891D01*
X155862596Y-101354199D01*
X155464436Y-101275000D01*
X155195564Y-101275000D01*
X154797404Y-101354199D01*
X154345891Y-101655891D01*
X154163000Y-101929606D01*
X154163000Y-101685969D01*
X154083378Y-101493744D01*
X153936256Y-101346622D01*
X153744031Y-101267000D01*
X153159750Y-101267000D01*
X153029000Y-101397750D01*
X152551000Y-101397750D01*
X152420250Y-101267000D01*
X151835969Y-101267000D01*
X151643744Y-101346622D01*
X151496622Y-101493744D01*
X151417000Y-101685969D01*
X146775000Y-101685969D01*
X146775000Y-101298539D01*
X146559579Y-100778467D01*
X146161533Y-100380421D01*
X145991522Y-100310000D01*
X146161533Y-100239579D01*
X146559579Y-99841533D01*
X146759140Y-99359750D01*
X151417000Y-99359750D01*
X151417000Y-99944031D01*
X151496622Y-100136256D01*
X151643744Y-100283378D01*
X151835969Y-100363000D01*
X152420250Y-100363000D01*
X152551000Y-100232250D01*
X152551000Y-99229000D01*
X151547750Y-99229000D01*
X151417000Y-99359750D01*
X146759140Y-99359750D01*
X146775000Y-99321461D01*
X146775000Y-98758539D01*
X146559579Y-98238467D01*
X146357081Y-98035969D01*
X151417000Y-98035969D01*
X151417000Y-98620250D01*
X151547750Y-98751000D01*
X152551000Y-98751000D01*
X152551000Y-97747750D01*
X153029000Y-97747750D01*
X153029000Y-98751000D01*
X153049000Y-98751000D01*
X153049000Y-99229000D01*
X153029000Y-99229000D01*
X153029000Y-100232250D01*
X153159750Y-100363000D01*
X153744031Y-100363000D01*
X153936256Y-100283378D01*
X154083378Y-100136256D01*
X154163000Y-99944031D01*
X154163000Y-99700394D01*
X154345891Y-99974109D01*
X154797404Y-100275801D01*
X155195564Y-100355000D01*
X155464436Y-100355000D01*
X155862596Y-100275801D01*
X156314109Y-99974109D01*
X156615801Y-99522596D01*
X156721741Y-98990000D01*
X156615801Y-98457404D01*
X156314109Y-98005891D01*
X155862596Y-97704199D01*
X155464436Y-97625000D01*
X155195564Y-97625000D01*
X154797404Y-97704199D01*
X154345891Y-98005891D01*
X154163000Y-98279606D01*
X154163000Y-98035969D01*
X154083378Y-97843744D01*
X153936256Y-97696622D01*
X153744031Y-97617000D01*
X153159750Y-97617000D01*
X153029000Y-97747750D01*
X152551000Y-97747750D01*
X152420250Y-97617000D01*
X151835969Y-97617000D01*
X151643744Y-97696622D01*
X151496622Y-97843744D01*
X151417000Y-98035969D01*
X146357081Y-98035969D01*
X146161533Y-97840421D01*
X145991522Y-97770000D01*
X146161533Y-97699579D01*
X146559579Y-97301533D01*
X146775000Y-96781461D01*
X146775000Y-96218539D01*
X146559579Y-95698467D01*
X146161533Y-95300421D01*
X145991522Y-95230000D01*
X146161533Y-95159579D01*
X146559579Y-94761533D01*
X146775000Y-94241461D01*
X146775000Y-93678539D01*
X146559579Y-93158467D01*
X146161533Y-92760421D01*
X145991522Y-92690000D01*
X146161533Y-92619579D01*
X146559579Y-92221533D01*
X146775000Y-91701461D01*
X146775000Y-91138539D01*
X146559579Y-90618467D01*
X146161533Y-90220421D01*
X145991522Y-90150000D01*
X146161533Y-90079579D01*
X146559579Y-89681533D01*
X146775000Y-89161461D01*
X146775000Y-88598539D01*
X146559579Y-88078467D01*
X146161533Y-87680421D01*
X145991522Y-87610000D01*
X146161533Y-87539579D01*
X146559579Y-87141533D01*
X146775000Y-86621461D01*
X146775000Y-86058539D01*
X146559579Y-85538467D01*
X146161533Y-85140421D01*
X145991522Y-85070000D01*
X146161533Y-84999579D01*
X146559579Y-84601533D01*
X146663767Y-84350000D01*
X147198259Y-84350000D01*
X147304199Y-84882596D01*
X147605891Y-85334109D01*
X148057404Y-85635801D01*
X148455564Y-85715000D01*
X148724436Y-85715000D01*
X149122596Y-85635801D01*
X149574109Y-85334109D01*
X149875801Y-84882596D01*
X149981741Y-84350000D01*
X149875801Y-83817404D01*
X149574109Y-83365891D01*
X149303520Y-83185089D01*
X149440000Y-83185089D01*
X149640943Y-83145119D01*
X149811294Y-83031294D01*
X149925119Y-82860943D01*
X149965089Y-82660000D01*
X149965089Y-80960000D01*
X149925119Y-80759057D01*
X149811294Y-80588706D01*
X149640943Y-80474881D01*
X149440000Y-80434911D01*
X147740000Y-80434911D01*
X147539057Y-80474881D01*
X147368706Y-80588706D01*
X147254881Y-80759057D01*
X147214911Y-80960000D01*
X147214911Y-82660000D01*
X147254881Y-82860943D01*
X147368706Y-83031294D01*
X147539057Y-83145119D01*
X147740000Y-83185089D01*
X147876480Y-83185089D01*
X147605891Y-83365891D01*
X147304199Y-83817404D01*
X147198259Y-84350000D01*
X146663767Y-84350000D01*
X146775000Y-84081461D01*
X146775000Y-83518539D01*
X146559579Y-82998467D01*
X146161533Y-82600421D01*
X145991522Y-82530000D01*
X146161533Y-82459579D01*
X146559579Y-82061533D01*
X146775000Y-81541461D01*
X146775000Y-80978539D01*
X146559579Y-80458467D01*
X146161533Y-80060421D01*
X145991522Y-79990000D01*
X146161533Y-79919579D01*
X146559579Y-79521533D01*
X146775000Y-79001461D01*
X146775000Y-78438539D01*
X146559579Y-77918467D01*
X146161533Y-77520421D01*
X145991522Y-77450000D01*
X146161533Y-77379579D01*
X146559579Y-76981533D01*
X146775000Y-76461461D01*
X146775000Y-75898539D01*
X146559579Y-75378467D01*
X146161533Y-74980421D01*
X145991522Y-74910000D01*
X146161533Y-74839579D01*
X146559579Y-74441533D01*
X146775000Y-73921461D01*
X146775000Y-73358539D01*
X146559579Y-72838467D01*
X146161533Y-72440421D01*
X145991522Y-72370000D01*
X146161533Y-72299579D01*
X146559579Y-71901533D01*
X146775000Y-71381461D01*
X146775000Y-70818539D01*
X146559579Y-70298467D01*
X146161533Y-69900421D01*
X145991522Y-69830000D01*
X146161533Y-69759579D01*
X146559579Y-69361533D01*
X146775000Y-68841461D01*
X146775000Y-68278539D01*
X146559579Y-67758467D01*
X146161533Y-67360421D01*
X145991522Y-67290000D01*
X146161533Y-67219579D01*
X146559579Y-66821533D01*
X146775000Y-66301461D01*
X146775000Y-66030000D01*
X147128259Y-66030000D01*
X147234199Y-66562596D01*
X147535891Y-67014109D01*
X147963756Y-67300000D01*
X147535891Y-67585891D01*
X147234199Y-68037404D01*
X147128259Y-68570000D01*
X147234199Y-69102596D01*
X147535891Y-69554109D01*
X147963756Y-69840000D01*
X147535891Y-70125891D01*
X147234199Y-70577404D01*
X147128259Y-71110000D01*
X147234199Y-71642596D01*
X147535891Y-72094109D01*
X147963756Y-72380000D01*
X147535891Y-72665891D01*
X147234199Y-73117404D01*
X147128259Y-73650000D01*
X147234199Y-74182596D01*
X147535891Y-74634109D01*
X147806480Y-74814911D01*
X147670000Y-74814911D01*
X147469057Y-74854881D01*
X147298706Y-74968706D01*
X147184881Y-75139057D01*
X147144911Y-75340000D01*
X147144911Y-77040000D01*
X147184881Y-77240943D01*
X147298706Y-77411294D01*
X147469057Y-77525119D01*
X147670000Y-77565089D01*
X149370000Y-77565089D01*
X149570943Y-77525119D01*
X149741294Y-77411294D01*
X149855119Y-77240943D01*
X149895089Y-77040000D01*
X149895089Y-75340000D01*
X149855119Y-75139057D01*
X149741294Y-74968706D01*
X149570943Y-74854881D01*
X149370000Y-74814911D01*
X149233520Y-74814911D01*
X149504109Y-74634109D01*
X149805801Y-74182596D01*
X149911741Y-73650000D01*
X149805801Y-73117404D01*
X149504109Y-72665891D01*
X149076244Y-72380000D01*
X149504109Y-72094109D01*
X149805801Y-71642596D01*
X149911741Y-71110000D01*
X149853766Y-70818539D01*
X159185000Y-70818539D01*
X159185000Y-71381461D01*
X159400421Y-71901533D01*
X159798467Y-72299579D01*
X159968478Y-72370000D01*
X159798467Y-72440421D01*
X159400421Y-72838467D01*
X159185000Y-73358539D01*
X159185000Y-73921461D01*
X159400421Y-74441533D01*
X159798467Y-74839579D01*
X159968478Y-74910000D01*
X159798467Y-74980421D01*
X159400421Y-75378467D01*
X159185000Y-75898539D01*
X159185000Y-76461461D01*
X159400421Y-76981533D01*
X159798467Y-77379579D01*
X159968478Y-77450000D01*
X159798467Y-77520421D01*
X159400421Y-77918467D01*
X159185000Y-78438539D01*
X159185000Y-79001461D01*
X159400421Y-79521533D01*
X159798467Y-79919579D01*
X159968478Y-79990000D01*
X159798467Y-80060421D01*
X159400421Y-80458467D01*
X159185000Y-80978539D01*
X159185000Y-81541461D01*
X159400421Y-82061533D01*
X159798467Y-82459579D01*
X159968478Y-82530000D01*
X159798467Y-82600421D01*
X159400421Y-82998467D01*
X159185000Y-83518539D01*
X159185000Y-84081461D01*
X159400421Y-84601533D01*
X159798467Y-84999579D01*
X159968478Y-85070000D01*
X159798467Y-85140421D01*
X159400421Y-85538467D01*
X159185000Y-86058539D01*
X159185000Y-86621461D01*
X159400421Y-87141533D01*
X159798467Y-87539579D01*
X159968478Y-87610000D01*
X159798467Y-87680421D01*
X159400421Y-88078467D01*
X159185000Y-88598539D01*
X159185000Y-89161461D01*
X159400421Y-89681533D01*
X159798467Y-90079579D01*
X159968478Y-90150000D01*
X159798467Y-90220421D01*
X159400421Y-90618467D01*
X159185000Y-91138539D01*
X159185000Y-91701461D01*
X159400421Y-92221533D01*
X159798467Y-92619579D01*
X159968478Y-92690000D01*
X159798467Y-92760421D01*
X159400421Y-93158467D01*
X159185000Y-93678539D01*
X159185000Y-94241461D01*
X159400421Y-94761533D01*
X159798467Y-95159579D01*
X159968478Y-95230000D01*
X159798467Y-95300421D01*
X159400421Y-95698467D01*
X159185000Y-96218539D01*
X159185000Y-96781461D01*
X159400421Y-97301533D01*
X159798467Y-97699579D01*
X159968478Y-97770000D01*
X159798467Y-97840421D01*
X159400421Y-98238467D01*
X159185000Y-98758539D01*
X159185000Y-99321461D01*
X159400421Y-99841533D01*
X159798467Y-100239579D01*
X159968478Y-100310000D01*
X159798467Y-100380421D01*
X159400421Y-100778467D01*
X159185000Y-101298539D01*
X159185000Y-101861461D01*
X159400421Y-102381533D01*
X159798467Y-102779579D01*
X159968478Y-102850000D01*
X159798467Y-102920421D01*
X159400421Y-103318467D01*
X159185000Y-103838539D01*
X159185000Y-104401461D01*
X159400421Y-104921533D01*
X159798467Y-105319579D01*
X159968478Y-105390000D01*
X159798467Y-105460421D01*
X159400421Y-105858467D01*
X159185000Y-106378539D01*
X159185000Y-106941461D01*
X159400421Y-107461533D01*
X159798467Y-107859579D01*
X159968478Y-107930000D01*
X159798467Y-108000421D01*
X159400421Y-108398467D01*
X159185000Y-108918539D01*
X159185000Y-109481461D01*
X159400421Y-110001533D01*
X159798467Y-110399579D01*
X159968478Y-110470000D01*
X159798467Y-110540421D01*
X159400421Y-110938467D01*
X159185000Y-111458539D01*
X159185000Y-112021461D01*
X159400421Y-112541533D01*
X159798467Y-112939579D01*
X159968478Y-113010000D01*
X159798467Y-113080421D01*
X159400421Y-113478467D01*
X159185000Y-113998539D01*
X159185000Y-114561461D01*
X159400421Y-115081533D01*
X159798467Y-115479579D01*
X160318539Y-115695000D01*
X160881461Y-115695000D01*
X161401533Y-115479579D01*
X161799579Y-115081533D01*
X162015000Y-114561461D01*
X162015000Y-113998539D01*
X161799579Y-113478467D01*
X161552479Y-113231367D01*
X163235000Y-113231367D01*
X163235000Y-114828633D01*
X163846247Y-116304315D01*
X164975685Y-117433753D01*
X166451367Y-118045000D01*
X168048633Y-118045000D01*
X169524315Y-117433753D01*
X170653753Y-116304315D01*
X171265000Y-114828633D01*
X171265000Y-113231367D01*
X170653753Y-111755685D01*
X169524315Y-110626247D01*
X168048633Y-110015000D01*
X166451367Y-110015000D01*
X164975685Y-110626247D01*
X163846247Y-111755685D01*
X163235000Y-113231367D01*
X161552479Y-113231367D01*
X161401533Y-113080421D01*
X161231522Y-113010000D01*
X161401533Y-112939579D01*
X161799579Y-112541533D01*
X162015000Y-112021461D01*
X162015000Y-111458539D01*
X161799579Y-110938467D01*
X161401533Y-110540421D01*
X161231522Y-110470000D01*
X161401533Y-110399579D01*
X161799579Y-110001533D01*
X162015000Y-109481461D01*
X162015000Y-108918539D01*
X161799579Y-108398467D01*
X161401533Y-108000421D01*
X161231522Y-107930000D01*
X161401533Y-107859579D01*
X161799579Y-107461533D01*
X161854061Y-107330000D01*
X163868442Y-107330000D01*
X163914233Y-107560206D01*
X164044634Y-107755366D01*
X164239794Y-107885767D01*
X164411894Y-107920000D01*
X164813668Y-107920000D01*
X164924542Y-107922404D01*
X164985768Y-107898585D01*
X165050206Y-107885767D01*
X165094098Y-107856440D01*
X165143287Y-107837303D01*
X165190735Y-107791869D01*
X165245366Y-107755366D01*
X165307001Y-107663122D01*
X165370000Y-107573124D01*
X165432998Y-107663120D01*
X165494634Y-107755366D01*
X165549263Y-107791867D01*
X165596712Y-107837303D01*
X165645904Y-107856440D01*
X165689794Y-107885767D01*
X165754232Y-107898585D01*
X165772651Y-107905750D01*
X165780790Y-107915346D01*
X165807871Y-107965108D01*
X165829316Y-107982439D01*
X165844635Y-108005366D01*
X165873510Y-108024660D01*
X165895971Y-108051140D01*
X165946360Y-108077032D01*
X165990423Y-108112642D01*
X166016867Y-108120447D01*
X166039795Y-108135767D01*
X166073854Y-108142542D01*
X166104740Y-108158412D01*
X166161203Y-108163049D01*
X166215538Y-108179087D01*
X166242955Y-108176178D01*
X166270000Y-108181558D01*
X166304061Y-108174783D01*
X166338667Y-108177625D01*
X166392605Y-108160303D01*
X166448944Y-108154326D01*
X166473162Y-108141146D01*
X166500206Y-108135767D01*
X166508296Y-108130361D01*
X166514233Y-108160206D01*
X166644634Y-108355366D01*
X166839794Y-108485767D01*
X167011894Y-108520000D01*
X167070000Y-108531558D01*
X167128106Y-108520000D01*
X169811894Y-108520000D01*
X169870000Y-108531558D01*
X170100206Y-108485767D01*
X170295366Y-108355366D01*
X170425767Y-108160206D01*
X170460000Y-107988106D01*
X170471558Y-107930000D01*
X170460000Y-107871894D01*
X170460000Y-107388105D01*
X170471558Y-107330000D01*
X170425767Y-107099794D01*
X170295366Y-106904634D01*
X170100206Y-106774233D01*
X169928106Y-106740000D01*
X169871300Y-106728700D01*
X169860000Y-106671894D01*
X169860000Y-106188106D01*
X169871558Y-106130000D01*
X169825767Y-105899794D01*
X169695366Y-105704634D01*
X169500206Y-105574233D01*
X169328106Y-105540000D01*
X169270000Y-105528442D01*
X169211894Y-105540000D01*
X167983622Y-105540000D01*
X167460000Y-105330551D01*
X167460000Y-105129449D01*
X168038540Y-104898033D01*
X168100205Y-104885767D01*
X168194819Y-104822549D01*
X168290147Y-104760520D01*
X168292258Y-104757443D01*
X168295366Y-104755366D01*
X168358583Y-104660754D01*
X168422919Y-104566966D01*
X168423693Y-104563311D01*
X168425767Y-104560206D01*
X168447960Y-104448633D01*
X168471513Y-104337335D01*
X168460000Y-104275526D01*
X168460000Y-103791740D01*
X168471513Y-103737335D01*
X168460000Y-103675526D01*
X168460000Y-103671894D01*
X168449357Y-103618390D01*
X168428532Y-103506587D01*
X168426496Y-103503458D01*
X168425767Y-103499794D01*
X168362533Y-103405158D01*
X168300520Y-103309853D01*
X168297443Y-103307742D01*
X168295366Y-103304634D01*
X168200734Y-103241403D01*
X168106965Y-103177081D01*
X168103311Y-103176308D01*
X168100206Y-103174233D01*
X167988619Y-103152037D01*
X167877334Y-103128487D01*
X167873663Y-103129171D01*
X167870000Y-103128442D01*
X167758425Y-103150636D01*
X167704829Y-103160619D01*
X167701458Y-103161967D01*
X167639795Y-103174233D01*
X167593558Y-103205127D01*
X164701461Y-104361967D01*
X164639794Y-104374233D01*
X164545161Y-104437464D01*
X164449853Y-104499480D01*
X164447742Y-104502557D01*
X164444634Y-104504634D01*
X164381416Y-104599247D01*
X164317081Y-104693035D01*
X164316307Y-104696690D01*
X164314233Y-104699795D01*
X164292040Y-104811368D01*
X164268487Y-104922666D01*
X164280000Y-104984474D01*
X164280000Y-105475526D01*
X164268487Y-105537334D01*
X164292036Y-105648616D01*
X164314233Y-105760206D01*
X164316308Y-105763311D01*
X164317081Y-105766965D01*
X164381423Y-105860763D01*
X164444635Y-105955366D01*
X164447741Y-105957442D01*
X164449853Y-105960520D01*
X164545200Y-106022561D01*
X164639795Y-106085767D01*
X164701460Y-106098033D01*
X164780000Y-106129449D01*
X164780000Y-106216235D01*
X164739794Y-106224233D01*
X164544634Y-106354634D01*
X164414233Y-106549794D01*
X164374936Y-106747351D01*
X164239794Y-106774233D01*
X164044634Y-106904634D01*
X163914233Y-107099794D01*
X163868442Y-107330000D01*
X161854061Y-107330000D01*
X162015000Y-106941461D01*
X162015000Y-106378539D01*
X161799579Y-105858467D01*
X161401533Y-105460421D01*
X161231522Y-105390000D01*
X161401533Y-105319579D01*
X161799579Y-104921533D01*
X162015000Y-104401461D01*
X162015000Y-103838539D01*
X161799579Y-103318467D01*
X161401533Y-102920421D01*
X161231522Y-102850000D01*
X161401533Y-102779579D01*
X161799579Y-102381533D01*
X162015000Y-101861461D01*
X162015000Y-101298539D01*
X161799579Y-100778467D01*
X161401533Y-100380421D01*
X161231522Y-100310000D01*
X161401533Y-100239579D01*
X161799579Y-99841533D01*
X162015000Y-99321461D01*
X162015000Y-98758539D01*
X161799579Y-98238467D01*
X161401533Y-97840421D01*
X161231522Y-97770000D01*
X161401533Y-97699579D01*
X161799579Y-97301533D01*
X162015000Y-96781461D01*
X162015000Y-96381367D01*
X163245000Y-96381367D01*
X163245000Y-97978633D01*
X163856247Y-99454315D01*
X164985685Y-100583753D01*
X166461367Y-101195000D01*
X168058633Y-101195000D01*
X169534315Y-100583753D01*
X170663753Y-99454315D01*
X171275000Y-97978633D01*
X171275000Y-96381367D01*
X170663753Y-94905685D01*
X169534315Y-93776247D01*
X168058633Y-93165000D01*
X166461367Y-93165000D01*
X164985685Y-93776247D01*
X163856247Y-94905685D01*
X163245000Y-96381367D01*
X162015000Y-96381367D01*
X162015000Y-96218539D01*
X161799579Y-95698467D01*
X161401533Y-95300421D01*
X161231522Y-95230000D01*
X161401533Y-95159579D01*
X161799579Y-94761533D01*
X162015000Y-94241461D01*
X162015000Y-93678539D01*
X161799579Y-93158467D01*
X161401533Y-92760421D01*
X161231522Y-92690000D01*
X161401533Y-92619579D01*
X161799579Y-92221533D01*
X162015000Y-91701461D01*
X162015000Y-91138539D01*
X161799579Y-90618467D01*
X161401533Y-90220421D01*
X161231522Y-90150000D01*
X161401533Y-90079579D01*
X161799579Y-89681533D01*
X162015000Y-89161461D01*
X162015000Y-88598539D01*
X161799579Y-88078467D01*
X161401533Y-87680421D01*
X161231522Y-87610000D01*
X161401533Y-87539579D01*
X161799579Y-87141533D01*
X162015000Y-86621461D01*
X162015000Y-86058539D01*
X161799579Y-85538467D01*
X161401533Y-85140421D01*
X161231522Y-85070000D01*
X161401533Y-84999579D01*
X161799579Y-84601533D01*
X162015000Y-84081461D01*
X162015000Y-83518539D01*
X161799579Y-82998467D01*
X161401533Y-82600421D01*
X161231522Y-82530000D01*
X161401533Y-82459579D01*
X161799579Y-82061533D01*
X162015000Y-81541461D01*
X162015000Y-80978539D01*
X161799579Y-80458467D01*
X161401533Y-80060421D01*
X161307249Y-80021367D01*
X163245000Y-80021367D01*
X163245000Y-81618633D01*
X163856247Y-83094315D01*
X164985685Y-84223753D01*
X166461367Y-84835000D01*
X168058633Y-84835000D01*
X169534315Y-84223753D01*
X170663753Y-83094315D01*
X171275000Y-81618633D01*
X171275000Y-80021367D01*
X170663753Y-78545685D01*
X169534315Y-77416247D01*
X168058633Y-76805000D01*
X166461367Y-76805000D01*
X164985685Y-77416247D01*
X163856247Y-78545685D01*
X163245000Y-80021367D01*
X161307249Y-80021367D01*
X161231522Y-79990000D01*
X161401533Y-79919579D01*
X161799579Y-79521533D01*
X162015000Y-79001461D01*
X162015000Y-78438539D01*
X161799579Y-77918467D01*
X161401533Y-77520421D01*
X161231522Y-77450000D01*
X161401533Y-77379579D01*
X161799579Y-76981533D01*
X162015000Y-76461461D01*
X162015000Y-75898539D01*
X161799579Y-75378467D01*
X161401533Y-74980421D01*
X161231522Y-74910000D01*
X161401533Y-74839579D01*
X161799579Y-74441533D01*
X162015000Y-73921461D01*
X162015000Y-73358539D01*
X161799579Y-72838467D01*
X161401533Y-72440421D01*
X161231522Y-72370000D01*
X161401533Y-72299579D01*
X161799579Y-71901533D01*
X162015000Y-71381461D01*
X162015000Y-70818539D01*
X161819264Y-70345989D01*
X165733000Y-70345989D01*
X165733000Y-70854011D01*
X165927412Y-71323362D01*
X166286638Y-71682588D01*
X166739090Y-71870000D01*
X166286638Y-72057412D01*
X165927412Y-72416638D01*
X165733000Y-72885989D01*
X165733000Y-73394011D01*
X165927412Y-73863362D01*
X166286638Y-74222588D01*
X166755989Y-74417000D01*
X167264011Y-74417000D01*
X167733362Y-74222588D01*
X168092588Y-73863362D01*
X168287000Y-73394011D01*
X168287000Y-72885989D01*
X168092588Y-72416638D01*
X167733362Y-72057412D01*
X167280910Y-71870000D01*
X167733362Y-71682588D01*
X168092588Y-71323362D01*
X168287000Y-70854011D01*
X168287000Y-70345989D01*
X168092588Y-69876638D01*
X167733362Y-69517412D01*
X167264011Y-69323000D01*
X167254329Y-69323000D01*
X167447575Y-69294944D01*
X167573825Y-69242650D01*
X167657679Y-69045676D01*
X167010000Y-68397997D01*
X166362321Y-69045676D01*
X166446175Y-69242650D01*
X166762802Y-69323000D01*
X166755989Y-69323000D01*
X166286638Y-69517412D01*
X165927412Y-69876638D01*
X165733000Y-70345989D01*
X161819264Y-70345989D01*
X161799579Y-70298467D01*
X161401533Y-69900421D01*
X161256395Y-69840303D01*
X161349047Y-69647044D01*
X160600000Y-68897997D01*
X159850953Y-69647044D01*
X159943605Y-69840303D01*
X159798467Y-69900421D01*
X159400421Y-70298467D01*
X159185000Y-70818539D01*
X149853766Y-70818539D01*
X149805801Y-70577404D01*
X149504109Y-70125891D01*
X149076244Y-69840000D01*
X149504109Y-69554109D01*
X149805801Y-69102596D01*
X149911741Y-68570000D01*
X149889527Y-68458322D01*
X159152690Y-68458322D01*
X159223949Y-69019923D01*
X159301770Y-69207800D01*
X159512956Y-69309047D01*
X160262003Y-68560000D01*
X160937997Y-68560000D01*
X161687044Y-69309047D01*
X161898230Y-69207800D01*
X162047310Y-68661678D01*
X161976051Y-68100077D01*
X161931150Y-67991674D01*
X165701608Y-67991674D01*
X165775056Y-68497575D01*
X165827350Y-68623825D01*
X166024324Y-68707679D01*
X166672003Y-68060000D01*
X167347997Y-68060000D01*
X167995676Y-68707679D01*
X168192650Y-68623825D01*
X168318392Y-68128326D01*
X168244944Y-67622425D01*
X168192650Y-67496175D01*
X167995676Y-67412321D01*
X167347997Y-68060000D01*
X166672003Y-68060000D01*
X166024324Y-67412321D01*
X165827350Y-67496175D01*
X165701608Y-67991674D01*
X161931150Y-67991674D01*
X161898230Y-67912200D01*
X161687044Y-67810953D01*
X160937997Y-68560000D01*
X160262003Y-68560000D01*
X159512956Y-67810953D01*
X159301770Y-67912200D01*
X159152690Y-68458322D01*
X149889527Y-68458322D01*
X149805801Y-68037404D01*
X149504109Y-67585891D01*
X149076244Y-67300000D01*
X149365022Y-67107044D01*
X159850953Y-67107044D01*
X159938666Y-67290000D01*
X159850953Y-67472956D01*
X160600000Y-68222003D01*
X161349047Y-67472956D01*
X161261334Y-67290000D01*
X161349047Y-67107044D01*
X161316327Y-67074324D01*
X166362321Y-67074324D01*
X167010000Y-67722003D01*
X167657679Y-67074324D01*
X167573825Y-66877350D01*
X167078326Y-66751608D01*
X166572425Y-66825056D01*
X166446175Y-66877350D01*
X166362321Y-67074324D01*
X161316327Y-67074324D01*
X160600000Y-66357997D01*
X159850953Y-67107044D01*
X149365022Y-67107044D01*
X149504109Y-67014109D01*
X149805801Y-66562596D01*
X149911741Y-66030000D01*
X149889527Y-65918322D01*
X159152690Y-65918322D01*
X159223949Y-66479923D01*
X159301770Y-66667800D01*
X159512956Y-66769047D01*
X160262003Y-66020000D01*
X160937997Y-66020000D01*
X161687044Y-66769047D01*
X161898230Y-66667800D01*
X162047310Y-66121678D01*
X161976051Y-65560077D01*
X161898230Y-65372200D01*
X161687044Y-65270953D01*
X160937997Y-66020000D01*
X160262003Y-66020000D01*
X159512956Y-65270953D01*
X159301770Y-65372200D01*
X159152690Y-65918322D01*
X149889527Y-65918322D01*
X149805801Y-65497404D01*
X149504109Y-65045891D01*
X149335091Y-64932956D01*
X159850953Y-64932956D01*
X160600000Y-65682003D01*
X161349047Y-64932956D01*
X161247800Y-64721770D01*
X160701678Y-64572690D01*
X160140077Y-64643949D01*
X159952200Y-64721770D01*
X159850953Y-64932956D01*
X149335091Y-64932956D01*
X149052596Y-64744199D01*
X148654436Y-64665000D01*
X148385564Y-64665000D01*
X147987404Y-64744199D01*
X147535891Y-65045891D01*
X147234199Y-65497404D01*
X147128259Y-66030000D01*
X146775000Y-66030000D01*
X146775000Y-65738539D01*
X146559579Y-65218467D01*
X146161533Y-64820421D01*
X145641461Y-64605000D01*
X145078539Y-64605000D01*
X144558467Y-64820421D01*
X144160421Y-65218467D01*
X143945000Y-65738539D01*
X143945000Y-66301461D01*
X144160421Y-66821533D01*
X144558467Y-67219579D01*
X144728478Y-67290000D01*
X144558467Y-67360421D01*
X144160421Y-67758467D01*
X143945000Y-68278539D01*
X143945000Y-68841461D01*
X144160421Y-69361533D01*
X144558467Y-69759579D01*
X144728478Y-69830000D01*
X144558467Y-69900421D01*
X144160421Y-70298467D01*
X143945000Y-70818539D01*
X143945000Y-71381461D01*
X144160421Y-71901533D01*
X144558467Y-72299579D01*
X144728478Y-72370000D01*
X144558467Y-72440421D01*
X144160421Y-72838467D01*
X143945000Y-73358539D01*
X143945000Y-73921461D01*
X144160421Y-74441533D01*
X144558467Y-74839579D01*
X144728478Y-74910000D01*
X144558467Y-74980421D01*
X144160421Y-75378467D01*
X143945000Y-75898539D01*
X143945000Y-76461461D01*
X144160421Y-76981533D01*
X144558467Y-77379579D01*
X144728478Y-77450000D01*
X144558467Y-77520421D01*
X144160421Y-77918467D01*
X143945000Y-78438539D01*
X143945000Y-79001461D01*
X144160421Y-79521533D01*
X144558467Y-79919579D01*
X144728478Y-79990000D01*
X144558467Y-80060421D01*
X144160421Y-80458467D01*
X143945000Y-80978539D01*
X143945000Y-81541461D01*
X144160421Y-82061533D01*
X144558467Y-82459579D01*
X144728478Y-82530000D01*
X144558467Y-82600421D01*
X144160421Y-82998467D01*
X143945000Y-83518539D01*
X143945000Y-84081461D01*
X144160421Y-84601533D01*
X144558467Y-84999579D01*
X144728478Y-85070000D01*
X144558467Y-85140421D01*
X144160421Y-85538467D01*
X143945000Y-86058539D01*
X143945000Y-86621461D01*
X144160421Y-87141533D01*
X144558467Y-87539579D01*
X144728478Y-87610000D01*
X144558467Y-87680421D01*
X144160421Y-88078467D01*
X143945000Y-88598539D01*
X143945000Y-89161461D01*
X144160421Y-89681533D01*
X144558467Y-90079579D01*
X144728478Y-90150000D01*
X144558467Y-90220421D01*
X144160421Y-90618467D01*
X143945000Y-91138539D01*
X143945000Y-91701461D01*
X144160421Y-92221533D01*
X144558467Y-92619579D01*
X144728478Y-92690000D01*
X144558467Y-92760421D01*
X144160421Y-93158467D01*
X143945000Y-93678539D01*
X143945000Y-94241461D01*
X144160421Y-94761533D01*
X144558467Y-95159579D01*
X144728478Y-95230000D01*
X144558467Y-95300421D01*
X144160421Y-95698467D01*
X144124578Y-95785000D01*
X137516163Y-95785000D01*
X133745000Y-92013838D01*
X133745000Y-91938021D01*
X133605700Y-91601720D01*
X133348306Y-91344326D01*
X133012005Y-91205026D01*
X132647995Y-91205026D01*
X132311694Y-91344326D01*
X132054300Y-91601720D01*
X131915000Y-91938021D01*
X122095000Y-91938021D01*
X122095000Y-89147995D01*
X127785000Y-89147995D01*
X127785000Y-89512005D01*
X127924300Y-89848306D01*
X128181694Y-90105700D01*
X128517995Y-90245000D01*
X128882005Y-90245000D01*
X129218306Y-90105700D01*
X129279006Y-90045000D01*
X135070994Y-90045000D01*
X135121694Y-90095700D01*
X135457995Y-90235000D01*
X135822005Y-90235000D01*
X136158306Y-90095700D01*
X136415700Y-89838306D01*
X136536568Y-89546503D01*
X136624300Y-89758306D01*
X136685000Y-89819006D01*
X136685001Y-93080993D01*
X136644300Y-93121694D01*
X136505000Y-93457995D01*
X136505000Y-93822005D01*
X136644300Y-94158306D01*
X136901694Y-94415700D01*
X137237995Y-94555000D01*
X137602005Y-94555000D01*
X137938306Y-94415700D01*
X138195700Y-94158306D01*
X138335000Y-93822005D01*
X138335000Y-93457995D01*
X138195700Y-93121694D01*
X138115000Y-93040994D01*
X138115000Y-89819006D01*
X138175700Y-89758306D01*
X138315000Y-89422005D01*
X138315000Y-89057995D01*
X138175700Y-88721694D01*
X137918306Y-88464300D01*
X137582005Y-88325000D01*
X137217995Y-88325000D01*
X136881694Y-88464300D01*
X136624300Y-88721694D01*
X136503432Y-89013497D01*
X136415700Y-88801694D01*
X136158306Y-88544300D01*
X135822005Y-88405000D01*
X135457995Y-88405000D01*
X135121694Y-88544300D01*
X135050994Y-88615000D01*
X129279006Y-88615000D01*
X129218306Y-88554300D01*
X128882005Y-88415000D01*
X128517995Y-88415000D01*
X128181694Y-88554300D01*
X127924300Y-88811694D01*
X127785000Y-89147995D01*
X122095000Y-89147995D01*
X122095000Y-81920789D01*
X122007098Y-81478877D01*
X121672254Y-80977746D01*
X121171122Y-80642902D01*
X121110000Y-80630744D01*
X121110000Y-75318648D01*
X130325000Y-75318648D01*
X130325000Y-75921352D01*
X130555645Y-76478179D01*
X130981821Y-76904355D01*
X131538648Y-77135000D01*
X132141352Y-77135000D01*
X132698179Y-76904355D01*
X133124355Y-76478179D01*
X133355000Y-75921352D01*
X133355000Y-75318648D01*
X133124355Y-74761821D01*
X132698179Y-74335645D01*
X132141352Y-74105000D01*
X131538648Y-74105000D01*
X130981821Y-74335645D01*
X130555645Y-74761821D01*
X130325000Y-75318648D01*
X121110000Y-75318648D01*
X121110000Y-60950000D01*
X147128259Y-60950000D01*
X147234199Y-61482596D01*
X147535891Y-61934109D01*
X147987404Y-62235801D01*
X148385564Y-62315000D01*
X148654436Y-62315000D01*
X149052596Y-62235801D01*
X149504109Y-61934109D01*
X149805801Y-61482596D01*
X149911741Y-60950000D01*
X149805801Y-60417404D01*
X149505806Y-59968430D01*
X155625000Y-59968430D01*
X155625000Y-60491570D01*
X155825197Y-60974887D01*
X156195113Y-61344803D01*
X156678430Y-61545000D01*
X157201570Y-61545000D01*
X157684887Y-61344803D01*
X158054803Y-60974887D01*
X158255000Y-60491570D01*
X158255000Y-59968430D01*
X158054803Y-59485113D01*
X157684887Y-59115197D01*
X157201570Y-58915000D01*
X156678430Y-58915000D01*
X156195113Y-59115197D01*
X155825197Y-59485113D01*
X155625000Y-59968430D01*
X149505806Y-59968430D01*
X149504109Y-59965891D01*
X149052596Y-59664199D01*
X148654436Y-59585000D01*
X148385564Y-59585000D01*
X147987404Y-59664199D01*
X147535891Y-59965891D01*
X147234199Y-60417404D01*
X147128259Y-60950000D01*
X121110000Y-60950000D01*
X121110000Y-57770000D01*
X123844911Y-57770000D01*
X123844911Y-59470000D01*
X123884881Y-59670943D01*
X123998706Y-59841294D01*
X124169057Y-59955119D01*
X124370000Y-59995089D01*
X126070000Y-59995089D01*
X126270943Y-59955119D01*
X126441294Y-59841294D01*
X126555119Y-59670943D01*
X126595089Y-59470000D01*
X126595089Y-57770000D01*
X126555119Y-57569057D01*
X126441294Y-57398706D01*
X126270943Y-57284881D01*
X126070000Y-57244911D01*
X124370000Y-57244911D01*
X124169057Y-57284881D01*
X123998706Y-57398706D01*
X123884881Y-57569057D01*
X123844911Y-57770000D01*
X121110000Y-57770000D01*
X121110000Y-56780263D01*
X131017734Y-56780263D01*
X131131496Y-57001783D01*
X131714213Y-57167734D01*
X132316080Y-57098056D01*
X132548504Y-57001783D01*
X132662266Y-56780263D01*
X131840000Y-55957997D01*
X131017734Y-56780263D01*
X121110000Y-56780263D01*
X121110000Y-55494213D01*
X130292266Y-55494213D01*
X130361944Y-56096080D01*
X130458217Y-56328504D01*
X130679737Y-56442266D01*
X131502003Y-55620000D01*
X132177997Y-55620000D01*
X133000263Y-56442266D01*
X133221783Y-56328504D01*
X133387734Y-55745787D01*
X133318056Y-55143920D01*
X133221783Y-54911496D01*
X133000263Y-54797734D01*
X132177997Y-55620000D01*
X131502003Y-55620000D01*
X130679737Y-54797734D01*
X130458217Y-54911496D01*
X130292266Y-55494213D01*
X121110000Y-55494213D01*
X121110000Y-53034281D01*
X121138574Y-52789192D01*
X121685000Y-52789192D01*
X121685000Y-53590808D01*
X121991766Y-54331406D01*
X122558594Y-54898234D01*
X123299192Y-55205000D01*
X124100808Y-55205000D01*
X124841406Y-54898234D01*
X125279903Y-54459737D01*
X131017734Y-54459737D01*
X131840000Y-55282003D01*
X132662266Y-54459737D01*
X132548504Y-54238217D01*
X131965787Y-54072266D01*
X131363920Y-54141944D01*
X131131496Y-54238217D01*
X131017734Y-54459737D01*
X125279903Y-54459737D01*
X125408234Y-54331406D01*
X125715000Y-53590808D01*
X125715000Y-52968430D01*
X155625000Y-52968430D01*
X155625000Y-53491570D01*
X155825197Y-53974887D01*
X156195113Y-54344803D01*
X156678430Y-54545000D01*
X157201570Y-54545000D01*
X157684887Y-54344803D01*
X158054803Y-53974887D01*
X158255000Y-53491570D01*
X158255000Y-52968430D01*
X158184900Y-52799192D01*
X167835000Y-52799192D01*
X167835000Y-53600808D01*
X168141766Y-54341406D01*
X168708594Y-54908234D01*
X169449192Y-55215000D01*
X170250808Y-55215000D01*
X170991406Y-54908234D01*
X171558234Y-54341406D01*
X171865000Y-53600808D01*
X171865000Y-52799192D01*
X171558234Y-52058594D01*
X170991406Y-51491766D01*
X170250808Y-51185000D01*
X169449192Y-51185000D01*
X168708594Y-51491766D01*
X168141766Y-52058594D01*
X167835000Y-52799192D01*
X158184900Y-52799192D01*
X158054803Y-52485113D01*
X157684887Y-52115197D01*
X157201570Y-51915000D01*
X156678430Y-51915000D01*
X156195113Y-52115197D01*
X155825197Y-52485113D01*
X155625000Y-52968430D01*
X125715000Y-52968430D01*
X125715000Y-52789192D01*
X125408234Y-52048594D01*
X124841406Y-51481766D01*
X124100808Y-51175000D01*
X123299192Y-51175000D01*
X122558594Y-51481766D01*
X121991766Y-52048594D01*
X121685000Y-52789192D01*
X121138574Y-52789192D01*
X121178528Y-52446500D01*
X121368662Y-51922689D01*
X121674198Y-51456670D01*
X122078748Y-51073436D01*
X122560609Y-50793550D01*
X123101663Y-50629680D01*
X123546273Y-50590000D01*
X169995719Y-50590000D01*
X170583500Y-50658528D01*
X170583500Y-50658528D01*
G37*
X170583500Y-50658528D02*
X171107311Y-50848662D01*
X171573330Y-51154198D01*
X171956564Y-51558748D01*
X172236450Y-52040609D01*
X172400320Y-52581663D01*
X172440001Y-53026285D01*
X172440000Y-143965719D01*
X172371471Y-144553504D01*
X172181338Y-145077311D01*
X171875802Y-145543330D01*
X171471253Y-145926562D01*
X170989391Y-146206450D01*
X170448337Y-146370320D01*
X170003727Y-146410000D01*
X123554281Y-146410000D01*
X122966496Y-146341471D01*
X122442689Y-146151338D01*
X121976670Y-145845802D01*
X121593438Y-145441253D01*
X121313550Y-144959391D01*
X121149680Y-144418337D01*
X121110000Y-143973727D01*
X121110000Y-143429192D01*
X121715000Y-143429192D01*
X121715000Y-144230808D01*
X122021766Y-144971406D01*
X122588594Y-145538234D01*
X123329192Y-145845000D01*
X124130808Y-145845000D01*
X124871406Y-145538234D01*
X125438234Y-144971406D01*
X125745000Y-144230808D01*
X125745000Y-143429192D01*
X125438234Y-142688594D01*
X125398451Y-142648811D01*
X128445000Y-142648811D01*
X128445000Y-143311189D01*
X128698481Y-143923147D01*
X129166853Y-144391519D01*
X129778811Y-144645000D01*
X130441189Y-144645000D01*
X131053147Y-144391519D01*
X131358677Y-144085989D01*
X147423000Y-144085989D01*
X147423000Y-144594011D01*
X147617412Y-145063362D01*
X147976638Y-145422588D01*
X148445989Y-145617000D01*
X148954011Y-145617000D01*
X149423362Y-145422588D01*
X149782588Y-145063362D01*
X149970000Y-144610910D01*
X150157412Y-145063362D01*
X150516638Y-145422588D01*
X150985989Y-145617000D01*
X151494011Y-145617000D01*
X151963362Y-145422588D01*
X152322588Y-145063362D01*
X152510000Y-144610910D01*
X152697412Y-145063362D01*
X153056638Y-145422588D01*
X153525989Y-145617000D01*
X154034011Y-145617000D01*
X154503362Y-145422588D01*
X154862588Y-145063362D01*
X155057000Y-144594011D01*
X155057000Y-144085989D01*
X154862588Y-143616638D01*
X154503362Y-143257412D01*
X154034011Y-143063000D01*
X153525989Y-143063000D01*
X153056638Y-143257412D01*
X152697412Y-143616638D01*
X152510000Y-144069090D01*
X152322588Y-143616638D01*
X151963362Y-143257412D01*
X151494011Y-143063000D01*
X150985989Y-143063000D01*
X150516638Y-143257412D01*
X150157412Y-143616638D01*
X149970000Y-144069090D01*
X149782588Y-143616638D01*
X149423362Y-143257412D01*
X148954011Y-143063000D01*
X148445989Y-143063000D01*
X147976638Y-143257412D01*
X147617412Y-143616638D01*
X147423000Y-144085989D01*
X131358677Y-144085989D01*
X131521519Y-143923147D01*
X131775000Y-143311189D01*
X131775000Y-142658811D01*
X162845000Y-142658811D01*
X162845000Y-143321189D01*
X163098481Y-143933147D01*
X163566853Y-144401519D01*
X164178811Y-144655000D01*
X164841189Y-144655000D01*
X165453147Y-144401519D01*
X165921519Y-143933147D01*
X166146832Y-143389192D01*
X167855000Y-143389192D01*
X167855000Y-144190808D01*
X168161766Y-144931406D01*
X168728594Y-145498234D01*
X169469192Y-145805000D01*
X170270808Y-145805000D01*
X171011406Y-145498234D01*
X171578234Y-144931406D01*
X171885000Y-144190808D01*
X171885000Y-143389192D01*
X171578234Y-142648594D01*
X171011406Y-142081766D01*
X170270808Y-141775000D01*
X169469192Y-141775000D01*
X168728594Y-142081766D01*
X168161766Y-142648594D01*
X167855000Y-143389192D01*
X166146832Y-143389192D01*
X166175000Y-143321189D01*
X166175000Y-142658811D01*
X165921519Y-142046853D01*
X165453147Y-141578481D01*
X164841189Y-141325000D01*
X164178811Y-141325000D01*
X163566853Y-141578481D01*
X163098481Y-142046853D01*
X162845000Y-142658811D01*
X131775000Y-142658811D01*
X131775000Y-142648811D01*
X131521519Y-142036853D01*
X131053147Y-141568481D01*
X130441189Y-141315000D01*
X129778811Y-141315000D01*
X129166853Y-141568481D01*
X128698481Y-142036853D01*
X128445000Y-142648811D01*
X125398451Y-142648811D01*
X124871406Y-142121766D01*
X124130808Y-141815000D01*
X123329192Y-141815000D01*
X122588594Y-142121766D01*
X122021766Y-142688594D01*
X121715000Y-143429192D01*
X121110000Y-143429192D01*
X121110000Y-136488104D01*
X151865000Y-136488104D01*
X151865000Y-136891896D01*
X152019525Y-137264951D01*
X152305049Y-137550475D01*
X152678104Y-137705000D01*
X153081896Y-137705000D01*
X153454951Y-137550475D01*
X153500426Y-137505000D01*
X159719734Y-137505000D01*
X159800000Y-137520966D01*
X159880266Y-137505000D01*
X160117997Y-137457712D01*
X160387582Y-137277582D01*
X160433052Y-137209531D01*
X162086884Y-135555700D01*
X162328306Y-135455700D01*
X162585700Y-135198306D01*
X162725000Y-134862005D01*
X162725000Y-134497995D01*
X162585700Y-134161694D01*
X162328306Y-133904300D01*
X161992005Y-133765000D01*
X161627995Y-133765000D01*
X161291694Y-133904300D01*
X161034300Y-134161694D01*
X160934300Y-134403116D01*
X159462417Y-135875000D01*
X153500426Y-135875000D01*
X153454951Y-135829525D01*
X153081896Y-135675000D01*
X152678104Y-135675000D01*
X152305049Y-135829525D01*
X152019525Y-136115049D01*
X151865000Y-136488104D01*
X121110000Y-136488104D01*
X121110000Y-133020000D01*
X128004911Y-133020000D01*
X128004911Y-134720000D01*
X128044881Y-134920943D01*
X128158706Y-135091294D01*
X128329057Y-135205119D01*
X128530000Y-135245089D01*
X130230000Y-135245089D01*
X130430943Y-135205119D01*
X130601294Y-135091294D01*
X130715119Y-134920943D01*
X130755089Y-134720000D01*
X130755089Y-134583520D01*
X130935891Y-134854109D01*
X131387404Y-135155801D01*
X131785564Y-135235000D01*
X132054436Y-135235000D01*
X132452596Y-135155801D01*
X132904109Y-134854109D01*
X132940296Y-134799951D01*
X133975000Y-134799951D01*
X133976137Y-134805729D01*
X133979385Y-134810598D01*
X133984249Y-134813854D01*
X133989988Y-134815000D01*
X146379988Y-134825000D01*
X146385740Y-134823858D01*
X146390607Y-134820607D01*
X146393858Y-134815740D01*
X146395000Y-134810000D01*
X146395000Y-130008539D01*
X149685000Y-130008539D01*
X149685000Y-130571461D01*
X149900421Y-131091533D01*
X150298467Y-131489579D01*
X150818539Y-131705000D01*
X151381461Y-131705000D01*
X151901533Y-131489579D01*
X152299579Y-131091533D01*
X152370000Y-130921522D01*
X152440421Y-131091533D01*
X152838467Y-131489579D01*
X153358539Y-131705000D01*
X153921461Y-131705000D01*
X154441533Y-131489579D01*
X154839579Y-131091533D01*
X154910000Y-130921522D01*
X154980421Y-131091533D01*
X155378467Y-131489579D01*
X155898539Y-131705000D01*
X156461461Y-131705000D01*
X156981533Y-131489579D01*
X157379579Y-131091533D01*
X157595000Y-130571461D01*
X157595000Y-130008539D01*
X157379579Y-129488467D01*
X156981533Y-129090421D01*
X156461461Y-128875000D01*
X155898539Y-128875000D01*
X155378467Y-129090421D01*
X154980421Y-129488467D01*
X154910000Y-129658478D01*
X154839579Y-129488467D01*
X154441533Y-129090421D01*
X153921461Y-128875000D01*
X153358539Y-128875000D01*
X152838467Y-129090421D01*
X152440421Y-129488467D01*
X152370000Y-129658478D01*
X152299579Y-129488467D01*
X151901533Y-129090421D01*
X151381461Y-128875000D01*
X150818539Y-128875000D01*
X150298467Y-129090421D01*
X149900421Y-129488467D01*
X149685000Y-130008539D01*
X146395000Y-130008539D01*
X146395000Y-124988749D01*
X148945510Y-124988749D01*
X148945510Y-125591251D01*
X149176077Y-126147890D01*
X149602110Y-126573923D01*
X150158749Y-126804490D01*
X150761251Y-126804490D01*
X151317890Y-126573923D01*
X151743923Y-126147890D01*
X151974490Y-125591251D01*
X151974490Y-124988749D01*
X151743923Y-124432110D01*
X151602323Y-124290510D01*
X159095421Y-124290510D01*
X159095421Y-126289490D01*
X159135391Y-126490433D01*
X159249216Y-126660784D01*
X159419567Y-126774609D01*
X159620510Y-126814579D01*
X161619490Y-126814579D01*
X161820433Y-126774609D01*
X161990784Y-126660784D01*
X162104609Y-126490433D01*
X162144579Y-126289490D01*
X162144579Y-124610000D01*
X163804911Y-124610000D01*
X163804911Y-125910000D01*
X163844881Y-126110943D01*
X163958706Y-126281294D01*
X164129057Y-126395119D01*
X164330000Y-126435089D01*
X165630000Y-126435089D01*
X165830943Y-126395119D01*
X166001294Y-126281294D01*
X166115119Y-126110943D01*
X166155089Y-125910000D01*
X166155089Y-124610000D01*
X166115119Y-124409057D01*
X166001294Y-124238706D01*
X165830943Y-124124881D01*
X165630000Y-124084911D01*
X164330000Y-124084911D01*
X164129057Y-124124881D01*
X163958706Y-124238706D01*
X163844881Y-124409057D01*
X163804911Y-124610000D01*
X162144579Y-124610000D01*
X162144579Y-124290510D01*
X162104609Y-124089567D01*
X161990784Y-123919216D01*
X161820433Y-123805391D01*
X161619490Y-123765421D01*
X159620510Y-123765421D01*
X159419567Y-123805391D01*
X159249216Y-123919216D01*
X159135391Y-124089567D01*
X159095421Y-124290510D01*
X151602323Y-124290510D01*
X151317890Y-124006077D01*
X150761251Y-123775510D01*
X150158749Y-123775510D01*
X149602110Y-124006077D01*
X149176077Y-124432110D01*
X148945510Y-124988749D01*
X146395000Y-124988749D01*
X146395000Y-122460000D01*
X146393858Y-122454260D01*
X146390607Y-122449393D01*
X146385740Y-122446142D01*
X146380000Y-122445000D01*
X134030000Y-122445000D01*
X134024305Y-122446123D01*
X134019428Y-122449359D01*
X134016160Y-122454215D01*
X134015000Y-122459951D01*
X133975000Y-134799951D01*
X132940296Y-134799951D01*
X133205801Y-134402596D01*
X133311741Y-133870000D01*
X133205801Y-133337404D01*
X132904109Y-132885891D01*
X132452596Y-132584199D01*
X132054436Y-132505000D01*
X131785564Y-132505000D01*
X131387404Y-132584199D01*
X130935891Y-132885891D01*
X130755089Y-133156480D01*
X130755089Y-133020000D01*
X130715119Y-132819057D01*
X130601294Y-132648706D01*
X130430943Y-132534881D01*
X130230000Y-132494911D01*
X128530000Y-132494911D01*
X128329057Y-132534881D01*
X128158706Y-132648706D01*
X128044881Y-132819057D01*
X128004911Y-133020000D01*
X121110000Y-133020000D01*
X121110000Y-123667995D01*
X124205000Y-123667995D01*
X124205000Y-124032005D01*
X124344300Y-124368306D01*
X124601694Y-124625700D01*
X124937995Y-124765000D01*
X125302005Y-124765000D01*
X125638306Y-124625700D01*
X125895700Y-124368306D01*
X126035000Y-124032005D01*
X126035000Y-123946162D01*
X129176163Y-120805000D01*
X129300994Y-120805000D01*
X129361694Y-120865700D01*
X129697995Y-121005000D01*
X130062005Y-121005000D01*
X130398306Y-120865700D01*
X130655700Y-120608306D01*
X130795000Y-120272005D01*
X130795000Y-119907995D01*
X130655700Y-119571694D01*
X130398306Y-119314300D01*
X130062005Y-119175000D01*
X129697995Y-119175000D01*
X129361694Y-119314300D01*
X129300994Y-119375000D01*
X128950417Y-119375000D01*
X128880000Y-119360993D01*
X128809583Y-119375000D01*
X128809582Y-119375000D01*
X128601021Y-119416485D01*
X128364514Y-119574514D01*
X128324625Y-119634212D01*
X125023838Y-122935000D01*
X124937995Y-122935000D01*
X124601694Y-123074300D01*
X124344300Y-123331694D01*
X124205000Y-123667995D01*
X121110000Y-123667995D01*
X121110000Y-117135969D01*
X147132000Y-117135969D01*
X147132000Y-117309250D01*
X147262750Y-117440000D01*
X147842500Y-117440000D01*
X147842500Y-116847750D01*
X148217500Y-116847750D01*
X148217500Y-117440000D01*
X148797250Y-117440000D01*
X148928000Y-117309250D01*
X148928000Y-117135969D01*
X148848378Y-116943744D01*
X148701256Y-116796622D01*
X148509031Y-116717000D01*
X148348250Y-116717000D01*
X148217500Y-116847750D01*
X147842500Y-116847750D01*
X147711750Y-116717000D01*
X147550969Y-116717000D01*
X147358744Y-116796622D01*
X147211622Y-116943744D01*
X147132000Y-117135969D01*
X121110000Y-117135969D01*
X121110000Y-101509256D01*
X121171123Y-101497098D01*
X121672254Y-101162254D01*
X122007098Y-100661123D01*
X122095000Y-100219211D01*
X122095000Y-91938021D01*
X131915000Y-91938021D01*
X131915000Y-92302031D01*
X132054300Y-92638332D01*
X132311694Y-92895726D01*
X132647995Y-93035026D01*
X132743864Y-93035026D01*
X136664625Y-96955788D01*
X136704514Y-97015486D01*
X136941021Y-97173515D01*
X137220000Y-97229007D01*
X137290418Y-97215000D01*
X141171509Y-97215000D01*
X141075000Y-97447995D01*
X141075000Y-97812005D01*
X141214300Y-98148306D01*
X141471694Y-98405700D01*
X141807995Y-98545000D01*
X141893838Y-98545000D01*
X142335001Y-98986164D01*
X142335000Y-102855992D01*
X142208306Y-102729298D01*
X141872005Y-102589998D01*
X141507995Y-102589998D01*
X141171694Y-102729298D01*
X140914300Y-102986692D01*
X140775000Y-103322993D01*
X140775000Y-103687003D01*
X140875001Y-103928427D01*
X140875000Y-110529734D01*
X140859034Y-110610000D01*
X140903766Y-110834881D01*
X140922288Y-110927996D01*
X141102418Y-111197582D01*
X141170469Y-111243052D01*
X143945000Y-114017584D01*
X143945000Y-114561461D01*
X144160421Y-115081533D01*
X144558467Y-115479579D01*
X145078539Y-115695000D01*
X145641461Y-115695000D01*
X146161533Y-115479579D01*
X146446112Y-115195000D01*
X151665000Y-115195000D01*
X151665001Y-117054911D01*
X150880000Y-117054911D01*
X150679057Y-117094881D01*
X150508706Y-117208706D01*
X150394881Y-117379057D01*
X150354911Y-117580000D01*
X150354911Y-118225000D01*
X148894462Y-118225000D01*
X148928000Y-118144031D01*
X148928000Y-117970750D01*
X148797250Y-117840000D01*
X148217500Y-117840000D01*
X148217500Y-117899000D01*
X147842500Y-117899000D01*
X147842500Y-117840000D01*
X147262750Y-117840000D01*
X147132000Y-117970750D01*
X147132000Y-118144031D01*
X147211622Y-118336256D01*
X147267831Y-118392465D01*
X147169881Y-118539057D01*
X147129911Y-118740000D01*
X147129911Y-118974923D01*
X147097075Y-119140000D01*
X147129911Y-119305077D01*
X147129911Y-119540000D01*
X147169881Y-119740943D01*
X147283706Y-119911294D01*
X147454057Y-120025119D01*
X147655000Y-120065089D01*
X148405000Y-120065089D01*
X148455721Y-120055000D01*
X150663913Y-120055000D01*
X150679057Y-120065119D01*
X150880000Y-120105089D01*
X154680000Y-120105089D01*
X154880943Y-120065119D01*
X155051294Y-119951294D01*
X155165119Y-119780943D01*
X155205089Y-119580000D01*
X155205089Y-118535000D01*
X156998947Y-118535000D01*
X157029057Y-118555119D01*
X157103869Y-118570000D01*
X157029057Y-118584881D01*
X156858706Y-118698706D01*
X156744881Y-118869057D01*
X156704911Y-119070000D01*
X156704911Y-119570000D01*
X156744881Y-119770943D01*
X156858706Y-119941294D01*
X157029057Y-120055119D01*
X157230000Y-120095089D01*
X158130000Y-120095089D01*
X158330943Y-120055119D01*
X158361053Y-120035000D01*
X159018947Y-120035000D01*
X159049057Y-120055119D01*
X159250000Y-120095089D01*
X160150000Y-120095089D01*
X160350943Y-120055119D01*
X160521294Y-119941294D01*
X160635119Y-119770943D01*
X160675089Y-119570000D01*
X160675089Y-119070000D01*
X160635119Y-118869057D01*
X160521294Y-118698706D01*
X160350943Y-118584881D01*
X160150000Y-118544911D01*
X159250000Y-118544911D01*
X159049057Y-118584881D01*
X159018947Y-118605000D01*
X158361053Y-118605000D01*
X158330943Y-118584881D01*
X158256131Y-118570000D01*
X158330943Y-118555119D01*
X158501294Y-118441294D01*
X158615119Y-118270943D01*
X158655089Y-118070000D01*
X158655089Y-117570000D01*
X158615119Y-117369057D01*
X158501294Y-117198706D01*
X158330943Y-117084881D01*
X158130000Y-117044911D01*
X157230000Y-117044911D01*
X157029057Y-117084881D01*
X156998947Y-117105000D01*
X154896087Y-117105000D01*
X154880943Y-117094881D01*
X154680000Y-117054911D01*
X153895000Y-117054911D01*
X153895000Y-113655500D01*
X153901294Y-113651294D01*
X153930000Y-113608332D01*
X153958706Y-113651294D01*
X154129057Y-113765119D01*
X154330000Y-113805089D01*
X155830000Y-113805089D01*
X156030943Y-113765119D01*
X156201294Y-113651294D01*
X156268475Y-113550750D01*
X156912000Y-113550750D01*
X156912000Y-113724031D01*
X156991622Y-113916256D01*
X157138744Y-114063378D01*
X157330969Y-114143000D01*
X157491750Y-114143000D01*
X157622500Y-114012250D01*
X157622500Y-113420000D01*
X157997500Y-113420000D01*
X157997500Y-114012250D01*
X158128250Y-114143000D01*
X158289031Y-114143000D01*
X158481256Y-114063378D01*
X158628378Y-113916256D01*
X158708000Y-113724031D01*
X158708000Y-113550750D01*
X158577250Y-113420000D01*
X157997500Y-113420000D01*
X157622500Y-113420000D01*
X157042750Y-113420000D01*
X156912000Y-113550750D01*
X156268475Y-113550750D01*
X156315119Y-113480943D01*
X156355089Y-113280000D01*
X156355089Y-112535000D01*
X156986960Y-112535000D01*
X156912000Y-112715969D01*
X156912000Y-112889250D01*
X157042750Y-113020000D01*
X157622500Y-113020000D01*
X157622500Y-112961000D01*
X157997500Y-112961000D01*
X157997500Y-113020000D01*
X158577250Y-113020000D01*
X158708000Y-112889250D01*
X158708000Y-112715969D01*
X158628378Y-112523744D01*
X158572169Y-112467535D01*
X158670119Y-112320943D01*
X158710089Y-112120000D01*
X158710089Y-111320000D01*
X158670119Y-111119057D01*
X158556294Y-110948706D01*
X158385943Y-110834881D01*
X158185000Y-110794911D01*
X157435000Y-110794911D01*
X157234057Y-110834881D01*
X157129117Y-110905000D01*
X156195748Y-110905000D01*
X156030943Y-110794881D01*
X155830000Y-110754911D01*
X155700340Y-110754911D01*
X153498404Y-108552976D01*
X153441776Y-108468226D01*
X153106035Y-108243891D01*
X152809970Y-108185000D01*
X152809965Y-108185000D01*
X152710002Y-108165116D01*
X152610039Y-108185000D01*
X146346112Y-108185000D01*
X146161533Y-108000421D01*
X145991522Y-107930000D01*
X146161533Y-107859579D01*
X146559579Y-107461533D01*
X146775000Y-106941461D01*
X146775000Y-106679750D01*
X151417000Y-106679750D01*
X151417000Y-107264031D01*
X151496622Y-107456256D01*
X151643744Y-107603378D01*
X151835969Y-107683000D01*
X152420250Y-107683000D01*
X152551000Y-107552250D01*
X152551000Y-106549000D01*
X151547750Y-106549000D01*
X151417000Y-106679750D01*
X146775000Y-106679750D01*
X146775000Y-106378539D01*
X146559579Y-105858467D01*
X146161533Y-105460421D01*
X145991522Y-105390000D01*
X146073679Y-105355969D01*
X151417000Y-105355969D01*
X151417000Y-105940250D01*
X151547750Y-106071000D01*
X152551000Y-106071000D01*
X152551000Y-105067750D01*
X153029000Y-105067750D01*
X153029000Y-106071000D01*
X153049000Y-106071000D01*
X153049000Y-106549000D01*
X153029000Y-106549000D01*
X153029000Y-107552250D01*
X153159750Y-107683000D01*
X153744031Y-107683000D01*
X153936256Y-107603378D01*
X154083378Y-107456256D01*
X154163000Y-107264031D01*
X154163000Y-107020394D01*
X154345891Y-107294109D01*
X154797404Y-107595801D01*
X155195564Y-107675000D01*
X155464436Y-107675000D01*
X155862596Y-107595801D01*
X156314109Y-107294109D01*
X156615801Y-106842596D01*
X156721741Y-106310000D01*
X156615801Y-105777404D01*
X156314109Y-105325891D01*
X155862596Y-105024199D01*
X155464436Y-104945000D01*
X155195564Y-104945000D01*
X154797404Y-105024199D01*
X154345891Y-105325891D01*
X154163000Y-105599606D01*
X154163000Y-105355969D01*
X154083378Y-105163744D01*
X153936256Y-105016622D01*
X153744031Y-104937000D01*
X153159750Y-104937000D01*
X153029000Y-105067750D01*
X152551000Y-105067750D01*
X152420250Y-104937000D01*
X151835969Y-104937000D01*
X151643744Y-105016622D01*
X151496622Y-105163744D01*
X151417000Y-105355969D01*
X146073679Y-105355969D01*
X146161533Y-105319579D01*
X146559579Y-104921533D01*
X146775000Y-104401461D01*
X146775000Y-103838539D01*
X146559579Y-103318467D01*
X146250862Y-103009750D01*
X151417000Y-103009750D01*
X151417000Y-103594031D01*
X151496622Y-103786256D01*
X151643744Y-103933378D01*
X151835969Y-104013000D01*
X152420250Y-104013000D01*
X152551000Y-103882250D01*
X152551000Y-102879000D01*
X151547750Y-102879000D01*
X151417000Y-103009750D01*
X146250862Y-103009750D01*
X146161533Y-102920421D01*
X145991522Y-102850000D01*
X146161533Y-102779579D01*
X146559579Y-102381533D01*
X146775000Y-101861461D01*
X146775000Y-101685969D01*
X151417000Y-101685969D01*
X151417000Y-102270250D01*
X151547750Y-102401000D01*
X152551000Y-102401000D01*
X152551000Y-101397750D01*
X153029000Y-101397750D01*
X153029000Y-102401000D01*
X153049000Y-102401000D01*
X153049000Y-102879000D01*
X153029000Y-102879000D01*
X153029000Y-103882250D01*
X153159750Y-104013000D01*
X153744031Y-104013000D01*
X153936256Y-103933378D01*
X154083378Y-103786256D01*
X154163000Y-103594031D01*
X154163000Y-103350394D01*
X154345891Y-103624109D01*
X154797404Y-103925801D01*
X155195564Y-104005000D01*
X155464436Y-104005000D01*
X155862596Y-103925801D01*
X156314109Y-103624109D01*
X156615801Y-103172596D01*
X156721741Y-102640000D01*
X156615801Y-102107404D01*
X156314109Y-101655891D01*
X155862596Y-101354199D01*
X155464436Y-101275000D01*
X155195564Y-101275000D01*
X154797404Y-101354199D01*
X154345891Y-101655891D01*
X154163000Y-101929606D01*
X154163000Y-101685969D01*
X154083378Y-101493744D01*
X153936256Y-101346622D01*
X153744031Y-101267000D01*
X153159750Y-101267000D01*
X153029000Y-101397750D01*
X152551000Y-101397750D01*
X152420250Y-101267000D01*
X151835969Y-101267000D01*
X151643744Y-101346622D01*
X151496622Y-101493744D01*
X151417000Y-101685969D01*
X146775000Y-101685969D01*
X146775000Y-101298539D01*
X146559579Y-100778467D01*
X146161533Y-100380421D01*
X145991522Y-100310000D01*
X146161533Y-100239579D01*
X146559579Y-99841533D01*
X146759140Y-99359750D01*
X151417000Y-99359750D01*
X151417000Y-99944031D01*
X151496622Y-100136256D01*
X151643744Y-100283378D01*
X151835969Y-100363000D01*
X152420250Y-100363000D01*
X152551000Y-100232250D01*
X152551000Y-99229000D01*
X151547750Y-99229000D01*
X151417000Y-99359750D01*
X146759140Y-99359750D01*
X146775000Y-99321461D01*
X146775000Y-98758539D01*
X146559579Y-98238467D01*
X146357081Y-98035969D01*
X151417000Y-98035969D01*
X151417000Y-98620250D01*
X151547750Y-98751000D01*
X152551000Y-98751000D01*
X152551000Y-97747750D01*
X153029000Y-97747750D01*
X153029000Y-98751000D01*
X153049000Y-98751000D01*
X153049000Y-99229000D01*
X153029000Y-99229000D01*
X153029000Y-100232250D01*
X153159750Y-100363000D01*
X153744031Y-100363000D01*
X153936256Y-100283378D01*
X154083378Y-100136256D01*
X154163000Y-99944031D01*
X154163000Y-99700394D01*
X154345891Y-99974109D01*
X154797404Y-100275801D01*
X155195564Y-100355000D01*
X155464436Y-100355000D01*
X155862596Y-100275801D01*
X156314109Y-99974109D01*
X156615801Y-99522596D01*
X156721741Y-98990000D01*
X156615801Y-98457404D01*
X156314109Y-98005891D01*
X155862596Y-97704199D01*
X155464436Y-97625000D01*
X155195564Y-97625000D01*
X154797404Y-97704199D01*
X154345891Y-98005891D01*
X154163000Y-98279606D01*
X154163000Y-98035969D01*
X154083378Y-97843744D01*
X153936256Y-97696622D01*
X153744031Y-97617000D01*
X153159750Y-97617000D01*
X153029000Y-97747750D01*
X152551000Y-97747750D01*
X152420250Y-97617000D01*
X151835969Y-97617000D01*
X151643744Y-97696622D01*
X151496622Y-97843744D01*
X151417000Y-98035969D01*
X146357081Y-98035969D01*
X146161533Y-97840421D01*
X145991522Y-97770000D01*
X146161533Y-97699579D01*
X146559579Y-97301533D01*
X146775000Y-96781461D01*
X146775000Y-96218539D01*
X146559579Y-95698467D01*
X146161533Y-95300421D01*
X145991522Y-95230000D01*
X146161533Y-95159579D01*
X146559579Y-94761533D01*
X146775000Y-94241461D01*
X146775000Y-93678539D01*
X146559579Y-93158467D01*
X146161533Y-92760421D01*
X145991522Y-92690000D01*
X146161533Y-92619579D01*
X146559579Y-92221533D01*
X146775000Y-91701461D01*
X146775000Y-91138539D01*
X146559579Y-90618467D01*
X146161533Y-90220421D01*
X145991522Y-90150000D01*
X146161533Y-90079579D01*
X146559579Y-89681533D01*
X146775000Y-89161461D01*
X146775000Y-88598539D01*
X146559579Y-88078467D01*
X146161533Y-87680421D01*
X145991522Y-87610000D01*
X146161533Y-87539579D01*
X146559579Y-87141533D01*
X146775000Y-86621461D01*
X146775000Y-86058539D01*
X146559579Y-85538467D01*
X146161533Y-85140421D01*
X145991522Y-85070000D01*
X146161533Y-84999579D01*
X146559579Y-84601533D01*
X146663767Y-84350000D01*
X147198259Y-84350000D01*
X147304199Y-84882596D01*
X147605891Y-85334109D01*
X148057404Y-85635801D01*
X148455564Y-85715000D01*
X148724436Y-85715000D01*
X149122596Y-85635801D01*
X149574109Y-85334109D01*
X149875801Y-84882596D01*
X149981741Y-84350000D01*
X149875801Y-83817404D01*
X149574109Y-83365891D01*
X149303520Y-83185089D01*
X149440000Y-83185089D01*
X149640943Y-83145119D01*
X149811294Y-83031294D01*
X149925119Y-82860943D01*
X149965089Y-82660000D01*
X149965089Y-80960000D01*
X149925119Y-80759057D01*
X149811294Y-80588706D01*
X149640943Y-80474881D01*
X149440000Y-80434911D01*
X147740000Y-80434911D01*
X147539057Y-80474881D01*
X147368706Y-80588706D01*
X147254881Y-80759057D01*
X147214911Y-80960000D01*
X147214911Y-82660000D01*
X147254881Y-82860943D01*
X147368706Y-83031294D01*
X147539057Y-83145119D01*
X147740000Y-83185089D01*
X147876480Y-83185089D01*
X147605891Y-83365891D01*
X147304199Y-83817404D01*
X147198259Y-84350000D01*
X146663767Y-84350000D01*
X146775000Y-84081461D01*
X146775000Y-83518539D01*
X146559579Y-82998467D01*
X146161533Y-82600421D01*
X145991522Y-82530000D01*
X146161533Y-82459579D01*
X146559579Y-82061533D01*
X146775000Y-81541461D01*
X146775000Y-80978539D01*
X146559579Y-80458467D01*
X146161533Y-80060421D01*
X145991522Y-79990000D01*
X146161533Y-79919579D01*
X146559579Y-79521533D01*
X146775000Y-79001461D01*
X146775000Y-78438539D01*
X146559579Y-77918467D01*
X146161533Y-77520421D01*
X145991522Y-77450000D01*
X146161533Y-77379579D01*
X146559579Y-76981533D01*
X146775000Y-76461461D01*
X146775000Y-75898539D01*
X146559579Y-75378467D01*
X146161533Y-74980421D01*
X145991522Y-74910000D01*
X146161533Y-74839579D01*
X146559579Y-74441533D01*
X146775000Y-73921461D01*
X146775000Y-73358539D01*
X146559579Y-72838467D01*
X146161533Y-72440421D01*
X145991522Y-72370000D01*
X146161533Y-72299579D01*
X146559579Y-71901533D01*
X146775000Y-71381461D01*
X146775000Y-70818539D01*
X146559579Y-70298467D01*
X146161533Y-69900421D01*
X145991522Y-69830000D01*
X146161533Y-69759579D01*
X146559579Y-69361533D01*
X146775000Y-68841461D01*
X146775000Y-68278539D01*
X146559579Y-67758467D01*
X146161533Y-67360421D01*
X145991522Y-67290000D01*
X146161533Y-67219579D01*
X146559579Y-66821533D01*
X146775000Y-66301461D01*
X146775000Y-66030000D01*
X147128259Y-66030000D01*
X147234199Y-66562596D01*
X147535891Y-67014109D01*
X147963756Y-67300000D01*
X147535891Y-67585891D01*
X147234199Y-68037404D01*
X147128259Y-68570000D01*
X147234199Y-69102596D01*
X147535891Y-69554109D01*
X147963756Y-69840000D01*
X147535891Y-70125891D01*
X147234199Y-70577404D01*
X147128259Y-71110000D01*
X147234199Y-71642596D01*
X147535891Y-72094109D01*
X147963756Y-72380000D01*
X147535891Y-72665891D01*
X147234199Y-73117404D01*
X147128259Y-73650000D01*
X147234199Y-74182596D01*
X147535891Y-74634109D01*
X147806480Y-74814911D01*
X147670000Y-74814911D01*
X147469057Y-74854881D01*
X147298706Y-74968706D01*
X147184881Y-75139057D01*
X147144911Y-75340000D01*
X147144911Y-77040000D01*
X147184881Y-77240943D01*
X147298706Y-77411294D01*
X147469057Y-77525119D01*
X147670000Y-77565089D01*
X149370000Y-77565089D01*
X149570943Y-77525119D01*
X149741294Y-77411294D01*
X149855119Y-77240943D01*
X149895089Y-77040000D01*
X149895089Y-75340000D01*
X149855119Y-75139057D01*
X149741294Y-74968706D01*
X149570943Y-74854881D01*
X149370000Y-74814911D01*
X149233520Y-74814911D01*
X149504109Y-74634109D01*
X149805801Y-74182596D01*
X149911741Y-73650000D01*
X149805801Y-73117404D01*
X149504109Y-72665891D01*
X149076244Y-72380000D01*
X149504109Y-72094109D01*
X149805801Y-71642596D01*
X149911741Y-71110000D01*
X149853766Y-70818539D01*
X159185000Y-70818539D01*
X159185000Y-71381461D01*
X159400421Y-71901533D01*
X159798467Y-72299579D01*
X159968478Y-72370000D01*
X159798467Y-72440421D01*
X159400421Y-72838467D01*
X159185000Y-73358539D01*
X159185000Y-73921461D01*
X159400421Y-74441533D01*
X159798467Y-74839579D01*
X159968478Y-74910000D01*
X159798467Y-74980421D01*
X159400421Y-75378467D01*
X159185000Y-75898539D01*
X159185000Y-76461461D01*
X159400421Y-76981533D01*
X159798467Y-77379579D01*
X159968478Y-77450000D01*
X159798467Y-77520421D01*
X159400421Y-77918467D01*
X159185000Y-78438539D01*
X159185000Y-79001461D01*
X159400421Y-79521533D01*
X159798467Y-79919579D01*
X159968478Y-79990000D01*
X159798467Y-80060421D01*
X159400421Y-80458467D01*
X159185000Y-80978539D01*
X159185000Y-81541461D01*
X159400421Y-82061533D01*
X159798467Y-82459579D01*
X159968478Y-82530000D01*
X159798467Y-82600421D01*
X159400421Y-82998467D01*
X159185000Y-83518539D01*
X159185000Y-84081461D01*
X159400421Y-84601533D01*
X159798467Y-84999579D01*
X159968478Y-85070000D01*
X159798467Y-85140421D01*
X159400421Y-85538467D01*
X159185000Y-86058539D01*
X159185000Y-86621461D01*
X159400421Y-87141533D01*
X159798467Y-87539579D01*
X159968478Y-87610000D01*
X159798467Y-87680421D01*
X159400421Y-88078467D01*
X159185000Y-88598539D01*
X159185000Y-89161461D01*
X159400421Y-89681533D01*
X159798467Y-90079579D01*
X159968478Y-90150000D01*
X159798467Y-90220421D01*
X159400421Y-90618467D01*
X159185000Y-91138539D01*
X159185000Y-91701461D01*
X159400421Y-92221533D01*
X159798467Y-92619579D01*
X159968478Y-92690000D01*
X159798467Y-92760421D01*
X159400421Y-93158467D01*
X159185000Y-93678539D01*
X159185000Y-94241461D01*
X159400421Y-94761533D01*
X159798467Y-95159579D01*
X159968478Y-95230000D01*
X159798467Y-95300421D01*
X159400421Y-95698467D01*
X159185000Y-96218539D01*
X159185000Y-96781461D01*
X159400421Y-97301533D01*
X159798467Y-97699579D01*
X159968478Y-97770000D01*
X159798467Y-97840421D01*
X159400421Y-98238467D01*
X159185000Y-98758539D01*
X159185000Y-99321461D01*
X159400421Y-99841533D01*
X159798467Y-100239579D01*
X159968478Y-100310000D01*
X159798467Y-100380421D01*
X159400421Y-100778467D01*
X159185000Y-101298539D01*
X159185000Y-101861461D01*
X159400421Y-102381533D01*
X159798467Y-102779579D01*
X159968478Y-102850000D01*
X159798467Y-102920421D01*
X159400421Y-103318467D01*
X159185000Y-103838539D01*
X159185000Y-104401461D01*
X159400421Y-104921533D01*
X159798467Y-105319579D01*
X159968478Y-105390000D01*
X159798467Y-105460421D01*
X159400421Y-105858467D01*
X159185000Y-106378539D01*
X159185000Y-106941461D01*
X159400421Y-107461533D01*
X159798467Y-107859579D01*
X159968478Y-107930000D01*
X159798467Y-108000421D01*
X159400421Y-108398467D01*
X159185000Y-108918539D01*
X159185000Y-109481461D01*
X159400421Y-110001533D01*
X159798467Y-110399579D01*
X159968478Y-110470000D01*
X159798467Y-110540421D01*
X159400421Y-110938467D01*
X159185000Y-111458539D01*
X159185000Y-112021461D01*
X159400421Y-112541533D01*
X159798467Y-112939579D01*
X159968478Y-113010000D01*
X159798467Y-113080421D01*
X159400421Y-113478467D01*
X159185000Y-113998539D01*
X159185000Y-114561461D01*
X159400421Y-115081533D01*
X159798467Y-115479579D01*
X160318539Y-115695000D01*
X160881461Y-115695000D01*
X161401533Y-115479579D01*
X161799579Y-115081533D01*
X162015000Y-114561461D01*
X162015000Y-113998539D01*
X161799579Y-113478467D01*
X161552479Y-113231367D01*
X163235000Y-113231367D01*
X163235000Y-114828633D01*
X163846247Y-116304315D01*
X164975685Y-117433753D01*
X166451367Y-118045000D01*
X168048633Y-118045000D01*
X169524315Y-117433753D01*
X170653753Y-116304315D01*
X171265000Y-114828633D01*
X171265000Y-113231367D01*
X170653753Y-111755685D01*
X169524315Y-110626247D01*
X168048633Y-110015000D01*
X166451367Y-110015000D01*
X164975685Y-110626247D01*
X163846247Y-111755685D01*
X163235000Y-113231367D01*
X161552479Y-113231367D01*
X161401533Y-113080421D01*
X161231522Y-113010000D01*
X161401533Y-112939579D01*
X161799579Y-112541533D01*
X162015000Y-112021461D01*
X162015000Y-111458539D01*
X161799579Y-110938467D01*
X161401533Y-110540421D01*
X161231522Y-110470000D01*
X161401533Y-110399579D01*
X161799579Y-110001533D01*
X162015000Y-109481461D01*
X162015000Y-108918539D01*
X161799579Y-108398467D01*
X161401533Y-108000421D01*
X161231522Y-107930000D01*
X161401533Y-107859579D01*
X161799579Y-107461533D01*
X161854061Y-107330000D01*
X163868442Y-107330000D01*
X163914233Y-107560206D01*
X164044634Y-107755366D01*
X164239794Y-107885767D01*
X164411894Y-107920000D01*
X164813668Y-107920000D01*
X164924542Y-107922404D01*
X164985768Y-107898585D01*
X165050206Y-107885767D01*
X165094098Y-107856440D01*
X165143287Y-107837303D01*
X165190735Y-107791869D01*
X165245366Y-107755366D01*
X165307001Y-107663122D01*
X165370000Y-107573124D01*
X165432998Y-107663120D01*
X165494634Y-107755366D01*
X165549263Y-107791867D01*
X165596712Y-107837303D01*
X165645904Y-107856440D01*
X165689794Y-107885767D01*
X165754232Y-107898585D01*
X165772651Y-107905750D01*
X165780790Y-107915346D01*
X165807871Y-107965108D01*
X165829316Y-107982439D01*
X165844635Y-108005366D01*
X165873510Y-108024660D01*
X165895971Y-108051140D01*
X165946360Y-108077032D01*
X165990423Y-108112642D01*
X166016867Y-108120447D01*
X166039795Y-108135767D01*
X166073854Y-108142542D01*
X166104740Y-108158412D01*
X166161203Y-108163049D01*
X166215538Y-108179087D01*
X166242955Y-108176178D01*
X166270000Y-108181558D01*
X166304061Y-108174783D01*
X166338667Y-108177625D01*
X166392605Y-108160303D01*
X166448944Y-108154326D01*
X166473162Y-108141146D01*
X166500206Y-108135767D01*
X166508296Y-108130361D01*
X166514233Y-108160206D01*
X166644634Y-108355366D01*
X166839794Y-108485767D01*
X167011894Y-108520000D01*
X167070000Y-108531558D01*
X167128106Y-108520000D01*
X169811894Y-108520000D01*
X169870000Y-108531558D01*
X170100206Y-108485767D01*
X170295366Y-108355366D01*
X170425767Y-108160206D01*
X170460000Y-107988106D01*
X170471558Y-107930000D01*
X170460000Y-107871894D01*
X170460000Y-107388105D01*
X170471558Y-107330000D01*
X170425767Y-107099794D01*
X170295366Y-106904634D01*
X170100206Y-106774233D01*
X169928106Y-106740000D01*
X169871300Y-106728700D01*
X169860000Y-106671894D01*
X169860000Y-106188106D01*
X169871558Y-106130000D01*
X169825767Y-105899794D01*
X169695366Y-105704634D01*
X169500206Y-105574233D01*
X169328106Y-105540000D01*
X169270000Y-105528442D01*
X169211894Y-105540000D01*
X167983622Y-105540000D01*
X167460000Y-105330551D01*
X167460000Y-105129449D01*
X168038540Y-104898033D01*
X168100205Y-104885767D01*
X168194819Y-104822549D01*
X168290147Y-104760520D01*
X168292258Y-104757443D01*
X168295366Y-104755366D01*
X168358583Y-104660754D01*
X168422919Y-104566966D01*
X168423693Y-104563311D01*
X168425767Y-104560206D01*
X168447960Y-104448633D01*
X168471513Y-104337335D01*
X168460000Y-104275526D01*
X168460000Y-103791740D01*
X168471513Y-103737335D01*
X168460000Y-103675526D01*
X168460000Y-103671894D01*
X168449357Y-103618390D01*
X168428532Y-103506587D01*
X168426496Y-103503458D01*
X168425767Y-103499794D01*
X168362533Y-103405158D01*
X168300520Y-103309853D01*
X168297443Y-103307742D01*
X168295366Y-103304634D01*
X168200734Y-103241403D01*
X168106965Y-103177081D01*
X168103311Y-103176308D01*
X168100206Y-103174233D01*
X167988619Y-103152037D01*
X167877334Y-103128487D01*
X167873663Y-103129171D01*
X167870000Y-103128442D01*
X167758425Y-103150636D01*
X167704829Y-103160619D01*
X167701458Y-103161967D01*
X167639795Y-103174233D01*
X167593558Y-103205127D01*
X164701461Y-104361967D01*
X164639794Y-104374233D01*
X164545161Y-104437464D01*
X164449853Y-104499480D01*
X164447742Y-104502557D01*
X164444634Y-104504634D01*
X164381416Y-104599247D01*
X164317081Y-104693035D01*
X164316307Y-104696690D01*
X164314233Y-104699795D01*
X164292040Y-104811368D01*
X164268487Y-104922666D01*
X164280000Y-104984474D01*
X164280000Y-105475526D01*
X164268487Y-105537334D01*
X164292036Y-105648616D01*
X164314233Y-105760206D01*
X164316308Y-105763311D01*
X164317081Y-105766965D01*
X164381423Y-105860763D01*
X164444635Y-105955366D01*
X164447741Y-105957442D01*
X164449853Y-105960520D01*
X164545200Y-106022561D01*
X164639795Y-106085767D01*
X164701460Y-106098033D01*
X164780000Y-106129449D01*
X164780000Y-106216235D01*
X164739794Y-106224233D01*
X164544634Y-106354634D01*
X164414233Y-106549794D01*
X164374936Y-106747351D01*
X164239794Y-106774233D01*
X164044634Y-106904634D01*
X163914233Y-107099794D01*
X163868442Y-107330000D01*
X161854061Y-107330000D01*
X162015000Y-106941461D01*
X162015000Y-106378539D01*
X161799579Y-105858467D01*
X161401533Y-105460421D01*
X161231522Y-105390000D01*
X161401533Y-105319579D01*
X161799579Y-104921533D01*
X162015000Y-104401461D01*
X162015000Y-103838539D01*
X161799579Y-103318467D01*
X161401533Y-102920421D01*
X161231522Y-102850000D01*
X161401533Y-102779579D01*
X161799579Y-102381533D01*
X162015000Y-101861461D01*
X162015000Y-101298539D01*
X161799579Y-100778467D01*
X161401533Y-100380421D01*
X161231522Y-100310000D01*
X161401533Y-100239579D01*
X161799579Y-99841533D01*
X162015000Y-99321461D01*
X162015000Y-98758539D01*
X161799579Y-98238467D01*
X161401533Y-97840421D01*
X161231522Y-97770000D01*
X161401533Y-97699579D01*
X161799579Y-97301533D01*
X162015000Y-96781461D01*
X162015000Y-96381367D01*
X163245000Y-96381367D01*
X163245000Y-97978633D01*
X163856247Y-99454315D01*
X164985685Y-100583753D01*
X166461367Y-101195000D01*
X168058633Y-101195000D01*
X169534315Y-100583753D01*
X170663753Y-99454315D01*
X171275000Y-97978633D01*
X171275000Y-96381367D01*
X170663753Y-94905685D01*
X169534315Y-93776247D01*
X168058633Y-93165000D01*
X166461367Y-93165000D01*
X164985685Y-93776247D01*
X163856247Y-94905685D01*
X163245000Y-96381367D01*
X162015000Y-96381367D01*
X162015000Y-96218539D01*
X161799579Y-95698467D01*
X161401533Y-95300421D01*
X161231522Y-95230000D01*
X161401533Y-95159579D01*
X161799579Y-94761533D01*
X162015000Y-94241461D01*
X162015000Y-93678539D01*
X161799579Y-93158467D01*
X161401533Y-92760421D01*
X161231522Y-92690000D01*
X161401533Y-92619579D01*
X161799579Y-92221533D01*
X162015000Y-91701461D01*
X162015000Y-91138539D01*
X161799579Y-90618467D01*
X161401533Y-90220421D01*
X161231522Y-90150000D01*
X161401533Y-90079579D01*
X161799579Y-89681533D01*
X162015000Y-89161461D01*
X162015000Y-88598539D01*
X161799579Y-88078467D01*
X161401533Y-87680421D01*
X161231522Y-87610000D01*
X161401533Y-87539579D01*
X161799579Y-87141533D01*
X162015000Y-86621461D01*
X162015000Y-86058539D01*
X161799579Y-85538467D01*
X161401533Y-85140421D01*
X161231522Y-85070000D01*
X161401533Y-84999579D01*
X161799579Y-84601533D01*
X162015000Y-84081461D01*
X162015000Y-83518539D01*
X161799579Y-82998467D01*
X161401533Y-82600421D01*
X161231522Y-82530000D01*
X161401533Y-82459579D01*
X161799579Y-82061533D01*
X162015000Y-81541461D01*
X162015000Y-80978539D01*
X161799579Y-80458467D01*
X161401533Y-80060421D01*
X161307249Y-80021367D01*
X163245000Y-80021367D01*
X163245000Y-81618633D01*
X163856247Y-83094315D01*
X164985685Y-84223753D01*
X166461367Y-84835000D01*
X168058633Y-84835000D01*
X169534315Y-84223753D01*
X170663753Y-83094315D01*
X171275000Y-81618633D01*
X171275000Y-80021367D01*
X170663753Y-78545685D01*
X169534315Y-77416247D01*
X168058633Y-76805000D01*
X166461367Y-76805000D01*
X164985685Y-77416247D01*
X163856247Y-78545685D01*
X163245000Y-80021367D01*
X161307249Y-80021367D01*
X161231522Y-79990000D01*
X161401533Y-79919579D01*
X161799579Y-79521533D01*
X162015000Y-79001461D01*
X162015000Y-78438539D01*
X161799579Y-77918467D01*
X161401533Y-77520421D01*
X161231522Y-77450000D01*
X161401533Y-77379579D01*
X161799579Y-76981533D01*
X162015000Y-76461461D01*
X162015000Y-75898539D01*
X161799579Y-75378467D01*
X161401533Y-74980421D01*
X161231522Y-74910000D01*
X161401533Y-74839579D01*
X161799579Y-74441533D01*
X162015000Y-73921461D01*
X162015000Y-73358539D01*
X161799579Y-72838467D01*
X161401533Y-72440421D01*
X161231522Y-72370000D01*
X161401533Y-72299579D01*
X161799579Y-71901533D01*
X162015000Y-71381461D01*
X162015000Y-70818539D01*
X161819264Y-70345989D01*
X165733000Y-70345989D01*
X165733000Y-70854011D01*
X165927412Y-71323362D01*
X166286638Y-71682588D01*
X166739090Y-71870000D01*
X166286638Y-72057412D01*
X165927412Y-72416638D01*
X165733000Y-72885989D01*
X165733000Y-73394011D01*
X165927412Y-73863362D01*
X166286638Y-74222588D01*
X166755989Y-74417000D01*
X167264011Y-74417000D01*
X167733362Y-74222588D01*
X168092588Y-73863362D01*
X168287000Y-73394011D01*
X168287000Y-72885989D01*
X168092588Y-72416638D01*
X167733362Y-72057412D01*
X167280910Y-71870000D01*
X167733362Y-71682588D01*
X168092588Y-71323362D01*
X168287000Y-70854011D01*
X168287000Y-70345989D01*
X168092588Y-69876638D01*
X167733362Y-69517412D01*
X167264011Y-69323000D01*
X167254329Y-69323000D01*
X167447575Y-69294944D01*
X167573825Y-69242650D01*
X167657679Y-69045676D01*
X167010000Y-68397997D01*
X166362321Y-69045676D01*
X166446175Y-69242650D01*
X166762802Y-69323000D01*
X166755989Y-69323000D01*
X166286638Y-69517412D01*
X165927412Y-69876638D01*
X165733000Y-70345989D01*
X161819264Y-70345989D01*
X161799579Y-70298467D01*
X161401533Y-69900421D01*
X161256395Y-69840303D01*
X161349047Y-69647044D01*
X160600000Y-68897997D01*
X159850953Y-69647044D01*
X159943605Y-69840303D01*
X159798467Y-69900421D01*
X159400421Y-70298467D01*
X159185000Y-70818539D01*
X149853766Y-70818539D01*
X149805801Y-70577404D01*
X149504109Y-70125891D01*
X149076244Y-69840000D01*
X149504109Y-69554109D01*
X149805801Y-69102596D01*
X149911741Y-68570000D01*
X149889527Y-68458322D01*
X159152690Y-68458322D01*
X159223949Y-69019923D01*
X159301770Y-69207800D01*
X159512956Y-69309047D01*
X160262003Y-68560000D01*
X160937997Y-68560000D01*
X161687044Y-69309047D01*
X161898230Y-69207800D01*
X162047310Y-68661678D01*
X161976051Y-68100077D01*
X161931150Y-67991674D01*
X165701608Y-67991674D01*
X165775056Y-68497575D01*
X165827350Y-68623825D01*
X166024324Y-68707679D01*
X166672003Y-68060000D01*
X167347997Y-68060000D01*
X167995676Y-68707679D01*
X168192650Y-68623825D01*
X168318392Y-68128326D01*
X168244944Y-67622425D01*
X168192650Y-67496175D01*
X167995676Y-67412321D01*
X167347997Y-68060000D01*
X166672003Y-68060000D01*
X166024324Y-67412321D01*
X165827350Y-67496175D01*
X165701608Y-67991674D01*
X161931150Y-67991674D01*
X161898230Y-67912200D01*
X161687044Y-67810953D01*
X160937997Y-68560000D01*
X160262003Y-68560000D01*
X159512956Y-67810953D01*
X159301770Y-67912200D01*
X159152690Y-68458322D01*
X149889527Y-68458322D01*
X149805801Y-68037404D01*
X149504109Y-67585891D01*
X149076244Y-67300000D01*
X149365022Y-67107044D01*
X159850953Y-67107044D01*
X159938666Y-67290000D01*
X159850953Y-67472956D01*
X160600000Y-68222003D01*
X161349047Y-67472956D01*
X161261334Y-67290000D01*
X161349047Y-67107044D01*
X161316327Y-67074324D01*
X166362321Y-67074324D01*
X167010000Y-67722003D01*
X167657679Y-67074324D01*
X167573825Y-66877350D01*
X167078326Y-66751608D01*
X166572425Y-66825056D01*
X166446175Y-66877350D01*
X166362321Y-67074324D01*
X161316327Y-67074324D01*
X160600000Y-66357997D01*
X159850953Y-67107044D01*
X149365022Y-67107044D01*
X149504109Y-67014109D01*
X149805801Y-66562596D01*
X149911741Y-66030000D01*
X149889527Y-65918322D01*
X159152690Y-65918322D01*
X159223949Y-66479923D01*
X159301770Y-66667800D01*
X159512956Y-66769047D01*
X160262003Y-66020000D01*
X160937997Y-66020000D01*
X161687044Y-66769047D01*
X161898230Y-66667800D01*
X162047310Y-66121678D01*
X161976051Y-65560077D01*
X161898230Y-65372200D01*
X161687044Y-65270953D01*
X160937997Y-66020000D01*
X160262003Y-66020000D01*
X159512956Y-65270953D01*
X159301770Y-65372200D01*
X159152690Y-65918322D01*
X149889527Y-65918322D01*
X149805801Y-65497404D01*
X149504109Y-65045891D01*
X149335091Y-64932956D01*
X159850953Y-64932956D01*
X160600000Y-65682003D01*
X161349047Y-64932956D01*
X161247800Y-64721770D01*
X160701678Y-64572690D01*
X160140077Y-64643949D01*
X159952200Y-64721770D01*
X159850953Y-64932956D01*
X149335091Y-64932956D01*
X149052596Y-64744199D01*
X148654436Y-64665000D01*
X148385564Y-64665000D01*
X147987404Y-64744199D01*
X147535891Y-65045891D01*
X147234199Y-65497404D01*
X147128259Y-66030000D01*
X146775000Y-66030000D01*
X146775000Y-65738539D01*
X146559579Y-65218467D01*
X146161533Y-64820421D01*
X145641461Y-64605000D01*
X145078539Y-64605000D01*
X144558467Y-64820421D01*
X144160421Y-65218467D01*
X143945000Y-65738539D01*
X143945000Y-66301461D01*
X144160421Y-66821533D01*
X144558467Y-67219579D01*
X144728478Y-67290000D01*
X144558467Y-67360421D01*
X144160421Y-67758467D01*
X143945000Y-68278539D01*
X143945000Y-68841461D01*
X144160421Y-69361533D01*
X144558467Y-69759579D01*
X144728478Y-69830000D01*
X144558467Y-69900421D01*
X144160421Y-70298467D01*
X143945000Y-70818539D01*
X143945000Y-71381461D01*
X144160421Y-71901533D01*
X144558467Y-72299579D01*
X144728478Y-72370000D01*
X144558467Y-72440421D01*
X144160421Y-72838467D01*
X143945000Y-73358539D01*
X143945000Y-73921461D01*
X144160421Y-74441533D01*
X144558467Y-74839579D01*
X144728478Y-74910000D01*
X144558467Y-74980421D01*
X144160421Y-75378467D01*
X143945000Y-75898539D01*
X143945000Y-76461461D01*
X144160421Y-76981533D01*
X144558467Y-77379579D01*
X144728478Y-77450000D01*
X144558467Y-77520421D01*
X144160421Y-77918467D01*
X143945000Y-78438539D01*
X143945000Y-79001461D01*
X144160421Y-79521533D01*
X144558467Y-79919579D01*
X144728478Y-79990000D01*
X144558467Y-80060421D01*
X144160421Y-80458467D01*
X143945000Y-80978539D01*
X143945000Y-81541461D01*
X144160421Y-82061533D01*
X144558467Y-82459579D01*
X144728478Y-82530000D01*
X144558467Y-82600421D01*
X144160421Y-82998467D01*
X143945000Y-83518539D01*
X143945000Y-84081461D01*
X144160421Y-84601533D01*
X144558467Y-84999579D01*
X144728478Y-85070000D01*
X144558467Y-85140421D01*
X144160421Y-85538467D01*
X143945000Y-86058539D01*
X143945000Y-86621461D01*
X144160421Y-87141533D01*
X144558467Y-87539579D01*
X144728478Y-87610000D01*
X144558467Y-87680421D01*
X144160421Y-88078467D01*
X143945000Y-88598539D01*
X143945000Y-89161461D01*
X144160421Y-89681533D01*
X144558467Y-90079579D01*
X144728478Y-90150000D01*
X144558467Y-90220421D01*
X144160421Y-90618467D01*
X143945000Y-91138539D01*
X143945000Y-91701461D01*
X144160421Y-92221533D01*
X144558467Y-92619579D01*
X144728478Y-92690000D01*
X144558467Y-92760421D01*
X144160421Y-93158467D01*
X143945000Y-93678539D01*
X143945000Y-94241461D01*
X144160421Y-94761533D01*
X144558467Y-95159579D01*
X144728478Y-95230000D01*
X144558467Y-95300421D01*
X144160421Y-95698467D01*
X144124578Y-95785000D01*
X137516163Y-95785000D01*
X133745000Y-92013838D01*
X133745000Y-91938021D01*
X133605700Y-91601720D01*
X133348306Y-91344326D01*
X133012005Y-91205026D01*
X132647995Y-91205026D01*
X132311694Y-91344326D01*
X132054300Y-91601720D01*
X131915000Y-91938021D01*
X122095000Y-91938021D01*
X122095000Y-89147995D01*
X127785000Y-89147995D01*
X127785000Y-89512005D01*
X127924300Y-89848306D01*
X128181694Y-90105700D01*
X128517995Y-90245000D01*
X128882005Y-90245000D01*
X129218306Y-90105700D01*
X129279006Y-90045000D01*
X135070994Y-90045000D01*
X135121694Y-90095700D01*
X135457995Y-90235000D01*
X135822005Y-90235000D01*
X136158306Y-90095700D01*
X136415700Y-89838306D01*
X136536568Y-89546503D01*
X136624300Y-89758306D01*
X136685000Y-89819006D01*
X136685001Y-93080993D01*
X136644300Y-93121694D01*
X136505000Y-93457995D01*
X136505000Y-93822005D01*
X136644300Y-94158306D01*
X136901694Y-94415700D01*
X137237995Y-94555000D01*
X137602005Y-94555000D01*
X137938306Y-94415700D01*
X138195700Y-94158306D01*
X138335000Y-93822005D01*
X138335000Y-93457995D01*
X138195700Y-93121694D01*
X138115000Y-93040994D01*
X138115000Y-89819006D01*
X138175700Y-89758306D01*
X138315000Y-89422005D01*
X138315000Y-89057995D01*
X138175700Y-88721694D01*
X137918306Y-88464300D01*
X137582005Y-88325000D01*
X137217995Y-88325000D01*
X136881694Y-88464300D01*
X136624300Y-88721694D01*
X136503432Y-89013497D01*
X136415700Y-88801694D01*
X136158306Y-88544300D01*
X135822005Y-88405000D01*
X135457995Y-88405000D01*
X135121694Y-88544300D01*
X135050994Y-88615000D01*
X129279006Y-88615000D01*
X129218306Y-88554300D01*
X128882005Y-88415000D01*
X128517995Y-88415000D01*
X128181694Y-88554300D01*
X127924300Y-88811694D01*
X127785000Y-89147995D01*
X122095000Y-89147995D01*
X122095000Y-81920789D01*
X122007098Y-81478877D01*
X121672254Y-80977746D01*
X121171122Y-80642902D01*
X121110000Y-80630744D01*
X121110000Y-75318648D01*
X130325000Y-75318648D01*
X130325000Y-75921352D01*
X130555645Y-76478179D01*
X130981821Y-76904355D01*
X131538648Y-77135000D01*
X132141352Y-77135000D01*
X132698179Y-76904355D01*
X133124355Y-76478179D01*
X133355000Y-75921352D01*
X133355000Y-75318648D01*
X133124355Y-74761821D01*
X132698179Y-74335645D01*
X132141352Y-74105000D01*
X131538648Y-74105000D01*
X130981821Y-74335645D01*
X130555645Y-74761821D01*
X130325000Y-75318648D01*
X121110000Y-75318648D01*
X121110000Y-60950000D01*
X147128259Y-60950000D01*
X147234199Y-61482596D01*
X147535891Y-61934109D01*
X147987404Y-62235801D01*
X148385564Y-62315000D01*
X148654436Y-62315000D01*
X149052596Y-62235801D01*
X149504109Y-61934109D01*
X149805801Y-61482596D01*
X149911741Y-60950000D01*
X149805801Y-60417404D01*
X149505806Y-59968430D01*
X155625000Y-59968430D01*
X155625000Y-60491570D01*
X155825197Y-60974887D01*
X156195113Y-61344803D01*
X156678430Y-61545000D01*
X157201570Y-61545000D01*
X157684887Y-61344803D01*
X158054803Y-60974887D01*
X158255000Y-60491570D01*
X158255000Y-59968430D01*
X158054803Y-59485113D01*
X157684887Y-59115197D01*
X157201570Y-58915000D01*
X156678430Y-58915000D01*
X156195113Y-59115197D01*
X155825197Y-59485113D01*
X155625000Y-59968430D01*
X149505806Y-59968430D01*
X149504109Y-59965891D01*
X149052596Y-59664199D01*
X148654436Y-59585000D01*
X148385564Y-59585000D01*
X147987404Y-59664199D01*
X147535891Y-59965891D01*
X147234199Y-60417404D01*
X147128259Y-60950000D01*
X121110000Y-60950000D01*
X121110000Y-57770000D01*
X123844911Y-57770000D01*
X123844911Y-59470000D01*
X123884881Y-59670943D01*
X123998706Y-59841294D01*
X124169057Y-59955119D01*
X124370000Y-59995089D01*
X126070000Y-59995089D01*
X126270943Y-59955119D01*
X126441294Y-59841294D01*
X126555119Y-59670943D01*
X126595089Y-59470000D01*
X126595089Y-57770000D01*
X126555119Y-57569057D01*
X126441294Y-57398706D01*
X126270943Y-57284881D01*
X126070000Y-57244911D01*
X124370000Y-57244911D01*
X124169057Y-57284881D01*
X123998706Y-57398706D01*
X123884881Y-57569057D01*
X123844911Y-57770000D01*
X121110000Y-57770000D01*
X121110000Y-56780263D01*
X131017734Y-56780263D01*
X131131496Y-57001783D01*
X131714213Y-57167734D01*
X132316080Y-57098056D01*
X132548504Y-57001783D01*
X132662266Y-56780263D01*
X131840000Y-55957997D01*
X131017734Y-56780263D01*
X121110000Y-56780263D01*
X121110000Y-55494213D01*
X130292266Y-55494213D01*
X130361944Y-56096080D01*
X130458217Y-56328504D01*
X130679737Y-56442266D01*
X131502003Y-55620000D01*
X132177997Y-55620000D01*
X133000263Y-56442266D01*
X133221783Y-56328504D01*
X133387734Y-55745787D01*
X133318056Y-55143920D01*
X133221783Y-54911496D01*
X133000263Y-54797734D01*
X132177997Y-55620000D01*
X131502003Y-55620000D01*
X130679737Y-54797734D01*
X130458217Y-54911496D01*
X130292266Y-55494213D01*
X121110000Y-55494213D01*
X121110000Y-53034281D01*
X121138574Y-52789192D01*
X121685000Y-52789192D01*
X121685000Y-53590808D01*
X121991766Y-54331406D01*
X122558594Y-54898234D01*
X123299192Y-55205000D01*
X124100808Y-55205000D01*
X124841406Y-54898234D01*
X125279903Y-54459737D01*
X131017734Y-54459737D01*
X131840000Y-55282003D01*
X132662266Y-54459737D01*
X132548504Y-54238217D01*
X131965787Y-54072266D01*
X131363920Y-54141944D01*
X131131496Y-54238217D01*
X131017734Y-54459737D01*
X125279903Y-54459737D01*
X125408234Y-54331406D01*
X125715000Y-53590808D01*
X125715000Y-52968430D01*
X155625000Y-52968430D01*
X155625000Y-53491570D01*
X155825197Y-53974887D01*
X156195113Y-54344803D01*
X156678430Y-54545000D01*
X157201570Y-54545000D01*
X157684887Y-54344803D01*
X158054803Y-53974887D01*
X158255000Y-53491570D01*
X158255000Y-52968430D01*
X158184900Y-52799192D01*
X167835000Y-52799192D01*
X167835000Y-53600808D01*
X168141766Y-54341406D01*
X168708594Y-54908234D01*
X169449192Y-55215000D01*
X170250808Y-55215000D01*
X170991406Y-54908234D01*
X171558234Y-54341406D01*
X171865000Y-53600808D01*
X171865000Y-52799192D01*
X171558234Y-52058594D01*
X170991406Y-51491766D01*
X170250808Y-51185000D01*
X169449192Y-51185000D01*
X168708594Y-51491766D01*
X168141766Y-52058594D01*
X167835000Y-52799192D01*
X158184900Y-52799192D01*
X158054803Y-52485113D01*
X157684887Y-52115197D01*
X157201570Y-51915000D01*
X156678430Y-51915000D01*
X156195113Y-52115197D01*
X155825197Y-52485113D01*
X155625000Y-52968430D01*
X125715000Y-52968430D01*
X125715000Y-52789192D01*
X125408234Y-52048594D01*
X124841406Y-51481766D01*
X124100808Y-51175000D01*
X123299192Y-51175000D01*
X122558594Y-51481766D01*
X121991766Y-52048594D01*
X121685000Y-52789192D01*
X121138574Y-52789192D01*
X121178528Y-52446500D01*
X121368662Y-51922689D01*
X121674198Y-51456670D01*
X122078748Y-51073436D01*
X122560609Y-50793550D01*
X123101663Y-50629680D01*
X123546273Y-50590000D01*
X169995719Y-50590000D01*
X170583500Y-50658528D01*
G36*
X143945000Y-108937584D02*
X143945000Y-109481461D01*
X144160421Y-110001533D01*
X144558467Y-110399579D01*
X145078539Y-110615000D01*
X145641461Y-110615000D01*
X146161533Y-110399579D01*
X146346112Y-110215000D01*
X152289576Y-110215000D01*
X152829487Y-110754911D01*
X152030000Y-110754911D01*
X151829057Y-110794881D01*
X151658706Y-110908706D01*
X151544881Y-111079057D01*
X151504911Y-111280000D01*
X151504911Y-113280000D01*
X151521819Y-113365000D01*
X146446112Y-113365000D01*
X146161533Y-113080421D01*
X145641461Y-112865000D01*
X145097584Y-112865000D01*
X142505000Y-110272417D01*
X142505000Y-107497583D01*
X143945000Y-108937584D01*
X143945000Y-108937584D01*
G37*
X143945000Y-108937584D02*
X143945000Y-109481461D01*
X144160421Y-110001533D01*
X144558467Y-110399579D01*
X145078539Y-110615000D01*
X145641461Y-110615000D01*
X146161533Y-110399579D01*
X146346112Y-110215000D01*
X152289576Y-110215000D01*
X152829487Y-110754911D01*
X152030000Y-110754911D01*
X151829057Y-110794881D01*
X151658706Y-110908706D01*
X151544881Y-111079057D01*
X151504911Y-111280000D01*
X151504911Y-113280000D01*
X151521819Y-113365000D01*
X146446112Y-113365000D01*
X146161533Y-113080421D01*
X145641461Y-112865000D01*
X145097584Y-112865000D01*
X142505000Y-110272417D01*
X142505000Y-107497583D01*
X143945000Y-108937584D01*
G04 #@! TD*
M02*
