G04 #@! TF.GenerationSoftware,KiCad,Pcbnew,5.0.0*
G04 #@! TF.CreationDate,2018-07-28T18:19:29+02:00*
G04 #@! TF.ProjectId,nixie_control_board,6E697869655F636F6E74726F6C5F626F,rev?*
G04 #@! TF.SameCoordinates,Original*
G04 #@! TF.FileFunction,Copper,L2,Bot,Signal*
G04 #@! TF.FilePolarity,Positive*
%FSLAX46Y46*%
G04 Gerber Fmt 4.6, Leading zero omitted, Abs format (unit mm)*
G04 Created by KiCad (PCBNEW 5.0.0) date Sat Jul 28 18:19:29 2018*
%MOMM*%
%LPD*%
G01*
G04 APERTURE LIST*
G04 #@! TA.AperFunction,EtchedComponent*
%ADD10C,0.150000*%
G04 #@! TD*
G04 #@! TA.AperFunction,ComponentPad*
%ADD11C,1.524000*%
G04 #@! TD*
G04 #@! TA.AperFunction,SMDPad,CuDef*
%ADD12R,0.400000X0.500000*%
G04 #@! TD*
G04 #@! TA.AperFunction,SMDPad,CuDef*
%ADD13R,0.300000X0.500000*%
G04 #@! TD*
G04 #@! TA.AperFunction,ComponentPad*
%ADD14C,1.800000*%
G04 #@! TD*
G04 #@! TA.AperFunction,ViaPad*
%ADD15C,0.600000*%
G04 #@! TD*
G04 #@! TA.AperFunction,SMDPad,CuDef*
%ADD16R,0.800000X0.750000*%
G04 #@! TD*
G04 #@! TA.AperFunction,ComponentPad*
%ADD17C,2.286000*%
G04 #@! TD*
G04 #@! TA.AperFunction,SMDPad,CuDef*
%ADD18R,0.599440X1.549400*%
G04 #@! TD*
G04 #@! TA.AperFunction,ComponentPad*
%ADD19R,1.300000X1.300000*%
G04 #@! TD*
G04 #@! TA.AperFunction,ComponentPad*
%ADD20C,1.300000*%
G04 #@! TD*
G04 #@! TA.AperFunction,ComponentPad*
%ADD21C,1.998980*%
G04 #@! TD*
G04 #@! TA.AperFunction,ComponentPad*
%ADD22R,1.998980X1.998980*%
G04 #@! TD*
G04 #@! TA.AperFunction,ComponentPad*
%ADD23C,2.300000*%
G04 #@! TD*
G04 #@! TA.AperFunction,ComponentPad*
%ADD24C,3.200000*%
G04 #@! TD*
G04 #@! TA.AperFunction,ComponentPad*
%ADD25C,2.000000*%
G04 #@! TD*
G04 #@! TA.AperFunction,ComponentPad*
%ADD26R,1.700000X1.700000*%
G04 #@! TD*
G04 #@! TA.AperFunction,ComponentPad*
%ADD27O,1.700000X1.700000*%
G04 #@! TD*
G04 #@! TA.AperFunction,ComponentPad*
%ADD28C,1.600000*%
G04 #@! TD*
G04 #@! TA.AperFunction,ViaPad*
%ADD29C,0.800000*%
G04 #@! TD*
G04 #@! TA.AperFunction,ViaPad*
%ADD30C,1.000000*%
G04 #@! TD*
G04 #@! TA.AperFunction,Conductor*
%ADD31C,0.400000*%
G04 #@! TD*
G04 #@! TA.AperFunction,Conductor*
%ADD32C,1.000000*%
G04 #@! TD*
G04 #@! TA.AperFunction,Conductor*
%ADD33C,0.600000*%
G04 #@! TD*
G04 #@! TA.AperFunction,Conductor*
%ADD34C,0.800000*%
G04 #@! TD*
G04 #@! TA.AperFunction,Conductor*
%ADD35C,0.200000*%
G04 #@! TD*
G04 #@! TA.AperFunction,Conductor*
%ADD36C,0.030000*%
G04 #@! TD*
G04 APERTURE END LIST*
D10*
G04 #@! TO.C,U6*
X130930000Y-119050000D02*
X131030000Y-118700000D01*
X130930000Y-118550000D02*
X130930000Y-119050000D01*
X131230000Y-118800000D02*
X130930000Y-118550000D01*
X131230000Y-118800000D02*
X130930000Y-119050000D01*
X131730000Y-118800000D02*
X130580000Y-118800000D01*
X130230000Y-118300000D02*
X130580000Y-118800000D01*
X129480000Y-118800000D02*
X129130000Y-118800000D01*
X129830000Y-118300000D02*
X129480000Y-118800000D01*
X129630000Y-118250000D02*
X130430000Y-118250000D01*
X130030000Y-117200000D02*
X130030000Y-118250000D01*
X131730000Y-119400000D02*
X131930000Y-119400000D01*
X131730000Y-118800000D02*
X131730000Y-119400000D01*
X131930000Y-118800000D02*
X131730000Y-118800000D01*
X131330000Y-118200000D02*
X131330000Y-117800000D01*
X131530000Y-118200000D02*
X131330000Y-118200000D01*
X134530000Y-119400000D02*
X134330000Y-119400000D01*
X134530000Y-118800000D02*
X134530000Y-119400000D01*
X134330000Y-118800000D02*
X134530000Y-118800000D01*
X132530000Y-118800000D02*
X132530000Y-118200000D01*
X131930000Y-118800000D02*
X132530000Y-118800000D01*
X134330000Y-119400000D02*
X131930000Y-119400000D01*
X132930000Y-118800000D02*
X134330000Y-118800000D01*
X132930000Y-118200000D02*
X132930000Y-118800000D01*
X133930000Y-118200000D02*
X132930000Y-118200000D01*
X133930000Y-117600000D02*
X133930000Y-118200000D01*
X132530000Y-117600000D02*
X133930000Y-117600000D01*
X132530000Y-118200000D02*
X131530000Y-118200000D01*
X132530000Y-115800000D02*
X132530000Y-115200000D01*
X130530000Y-116600000D02*
X131130000Y-116400000D01*
X130530000Y-116800000D02*
X130530000Y-116600000D01*
X131130000Y-117000000D02*
X130530000Y-116800000D01*
X131130000Y-116400000D02*
X131130000Y-117000000D01*
X131530000Y-117200000D02*
X132530000Y-117600000D01*
X131530000Y-116200000D02*
X131530000Y-117200000D01*
X132530000Y-115800000D02*
X131530000Y-116200000D01*
X129530000Y-117000000D02*
X132530000Y-118200000D01*
X129530000Y-116400000D02*
X129530000Y-117000000D01*
X132530000Y-115200000D02*
X129530000Y-116400000D01*
G04 #@! TD*
D11*
G04 #@! TO.P,U5,1*
G04 #@! TO.N,+5V*
X175500000Y-59930000D03*
G04 #@! TO.P,U5,2*
G04 #@! TO.N,DHT*
X178040000Y-59930000D03*
G04 #@! TO.P,U5,3*
G04 #@! TO.N,GND*
X180580000Y-59930000D03*
G04 #@! TD*
D12*
G04 #@! TO.P,RP2,1*
G04 #@! TO.N,+5V*
X135260000Y-70640000D03*
D13*
G04 #@! TO.P,RP2,3*
X134260000Y-70640000D03*
G04 #@! TO.P,RP2,2*
X134760000Y-70640000D03*
D12*
G04 #@! TO.P,RP2,4*
X133760000Y-70640000D03*
D13*
G04 #@! TO.P,RP2,7*
G04 #@! TO.N,Net-(RP2-Pad7)*
X134760000Y-69640000D03*
D12*
G04 #@! TO.P,RP2,8*
G04 #@! TO.N,Net-(RP2-Pad8)*
X135260000Y-69640000D03*
D13*
G04 #@! TO.P,RP2,6*
G04 #@! TO.N,Net-(RP2-Pad6)*
X134260000Y-69640000D03*
D12*
G04 #@! TO.P,RP2,5*
G04 #@! TO.N,Net-(RP2-Pad5)*
X133760000Y-69640000D03*
G04 #@! TD*
D14*
G04 #@! TO.P,MCU1,1*
G04 #@! TO.N,GND*
X160600000Y-66020000D03*
G04 #@! TO.P,MCU1,2*
X160600000Y-68560000D03*
G04 #@! TO.P,MCU1,3*
G04 #@! TO.N,Net-(MCU1-Pad3)*
X160600000Y-71100000D03*
G04 #@! TO.P,MCU1,4*
G04 #@! TO.N,Net-(MCU1-Pad4)*
X160600000Y-73640000D03*
G04 #@! TO.P,MCU1,5*
G04 #@! TO.N,SDA2*
X160600000Y-76180000D03*
G04 #@! TO.P,MCU1,6*
G04 #@! TO.N,SCL2*
X160600000Y-78720000D03*
G04 #@! TO.P,MCU1,7*
G04 #@! TO.N,DHT*
X160600000Y-81260000D03*
G04 #@! TO.P,MCU1,8*
G04 #@! TO.N,Net-(MCU1-Pad8)*
X160600000Y-83800000D03*
G04 #@! TO.P,MCU1,9*
G04 #@! TO.N,MOSI*
X160600000Y-86340000D03*
G04 #@! TO.P,MCU1,10*
G04 #@! TO.N,Net-(MCU1-Pad10)*
X160600000Y-88880000D03*
G04 #@! TO.P,MCU1,11*
G04 #@! TO.N,SCK*
X160600000Y-91420000D03*
G04 #@! TO.P,MCU1,12*
G04 #@! TO.N,Net-(MCU1-Pad12)*
X160600000Y-93960000D03*
G04 #@! TO.P,MCU1,13*
G04 #@! TO.N,Net-(MCU1-Pad13)*
X160600000Y-96500000D03*
G04 #@! TO.P,MCU1,14*
G04 #@! TO.N,Net-(MCU1-Pad14)*
X160600000Y-99040000D03*
G04 #@! TO.P,MCU1,15*
G04 #@! TO.N,Net-(MCU1-Pad15)*
X160600000Y-101580000D03*
G04 #@! TO.P,MCU1,16*
G04 #@! TO.N,BUTTON_3*
X160600000Y-104120000D03*
G04 #@! TO.P,MCU1,17*
G04 #@! TO.N,BUTTON_2*
X160600000Y-106660000D03*
G04 #@! TO.P,MCU1,18*
G04 #@! TO.N,BUTTON_1*
X160600000Y-109200000D03*
G04 #@! TO.P,MCU1,19*
G04 #@! TO.N,Net-(MCU1-Pad19)*
X160600000Y-111740000D03*
G04 #@! TO.P,MCU1,20*
G04 #@! TO.N,Net-(MCU1-Pad20)*
X160600000Y-114280000D03*
G04 #@! TO.P,MCU1,21*
G04 #@! TO.N,+3V3*
X145360000Y-114280000D03*
G04 #@! TO.P,MCU1,22*
G04 #@! TO.N,GND*
X145360000Y-111740000D03*
G04 #@! TO.P,MCU1,23*
G04 #@! TO.N,+5V*
X145360000Y-109200000D03*
G04 #@! TO.P,MCU1,24*
G04 #@! TO.N,Net-(MCU1-Pad24)*
X145360000Y-106660000D03*
G04 #@! TO.P,MCU1,25*
G04 #@! TO.N,Net-(MCU1-Pad25)*
X145360000Y-104120000D03*
G04 #@! TO.P,MCU1,26*
G04 #@! TO.N,SDA*
X145360000Y-101580000D03*
G04 #@! TO.P,MCU1,27*
G04 #@! TO.N,SCL*
X145360000Y-99040000D03*
G04 #@! TO.P,MCU1,28*
G04 #@! TO.N,DISP_RESET*
X145360000Y-96500000D03*
G04 #@! TO.P,MCU1,29*
G04 #@! TO.N,Net-(MCU1-Pad29)*
X145360000Y-93960000D03*
G04 #@! TO.P,MCU1,30*
G04 #@! TO.N,Net-(MCU1-Pad30)*
X145360000Y-91420000D03*
G04 #@! TO.P,MCU1,31*
G04 #@! TO.N,Net-(MCU1-Pad31)*
X145360000Y-88880000D03*
G04 #@! TO.P,MCU1,32*
G04 #@! TO.N,Net-(MCU1-Pad32)*
X145360000Y-86340000D03*
G04 #@! TO.P,MCU1,33*
G04 #@! TO.N,Net-(MCU1-Pad33)*
X145360000Y-83800000D03*
G04 #@! TO.P,MCU1,34*
G04 #@! TO.N,Net-(MCU1-Pad34)*
X145360000Y-81260000D03*
G04 #@! TO.P,MCU1,35*
G04 #@! TO.N,BUZZER*
X145360000Y-78720000D03*
G04 #@! TO.P,MCU1,36*
G04 #@! TO.N,SHIFT_CLEAR*
X145360000Y-76180000D03*
G04 #@! TO.P,MCU1,37*
G04 #@! TO.N,SHIFT_OUT_ENABLE*
X145360000Y-73640000D03*
G04 #@! TO.P,MCU1,38*
G04 #@! TO.N,SHIFT_LATCH_CLOCK*
X145360000Y-71100000D03*
G04 #@! TO.P,MCU1,39*
G04 #@! TO.N,SHIFT_SERIAL_CLOCK*
X145360000Y-68560000D03*
G04 #@! TO.P,MCU1,40*
G04 #@! TO.N,SHIFT_SER_OUT*
X145360000Y-66020000D03*
G04 #@! TD*
D15*
G04 #@! TO.N,GND*
G04 #@! TO.C,REF\002A\002A*
X132350000Y-138300000D03*
G04 #@! TD*
D16*
G04 #@! TO.P,C1,1*
G04 #@! TO.N,+5V*
X136100000Y-59900000D03*
G04 #@! TO.P,C1,2*
G04 #@! TO.N,GND*
X134600000Y-59900000D03*
G04 #@! TD*
D17*
G04 #@! TO.P,SW1,1*
G04 #@! TO.N,BUTTON_1*
X168670000Y-112785000D03*
G04 #@! TO.P,SW1,2*
G04 #@! TO.N,GND*
X171210000Y-106435000D03*
G04 #@! TD*
G04 #@! TO.P,SW2,1*
G04 #@! TO.N,BUTTON_2*
X168670000Y-93785000D03*
G04 #@! TO.P,SW2,2*
G04 #@! TO.N,GND*
X171210000Y-87435000D03*
G04 #@! TD*
G04 #@! TO.P,SW3,1*
G04 #@! TO.N,BUTTON_3*
X168670000Y-74785000D03*
G04 #@! TO.P,SW3,2*
G04 #@! TO.N,GND*
X171210000Y-68435000D03*
G04 #@! TD*
D18*
G04 #@! TO.P,U2,1*
G04 #@! TO.N,Net-(RP2-Pad8)*
X136022460Y-67547480D03*
G04 #@! TO.P,U2,2*
G04 #@! TO.N,Net-(RP2-Pad7)*
X134752460Y-67547480D03*
G04 #@! TO.P,U2,3*
G04 #@! TO.N,Net-(RP2-Pad6)*
X133487540Y-67547480D03*
G04 #@! TO.P,U2,4*
G04 #@! TO.N,GND*
X132217540Y-67547480D03*
G04 #@! TO.P,U2,5*
G04 #@! TO.N,SDA*
X132217540Y-62152520D03*
G04 #@! TO.P,U2,6*
G04 #@! TO.N,SCL*
X133487540Y-62152520D03*
G04 #@! TO.P,U2,7*
G04 #@! TO.N,GND*
X134752460Y-62152520D03*
G04 #@! TO.P,U2,8*
G04 #@! TO.N,+5V*
X136022460Y-62152520D03*
G04 #@! TD*
D19*
G04 #@! TO.P,C6,1*
G04 #@! TO.N,Net-(C6-Pad1)*
X152674000Y-127866000D03*
D20*
G04 #@! TO.P,C6,2*
G04 #@! TO.N,GND*
X156474000Y-127866000D03*
G04 #@! TD*
D21*
G04 #@! TO.P,D1,2*
G04 #@! TO.N,Net-(D1-Pad2)*
X138450000Y-125210000D03*
D22*
G04 #@! TO.P,D1,1*
G04 #@! TO.N,Net-(C6-Pad1)*
X148610000Y-125210000D03*
G04 #@! TD*
D23*
G04 #@! TO.P,P1,1*
G04 #@! TO.N,+12P*
X122960000Y-142350000D03*
G04 #@! TO.P,P1,2*
G04 #@! TO.N,GND*
X127960000Y-142350000D03*
G04 #@! TD*
G04 #@! TO.P,P2,1*
G04 #@! TO.N,Net-(C6-Pad1)*
X151170000Y-142340000D03*
G04 #@! TO.P,P2,2*
G04 #@! TO.N,GND*
X156170000Y-142340000D03*
G04 #@! TD*
D11*
G04 #@! TO.P,RV1,2*
G04 #@! TO.N,Net-(R3-Pad1)*
X135830000Y-143830000D03*
G04 #@! TO.P,RV1,3*
X138370000Y-143830000D03*
G04 #@! TO.P,RV1,1*
G04 #@! TO.N,Net-(R2-Pad2)*
X133290000Y-143830000D03*
G04 #@! TD*
D14*
G04 #@! TO.P,U4,1*
G04 #@! TO.N,+5V*
X173810000Y-55960000D03*
G04 #@! TO.P,U4,2*
G04 #@! TO.N,BUZZER*
X171270000Y-55960000D03*
G04 #@! TO.P,U4,3*
G04 #@! TO.N,GND*
X168730000Y-55960000D03*
G04 #@! TD*
G04 #@! TO.P,Q1,2*
G04 #@! TO.N,Net-(Q1-Pad2)*
X139090000Y-130210000D03*
G04 #@! TO.P,Q1,1*
G04 #@! TO.N,Net-(D1-Pad2)*
X141630000Y-130210000D03*
G04 #@! TO.P,Q1,3*
G04 #@! TO.N,Net-(Q1-Pad3)*
X144170000Y-130210000D03*
G04 #@! TD*
D15*
G04 #@! TO.N,GND*
G04 #@! TO.C,REF\002A\002A*
X135650000Y-138310000D03*
G04 #@! TD*
D14*
G04 #@! TO.P,LCD1,1*
G04 #@! TO.N,+5V*
X153470000Y-93960000D03*
G04 #@! TO.P,LCD1,2*
G04 #@! TO.N,GND*
X153470000Y-91420000D03*
G04 #@! TO.P,LCD1,3*
G04 #@! TO.N,SCL2*
X153470000Y-88880000D03*
G04 #@! TO.P,LCD1,4*
G04 #@! TO.N,SDA2*
X153470000Y-86340000D03*
D24*
G04 #@! TO.P,LCD1,*
G04 #@! TO.N,*
X152470000Y-75150000D03*
X152470000Y-105150000D03*
X123970000Y-75150000D03*
X123970000Y-105150000D03*
G04 #@! TD*
D25*
G04 #@! TO.P,BT1,1*
G04 #@! TO.N,Net-(BT1-Pad1)*
X143100000Y-53160000D03*
G04 #@! TO.P,BT1,2*
G04 #@! TO.N,GND*
X163100000Y-53160000D03*
G04 #@! TD*
D26*
G04 #@! TO.P,P5,1*
G04 #@! TO.N,Net-(P5-Pad1)*
X121390000Y-66510000D03*
G04 #@! TD*
G04 #@! TO.P,SW4,1*
G04 #@! TO.N,+12P*
X126280000Y-136460000D03*
D27*
G04 #@! TO.P,SW4,2*
G04 #@! TO.N,+12V*
X128820000Y-136460000D03*
G04 #@! TD*
D28*
G04 #@! TO.P,BZ1,1*
G04 #@! TO.N,+5V*
X174980000Y-53160000D03*
G04 #@! TO.P,BZ1,2*
G04 #@! TO.N,Net-(BZ1-Pad2)*
X167980000Y-53160000D03*
G04 #@! TD*
D26*
G04 #@! TO.P,J1,1*
G04 #@! TO.N,SHIFT_CLEAR*
X140860000Y-76180000D03*
D27*
G04 #@! TO.P,J1,2*
G04 #@! TO.N,SHIFT_OUT_ENABLE*
X140860000Y-73640000D03*
G04 #@! TO.P,J1,3*
G04 #@! TO.N,SHIFT_LATCH_CLOCK*
X140860000Y-71100000D03*
G04 #@! TO.P,J1,4*
G04 #@! TO.N,SHIFT_SERIAL_CLOCK*
X140860000Y-68560000D03*
G04 #@! TO.P,J1,5*
G04 #@! TO.N,SHIFT_SER_OUT*
X140860000Y-66020000D03*
G04 #@! TO.P,J1,6*
G04 #@! TO.N,GND*
X140860000Y-63480000D03*
G04 #@! TO.P,J1,7*
G04 #@! TO.N,+5V*
X140860000Y-60940000D03*
G04 #@! TD*
D29*
G04 #@! TO.N,+5V*
X133480000Y-58300000D03*
X137290000Y-64594760D03*
X137290000Y-69210000D03*
X134450000Y-72430000D03*
G04 #@! TO.N,SCL*
X133490000Y-65440000D03*
X128700000Y-89330000D03*
X135640000Y-89320000D03*
G04 #@! TO.N,SDA*
X132210000Y-65460000D03*
D30*
G04 #@! TO.N,Net-(R2-Pad2)*
X139600000Y-141660000D03*
X146870000Y-136610000D03*
X140870000Y-136610000D03*
D29*
G04 #@! TO.N,+12V*
X179725000Y-134925000D03*
X170150000Y-134867540D03*
G04 #@! TO.N,+3V3*
X141690000Y-107550000D03*
G04 #@! TO.N,DISP_RESET*
X138780000Y-96510000D03*
G04 #@! TD*
D31*
G04 #@! TO.N,+5V*
X136022460Y-59977540D02*
X136100000Y-59900000D01*
X136022460Y-62152520D02*
X136022460Y-59977540D01*
X133760000Y-70640000D02*
X134260000Y-70640000D01*
X134260000Y-70640000D02*
X134760000Y-70640000D01*
X134760000Y-70640000D02*
X135260000Y-70640000D01*
X136022460Y-63327220D02*
X137290000Y-64594760D01*
X136022460Y-62152520D02*
X136022460Y-63327220D01*
X135860000Y-70640000D02*
X135260000Y-70640000D01*
X137290000Y-69210000D02*
X135860000Y-70640000D01*
X137290000Y-64594760D02*
X137290000Y-69210000D01*
X134500000Y-58300000D02*
X136100000Y-59900000D01*
X133480000Y-58300000D02*
X134500000Y-58300000D01*
X134450000Y-71450000D02*
X135260000Y-70640000D01*
X134450000Y-72430000D02*
X134450000Y-71450000D01*
D32*
X153470000Y-93960000D02*
X148810000Y-89300000D01*
X148810000Y-89300000D02*
X148810000Y-63970000D01*
D33*
X171460000Y-63970000D02*
X175500000Y-59930000D01*
X148810000Y-63970000D02*
X171460000Y-63970000D01*
X175500000Y-57650000D02*
X173810000Y-55960000D01*
X175500000Y-59930000D02*
X175500000Y-57650000D01*
X173810000Y-54330000D02*
X174980000Y-53160000D01*
X173810000Y-55960000D02*
X173810000Y-54330000D01*
D34*
X145780000Y-60940000D02*
X140860000Y-60940000D01*
X148810000Y-63970000D02*
X145780000Y-60940000D01*
X140860000Y-60940000D02*
X139020000Y-60940000D01*
X137290000Y-62670000D02*
X137290000Y-64594760D01*
X139020000Y-60940000D02*
X137290000Y-62670000D01*
D31*
G04 #@! TO.N,GND*
X134752460Y-60052460D02*
X134600000Y-59900000D01*
X134752460Y-62152520D02*
X134752460Y-60052460D01*
G04 #@! TO.N,SCL*
X133487540Y-62152520D02*
X133487540Y-65437540D01*
X133487540Y-65437540D02*
X133490000Y-65440000D01*
X128700000Y-89330000D02*
X135630000Y-89330000D01*
X135630000Y-89330000D02*
X135640000Y-89320000D01*
G04 #@! TO.N,SDA*
X132217540Y-62152520D02*
X132217540Y-65452460D01*
X132217540Y-65452460D02*
X132210000Y-65460000D01*
D35*
G04 #@! TO.N,Net-(RP2-Pad7)*
X134760000Y-67555020D02*
X134752460Y-67547480D01*
X134760000Y-69640000D02*
X134760000Y-67555020D01*
G04 #@! TO.N,Net-(RP2-Pad8)*
X136022460Y-68022460D02*
X136022460Y-67547480D01*
X135260000Y-68784920D02*
X136022460Y-68022460D01*
X135260000Y-69640000D02*
X135260000Y-68784920D01*
G04 #@! TO.N,Net-(RP2-Pad6)*
X133487540Y-68022460D02*
X133487540Y-67547480D01*
X134260000Y-68794920D02*
X133487540Y-68022460D01*
X134260000Y-69640000D02*
X134260000Y-68794920D01*
D34*
G04 #@! TO.N,Net-(R2-Pad2)*
X139600000Y-141660000D02*
X139600000Y-137880000D01*
X139600000Y-137880000D02*
X140870000Y-136610000D01*
X140870000Y-136610000D02*
X146870000Y-136610000D01*
D31*
G04 #@! TO.N,+12V*
X170207460Y-134925000D02*
X170150000Y-134867540D01*
X179725000Y-134925000D02*
X170207460Y-134925000D01*
D33*
G04 #@! TO.N,+3V3*
X145360000Y-114280000D02*
X141690000Y-110610000D01*
X141690000Y-110610000D02*
X141690000Y-107550000D01*
D31*
G04 #@! TO.N,DISP_RESET*
X145360000Y-96500000D02*
X138790000Y-96500000D01*
X138790000Y-96500000D02*
X138780000Y-96510000D01*
G04 #@! TD*
D36*
G04 #@! TO.N,GND*
G36*
X182553500Y-50658528D02*
X183077311Y-50848662D01*
X183543330Y-51154198D01*
X183926564Y-51558748D01*
X184206450Y-52040609D01*
X184370320Y-52581663D01*
X184410001Y-53026285D01*
X184410000Y-143965719D01*
X184341471Y-144553504D01*
X184151338Y-145077311D01*
X183845802Y-145543330D01*
X183441253Y-145926562D01*
X182959391Y-146206450D01*
X182418337Y-146370320D01*
X181973727Y-146410000D01*
X116034281Y-146410000D01*
X115446496Y-146341471D01*
X114922689Y-146151338D01*
X114456670Y-145845802D01*
X114073438Y-145441253D01*
X113793550Y-144959391D01*
X113629680Y-144418337D01*
X113590000Y-143973727D01*
X113590000Y-143599192D01*
X113985000Y-143599192D01*
X113985000Y-144400808D01*
X114291766Y-145141406D01*
X114858594Y-145708234D01*
X115599192Y-146015000D01*
X116400808Y-146015000D01*
X117141406Y-145708234D01*
X117708234Y-145141406D01*
X118015000Y-144400808D01*
X118015000Y-143599192D01*
X117708234Y-142858594D01*
X117141406Y-142291766D01*
X116482435Y-142018811D01*
X121295000Y-142018811D01*
X121295000Y-142681189D01*
X121548481Y-143293147D01*
X122016853Y-143761519D01*
X122628811Y-144015000D01*
X123291189Y-144015000D01*
X123903147Y-143761519D01*
X124088677Y-143575989D01*
X132013000Y-143575989D01*
X132013000Y-144084011D01*
X132207412Y-144553362D01*
X132566638Y-144912588D01*
X133035989Y-145107000D01*
X133544011Y-145107000D01*
X134013362Y-144912588D01*
X134372588Y-144553362D01*
X134560000Y-144100910D01*
X134747412Y-144553362D01*
X135106638Y-144912588D01*
X135575989Y-145107000D01*
X136084011Y-145107000D01*
X136553362Y-144912588D01*
X136912588Y-144553362D01*
X137100000Y-144100910D01*
X137287412Y-144553362D01*
X137646638Y-144912588D01*
X138115989Y-145107000D01*
X138624011Y-145107000D01*
X139093362Y-144912588D01*
X139452588Y-144553362D01*
X139647000Y-144084011D01*
X139647000Y-143575989D01*
X139452588Y-143106638D01*
X139093362Y-142747412D01*
X138624011Y-142553000D01*
X138115989Y-142553000D01*
X137646638Y-142747412D01*
X137287412Y-143106638D01*
X137100000Y-143559090D01*
X136912588Y-143106638D01*
X136553362Y-142747412D01*
X136084011Y-142553000D01*
X135575989Y-142553000D01*
X135106638Y-142747412D01*
X134747412Y-143106638D01*
X134560000Y-143559090D01*
X134372588Y-143106638D01*
X134013362Y-142747412D01*
X133544011Y-142553000D01*
X133035989Y-142553000D01*
X132566638Y-142747412D01*
X132207412Y-143106638D01*
X132013000Y-143575989D01*
X124088677Y-143575989D01*
X124371519Y-143293147D01*
X124625000Y-142681189D01*
X124625000Y-142018811D01*
X124392748Y-141458104D01*
X138585000Y-141458104D01*
X138585000Y-141861896D01*
X138739525Y-142234951D01*
X139025049Y-142520475D01*
X139398104Y-142675000D01*
X139801896Y-142675000D01*
X140174951Y-142520475D01*
X140460475Y-142234951D01*
X140554145Y-142008811D01*
X149505000Y-142008811D01*
X149505000Y-142671189D01*
X149758481Y-143283147D01*
X150226853Y-143751519D01*
X150838811Y-144005000D01*
X151501189Y-144005000D01*
X152113147Y-143751519D01*
X152265474Y-143599192D01*
X179985000Y-143599192D01*
X179985000Y-144400808D01*
X180291766Y-145141406D01*
X180858594Y-145708234D01*
X181599192Y-146015000D01*
X182400808Y-146015000D01*
X183141406Y-145708234D01*
X183708234Y-145141406D01*
X184015000Y-144400808D01*
X184015000Y-143599192D01*
X183708234Y-142858594D01*
X183141406Y-142291766D01*
X182400808Y-141985000D01*
X181599192Y-141985000D01*
X180858594Y-142291766D01*
X180291766Y-142858594D01*
X179985000Y-143599192D01*
X152265474Y-143599192D01*
X152581519Y-143283147D01*
X152835000Y-142671189D01*
X152835000Y-142008811D01*
X152581519Y-141396853D01*
X152113147Y-140928481D01*
X151501189Y-140675000D01*
X150838811Y-140675000D01*
X150226853Y-140928481D01*
X149758481Y-141396853D01*
X149505000Y-142008811D01*
X140554145Y-142008811D01*
X140615000Y-141861896D01*
X140615000Y-141458104D01*
X140515000Y-141216684D01*
X140515000Y-138259004D01*
X141203529Y-137570476D01*
X141313316Y-137525000D01*
X146426684Y-137525000D01*
X146668104Y-137625000D01*
X147071896Y-137625000D01*
X147444951Y-137470475D01*
X147730475Y-137184951D01*
X147885000Y-136811896D01*
X147885000Y-136408104D01*
X147730475Y-136035049D01*
X147444951Y-135749525D01*
X147071896Y-135595000D01*
X146668104Y-135595000D01*
X146426684Y-135695000D01*
X141313316Y-135695000D01*
X141071896Y-135595000D01*
X140668104Y-135595000D01*
X140295049Y-135749525D01*
X140009525Y-136035049D01*
X139909524Y-136276471D01*
X139016722Y-137169274D01*
X138940323Y-137220322D01*
X138791736Y-137442699D01*
X138738090Y-137522986D01*
X138667075Y-137880000D01*
X138685001Y-137970119D01*
X138685000Y-141216683D01*
X138585000Y-141458104D01*
X124392748Y-141458104D01*
X124371519Y-141406853D01*
X123903147Y-140938481D01*
X123291189Y-140685000D01*
X122628811Y-140685000D01*
X122016853Y-140938481D01*
X121548481Y-141406853D01*
X121295000Y-142018811D01*
X116482435Y-142018811D01*
X116400808Y-141985000D01*
X115599192Y-141985000D01*
X114858594Y-142291766D01*
X114291766Y-142858594D01*
X113985000Y-143599192D01*
X113590000Y-143599192D01*
X113590000Y-135610000D01*
X124904911Y-135610000D01*
X124904911Y-137310000D01*
X124944881Y-137510943D01*
X125058706Y-137681294D01*
X125229057Y-137795119D01*
X125430000Y-137835089D01*
X127130000Y-137835089D01*
X127330943Y-137795119D01*
X127501294Y-137681294D01*
X127615119Y-137510943D01*
X127655089Y-137310000D01*
X127655089Y-137173520D01*
X127835891Y-137444109D01*
X128287404Y-137745801D01*
X128685564Y-137825000D01*
X128954436Y-137825000D01*
X129352596Y-137745801D01*
X129804109Y-137444109D01*
X130105801Y-136992596D01*
X130211741Y-136460000D01*
X130105801Y-135927404D01*
X129804109Y-135475891D01*
X129352596Y-135174199D01*
X128954436Y-135095000D01*
X128685564Y-135095000D01*
X128287404Y-135174199D01*
X127835891Y-135475891D01*
X127655089Y-135746480D01*
X127655089Y-135610000D01*
X127615119Y-135409057D01*
X127501294Y-135238706D01*
X127330943Y-135124881D01*
X127130000Y-135084911D01*
X125430000Y-135084911D01*
X125229057Y-135124881D01*
X125058706Y-135238706D01*
X124944881Y-135409057D01*
X124904911Y-135610000D01*
X113590000Y-135610000D01*
X113590000Y-134719951D01*
X121965000Y-134719951D01*
X121966137Y-134725729D01*
X121969385Y-134730598D01*
X121974249Y-134733854D01*
X121979988Y-134735000D01*
X134369988Y-134745000D01*
X134375740Y-134743858D01*
X134380607Y-134740607D01*
X134383858Y-134735740D01*
X134385000Y-134730000D01*
X134385000Y-134685535D01*
X169235000Y-134685535D01*
X169235000Y-135049545D01*
X169374300Y-135385846D01*
X169631694Y-135643240D01*
X169967995Y-135782540D01*
X170332005Y-135782540D01*
X170668306Y-135643240D01*
X170671546Y-135640000D01*
X179145994Y-135640000D01*
X179206694Y-135700700D01*
X179542995Y-135840000D01*
X179907005Y-135840000D01*
X180243306Y-135700700D01*
X180500700Y-135443306D01*
X180640000Y-135107005D01*
X180640000Y-134742995D01*
X180500700Y-134406694D01*
X180243306Y-134149300D01*
X179907005Y-134010000D01*
X179542995Y-134010000D01*
X179206694Y-134149300D01*
X179145994Y-134210000D01*
X170786466Y-134210000D01*
X170668306Y-134091840D01*
X170332005Y-133952540D01*
X169967995Y-133952540D01*
X169631694Y-134091840D01*
X169374300Y-134349234D01*
X169235000Y-134685535D01*
X134385000Y-134685535D01*
X134385000Y-129928539D01*
X137675000Y-129928539D01*
X137675000Y-130491461D01*
X137890421Y-131011533D01*
X138288467Y-131409579D01*
X138808539Y-131625000D01*
X139371461Y-131625000D01*
X139891533Y-131409579D01*
X140289579Y-131011533D01*
X140360000Y-130841522D01*
X140430421Y-131011533D01*
X140828467Y-131409579D01*
X141348539Y-131625000D01*
X141911461Y-131625000D01*
X142431533Y-131409579D01*
X142829579Y-131011533D01*
X142900000Y-130841522D01*
X142970421Y-131011533D01*
X143368467Y-131409579D01*
X143888539Y-131625000D01*
X144451461Y-131625000D01*
X144971533Y-131409579D01*
X145369579Y-131011533D01*
X145585000Y-130491461D01*
X145585000Y-129928539D01*
X145369579Y-129408467D01*
X144971533Y-129010421D01*
X144451461Y-128795000D01*
X143888539Y-128795000D01*
X143368467Y-129010421D01*
X142970421Y-129408467D01*
X142900000Y-129578478D01*
X142829579Y-129408467D01*
X142431533Y-129010421D01*
X141911461Y-128795000D01*
X141348539Y-128795000D01*
X140828467Y-129010421D01*
X140430421Y-129408467D01*
X140360000Y-129578478D01*
X140289579Y-129408467D01*
X139891533Y-129010421D01*
X139371461Y-128795000D01*
X138808539Y-128795000D01*
X138288467Y-129010421D01*
X137890421Y-129408467D01*
X137675000Y-129928539D01*
X134385000Y-129928539D01*
X134385000Y-127216000D01*
X151498911Y-127216000D01*
X151498911Y-128516000D01*
X151538881Y-128716943D01*
X151652706Y-128887294D01*
X151823057Y-129001119D01*
X152024000Y-129041089D01*
X153324000Y-129041089D01*
X153524943Y-129001119D01*
X153695294Y-128887294D01*
X153809119Y-128716943D01*
X153849089Y-128516000D01*
X153849089Y-127216000D01*
X153809119Y-127015057D01*
X153695294Y-126844706D01*
X153524943Y-126730881D01*
X153324000Y-126690911D01*
X152024000Y-126690911D01*
X151823057Y-126730881D01*
X151652706Y-126844706D01*
X151538881Y-127015057D01*
X151498911Y-127216000D01*
X134385000Y-127216000D01*
X134385000Y-124908749D01*
X136935510Y-124908749D01*
X136935510Y-125511251D01*
X137166077Y-126067890D01*
X137592110Y-126493923D01*
X138148749Y-126724490D01*
X138751251Y-126724490D01*
X139307890Y-126493923D01*
X139733923Y-126067890D01*
X139964490Y-125511251D01*
X139964490Y-124908749D01*
X139733923Y-124352110D01*
X139592323Y-124210510D01*
X147085421Y-124210510D01*
X147085421Y-126209490D01*
X147125391Y-126410433D01*
X147239216Y-126580784D01*
X147409567Y-126694609D01*
X147610510Y-126734579D01*
X149609490Y-126734579D01*
X149810433Y-126694609D01*
X149980784Y-126580784D01*
X150094609Y-126410433D01*
X150134579Y-126209490D01*
X150134579Y-124210510D01*
X150094609Y-124009567D01*
X149980784Y-123839216D01*
X149810433Y-123725391D01*
X149609490Y-123685421D01*
X147610510Y-123685421D01*
X147409567Y-123725391D01*
X147239216Y-123839216D01*
X147125391Y-124009567D01*
X147085421Y-124210510D01*
X139592323Y-124210510D01*
X139307890Y-123926077D01*
X138751251Y-123695510D01*
X138148749Y-123695510D01*
X137592110Y-123926077D01*
X137166077Y-124352110D01*
X136935510Y-124908749D01*
X134385000Y-124908749D01*
X134385000Y-122370000D01*
X134383854Y-122364249D01*
X134380598Y-122359385D01*
X134375729Y-122356137D01*
X134369988Y-122355000D01*
X122019988Y-122365000D01*
X122014305Y-122366123D01*
X122009428Y-122369359D01*
X122006160Y-122374215D01*
X122005000Y-122379951D01*
X121965000Y-134719951D01*
X113590000Y-134719951D01*
X113590000Y-118800000D01*
X128528442Y-118800000D01*
X128574233Y-119030206D01*
X128704634Y-119225366D01*
X128899794Y-119355767D01*
X129071894Y-119390000D01*
X129473668Y-119390000D01*
X129584542Y-119392404D01*
X129645768Y-119368585D01*
X129710206Y-119355767D01*
X129754098Y-119326440D01*
X129803287Y-119307303D01*
X129850735Y-119261869D01*
X129905366Y-119225366D01*
X129967001Y-119133122D01*
X130030000Y-119043124D01*
X130092998Y-119133120D01*
X130154634Y-119225366D01*
X130209263Y-119261867D01*
X130256712Y-119307303D01*
X130305904Y-119326440D01*
X130349794Y-119355767D01*
X130414232Y-119368585D01*
X130432651Y-119375750D01*
X130440790Y-119385346D01*
X130467871Y-119435108D01*
X130489316Y-119452439D01*
X130504635Y-119475366D01*
X130533510Y-119494660D01*
X130555971Y-119521140D01*
X130606360Y-119547032D01*
X130650423Y-119582642D01*
X130676867Y-119590447D01*
X130699795Y-119605767D01*
X130733854Y-119612542D01*
X130764740Y-119628412D01*
X130821203Y-119633049D01*
X130875538Y-119649087D01*
X130902955Y-119646178D01*
X130930000Y-119651558D01*
X130964061Y-119644783D01*
X130998667Y-119647625D01*
X131052605Y-119630303D01*
X131108944Y-119624326D01*
X131133162Y-119611146D01*
X131160206Y-119605767D01*
X131168296Y-119600361D01*
X131174233Y-119630206D01*
X131304634Y-119825366D01*
X131499794Y-119955767D01*
X131671894Y-119990000D01*
X131730000Y-120001558D01*
X131788106Y-119990000D01*
X134471894Y-119990000D01*
X134530000Y-120001558D01*
X134760206Y-119955767D01*
X134955366Y-119825366D01*
X135085767Y-119630206D01*
X135120000Y-119458106D01*
X135131558Y-119400000D01*
X135120000Y-119341894D01*
X135120000Y-118858105D01*
X135131558Y-118800000D01*
X135085767Y-118569794D01*
X134955366Y-118374634D01*
X134760206Y-118244233D01*
X134588106Y-118210000D01*
X134531300Y-118198700D01*
X134520000Y-118141894D01*
X134520000Y-117658106D01*
X134531558Y-117600000D01*
X134485767Y-117369794D01*
X134355366Y-117174634D01*
X134160206Y-117044233D01*
X133988106Y-117010000D01*
X133930000Y-116998442D01*
X133871894Y-117010000D01*
X132643622Y-117010000D01*
X132120000Y-116800551D01*
X132120000Y-116599449D01*
X132698540Y-116368033D01*
X132760205Y-116355767D01*
X132854819Y-116292549D01*
X132950147Y-116230520D01*
X132952258Y-116227443D01*
X132955366Y-116225366D01*
X133018583Y-116130754D01*
X133082919Y-116036966D01*
X133083693Y-116033311D01*
X133085767Y-116030206D01*
X133107960Y-115918633D01*
X133131513Y-115807335D01*
X133120000Y-115745526D01*
X133120000Y-115261740D01*
X133131513Y-115207335D01*
X133120000Y-115145526D01*
X133120000Y-115141894D01*
X133109357Y-115088390D01*
X133088532Y-114976587D01*
X133086496Y-114973458D01*
X133085767Y-114969794D01*
X133022533Y-114875158D01*
X132960520Y-114779853D01*
X132957443Y-114777742D01*
X132955366Y-114774634D01*
X132860734Y-114711403D01*
X132766965Y-114647081D01*
X132763311Y-114646308D01*
X132760206Y-114644233D01*
X132648619Y-114622037D01*
X132537334Y-114598487D01*
X132533663Y-114599171D01*
X132530000Y-114598442D01*
X132418425Y-114620636D01*
X132364829Y-114630619D01*
X132361458Y-114631967D01*
X132299795Y-114644233D01*
X132253558Y-114675127D01*
X129361461Y-115831967D01*
X129299794Y-115844233D01*
X129205161Y-115907464D01*
X129109853Y-115969480D01*
X129107742Y-115972557D01*
X129104634Y-115974634D01*
X129041416Y-116069247D01*
X128977081Y-116163035D01*
X128976307Y-116166690D01*
X128974233Y-116169795D01*
X128952040Y-116281368D01*
X128928487Y-116392666D01*
X128940000Y-116454474D01*
X128940000Y-116945526D01*
X128928487Y-117007334D01*
X128952036Y-117118616D01*
X128974233Y-117230206D01*
X128976308Y-117233311D01*
X128977081Y-117236965D01*
X129041423Y-117330763D01*
X129104635Y-117425366D01*
X129107741Y-117427442D01*
X129109853Y-117430520D01*
X129205200Y-117492561D01*
X129299795Y-117555767D01*
X129361460Y-117568033D01*
X129440000Y-117599449D01*
X129440000Y-117686235D01*
X129399794Y-117694233D01*
X129204634Y-117824634D01*
X129074233Y-118019794D01*
X129034936Y-118217351D01*
X128899794Y-118244233D01*
X128704634Y-118374634D01*
X128574233Y-118569794D01*
X128528442Y-118800000D01*
X113590000Y-118800000D01*
X113590000Y-107367995D01*
X140775000Y-107367995D01*
X140775000Y-107732005D01*
X140875001Y-107973429D01*
X140875000Y-110529734D01*
X140859034Y-110610000D01*
X140875000Y-110690265D01*
X140922288Y-110927996D01*
X141102418Y-111197582D01*
X141170469Y-111243052D01*
X143945000Y-114017584D01*
X143945000Y-114561461D01*
X144160421Y-115081533D01*
X144558467Y-115479579D01*
X145078539Y-115695000D01*
X145641461Y-115695000D01*
X146161533Y-115479579D01*
X146559579Y-115081533D01*
X146775000Y-114561461D01*
X146775000Y-113998539D01*
X146559579Y-113478467D01*
X146161533Y-113080421D01*
X146016395Y-113020303D01*
X146109047Y-112827044D01*
X145360000Y-112077997D01*
X145345858Y-112092140D01*
X145007861Y-111754143D01*
X145022003Y-111740000D01*
X145697997Y-111740000D01*
X146447044Y-112489047D01*
X146658230Y-112387800D01*
X146807310Y-111841678D01*
X146736051Y-111280077D01*
X146658230Y-111092200D01*
X146447044Y-110990953D01*
X145697997Y-111740000D01*
X145022003Y-111740000D01*
X144272956Y-110990953D01*
X144061770Y-111092200D01*
X143912690Y-111638322D01*
X143918762Y-111686179D01*
X142505000Y-110272417D01*
X142505000Y-107973427D01*
X142605000Y-107732005D01*
X142605000Y-107367995D01*
X142465700Y-107031694D01*
X142208306Y-106774300D01*
X141872005Y-106635000D01*
X141507995Y-106635000D01*
X141171694Y-106774300D01*
X140914300Y-107031694D01*
X140775000Y-107367995D01*
X113590000Y-107367995D01*
X113590000Y-104729300D01*
X121855000Y-104729300D01*
X121855000Y-105570700D01*
X122176990Y-106348051D01*
X122771949Y-106943010D01*
X123549300Y-107265000D01*
X124390700Y-107265000D01*
X125168051Y-106943010D01*
X125763010Y-106348051D01*
X126085000Y-105570700D01*
X126085000Y-104729300D01*
X125763010Y-103951949D01*
X125168051Y-103356990D01*
X124390700Y-103035000D01*
X123549300Y-103035000D01*
X122771949Y-103356990D01*
X122176990Y-103951949D01*
X121855000Y-104729300D01*
X113590000Y-104729300D01*
X113590000Y-81920790D01*
X119065000Y-81920790D01*
X119065001Y-100219211D01*
X119152903Y-100661123D01*
X119487747Y-101162254D01*
X119988878Y-101497098D01*
X120580000Y-101614680D01*
X121171123Y-101497098D01*
X121672254Y-101162254D01*
X122007098Y-100661123D01*
X122095000Y-100219211D01*
X122095000Y-96327995D01*
X137865000Y-96327995D01*
X137865000Y-96692005D01*
X138004300Y-97028306D01*
X138261694Y-97285700D01*
X138597995Y-97425000D01*
X138962005Y-97425000D01*
X139298306Y-97285700D01*
X139369006Y-97215000D01*
X144124578Y-97215000D01*
X144160421Y-97301533D01*
X144558467Y-97699579D01*
X144728478Y-97770000D01*
X144558467Y-97840421D01*
X144160421Y-98238467D01*
X143945000Y-98758539D01*
X143945000Y-99321461D01*
X144160421Y-99841533D01*
X144558467Y-100239579D01*
X144728478Y-100310000D01*
X144558467Y-100380421D01*
X144160421Y-100778467D01*
X143945000Y-101298539D01*
X143945000Y-101861461D01*
X144160421Y-102381533D01*
X144558467Y-102779579D01*
X144728478Y-102850000D01*
X144558467Y-102920421D01*
X144160421Y-103318467D01*
X143945000Y-103838539D01*
X143945000Y-104401461D01*
X144160421Y-104921533D01*
X144558467Y-105319579D01*
X144728478Y-105390000D01*
X144558467Y-105460421D01*
X144160421Y-105858467D01*
X143945000Y-106378539D01*
X143945000Y-106941461D01*
X144160421Y-107461533D01*
X144558467Y-107859579D01*
X144728478Y-107930000D01*
X144558467Y-108000421D01*
X144160421Y-108398467D01*
X143945000Y-108918539D01*
X143945000Y-109481461D01*
X144160421Y-110001533D01*
X144558467Y-110399579D01*
X144703605Y-110459697D01*
X144610953Y-110652956D01*
X145360000Y-111402003D01*
X146109047Y-110652956D01*
X146016395Y-110459697D01*
X146161533Y-110399579D01*
X146559579Y-110001533D01*
X146775000Y-109481461D01*
X146775000Y-108918539D01*
X146559579Y-108398467D01*
X146161533Y-108000421D01*
X145991522Y-107930000D01*
X146161533Y-107859579D01*
X146559579Y-107461533D01*
X146775000Y-106941461D01*
X146775000Y-106378539D01*
X146559579Y-105858467D01*
X146161533Y-105460421D01*
X145991522Y-105390000D01*
X146161533Y-105319579D01*
X146559579Y-104921533D01*
X146639204Y-104729300D01*
X150355000Y-104729300D01*
X150355000Y-105570700D01*
X150676990Y-106348051D01*
X151271949Y-106943010D01*
X152049300Y-107265000D01*
X152890700Y-107265000D01*
X153668051Y-106943010D01*
X154263010Y-106348051D01*
X154585000Y-105570700D01*
X154585000Y-104729300D01*
X154263010Y-103951949D01*
X153668051Y-103356990D01*
X152890700Y-103035000D01*
X152049300Y-103035000D01*
X151271949Y-103356990D01*
X150676990Y-103951949D01*
X150355000Y-104729300D01*
X146639204Y-104729300D01*
X146775000Y-104401461D01*
X146775000Y-103838539D01*
X146559579Y-103318467D01*
X146161533Y-102920421D01*
X145991522Y-102850000D01*
X146161533Y-102779579D01*
X146559579Y-102381533D01*
X146775000Y-101861461D01*
X146775000Y-101298539D01*
X146559579Y-100778467D01*
X146161533Y-100380421D01*
X145991522Y-100310000D01*
X146161533Y-100239579D01*
X146559579Y-99841533D01*
X146775000Y-99321461D01*
X146775000Y-98758539D01*
X146559579Y-98238467D01*
X146161533Y-97840421D01*
X145991522Y-97770000D01*
X146161533Y-97699579D01*
X146559579Y-97301533D01*
X146775000Y-96781461D01*
X146775000Y-96218539D01*
X146559579Y-95698467D01*
X146161533Y-95300421D01*
X145991522Y-95230000D01*
X146161533Y-95159579D01*
X146559579Y-94761533D01*
X146775000Y-94241461D01*
X146775000Y-93678539D01*
X146559579Y-93158467D01*
X146161533Y-92760421D01*
X145991522Y-92690000D01*
X146161533Y-92619579D01*
X146559579Y-92221533D01*
X146775000Y-91701461D01*
X146775000Y-91138539D01*
X146559579Y-90618467D01*
X146161533Y-90220421D01*
X145991522Y-90150000D01*
X146161533Y-90079579D01*
X146559579Y-89681533D01*
X146775000Y-89161461D01*
X146775000Y-88598539D01*
X146559579Y-88078467D01*
X146161533Y-87680421D01*
X145991522Y-87610000D01*
X146161533Y-87539579D01*
X146559579Y-87141533D01*
X146775000Y-86621461D01*
X146775000Y-86058539D01*
X146559579Y-85538467D01*
X146161533Y-85140421D01*
X145991522Y-85070000D01*
X146161533Y-84999579D01*
X146559579Y-84601533D01*
X146775000Y-84081461D01*
X146775000Y-83518539D01*
X146559579Y-82998467D01*
X146161533Y-82600421D01*
X145991522Y-82530000D01*
X146161533Y-82459579D01*
X146559579Y-82061533D01*
X146775000Y-81541461D01*
X146775000Y-80978539D01*
X146559579Y-80458467D01*
X146161533Y-80060421D01*
X145991522Y-79990000D01*
X146161533Y-79919579D01*
X146559579Y-79521533D01*
X146775000Y-79001461D01*
X146775000Y-78438539D01*
X146559579Y-77918467D01*
X146161533Y-77520421D01*
X145991522Y-77450000D01*
X146161533Y-77379579D01*
X146559579Y-76981533D01*
X146775000Y-76461461D01*
X146775000Y-75898539D01*
X146559579Y-75378467D01*
X146161533Y-74980421D01*
X145991522Y-74910000D01*
X146161533Y-74839579D01*
X146559579Y-74441533D01*
X146775000Y-73921461D01*
X146775000Y-73358539D01*
X146559579Y-72838467D01*
X146161533Y-72440421D01*
X145991522Y-72370000D01*
X146161533Y-72299579D01*
X146559579Y-71901533D01*
X146775000Y-71381461D01*
X146775000Y-70818539D01*
X146559579Y-70298467D01*
X146161533Y-69900421D01*
X145991522Y-69830000D01*
X146161533Y-69759579D01*
X146559579Y-69361533D01*
X146775000Y-68841461D01*
X146775000Y-68278539D01*
X146559579Y-67758467D01*
X146161533Y-67360421D01*
X145991522Y-67290000D01*
X146161533Y-67219579D01*
X146559579Y-66821533D01*
X146775000Y-66301461D01*
X146775000Y-65738539D01*
X146559579Y-65218467D01*
X146161533Y-64820421D01*
X145641461Y-64605000D01*
X145078539Y-64605000D01*
X144558467Y-64820421D01*
X144160421Y-65218467D01*
X143945000Y-65738539D01*
X143945000Y-66301461D01*
X144160421Y-66821533D01*
X144558467Y-67219579D01*
X144728478Y-67290000D01*
X144558467Y-67360421D01*
X144160421Y-67758467D01*
X143945000Y-68278539D01*
X143945000Y-68841461D01*
X144160421Y-69361533D01*
X144558467Y-69759579D01*
X144728478Y-69830000D01*
X144558467Y-69900421D01*
X144160421Y-70298467D01*
X143945000Y-70818539D01*
X143945000Y-71381461D01*
X144160421Y-71901533D01*
X144558467Y-72299579D01*
X144728478Y-72370000D01*
X144558467Y-72440421D01*
X144160421Y-72838467D01*
X143945000Y-73358539D01*
X143945000Y-73921461D01*
X144160421Y-74441533D01*
X144558467Y-74839579D01*
X144728478Y-74910000D01*
X144558467Y-74980421D01*
X144160421Y-75378467D01*
X143945000Y-75898539D01*
X143945000Y-76461461D01*
X144160421Y-76981533D01*
X144558467Y-77379579D01*
X144728478Y-77450000D01*
X144558467Y-77520421D01*
X144160421Y-77918467D01*
X143945000Y-78438539D01*
X143945000Y-79001461D01*
X144160421Y-79521533D01*
X144558467Y-79919579D01*
X144728478Y-79990000D01*
X144558467Y-80060421D01*
X144160421Y-80458467D01*
X143945000Y-80978539D01*
X143945000Y-81541461D01*
X144160421Y-82061533D01*
X144558467Y-82459579D01*
X144728478Y-82530000D01*
X144558467Y-82600421D01*
X144160421Y-82998467D01*
X143945000Y-83518539D01*
X143945000Y-84081461D01*
X144160421Y-84601533D01*
X144558467Y-84999579D01*
X144728478Y-85070000D01*
X144558467Y-85140421D01*
X144160421Y-85538467D01*
X143945000Y-86058539D01*
X143945000Y-86621461D01*
X144160421Y-87141533D01*
X144558467Y-87539579D01*
X144728478Y-87610000D01*
X144558467Y-87680421D01*
X144160421Y-88078467D01*
X143945000Y-88598539D01*
X143945000Y-89161461D01*
X144160421Y-89681533D01*
X144558467Y-90079579D01*
X144728478Y-90150000D01*
X144558467Y-90220421D01*
X144160421Y-90618467D01*
X143945000Y-91138539D01*
X143945000Y-91701461D01*
X144160421Y-92221533D01*
X144558467Y-92619579D01*
X144728478Y-92690000D01*
X144558467Y-92760421D01*
X144160421Y-93158467D01*
X143945000Y-93678539D01*
X143945000Y-94241461D01*
X144160421Y-94761533D01*
X144558467Y-95159579D01*
X144728478Y-95230000D01*
X144558467Y-95300421D01*
X144160421Y-95698467D01*
X144124578Y-95785000D01*
X139349006Y-95785000D01*
X139298306Y-95734300D01*
X138962005Y-95595000D01*
X138597995Y-95595000D01*
X138261694Y-95734300D01*
X138004300Y-95991694D01*
X137865000Y-96327995D01*
X122095000Y-96327995D01*
X122095000Y-89147995D01*
X127785000Y-89147995D01*
X127785000Y-89512005D01*
X127924300Y-89848306D01*
X128181694Y-90105700D01*
X128517995Y-90245000D01*
X128882005Y-90245000D01*
X129218306Y-90105700D01*
X129279006Y-90045000D01*
X135070994Y-90045000D01*
X135121694Y-90095700D01*
X135457995Y-90235000D01*
X135822005Y-90235000D01*
X136158306Y-90095700D01*
X136415700Y-89838306D01*
X136555000Y-89502005D01*
X136555000Y-89137995D01*
X136415700Y-88801694D01*
X136158306Y-88544300D01*
X135822005Y-88405000D01*
X135457995Y-88405000D01*
X135121694Y-88544300D01*
X135050994Y-88615000D01*
X129279006Y-88615000D01*
X129218306Y-88554300D01*
X128882005Y-88415000D01*
X128517995Y-88415000D01*
X128181694Y-88554300D01*
X127924300Y-88811694D01*
X127785000Y-89147995D01*
X122095000Y-89147995D01*
X122095000Y-81920789D01*
X122007098Y-81478877D01*
X121672254Y-80977746D01*
X121171122Y-80642902D01*
X120580000Y-80525320D01*
X119988877Y-80642902D01*
X119487746Y-80977746D01*
X119152902Y-81478878D01*
X119065000Y-81920790D01*
X113590000Y-81920790D01*
X113590000Y-74729300D01*
X121855000Y-74729300D01*
X121855000Y-75570700D01*
X122176990Y-76348051D01*
X122771949Y-76943010D01*
X123549300Y-77265000D01*
X124390700Y-77265000D01*
X125168051Y-76943010D01*
X125763010Y-76348051D01*
X126085000Y-75570700D01*
X126085000Y-74729300D01*
X125763010Y-73951949D01*
X125168051Y-73356990D01*
X124390700Y-73035000D01*
X123549300Y-73035000D01*
X122771949Y-73356990D01*
X122176990Y-73951949D01*
X121855000Y-74729300D01*
X113590000Y-74729300D01*
X113590000Y-67917230D01*
X131394820Y-67917230D01*
X131394820Y-68426211D01*
X131474442Y-68618436D01*
X131621564Y-68765558D01*
X131813789Y-68845180D01*
X131936930Y-68845180D01*
X132067680Y-68714430D01*
X132067680Y-67786480D01*
X131525570Y-67786480D01*
X131394820Y-67917230D01*
X113590000Y-67917230D01*
X113590000Y-65660000D01*
X120014911Y-65660000D01*
X120014911Y-67360000D01*
X120054881Y-67560943D01*
X120168706Y-67731294D01*
X120339057Y-67845119D01*
X120540000Y-67885089D01*
X122240000Y-67885089D01*
X122440943Y-67845119D01*
X122611294Y-67731294D01*
X122725119Y-67560943D01*
X122765089Y-67360000D01*
X122765089Y-65660000D01*
X122725119Y-65459057D01*
X122611294Y-65288706D01*
X122595264Y-65277995D01*
X131295000Y-65277995D01*
X131295000Y-65642005D01*
X131434300Y-65978306D01*
X131691694Y-66235700D01*
X131769738Y-66268027D01*
X131621564Y-66329402D01*
X131474442Y-66476524D01*
X131394820Y-66668749D01*
X131394820Y-67177730D01*
X131525570Y-67308480D01*
X132067680Y-67308480D01*
X132067680Y-67288480D01*
X132367400Y-67288480D01*
X132367400Y-67308480D01*
X132476540Y-67308480D01*
X132476540Y-67786480D01*
X132367400Y-67786480D01*
X132367400Y-68714430D01*
X132498150Y-68845180D01*
X132621291Y-68845180D01*
X132813516Y-68765558D01*
X132857933Y-68721141D01*
X132986877Y-68807299D01*
X133187820Y-68847269D01*
X133442608Y-68847269D01*
X133476800Y-68881461D01*
X133359057Y-68904881D01*
X133188706Y-69018706D01*
X133074881Y-69189057D01*
X133034911Y-69390000D01*
X133034911Y-69890000D01*
X133074881Y-70090943D01*
X133107660Y-70140000D01*
X133074881Y-70189057D01*
X133034911Y-70390000D01*
X133034911Y-70620303D01*
X133030993Y-70640000D01*
X133034911Y-70659697D01*
X133034911Y-70890000D01*
X133074881Y-71090943D01*
X133188706Y-71261294D01*
X133359057Y-71375119D01*
X133560000Y-71415089D01*
X133727937Y-71415089D01*
X133720993Y-71450000D01*
X133735001Y-71520422D01*
X133735001Y-71850993D01*
X133674300Y-71911694D01*
X133535000Y-72247995D01*
X133535000Y-72612005D01*
X133674300Y-72948306D01*
X133931694Y-73205700D01*
X134267995Y-73345000D01*
X134632005Y-73345000D01*
X134968306Y-73205700D01*
X135225700Y-72948306D01*
X135365000Y-72612005D01*
X135365000Y-72247995D01*
X135225700Y-71911694D01*
X135165000Y-71850994D01*
X135165000Y-71746162D01*
X135505031Y-71406132D01*
X135660943Y-71375119D01*
X135691053Y-71355000D01*
X135789583Y-71355000D01*
X135860000Y-71369007D01*
X135930417Y-71355000D01*
X135930418Y-71355000D01*
X136138979Y-71313515D01*
X136375486Y-71155486D01*
X136415377Y-71095785D01*
X137386163Y-70125000D01*
X137472005Y-70125000D01*
X137808306Y-69985700D01*
X138065700Y-69728306D01*
X138205000Y-69392005D01*
X138205000Y-69027995D01*
X138065700Y-68691694D01*
X138005000Y-68630994D01*
X138005000Y-66020000D01*
X139468259Y-66020000D01*
X139574199Y-66552596D01*
X139875891Y-67004109D01*
X140303756Y-67290000D01*
X139875891Y-67575891D01*
X139574199Y-68027404D01*
X139468259Y-68560000D01*
X139574199Y-69092596D01*
X139875891Y-69544109D01*
X140303756Y-69830000D01*
X139875891Y-70115891D01*
X139574199Y-70567404D01*
X139468259Y-71100000D01*
X139574199Y-71632596D01*
X139875891Y-72084109D01*
X140303756Y-72370000D01*
X139875891Y-72655891D01*
X139574199Y-73107404D01*
X139468259Y-73640000D01*
X139574199Y-74172596D01*
X139875891Y-74624109D01*
X140146480Y-74804911D01*
X140010000Y-74804911D01*
X139809057Y-74844881D01*
X139638706Y-74958706D01*
X139524881Y-75129057D01*
X139484911Y-75330000D01*
X139484911Y-77030000D01*
X139524881Y-77230943D01*
X139638706Y-77401294D01*
X139809057Y-77515119D01*
X140010000Y-77555089D01*
X141710000Y-77555089D01*
X141910943Y-77515119D01*
X142081294Y-77401294D01*
X142195119Y-77230943D01*
X142235089Y-77030000D01*
X142235089Y-75330000D01*
X142195119Y-75129057D01*
X142081294Y-74958706D01*
X141910943Y-74844881D01*
X141710000Y-74804911D01*
X141573520Y-74804911D01*
X141844109Y-74624109D01*
X142145801Y-74172596D01*
X142251741Y-73640000D01*
X142145801Y-73107404D01*
X141844109Y-72655891D01*
X141416244Y-72370000D01*
X141844109Y-72084109D01*
X142145801Y-71632596D01*
X142251741Y-71100000D01*
X142145801Y-70567404D01*
X141844109Y-70115891D01*
X141416244Y-69830000D01*
X141844109Y-69544109D01*
X142145801Y-69092596D01*
X142251741Y-68560000D01*
X142145801Y-68027404D01*
X141844109Y-67575891D01*
X141416244Y-67290000D01*
X141844109Y-67004109D01*
X142145801Y-66552596D01*
X142251741Y-66020000D01*
X142145801Y-65487404D01*
X141844109Y-65035891D01*
X141392596Y-64734199D01*
X140994436Y-64655000D01*
X140725564Y-64655000D01*
X140327404Y-64734199D01*
X139875891Y-65035891D01*
X139574199Y-65487404D01*
X139468259Y-66020000D01*
X138005000Y-66020000D01*
X138005000Y-65173766D01*
X138065700Y-65113066D01*
X138100865Y-65028169D01*
X138151910Y-64951775D01*
X138169835Y-64861662D01*
X138205000Y-64776765D01*
X138205000Y-63049004D01*
X139399006Y-61855000D01*
X139829714Y-61855000D01*
X139875891Y-61924109D01*
X140327404Y-62225801D01*
X140725564Y-62305000D01*
X140994436Y-62305000D01*
X141392596Y-62225801D01*
X141844109Y-61924109D01*
X141890286Y-61855000D01*
X145400996Y-61855000D01*
X147795001Y-64249006D01*
X147795000Y-89200037D01*
X147775116Y-89300000D01*
X147795000Y-89399963D01*
X147795000Y-89399967D01*
X147853891Y-89696032D01*
X148078226Y-90031774D01*
X148162976Y-90088402D01*
X152055000Y-93980427D01*
X152055000Y-94241461D01*
X152270421Y-94761533D01*
X152668467Y-95159579D01*
X153188539Y-95375000D01*
X153751461Y-95375000D01*
X154271533Y-95159579D01*
X154669579Y-94761533D01*
X154885000Y-94241461D01*
X154885000Y-93678539D01*
X154669579Y-93158467D01*
X154271533Y-92760421D01*
X153751461Y-92545000D01*
X153490427Y-92545000D01*
X149825000Y-88879574D01*
X149825000Y-86058539D01*
X152055000Y-86058539D01*
X152055000Y-86621461D01*
X152270421Y-87141533D01*
X152668467Y-87539579D01*
X152838478Y-87610000D01*
X152668467Y-87680421D01*
X152270421Y-88078467D01*
X152055000Y-88598539D01*
X152055000Y-89161461D01*
X152270421Y-89681533D01*
X152668467Y-90079579D01*
X153188539Y-90295000D01*
X153751461Y-90295000D01*
X154271533Y-90079579D01*
X154669579Y-89681533D01*
X154885000Y-89161461D01*
X154885000Y-88598539D01*
X154669579Y-88078467D01*
X154271533Y-87680421D01*
X154101522Y-87610000D01*
X154271533Y-87539579D01*
X154669579Y-87141533D01*
X154885000Y-86621461D01*
X154885000Y-86058539D01*
X154669579Y-85538467D01*
X154271533Y-85140421D01*
X153751461Y-84925000D01*
X153188539Y-84925000D01*
X152668467Y-85140421D01*
X152270421Y-85538467D01*
X152055000Y-86058539D01*
X149825000Y-86058539D01*
X149825000Y-74729300D01*
X150355000Y-74729300D01*
X150355000Y-75570700D01*
X150676990Y-76348051D01*
X151271949Y-76943010D01*
X152049300Y-77265000D01*
X152890700Y-77265000D01*
X153668051Y-76943010D01*
X154263010Y-76348051D01*
X154585000Y-75570700D01*
X154585000Y-74729300D01*
X154263010Y-73951949D01*
X153668051Y-73356990D01*
X152890700Y-73035000D01*
X152049300Y-73035000D01*
X151271949Y-73356990D01*
X150676990Y-73951949D01*
X150355000Y-74729300D01*
X149825000Y-74729300D01*
X149825000Y-70818539D01*
X159185000Y-70818539D01*
X159185000Y-71381461D01*
X159400421Y-71901533D01*
X159798467Y-72299579D01*
X159968478Y-72370000D01*
X159798467Y-72440421D01*
X159400421Y-72838467D01*
X159185000Y-73358539D01*
X159185000Y-73921461D01*
X159400421Y-74441533D01*
X159798467Y-74839579D01*
X159968478Y-74910000D01*
X159798467Y-74980421D01*
X159400421Y-75378467D01*
X159185000Y-75898539D01*
X159185000Y-76461461D01*
X159400421Y-76981533D01*
X159798467Y-77379579D01*
X159968478Y-77450000D01*
X159798467Y-77520421D01*
X159400421Y-77918467D01*
X159185000Y-78438539D01*
X159185000Y-79001461D01*
X159400421Y-79521533D01*
X159798467Y-79919579D01*
X159968478Y-79990000D01*
X159798467Y-80060421D01*
X159400421Y-80458467D01*
X159185000Y-80978539D01*
X159185000Y-81541461D01*
X159400421Y-82061533D01*
X159798467Y-82459579D01*
X159968478Y-82530000D01*
X159798467Y-82600421D01*
X159400421Y-82998467D01*
X159185000Y-83518539D01*
X159185000Y-84081461D01*
X159400421Y-84601533D01*
X159798467Y-84999579D01*
X159968478Y-85070000D01*
X159798467Y-85140421D01*
X159400421Y-85538467D01*
X159185000Y-86058539D01*
X159185000Y-86621461D01*
X159400421Y-87141533D01*
X159798467Y-87539579D01*
X159968478Y-87610000D01*
X159798467Y-87680421D01*
X159400421Y-88078467D01*
X159185000Y-88598539D01*
X159185000Y-89161461D01*
X159400421Y-89681533D01*
X159798467Y-90079579D01*
X159968478Y-90150000D01*
X159798467Y-90220421D01*
X159400421Y-90618467D01*
X159185000Y-91138539D01*
X159185000Y-91701461D01*
X159400421Y-92221533D01*
X159798467Y-92619579D01*
X159968478Y-92690000D01*
X159798467Y-92760421D01*
X159400421Y-93158467D01*
X159185000Y-93678539D01*
X159185000Y-94241461D01*
X159400421Y-94761533D01*
X159798467Y-95159579D01*
X159968478Y-95230000D01*
X159798467Y-95300421D01*
X159400421Y-95698467D01*
X159185000Y-96218539D01*
X159185000Y-96781461D01*
X159400421Y-97301533D01*
X159798467Y-97699579D01*
X159968478Y-97770000D01*
X159798467Y-97840421D01*
X159400421Y-98238467D01*
X159185000Y-98758539D01*
X159185000Y-99321461D01*
X159400421Y-99841533D01*
X159798467Y-100239579D01*
X159968478Y-100310000D01*
X159798467Y-100380421D01*
X159400421Y-100778467D01*
X159185000Y-101298539D01*
X159185000Y-101861461D01*
X159400421Y-102381533D01*
X159798467Y-102779579D01*
X159968478Y-102850000D01*
X159798467Y-102920421D01*
X159400421Y-103318467D01*
X159185000Y-103838539D01*
X159185000Y-104401461D01*
X159400421Y-104921533D01*
X159798467Y-105319579D01*
X159968478Y-105390000D01*
X159798467Y-105460421D01*
X159400421Y-105858467D01*
X159185000Y-106378539D01*
X159185000Y-106941461D01*
X159400421Y-107461533D01*
X159798467Y-107859579D01*
X159968478Y-107930000D01*
X159798467Y-108000421D01*
X159400421Y-108398467D01*
X159185000Y-108918539D01*
X159185000Y-109481461D01*
X159400421Y-110001533D01*
X159798467Y-110399579D01*
X159968478Y-110470000D01*
X159798467Y-110540421D01*
X159400421Y-110938467D01*
X159185000Y-111458539D01*
X159185000Y-112021461D01*
X159400421Y-112541533D01*
X159798467Y-112939579D01*
X159968478Y-113010000D01*
X159798467Y-113080421D01*
X159400421Y-113478467D01*
X159185000Y-113998539D01*
X159185000Y-114561461D01*
X159400421Y-115081533D01*
X159798467Y-115479579D01*
X160318539Y-115695000D01*
X160881461Y-115695000D01*
X161401533Y-115479579D01*
X161799579Y-115081533D01*
X161811271Y-115053306D01*
X172384100Y-115053306D01*
X172384100Y-115596694D01*
X172592046Y-116098720D01*
X172976280Y-116482954D01*
X173478306Y-116690900D01*
X174021694Y-116690900D01*
X174523720Y-116482954D01*
X174907954Y-116098720D01*
X175115900Y-115596694D01*
X175115900Y-115053306D01*
X174907954Y-114551280D01*
X174523720Y-114167046D01*
X174021694Y-113959100D01*
X173478306Y-113959100D01*
X172976280Y-114167046D01*
X172592046Y-114551280D01*
X172384100Y-115053306D01*
X161811271Y-115053306D01*
X162015000Y-114561461D01*
X162015000Y-113998539D01*
X161799579Y-113478467D01*
X161401533Y-113080421D01*
X161231522Y-113010000D01*
X161401533Y-112939579D01*
X161799579Y-112541533D01*
X161835338Y-112455203D01*
X167012000Y-112455203D01*
X167012000Y-113114797D01*
X167264416Y-113724181D01*
X167730819Y-114190584D01*
X168340203Y-114443000D01*
X168999797Y-114443000D01*
X169609181Y-114190584D01*
X170075584Y-113724181D01*
X170328000Y-113114797D01*
X170328000Y-112455203D01*
X170075584Y-111845819D01*
X169609181Y-111379416D01*
X168999797Y-111127000D01*
X168340203Y-111127000D01*
X167730819Y-111379416D01*
X167264416Y-111845819D01*
X167012000Y-112455203D01*
X161835338Y-112455203D01*
X162015000Y-112021461D01*
X162015000Y-111458539D01*
X161799579Y-110938467D01*
X161401533Y-110540421D01*
X161231522Y-110470000D01*
X161401533Y-110399579D01*
X161799579Y-110001533D01*
X161905445Y-109745949D01*
X171241100Y-109745949D01*
X171241100Y-110744051D01*
X171623057Y-111666178D01*
X172328822Y-112371943D01*
X173250949Y-112753900D01*
X174249051Y-112753900D01*
X175171178Y-112371943D01*
X175876943Y-111666178D01*
X176258900Y-110744051D01*
X176258900Y-109745949D01*
X175876943Y-108823822D01*
X175171178Y-108118057D01*
X174249051Y-107736100D01*
X173250949Y-107736100D01*
X172328822Y-108118057D01*
X171623057Y-108823822D01*
X171241100Y-109745949D01*
X161905445Y-109745949D01*
X162015000Y-109481461D01*
X162015000Y-108918539D01*
X161799579Y-108398467D01*
X161401533Y-108000421D01*
X161231522Y-107930000D01*
X161401533Y-107859579D01*
X161561405Y-107699707D01*
X170283290Y-107699707D01*
X170414853Y-107936038D01*
X171049801Y-108126068D01*
X171709140Y-108058649D01*
X172005147Y-107936038D01*
X172136710Y-107699707D01*
X171210000Y-106772997D01*
X170283290Y-107699707D01*
X161561405Y-107699707D01*
X161799579Y-107461533D01*
X162015000Y-106941461D01*
X162015000Y-106378539D01*
X161972031Y-106274801D01*
X169518932Y-106274801D01*
X169586351Y-106934140D01*
X169708962Y-107230147D01*
X169945293Y-107361710D01*
X170872003Y-106435000D01*
X169945293Y-105508290D01*
X169708962Y-105639853D01*
X169518932Y-106274801D01*
X161972031Y-106274801D01*
X161799579Y-105858467D01*
X161401533Y-105460421D01*
X161231522Y-105390000D01*
X161401533Y-105319579D01*
X161550819Y-105170293D01*
X170283290Y-105170293D01*
X171210000Y-106097003D01*
X171224143Y-106082861D01*
X171562140Y-106420858D01*
X171547997Y-106435000D01*
X172474707Y-107361710D01*
X172711038Y-107230147D01*
X172901068Y-106595199D01*
X172861493Y-106208167D01*
X172976280Y-106322954D01*
X173478306Y-106530900D01*
X174021694Y-106530900D01*
X174523720Y-106322954D01*
X174907954Y-105938720D01*
X175115900Y-105436694D01*
X175115900Y-104893306D01*
X174907954Y-104391280D01*
X174523720Y-104007046D01*
X174021694Y-103799100D01*
X173478306Y-103799100D01*
X172976280Y-104007046D01*
X172592046Y-104391280D01*
X172384100Y-104893306D01*
X172384100Y-105207278D01*
X172241911Y-105065089D01*
X172136709Y-105170291D01*
X172005147Y-104933962D01*
X171370199Y-104743932D01*
X170710860Y-104811351D01*
X170414853Y-104933962D01*
X170283290Y-105170293D01*
X161550819Y-105170293D01*
X161799579Y-104921533D01*
X162015000Y-104401461D01*
X162015000Y-103838539D01*
X161799579Y-103318467D01*
X161401533Y-102920421D01*
X161231522Y-102850000D01*
X161401533Y-102779579D01*
X161799579Y-102381533D01*
X162015000Y-101861461D01*
X162015000Y-101298539D01*
X161799579Y-100778467D01*
X161401533Y-100380421D01*
X161231522Y-100310000D01*
X161401533Y-100239579D01*
X161799579Y-99841533D01*
X162015000Y-99321461D01*
X162015000Y-98758539D01*
X161799579Y-98238467D01*
X161401533Y-97840421D01*
X161231522Y-97770000D01*
X161401533Y-97699579D01*
X161799579Y-97301533D01*
X162015000Y-96781461D01*
X162015000Y-96218539D01*
X161946559Y-96053306D01*
X172384100Y-96053306D01*
X172384100Y-96596694D01*
X172592046Y-97098720D01*
X172976280Y-97482954D01*
X173478306Y-97690900D01*
X174021694Y-97690900D01*
X174523720Y-97482954D01*
X174907954Y-97098720D01*
X175115900Y-96596694D01*
X175115900Y-96053306D01*
X174907954Y-95551280D01*
X174523720Y-95167046D01*
X174021694Y-94959100D01*
X173478306Y-94959100D01*
X172976280Y-95167046D01*
X172592046Y-95551280D01*
X172384100Y-96053306D01*
X161946559Y-96053306D01*
X161799579Y-95698467D01*
X161401533Y-95300421D01*
X161231522Y-95230000D01*
X161401533Y-95159579D01*
X161799579Y-94761533D01*
X162015000Y-94241461D01*
X162015000Y-93678539D01*
X161922492Y-93455203D01*
X167012000Y-93455203D01*
X167012000Y-94114797D01*
X167264416Y-94724181D01*
X167730819Y-95190584D01*
X168340203Y-95443000D01*
X168999797Y-95443000D01*
X169609181Y-95190584D01*
X170075584Y-94724181D01*
X170328000Y-94114797D01*
X170328000Y-93455203D01*
X170075584Y-92845819D01*
X169609181Y-92379416D01*
X168999797Y-92127000D01*
X168340203Y-92127000D01*
X167730819Y-92379416D01*
X167264416Y-92845819D01*
X167012000Y-93455203D01*
X161922492Y-93455203D01*
X161799579Y-93158467D01*
X161401533Y-92760421D01*
X161231522Y-92690000D01*
X161401533Y-92619579D01*
X161799579Y-92221533D01*
X162015000Y-91701461D01*
X162015000Y-91138539D01*
X161852384Y-90745949D01*
X171241100Y-90745949D01*
X171241100Y-91744051D01*
X171623057Y-92666178D01*
X172328822Y-93371943D01*
X173250949Y-93753900D01*
X174249051Y-93753900D01*
X175171178Y-93371943D01*
X175876943Y-92666178D01*
X176258900Y-91744051D01*
X176258900Y-90745949D01*
X175876943Y-89823822D01*
X175171178Y-89118057D01*
X174249051Y-88736100D01*
X173250949Y-88736100D01*
X172328822Y-89118057D01*
X171623057Y-89823822D01*
X171241100Y-90745949D01*
X161852384Y-90745949D01*
X161799579Y-90618467D01*
X161401533Y-90220421D01*
X161231522Y-90150000D01*
X161401533Y-90079579D01*
X161799579Y-89681533D01*
X162015000Y-89161461D01*
X162015000Y-88699707D01*
X170283290Y-88699707D01*
X170414853Y-88936038D01*
X171049801Y-89126068D01*
X171709140Y-89058649D01*
X172005147Y-88936038D01*
X172136710Y-88699707D01*
X171210000Y-87772997D01*
X170283290Y-88699707D01*
X162015000Y-88699707D01*
X162015000Y-88598539D01*
X161799579Y-88078467D01*
X161401533Y-87680421D01*
X161231522Y-87610000D01*
X161401533Y-87539579D01*
X161666311Y-87274801D01*
X169518932Y-87274801D01*
X169586351Y-87934140D01*
X169708962Y-88230147D01*
X169945293Y-88361710D01*
X170872003Y-87435000D01*
X169945293Y-86508290D01*
X169708962Y-86639853D01*
X169518932Y-87274801D01*
X161666311Y-87274801D01*
X161799579Y-87141533D01*
X162015000Y-86621461D01*
X162015000Y-86170293D01*
X170283290Y-86170293D01*
X171210000Y-87097003D01*
X171224143Y-87082861D01*
X171562140Y-87420858D01*
X171547997Y-87435000D01*
X172474707Y-88361710D01*
X172711038Y-88230147D01*
X172901068Y-87595199D01*
X172861493Y-87208167D01*
X172976280Y-87322954D01*
X173478306Y-87530900D01*
X174021694Y-87530900D01*
X174523720Y-87322954D01*
X174907954Y-86938720D01*
X175115900Y-86436694D01*
X175115900Y-85893306D01*
X174907954Y-85391280D01*
X174523720Y-85007046D01*
X174021694Y-84799100D01*
X173478306Y-84799100D01*
X172976280Y-85007046D01*
X172592046Y-85391280D01*
X172384100Y-85893306D01*
X172384100Y-86207278D01*
X172241911Y-86065089D01*
X172136709Y-86170291D01*
X172005147Y-85933962D01*
X171370199Y-85743932D01*
X170710860Y-85811351D01*
X170414853Y-85933962D01*
X170283290Y-86170293D01*
X162015000Y-86170293D01*
X162015000Y-86058539D01*
X161799579Y-85538467D01*
X161401533Y-85140421D01*
X161231522Y-85070000D01*
X161401533Y-84999579D01*
X161799579Y-84601533D01*
X162015000Y-84081461D01*
X162015000Y-83518539D01*
X161799579Y-82998467D01*
X161401533Y-82600421D01*
X161231522Y-82530000D01*
X161401533Y-82459579D01*
X161799579Y-82061533D01*
X162015000Y-81541461D01*
X162015000Y-80978539D01*
X161799579Y-80458467D01*
X161401533Y-80060421D01*
X161231522Y-79990000D01*
X161401533Y-79919579D01*
X161799579Y-79521533D01*
X162015000Y-79001461D01*
X162015000Y-78438539D01*
X161799579Y-77918467D01*
X161401533Y-77520421D01*
X161231522Y-77450000D01*
X161401533Y-77379579D01*
X161727806Y-77053306D01*
X172384100Y-77053306D01*
X172384100Y-77596694D01*
X172592046Y-78098720D01*
X172976280Y-78482954D01*
X173478306Y-78690900D01*
X174021694Y-78690900D01*
X174523720Y-78482954D01*
X174907954Y-78098720D01*
X175115900Y-77596694D01*
X175115900Y-77053306D01*
X174907954Y-76551280D01*
X174523720Y-76167046D01*
X174021694Y-75959100D01*
X173478306Y-75959100D01*
X172976280Y-76167046D01*
X172592046Y-76551280D01*
X172384100Y-77053306D01*
X161727806Y-77053306D01*
X161799579Y-76981533D01*
X162015000Y-76461461D01*
X162015000Y-75898539D01*
X161799579Y-75378467D01*
X161401533Y-74980421D01*
X161231522Y-74910000D01*
X161401533Y-74839579D01*
X161785909Y-74455203D01*
X167012000Y-74455203D01*
X167012000Y-75114797D01*
X167264416Y-75724181D01*
X167730819Y-76190584D01*
X168340203Y-76443000D01*
X168999797Y-76443000D01*
X169609181Y-76190584D01*
X170075584Y-75724181D01*
X170328000Y-75114797D01*
X170328000Y-74455203D01*
X170075584Y-73845819D01*
X169609181Y-73379416D01*
X168999797Y-73127000D01*
X168340203Y-73127000D01*
X167730819Y-73379416D01*
X167264416Y-73845819D01*
X167012000Y-74455203D01*
X161785909Y-74455203D01*
X161799579Y-74441533D01*
X162015000Y-73921461D01*
X162015000Y-73358539D01*
X161799579Y-72838467D01*
X161401533Y-72440421D01*
X161231522Y-72370000D01*
X161401533Y-72299579D01*
X161799579Y-71901533D01*
X161864024Y-71745949D01*
X171241100Y-71745949D01*
X171241100Y-72744051D01*
X171623057Y-73666178D01*
X172328822Y-74371943D01*
X173250949Y-74753900D01*
X174249051Y-74753900D01*
X175171178Y-74371943D01*
X175876943Y-73666178D01*
X176258900Y-72744051D01*
X176258900Y-71745949D01*
X175876943Y-70823822D01*
X175171178Y-70118057D01*
X174249051Y-69736100D01*
X173250949Y-69736100D01*
X172328822Y-70118057D01*
X171623057Y-70823822D01*
X171241100Y-71745949D01*
X161864024Y-71745949D01*
X162015000Y-71381461D01*
X162015000Y-70818539D01*
X161799579Y-70298467D01*
X161401533Y-69900421D01*
X161256395Y-69840303D01*
X161323799Y-69699707D01*
X170283290Y-69699707D01*
X170414853Y-69936038D01*
X171049801Y-70126068D01*
X171709140Y-70058649D01*
X172005147Y-69936038D01*
X172136710Y-69699707D01*
X171210000Y-68772997D01*
X170283290Y-69699707D01*
X161323799Y-69699707D01*
X161349047Y-69647044D01*
X160600000Y-68897997D01*
X159850953Y-69647044D01*
X159943605Y-69840303D01*
X159798467Y-69900421D01*
X159400421Y-70298467D01*
X159185000Y-70818539D01*
X149825000Y-70818539D01*
X149825000Y-68458322D01*
X159152690Y-68458322D01*
X159223949Y-69019923D01*
X159301770Y-69207800D01*
X159512956Y-69309047D01*
X160262003Y-68560000D01*
X160937997Y-68560000D01*
X161687044Y-69309047D01*
X161898230Y-69207800D01*
X162047310Y-68661678D01*
X161998221Y-68274801D01*
X169518932Y-68274801D01*
X169586351Y-68934140D01*
X169708962Y-69230147D01*
X169945293Y-69361710D01*
X170872003Y-68435000D01*
X169945293Y-67508290D01*
X169708962Y-67639853D01*
X169518932Y-68274801D01*
X161998221Y-68274801D01*
X161976051Y-68100077D01*
X161898230Y-67912200D01*
X161687044Y-67810953D01*
X160937997Y-68560000D01*
X160262003Y-68560000D01*
X159512956Y-67810953D01*
X159301770Y-67912200D01*
X159152690Y-68458322D01*
X149825000Y-68458322D01*
X149825000Y-67107044D01*
X159850953Y-67107044D01*
X159938666Y-67290000D01*
X159850953Y-67472956D01*
X160600000Y-68222003D01*
X161349047Y-67472956D01*
X161261334Y-67290000D01*
X161318724Y-67170293D01*
X170283290Y-67170293D01*
X171210000Y-68097003D01*
X171224143Y-68082861D01*
X171562140Y-68420858D01*
X171547997Y-68435000D01*
X172474707Y-69361710D01*
X172711038Y-69230147D01*
X172901068Y-68595199D01*
X172861493Y-68208167D01*
X172976280Y-68322954D01*
X173478306Y-68530900D01*
X174021694Y-68530900D01*
X174523720Y-68322954D01*
X174907954Y-67938720D01*
X175115900Y-67436694D01*
X175115900Y-66893306D01*
X174907954Y-66391280D01*
X174523720Y-66007046D01*
X174021694Y-65799100D01*
X173478306Y-65799100D01*
X172976280Y-66007046D01*
X172592046Y-66391280D01*
X172384100Y-66893306D01*
X172384100Y-67207278D01*
X172241911Y-67065089D01*
X172136709Y-67170291D01*
X172005147Y-66933962D01*
X171370199Y-66743932D01*
X170710860Y-66811351D01*
X170414853Y-66933962D01*
X170283290Y-67170293D01*
X161318724Y-67170293D01*
X161349047Y-67107044D01*
X160600000Y-66357997D01*
X159850953Y-67107044D01*
X149825000Y-67107044D01*
X149825000Y-65918322D01*
X159152690Y-65918322D01*
X159223949Y-66479923D01*
X159301770Y-66667800D01*
X159512956Y-66769047D01*
X160262003Y-66020000D01*
X160937997Y-66020000D01*
X161687044Y-66769047D01*
X161898230Y-66667800D01*
X162047310Y-66121678D01*
X161976051Y-65560077D01*
X161898230Y-65372200D01*
X161687044Y-65270953D01*
X160937997Y-66020000D01*
X160262003Y-66020000D01*
X159512956Y-65270953D01*
X159301770Y-65372200D01*
X159152690Y-65918322D01*
X149825000Y-65918322D01*
X149825000Y-64785000D01*
X159921886Y-64785000D01*
X159850953Y-64932956D01*
X160600000Y-65682003D01*
X161349047Y-64932956D01*
X161278114Y-64785000D01*
X171379734Y-64785000D01*
X171460000Y-64800966D01*
X171540266Y-64785000D01*
X171777997Y-64737712D01*
X172047582Y-64557582D01*
X172093052Y-64489531D01*
X175375584Y-61207000D01*
X175754011Y-61207000D01*
X176223362Y-61012588D01*
X176582588Y-60653362D01*
X176770000Y-60200910D01*
X176957412Y-60653362D01*
X177316638Y-61012588D01*
X177785989Y-61207000D01*
X178294011Y-61207000D01*
X178763362Y-61012588D01*
X178860274Y-60915676D01*
X179932321Y-60915676D01*
X180016175Y-61112650D01*
X180511674Y-61238392D01*
X181017575Y-61164944D01*
X181143825Y-61112650D01*
X181227679Y-60915676D01*
X180580000Y-60267997D01*
X179932321Y-60915676D01*
X178860274Y-60915676D01*
X179122588Y-60653362D01*
X179317000Y-60184011D01*
X179317000Y-60174329D01*
X179345056Y-60367575D01*
X179397350Y-60493825D01*
X179594324Y-60577679D01*
X180242003Y-59930000D01*
X180917997Y-59930000D01*
X181565676Y-60577679D01*
X181762650Y-60493825D01*
X181888392Y-59998326D01*
X181814944Y-59492425D01*
X181762650Y-59366175D01*
X181565676Y-59282321D01*
X180917997Y-59930000D01*
X180242003Y-59930000D01*
X179594324Y-59282321D01*
X179397350Y-59366175D01*
X179317000Y-59682802D01*
X179317000Y-59675989D01*
X179122588Y-59206638D01*
X178860274Y-58944324D01*
X179932321Y-58944324D01*
X180580000Y-59592003D01*
X181227679Y-58944324D01*
X181143825Y-58747350D01*
X180648326Y-58621608D01*
X180142425Y-58695056D01*
X180016175Y-58747350D01*
X179932321Y-58944324D01*
X178860274Y-58944324D01*
X178763362Y-58847412D01*
X178294011Y-58653000D01*
X177785989Y-58653000D01*
X177316638Y-58847412D01*
X176957412Y-59206638D01*
X176770000Y-59659090D01*
X176582588Y-59206638D01*
X176315000Y-58939050D01*
X176315000Y-57730266D01*
X176330966Y-57650000D01*
X176267712Y-57332003D01*
X176087582Y-57062418D01*
X176019534Y-57016950D01*
X175225000Y-56222417D01*
X175225000Y-55678539D01*
X175009579Y-55158467D01*
X174625000Y-54773888D01*
X174625000Y-54667583D01*
X174817583Y-54475000D01*
X175241570Y-54475000D01*
X175724887Y-54274803D01*
X176094803Y-53904887D01*
X176295000Y-53421570D01*
X176295000Y-52898430D01*
X176171052Y-52599192D01*
X179985000Y-52599192D01*
X179985000Y-53400808D01*
X180291766Y-54141406D01*
X180858594Y-54708234D01*
X181599192Y-55015000D01*
X182400808Y-55015000D01*
X183141406Y-54708234D01*
X183708234Y-54141406D01*
X184015000Y-53400808D01*
X184015000Y-52599192D01*
X183708234Y-51858594D01*
X183141406Y-51291766D01*
X182400808Y-50985000D01*
X181599192Y-50985000D01*
X180858594Y-51291766D01*
X180291766Y-51858594D01*
X179985000Y-52599192D01*
X176171052Y-52599192D01*
X176094803Y-52415113D01*
X175724887Y-52045197D01*
X175241570Y-51845000D01*
X174718430Y-51845000D01*
X174235113Y-52045197D01*
X173865197Y-52415113D01*
X173665000Y-52898430D01*
X173665000Y-53322417D01*
X173290467Y-53696950D01*
X173222419Y-53742418D01*
X173113861Y-53904887D01*
X173042288Y-54012004D01*
X172979034Y-54330000D01*
X172995001Y-54410270D01*
X172995001Y-54773887D01*
X172610421Y-55158467D01*
X172540000Y-55328478D01*
X172469579Y-55158467D01*
X172071533Y-54760421D01*
X171551461Y-54545000D01*
X170988539Y-54545000D01*
X170468467Y-54760421D01*
X170070421Y-55158467D01*
X170010303Y-55303605D01*
X169817044Y-55210953D01*
X169067997Y-55960000D01*
X169817044Y-56709047D01*
X170010303Y-56616395D01*
X170070421Y-56761533D01*
X170468467Y-57159579D01*
X170988539Y-57375000D01*
X171551461Y-57375000D01*
X172071533Y-57159579D01*
X172469579Y-56761533D01*
X172540000Y-56591522D01*
X172610421Y-56761533D01*
X173008467Y-57159579D01*
X173528539Y-57375000D01*
X174072417Y-57375000D01*
X174685001Y-57987585D01*
X174685000Y-58939050D01*
X174417412Y-59206638D01*
X174223000Y-59675989D01*
X174223000Y-60054416D01*
X171122417Y-63155000D01*
X149417218Y-63155000D01*
X149206033Y-63013891D01*
X149133460Y-62999455D01*
X146490728Y-60356724D01*
X146439678Y-60280322D01*
X146137015Y-60078090D01*
X145870115Y-60025000D01*
X145870114Y-60025000D01*
X145780000Y-60007075D01*
X145689886Y-60025000D01*
X141890286Y-60025000D01*
X141844109Y-59955891D01*
X141392596Y-59654199D01*
X140994436Y-59575000D01*
X140725564Y-59575000D01*
X140327404Y-59654199D01*
X139875891Y-59955891D01*
X139829714Y-60025000D01*
X139110112Y-60025000D01*
X139019999Y-60007075D01*
X138929886Y-60025000D01*
X138929885Y-60025000D01*
X138662985Y-60078090D01*
X138360322Y-60280322D01*
X138309276Y-60356718D01*
X136847269Y-61818727D01*
X136847269Y-61377820D01*
X136807299Y-61176877D01*
X136737460Y-61072356D01*
X136737460Y-60735719D01*
X136871294Y-60646294D01*
X136985119Y-60475943D01*
X137025089Y-60275000D01*
X137025089Y-59525000D01*
X136985119Y-59324057D01*
X136871294Y-59153706D01*
X136700943Y-59039881D01*
X136500000Y-58999911D01*
X136211074Y-58999911D01*
X135055377Y-57844215D01*
X135015486Y-57784514D01*
X134778979Y-57626485D01*
X134570418Y-57585000D01*
X134570417Y-57585000D01*
X134500000Y-57570993D01*
X134429583Y-57585000D01*
X134059006Y-57585000D01*
X133998306Y-57524300D01*
X133662005Y-57385000D01*
X133297995Y-57385000D01*
X132961694Y-57524300D01*
X132704300Y-57781694D01*
X132565000Y-58117995D01*
X132565000Y-58482005D01*
X132704300Y-58818306D01*
X132961694Y-59075700D01*
X133297995Y-59215000D01*
X133662005Y-59215000D01*
X133846988Y-59138378D01*
X133756622Y-59228744D01*
X133677000Y-59420969D01*
X133677000Y-59581750D01*
X133807750Y-59712500D01*
X134400000Y-59712500D01*
X134400000Y-59641000D01*
X134800000Y-59641000D01*
X134800000Y-59712500D01*
X134859000Y-59712500D01*
X134859000Y-60087500D01*
X134800000Y-60087500D01*
X134800000Y-60667250D01*
X134930750Y-60798000D01*
X135104031Y-60798000D01*
X135296256Y-60718378D01*
X135307461Y-60707173D01*
X135307461Y-60917469D01*
X135156211Y-60854820D01*
X135033070Y-60854820D01*
X134902320Y-60985570D01*
X134902320Y-61913520D01*
X135011460Y-61913520D01*
X135011460Y-62391520D01*
X134902320Y-62391520D01*
X134902320Y-63319470D01*
X135033070Y-63450220D01*
X135156211Y-63450220D01*
X135305610Y-63388337D01*
X135334169Y-63531910D01*
X135348946Y-63606199D01*
X135506975Y-63842706D01*
X135566673Y-63882595D01*
X136375000Y-64690923D01*
X136375000Y-64776765D01*
X136410167Y-64861666D01*
X136428091Y-64951775D01*
X136479133Y-65028165D01*
X136514300Y-65113066D01*
X136575000Y-65173766D01*
X136575000Y-66322324D01*
X136523123Y-66287661D01*
X136322180Y-66247691D01*
X135722740Y-66247691D01*
X135521797Y-66287661D01*
X135387460Y-66377422D01*
X135253123Y-66287661D01*
X135052180Y-66247691D01*
X134452740Y-66247691D01*
X134251797Y-66287661D01*
X134120000Y-66375725D01*
X133988203Y-66287661D01*
X133884416Y-66267017D01*
X134008306Y-66215700D01*
X134265700Y-65958306D01*
X134405000Y-65622005D01*
X134405000Y-65257995D01*
X134265700Y-64921694D01*
X134202540Y-64858534D01*
X134202540Y-63389675D01*
X134348709Y-63450220D01*
X134471850Y-63450220D01*
X134602600Y-63319470D01*
X134602600Y-62391520D01*
X134493460Y-62391520D01*
X134493460Y-61913520D01*
X134602600Y-61913520D01*
X134602600Y-60985570D01*
X134471850Y-60854820D01*
X134348709Y-60854820D01*
X134156484Y-60934442D01*
X134114102Y-60976824D01*
X133988203Y-60892701D01*
X133787260Y-60852731D01*
X133187820Y-60852731D01*
X132986877Y-60892701D01*
X132852540Y-60982462D01*
X132718203Y-60892701D01*
X132517260Y-60852731D01*
X131917820Y-60852731D01*
X131716877Y-60892701D01*
X131546526Y-61006526D01*
X131432701Y-61176877D01*
X131392731Y-61377820D01*
X131392731Y-62927220D01*
X131432701Y-63128163D01*
X131502540Y-63232685D01*
X131502541Y-64873453D01*
X131434300Y-64941694D01*
X131295000Y-65277995D01*
X122595264Y-65277995D01*
X122440943Y-65174881D01*
X122240000Y-65134911D01*
X120540000Y-65134911D01*
X120339057Y-65174881D01*
X120168706Y-65288706D01*
X120054881Y-65459057D01*
X120014911Y-65660000D01*
X113590000Y-65660000D01*
X113590000Y-60218250D01*
X133677000Y-60218250D01*
X133677000Y-60379031D01*
X133756622Y-60571256D01*
X133903744Y-60718378D01*
X134095969Y-60798000D01*
X134269250Y-60798000D01*
X134400000Y-60667250D01*
X134400000Y-60087500D01*
X133807750Y-60087500D01*
X133677000Y-60218250D01*
X113590000Y-60218250D01*
X113590000Y-57047044D01*
X167980953Y-57047044D01*
X168082200Y-57258230D01*
X168628322Y-57407310D01*
X169189923Y-57336051D01*
X169377800Y-57258230D01*
X169479047Y-57047044D01*
X168730000Y-56297997D01*
X167980953Y-57047044D01*
X113590000Y-57047044D01*
X113590000Y-55858322D01*
X167282690Y-55858322D01*
X167353949Y-56419923D01*
X167431770Y-56607800D01*
X167642956Y-56709047D01*
X168392003Y-55960000D01*
X167642956Y-55210953D01*
X167431770Y-55312200D01*
X167282690Y-55858322D01*
X113590000Y-55858322D01*
X113590000Y-53034281D01*
X113640725Y-52599192D01*
X113985000Y-52599192D01*
X113985000Y-53400808D01*
X114291766Y-54141406D01*
X114858594Y-54708234D01*
X115599192Y-55015000D01*
X116400808Y-55015000D01*
X116743732Y-54872956D01*
X167980953Y-54872956D01*
X168730000Y-55622003D01*
X169479047Y-54872956D01*
X169377800Y-54661770D01*
X168831678Y-54512690D01*
X168270077Y-54583949D01*
X168082200Y-54661770D01*
X167980953Y-54872956D01*
X116743732Y-54872956D01*
X117141406Y-54708234D01*
X117708234Y-54141406D01*
X118015000Y-53400808D01*
X118015000Y-52858648D01*
X141585000Y-52858648D01*
X141585000Y-53461352D01*
X141815645Y-54018179D01*
X142241821Y-54444355D01*
X142798648Y-54675000D01*
X143401352Y-54675000D01*
X143958179Y-54444355D01*
X144082271Y-54320263D01*
X162277734Y-54320263D01*
X162391496Y-54541783D01*
X162974213Y-54707734D01*
X163576080Y-54638056D01*
X163808504Y-54541783D01*
X163922266Y-54320263D01*
X163100000Y-53497997D01*
X162277734Y-54320263D01*
X144082271Y-54320263D01*
X144384355Y-54018179D01*
X144615000Y-53461352D01*
X144615000Y-53034213D01*
X161552266Y-53034213D01*
X161621944Y-53636080D01*
X161718217Y-53868504D01*
X161939737Y-53982266D01*
X162762003Y-53160000D01*
X163437997Y-53160000D01*
X164260263Y-53982266D01*
X164481783Y-53868504D01*
X164647734Y-53285787D01*
X164602890Y-52898430D01*
X166665000Y-52898430D01*
X166665000Y-53421570D01*
X166865197Y-53904887D01*
X167235113Y-54274803D01*
X167718430Y-54475000D01*
X168241570Y-54475000D01*
X168724887Y-54274803D01*
X169094803Y-53904887D01*
X169295000Y-53421570D01*
X169295000Y-52898430D01*
X169094803Y-52415113D01*
X168724887Y-52045197D01*
X168241570Y-51845000D01*
X167718430Y-51845000D01*
X167235113Y-52045197D01*
X166865197Y-52415113D01*
X166665000Y-52898430D01*
X164602890Y-52898430D01*
X164578056Y-52683920D01*
X164481783Y-52451496D01*
X164260263Y-52337734D01*
X163437997Y-53160000D01*
X162762003Y-53160000D01*
X161939737Y-52337734D01*
X161718217Y-52451496D01*
X161552266Y-53034213D01*
X144615000Y-53034213D01*
X144615000Y-52858648D01*
X144384355Y-52301821D01*
X144082271Y-51999737D01*
X162277734Y-51999737D01*
X163100000Y-52822003D01*
X163922266Y-51999737D01*
X163808504Y-51778217D01*
X163225787Y-51612266D01*
X162623920Y-51681944D01*
X162391496Y-51778217D01*
X162277734Y-51999737D01*
X144082271Y-51999737D01*
X143958179Y-51875645D01*
X143401352Y-51645000D01*
X142798648Y-51645000D01*
X142241821Y-51875645D01*
X141815645Y-52301821D01*
X141585000Y-52858648D01*
X118015000Y-52858648D01*
X118015000Y-52599192D01*
X117708234Y-51858594D01*
X117141406Y-51291766D01*
X116400808Y-50985000D01*
X115599192Y-50985000D01*
X114858594Y-51291766D01*
X114291766Y-51858594D01*
X113985000Y-52599192D01*
X113640725Y-52599192D01*
X113658528Y-52446500D01*
X113848662Y-51922689D01*
X114154198Y-51456670D01*
X114558748Y-51073436D01*
X115040609Y-50793550D01*
X115581663Y-50629680D01*
X116026273Y-50590000D01*
X181965719Y-50590000D01*
X182553500Y-50658528D01*
X182553500Y-50658528D01*
G37*
X182553500Y-50658528D02*
X183077311Y-50848662D01*
X183543330Y-51154198D01*
X183926564Y-51558748D01*
X184206450Y-52040609D01*
X184370320Y-52581663D01*
X184410001Y-53026285D01*
X184410000Y-143965719D01*
X184341471Y-144553504D01*
X184151338Y-145077311D01*
X183845802Y-145543330D01*
X183441253Y-145926562D01*
X182959391Y-146206450D01*
X182418337Y-146370320D01*
X181973727Y-146410000D01*
X116034281Y-146410000D01*
X115446496Y-146341471D01*
X114922689Y-146151338D01*
X114456670Y-145845802D01*
X114073438Y-145441253D01*
X113793550Y-144959391D01*
X113629680Y-144418337D01*
X113590000Y-143973727D01*
X113590000Y-143599192D01*
X113985000Y-143599192D01*
X113985000Y-144400808D01*
X114291766Y-145141406D01*
X114858594Y-145708234D01*
X115599192Y-146015000D01*
X116400808Y-146015000D01*
X117141406Y-145708234D01*
X117708234Y-145141406D01*
X118015000Y-144400808D01*
X118015000Y-143599192D01*
X117708234Y-142858594D01*
X117141406Y-142291766D01*
X116482435Y-142018811D01*
X121295000Y-142018811D01*
X121295000Y-142681189D01*
X121548481Y-143293147D01*
X122016853Y-143761519D01*
X122628811Y-144015000D01*
X123291189Y-144015000D01*
X123903147Y-143761519D01*
X124088677Y-143575989D01*
X132013000Y-143575989D01*
X132013000Y-144084011D01*
X132207412Y-144553362D01*
X132566638Y-144912588D01*
X133035989Y-145107000D01*
X133544011Y-145107000D01*
X134013362Y-144912588D01*
X134372588Y-144553362D01*
X134560000Y-144100910D01*
X134747412Y-144553362D01*
X135106638Y-144912588D01*
X135575989Y-145107000D01*
X136084011Y-145107000D01*
X136553362Y-144912588D01*
X136912588Y-144553362D01*
X137100000Y-144100910D01*
X137287412Y-144553362D01*
X137646638Y-144912588D01*
X138115989Y-145107000D01*
X138624011Y-145107000D01*
X139093362Y-144912588D01*
X139452588Y-144553362D01*
X139647000Y-144084011D01*
X139647000Y-143575989D01*
X139452588Y-143106638D01*
X139093362Y-142747412D01*
X138624011Y-142553000D01*
X138115989Y-142553000D01*
X137646638Y-142747412D01*
X137287412Y-143106638D01*
X137100000Y-143559090D01*
X136912588Y-143106638D01*
X136553362Y-142747412D01*
X136084011Y-142553000D01*
X135575989Y-142553000D01*
X135106638Y-142747412D01*
X134747412Y-143106638D01*
X134560000Y-143559090D01*
X134372588Y-143106638D01*
X134013362Y-142747412D01*
X133544011Y-142553000D01*
X133035989Y-142553000D01*
X132566638Y-142747412D01*
X132207412Y-143106638D01*
X132013000Y-143575989D01*
X124088677Y-143575989D01*
X124371519Y-143293147D01*
X124625000Y-142681189D01*
X124625000Y-142018811D01*
X124392748Y-141458104D01*
X138585000Y-141458104D01*
X138585000Y-141861896D01*
X138739525Y-142234951D01*
X139025049Y-142520475D01*
X139398104Y-142675000D01*
X139801896Y-142675000D01*
X140174951Y-142520475D01*
X140460475Y-142234951D01*
X140554145Y-142008811D01*
X149505000Y-142008811D01*
X149505000Y-142671189D01*
X149758481Y-143283147D01*
X150226853Y-143751519D01*
X150838811Y-144005000D01*
X151501189Y-144005000D01*
X152113147Y-143751519D01*
X152265474Y-143599192D01*
X179985000Y-143599192D01*
X179985000Y-144400808D01*
X180291766Y-145141406D01*
X180858594Y-145708234D01*
X181599192Y-146015000D01*
X182400808Y-146015000D01*
X183141406Y-145708234D01*
X183708234Y-145141406D01*
X184015000Y-144400808D01*
X184015000Y-143599192D01*
X183708234Y-142858594D01*
X183141406Y-142291766D01*
X182400808Y-141985000D01*
X181599192Y-141985000D01*
X180858594Y-142291766D01*
X180291766Y-142858594D01*
X179985000Y-143599192D01*
X152265474Y-143599192D01*
X152581519Y-143283147D01*
X152835000Y-142671189D01*
X152835000Y-142008811D01*
X152581519Y-141396853D01*
X152113147Y-140928481D01*
X151501189Y-140675000D01*
X150838811Y-140675000D01*
X150226853Y-140928481D01*
X149758481Y-141396853D01*
X149505000Y-142008811D01*
X140554145Y-142008811D01*
X140615000Y-141861896D01*
X140615000Y-141458104D01*
X140515000Y-141216684D01*
X140515000Y-138259004D01*
X141203529Y-137570476D01*
X141313316Y-137525000D01*
X146426684Y-137525000D01*
X146668104Y-137625000D01*
X147071896Y-137625000D01*
X147444951Y-137470475D01*
X147730475Y-137184951D01*
X147885000Y-136811896D01*
X147885000Y-136408104D01*
X147730475Y-136035049D01*
X147444951Y-135749525D01*
X147071896Y-135595000D01*
X146668104Y-135595000D01*
X146426684Y-135695000D01*
X141313316Y-135695000D01*
X141071896Y-135595000D01*
X140668104Y-135595000D01*
X140295049Y-135749525D01*
X140009525Y-136035049D01*
X139909524Y-136276471D01*
X139016722Y-137169274D01*
X138940323Y-137220322D01*
X138791736Y-137442699D01*
X138738090Y-137522986D01*
X138667075Y-137880000D01*
X138685001Y-137970119D01*
X138685000Y-141216683D01*
X138585000Y-141458104D01*
X124392748Y-141458104D01*
X124371519Y-141406853D01*
X123903147Y-140938481D01*
X123291189Y-140685000D01*
X122628811Y-140685000D01*
X122016853Y-140938481D01*
X121548481Y-141406853D01*
X121295000Y-142018811D01*
X116482435Y-142018811D01*
X116400808Y-141985000D01*
X115599192Y-141985000D01*
X114858594Y-142291766D01*
X114291766Y-142858594D01*
X113985000Y-143599192D01*
X113590000Y-143599192D01*
X113590000Y-135610000D01*
X124904911Y-135610000D01*
X124904911Y-137310000D01*
X124944881Y-137510943D01*
X125058706Y-137681294D01*
X125229057Y-137795119D01*
X125430000Y-137835089D01*
X127130000Y-137835089D01*
X127330943Y-137795119D01*
X127501294Y-137681294D01*
X127615119Y-137510943D01*
X127655089Y-137310000D01*
X127655089Y-137173520D01*
X127835891Y-137444109D01*
X128287404Y-137745801D01*
X128685564Y-137825000D01*
X128954436Y-137825000D01*
X129352596Y-137745801D01*
X129804109Y-137444109D01*
X130105801Y-136992596D01*
X130211741Y-136460000D01*
X130105801Y-135927404D01*
X129804109Y-135475891D01*
X129352596Y-135174199D01*
X128954436Y-135095000D01*
X128685564Y-135095000D01*
X128287404Y-135174199D01*
X127835891Y-135475891D01*
X127655089Y-135746480D01*
X127655089Y-135610000D01*
X127615119Y-135409057D01*
X127501294Y-135238706D01*
X127330943Y-135124881D01*
X127130000Y-135084911D01*
X125430000Y-135084911D01*
X125229057Y-135124881D01*
X125058706Y-135238706D01*
X124944881Y-135409057D01*
X124904911Y-135610000D01*
X113590000Y-135610000D01*
X113590000Y-134719951D01*
X121965000Y-134719951D01*
X121966137Y-134725729D01*
X121969385Y-134730598D01*
X121974249Y-134733854D01*
X121979988Y-134735000D01*
X134369988Y-134745000D01*
X134375740Y-134743858D01*
X134380607Y-134740607D01*
X134383858Y-134735740D01*
X134385000Y-134730000D01*
X134385000Y-134685535D01*
X169235000Y-134685535D01*
X169235000Y-135049545D01*
X169374300Y-135385846D01*
X169631694Y-135643240D01*
X169967995Y-135782540D01*
X170332005Y-135782540D01*
X170668306Y-135643240D01*
X170671546Y-135640000D01*
X179145994Y-135640000D01*
X179206694Y-135700700D01*
X179542995Y-135840000D01*
X179907005Y-135840000D01*
X180243306Y-135700700D01*
X180500700Y-135443306D01*
X180640000Y-135107005D01*
X180640000Y-134742995D01*
X180500700Y-134406694D01*
X180243306Y-134149300D01*
X179907005Y-134010000D01*
X179542995Y-134010000D01*
X179206694Y-134149300D01*
X179145994Y-134210000D01*
X170786466Y-134210000D01*
X170668306Y-134091840D01*
X170332005Y-133952540D01*
X169967995Y-133952540D01*
X169631694Y-134091840D01*
X169374300Y-134349234D01*
X169235000Y-134685535D01*
X134385000Y-134685535D01*
X134385000Y-129928539D01*
X137675000Y-129928539D01*
X137675000Y-130491461D01*
X137890421Y-131011533D01*
X138288467Y-131409579D01*
X138808539Y-131625000D01*
X139371461Y-131625000D01*
X139891533Y-131409579D01*
X140289579Y-131011533D01*
X140360000Y-130841522D01*
X140430421Y-131011533D01*
X140828467Y-131409579D01*
X141348539Y-131625000D01*
X141911461Y-131625000D01*
X142431533Y-131409579D01*
X142829579Y-131011533D01*
X142900000Y-130841522D01*
X142970421Y-131011533D01*
X143368467Y-131409579D01*
X143888539Y-131625000D01*
X144451461Y-131625000D01*
X144971533Y-131409579D01*
X145369579Y-131011533D01*
X145585000Y-130491461D01*
X145585000Y-129928539D01*
X145369579Y-129408467D01*
X144971533Y-129010421D01*
X144451461Y-128795000D01*
X143888539Y-128795000D01*
X143368467Y-129010421D01*
X142970421Y-129408467D01*
X142900000Y-129578478D01*
X142829579Y-129408467D01*
X142431533Y-129010421D01*
X141911461Y-128795000D01*
X141348539Y-128795000D01*
X140828467Y-129010421D01*
X140430421Y-129408467D01*
X140360000Y-129578478D01*
X140289579Y-129408467D01*
X139891533Y-129010421D01*
X139371461Y-128795000D01*
X138808539Y-128795000D01*
X138288467Y-129010421D01*
X137890421Y-129408467D01*
X137675000Y-129928539D01*
X134385000Y-129928539D01*
X134385000Y-127216000D01*
X151498911Y-127216000D01*
X151498911Y-128516000D01*
X151538881Y-128716943D01*
X151652706Y-128887294D01*
X151823057Y-129001119D01*
X152024000Y-129041089D01*
X153324000Y-129041089D01*
X153524943Y-129001119D01*
X153695294Y-128887294D01*
X153809119Y-128716943D01*
X153849089Y-128516000D01*
X153849089Y-127216000D01*
X153809119Y-127015057D01*
X153695294Y-126844706D01*
X153524943Y-126730881D01*
X153324000Y-126690911D01*
X152024000Y-126690911D01*
X151823057Y-126730881D01*
X151652706Y-126844706D01*
X151538881Y-127015057D01*
X151498911Y-127216000D01*
X134385000Y-127216000D01*
X134385000Y-124908749D01*
X136935510Y-124908749D01*
X136935510Y-125511251D01*
X137166077Y-126067890D01*
X137592110Y-126493923D01*
X138148749Y-126724490D01*
X138751251Y-126724490D01*
X139307890Y-126493923D01*
X139733923Y-126067890D01*
X139964490Y-125511251D01*
X139964490Y-124908749D01*
X139733923Y-124352110D01*
X139592323Y-124210510D01*
X147085421Y-124210510D01*
X147085421Y-126209490D01*
X147125391Y-126410433D01*
X147239216Y-126580784D01*
X147409567Y-126694609D01*
X147610510Y-126734579D01*
X149609490Y-126734579D01*
X149810433Y-126694609D01*
X149980784Y-126580784D01*
X150094609Y-126410433D01*
X150134579Y-126209490D01*
X150134579Y-124210510D01*
X150094609Y-124009567D01*
X149980784Y-123839216D01*
X149810433Y-123725391D01*
X149609490Y-123685421D01*
X147610510Y-123685421D01*
X147409567Y-123725391D01*
X147239216Y-123839216D01*
X147125391Y-124009567D01*
X147085421Y-124210510D01*
X139592323Y-124210510D01*
X139307890Y-123926077D01*
X138751251Y-123695510D01*
X138148749Y-123695510D01*
X137592110Y-123926077D01*
X137166077Y-124352110D01*
X136935510Y-124908749D01*
X134385000Y-124908749D01*
X134385000Y-122370000D01*
X134383854Y-122364249D01*
X134380598Y-122359385D01*
X134375729Y-122356137D01*
X134369988Y-122355000D01*
X122019988Y-122365000D01*
X122014305Y-122366123D01*
X122009428Y-122369359D01*
X122006160Y-122374215D01*
X122005000Y-122379951D01*
X121965000Y-134719951D01*
X113590000Y-134719951D01*
X113590000Y-118800000D01*
X128528442Y-118800000D01*
X128574233Y-119030206D01*
X128704634Y-119225366D01*
X128899794Y-119355767D01*
X129071894Y-119390000D01*
X129473668Y-119390000D01*
X129584542Y-119392404D01*
X129645768Y-119368585D01*
X129710206Y-119355767D01*
X129754098Y-119326440D01*
X129803287Y-119307303D01*
X129850735Y-119261869D01*
X129905366Y-119225366D01*
X129967001Y-119133122D01*
X130030000Y-119043124D01*
X130092998Y-119133120D01*
X130154634Y-119225366D01*
X130209263Y-119261867D01*
X130256712Y-119307303D01*
X130305904Y-119326440D01*
X130349794Y-119355767D01*
X130414232Y-119368585D01*
X130432651Y-119375750D01*
X130440790Y-119385346D01*
X130467871Y-119435108D01*
X130489316Y-119452439D01*
X130504635Y-119475366D01*
X130533510Y-119494660D01*
X130555971Y-119521140D01*
X130606360Y-119547032D01*
X130650423Y-119582642D01*
X130676867Y-119590447D01*
X130699795Y-119605767D01*
X130733854Y-119612542D01*
X130764740Y-119628412D01*
X130821203Y-119633049D01*
X130875538Y-119649087D01*
X130902955Y-119646178D01*
X130930000Y-119651558D01*
X130964061Y-119644783D01*
X130998667Y-119647625D01*
X131052605Y-119630303D01*
X131108944Y-119624326D01*
X131133162Y-119611146D01*
X131160206Y-119605767D01*
X131168296Y-119600361D01*
X131174233Y-119630206D01*
X131304634Y-119825366D01*
X131499794Y-119955767D01*
X131671894Y-119990000D01*
X131730000Y-120001558D01*
X131788106Y-119990000D01*
X134471894Y-119990000D01*
X134530000Y-120001558D01*
X134760206Y-119955767D01*
X134955366Y-119825366D01*
X135085767Y-119630206D01*
X135120000Y-119458106D01*
X135131558Y-119400000D01*
X135120000Y-119341894D01*
X135120000Y-118858105D01*
X135131558Y-118800000D01*
X135085767Y-118569794D01*
X134955366Y-118374634D01*
X134760206Y-118244233D01*
X134588106Y-118210000D01*
X134531300Y-118198700D01*
X134520000Y-118141894D01*
X134520000Y-117658106D01*
X134531558Y-117600000D01*
X134485767Y-117369794D01*
X134355366Y-117174634D01*
X134160206Y-117044233D01*
X133988106Y-117010000D01*
X133930000Y-116998442D01*
X133871894Y-117010000D01*
X132643622Y-117010000D01*
X132120000Y-116800551D01*
X132120000Y-116599449D01*
X132698540Y-116368033D01*
X132760205Y-116355767D01*
X132854819Y-116292549D01*
X132950147Y-116230520D01*
X132952258Y-116227443D01*
X132955366Y-116225366D01*
X133018583Y-116130754D01*
X133082919Y-116036966D01*
X133083693Y-116033311D01*
X133085767Y-116030206D01*
X133107960Y-115918633D01*
X133131513Y-115807335D01*
X133120000Y-115745526D01*
X133120000Y-115261740D01*
X133131513Y-115207335D01*
X133120000Y-115145526D01*
X133120000Y-115141894D01*
X133109357Y-115088390D01*
X133088532Y-114976587D01*
X133086496Y-114973458D01*
X133085767Y-114969794D01*
X133022533Y-114875158D01*
X132960520Y-114779853D01*
X132957443Y-114777742D01*
X132955366Y-114774634D01*
X132860734Y-114711403D01*
X132766965Y-114647081D01*
X132763311Y-114646308D01*
X132760206Y-114644233D01*
X132648619Y-114622037D01*
X132537334Y-114598487D01*
X132533663Y-114599171D01*
X132530000Y-114598442D01*
X132418425Y-114620636D01*
X132364829Y-114630619D01*
X132361458Y-114631967D01*
X132299795Y-114644233D01*
X132253558Y-114675127D01*
X129361461Y-115831967D01*
X129299794Y-115844233D01*
X129205161Y-115907464D01*
X129109853Y-115969480D01*
X129107742Y-115972557D01*
X129104634Y-115974634D01*
X129041416Y-116069247D01*
X128977081Y-116163035D01*
X128976307Y-116166690D01*
X128974233Y-116169795D01*
X128952040Y-116281368D01*
X128928487Y-116392666D01*
X128940000Y-116454474D01*
X128940000Y-116945526D01*
X128928487Y-117007334D01*
X128952036Y-117118616D01*
X128974233Y-117230206D01*
X128976308Y-117233311D01*
X128977081Y-117236965D01*
X129041423Y-117330763D01*
X129104635Y-117425366D01*
X129107741Y-117427442D01*
X129109853Y-117430520D01*
X129205200Y-117492561D01*
X129299795Y-117555767D01*
X129361460Y-117568033D01*
X129440000Y-117599449D01*
X129440000Y-117686235D01*
X129399794Y-117694233D01*
X129204634Y-117824634D01*
X129074233Y-118019794D01*
X129034936Y-118217351D01*
X128899794Y-118244233D01*
X128704634Y-118374634D01*
X128574233Y-118569794D01*
X128528442Y-118800000D01*
X113590000Y-118800000D01*
X113590000Y-107367995D01*
X140775000Y-107367995D01*
X140775000Y-107732005D01*
X140875001Y-107973429D01*
X140875000Y-110529734D01*
X140859034Y-110610000D01*
X140875000Y-110690265D01*
X140922288Y-110927996D01*
X141102418Y-111197582D01*
X141170469Y-111243052D01*
X143945000Y-114017584D01*
X143945000Y-114561461D01*
X144160421Y-115081533D01*
X144558467Y-115479579D01*
X145078539Y-115695000D01*
X145641461Y-115695000D01*
X146161533Y-115479579D01*
X146559579Y-115081533D01*
X146775000Y-114561461D01*
X146775000Y-113998539D01*
X146559579Y-113478467D01*
X146161533Y-113080421D01*
X146016395Y-113020303D01*
X146109047Y-112827044D01*
X145360000Y-112077997D01*
X145345858Y-112092140D01*
X145007861Y-111754143D01*
X145022003Y-111740000D01*
X145697997Y-111740000D01*
X146447044Y-112489047D01*
X146658230Y-112387800D01*
X146807310Y-111841678D01*
X146736051Y-111280077D01*
X146658230Y-111092200D01*
X146447044Y-110990953D01*
X145697997Y-111740000D01*
X145022003Y-111740000D01*
X144272956Y-110990953D01*
X144061770Y-111092200D01*
X143912690Y-111638322D01*
X143918762Y-111686179D01*
X142505000Y-110272417D01*
X142505000Y-107973427D01*
X142605000Y-107732005D01*
X142605000Y-107367995D01*
X142465700Y-107031694D01*
X142208306Y-106774300D01*
X141872005Y-106635000D01*
X141507995Y-106635000D01*
X141171694Y-106774300D01*
X140914300Y-107031694D01*
X140775000Y-107367995D01*
X113590000Y-107367995D01*
X113590000Y-104729300D01*
X121855000Y-104729300D01*
X121855000Y-105570700D01*
X122176990Y-106348051D01*
X122771949Y-106943010D01*
X123549300Y-107265000D01*
X124390700Y-107265000D01*
X125168051Y-106943010D01*
X125763010Y-106348051D01*
X126085000Y-105570700D01*
X126085000Y-104729300D01*
X125763010Y-103951949D01*
X125168051Y-103356990D01*
X124390700Y-103035000D01*
X123549300Y-103035000D01*
X122771949Y-103356990D01*
X122176990Y-103951949D01*
X121855000Y-104729300D01*
X113590000Y-104729300D01*
X113590000Y-81920790D01*
X119065000Y-81920790D01*
X119065001Y-100219211D01*
X119152903Y-100661123D01*
X119487747Y-101162254D01*
X119988878Y-101497098D01*
X120580000Y-101614680D01*
X121171123Y-101497098D01*
X121672254Y-101162254D01*
X122007098Y-100661123D01*
X122095000Y-100219211D01*
X122095000Y-96327995D01*
X137865000Y-96327995D01*
X137865000Y-96692005D01*
X138004300Y-97028306D01*
X138261694Y-97285700D01*
X138597995Y-97425000D01*
X138962005Y-97425000D01*
X139298306Y-97285700D01*
X139369006Y-97215000D01*
X144124578Y-97215000D01*
X144160421Y-97301533D01*
X144558467Y-97699579D01*
X144728478Y-97770000D01*
X144558467Y-97840421D01*
X144160421Y-98238467D01*
X143945000Y-98758539D01*
X143945000Y-99321461D01*
X144160421Y-99841533D01*
X144558467Y-100239579D01*
X144728478Y-100310000D01*
X144558467Y-100380421D01*
X144160421Y-100778467D01*
X143945000Y-101298539D01*
X143945000Y-101861461D01*
X144160421Y-102381533D01*
X144558467Y-102779579D01*
X144728478Y-102850000D01*
X144558467Y-102920421D01*
X144160421Y-103318467D01*
X143945000Y-103838539D01*
X143945000Y-104401461D01*
X144160421Y-104921533D01*
X144558467Y-105319579D01*
X144728478Y-105390000D01*
X144558467Y-105460421D01*
X144160421Y-105858467D01*
X143945000Y-106378539D01*
X143945000Y-106941461D01*
X144160421Y-107461533D01*
X144558467Y-107859579D01*
X144728478Y-107930000D01*
X144558467Y-108000421D01*
X144160421Y-108398467D01*
X143945000Y-108918539D01*
X143945000Y-109481461D01*
X144160421Y-110001533D01*
X144558467Y-110399579D01*
X144703605Y-110459697D01*
X144610953Y-110652956D01*
X145360000Y-111402003D01*
X146109047Y-110652956D01*
X146016395Y-110459697D01*
X146161533Y-110399579D01*
X146559579Y-110001533D01*
X146775000Y-109481461D01*
X146775000Y-108918539D01*
X146559579Y-108398467D01*
X146161533Y-108000421D01*
X145991522Y-107930000D01*
X146161533Y-107859579D01*
X146559579Y-107461533D01*
X146775000Y-106941461D01*
X146775000Y-106378539D01*
X146559579Y-105858467D01*
X146161533Y-105460421D01*
X145991522Y-105390000D01*
X146161533Y-105319579D01*
X146559579Y-104921533D01*
X146639204Y-104729300D01*
X150355000Y-104729300D01*
X150355000Y-105570700D01*
X150676990Y-106348051D01*
X151271949Y-106943010D01*
X152049300Y-107265000D01*
X152890700Y-107265000D01*
X153668051Y-106943010D01*
X154263010Y-106348051D01*
X154585000Y-105570700D01*
X154585000Y-104729300D01*
X154263010Y-103951949D01*
X153668051Y-103356990D01*
X152890700Y-103035000D01*
X152049300Y-103035000D01*
X151271949Y-103356990D01*
X150676990Y-103951949D01*
X150355000Y-104729300D01*
X146639204Y-104729300D01*
X146775000Y-104401461D01*
X146775000Y-103838539D01*
X146559579Y-103318467D01*
X146161533Y-102920421D01*
X145991522Y-102850000D01*
X146161533Y-102779579D01*
X146559579Y-102381533D01*
X146775000Y-101861461D01*
X146775000Y-101298539D01*
X146559579Y-100778467D01*
X146161533Y-100380421D01*
X145991522Y-100310000D01*
X146161533Y-100239579D01*
X146559579Y-99841533D01*
X146775000Y-99321461D01*
X146775000Y-98758539D01*
X146559579Y-98238467D01*
X146161533Y-97840421D01*
X145991522Y-97770000D01*
X146161533Y-97699579D01*
X146559579Y-97301533D01*
X146775000Y-96781461D01*
X146775000Y-96218539D01*
X146559579Y-95698467D01*
X146161533Y-95300421D01*
X145991522Y-95230000D01*
X146161533Y-95159579D01*
X146559579Y-94761533D01*
X146775000Y-94241461D01*
X146775000Y-93678539D01*
X146559579Y-93158467D01*
X146161533Y-92760421D01*
X145991522Y-92690000D01*
X146161533Y-92619579D01*
X146559579Y-92221533D01*
X146775000Y-91701461D01*
X146775000Y-91138539D01*
X146559579Y-90618467D01*
X146161533Y-90220421D01*
X145991522Y-90150000D01*
X146161533Y-90079579D01*
X146559579Y-89681533D01*
X146775000Y-89161461D01*
X146775000Y-88598539D01*
X146559579Y-88078467D01*
X146161533Y-87680421D01*
X145991522Y-87610000D01*
X146161533Y-87539579D01*
X146559579Y-87141533D01*
X146775000Y-86621461D01*
X146775000Y-86058539D01*
X146559579Y-85538467D01*
X146161533Y-85140421D01*
X145991522Y-85070000D01*
X146161533Y-84999579D01*
X146559579Y-84601533D01*
X146775000Y-84081461D01*
X146775000Y-83518539D01*
X146559579Y-82998467D01*
X146161533Y-82600421D01*
X145991522Y-82530000D01*
X146161533Y-82459579D01*
X146559579Y-82061533D01*
X146775000Y-81541461D01*
X146775000Y-80978539D01*
X146559579Y-80458467D01*
X146161533Y-80060421D01*
X145991522Y-79990000D01*
X146161533Y-79919579D01*
X146559579Y-79521533D01*
X146775000Y-79001461D01*
X146775000Y-78438539D01*
X146559579Y-77918467D01*
X146161533Y-77520421D01*
X145991522Y-77450000D01*
X146161533Y-77379579D01*
X146559579Y-76981533D01*
X146775000Y-76461461D01*
X146775000Y-75898539D01*
X146559579Y-75378467D01*
X146161533Y-74980421D01*
X145991522Y-74910000D01*
X146161533Y-74839579D01*
X146559579Y-74441533D01*
X146775000Y-73921461D01*
X146775000Y-73358539D01*
X146559579Y-72838467D01*
X146161533Y-72440421D01*
X145991522Y-72370000D01*
X146161533Y-72299579D01*
X146559579Y-71901533D01*
X146775000Y-71381461D01*
X146775000Y-70818539D01*
X146559579Y-70298467D01*
X146161533Y-69900421D01*
X145991522Y-69830000D01*
X146161533Y-69759579D01*
X146559579Y-69361533D01*
X146775000Y-68841461D01*
X146775000Y-68278539D01*
X146559579Y-67758467D01*
X146161533Y-67360421D01*
X145991522Y-67290000D01*
X146161533Y-67219579D01*
X146559579Y-66821533D01*
X146775000Y-66301461D01*
X146775000Y-65738539D01*
X146559579Y-65218467D01*
X146161533Y-64820421D01*
X145641461Y-64605000D01*
X145078539Y-64605000D01*
X144558467Y-64820421D01*
X144160421Y-65218467D01*
X143945000Y-65738539D01*
X143945000Y-66301461D01*
X144160421Y-66821533D01*
X144558467Y-67219579D01*
X144728478Y-67290000D01*
X144558467Y-67360421D01*
X144160421Y-67758467D01*
X143945000Y-68278539D01*
X143945000Y-68841461D01*
X144160421Y-69361533D01*
X144558467Y-69759579D01*
X144728478Y-69830000D01*
X144558467Y-69900421D01*
X144160421Y-70298467D01*
X143945000Y-70818539D01*
X143945000Y-71381461D01*
X144160421Y-71901533D01*
X144558467Y-72299579D01*
X144728478Y-72370000D01*
X144558467Y-72440421D01*
X144160421Y-72838467D01*
X143945000Y-73358539D01*
X143945000Y-73921461D01*
X144160421Y-74441533D01*
X144558467Y-74839579D01*
X144728478Y-74910000D01*
X144558467Y-74980421D01*
X144160421Y-75378467D01*
X143945000Y-75898539D01*
X143945000Y-76461461D01*
X144160421Y-76981533D01*
X144558467Y-77379579D01*
X144728478Y-77450000D01*
X144558467Y-77520421D01*
X144160421Y-77918467D01*
X143945000Y-78438539D01*
X143945000Y-79001461D01*
X144160421Y-79521533D01*
X144558467Y-79919579D01*
X144728478Y-79990000D01*
X144558467Y-80060421D01*
X144160421Y-80458467D01*
X143945000Y-80978539D01*
X143945000Y-81541461D01*
X144160421Y-82061533D01*
X144558467Y-82459579D01*
X144728478Y-82530000D01*
X144558467Y-82600421D01*
X144160421Y-82998467D01*
X143945000Y-83518539D01*
X143945000Y-84081461D01*
X144160421Y-84601533D01*
X144558467Y-84999579D01*
X144728478Y-85070000D01*
X144558467Y-85140421D01*
X144160421Y-85538467D01*
X143945000Y-86058539D01*
X143945000Y-86621461D01*
X144160421Y-87141533D01*
X144558467Y-87539579D01*
X144728478Y-87610000D01*
X144558467Y-87680421D01*
X144160421Y-88078467D01*
X143945000Y-88598539D01*
X143945000Y-89161461D01*
X144160421Y-89681533D01*
X144558467Y-90079579D01*
X144728478Y-90150000D01*
X144558467Y-90220421D01*
X144160421Y-90618467D01*
X143945000Y-91138539D01*
X143945000Y-91701461D01*
X144160421Y-92221533D01*
X144558467Y-92619579D01*
X144728478Y-92690000D01*
X144558467Y-92760421D01*
X144160421Y-93158467D01*
X143945000Y-93678539D01*
X143945000Y-94241461D01*
X144160421Y-94761533D01*
X144558467Y-95159579D01*
X144728478Y-95230000D01*
X144558467Y-95300421D01*
X144160421Y-95698467D01*
X144124578Y-95785000D01*
X139349006Y-95785000D01*
X139298306Y-95734300D01*
X138962005Y-95595000D01*
X138597995Y-95595000D01*
X138261694Y-95734300D01*
X138004300Y-95991694D01*
X137865000Y-96327995D01*
X122095000Y-96327995D01*
X122095000Y-89147995D01*
X127785000Y-89147995D01*
X127785000Y-89512005D01*
X127924300Y-89848306D01*
X128181694Y-90105700D01*
X128517995Y-90245000D01*
X128882005Y-90245000D01*
X129218306Y-90105700D01*
X129279006Y-90045000D01*
X135070994Y-90045000D01*
X135121694Y-90095700D01*
X135457995Y-90235000D01*
X135822005Y-90235000D01*
X136158306Y-90095700D01*
X136415700Y-89838306D01*
X136555000Y-89502005D01*
X136555000Y-89137995D01*
X136415700Y-88801694D01*
X136158306Y-88544300D01*
X135822005Y-88405000D01*
X135457995Y-88405000D01*
X135121694Y-88544300D01*
X135050994Y-88615000D01*
X129279006Y-88615000D01*
X129218306Y-88554300D01*
X128882005Y-88415000D01*
X128517995Y-88415000D01*
X128181694Y-88554300D01*
X127924300Y-88811694D01*
X127785000Y-89147995D01*
X122095000Y-89147995D01*
X122095000Y-81920789D01*
X122007098Y-81478877D01*
X121672254Y-80977746D01*
X121171122Y-80642902D01*
X120580000Y-80525320D01*
X119988877Y-80642902D01*
X119487746Y-80977746D01*
X119152902Y-81478878D01*
X119065000Y-81920790D01*
X113590000Y-81920790D01*
X113590000Y-74729300D01*
X121855000Y-74729300D01*
X121855000Y-75570700D01*
X122176990Y-76348051D01*
X122771949Y-76943010D01*
X123549300Y-77265000D01*
X124390700Y-77265000D01*
X125168051Y-76943010D01*
X125763010Y-76348051D01*
X126085000Y-75570700D01*
X126085000Y-74729300D01*
X125763010Y-73951949D01*
X125168051Y-73356990D01*
X124390700Y-73035000D01*
X123549300Y-73035000D01*
X122771949Y-73356990D01*
X122176990Y-73951949D01*
X121855000Y-74729300D01*
X113590000Y-74729300D01*
X113590000Y-67917230D01*
X131394820Y-67917230D01*
X131394820Y-68426211D01*
X131474442Y-68618436D01*
X131621564Y-68765558D01*
X131813789Y-68845180D01*
X131936930Y-68845180D01*
X132067680Y-68714430D01*
X132067680Y-67786480D01*
X131525570Y-67786480D01*
X131394820Y-67917230D01*
X113590000Y-67917230D01*
X113590000Y-65660000D01*
X120014911Y-65660000D01*
X120014911Y-67360000D01*
X120054881Y-67560943D01*
X120168706Y-67731294D01*
X120339057Y-67845119D01*
X120540000Y-67885089D01*
X122240000Y-67885089D01*
X122440943Y-67845119D01*
X122611294Y-67731294D01*
X122725119Y-67560943D01*
X122765089Y-67360000D01*
X122765089Y-65660000D01*
X122725119Y-65459057D01*
X122611294Y-65288706D01*
X122595264Y-65277995D01*
X131295000Y-65277995D01*
X131295000Y-65642005D01*
X131434300Y-65978306D01*
X131691694Y-66235700D01*
X131769738Y-66268027D01*
X131621564Y-66329402D01*
X131474442Y-66476524D01*
X131394820Y-66668749D01*
X131394820Y-67177730D01*
X131525570Y-67308480D01*
X132067680Y-67308480D01*
X132067680Y-67288480D01*
X132367400Y-67288480D01*
X132367400Y-67308480D01*
X132476540Y-67308480D01*
X132476540Y-67786480D01*
X132367400Y-67786480D01*
X132367400Y-68714430D01*
X132498150Y-68845180D01*
X132621291Y-68845180D01*
X132813516Y-68765558D01*
X132857933Y-68721141D01*
X132986877Y-68807299D01*
X133187820Y-68847269D01*
X133442608Y-68847269D01*
X133476800Y-68881461D01*
X133359057Y-68904881D01*
X133188706Y-69018706D01*
X133074881Y-69189057D01*
X133034911Y-69390000D01*
X133034911Y-69890000D01*
X133074881Y-70090943D01*
X133107660Y-70140000D01*
X133074881Y-70189057D01*
X133034911Y-70390000D01*
X133034911Y-70620303D01*
X133030993Y-70640000D01*
X133034911Y-70659697D01*
X133034911Y-70890000D01*
X133074881Y-71090943D01*
X133188706Y-71261294D01*
X133359057Y-71375119D01*
X133560000Y-71415089D01*
X133727937Y-71415089D01*
X133720993Y-71450000D01*
X133735001Y-71520422D01*
X133735001Y-71850993D01*
X133674300Y-71911694D01*
X133535000Y-72247995D01*
X133535000Y-72612005D01*
X133674300Y-72948306D01*
X133931694Y-73205700D01*
X134267995Y-73345000D01*
X134632005Y-73345000D01*
X134968306Y-73205700D01*
X135225700Y-72948306D01*
X135365000Y-72612005D01*
X135365000Y-72247995D01*
X135225700Y-71911694D01*
X135165000Y-71850994D01*
X135165000Y-71746162D01*
X135505031Y-71406132D01*
X135660943Y-71375119D01*
X135691053Y-71355000D01*
X135789583Y-71355000D01*
X135860000Y-71369007D01*
X135930417Y-71355000D01*
X135930418Y-71355000D01*
X136138979Y-71313515D01*
X136375486Y-71155486D01*
X136415377Y-71095785D01*
X137386163Y-70125000D01*
X137472005Y-70125000D01*
X137808306Y-69985700D01*
X138065700Y-69728306D01*
X138205000Y-69392005D01*
X138205000Y-69027995D01*
X138065700Y-68691694D01*
X138005000Y-68630994D01*
X138005000Y-66020000D01*
X139468259Y-66020000D01*
X139574199Y-66552596D01*
X139875891Y-67004109D01*
X140303756Y-67290000D01*
X139875891Y-67575891D01*
X139574199Y-68027404D01*
X139468259Y-68560000D01*
X139574199Y-69092596D01*
X139875891Y-69544109D01*
X140303756Y-69830000D01*
X139875891Y-70115891D01*
X139574199Y-70567404D01*
X139468259Y-71100000D01*
X139574199Y-71632596D01*
X139875891Y-72084109D01*
X140303756Y-72370000D01*
X139875891Y-72655891D01*
X139574199Y-73107404D01*
X139468259Y-73640000D01*
X139574199Y-74172596D01*
X139875891Y-74624109D01*
X140146480Y-74804911D01*
X140010000Y-74804911D01*
X139809057Y-74844881D01*
X139638706Y-74958706D01*
X139524881Y-75129057D01*
X139484911Y-75330000D01*
X139484911Y-77030000D01*
X139524881Y-77230943D01*
X139638706Y-77401294D01*
X139809057Y-77515119D01*
X140010000Y-77555089D01*
X141710000Y-77555089D01*
X141910943Y-77515119D01*
X142081294Y-77401294D01*
X142195119Y-77230943D01*
X142235089Y-77030000D01*
X142235089Y-75330000D01*
X142195119Y-75129057D01*
X142081294Y-74958706D01*
X141910943Y-74844881D01*
X141710000Y-74804911D01*
X141573520Y-74804911D01*
X141844109Y-74624109D01*
X142145801Y-74172596D01*
X142251741Y-73640000D01*
X142145801Y-73107404D01*
X141844109Y-72655891D01*
X141416244Y-72370000D01*
X141844109Y-72084109D01*
X142145801Y-71632596D01*
X142251741Y-71100000D01*
X142145801Y-70567404D01*
X141844109Y-70115891D01*
X141416244Y-69830000D01*
X141844109Y-69544109D01*
X142145801Y-69092596D01*
X142251741Y-68560000D01*
X142145801Y-68027404D01*
X141844109Y-67575891D01*
X141416244Y-67290000D01*
X141844109Y-67004109D01*
X142145801Y-66552596D01*
X142251741Y-66020000D01*
X142145801Y-65487404D01*
X141844109Y-65035891D01*
X141392596Y-64734199D01*
X140994436Y-64655000D01*
X140725564Y-64655000D01*
X140327404Y-64734199D01*
X139875891Y-65035891D01*
X139574199Y-65487404D01*
X139468259Y-66020000D01*
X138005000Y-66020000D01*
X138005000Y-65173766D01*
X138065700Y-65113066D01*
X138100865Y-65028169D01*
X138151910Y-64951775D01*
X138169835Y-64861662D01*
X138205000Y-64776765D01*
X138205000Y-63049004D01*
X139399006Y-61855000D01*
X139829714Y-61855000D01*
X139875891Y-61924109D01*
X140327404Y-62225801D01*
X140725564Y-62305000D01*
X140994436Y-62305000D01*
X141392596Y-62225801D01*
X141844109Y-61924109D01*
X141890286Y-61855000D01*
X145400996Y-61855000D01*
X147795001Y-64249006D01*
X147795000Y-89200037D01*
X147775116Y-89300000D01*
X147795000Y-89399963D01*
X147795000Y-89399967D01*
X147853891Y-89696032D01*
X148078226Y-90031774D01*
X148162976Y-90088402D01*
X152055000Y-93980427D01*
X152055000Y-94241461D01*
X152270421Y-94761533D01*
X152668467Y-95159579D01*
X153188539Y-95375000D01*
X153751461Y-95375000D01*
X154271533Y-95159579D01*
X154669579Y-94761533D01*
X154885000Y-94241461D01*
X154885000Y-93678539D01*
X154669579Y-93158467D01*
X154271533Y-92760421D01*
X153751461Y-92545000D01*
X153490427Y-92545000D01*
X149825000Y-88879574D01*
X149825000Y-86058539D01*
X152055000Y-86058539D01*
X152055000Y-86621461D01*
X152270421Y-87141533D01*
X152668467Y-87539579D01*
X152838478Y-87610000D01*
X152668467Y-87680421D01*
X152270421Y-88078467D01*
X152055000Y-88598539D01*
X152055000Y-89161461D01*
X152270421Y-89681533D01*
X152668467Y-90079579D01*
X153188539Y-90295000D01*
X153751461Y-90295000D01*
X154271533Y-90079579D01*
X154669579Y-89681533D01*
X154885000Y-89161461D01*
X154885000Y-88598539D01*
X154669579Y-88078467D01*
X154271533Y-87680421D01*
X154101522Y-87610000D01*
X154271533Y-87539579D01*
X154669579Y-87141533D01*
X154885000Y-86621461D01*
X154885000Y-86058539D01*
X154669579Y-85538467D01*
X154271533Y-85140421D01*
X153751461Y-84925000D01*
X153188539Y-84925000D01*
X152668467Y-85140421D01*
X152270421Y-85538467D01*
X152055000Y-86058539D01*
X149825000Y-86058539D01*
X149825000Y-74729300D01*
X150355000Y-74729300D01*
X150355000Y-75570700D01*
X150676990Y-76348051D01*
X151271949Y-76943010D01*
X152049300Y-77265000D01*
X152890700Y-77265000D01*
X153668051Y-76943010D01*
X154263010Y-76348051D01*
X154585000Y-75570700D01*
X154585000Y-74729300D01*
X154263010Y-73951949D01*
X153668051Y-73356990D01*
X152890700Y-73035000D01*
X152049300Y-73035000D01*
X151271949Y-73356990D01*
X150676990Y-73951949D01*
X150355000Y-74729300D01*
X149825000Y-74729300D01*
X149825000Y-70818539D01*
X159185000Y-70818539D01*
X159185000Y-71381461D01*
X159400421Y-71901533D01*
X159798467Y-72299579D01*
X159968478Y-72370000D01*
X159798467Y-72440421D01*
X159400421Y-72838467D01*
X159185000Y-73358539D01*
X159185000Y-73921461D01*
X159400421Y-74441533D01*
X159798467Y-74839579D01*
X159968478Y-74910000D01*
X159798467Y-74980421D01*
X159400421Y-75378467D01*
X159185000Y-75898539D01*
X159185000Y-76461461D01*
X159400421Y-76981533D01*
X159798467Y-77379579D01*
X159968478Y-77450000D01*
X159798467Y-77520421D01*
X159400421Y-77918467D01*
X159185000Y-78438539D01*
X159185000Y-79001461D01*
X159400421Y-79521533D01*
X159798467Y-79919579D01*
X159968478Y-79990000D01*
X159798467Y-80060421D01*
X159400421Y-80458467D01*
X159185000Y-80978539D01*
X159185000Y-81541461D01*
X159400421Y-82061533D01*
X159798467Y-82459579D01*
X159968478Y-82530000D01*
X159798467Y-82600421D01*
X159400421Y-82998467D01*
X159185000Y-83518539D01*
X159185000Y-84081461D01*
X159400421Y-84601533D01*
X159798467Y-84999579D01*
X159968478Y-85070000D01*
X159798467Y-85140421D01*
X159400421Y-85538467D01*
X159185000Y-86058539D01*
X159185000Y-86621461D01*
X159400421Y-87141533D01*
X159798467Y-87539579D01*
X159968478Y-87610000D01*
X159798467Y-87680421D01*
X159400421Y-88078467D01*
X159185000Y-88598539D01*
X159185000Y-89161461D01*
X159400421Y-89681533D01*
X159798467Y-90079579D01*
X159968478Y-90150000D01*
X159798467Y-90220421D01*
X159400421Y-90618467D01*
X159185000Y-91138539D01*
X159185000Y-91701461D01*
X159400421Y-92221533D01*
X159798467Y-92619579D01*
X159968478Y-92690000D01*
X159798467Y-92760421D01*
X159400421Y-93158467D01*
X159185000Y-93678539D01*
X159185000Y-94241461D01*
X159400421Y-94761533D01*
X159798467Y-95159579D01*
X159968478Y-95230000D01*
X159798467Y-95300421D01*
X159400421Y-95698467D01*
X159185000Y-96218539D01*
X159185000Y-96781461D01*
X159400421Y-97301533D01*
X159798467Y-97699579D01*
X159968478Y-97770000D01*
X159798467Y-97840421D01*
X159400421Y-98238467D01*
X159185000Y-98758539D01*
X159185000Y-99321461D01*
X159400421Y-99841533D01*
X159798467Y-100239579D01*
X159968478Y-100310000D01*
X159798467Y-100380421D01*
X159400421Y-100778467D01*
X159185000Y-101298539D01*
X159185000Y-101861461D01*
X159400421Y-102381533D01*
X159798467Y-102779579D01*
X159968478Y-102850000D01*
X159798467Y-102920421D01*
X159400421Y-103318467D01*
X159185000Y-103838539D01*
X159185000Y-104401461D01*
X159400421Y-104921533D01*
X159798467Y-105319579D01*
X159968478Y-105390000D01*
X159798467Y-105460421D01*
X159400421Y-105858467D01*
X159185000Y-106378539D01*
X159185000Y-106941461D01*
X159400421Y-107461533D01*
X159798467Y-107859579D01*
X159968478Y-107930000D01*
X159798467Y-108000421D01*
X159400421Y-108398467D01*
X159185000Y-108918539D01*
X159185000Y-109481461D01*
X159400421Y-110001533D01*
X159798467Y-110399579D01*
X159968478Y-110470000D01*
X159798467Y-110540421D01*
X159400421Y-110938467D01*
X159185000Y-111458539D01*
X159185000Y-112021461D01*
X159400421Y-112541533D01*
X159798467Y-112939579D01*
X159968478Y-113010000D01*
X159798467Y-113080421D01*
X159400421Y-113478467D01*
X159185000Y-113998539D01*
X159185000Y-114561461D01*
X159400421Y-115081533D01*
X159798467Y-115479579D01*
X160318539Y-115695000D01*
X160881461Y-115695000D01*
X161401533Y-115479579D01*
X161799579Y-115081533D01*
X161811271Y-115053306D01*
X172384100Y-115053306D01*
X172384100Y-115596694D01*
X172592046Y-116098720D01*
X172976280Y-116482954D01*
X173478306Y-116690900D01*
X174021694Y-116690900D01*
X174523720Y-116482954D01*
X174907954Y-116098720D01*
X175115900Y-115596694D01*
X175115900Y-115053306D01*
X174907954Y-114551280D01*
X174523720Y-114167046D01*
X174021694Y-113959100D01*
X173478306Y-113959100D01*
X172976280Y-114167046D01*
X172592046Y-114551280D01*
X172384100Y-115053306D01*
X161811271Y-115053306D01*
X162015000Y-114561461D01*
X162015000Y-113998539D01*
X161799579Y-113478467D01*
X161401533Y-113080421D01*
X161231522Y-113010000D01*
X161401533Y-112939579D01*
X161799579Y-112541533D01*
X161835338Y-112455203D01*
X167012000Y-112455203D01*
X167012000Y-113114797D01*
X167264416Y-113724181D01*
X167730819Y-114190584D01*
X168340203Y-114443000D01*
X168999797Y-114443000D01*
X169609181Y-114190584D01*
X170075584Y-113724181D01*
X170328000Y-113114797D01*
X170328000Y-112455203D01*
X170075584Y-111845819D01*
X169609181Y-111379416D01*
X168999797Y-111127000D01*
X168340203Y-111127000D01*
X167730819Y-111379416D01*
X167264416Y-111845819D01*
X167012000Y-112455203D01*
X161835338Y-112455203D01*
X162015000Y-112021461D01*
X162015000Y-111458539D01*
X161799579Y-110938467D01*
X161401533Y-110540421D01*
X161231522Y-110470000D01*
X161401533Y-110399579D01*
X161799579Y-110001533D01*
X161905445Y-109745949D01*
X171241100Y-109745949D01*
X171241100Y-110744051D01*
X171623057Y-111666178D01*
X172328822Y-112371943D01*
X173250949Y-112753900D01*
X174249051Y-112753900D01*
X175171178Y-112371943D01*
X175876943Y-111666178D01*
X176258900Y-110744051D01*
X176258900Y-109745949D01*
X175876943Y-108823822D01*
X175171178Y-108118057D01*
X174249051Y-107736100D01*
X173250949Y-107736100D01*
X172328822Y-108118057D01*
X171623057Y-108823822D01*
X171241100Y-109745949D01*
X161905445Y-109745949D01*
X162015000Y-109481461D01*
X162015000Y-108918539D01*
X161799579Y-108398467D01*
X161401533Y-108000421D01*
X161231522Y-107930000D01*
X161401533Y-107859579D01*
X161561405Y-107699707D01*
X170283290Y-107699707D01*
X170414853Y-107936038D01*
X171049801Y-108126068D01*
X171709140Y-108058649D01*
X172005147Y-107936038D01*
X172136710Y-107699707D01*
X171210000Y-106772997D01*
X170283290Y-107699707D01*
X161561405Y-107699707D01*
X161799579Y-107461533D01*
X162015000Y-106941461D01*
X162015000Y-106378539D01*
X161972031Y-106274801D01*
X169518932Y-106274801D01*
X169586351Y-106934140D01*
X169708962Y-107230147D01*
X169945293Y-107361710D01*
X170872003Y-106435000D01*
X169945293Y-105508290D01*
X169708962Y-105639853D01*
X169518932Y-106274801D01*
X161972031Y-106274801D01*
X161799579Y-105858467D01*
X161401533Y-105460421D01*
X161231522Y-105390000D01*
X161401533Y-105319579D01*
X161550819Y-105170293D01*
X170283290Y-105170293D01*
X171210000Y-106097003D01*
X171224143Y-106082861D01*
X171562140Y-106420858D01*
X171547997Y-106435000D01*
X172474707Y-107361710D01*
X172711038Y-107230147D01*
X172901068Y-106595199D01*
X172861493Y-106208167D01*
X172976280Y-106322954D01*
X173478306Y-106530900D01*
X174021694Y-106530900D01*
X174523720Y-106322954D01*
X174907954Y-105938720D01*
X175115900Y-105436694D01*
X175115900Y-104893306D01*
X174907954Y-104391280D01*
X174523720Y-104007046D01*
X174021694Y-103799100D01*
X173478306Y-103799100D01*
X172976280Y-104007046D01*
X172592046Y-104391280D01*
X172384100Y-104893306D01*
X172384100Y-105207278D01*
X172241911Y-105065089D01*
X172136709Y-105170291D01*
X172005147Y-104933962D01*
X171370199Y-104743932D01*
X170710860Y-104811351D01*
X170414853Y-104933962D01*
X170283290Y-105170293D01*
X161550819Y-105170293D01*
X161799579Y-104921533D01*
X162015000Y-104401461D01*
X162015000Y-103838539D01*
X161799579Y-103318467D01*
X161401533Y-102920421D01*
X161231522Y-102850000D01*
X161401533Y-102779579D01*
X161799579Y-102381533D01*
X162015000Y-101861461D01*
X162015000Y-101298539D01*
X161799579Y-100778467D01*
X161401533Y-100380421D01*
X161231522Y-100310000D01*
X161401533Y-100239579D01*
X161799579Y-99841533D01*
X162015000Y-99321461D01*
X162015000Y-98758539D01*
X161799579Y-98238467D01*
X161401533Y-97840421D01*
X161231522Y-97770000D01*
X161401533Y-97699579D01*
X161799579Y-97301533D01*
X162015000Y-96781461D01*
X162015000Y-96218539D01*
X161946559Y-96053306D01*
X172384100Y-96053306D01*
X172384100Y-96596694D01*
X172592046Y-97098720D01*
X172976280Y-97482954D01*
X173478306Y-97690900D01*
X174021694Y-97690900D01*
X174523720Y-97482954D01*
X174907954Y-97098720D01*
X175115900Y-96596694D01*
X175115900Y-96053306D01*
X174907954Y-95551280D01*
X174523720Y-95167046D01*
X174021694Y-94959100D01*
X173478306Y-94959100D01*
X172976280Y-95167046D01*
X172592046Y-95551280D01*
X172384100Y-96053306D01*
X161946559Y-96053306D01*
X161799579Y-95698467D01*
X161401533Y-95300421D01*
X161231522Y-95230000D01*
X161401533Y-95159579D01*
X161799579Y-94761533D01*
X162015000Y-94241461D01*
X162015000Y-93678539D01*
X161922492Y-93455203D01*
X167012000Y-93455203D01*
X167012000Y-94114797D01*
X167264416Y-94724181D01*
X167730819Y-95190584D01*
X168340203Y-95443000D01*
X168999797Y-95443000D01*
X169609181Y-95190584D01*
X170075584Y-94724181D01*
X170328000Y-94114797D01*
X170328000Y-93455203D01*
X170075584Y-92845819D01*
X169609181Y-92379416D01*
X168999797Y-92127000D01*
X168340203Y-92127000D01*
X167730819Y-92379416D01*
X167264416Y-92845819D01*
X167012000Y-93455203D01*
X161922492Y-93455203D01*
X161799579Y-93158467D01*
X161401533Y-92760421D01*
X161231522Y-92690000D01*
X161401533Y-92619579D01*
X161799579Y-92221533D01*
X162015000Y-91701461D01*
X162015000Y-91138539D01*
X161852384Y-90745949D01*
X171241100Y-90745949D01*
X171241100Y-91744051D01*
X171623057Y-92666178D01*
X172328822Y-93371943D01*
X173250949Y-93753900D01*
X174249051Y-93753900D01*
X175171178Y-93371943D01*
X175876943Y-92666178D01*
X176258900Y-91744051D01*
X176258900Y-90745949D01*
X175876943Y-89823822D01*
X175171178Y-89118057D01*
X174249051Y-88736100D01*
X173250949Y-88736100D01*
X172328822Y-89118057D01*
X171623057Y-89823822D01*
X171241100Y-90745949D01*
X161852384Y-90745949D01*
X161799579Y-90618467D01*
X161401533Y-90220421D01*
X161231522Y-90150000D01*
X161401533Y-90079579D01*
X161799579Y-89681533D01*
X162015000Y-89161461D01*
X162015000Y-88699707D01*
X170283290Y-88699707D01*
X170414853Y-88936038D01*
X171049801Y-89126068D01*
X171709140Y-89058649D01*
X172005147Y-88936038D01*
X172136710Y-88699707D01*
X171210000Y-87772997D01*
X170283290Y-88699707D01*
X162015000Y-88699707D01*
X162015000Y-88598539D01*
X161799579Y-88078467D01*
X161401533Y-87680421D01*
X161231522Y-87610000D01*
X161401533Y-87539579D01*
X161666311Y-87274801D01*
X169518932Y-87274801D01*
X169586351Y-87934140D01*
X169708962Y-88230147D01*
X169945293Y-88361710D01*
X170872003Y-87435000D01*
X169945293Y-86508290D01*
X169708962Y-86639853D01*
X169518932Y-87274801D01*
X161666311Y-87274801D01*
X161799579Y-87141533D01*
X162015000Y-86621461D01*
X162015000Y-86170293D01*
X170283290Y-86170293D01*
X171210000Y-87097003D01*
X171224143Y-87082861D01*
X171562140Y-87420858D01*
X171547997Y-87435000D01*
X172474707Y-88361710D01*
X172711038Y-88230147D01*
X172901068Y-87595199D01*
X172861493Y-87208167D01*
X172976280Y-87322954D01*
X173478306Y-87530900D01*
X174021694Y-87530900D01*
X174523720Y-87322954D01*
X174907954Y-86938720D01*
X175115900Y-86436694D01*
X175115900Y-85893306D01*
X174907954Y-85391280D01*
X174523720Y-85007046D01*
X174021694Y-84799100D01*
X173478306Y-84799100D01*
X172976280Y-85007046D01*
X172592046Y-85391280D01*
X172384100Y-85893306D01*
X172384100Y-86207278D01*
X172241911Y-86065089D01*
X172136709Y-86170291D01*
X172005147Y-85933962D01*
X171370199Y-85743932D01*
X170710860Y-85811351D01*
X170414853Y-85933962D01*
X170283290Y-86170293D01*
X162015000Y-86170293D01*
X162015000Y-86058539D01*
X161799579Y-85538467D01*
X161401533Y-85140421D01*
X161231522Y-85070000D01*
X161401533Y-84999579D01*
X161799579Y-84601533D01*
X162015000Y-84081461D01*
X162015000Y-83518539D01*
X161799579Y-82998467D01*
X161401533Y-82600421D01*
X161231522Y-82530000D01*
X161401533Y-82459579D01*
X161799579Y-82061533D01*
X162015000Y-81541461D01*
X162015000Y-80978539D01*
X161799579Y-80458467D01*
X161401533Y-80060421D01*
X161231522Y-79990000D01*
X161401533Y-79919579D01*
X161799579Y-79521533D01*
X162015000Y-79001461D01*
X162015000Y-78438539D01*
X161799579Y-77918467D01*
X161401533Y-77520421D01*
X161231522Y-77450000D01*
X161401533Y-77379579D01*
X161727806Y-77053306D01*
X172384100Y-77053306D01*
X172384100Y-77596694D01*
X172592046Y-78098720D01*
X172976280Y-78482954D01*
X173478306Y-78690900D01*
X174021694Y-78690900D01*
X174523720Y-78482954D01*
X174907954Y-78098720D01*
X175115900Y-77596694D01*
X175115900Y-77053306D01*
X174907954Y-76551280D01*
X174523720Y-76167046D01*
X174021694Y-75959100D01*
X173478306Y-75959100D01*
X172976280Y-76167046D01*
X172592046Y-76551280D01*
X172384100Y-77053306D01*
X161727806Y-77053306D01*
X161799579Y-76981533D01*
X162015000Y-76461461D01*
X162015000Y-75898539D01*
X161799579Y-75378467D01*
X161401533Y-74980421D01*
X161231522Y-74910000D01*
X161401533Y-74839579D01*
X161785909Y-74455203D01*
X167012000Y-74455203D01*
X167012000Y-75114797D01*
X167264416Y-75724181D01*
X167730819Y-76190584D01*
X168340203Y-76443000D01*
X168999797Y-76443000D01*
X169609181Y-76190584D01*
X170075584Y-75724181D01*
X170328000Y-75114797D01*
X170328000Y-74455203D01*
X170075584Y-73845819D01*
X169609181Y-73379416D01*
X168999797Y-73127000D01*
X168340203Y-73127000D01*
X167730819Y-73379416D01*
X167264416Y-73845819D01*
X167012000Y-74455203D01*
X161785909Y-74455203D01*
X161799579Y-74441533D01*
X162015000Y-73921461D01*
X162015000Y-73358539D01*
X161799579Y-72838467D01*
X161401533Y-72440421D01*
X161231522Y-72370000D01*
X161401533Y-72299579D01*
X161799579Y-71901533D01*
X161864024Y-71745949D01*
X171241100Y-71745949D01*
X171241100Y-72744051D01*
X171623057Y-73666178D01*
X172328822Y-74371943D01*
X173250949Y-74753900D01*
X174249051Y-74753900D01*
X175171178Y-74371943D01*
X175876943Y-73666178D01*
X176258900Y-72744051D01*
X176258900Y-71745949D01*
X175876943Y-70823822D01*
X175171178Y-70118057D01*
X174249051Y-69736100D01*
X173250949Y-69736100D01*
X172328822Y-70118057D01*
X171623057Y-70823822D01*
X171241100Y-71745949D01*
X161864024Y-71745949D01*
X162015000Y-71381461D01*
X162015000Y-70818539D01*
X161799579Y-70298467D01*
X161401533Y-69900421D01*
X161256395Y-69840303D01*
X161323799Y-69699707D01*
X170283290Y-69699707D01*
X170414853Y-69936038D01*
X171049801Y-70126068D01*
X171709140Y-70058649D01*
X172005147Y-69936038D01*
X172136710Y-69699707D01*
X171210000Y-68772997D01*
X170283290Y-69699707D01*
X161323799Y-69699707D01*
X161349047Y-69647044D01*
X160600000Y-68897997D01*
X159850953Y-69647044D01*
X159943605Y-69840303D01*
X159798467Y-69900421D01*
X159400421Y-70298467D01*
X159185000Y-70818539D01*
X149825000Y-70818539D01*
X149825000Y-68458322D01*
X159152690Y-68458322D01*
X159223949Y-69019923D01*
X159301770Y-69207800D01*
X159512956Y-69309047D01*
X160262003Y-68560000D01*
X160937997Y-68560000D01*
X161687044Y-69309047D01*
X161898230Y-69207800D01*
X162047310Y-68661678D01*
X161998221Y-68274801D01*
X169518932Y-68274801D01*
X169586351Y-68934140D01*
X169708962Y-69230147D01*
X169945293Y-69361710D01*
X170872003Y-68435000D01*
X169945293Y-67508290D01*
X169708962Y-67639853D01*
X169518932Y-68274801D01*
X161998221Y-68274801D01*
X161976051Y-68100077D01*
X161898230Y-67912200D01*
X161687044Y-67810953D01*
X160937997Y-68560000D01*
X160262003Y-68560000D01*
X159512956Y-67810953D01*
X159301770Y-67912200D01*
X159152690Y-68458322D01*
X149825000Y-68458322D01*
X149825000Y-67107044D01*
X159850953Y-67107044D01*
X159938666Y-67290000D01*
X159850953Y-67472956D01*
X160600000Y-68222003D01*
X161349047Y-67472956D01*
X161261334Y-67290000D01*
X161318724Y-67170293D01*
X170283290Y-67170293D01*
X171210000Y-68097003D01*
X171224143Y-68082861D01*
X171562140Y-68420858D01*
X171547997Y-68435000D01*
X172474707Y-69361710D01*
X172711038Y-69230147D01*
X172901068Y-68595199D01*
X172861493Y-68208167D01*
X172976280Y-68322954D01*
X173478306Y-68530900D01*
X174021694Y-68530900D01*
X174523720Y-68322954D01*
X174907954Y-67938720D01*
X175115900Y-67436694D01*
X175115900Y-66893306D01*
X174907954Y-66391280D01*
X174523720Y-66007046D01*
X174021694Y-65799100D01*
X173478306Y-65799100D01*
X172976280Y-66007046D01*
X172592046Y-66391280D01*
X172384100Y-66893306D01*
X172384100Y-67207278D01*
X172241911Y-67065089D01*
X172136709Y-67170291D01*
X172005147Y-66933962D01*
X171370199Y-66743932D01*
X170710860Y-66811351D01*
X170414853Y-66933962D01*
X170283290Y-67170293D01*
X161318724Y-67170293D01*
X161349047Y-67107044D01*
X160600000Y-66357997D01*
X159850953Y-67107044D01*
X149825000Y-67107044D01*
X149825000Y-65918322D01*
X159152690Y-65918322D01*
X159223949Y-66479923D01*
X159301770Y-66667800D01*
X159512956Y-66769047D01*
X160262003Y-66020000D01*
X160937997Y-66020000D01*
X161687044Y-66769047D01*
X161898230Y-66667800D01*
X162047310Y-66121678D01*
X161976051Y-65560077D01*
X161898230Y-65372200D01*
X161687044Y-65270953D01*
X160937997Y-66020000D01*
X160262003Y-66020000D01*
X159512956Y-65270953D01*
X159301770Y-65372200D01*
X159152690Y-65918322D01*
X149825000Y-65918322D01*
X149825000Y-64785000D01*
X159921886Y-64785000D01*
X159850953Y-64932956D01*
X160600000Y-65682003D01*
X161349047Y-64932956D01*
X161278114Y-64785000D01*
X171379734Y-64785000D01*
X171460000Y-64800966D01*
X171540266Y-64785000D01*
X171777997Y-64737712D01*
X172047582Y-64557582D01*
X172093052Y-64489531D01*
X175375584Y-61207000D01*
X175754011Y-61207000D01*
X176223362Y-61012588D01*
X176582588Y-60653362D01*
X176770000Y-60200910D01*
X176957412Y-60653362D01*
X177316638Y-61012588D01*
X177785989Y-61207000D01*
X178294011Y-61207000D01*
X178763362Y-61012588D01*
X178860274Y-60915676D01*
X179932321Y-60915676D01*
X180016175Y-61112650D01*
X180511674Y-61238392D01*
X181017575Y-61164944D01*
X181143825Y-61112650D01*
X181227679Y-60915676D01*
X180580000Y-60267997D01*
X179932321Y-60915676D01*
X178860274Y-60915676D01*
X179122588Y-60653362D01*
X179317000Y-60184011D01*
X179317000Y-60174329D01*
X179345056Y-60367575D01*
X179397350Y-60493825D01*
X179594324Y-60577679D01*
X180242003Y-59930000D01*
X180917997Y-59930000D01*
X181565676Y-60577679D01*
X181762650Y-60493825D01*
X181888392Y-59998326D01*
X181814944Y-59492425D01*
X181762650Y-59366175D01*
X181565676Y-59282321D01*
X180917997Y-59930000D01*
X180242003Y-59930000D01*
X179594324Y-59282321D01*
X179397350Y-59366175D01*
X179317000Y-59682802D01*
X179317000Y-59675989D01*
X179122588Y-59206638D01*
X178860274Y-58944324D01*
X179932321Y-58944324D01*
X180580000Y-59592003D01*
X181227679Y-58944324D01*
X181143825Y-58747350D01*
X180648326Y-58621608D01*
X180142425Y-58695056D01*
X180016175Y-58747350D01*
X179932321Y-58944324D01*
X178860274Y-58944324D01*
X178763362Y-58847412D01*
X178294011Y-58653000D01*
X177785989Y-58653000D01*
X177316638Y-58847412D01*
X176957412Y-59206638D01*
X176770000Y-59659090D01*
X176582588Y-59206638D01*
X176315000Y-58939050D01*
X176315000Y-57730266D01*
X176330966Y-57650000D01*
X176267712Y-57332003D01*
X176087582Y-57062418D01*
X176019534Y-57016950D01*
X175225000Y-56222417D01*
X175225000Y-55678539D01*
X175009579Y-55158467D01*
X174625000Y-54773888D01*
X174625000Y-54667583D01*
X174817583Y-54475000D01*
X175241570Y-54475000D01*
X175724887Y-54274803D01*
X176094803Y-53904887D01*
X176295000Y-53421570D01*
X176295000Y-52898430D01*
X176171052Y-52599192D01*
X179985000Y-52599192D01*
X179985000Y-53400808D01*
X180291766Y-54141406D01*
X180858594Y-54708234D01*
X181599192Y-55015000D01*
X182400808Y-55015000D01*
X183141406Y-54708234D01*
X183708234Y-54141406D01*
X184015000Y-53400808D01*
X184015000Y-52599192D01*
X183708234Y-51858594D01*
X183141406Y-51291766D01*
X182400808Y-50985000D01*
X181599192Y-50985000D01*
X180858594Y-51291766D01*
X180291766Y-51858594D01*
X179985000Y-52599192D01*
X176171052Y-52599192D01*
X176094803Y-52415113D01*
X175724887Y-52045197D01*
X175241570Y-51845000D01*
X174718430Y-51845000D01*
X174235113Y-52045197D01*
X173865197Y-52415113D01*
X173665000Y-52898430D01*
X173665000Y-53322417D01*
X173290467Y-53696950D01*
X173222419Y-53742418D01*
X173113861Y-53904887D01*
X173042288Y-54012004D01*
X172979034Y-54330000D01*
X172995001Y-54410270D01*
X172995001Y-54773887D01*
X172610421Y-55158467D01*
X172540000Y-55328478D01*
X172469579Y-55158467D01*
X172071533Y-54760421D01*
X171551461Y-54545000D01*
X170988539Y-54545000D01*
X170468467Y-54760421D01*
X170070421Y-55158467D01*
X170010303Y-55303605D01*
X169817044Y-55210953D01*
X169067997Y-55960000D01*
X169817044Y-56709047D01*
X170010303Y-56616395D01*
X170070421Y-56761533D01*
X170468467Y-57159579D01*
X170988539Y-57375000D01*
X171551461Y-57375000D01*
X172071533Y-57159579D01*
X172469579Y-56761533D01*
X172540000Y-56591522D01*
X172610421Y-56761533D01*
X173008467Y-57159579D01*
X173528539Y-57375000D01*
X174072417Y-57375000D01*
X174685001Y-57987585D01*
X174685000Y-58939050D01*
X174417412Y-59206638D01*
X174223000Y-59675989D01*
X174223000Y-60054416D01*
X171122417Y-63155000D01*
X149417218Y-63155000D01*
X149206033Y-63013891D01*
X149133460Y-62999455D01*
X146490728Y-60356724D01*
X146439678Y-60280322D01*
X146137015Y-60078090D01*
X145870115Y-60025000D01*
X145870114Y-60025000D01*
X145780000Y-60007075D01*
X145689886Y-60025000D01*
X141890286Y-60025000D01*
X141844109Y-59955891D01*
X141392596Y-59654199D01*
X140994436Y-59575000D01*
X140725564Y-59575000D01*
X140327404Y-59654199D01*
X139875891Y-59955891D01*
X139829714Y-60025000D01*
X139110112Y-60025000D01*
X139019999Y-60007075D01*
X138929886Y-60025000D01*
X138929885Y-60025000D01*
X138662985Y-60078090D01*
X138360322Y-60280322D01*
X138309276Y-60356718D01*
X136847269Y-61818727D01*
X136847269Y-61377820D01*
X136807299Y-61176877D01*
X136737460Y-61072356D01*
X136737460Y-60735719D01*
X136871294Y-60646294D01*
X136985119Y-60475943D01*
X137025089Y-60275000D01*
X137025089Y-59525000D01*
X136985119Y-59324057D01*
X136871294Y-59153706D01*
X136700943Y-59039881D01*
X136500000Y-58999911D01*
X136211074Y-58999911D01*
X135055377Y-57844215D01*
X135015486Y-57784514D01*
X134778979Y-57626485D01*
X134570418Y-57585000D01*
X134570417Y-57585000D01*
X134500000Y-57570993D01*
X134429583Y-57585000D01*
X134059006Y-57585000D01*
X133998306Y-57524300D01*
X133662005Y-57385000D01*
X133297995Y-57385000D01*
X132961694Y-57524300D01*
X132704300Y-57781694D01*
X132565000Y-58117995D01*
X132565000Y-58482005D01*
X132704300Y-58818306D01*
X132961694Y-59075700D01*
X133297995Y-59215000D01*
X133662005Y-59215000D01*
X133846988Y-59138378D01*
X133756622Y-59228744D01*
X133677000Y-59420969D01*
X133677000Y-59581750D01*
X133807750Y-59712500D01*
X134400000Y-59712500D01*
X134400000Y-59641000D01*
X134800000Y-59641000D01*
X134800000Y-59712500D01*
X134859000Y-59712500D01*
X134859000Y-60087500D01*
X134800000Y-60087500D01*
X134800000Y-60667250D01*
X134930750Y-60798000D01*
X135104031Y-60798000D01*
X135296256Y-60718378D01*
X135307461Y-60707173D01*
X135307461Y-60917469D01*
X135156211Y-60854820D01*
X135033070Y-60854820D01*
X134902320Y-60985570D01*
X134902320Y-61913520D01*
X135011460Y-61913520D01*
X135011460Y-62391520D01*
X134902320Y-62391520D01*
X134902320Y-63319470D01*
X135033070Y-63450220D01*
X135156211Y-63450220D01*
X135305610Y-63388337D01*
X135334169Y-63531910D01*
X135348946Y-63606199D01*
X135506975Y-63842706D01*
X135566673Y-63882595D01*
X136375000Y-64690923D01*
X136375000Y-64776765D01*
X136410167Y-64861666D01*
X136428091Y-64951775D01*
X136479133Y-65028165D01*
X136514300Y-65113066D01*
X136575000Y-65173766D01*
X136575000Y-66322324D01*
X136523123Y-66287661D01*
X136322180Y-66247691D01*
X135722740Y-66247691D01*
X135521797Y-66287661D01*
X135387460Y-66377422D01*
X135253123Y-66287661D01*
X135052180Y-66247691D01*
X134452740Y-66247691D01*
X134251797Y-66287661D01*
X134120000Y-66375725D01*
X133988203Y-66287661D01*
X133884416Y-66267017D01*
X134008306Y-66215700D01*
X134265700Y-65958306D01*
X134405000Y-65622005D01*
X134405000Y-65257995D01*
X134265700Y-64921694D01*
X134202540Y-64858534D01*
X134202540Y-63389675D01*
X134348709Y-63450220D01*
X134471850Y-63450220D01*
X134602600Y-63319470D01*
X134602600Y-62391520D01*
X134493460Y-62391520D01*
X134493460Y-61913520D01*
X134602600Y-61913520D01*
X134602600Y-60985570D01*
X134471850Y-60854820D01*
X134348709Y-60854820D01*
X134156484Y-60934442D01*
X134114102Y-60976824D01*
X133988203Y-60892701D01*
X133787260Y-60852731D01*
X133187820Y-60852731D01*
X132986877Y-60892701D01*
X132852540Y-60982462D01*
X132718203Y-60892701D01*
X132517260Y-60852731D01*
X131917820Y-60852731D01*
X131716877Y-60892701D01*
X131546526Y-61006526D01*
X131432701Y-61176877D01*
X131392731Y-61377820D01*
X131392731Y-62927220D01*
X131432701Y-63128163D01*
X131502540Y-63232685D01*
X131502541Y-64873453D01*
X131434300Y-64941694D01*
X131295000Y-65277995D01*
X122595264Y-65277995D01*
X122440943Y-65174881D01*
X122240000Y-65134911D01*
X120540000Y-65134911D01*
X120339057Y-65174881D01*
X120168706Y-65288706D01*
X120054881Y-65459057D01*
X120014911Y-65660000D01*
X113590000Y-65660000D01*
X113590000Y-60218250D01*
X133677000Y-60218250D01*
X133677000Y-60379031D01*
X133756622Y-60571256D01*
X133903744Y-60718378D01*
X134095969Y-60798000D01*
X134269250Y-60798000D01*
X134400000Y-60667250D01*
X134400000Y-60087500D01*
X133807750Y-60087500D01*
X133677000Y-60218250D01*
X113590000Y-60218250D01*
X113590000Y-57047044D01*
X167980953Y-57047044D01*
X168082200Y-57258230D01*
X168628322Y-57407310D01*
X169189923Y-57336051D01*
X169377800Y-57258230D01*
X169479047Y-57047044D01*
X168730000Y-56297997D01*
X167980953Y-57047044D01*
X113590000Y-57047044D01*
X113590000Y-55858322D01*
X167282690Y-55858322D01*
X167353949Y-56419923D01*
X167431770Y-56607800D01*
X167642956Y-56709047D01*
X168392003Y-55960000D01*
X167642956Y-55210953D01*
X167431770Y-55312200D01*
X167282690Y-55858322D01*
X113590000Y-55858322D01*
X113590000Y-53034281D01*
X113640725Y-52599192D01*
X113985000Y-52599192D01*
X113985000Y-53400808D01*
X114291766Y-54141406D01*
X114858594Y-54708234D01*
X115599192Y-55015000D01*
X116400808Y-55015000D01*
X116743732Y-54872956D01*
X167980953Y-54872956D01*
X168730000Y-55622003D01*
X169479047Y-54872956D01*
X169377800Y-54661770D01*
X168831678Y-54512690D01*
X168270077Y-54583949D01*
X168082200Y-54661770D01*
X167980953Y-54872956D01*
X116743732Y-54872956D01*
X117141406Y-54708234D01*
X117708234Y-54141406D01*
X118015000Y-53400808D01*
X118015000Y-52858648D01*
X141585000Y-52858648D01*
X141585000Y-53461352D01*
X141815645Y-54018179D01*
X142241821Y-54444355D01*
X142798648Y-54675000D01*
X143401352Y-54675000D01*
X143958179Y-54444355D01*
X144082271Y-54320263D01*
X162277734Y-54320263D01*
X162391496Y-54541783D01*
X162974213Y-54707734D01*
X163576080Y-54638056D01*
X163808504Y-54541783D01*
X163922266Y-54320263D01*
X163100000Y-53497997D01*
X162277734Y-54320263D01*
X144082271Y-54320263D01*
X144384355Y-54018179D01*
X144615000Y-53461352D01*
X144615000Y-53034213D01*
X161552266Y-53034213D01*
X161621944Y-53636080D01*
X161718217Y-53868504D01*
X161939737Y-53982266D01*
X162762003Y-53160000D01*
X163437997Y-53160000D01*
X164260263Y-53982266D01*
X164481783Y-53868504D01*
X164647734Y-53285787D01*
X164602890Y-52898430D01*
X166665000Y-52898430D01*
X166665000Y-53421570D01*
X166865197Y-53904887D01*
X167235113Y-54274803D01*
X167718430Y-54475000D01*
X168241570Y-54475000D01*
X168724887Y-54274803D01*
X169094803Y-53904887D01*
X169295000Y-53421570D01*
X169295000Y-52898430D01*
X169094803Y-52415113D01*
X168724887Y-52045197D01*
X168241570Y-51845000D01*
X167718430Y-51845000D01*
X167235113Y-52045197D01*
X166865197Y-52415113D01*
X166665000Y-52898430D01*
X164602890Y-52898430D01*
X164578056Y-52683920D01*
X164481783Y-52451496D01*
X164260263Y-52337734D01*
X163437997Y-53160000D01*
X162762003Y-53160000D01*
X161939737Y-52337734D01*
X161718217Y-52451496D01*
X161552266Y-53034213D01*
X144615000Y-53034213D01*
X144615000Y-52858648D01*
X144384355Y-52301821D01*
X144082271Y-51999737D01*
X162277734Y-51999737D01*
X163100000Y-52822003D01*
X163922266Y-51999737D01*
X163808504Y-51778217D01*
X163225787Y-51612266D01*
X162623920Y-51681944D01*
X162391496Y-51778217D01*
X162277734Y-51999737D01*
X144082271Y-51999737D01*
X143958179Y-51875645D01*
X143401352Y-51645000D01*
X142798648Y-51645000D01*
X142241821Y-51875645D01*
X141815645Y-52301821D01*
X141585000Y-52858648D01*
X118015000Y-52858648D01*
X118015000Y-52599192D01*
X117708234Y-51858594D01*
X117141406Y-51291766D01*
X116400808Y-50985000D01*
X115599192Y-50985000D01*
X114858594Y-51291766D01*
X114291766Y-51858594D01*
X113985000Y-52599192D01*
X113640725Y-52599192D01*
X113658528Y-52446500D01*
X113848662Y-51922689D01*
X114154198Y-51456670D01*
X114558748Y-51073436D01*
X115040609Y-50793550D01*
X115581663Y-50629680D01*
X116026273Y-50590000D01*
X181965719Y-50590000D01*
X182553500Y-50658528D01*
G04 #@! TD*
M02*
