G04 #@! TF.GenerationSoftware,KiCad,Pcbnew,5.0.0*
G04 #@! TF.CreationDate,2018-08-01T12:35:26+02:00*
G04 #@! TF.ProjectId,nixie_2_digit_board,6E697869655F325F64696769745F626F,rev?*
G04 #@! TF.SameCoordinates,Original*
G04 #@! TF.FileFunction,Copper,L1,Top,Signal*
G04 #@! TF.FilePolarity,Positive*
%FSLAX46Y46*%
G04 Gerber Fmt 4.6, Leading zero omitted, Abs format (unit mm)*
G04 Created by KiCad (PCBNEW 5.0.0) date Wed Aug  1 12:35:26 2018*
%MOMM*%
%LPD*%
G01*
G04 APERTURE LIST*
G04 #@! TA.AperFunction,EtchedComponent*
%ADD10C,0.150000*%
G04 #@! TD*
G04 #@! TA.AperFunction,ViaPad*
%ADD11C,0.600000*%
G04 #@! TD*
G04 #@! TA.AperFunction,ComponentPad*
%ADD12O,2.300000X1.600000*%
G04 #@! TD*
G04 #@! TA.AperFunction,SMDPad,CuDef*
%ADD13R,0.500000X0.900000*%
G04 #@! TD*
G04 #@! TA.AperFunction,ComponentPad*
%ADD14C,1.200000*%
G04 #@! TD*
G04 #@! TA.AperFunction,Conductor*
%ADD15C,0.100000*%
G04 #@! TD*
G04 #@! TA.AperFunction,Conductor*
%ADD16C,1.200000*%
G04 #@! TD*
G04 #@! TA.AperFunction,ComponentPad*
%ADD17R,1.700000X1.700000*%
G04 #@! TD*
G04 #@! TA.AperFunction,ComponentPad*
%ADD18O,1.700000X1.700000*%
G04 #@! TD*
G04 #@! TA.AperFunction,ComponentPad*
%ADD19R,2.000000X2.000000*%
G04 #@! TD*
G04 #@! TA.AperFunction,SMDPad,CuDef*
%ADD20R,0.900000X0.500000*%
G04 #@! TD*
G04 #@! TA.AperFunction,ComponentPad*
%ADD21R,2.400000X1.600000*%
G04 #@! TD*
G04 #@! TA.AperFunction,ComponentPad*
%ADD22O,2.400000X1.600000*%
G04 #@! TD*
G04 #@! TA.AperFunction,Conductor*
%ADD23C,1.000000*%
G04 #@! TD*
G04 #@! TA.AperFunction,Conductor*
%ADD24C,0.600000*%
G04 #@! TD*
G04 #@! TA.AperFunction,Conductor*
%ADD25C,0.800000*%
G04 #@! TD*
G04 #@! TA.AperFunction,Conductor*
%ADD26C,0.400000*%
G04 #@! TD*
G04 #@! TA.AperFunction,Conductor*
%ADD27C,0.254000*%
G04 #@! TD*
G04 APERTURE END LIST*
D10*
G04 #@! TO.C,U6*
X162860000Y-81180000D02*
X162510000Y-81280000D01*
X162360000Y-81180000D02*
X162860000Y-81180000D01*
X162610000Y-81480000D02*
X162360000Y-81180000D01*
X162610000Y-81480000D02*
X162860000Y-81180000D01*
X162610000Y-81980000D02*
X162610000Y-80830000D01*
X162110000Y-80480000D02*
X162610000Y-80830000D01*
X162610000Y-79730000D02*
X162610000Y-79380000D01*
X162110000Y-80080000D02*
X162610000Y-79730000D01*
X162060000Y-79880000D02*
X162060000Y-80680000D01*
X161010000Y-80280000D02*
X162060000Y-80280000D01*
X163210000Y-81980000D02*
X163210000Y-82180000D01*
X162610000Y-81980000D02*
X163210000Y-81980000D01*
X162610000Y-82180000D02*
X162610000Y-81980000D01*
X162010000Y-81580000D02*
X161610000Y-81580000D01*
X162010000Y-81780000D02*
X162010000Y-81580000D01*
X163210000Y-84780000D02*
X163210000Y-84580000D01*
X162610000Y-84780000D02*
X163210000Y-84780000D01*
X162610000Y-84580000D02*
X162610000Y-84780000D01*
X162610000Y-82780000D02*
X162010000Y-82780000D01*
X162610000Y-82180000D02*
X162610000Y-82780000D01*
X163210000Y-84580000D02*
X163210000Y-82180000D01*
X162610000Y-83180000D02*
X162610000Y-84580000D01*
X162010000Y-83180000D02*
X162610000Y-83180000D01*
X162010000Y-84180000D02*
X162010000Y-83180000D01*
X161410000Y-84180000D02*
X162010000Y-84180000D01*
X161410000Y-82780000D02*
X161410000Y-84180000D01*
X162010000Y-82780000D02*
X162010000Y-81780000D01*
X159610000Y-82780000D02*
X159010000Y-82780000D01*
X160410000Y-80780000D02*
X160210000Y-81380000D01*
X160610000Y-80780000D02*
X160410000Y-80780000D01*
X160810000Y-81380000D02*
X160610000Y-80780000D01*
X160210000Y-81380000D02*
X160810000Y-81380000D01*
X161010000Y-81780000D02*
X161410000Y-82780000D01*
X160010000Y-81780000D02*
X161010000Y-81780000D01*
X159610000Y-82780000D02*
X160010000Y-81780000D01*
X160810000Y-79780000D02*
X162010000Y-82780000D01*
X160210000Y-79780000D02*
X160810000Y-79780000D01*
X159010000Y-82780000D02*
X160210000Y-79780000D01*
G04 #@! TD*
D11*
G04 #@! TO.N,GND*
G04 #@! TO.C,REF\002A\002A*
X190760000Y-70450000D03*
G04 #@! TD*
G04 #@! TO.N,GND*
G04 #@! TO.C,REF\002A\002A*
X190760000Y-69450000D03*
G04 #@! TD*
G04 #@! TO.N,GND*
G04 #@! TO.C,REF\002A\002A*
X190760000Y-68450000D03*
G04 #@! TD*
G04 #@! TO.N,GND*
G04 #@! TO.C,REF\002A\002A*
X140810000Y-92570000D03*
G04 #@! TD*
G04 #@! TO.N,GND*
G04 #@! TO.C,REF\002A\002A*
X140810000Y-91570000D03*
G04 #@! TD*
G04 #@! TO.N,GND*
G04 #@! TO.C,REF\002A\002A*
X140810000Y-90570000D03*
G04 #@! TD*
G04 #@! TO.N,GND*
G04 #@! TO.C,REF\002A\002A*
X124690000Y-86410000D03*
G04 #@! TD*
G04 #@! TO.N,GND*
G04 #@! TO.C,REF\002A\002A*
X152580000Y-84805000D03*
G04 #@! TD*
G04 #@! TO.N,GND*
G04 #@! TO.C,REF\002A\002A*
X152580000Y-83805000D03*
G04 #@! TD*
G04 #@! TO.N,GND*
G04 #@! TO.C,REF\002A\002A*
X152580000Y-82805000D03*
G04 #@! TD*
G04 #@! TO.N,GND*
G04 #@! TO.C,REF\002A\002A*
X187074262Y-98676359D03*
G04 #@! TD*
G04 #@! TO.N,GND*
G04 #@! TO.C,REF\002A\002A*
X187781369Y-97969253D03*
G04 #@! TD*
G04 #@! TO.N,GND*
G04 #@! TO.C,REF\002A\002A*
X161980000Y-92505000D03*
G04 #@! TD*
G04 #@! TO.N,GND*
G04 #@! TO.C,REF\002A\002A*
X161980000Y-91505000D03*
G04 #@! TD*
G04 #@! TO.N,GND*
G04 #@! TO.C,REF\002A\002A*
X162980000Y-91505000D03*
G04 #@! TD*
G04 #@! TO.N,GND*
G04 #@! TO.C,REF\002A\002A*
X162980000Y-92505000D03*
G04 #@! TD*
G04 #@! TO.N,GND*
G04 #@! TO.C,REF\002A\002A*
X163980000Y-92505000D03*
G04 #@! TD*
G04 #@! TO.N,GND*
G04 #@! TO.C,REF\002A\002A*
X163980000Y-91505000D03*
G04 #@! TD*
G04 #@! TO.N,GND*
G04 #@! TO.C,REF\002A\002A*
X163980000Y-90505000D03*
G04 #@! TD*
G04 #@! TO.N,GND*
G04 #@! TO.C,REF\002A\002A*
X162980000Y-90505000D03*
G04 #@! TD*
G04 #@! TO.N,GND*
G04 #@! TO.C,REF\002A\002A*
X161980000Y-90505000D03*
G04 #@! TD*
G04 #@! TO.N,GND*
G04 #@! TO.C,REF\002A\002A*
X130430000Y-67760000D03*
G04 #@! TD*
G04 #@! TO.N,GND*
G04 #@! TO.C,REF\002A\002A*
X131430000Y-67760000D03*
G04 #@! TD*
G04 #@! TO.N,GND*
G04 #@! TO.C,REF\002A\002A*
X132430000Y-67760000D03*
G04 #@! TD*
G04 #@! TO.N,GND*
G04 #@! TO.C,REF\002A\002A*
X132430000Y-68760000D03*
G04 #@! TD*
G04 #@! TO.N,GND*
G04 #@! TO.C,REF\002A\002A*
X132430000Y-69760000D03*
G04 #@! TD*
G04 #@! TO.N,GND*
G04 #@! TO.C,REF\002A\002A*
X131430000Y-69760000D03*
G04 #@! TD*
G04 #@! TO.N,GND*
G04 #@! TO.C,REF\002A\002A*
X130430000Y-69760000D03*
G04 #@! TD*
G04 #@! TO.N,GND*
G04 #@! TO.C,REF\002A\002A*
X131430000Y-68760000D03*
G04 #@! TD*
G04 #@! TO.N,GND*
G04 #@! TO.C,REF\002A\002A*
X130430000Y-68760000D03*
G04 #@! TD*
G04 #@! TO.N,GND*
G04 #@! TO.C,REF\002A\002A*
X194160000Y-90525000D03*
G04 #@! TD*
G04 #@! TO.N,GND*
G04 #@! TO.C,REF\002A\002A*
X195160000Y-90525000D03*
G04 #@! TD*
G04 #@! TO.N,GND*
G04 #@! TO.C,REF\002A\002A*
X195160000Y-91525000D03*
G04 #@! TD*
G04 #@! TO.N,GND*
G04 #@! TO.C,REF\002A\002A*
X194160000Y-91525000D03*
G04 #@! TD*
G04 #@! TO.N,GND*
G04 #@! TO.C,REF\002A\002A*
X194160000Y-89525000D03*
G04 #@! TD*
G04 #@! TO.N,GND*
G04 #@! TO.C,REF\002A\002A*
X195160000Y-89525000D03*
G04 #@! TD*
G04 #@! TO.N,GND*
G04 #@! TO.C,REF\002A\002A*
X191990000Y-106505000D03*
G04 #@! TD*
G04 #@! TO.N,GND*
G04 #@! TO.C,REF\002A\002A*
X192990000Y-106505000D03*
G04 #@! TD*
G04 #@! TO.N,GND*
G04 #@! TO.C,REF\002A\002A*
X191990000Y-107505000D03*
G04 #@! TD*
G04 #@! TO.N,GND*
G04 #@! TO.C,REF\002A\002A*
X193990000Y-106505000D03*
G04 #@! TD*
G04 #@! TO.N,GND*
G04 #@! TO.C,REF\002A\002A*
X193990000Y-107505000D03*
G04 #@! TD*
G04 #@! TO.N,GND*
G04 #@! TO.C,REF\002A\002A*
X193990000Y-108505000D03*
G04 #@! TD*
G04 #@! TO.N,GND*
G04 #@! TO.C,REF\002A\002A*
X191990000Y-108505000D03*
G04 #@! TD*
G04 #@! TO.N,GND*
G04 #@! TO.C,REF\002A\002A*
X192990000Y-107505000D03*
G04 #@! TD*
G04 #@! TO.N,GND*
G04 #@! TO.C,REF\002A\002A*
X192990000Y-108505000D03*
G04 #@! TD*
G04 #@! TO.N,GND*
G04 #@! TO.C,REF\002A\002A*
X183040000Y-86965000D03*
G04 #@! TD*
G04 #@! TO.N,GND*
G04 #@! TO.C,REF\002A\002A*
X184040000Y-86965000D03*
G04 #@! TD*
G04 #@! TO.N,GND*
G04 #@! TO.C,REF\002A\002A*
X183040000Y-84965000D03*
G04 #@! TD*
G04 #@! TO.N,GND*
G04 #@! TO.C,REF\002A\002A*
X184040000Y-85965000D03*
G04 #@! TD*
G04 #@! TO.N,GND*
G04 #@! TO.C,REF\002A\002A*
X183040000Y-85965000D03*
G04 #@! TD*
G04 #@! TO.N,GND*
G04 #@! TO.C,REF\002A\002A*
X184040000Y-84965000D03*
G04 #@! TD*
D12*
G04 #@! TO.P,U5,1*
G04 #@! TO.N,Net-(U4-Pad9)*
X154200000Y-105780000D03*
G04 #@! TO.P,U5,2*
G04 #@! TO.N,Net-(U4-Pad11)*
X154200000Y-103240000D03*
G04 #@! TO.P,U5,3*
G04 #@! TO.N,Net-(U3-Pad4)*
X154200000Y-100700000D03*
G04 #@! TO.P,U5,4*
G04 #@! TO.N,Net-(U3-Pad7)*
X154200000Y-98160000D03*
G04 #@! TO.P,U5,5*
G04 #@! TO.N,+5V*
X154200000Y-95620000D03*
G04 #@! TO.P,U5,6*
G04 #@! TO.N,Net-(U3-Pad5)*
X154200000Y-93080000D03*
G04 #@! TO.P,U5,7*
G04 #@! TO.N,Net-(U3-Pad6)*
X154200000Y-90540000D03*
G04 #@! TO.P,U5,8*
G04 #@! TO.N,Net-(U4-Pad2)*
X154200000Y-88000000D03*
G04 #@! TO.P,U5,9*
G04 #@! TO.N,Net-(U4-Pad3)*
X146580000Y-88000000D03*
G04 #@! TO.P,U5,10*
G04 #@! TO.N,Net-(U4-Pad8)*
X146580000Y-90540000D03*
G04 #@! TO.P,U5,11*
G04 #@! TO.N,Net-(U4-Pad7)*
X146580000Y-93080000D03*
G04 #@! TO.P,U5,12*
G04 #@! TO.N,GND*
X146580000Y-95620000D03*
G04 #@! TO.P,U5,13*
G04 #@! TO.N,Net-(U4-Pad5)*
X146580000Y-98160000D03*
G04 #@! TO.P,U5,14*
G04 #@! TO.N,Net-(U4-Pad6)*
X146580000Y-100700000D03*
G04 #@! TO.P,U5,15*
G04 #@! TO.N,Net-(U4-Pad1)*
X146580000Y-103240000D03*
G04 #@! TO.P,U5,16*
G04 #@! TO.N,Net-(U4-Pad12)*
X146580000Y-105780000D03*
G04 #@! TD*
D13*
G04 #@! TO.P,R2,1*
G04 #@! TO.N,180V*
X139000000Y-67250000D03*
G04 #@! TO.P,R2,2*
G04 #@! TO.N,Net-(R2-Pad2)*
X140500000Y-67250000D03*
G04 #@! TD*
D14*
G04 #@! TO.P,U4,1*
G04 #@! TO.N,Net-(U4-Pad1)*
X144182565Y-70646537D03*
D15*
G04 #@! TD*
G04 #@! TO.N,Net-(U4-Pad1)*
G04 #@! TO.C,U4*
G36*
X145265497Y-71512423D02*
X144184331Y-72033078D01*
X143099633Y-69780651D01*
X144180799Y-69259996D01*
X145265497Y-71512423D01*
X145265497Y-71512423D01*
G37*
D14*
G04 #@! TO.P,U4,2*
G04 #@! TO.N,Net-(U4-Pad2)*
X142524588Y-71968716D03*
D16*
G04 #@! TD*
G04 #@! TO.N,Net-(U4-Pad2)*
G04 #@! TO.C,U4*
X143032776Y-72373987D02*
X142016400Y-71563445D01*
D14*
G04 #@! TO.P,U4,3*
G04 #@! TO.N,Net-(U4-Pad3)*
X141604474Y-73879328D03*
D16*
G04 #@! TD*
G04 #@! TO.N,Net-(U4-Pad3)*
G04 #@! TO.C,U4*
X142238176Y-74023970D02*
X140970772Y-73734686D01*
D14*
G04 #@! TO.P,U4,4*
G04 #@! TO.N,Net-(U4-Pad4)*
X141604463Y-75999954D03*
D16*
G04 #@! TD*
G04 #@! TO.N,Net-(U4-Pad4)*
G04 #@! TO.C,U4*
X142238167Y-75855319D02*
X140970759Y-76144589D01*
D14*
G04 #@! TO.P,U4,5*
G04 #@! TO.N,Net-(U4-Pad5)*
X142524558Y-77910574D03*
D16*
G04 #@! TD*
G04 #@! TO.N,Net-(U4-Pad5)*
G04 #@! TO.C,U4*
X143032750Y-77505308D02*
X142016366Y-78315840D01*
D14*
G04 #@! TO.P,U4,6*
G04 #@! TO.N,Net-(U4-Pad6)*
X144182523Y-79232770D03*
D16*
G04 #@! TD*
G04 #@! TO.N,Net-(U4-Pad6)*
G04 #@! TO.C,U4*
X144464550Y-78647142D02*
X143900496Y-79818398D01*
D14*
G04 #@! TO.P,U4,7*
G04 #@! TO.N,Net-(U4-Pad7)*
X146249976Y-79704664D03*
D16*
G04 #@! TD*
G04 #@! TO.N,Net-(U4-Pad7)*
G04 #@! TO.C,U4*
X146249979Y-79054664D02*
X146249973Y-80354664D01*
D14*
G04 #@! TO.P,U4,8*
G04 #@! TO.N,Net-(U4-Pad8)*
X148317435Y-79232791D03*
D16*
G04 #@! TD*
G04 #@! TO.N,Net-(U4-Pad8)*
G04 #@! TO.C,U4*
X148035413Y-78647160D02*
X148599457Y-79818422D01*
D14*
G04 #@! TO.P,U4,9*
G04 #@! TO.N,Net-(U4-Pad9)*
X149975412Y-77910612D03*
D16*
G04 #@! TD*
G04 #@! TO.N,Net-(U4-Pad9)*
G04 #@! TO.C,U4*
X149467224Y-77505341D02*
X150483600Y-78315883D01*
D14*
G04 #@! TO.P,U4,10*
G04 #@! TO.N,Net-(U4-Pad10)*
X150895526Y-76000000D03*
D16*
G04 #@! TD*
G04 #@! TO.N,Net-(U4-Pad10)*
G04 #@! TO.C,U4*
X150261824Y-75855358D02*
X151529228Y-76144642D01*
D14*
G04 #@! TO.P,U4,11*
G04 #@! TO.N,Net-(U4-Pad11)*
X150895537Y-73879374D03*
D16*
G04 #@! TD*
G04 #@! TO.N,Net-(U4-Pad11)*
G04 #@! TO.C,U4*
X150261833Y-74024009D02*
X151529241Y-73734739D01*
D14*
G04 #@! TO.P,U4,12*
G04 #@! TO.N,Net-(U4-Pad12)*
X149975442Y-71968754D03*
D16*
G04 #@! TD*
G04 #@! TO.N,Net-(U4-Pad12)*
G04 #@! TO.C,U4*
X149467250Y-72374020D02*
X150483634Y-71563488D01*
D14*
G04 #@! TO.P,U4,13*
G04 #@! TO.N,Net-(R2-Pad2)*
X148317477Y-70646558D03*
D16*
G04 #@! TD*
G04 #@! TO.N,Net-(R2-Pad2)*
G04 #@! TO.C,U4*
X148035450Y-71232186D02*
X148599504Y-70060930D01*
D17*
G04 #@! TO.P,J2,1*
G04 #@! TO.N,Net-(J2-Pad1)*
X161610000Y-74270000D03*
D18*
G04 #@! TO.P,J2,2*
G04 #@! TO.N,GND*
X161610000Y-76810000D03*
G04 #@! TD*
D11*
G04 #@! TO.N,GND*
G04 #@! TO.C,REF\002A\002A*
X134605000Y-103920000D03*
G04 #@! TD*
G04 #@! TO.N,GND*
G04 #@! TO.C,REF\002A\002A*
X133605000Y-103920000D03*
G04 #@! TD*
G04 #@! TO.N,GND*
G04 #@! TO.C,REF\002A\002A*
X133605000Y-102920000D03*
G04 #@! TD*
G04 #@! TO.N,GND*
G04 #@! TO.C,REF\002A\002A*
X134605000Y-102920000D03*
G04 #@! TD*
G04 #@! TO.N,GND*
G04 #@! TO.C,REF\002A\002A*
X135605000Y-103920000D03*
G04 #@! TD*
G04 #@! TO.N,GND*
G04 #@! TO.C,REF\002A\002A*
X135605000Y-102920000D03*
G04 #@! TD*
G04 #@! TO.N,GND*
G04 #@! TO.C,REF\002A\002A*
X135605000Y-101920000D03*
G04 #@! TD*
G04 #@! TO.N,GND*
G04 #@! TO.C,REF\002A\002A*
X134605000Y-101920000D03*
G04 #@! TD*
G04 #@! TO.N,GND*
G04 #@! TO.C,REF\002A\002A*
X133605000Y-101920000D03*
G04 #@! TD*
G04 #@! TO.N,GND*
G04 #@! TO.C,REF\002A\002A*
X131680000Y-86800000D03*
G04 #@! TD*
G04 #@! TO.N,GND*
G04 #@! TO.C,REF\002A\002A*
X130680000Y-86800000D03*
G04 #@! TD*
G04 #@! TO.N,GND*
G04 #@! TO.C,REF\002A\002A*
X129680000Y-86800000D03*
G04 #@! TD*
G04 #@! TO.N,GND*
G04 #@! TO.C,REF\002A\002A*
X131680000Y-85800000D03*
G04 #@! TD*
G04 #@! TO.N,GND*
G04 #@! TO.C,REF\002A\002A*
X130680000Y-85800000D03*
G04 #@! TD*
G04 #@! TO.N,GND*
G04 #@! TO.C,REF\002A\002A*
X129680000Y-85800000D03*
G04 #@! TD*
G04 #@! TO.N,GND*
G04 #@! TO.C,REF\002A\002A*
X131680000Y-84800000D03*
G04 #@! TD*
G04 #@! TO.N,GND*
G04 #@! TO.C,REF\002A\002A*
X130680000Y-84800000D03*
G04 #@! TD*
D14*
G04 #@! TO.P,U1,1*
G04 #@! TO.N,Net-(U1-Pad1)*
X120232565Y-70606873D03*
D15*
G04 #@! TD*
G04 #@! TO.N,Net-(U1-Pad1)*
G04 #@! TO.C,U1*
G36*
X121315497Y-71472759D02*
X120234331Y-71993414D01*
X119149633Y-69740987D01*
X120230799Y-69220332D01*
X121315497Y-71472759D01*
X121315497Y-71472759D01*
G37*
D14*
G04 #@! TO.P,U1,2*
G04 #@! TO.N,Net-(U1-Pad2)*
X118574588Y-71929052D03*
D16*
G04 #@! TD*
G04 #@! TO.N,Net-(U1-Pad2)*
G04 #@! TO.C,U1*
X119082776Y-72334323D02*
X118066400Y-71523781D01*
D14*
G04 #@! TO.P,U1,3*
G04 #@! TO.N,Net-(U1-Pad3)*
X117654474Y-73839664D03*
D16*
G04 #@! TD*
G04 #@! TO.N,Net-(U1-Pad3)*
G04 #@! TO.C,U1*
X118288176Y-73984306D02*
X117020772Y-73695022D01*
D14*
G04 #@! TO.P,U1,4*
G04 #@! TO.N,Net-(U1-Pad4)*
X117654463Y-75960290D03*
D16*
G04 #@! TD*
G04 #@! TO.N,Net-(U1-Pad4)*
G04 #@! TO.C,U1*
X118288167Y-75815655D02*
X117020759Y-76104925D01*
D14*
G04 #@! TO.P,U1,5*
G04 #@! TO.N,Net-(U1-Pad5)*
X118574558Y-77870910D03*
D16*
G04 #@! TD*
G04 #@! TO.N,Net-(U1-Pad5)*
G04 #@! TO.C,U1*
X119082750Y-77465644D02*
X118066366Y-78276176D01*
D14*
G04 #@! TO.P,U1,6*
G04 #@! TO.N,Net-(U1-Pad6)*
X120232523Y-79193106D03*
D16*
G04 #@! TD*
G04 #@! TO.N,Net-(U1-Pad6)*
G04 #@! TO.C,U1*
X120514550Y-78607478D02*
X119950496Y-79778734D01*
D14*
G04 #@! TO.P,U1,7*
G04 #@! TO.N,Net-(U1-Pad7)*
X122299976Y-79665000D03*
D16*
G04 #@! TD*
G04 #@! TO.N,Net-(U1-Pad7)*
G04 #@! TO.C,U1*
X122299979Y-79015000D02*
X122299973Y-80315000D01*
D14*
G04 #@! TO.P,U1,8*
G04 #@! TO.N,Net-(U1-Pad8)*
X124367435Y-79193127D03*
D16*
G04 #@! TD*
G04 #@! TO.N,Net-(U1-Pad8)*
G04 #@! TO.C,U1*
X124085413Y-78607496D02*
X124649457Y-79778758D01*
D14*
G04 #@! TO.P,U1,9*
G04 #@! TO.N,Net-(U1-Pad9)*
X126025412Y-77870948D03*
D16*
G04 #@! TD*
G04 #@! TO.N,Net-(U1-Pad9)*
G04 #@! TO.C,U1*
X125517224Y-77465677D02*
X126533600Y-78276219D01*
D14*
G04 #@! TO.P,U1,10*
G04 #@! TO.N,Net-(U1-Pad10)*
X126945526Y-75960336D03*
D16*
G04 #@! TD*
G04 #@! TO.N,Net-(U1-Pad10)*
G04 #@! TO.C,U1*
X126311824Y-75815694D02*
X127579228Y-76104978D01*
D14*
G04 #@! TO.P,U1,11*
G04 #@! TO.N,Net-(U1-Pad11)*
X126945537Y-73839710D03*
D16*
G04 #@! TD*
G04 #@! TO.N,Net-(U1-Pad11)*
G04 #@! TO.C,U1*
X126311833Y-73984345D02*
X127579241Y-73695075D01*
D14*
G04 #@! TO.P,U1,12*
G04 #@! TO.N,Net-(U1-Pad12)*
X126025442Y-71929090D03*
D16*
G04 #@! TD*
G04 #@! TO.N,Net-(U1-Pad12)*
G04 #@! TO.C,U1*
X125517250Y-72334356D02*
X126533634Y-71523824D01*
D14*
G04 #@! TO.P,U1,13*
G04 #@! TO.N,Net-(R1-Pad2)*
X124367477Y-70606894D03*
D16*
G04 #@! TD*
G04 #@! TO.N,Net-(R1-Pad2)*
G04 #@! TO.C,U1*
X124085450Y-71192522D02*
X124649504Y-70021266D01*
D13*
G04 #@! TO.P,R1,1*
G04 #@! TO.N,180V*
X126000000Y-66550000D03*
G04 #@! TO.P,R1,2*
G04 #@! TO.N,Net-(R1-Pad2)*
X124500000Y-66550000D03*
G04 #@! TD*
D12*
G04 #@! TO.P,U2,1*
G04 #@! TO.N,Net-(U1-Pad9)*
X126100000Y-105820000D03*
G04 #@! TO.P,U2,2*
G04 #@! TO.N,Net-(U1-Pad11)*
X126100000Y-103280000D03*
G04 #@! TO.P,U2,3*
G04 #@! TO.N,Net-(U2-Pad3)*
X126100000Y-100740000D03*
G04 #@! TO.P,U2,4*
G04 #@! TO.N,Net-(U2-Pad4)*
X126100000Y-98200000D03*
G04 #@! TO.P,U2,5*
G04 #@! TO.N,+5V*
X126100000Y-95660000D03*
G04 #@! TO.P,U2,6*
G04 #@! TO.N,Net-(U2-Pad6)*
X126100000Y-93120000D03*
G04 #@! TO.P,U2,7*
G04 #@! TO.N,Net-(U2-Pad7)*
X126100000Y-90580000D03*
G04 #@! TO.P,U2,8*
G04 #@! TO.N,Net-(U1-Pad2)*
X126100000Y-88040000D03*
G04 #@! TO.P,U2,9*
G04 #@! TO.N,Net-(U1-Pad3)*
X118480000Y-88040000D03*
G04 #@! TO.P,U2,10*
G04 #@! TO.N,Net-(U1-Pad8)*
X118480000Y-90580000D03*
G04 #@! TO.P,U2,11*
G04 #@! TO.N,Net-(U1-Pad7)*
X118480000Y-93120000D03*
G04 #@! TO.P,U2,12*
G04 #@! TO.N,GND*
X118480000Y-95660000D03*
G04 #@! TO.P,U2,13*
G04 #@! TO.N,Net-(U1-Pad5)*
X118480000Y-98200000D03*
G04 #@! TO.P,U2,14*
G04 #@! TO.N,Net-(U1-Pad6)*
X118480000Y-100740000D03*
G04 #@! TO.P,U2,15*
G04 #@! TO.N,Net-(U1-Pad1)*
X118480000Y-103280000D03*
G04 #@! TO.P,U2,16*
G04 #@! TO.N,Net-(U1-Pad12)*
X118480000Y-105820000D03*
G04 #@! TD*
D19*
G04 #@! TO.P,P3,1*
G04 #@! TO.N,180V*
X128400000Y-66100000D03*
G04 #@! TD*
D11*
G04 #@! TO.N,GND*
G04 #@! TO.C,REF\002A\002A*
X129680000Y-84800000D03*
G04 #@! TD*
D20*
G04 #@! TO.P,R3,1*
G04 #@! TO.N,180V*
X179720000Y-65820000D03*
G04 #@! TO.P,R3,2*
G04 #@! TO.N,Net-(R3-Pad2)*
X179720000Y-67320000D03*
G04 #@! TD*
D13*
G04 #@! TO.P,R4,1*
G04 #@! TO.N,180V*
X202150000Y-68100000D03*
G04 #@! TO.P,R4,2*
G04 #@! TO.N,Net-(R4-Pad2)*
X203650000Y-68100000D03*
G04 #@! TD*
D14*
G04 #@! TO.P,U7,1*
G04 #@! TO.N,Net-(U7-Pad1)*
X174432565Y-70706873D03*
D15*
G04 #@! TD*
G04 #@! TO.N,Net-(U7-Pad1)*
G04 #@! TO.C,U7*
G36*
X175515497Y-71572759D02*
X174434331Y-72093414D01*
X173349633Y-69840987D01*
X174430799Y-69320332D01*
X175515497Y-71572759D01*
X175515497Y-71572759D01*
G37*
D14*
G04 #@! TO.P,U7,2*
G04 #@! TO.N,Net-(U7-Pad2)*
X172774588Y-72029052D03*
D16*
G04 #@! TD*
G04 #@! TO.N,Net-(U7-Pad2)*
G04 #@! TO.C,U7*
X173282776Y-72434323D02*
X172266400Y-71623781D01*
D14*
G04 #@! TO.P,U7,3*
G04 #@! TO.N,Net-(U7-Pad3)*
X171854474Y-73939664D03*
D16*
G04 #@! TD*
G04 #@! TO.N,Net-(U7-Pad3)*
G04 #@! TO.C,U7*
X172488176Y-74084306D02*
X171220772Y-73795022D01*
D14*
G04 #@! TO.P,U7,4*
G04 #@! TO.N,Net-(U7-Pad4)*
X171854463Y-76060290D03*
D16*
G04 #@! TD*
G04 #@! TO.N,Net-(U7-Pad4)*
G04 #@! TO.C,U7*
X172488167Y-75915655D02*
X171220759Y-76204925D01*
D14*
G04 #@! TO.P,U7,5*
G04 #@! TO.N,Net-(U7-Pad5)*
X172774558Y-77970910D03*
D16*
G04 #@! TD*
G04 #@! TO.N,Net-(U7-Pad5)*
G04 #@! TO.C,U7*
X173282750Y-77565644D02*
X172266366Y-78376176D01*
D14*
G04 #@! TO.P,U7,6*
G04 #@! TO.N,Net-(U7-Pad6)*
X174432523Y-79293106D03*
D16*
G04 #@! TD*
G04 #@! TO.N,Net-(U7-Pad6)*
G04 #@! TO.C,U7*
X174714550Y-78707478D02*
X174150496Y-79878734D01*
D14*
G04 #@! TO.P,U7,7*
G04 #@! TO.N,Net-(U7-Pad7)*
X176499976Y-79765000D03*
D16*
G04 #@! TD*
G04 #@! TO.N,Net-(U7-Pad7)*
G04 #@! TO.C,U7*
X176499979Y-79115000D02*
X176499973Y-80415000D01*
D14*
G04 #@! TO.P,U7,8*
G04 #@! TO.N,Net-(U7-Pad8)*
X178567435Y-79293127D03*
D16*
G04 #@! TD*
G04 #@! TO.N,Net-(U7-Pad8)*
G04 #@! TO.C,U7*
X178285413Y-78707496D02*
X178849457Y-79878758D01*
D14*
G04 #@! TO.P,U7,9*
G04 #@! TO.N,Net-(U7-Pad9)*
X180225412Y-77970948D03*
D16*
G04 #@! TD*
G04 #@! TO.N,Net-(U7-Pad9)*
G04 #@! TO.C,U7*
X179717224Y-77565677D02*
X180733600Y-78376219D01*
D14*
G04 #@! TO.P,U7,10*
G04 #@! TO.N,Net-(U7-Pad10)*
X181145526Y-76060336D03*
D16*
G04 #@! TD*
G04 #@! TO.N,Net-(U7-Pad10)*
G04 #@! TO.C,U7*
X180511824Y-75915694D02*
X181779228Y-76204978D01*
D14*
G04 #@! TO.P,U7,11*
G04 #@! TO.N,Net-(U7-Pad11)*
X181145537Y-73939710D03*
D16*
G04 #@! TD*
G04 #@! TO.N,Net-(U7-Pad11)*
G04 #@! TO.C,U7*
X180511833Y-74084345D02*
X181779241Y-73795075D01*
D14*
G04 #@! TO.P,U7,12*
G04 #@! TO.N,Net-(U7-Pad12)*
X180225442Y-72029090D03*
D16*
G04 #@! TD*
G04 #@! TO.N,Net-(U7-Pad12)*
G04 #@! TO.C,U7*
X179717250Y-72434356D02*
X180733634Y-71623824D01*
D14*
G04 #@! TO.P,U7,13*
G04 #@! TO.N,Net-(R3-Pad2)*
X178567477Y-70706894D03*
D16*
G04 #@! TD*
G04 #@! TO.N,Net-(R3-Pad2)*
G04 #@! TO.C,U7*
X178285450Y-71292522D02*
X178849504Y-70121266D01*
D21*
G04 #@! TO.P,U8,1*
G04 #@! TO.N,Net-(U7-Pad9)*
X180300000Y-105880000D03*
D22*
G04 #@! TO.P,U8,9*
G04 #@! TO.N,Net-(U7-Pad3)*
X172680000Y-88100000D03*
G04 #@! TO.P,U8,2*
G04 #@! TO.N,Net-(U7-Pad11)*
X180300000Y-103340000D03*
G04 #@! TO.P,U8,10*
G04 #@! TO.N,Net-(U7-Pad8)*
X172680000Y-90640000D03*
G04 #@! TO.P,U8,3*
G04 #@! TO.N,Net-(U8-Pad3)*
X180300000Y-100800000D03*
G04 #@! TO.P,U8,11*
G04 #@! TO.N,Net-(U7-Pad7)*
X172680000Y-93180000D03*
G04 #@! TO.P,U8,4*
G04 #@! TO.N,Net-(U8-Pad4)*
X180300000Y-98260000D03*
G04 #@! TO.P,U8,12*
G04 #@! TO.N,GND*
X172680000Y-95720000D03*
G04 #@! TO.P,U8,5*
G04 #@! TO.N,+5V*
X180300000Y-95720000D03*
G04 #@! TO.P,U8,13*
G04 #@! TO.N,Net-(U7-Pad5)*
X172680000Y-98260000D03*
G04 #@! TO.P,U8,6*
G04 #@! TO.N,Net-(U8-Pad6)*
X180300000Y-93180000D03*
G04 #@! TO.P,U8,14*
G04 #@! TO.N,Net-(U7-Pad6)*
X172680000Y-100800000D03*
G04 #@! TO.P,U8,7*
G04 #@! TO.N,Net-(U8-Pad7)*
X180300000Y-90640000D03*
G04 #@! TO.P,U8,15*
G04 #@! TO.N,Net-(U7-Pad1)*
X172680000Y-103340000D03*
G04 #@! TO.P,U8,8*
G04 #@! TO.N,Net-(U7-Pad2)*
X180300000Y-88100000D03*
G04 #@! TO.P,U8,16*
G04 #@! TO.N,Net-(U7-Pad12)*
X172680000Y-105880000D03*
G04 #@! TD*
D14*
G04 #@! TO.P,U10,1*
G04 #@! TO.N,Net-(U10-Pad1)*
X198432565Y-70706873D03*
D15*
G04 #@! TD*
G04 #@! TO.N,Net-(U10-Pad1)*
G04 #@! TO.C,U10*
G36*
X199515497Y-71572759D02*
X198434331Y-72093414D01*
X197349633Y-69840987D01*
X198430799Y-69320332D01*
X199515497Y-71572759D01*
X199515497Y-71572759D01*
G37*
D14*
G04 #@! TO.P,U10,2*
G04 #@! TO.N,Net-(U10-Pad2)*
X196774588Y-72029052D03*
D16*
G04 #@! TD*
G04 #@! TO.N,Net-(U10-Pad2)*
G04 #@! TO.C,U10*
X197282776Y-72434323D02*
X196266400Y-71623781D01*
D14*
G04 #@! TO.P,U10,3*
G04 #@! TO.N,Net-(U10-Pad3)*
X195854474Y-73939664D03*
D16*
G04 #@! TD*
G04 #@! TO.N,Net-(U10-Pad3)*
G04 #@! TO.C,U10*
X196488176Y-74084306D02*
X195220772Y-73795022D01*
D14*
G04 #@! TO.P,U10,4*
G04 #@! TO.N,Net-(U10-Pad4)*
X195854463Y-76060290D03*
D16*
G04 #@! TD*
G04 #@! TO.N,Net-(U10-Pad4)*
G04 #@! TO.C,U10*
X196488167Y-75915655D02*
X195220759Y-76204925D01*
D14*
G04 #@! TO.P,U10,5*
G04 #@! TO.N,Net-(U10-Pad5)*
X196774558Y-77970910D03*
D16*
G04 #@! TD*
G04 #@! TO.N,Net-(U10-Pad5)*
G04 #@! TO.C,U10*
X197282750Y-77565644D02*
X196266366Y-78376176D01*
D14*
G04 #@! TO.P,U10,6*
G04 #@! TO.N,Net-(U10-Pad6)*
X198432523Y-79293106D03*
D16*
G04 #@! TD*
G04 #@! TO.N,Net-(U10-Pad6)*
G04 #@! TO.C,U10*
X198714550Y-78707478D02*
X198150496Y-79878734D01*
D14*
G04 #@! TO.P,U10,7*
G04 #@! TO.N,Net-(U10-Pad7)*
X200499976Y-79765000D03*
D16*
G04 #@! TD*
G04 #@! TO.N,Net-(U10-Pad7)*
G04 #@! TO.C,U10*
X200499979Y-79115000D02*
X200499973Y-80415000D01*
D14*
G04 #@! TO.P,U10,8*
G04 #@! TO.N,Net-(U10-Pad8)*
X202567435Y-79293127D03*
D16*
G04 #@! TD*
G04 #@! TO.N,Net-(U10-Pad8)*
G04 #@! TO.C,U10*
X202285413Y-78707496D02*
X202849457Y-79878758D01*
D14*
G04 #@! TO.P,U10,9*
G04 #@! TO.N,Net-(U10-Pad9)*
X204225412Y-77970948D03*
D16*
G04 #@! TD*
G04 #@! TO.N,Net-(U10-Pad9)*
G04 #@! TO.C,U10*
X203717224Y-77565677D02*
X204733600Y-78376219D01*
D14*
G04 #@! TO.P,U10,10*
G04 #@! TO.N,Net-(U10-Pad10)*
X205145526Y-76060336D03*
D16*
G04 #@! TD*
G04 #@! TO.N,Net-(U10-Pad10)*
G04 #@! TO.C,U10*
X204511824Y-75915694D02*
X205779228Y-76204978D01*
D14*
G04 #@! TO.P,U10,11*
G04 #@! TO.N,Net-(U10-Pad11)*
X205145537Y-73939710D03*
D16*
G04 #@! TD*
G04 #@! TO.N,Net-(U10-Pad11)*
G04 #@! TO.C,U10*
X204511833Y-74084345D02*
X205779241Y-73795075D01*
D14*
G04 #@! TO.P,U10,12*
G04 #@! TO.N,Net-(U10-Pad12)*
X204225442Y-72029090D03*
D16*
G04 #@! TD*
G04 #@! TO.N,Net-(U10-Pad12)*
G04 #@! TO.C,U10*
X203717250Y-72434356D02*
X204733634Y-71623824D01*
D14*
G04 #@! TO.P,U10,13*
G04 #@! TO.N,Net-(R4-Pad2)*
X202567477Y-70706894D03*
D16*
G04 #@! TD*
G04 #@! TO.N,Net-(R4-Pad2)*
G04 #@! TO.C,U10*
X202285450Y-71292522D02*
X202849504Y-70121266D01*
D21*
G04 #@! TO.P,U11,1*
G04 #@! TO.N,Net-(U10-Pad9)*
X208450000Y-105830000D03*
D22*
G04 #@! TO.P,U11,9*
G04 #@! TO.N,Net-(U10-Pad3)*
X200830000Y-88050000D03*
G04 #@! TO.P,U11,2*
G04 #@! TO.N,Net-(U10-Pad11)*
X208450000Y-103290000D03*
G04 #@! TO.P,U11,10*
G04 #@! TO.N,Net-(U10-Pad8)*
X200830000Y-90590000D03*
G04 #@! TO.P,U11,3*
G04 #@! TO.N,Net-(U11-Pad3)*
X208450000Y-100750000D03*
G04 #@! TO.P,U11,11*
G04 #@! TO.N,Net-(U10-Pad7)*
X200830000Y-93130000D03*
G04 #@! TO.P,U11,4*
G04 #@! TO.N,Net-(U11-Pad4)*
X208450000Y-98210000D03*
G04 #@! TO.P,U11,12*
G04 #@! TO.N,GND*
X200830000Y-95670000D03*
G04 #@! TO.P,U11,5*
G04 #@! TO.N,+5V*
X208450000Y-95670000D03*
G04 #@! TO.P,U11,13*
G04 #@! TO.N,Net-(U10-Pad5)*
X200830000Y-98210000D03*
G04 #@! TO.P,U11,6*
G04 #@! TO.N,Net-(U11-Pad6)*
X208450000Y-93130000D03*
G04 #@! TO.P,U11,14*
G04 #@! TO.N,Net-(U10-Pad6)*
X200830000Y-100750000D03*
G04 #@! TO.P,U11,7*
G04 #@! TO.N,Net-(U11-Pad7)*
X208450000Y-90590000D03*
G04 #@! TO.P,U11,15*
G04 #@! TO.N,Net-(U10-Pad1)*
X200830000Y-103290000D03*
G04 #@! TO.P,U11,8*
G04 #@! TO.N,Net-(U10-Pad2)*
X208450000Y-88050000D03*
G04 #@! TO.P,U11,16*
G04 #@! TO.N,Net-(U10-Pad12)*
X200830000Y-105830000D03*
G04 #@! TD*
D17*
G04 #@! TO.P,P1,1*
G04 #@! TO.N,Net-(P1-Pad1)*
X139240000Y-86770000D03*
G04 #@! TD*
G04 #@! TO.P,J1,1*
G04 #@! TO.N,+5V*
X187280000Y-88400000D03*
D18*
G04 #@! TO.P,J1,2*
G04 #@! TO.N,GND*
X187280000Y-85860000D03*
G04 #@! TO.P,J1,3*
G04 #@! TO.N,SHIFT_SERIAL_CLOCK*
X187280000Y-83320000D03*
G04 #@! TO.P,J1,4*
G04 #@! TO.N,SHIFT_LATCH_CLOCK*
X187280000Y-80780000D03*
G04 #@! TO.P,J1,5*
G04 #@! TO.N,SHIFT_SER_DATA*
X187280000Y-78240000D03*
G04 #@! TD*
D20*
G04 #@! TO.P,R5,1*
G04 #@! TO.N,180V*
X161600000Y-70250000D03*
G04 #@! TO.P,R5,2*
G04 #@! TO.N,Net-(J2-Pad1)*
X161600000Y-71750000D03*
G04 #@! TD*
D11*
G04 #@! TO.N,Net-(U1-Pad5)*
X116554314Y-85954314D03*
G04 #@! TO.N,Net-(U2-Pad4)*
X130700000Y-97800000D03*
G04 #@! TO.N,+5V*
X163300000Y-108250000D03*
X190800000Y-103300000D03*
X190300000Y-92800000D03*
X138370000Y-103240000D03*
X136780000Y-92850000D03*
G04 #@! TO.N,Net-(U3-Pad4)*
X138470000Y-99140000D03*
X130700000Y-96500000D03*
G04 #@! TO.N,Net-(U3-Pad5)*
X158500000Y-98500000D03*
X139390000Y-103280000D03*
X130700000Y-95300000D03*
G04 #@! TO.N,Net-(U3-Pad6)*
X140390000Y-103280000D03*
X130700000Y-94000000D03*
G04 #@! TO.N,Net-(U3-Pad7)*
X141380000Y-103280000D03*
X130700000Y-92700000D03*
G04 #@! TO.N,Net-(U4-Pad5)*
X143050000Y-83750000D03*
G04 #@! TO.N,SHIFT_SERIAL_CLOCK*
X138370000Y-70190000D03*
X137630000Y-92120000D03*
X183650000Y-68440000D03*
G04 #@! TO.N,SHIFT_LATCH_CLOCK*
X182450000Y-68410000D03*
G04 #@! TO.N,SHIFT_OUT*
X185820000Y-98680000D03*
X137290000Y-99890000D03*
G04 #@! TO.N,Net-(U7-Pad5)*
X170150000Y-85700000D03*
G04 #@! TO.N,Net-(U8-Pad4)*
X185000000Y-97900000D03*
G04 #@! TO.N,Net-(U10-Pad5)*
X196850000Y-83450000D03*
G04 #@! TO.N,Net-(U11-Pad3)*
X191750000Y-100100000D03*
X184950000Y-96700000D03*
G04 #@! TO.N,Net-(U11-Pad4)*
X194650000Y-103200000D03*
X185000000Y-92900000D03*
G04 #@! TO.N,Net-(U11-Pad6)*
X211900010Y-95600000D03*
X192650000Y-103300000D03*
X185050000Y-95450000D03*
G04 #@! TO.N,Net-(U11-Pad7)*
X193700000Y-103250000D03*
X185000000Y-94200000D03*
G04 #@! TD*
D23*
G04 #@! TO.N,180V*
X136400001Y-65499999D02*
X161630000Y-65499999D01*
X161630000Y-65499999D02*
X179750000Y-65499999D01*
X161610000Y-65519999D02*
X161630000Y-65499999D01*
X179750000Y-65499999D02*
X198299999Y-65499999D01*
D24*
X179720000Y-65820000D02*
X179720000Y-65529999D01*
X179720000Y-65529999D02*
X179750000Y-65499999D01*
D23*
X200900000Y-68100000D02*
X202150000Y-68100000D01*
X198299999Y-65499999D02*
X200900000Y-68100000D01*
X135800000Y-66100000D02*
X136400001Y-65499999D01*
X135800000Y-66100000D02*
X136950000Y-67250000D01*
X136950000Y-67250000D02*
X139000000Y-67250000D01*
D25*
X202150000Y-68100000D02*
X202150000Y-67900000D01*
D23*
X128400000Y-66100000D02*
X135800000Y-66100000D01*
X128400000Y-66100000D02*
X126450000Y-66100000D01*
X126450000Y-66100000D02*
X126000000Y-66550000D01*
X128650000Y-66350000D02*
X128400000Y-66100000D01*
D24*
X161630000Y-69370000D02*
X161630000Y-65499999D01*
X161600000Y-69400000D02*
X161630000Y-69370000D01*
X161600000Y-70250000D02*
X161600000Y-69400000D01*
D25*
G04 #@! TO.N,Net-(R1-Pad2)*
X124500000Y-66550000D02*
X124500000Y-70474371D01*
X124500000Y-70474371D02*
X124367477Y-70606894D01*
D24*
G04 #@! TO.N,Net-(R2-Pad2)*
X144910583Y-67250000D02*
X140500000Y-67250000D01*
X148317477Y-70656894D02*
X144910583Y-67250000D01*
G04 #@! TO.N,Net-(U1-Pad1)*
X118480000Y-103280000D02*
X116730000Y-103280000D01*
X118000261Y-69599729D02*
X119225421Y-69599729D01*
X116730000Y-103280000D02*
X115754304Y-102304304D01*
X115754304Y-102304304D02*
X115754304Y-85045688D01*
X115754304Y-85045688D02*
X114699990Y-83991374D01*
X119225421Y-69599729D02*
X120232565Y-70606873D01*
X114699990Y-83991374D02*
X114699990Y-72900000D01*
X114699990Y-72900000D02*
X118000261Y-69599729D01*
G04 #@! TO.N,Net-(U1-Pad3)*
X115500000Y-74680162D02*
X115500000Y-83660000D01*
X115500000Y-83660000D02*
X118480000Y-86640000D01*
X118480000Y-86640000D02*
X118480000Y-88040000D01*
X117654474Y-73839664D02*
X116340498Y-73839664D01*
X116340498Y-73839664D02*
X115500000Y-74680162D01*
G04 #@! TO.N,Net-(U1-Pad5)*
X116554314Y-85954314D02*
X116554314Y-96624314D01*
X116554314Y-96624314D02*
X118130000Y-98200000D01*
X118130000Y-98200000D02*
X118480000Y-98200000D01*
G04 #@! TO.N,Net-(U1-Pad8)*
X118480000Y-90580000D02*
X118830000Y-90580000D01*
X121600000Y-87810000D02*
X121600000Y-85265686D01*
X118830000Y-90580000D02*
X121600000Y-87810000D01*
X121600000Y-85265686D02*
X124367435Y-82498251D01*
X124367435Y-82498251D02*
X124367435Y-79193127D01*
G04 #@! TO.N,Net-(U1-Pad9)*
X122400010Y-101550000D02*
X122400010Y-91870000D01*
X126100000Y-105820000D02*
X125750000Y-105820000D01*
X125750000Y-105820000D02*
X122400010Y-102470010D01*
X122400010Y-102470010D02*
X122400010Y-101550000D01*
X122400010Y-85597060D02*
X122400010Y-91870000D01*
X122400010Y-91870000D02*
X122400010Y-92140000D01*
X126025412Y-77870948D02*
X126025412Y-81971658D01*
X126025412Y-81971658D02*
X122400010Y-85597060D01*
D23*
X125980000Y-105700000D02*
X126100000Y-105820000D01*
D24*
G04 #@! TO.N,Net-(U1-Pad11)*
X126100000Y-103280000D02*
X125750000Y-103280000D01*
X123200020Y-100730020D02*
X123200020Y-85928434D01*
X125750000Y-103280000D02*
X123200020Y-100730020D01*
X123200020Y-85928434D02*
X129100000Y-80028454D01*
X129100000Y-80028454D02*
X129100000Y-74680194D01*
X129100000Y-74680194D02*
X128259516Y-73839710D01*
X128259516Y-73839710D02*
X126945537Y-73839710D01*
D26*
G04 #@! TO.N,Net-(U2-Pad3)*
X126100000Y-100740000D02*
X126450000Y-100740000D01*
G04 #@! TO.N,Net-(U2-Pad4)*
X130700000Y-97800000D02*
X126500000Y-97800000D01*
X126500000Y-97800000D02*
X126100000Y-98200000D01*
G04 #@! TO.N,+5V*
X184220000Y-92200000D02*
X187280000Y-92200000D01*
X187280000Y-92200000D02*
X190250000Y-92200000D01*
X187280000Y-88400000D02*
X187280000Y-92200000D01*
X135929999Y-91999999D02*
X130110001Y-91999999D01*
D25*
X156950000Y-101900000D02*
X156950000Y-98020000D01*
X156950000Y-98020000D02*
X154550000Y-95620000D01*
X154550000Y-95620000D02*
X154200000Y-95620000D01*
X163300000Y-108250000D02*
X156950000Y-101900000D01*
D26*
X142080001Y-105800000D02*
X144680001Y-108400000D01*
X144680001Y-108400000D02*
X154700000Y-108400000D01*
X154700000Y-108400000D02*
X156950000Y-106150000D01*
X156950000Y-106150000D02*
X156950000Y-101900000D01*
D23*
X154200000Y-95620000D02*
X154220000Y-95600000D01*
D26*
X191425736Y-104350000D02*
X194450000Y-104350000D01*
X194450000Y-104350000D02*
X195450000Y-105350000D01*
X190800000Y-103300000D02*
X190800000Y-103724264D01*
X190800000Y-103724264D02*
X191425736Y-104350000D01*
X190900000Y-92850000D02*
X195450000Y-97400000D01*
X190250000Y-92200000D02*
X190900000Y-92850000D01*
X190900000Y-92850000D02*
X190350000Y-92850000D01*
X190350000Y-92850000D02*
X190300000Y-92800000D01*
X180300000Y-95720000D02*
X180700000Y-95720000D01*
X210650000Y-97470000D02*
X208850000Y-95670000D01*
X180700000Y-95720000D02*
X184220000Y-92200000D01*
X209150000Y-108850000D02*
X210650000Y-107350000D01*
X195450000Y-97400000D02*
X195450000Y-105350000D01*
X195450000Y-105350000D02*
X198950000Y-108850000D01*
X198950000Y-108850000D02*
X209150000Y-108850000D01*
X208850000Y-95670000D02*
X208450000Y-95670000D01*
X210650000Y-107350000D02*
X210650000Y-97470000D01*
X138370000Y-103240000D02*
X138370000Y-103664264D01*
X138370000Y-103664264D02*
X138685737Y-103980001D01*
X138685737Y-103980001D02*
X140260002Y-103980001D01*
X140260002Y-103980001D02*
X142080001Y-105800000D01*
X142080001Y-98150001D02*
X142080001Y-105800000D01*
X136780000Y-92850000D02*
X142080001Y-98150001D01*
X136780000Y-92850000D02*
X135929999Y-91999999D01*
X130110001Y-91999999D02*
X126450000Y-95660000D01*
X126450000Y-95660000D02*
X126100000Y-95660000D01*
G04 #@! TO.N,Net-(U3-Pad4)*
X135690000Y-96500000D02*
X130700000Y-96500000D01*
X138470000Y-99140000D02*
X135830000Y-96500000D01*
X135830000Y-96500000D02*
X135690000Y-96500000D01*
G04 #@! TO.N,Net-(U3-Pad5)*
X158500000Y-98500000D02*
X158500000Y-97030000D01*
X158500000Y-97030000D02*
X154550000Y-93080000D01*
X154550000Y-93080000D02*
X154200000Y-93080000D01*
X139160000Y-97917046D02*
X139390000Y-98147046D01*
X139390000Y-98147046D02*
X139390000Y-103280000D01*
X130700000Y-95300000D02*
X136542954Y-95300000D01*
X136542954Y-95300000D02*
X139160000Y-97917046D01*
G04 #@! TO.N,Net-(U3-Pad6)*
X136091496Y-94000000D02*
X140390000Y-98298504D01*
X140390000Y-98298504D02*
X140390000Y-103280000D01*
X130700000Y-94000000D02*
X136091496Y-94000000D01*
G04 #@! TO.N,Net-(U3-Pad7)*
X141370000Y-98429962D02*
X141370000Y-103270000D01*
X141370000Y-103270000D02*
X141380000Y-103280000D01*
X130700000Y-92700000D02*
X135640038Y-92700000D01*
X135640038Y-92700000D02*
X141370000Y-98429962D01*
D24*
G04 #@! TO.N,Net-(U4-Pad1)*
X143299990Y-96550000D02*
X143299990Y-85555638D01*
X144750000Y-101760000D02*
X144750000Y-98000010D01*
X144750000Y-98000010D02*
X143299990Y-96550000D01*
X146230000Y-103240000D02*
X144750000Y-101760000D01*
X138399990Y-72200010D02*
X140950271Y-69649729D01*
X146580000Y-103240000D02*
X146230000Y-103240000D01*
X143299990Y-85555638D02*
X138399990Y-80655638D01*
X138399990Y-80655638D02*
X138399990Y-72200010D01*
X140950271Y-69649729D02*
X143175421Y-69649729D01*
X143175421Y-69649729D02*
X144182565Y-70656873D01*
X146580000Y-103240000D02*
X146580000Y-102888491D01*
G04 #@! TO.N,Net-(U4-Pad3)*
X139200000Y-78450000D02*
X146580000Y-85830000D01*
X146580000Y-85830000D02*
X146580000Y-88000000D01*
X139200000Y-74980162D02*
X139200000Y-78450000D01*
X141604474Y-73889664D02*
X140290498Y-73889664D01*
X140290498Y-73889664D02*
X139200000Y-74980162D01*
G04 #@! TO.N,Net-(U4-Pad5)*
X144100000Y-85224264D02*
X144100000Y-96030000D01*
X146230000Y-98160000D02*
X146580000Y-98160000D01*
X144100000Y-96030000D02*
X146230000Y-98160000D01*
X143050000Y-83750000D02*
X143050000Y-84174264D01*
X143050000Y-84174264D02*
X144100000Y-85224264D01*
G04 #@! TO.N,Net-(U4-Pad7)*
X146580000Y-93080000D02*
X146930000Y-93080000D01*
X146930000Y-93080000D02*
X148650000Y-91360000D01*
X148650000Y-91360000D02*
X148650000Y-82115024D01*
X148650000Y-82115024D02*
X146249976Y-79715000D01*
G04 #@! TO.N,Net-(U4-Pad9)*
X149975412Y-77920948D02*
X149975412Y-101905412D01*
X149975412Y-101905412D02*
X151099990Y-103029990D01*
X151099990Y-103029990D02*
X153850000Y-105780000D01*
X153850000Y-105780000D02*
X154200000Y-105780000D01*
G04 #@! TO.N,Net-(U4-Pad11)*
X150950000Y-80500000D02*
X150950000Y-100450000D01*
X150950000Y-100450000D02*
X151900000Y-101400000D01*
X153550000Y-77900000D02*
X150950000Y-80500000D01*
X153550000Y-75150000D02*
X153550000Y-77900000D01*
X152289710Y-73889710D02*
X153550000Y-75150000D01*
X150895537Y-73889710D02*
X152289710Y-73889710D01*
X154200000Y-103240000D02*
X153740000Y-103240000D01*
X153740000Y-103240000D02*
X151900000Y-101400000D01*
D26*
G04 #@! TO.N,SHIFT_SERIAL_CLOCK*
X137630000Y-92120000D02*
X137630000Y-70930000D01*
X137630000Y-70930000D02*
X138370000Y-70190000D01*
X187280000Y-83320000D02*
X189130010Y-81469990D01*
X189130010Y-81469990D02*
X189130010Y-73920010D01*
X189130010Y-73920010D02*
X183650000Y-68440000D01*
G04 #@! TO.N,SHIFT_LATCH_CLOCK*
X187280000Y-80780000D02*
X188530001Y-79529999D01*
X188530001Y-79529999D02*
X188530001Y-74490001D01*
X188530001Y-74490001D02*
X182450000Y-68410000D01*
G04 #@! TO.N,SHIFT_OUT*
X180569992Y-109050008D02*
X185820000Y-103800000D01*
X185820000Y-103800000D02*
X185820000Y-98680000D01*
X137290000Y-99890000D02*
X137290000Y-103432806D01*
X137290000Y-103432806D02*
X142907202Y-109050008D01*
X142907202Y-109050008D02*
X180569992Y-109050008D01*
D24*
G04 #@! TO.N,Net-(R3-Pad2)*
X179750000Y-69524371D02*
X179720000Y-69494371D01*
X179720000Y-69494371D02*
X179720000Y-67320000D01*
X179750000Y-69524371D02*
X178567477Y-70706894D01*
G04 #@! TO.N,Net-(R4-Pad2)*
X203650000Y-69624371D02*
X203650000Y-68100000D01*
X202567477Y-70706894D02*
X203650000Y-69624371D01*
G04 #@! TO.N,Net-(U7-Pad1)*
X172680000Y-103340000D02*
X170880000Y-103340000D01*
X170880000Y-103340000D02*
X168999990Y-101459990D01*
X168999990Y-101459990D02*
X168999990Y-72350010D01*
X168999990Y-72350010D02*
X171850000Y-69500000D01*
X171850000Y-69500000D02*
X173225692Y-69500000D01*
X173225692Y-69500000D02*
X174432565Y-70706873D01*
G04 #@! TO.N,Net-(U7-Pad3)*
X169800000Y-74400000D02*
X169800000Y-83820000D01*
X169800000Y-83820000D02*
X172680000Y-86700000D01*
X172680000Y-86700000D02*
X172680000Y-88100000D01*
X170260336Y-73939664D02*
X169800000Y-74400000D01*
X171854474Y-73939664D02*
X170260336Y-73939664D01*
G04 #@! TO.N,Net-(U7-Pad5)*
X170150000Y-85700000D02*
X170150000Y-96130000D01*
X170150000Y-96130000D02*
X172280000Y-98260000D01*
X172280000Y-98260000D02*
X172680000Y-98260000D01*
G04 #@! TO.N,Net-(U7-Pad8)*
X175949980Y-86287252D02*
X175949980Y-87770020D01*
X175949980Y-87770020D02*
X173080000Y-90640000D01*
X173080000Y-90640000D02*
X172680000Y-90640000D01*
X178567435Y-79293127D02*
X178567435Y-83669797D01*
X178567435Y-83669797D02*
X175949980Y-86287252D01*
G04 #@! TO.N,Net-(U7-Pad9)*
X180225412Y-77970948D02*
X180225412Y-83143204D01*
X180225412Y-83143204D02*
X176749990Y-86618626D01*
X176749990Y-86618626D02*
X176749990Y-102729990D01*
X176749990Y-102729990D02*
X179900000Y-105880000D01*
X179900000Y-105880000D02*
X180300000Y-105880000D01*
G04 #@! TO.N,Net-(U7-Pad11)*
X177550000Y-86950000D02*
X177550000Y-100990000D01*
X177550000Y-100990000D02*
X179900000Y-103340000D01*
X179900000Y-103340000D02*
X180300000Y-103340000D01*
X183600000Y-80900000D02*
X177550000Y-86950000D01*
X183600000Y-74950000D02*
X183600000Y-80900000D01*
X182589710Y-73939710D02*
X183600000Y-74950000D01*
X181145537Y-73939710D02*
X182589710Y-73939710D01*
D26*
G04 #@! TO.N,Net-(U8-Pad4)*
X180300000Y-98260000D02*
X184640000Y-98260000D01*
X184640000Y-98260000D02*
X185000000Y-97900000D01*
D24*
G04 #@! TO.N,Net-(U10-Pad1)*
X200830000Y-103290000D02*
X200430000Y-103290000D01*
X197249990Y-96300000D02*
X197249990Y-86700000D01*
X200430000Y-103290000D02*
X198600000Y-101460000D01*
X195750271Y-69699729D02*
X197425421Y-69699729D01*
X198600000Y-101460000D02*
X198600000Y-97650010D01*
X198600000Y-97650010D02*
X197249990Y-96300000D01*
X197249990Y-86700000D02*
X192699990Y-82150000D01*
X192699990Y-82150000D02*
X192699990Y-72750010D01*
X192699990Y-72750010D02*
X195750271Y-69699729D01*
X197425421Y-69699729D02*
X198432565Y-70706873D01*
G04 #@! TO.N,Net-(U10-Pad3)*
X200830000Y-85550000D02*
X200830000Y-88050000D01*
X193500000Y-78250000D02*
X193500000Y-77650000D01*
X200830000Y-85550000D02*
X200800000Y-85550000D01*
X200800000Y-85550000D02*
X193500000Y-78250000D01*
X193500000Y-74600000D02*
X193500000Y-77650000D01*
X194160336Y-73939664D02*
X193500000Y-74600000D01*
X195854474Y-73939664D02*
X194160336Y-73939664D01*
G04 #@! TO.N,Net-(U10-Pad5)*
X198050000Y-95830000D02*
X198050000Y-84650000D01*
X198050000Y-84650000D02*
X196850000Y-83450000D01*
X200830000Y-98210000D02*
X200430000Y-98210000D01*
X200430000Y-98210000D02*
X198050000Y-95830000D01*
G04 #@! TO.N,Net-(U10-Pad7)*
X200830000Y-93130000D02*
X201230000Y-93130000D01*
X201230000Y-93130000D02*
X203050000Y-91310000D01*
X203050000Y-91310000D02*
X203050000Y-82315024D01*
X203050000Y-82315024D02*
X200499976Y-79765000D01*
G04 #@! TO.N,Net-(U10-Pad9)*
X204225412Y-77970948D02*
X204225412Y-102005412D01*
X204225412Y-102005412D02*
X208050000Y-105830000D01*
X208050000Y-105830000D02*
X208450000Y-105830000D01*
G04 #@! TO.N,Net-(U10-Pad11)*
X207750000Y-78000000D02*
X207750000Y-74789710D01*
X207750000Y-74789710D02*
X206900000Y-73939710D01*
X206900000Y-73939710D02*
X205145537Y-73939710D01*
X205025422Y-80724578D02*
X207750000Y-78000000D01*
X205025422Y-101665422D02*
X205025422Y-80724578D01*
X208450000Y-103290000D02*
X206650000Y-103290000D01*
X206650000Y-103290000D02*
X205025422Y-101665422D01*
D26*
G04 #@! TO.N,Net-(U11-Pad3)*
X191700000Y-97995626D02*
X191700000Y-100050000D01*
X191700000Y-100050000D02*
X191750000Y-100100000D01*
X190404374Y-96700000D02*
X191700000Y-97995626D01*
X184950000Y-96700000D02*
X190404374Y-96700000D01*
G04 #@! TO.N,Net-(U11-Pad4)*
X189150000Y-92900000D02*
X194650000Y-98400000D01*
X194650000Y-98400000D02*
X194650000Y-103200000D01*
X185000000Y-92900000D02*
X189150000Y-92900000D01*
G04 #@! TO.N,Net-(U11-Pad6)*
X211900010Y-95600000D02*
X209430010Y-93130000D01*
X209430010Y-93130000D02*
X208450000Y-93130000D01*
X190002916Y-95450000D02*
X192650000Y-98097084D01*
X192650000Y-98097084D02*
X192650000Y-103300000D01*
X185050000Y-95450000D02*
X190002916Y-95450000D01*
G04 #@! TO.N,Net-(U11-Pad7)*
X193700000Y-98298542D02*
X193700000Y-103250000D01*
X185000000Y-94200000D02*
X189601458Y-94200000D01*
X189601458Y-94200000D02*
X193700000Y-98298542D01*
D24*
G04 #@! TO.N,Net-(J2-Pad1)*
X161610000Y-71760000D02*
X161600000Y-71750000D01*
X161610000Y-74270000D02*
X161610000Y-71760000D01*
G04 #@! TD*
D27*
G04 #@! TO.N,GND*
G36*
X126801843Y-64852235D02*
X126779413Y-64965000D01*
X126561782Y-64965000D01*
X126449999Y-64942765D01*
X126145131Y-65003407D01*
X126007145Y-65030854D01*
X125631711Y-65281711D01*
X125568387Y-65376482D01*
X125323796Y-65621073D01*
X125292191Y-65642191D01*
X125271073Y-65673796D01*
X125245808Y-65699061D01*
X125207809Y-65642191D01*
X124997765Y-65501843D01*
X124750000Y-65452560D01*
X124250000Y-65452560D01*
X124002235Y-65501843D01*
X123792191Y-65642191D01*
X123651843Y-65852235D01*
X123622339Y-66000563D01*
X123525052Y-66146164D01*
X123465000Y-66448066D01*
X123465001Y-69634528D01*
X122919980Y-70766261D01*
X122828237Y-71121913D01*
X122896916Y-71608401D01*
X123146538Y-72031577D01*
X123539101Y-72327014D01*
X124014841Y-72449735D01*
X124284388Y-72411682D01*
X124307267Y-72682940D01*
X124532769Y-73119446D01*
X124908150Y-73436429D01*
X125167512Y-73519097D01*
X125070431Y-73773415D01*
X125084208Y-74264535D01*
X125284880Y-74712998D01*
X125482692Y-74900015D01*
X125284879Y-75087029D01*
X125084202Y-75535491D01*
X125070420Y-76026610D01*
X125167498Y-76280933D01*
X124908135Y-76363598D01*
X124532751Y-76680577D01*
X124307245Y-77117081D01*
X124284363Y-77388338D01*
X124014815Y-77350283D01*
X123539074Y-77472999D01*
X123146508Y-77768433D01*
X123008200Y-78002898D01*
X122781857Y-77851659D01*
X122299984Y-77755806D01*
X121818112Y-77851654D01*
X121591769Y-78002890D01*
X121453462Y-77768423D01*
X121060899Y-77472986D01*
X120585159Y-77350265D01*
X120315612Y-77388318D01*
X120292733Y-77117060D01*
X120067231Y-76680554D01*
X119691850Y-76363571D01*
X119432489Y-76280903D01*
X119529569Y-76026586D01*
X119515792Y-75535465D01*
X119315120Y-75087002D01*
X119117308Y-74899985D01*
X119315121Y-74712971D01*
X119515798Y-74264509D01*
X119529580Y-73773389D01*
X119432501Y-73519067D01*
X119691865Y-73436402D01*
X120067249Y-73119423D01*
X120292755Y-72682919D01*
X120296962Y-72633044D01*
X120515242Y-72576739D01*
X121596408Y-72056084D01*
X121798253Y-71904181D01*
X121926604Y-71686598D01*
X121961919Y-71436460D01*
X121898822Y-71191848D01*
X120814124Y-68939421D01*
X120662221Y-68737576D01*
X120444638Y-68609225D01*
X120194500Y-68573910D01*
X119949888Y-68637007D01*
X119669582Y-68771994D01*
X119590240Y-68718979D01*
X119317507Y-68664729D01*
X119225421Y-68646412D01*
X119133335Y-68664729D01*
X118092346Y-68664729D01*
X118000260Y-68646412D01*
X117751448Y-68695904D01*
X117635442Y-68718979D01*
X117326164Y-68925632D01*
X117274002Y-69003698D01*
X114103960Y-72173741D01*
X114025894Y-72225903D01*
X113973732Y-72303969D01*
X113973731Y-72303970D01*
X113819240Y-72535182D01*
X113746673Y-72900000D01*
X113764991Y-72992090D01*
X113764990Y-83899288D01*
X113746673Y-83991374D01*
X113801265Y-84265828D01*
X113819240Y-84356192D01*
X114025893Y-84665471D01*
X114103962Y-84717635D01*
X114819305Y-85432979D01*
X114819304Y-102212218D01*
X114800987Y-102304304D01*
X114842588Y-102513448D01*
X114873554Y-102669122D01*
X115080207Y-102978401D01*
X115158276Y-103030565D01*
X116003739Y-103876028D01*
X116055903Y-103954097D01*
X116365181Y-104160750D01*
X116637914Y-104215000D01*
X116730000Y-104233317D01*
X116822086Y-104215000D01*
X117028888Y-104215000D01*
X117095423Y-104314577D01*
X117447758Y-104550000D01*
X117095423Y-104785423D01*
X116778260Y-105260091D01*
X116666887Y-105820000D01*
X116778260Y-106379909D01*
X117095423Y-106854577D01*
X117570091Y-107171740D01*
X117988667Y-107255000D01*
X118971333Y-107255000D01*
X119389909Y-107171740D01*
X119864577Y-106854577D01*
X120181740Y-106379909D01*
X120293113Y-105820000D01*
X120181740Y-105260091D01*
X119864577Y-104785423D01*
X119512242Y-104550000D01*
X119864577Y-104314577D01*
X120181740Y-103839909D01*
X120293113Y-103280000D01*
X120181740Y-102720091D01*
X119864577Y-102245423D01*
X119512242Y-102010000D01*
X119864577Y-101774577D01*
X120181740Y-101299909D01*
X120293113Y-100740000D01*
X120181740Y-100180091D01*
X119864577Y-99705423D01*
X119512242Y-99470000D01*
X119864577Y-99234577D01*
X120181740Y-98759909D01*
X120293113Y-98200000D01*
X120181740Y-97640091D01*
X119864577Y-97165423D01*
X119389909Y-96848260D01*
X118971333Y-96765000D01*
X118017289Y-96765000D01*
X117489314Y-96237025D01*
X117489314Y-94417767D01*
X117570091Y-94471740D01*
X117988667Y-94555000D01*
X118971333Y-94555000D01*
X119389909Y-94471740D01*
X119864577Y-94154577D01*
X120181740Y-93679909D01*
X120293113Y-93120000D01*
X120181740Y-92560091D01*
X119864577Y-92085423D01*
X119512242Y-91850000D01*
X119864577Y-91614577D01*
X120181740Y-91139909D01*
X120293113Y-90580000D01*
X120269749Y-90462540D01*
X121465011Y-89267278D01*
X121465011Y-91777910D01*
X121465010Y-91777915D01*
X121465010Y-92232086D01*
X121465011Y-92232091D01*
X121465010Y-101642085D01*
X121465011Y-101642089D01*
X121465010Y-102377924D01*
X121446693Y-102470010D01*
X121508372Y-102780091D01*
X121519260Y-102834828D01*
X121725913Y-103144107D01*
X121803982Y-103196271D01*
X124310251Y-105702541D01*
X124286887Y-105820000D01*
X124398260Y-106379909D01*
X124715423Y-106854577D01*
X125190091Y-107171740D01*
X125608667Y-107255000D01*
X126591333Y-107255000D01*
X127009909Y-107171740D01*
X127484577Y-106854577D01*
X127801740Y-106379909D01*
X127913113Y-105820000D01*
X127801740Y-105260091D01*
X127484577Y-104785423D01*
X127132242Y-104550000D01*
X127484577Y-104314577D01*
X127801740Y-103839909D01*
X127913113Y-103280000D01*
X127801740Y-102720091D01*
X127484577Y-102245423D01*
X127132242Y-102010000D01*
X127484577Y-101774577D01*
X127801740Y-101299909D01*
X127913113Y-100740000D01*
X127801740Y-100180091D01*
X127484577Y-99705423D01*
X127132242Y-99470000D01*
X127484577Y-99234577D01*
X127801740Y-98759909D01*
X127826586Y-98635000D01*
X130272595Y-98635000D01*
X130514017Y-98735000D01*
X130885983Y-98735000D01*
X131229635Y-98592655D01*
X131492655Y-98329635D01*
X131635000Y-97985983D01*
X131635000Y-97614017D01*
X131519428Y-97335000D01*
X135484133Y-97335000D01*
X137104132Y-98955000D01*
X137104017Y-98955000D01*
X136760365Y-99097345D01*
X136497345Y-99360365D01*
X136355000Y-99704017D01*
X136355000Y-100075983D01*
X136455000Y-100317405D01*
X136455001Y-103350568D01*
X136438643Y-103432806D01*
X136503448Y-103758606D01*
X136517499Y-103779635D01*
X136688000Y-104034807D01*
X136757718Y-104081391D01*
X142258617Y-109582291D01*
X142305201Y-109652009D01*
X142581401Y-109836560D01*
X142824965Y-109885008D01*
X142824968Y-109885008D01*
X142907201Y-109901365D01*
X142989434Y-109885008D01*
X180487759Y-109885008D01*
X180569992Y-109901365D01*
X180652225Y-109885008D01*
X180652229Y-109885008D01*
X180895793Y-109836560D01*
X181171993Y-109652009D01*
X181218579Y-109582288D01*
X183125545Y-107675322D01*
X185065000Y-107675322D01*
X185065000Y-108524678D01*
X185390034Y-109309380D01*
X185990620Y-109909966D01*
X186775322Y-110235000D01*
X187624678Y-110235000D01*
X188409380Y-109909966D01*
X189009966Y-109309380D01*
X189335000Y-108524678D01*
X189335000Y-107675322D01*
X189009966Y-106890620D01*
X188409380Y-106290034D01*
X187624678Y-105965000D01*
X186775322Y-105965000D01*
X185990620Y-106290034D01*
X185390034Y-106890620D01*
X185065000Y-107675322D01*
X183125545Y-107675322D01*
X186352283Y-104448585D01*
X186422001Y-104402001D01*
X186606552Y-104125801D01*
X186655000Y-103882237D01*
X186655000Y-103882236D01*
X186671358Y-103800000D01*
X186655000Y-103717763D01*
X186655000Y-99107405D01*
X186755000Y-98865983D01*
X186755000Y-98494017D01*
X186612655Y-98150365D01*
X186349635Y-97887345D01*
X186005983Y-97745000D01*
X185935000Y-97745000D01*
X185935000Y-97714017D01*
X185860849Y-97535000D01*
X190058507Y-97535000D01*
X190865000Y-98341494D01*
X190865001Y-99793304D01*
X190815000Y-99914017D01*
X190815000Y-100285983D01*
X190957345Y-100629635D01*
X191220365Y-100892655D01*
X191564017Y-101035000D01*
X191815001Y-101035000D01*
X191815001Y-102872593D01*
X191725000Y-103089875D01*
X191592655Y-102770365D01*
X191329635Y-102507345D01*
X190985983Y-102365000D01*
X190614017Y-102365000D01*
X190270365Y-102507345D01*
X190007345Y-102770365D01*
X189865000Y-103114017D01*
X189865000Y-103485983D01*
X189953527Y-103699708D01*
X189948643Y-103724264D01*
X189965000Y-103806497D01*
X189965000Y-103806501D01*
X190013448Y-104050065D01*
X190198000Y-104326265D01*
X190267717Y-104372849D01*
X190777152Y-104882285D01*
X190823735Y-104952001D01*
X190893450Y-104998583D01*
X190893451Y-104998584D01*
X191099935Y-105136552D01*
X191343499Y-105185000D01*
X191343502Y-105185000D01*
X191425735Y-105201357D01*
X191507968Y-105185000D01*
X194104133Y-105185000D01*
X194801418Y-105882285D01*
X194848000Y-105952001D01*
X194917715Y-105998583D01*
X194917716Y-105998584D01*
X194917719Y-105998586D01*
X198301417Y-109382286D01*
X198347999Y-109452001D01*
X198417714Y-109498583D01*
X198417715Y-109498584D01*
X198498939Y-109552856D01*
X198624199Y-109636552D01*
X198867763Y-109685000D01*
X198867766Y-109685000D01*
X198949999Y-109701357D01*
X199032232Y-109685000D01*
X209067767Y-109685000D01*
X209150000Y-109701357D01*
X209232233Y-109685000D01*
X209232237Y-109685000D01*
X209475801Y-109636552D01*
X209752001Y-109452001D01*
X209798587Y-109382280D01*
X211182286Y-107998583D01*
X211252001Y-107952001D01*
X211310895Y-107863861D01*
X211436552Y-107675801D01*
X211449499Y-107610711D01*
X211485000Y-107432237D01*
X211485000Y-107432234D01*
X211501357Y-107350001D01*
X211485000Y-107267768D01*
X211485000Y-97552232D01*
X211501357Y-97469999D01*
X211485000Y-97387766D01*
X211485000Y-97387763D01*
X211436552Y-97144199D01*
X211389780Y-97074200D01*
X211298584Y-96937715D01*
X211298583Y-96937714D01*
X211252001Y-96867999D01*
X211182285Y-96821416D01*
X210266285Y-95905418D01*
X210313113Y-95670000D01*
X210201740Y-95110091D01*
X210146378Y-95027236D01*
X211007355Y-95888214D01*
X211107355Y-96129635D01*
X211370375Y-96392655D01*
X211714027Y-96535000D01*
X212085993Y-96535000D01*
X212290000Y-96450498D01*
X212290000Y-107958752D01*
X212223900Y-108525708D01*
X212043315Y-109023212D01*
X211753118Y-109465834D01*
X211368884Y-109829823D01*
X210911216Y-110095658D01*
X210395371Y-110251892D01*
X209968382Y-110290000D01*
X205930074Y-110290000D01*
X205861491Y-110303642D01*
X205861487Y-110303642D01*
X205670145Y-110341702D01*
X205594585Y-110373000D01*
X204005416Y-110373000D01*
X203929856Y-110341702D01*
X203738513Y-110303642D01*
X203738509Y-110303642D01*
X203669926Y-110290000D01*
X195530074Y-110290000D01*
X195461491Y-110303642D01*
X195461487Y-110303642D01*
X195270145Y-110341702D01*
X195194585Y-110373000D01*
X194005416Y-110373000D01*
X193929856Y-110341702D01*
X193738513Y-110303642D01*
X193738509Y-110303642D01*
X193669926Y-110290000D01*
X186530074Y-110290000D01*
X186461491Y-110303642D01*
X186461487Y-110303642D01*
X186270145Y-110341702D01*
X186194585Y-110373000D01*
X184605416Y-110373000D01*
X184529856Y-110341702D01*
X184338513Y-110303642D01*
X184338509Y-110303642D01*
X184269926Y-110290000D01*
X176130074Y-110290000D01*
X176061491Y-110303642D01*
X176061487Y-110303642D01*
X175870145Y-110341702D01*
X175794585Y-110373000D01*
X174605416Y-110373000D01*
X174529856Y-110341702D01*
X174338513Y-110303642D01*
X174338509Y-110303642D01*
X174269926Y-110290000D01*
X167130074Y-110290000D01*
X167061491Y-110303642D01*
X167061487Y-110303642D01*
X166870145Y-110341702D01*
X166794585Y-110373000D01*
X165205416Y-110373000D01*
X165129856Y-110341702D01*
X164938513Y-110303642D01*
X164938509Y-110303642D01*
X164869926Y-110290000D01*
X156730074Y-110290000D01*
X156661491Y-110303642D01*
X156661487Y-110303642D01*
X156470145Y-110341702D01*
X156394585Y-110373000D01*
X155205416Y-110373000D01*
X155129856Y-110341702D01*
X154938513Y-110303642D01*
X154938509Y-110303642D01*
X154869926Y-110290000D01*
X147730074Y-110290000D01*
X147661491Y-110303642D01*
X147661487Y-110303642D01*
X147470145Y-110341702D01*
X147394585Y-110373000D01*
X145805416Y-110373000D01*
X145729856Y-110341702D01*
X145538513Y-110303642D01*
X145538509Y-110303642D01*
X145469926Y-110290000D01*
X137330074Y-110290000D01*
X137261491Y-110303642D01*
X137261487Y-110303642D01*
X137070145Y-110341702D01*
X136994585Y-110373000D01*
X135805416Y-110373000D01*
X135729856Y-110341702D01*
X135538513Y-110303642D01*
X135538509Y-110303642D01*
X135469926Y-110290000D01*
X128330074Y-110290000D01*
X128261491Y-110303642D01*
X128261487Y-110303642D01*
X128070145Y-110341702D01*
X127994585Y-110373000D01*
X126405416Y-110373000D01*
X126329856Y-110341702D01*
X126138513Y-110303642D01*
X126138509Y-110303642D01*
X126069926Y-110290000D01*
X117930074Y-110290000D01*
X117861491Y-110303642D01*
X117861487Y-110303642D01*
X117670145Y-110341702D01*
X117594585Y-110373000D01*
X116405416Y-110373000D01*
X116329856Y-110341702D01*
X116138513Y-110303642D01*
X116131492Y-110303642D01*
X116082221Y-110294777D01*
X115474292Y-110223900D01*
X114976788Y-110043315D01*
X114534166Y-109753118D01*
X114170177Y-109368884D01*
X113904342Y-108911216D01*
X113748108Y-108395371D01*
X113710000Y-107968382D01*
X113710000Y-107575322D01*
X130865000Y-107575322D01*
X130865000Y-108424678D01*
X131190034Y-109209380D01*
X131790620Y-109809966D01*
X132575322Y-110135000D01*
X133424678Y-110135000D01*
X134209380Y-109809966D01*
X134809966Y-109209380D01*
X135135000Y-108424678D01*
X135135000Y-107575322D01*
X134809966Y-106790620D01*
X134209380Y-106190034D01*
X133424678Y-105865000D01*
X132575322Y-105865000D01*
X131790620Y-106190034D01*
X131190034Y-106790620D01*
X130865000Y-107575322D01*
X113710000Y-107575322D01*
X113710000Y-67041247D01*
X113764321Y-66575322D01*
X113865000Y-66575322D01*
X113865000Y-67424678D01*
X114190034Y-68209380D01*
X114790620Y-68809966D01*
X115575322Y-69135000D01*
X116424678Y-69135000D01*
X117209380Y-68809966D01*
X117809966Y-68209380D01*
X118135000Y-67424678D01*
X118135000Y-66575322D01*
X117809966Y-65790620D01*
X117209380Y-65190034D01*
X116424678Y-64865000D01*
X115575322Y-64865000D01*
X114790620Y-65190034D01*
X114190034Y-65790620D01*
X113865000Y-66575322D01*
X113764321Y-66575322D01*
X113776100Y-66474292D01*
X113956685Y-65976788D01*
X114246881Y-65534165D01*
X114631116Y-65170177D01*
X115088784Y-64904342D01*
X115604629Y-64748108D01*
X116031618Y-64710000D01*
X126896882Y-64710000D01*
X126801843Y-64852235D01*
X126801843Y-64852235D01*
G37*
X126801843Y-64852235D02*
X126779413Y-64965000D01*
X126561782Y-64965000D01*
X126449999Y-64942765D01*
X126145131Y-65003407D01*
X126007145Y-65030854D01*
X125631711Y-65281711D01*
X125568387Y-65376482D01*
X125323796Y-65621073D01*
X125292191Y-65642191D01*
X125271073Y-65673796D01*
X125245808Y-65699061D01*
X125207809Y-65642191D01*
X124997765Y-65501843D01*
X124750000Y-65452560D01*
X124250000Y-65452560D01*
X124002235Y-65501843D01*
X123792191Y-65642191D01*
X123651843Y-65852235D01*
X123622339Y-66000563D01*
X123525052Y-66146164D01*
X123465000Y-66448066D01*
X123465001Y-69634528D01*
X122919980Y-70766261D01*
X122828237Y-71121913D01*
X122896916Y-71608401D01*
X123146538Y-72031577D01*
X123539101Y-72327014D01*
X124014841Y-72449735D01*
X124284388Y-72411682D01*
X124307267Y-72682940D01*
X124532769Y-73119446D01*
X124908150Y-73436429D01*
X125167512Y-73519097D01*
X125070431Y-73773415D01*
X125084208Y-74264535D01*
X125284880Y-74712998D01*
X125482692Y-74900015D01*
X125284879Y-75087029D01*
X125084202Y-75535491D01*
X125070420Y-76026610D01*
X125167498Y-76280933D01*
X124908135Y-76363598D01*
X124532751Y-76680577D01*
X124307245Y-77117081D01*
X124284363Y-77388338D01*
X124014815Y-77350283D01*
X123539074Y-77472999D01*
X123146508Y-77768433D01*
X123008200Y-78002898D01*
X122781857Y-77851659D01*
X122299984Y-77755806D01*
X121818112Y-77851654D01*
X121591769Y-78002890D01*
X121453462Y-77768423D01*
X121060899Y-77472986D01*
X120585159Y-77350265D01*
X120315612Y-77388318D01*
X120292733Y-77117060D01*
X120067231Y-76680554D01*
X119691850Y-76363571D01*
X119432489Y-76280903D01*
X119529569Y-76026586D01*
X119515792Y-75535465D01*
X119315120Y-75087002D01*
X119117308Y-74899985D01*
X119315121Y-74712971D01*
X119515798Y-74264509D01*
X119529580Y-73773389D01*
X119432501Y-73519067D01*
X119691865Y-73436402D01*
X120067249Y-73119423D01*
X120292755Y-72682919D01*
X120296962Y-72633044D01*
X120515242Y-72576739D01*
X121596408Y-72056084D01*
X121798253Y-71904181D01*
X121926604Y-71686598D01*
X121961919Y-71436460D01*
X121898822Y-71191848D01*
X120814124Y-68939421D01*
X120662221Y-68737576D01*
X120444638Y-68609225D01*
X120194500Y-68573910D01*
X119949888Y-68637007D01*
X119669582Y-68771994D01*
X119590240Y-68718979D01*
X119317507Y-68664729D01*
X119225421Y-68646412D01*
X119133335Y-68664729D01*
X118092346Y-68664729D01*
X118000260Y-68646412D01*
X117751448Y-68695904D01*
X117635442Y-68718979D01*
X117326164Y-68925632D01*
X117274002Y-69003698D01*
X114103960Y-72173741D01*
X114025894Y-72225903D01*
X113973732Y-72303969D01*
X113973731Y-72303970D01*
X113819240Y-72535182D01*
X113746673Y-72900000D01*
X113764991Y-72992090D01*
X113764990Y-83899288D01*
X113746673Y-83991374D01*
X113801265Y-84265828D01*
X113819240Y-84356192D01*
X114025893Y-84665471D01*
X114103962Y-84717635D01*
X114819305Y-85432979D01*
X114819304Y-102212218D01*
X114800987Y-102304304D01*
X114842588Y-102513448D01*
X114873554Y-102669122D01*
X115080207Y-102978401D01*
X115158276Y-103030565D01*
X116003739Y-103876028D01*
X116055903Y-103954097D01*
X116365181Y-104160750D01*
X116637914Y-104215000D01*
X116730000Y-104233317D01*
X116822086Y-104215000D01*
X117028888Y-104215000D01*
X117095423Y-104314577D01*
X117447758Y-104550000D01*
X117095423Y-104785423D01*
X116778260Y-105260091D01*
X116666887Y-105820000D01*
X116778260Y-106379909D01*
X117095423Y-106854577D01*
X117570091Y-107171740D01*
X117988667Y-107255000D01*
X118971333Y-107255000D01*
X119389909Y-107171740D01*
X119864577Y-106854577D01*
X120181740Y-106379909D01*
X120293113Y-105820000D01*
X120181740Y-105260091D01*
X119864577Y-104785423D01*
X119512242Y-104550000D01*
X119864577Y-104314577D01*
X120181740Y-103839909D01*
X120293113Y-103280000D01*
X120181740Y-102720091D01*
X119864577Y-102245423D01*
X119512242Y-102010000D01*
X119864577Y-101774577D01*
X120181740Y-101299909D01*
X120293113Y-100740000D01*
X120181740Y-100180091D01*
X119864577Y-99705423D01*
X119512242Y-99470000D01*
X119864577Y-99234577D01*
X120181740Y-98759909D01*
X120293113Y-98200000D01*
X120181740Y-97640091D01*
X119864577Y-97165423D01*
X119389909Y-96848260D01*
X118971333Y-96765000D01*
X118017289Y-96765000D01*
X117489314Y-96237025D01*
X117489314Y-94417767D01*
X117570091Y-94471740D01*
X117988667Y-94555000D01*
X118971333Y-94555000D01*
X119389909Y-94471740D01*
X119864577Y-94154577D01*
X120181740Y-93679909D01*
X120293113Y-93120000D01*
X120181740Y-92560091D01*
X119864577Y-92085423D01*
X119512242Y-91850000D01*
X119864577Y-91614577D01*
X120181740Y-91139909D01*
X120293113Y-90580000D01*
X120269749Y-90462540D01*
X121465011Y-89267278D01*
X121465011Y-91777910D01*
X121465010Y-91777915D01*
X121465010Y-92232086D01*
X121465011Y-92232091D01*
X121465010Y-101642085D01*
X121465011Y-101642089D01*
X121465010Y-102377924D01*
X121446693Y-102470010D01*
X121508372Y-102780091D01*
X121519260Y-102834828D01*
X121725913Y-103144107D01*
X121803982Y-103196271D01*
X124310251Y-105702541D01*
X124286887Y-105820000D01*
X124398260Y-106379909D01*
X124715423Y-106854577D01*
X125190091Y-107171740D01*
X125608667Y-107255000D01*
X126591333Y-107255000D01*
X127009909Y-107171740D01*
X127484577Y-106854577D01*
X127801740Y-106379909D01*
X127913113Y-105820000D01*
X127801740Y-105260091D01*
X127484577Y-104785423D01*
X127132242Y-104550000D01*
X127484577Y-104314577D01*
X127801740Y-103839909D01*
X127913113Y-103280000D01*
X127801740Y-102720091D01*
X127484577Y-102245423D01*
X127132242Y-102010000D01*
X127484577Y-101774577D01*
X127801740Y-101299909D01*
X127913113Y-100740000D01*
X127801740Y-100180091D01*
X127484577Y-99705423D01*
X127132242Y-99470000D01*
X127484577Y-99234577D01*
X127801740Y-98759909D01*
X127826586Y-98635000D01*
X130272595Y-98635000D01*
X130514017Y-98735000D01*
X130885983Y-98735000D01*
X131229635Y-98592655D01*
X131492655Y-98329635D01*
X131635000Y-97985983D01*
X131635000Y-97614017D01*
X131519428Y-97335000D01*
X135484133Y-97335000D01*
X137104132Y-98955000D01*
X137104017Y-98955000D01*
X136760365Y-99097345D01*
X136497345Y-99360365D01*
X136355000Y-99704017D01*
X136355000Y-100075983D01*
X136455000Y-100317405D01*
X136455001Y-103350568D01*
X136438643Y-103432806D01*
X136503448Y-103758606D01*
X136517499Y-103779635D01*
X136688000Y-104034807D01*
X136757718Y-104081391D01*
X142258617Y-109582291D01*
X142305201Y-109652009D01*
X142581401Y-109836560D01*
X142824965Y-109885008D01*
X142824968Y-109885008D01*
X142907201Y-109901365D01*
X142989434Y-109885008D01*
X180487759Y-109885008D01*
X180569992Y-109901365D01*
X180652225Y-109885008D01*
X180652229Y-109885008D01*
X180895793Y-109836560D01*
X181171993Y-109652009D01*
X181218579Y-109582288D01*
X183125545Y-107675322D01*
X185065000Y-107675322D01*
X185065000Y-108524678D01*
X185390034Y-109309380D01*
X185990620Y-109909966D01*
X186775322Y-110235000D01*
X187624678Y-110235000D01*
X188409380Y-109909966D01*
X189009966Y-109309380D01*
X189335000Y-108524678D01*
X189335000Y-107675322D01*
X189009966Y-106890620D01*
X188409380Y-106290034D01*
X187624678Y-105965000D01*
X186775322Y-105965000D01*
X185990620Y-106290034D01*
X185390034Y-106890620D01*
X185065000Y-107675322D01*
X183125545Y-107675322D01*
X186352283Y-104448585D01*
X186422001Y-104402001D01*
X186606552Y-104125801D01*
X186655000Y-103882237D01*
X186655000Y-103882236D01*
X186671358Y-103800000D01*
X186655000Y-103717763D01*
X186655000Y-99107405D01*
X186755000Y-98865983D01*
X186755000Y-98494017D01*
X186612655Y-98150365D01*
X186349635Y-97887345D01*
X186005983Y-97745000D01*
X185935000Y-97745000D01*
X185935000Y-97714017D01*
X185860849Y-97535000D01*
X190058507Y-97535000D01*
X190865000Y-98341494D01*
X190865001Y-99793304D01*
X190815000Y-99914017D01*
X190815000Y-100285983D01*
X190957345Y-100629635D01*
X191220365Y-100892655D01*
X191564017Y-101035000D01*
X191815001Y-101035000D01*
X191815001Y-102872593D01*
X191725000Y-103089875D01*
X191592655Y-102770365D01*
X191329635Y-102507345D01*
X190985983Y-102365000D01*
X190614017Y-102365000D01*
X190270365Y-102507345D01*
X190007345Y-102770365D01*
X189865000Y-103114017D01*
X189865000Y-103485983D01*
X189953527Y-103699708D01*
X189948643Y-103724264D01*
X189965000Y-103806497D01*
X189965000Y-103806501D01*
X190013448Y-104050065D01*
X190198000Y-104326265D01*
X190267717Y-104372849D01*
X190777152Y-104882285D01*
X190823735Y-104952001D01*
X190893450Y-104998583D01*
X190893451Y-104998584D01*
X191099935Y-105136552D01*
X191343499Y-105185000D01*
X191343502Y-105185000D01*
X191425735Y-105201357D01*
X191507968Y-105185000D01*
X194104133Y-105185000D01*
X194801418Y-105882285D01*
X194848000Y-105952001D01*
X194917715Y-105998583D01*
X194917716Y-105998584D01*
X194917719Y-105998586D01*
X198301417Y-109382286D01*
X198347999Y-109452001D01*
X198417714Y-109498583D01*
X198417715Y-109498584D01*
X198498939Y-109552856D01*
X198624199Y-109636552D01*
X198867763Y-109685000D01*
X198867766Y-109685000D01*
X198949999Y-109701357D01*
X199032232Y-109685000D01*
X209067767Y-109685000D01*
X209150000Y-109701357D01*
X209232233Y-109685000D01*
X209232237Y-109685000D01*
X209475801Y-109636552D01*
X209752001Y-109452001D01*
X209798587Y-109382280D01*
X211182286Y-107998583D01*
X211252001Y-107952001D01*
X211310895Y-107863861D01*
X211436552Y-107675801D01*
X211449499Y-107610711D01*
X211485000Y-107432237D01*
X211485000Y-107432234D01*
X211501357Y-107350001D01*
X211485000Y-107267768D01*
X211485000Y-97552232D01*
X211501357Y-97469999D01*
X211485000Y-97387766D01*
X211485000Y-97387763D01*
X211436552Y-97144199D01*
X211389780Y-97074200D01*
X211298584Y-96937715D01*
X211298583Y-96937714D01*
X211252001Y-96867999D01*
X211182285Y-96821416D01*
X210266285Y-95905418D01*
X210313113Y-95670000D01*
X210201740Y-95110091D01*
X210146378Y-95027236D01*
X211007355Y-95888214D01*
X211107355Y-96129635D01*
X211370375Y-96392655D01*
X211714027Y-96535000D01*
X212085993Y-96535000D01*
X212290000Y-96450498D01*
X212290000Y-107958752D01*
X212223900Y-108525708D01*
X212043315Y-109023212D01*
X211753118Y-109465834D01*
X211368884Y-109829823D01*
X210911216Y-110095658D01*
X210395371Y-110251892D01*
X209968382Y-110290000D01*
X205930074Y-110290000D01*
X205861491Y-110303642D01*
X205861487Y-110303642D01*
X205670145Y-110341702D01*
X205594585Y-110373000D01*
X204005416Y-110373000D01*
X203929856Y-110341702D01*
X203738513Y-110303642D01*
X203738509Y-110303642D01*
X203669926Y-110290000D01*
X195530074Y-110290000D01*
X195461491Y-110303642D01*
X195461487Y-110303642D01*
X195270145Y-110341702D01*
X195194585Y-110373000D01*
X194005416Y-110373000D01*
X193929856Y-110341702D01*
X193738513Y-110303642D01*
X193738509Y-110303642D01*
X193669926Y-110290000D01*
X186530074Y-110290000D01*
X186461491Y-110303642D01*
X186461487Y-110303642D01*
X186270145Y-110341702D01*
X186194585Y-110373000D01*
X184605416Y-110373000D01*
X184529856Y-110341702D01*
X184338513Y-110303642D01*
X184338509Y-110303642D01*
X184269926Y-110290000D01*
X176130074Y-110290000D01*
X176061491Y-110303642D01*
X176061487Y-110303642D01*
X175870145Y-110341702D01*
X175794585Y-110373000D01*
X174605416Y-110373000D01*
X174529856Y-110341702D01*
X174338513Y-110303642D01*
X174338509Y-110303642D01*
X174269926Y-110290000D01*
X167130074Y-110290000D01*
X167061491Y-110303642D01*
X167061487Y-110303642D01*
X166870145Y-110341702D01*
X166794585Y-110373000D01*
X165205416Y-110373000D01*
X165129856Y-110341702D01*
X164938513Y-110303642D01*
X164938509Y-110303642D01*
X164869926Y-110290000D01*
X156730074Y-110290000D01*
X156661491Y-110303642D01*
X156661487Y-110303642D01*
X156470145Y-110341702D01*
X156394585Y-110373000D01*
X155205416Y-110373000D01*
X155129856Y-110341702D01*
X154938513Y-110303642D01*
X154938509Y-110303642D01*
X154869926Y-110290000D01*
X147730074Y-110290000D01*
X147661491Y-110303642D01*
X147661487Y-110303642D01*
X147470145Y-110341702D01*
X147394585Y-110373000D01*
X145805416Y-110373000D01*
X145729856Y-110341702D01*
X145538513Y-110303642D01*
X145538509Y-110303642D01*
X145469926Y-110290000D01*
X137330074Y-110290000D01*
X137261491Y-110303642D01*
X137261487Y-110303642D01*
X137070145Y-110341702D01*
X136994585Y-110373000D01*
X135805416Y-110373000D01*
X135729856Y-110341702D01*
X135538513Y-110303642D01*
X135538509Y-110303642D01*
X135469926Y-110290000D01*
X128330074Y-110290000D01*
X128261491Y-110303642D01*
X128261487Y-110303642D01*
X128070145Y-110341702D01*
X127994585Y-110373000D01*
X126405416Y-110373000D01*
X126329856Y-110341702D01*
X126138513Y-110303642D01*
X126138509Y-110303642D01*
X126069926Y-110290000D01*
X117930074Y-110290000D01*
X117861491Y-110303642D01*
X117861487Y-110303642D01*
X117670145Y-110341702D01*
X117594585Y-110373000D01*
X116405416Y-110373000D01*
X116329856Y-110341702D01*
X116138513Y-110303642D01*
X116131492Y-110303642D01*
X116082221Y-110294777D01*
X115474292Y-110223900D01*
X114976788Y-110043315D01*
X114534166Y-109753118D01*
X114170177Y-109368884D01*
X113904342Y-108911216D01*
X113748108Y-108395371D01*
X113710000Y-107968382D01*
X113710000Y-107575322D01*
X130865000Y-107575322D01*
X130865000Y-108424678D01*
X131190034Y-109209380D01*
X131790620Y-109809966D01*
X132575322Y-110135000D01*
X133424678Y-110135000D01*
X134209380Y-109809966D01*
X134809966Y-109209380D01*
X135135000Y-108424678D01*
X135135000Y-107575322D01*
X134809966Y-106790620D01*
X134209380Y-106190034D01*
X133424678Y-105865000D01*
X132575322Y-105865000D01*
X131790620Y-106190034D01*
X131190034Y-106790620D01*
X130865000Y-107575322D01*
X113710000Y-107575322D01*
X113710000Y-67041247D01*
X113764321Y-66575322D01*
X113865000Y-66575322D01*
X113865000Y-67424678D01*
X114190034Y-68209380D01*
X114790620Y-68809966D01*
X115575322Y-69135000D01*
X116424678Y-69135000D01*
X117209380Y-68809966D01*
X117809966Y-68209380D01*
X118135000Y-67424678D01*
X118135000Y-66575322D01*
X117809966Y-65790620D01*
X117209380Y-65190034D01*
X116424678Y-64865000D01*
X115575322Y-64865000D01*
X114790620Y-65190034D01*
X114190034Y-65790620D01*
X113865000Y-66575322D01*
X113764321Y-66575322D01*
X113776100Y-66474292D01*
X113956685Y-65976788D01*
X114246881Y-65534165D01*
X114631116Y-65170177D01*
X115088784Y-64904342D01*
X115604629Y-64748108D01*
X116031618Y-64710000D01*
X126896882Y-64710000D01*
X126801843Y-64852235D01*
G36*
X160695000Y-69157094D02*
X160646683Y-69400000D01*
X160665000Y-69492086D01*
X160665000Y-69582885D01*
X160551843Y-69752235D01*
X160502560Y-70000000D01*
X160502560Y-70500000D01*
X160551843Y-70747765D01*
X160692191Y-70957809D01*
X160755334Y-71000000D01*
X160692191Y-71042191D01*
X160551843Y-71252235D01*
X160502560Y-71500000D01*
X160502560Y-72000000D01*
X160551843Y-72247765D01*
X160675001Y-72432082D01*
X160675001Y-72789467D01*
X160512235Y-72821843D01*
X160302191Y-72962191D01*
X160161843Y-73172235D01*
X160112560Y-73420000D01*
X160112560Y-75120000D01*
X160161843Y-75367765D01*
X160302191Y-75577809D01*
X160512235Y-75718157D01*
X160615708Y-75738739D01*
X160338355Y-76043076D01*
X160168524Y-76453110D01*
X160289845Y-76683000D01*
X161483000Y-76683000D01*
X161483000Y-76663000D01*
X161737000Y-76663000D01*
X161737000Y-76683000D01*
X162930155Y-76683000D01*
X163051476Y-76453110D01*
X162881645Y-76043076D01*
X162604292Y-75738739D01*
X162707765Y-75718157D01*
X162917809Y-75577809D01*
X163058157Y-75367765D01*
X163107440Y-75120000D01*
X163107440Y-73420000D01*
X163058157Y-73172235D01*
X162917809Y-72962191D01*
X162707765Y-72821843D01*
X162545000Y-72789467D01*
X162545000Y-72402149D01*
X162648157Y-72247765D01*
X162697440Y-72000000D01*
X162697440Y-71500000D01*
X162648157Y-71252235D01*
X162507809Y-71042191D01*
X162444666Y-71000000D01*
X162507809Y-70957809D01*
X162648157Y-70747765D01*
X162697440Y-70500000D01*
X162697440Y-70000000D01*
X162648157Y-69752235D01*
X162539602Y-69589772D01*
X162565000Y-69462086D01*
X162565000Y-69462081D01*
X162583316Y-69370001D01*
X162565000Y-69277920D01*
X162565000Y-66634999D01*
X178796951Y-66634999D01*
X178671843Y-66822235D01*
X178622560Y-67070000D01*
X178622560Y-67570000D01*
X178671843Y-67817765D01*
X178785001Y-67987116D01*
X178785000Y-68883127D01*
X178433624Y-68932732D01*
X178010449Y-69182354D01*
X177789587Y-69475825D01*
X177119980Y-70866261D01*
X177028237Y-71221913D01*
X177096916Y-71708401D01*
X177346538Y-72131577D01*
X177739101Y-72427014D01*
X178214841Y-72549735D01*
X178484388Y-72511682D01*
X178507267Y-72782940D01*
X178732769Y-73219446D01*
X179108150Y-73536429D01*
X179367512Y-73619097D01*
X179270431Y-73873415D01*
X179284208Y-74364535D01*
X179484880Y-74812998D01*
X179682692Y-75000015D01*
X179484879Y-75187029D01*
X179284202Y-75635491D01*
X179270420Y-76126610D01*
X179367498Y-76380933D01*
X179108135Y-76463598D01*
X178732751Y-76780577D01*
X178507245Y-77217081D01*
X178484363Y-77488338D01*
X178214815Y-77450283D01*
X177739074Y-77572999D01*
X177346508Y-77868433D01*
X177208200Y-78102898D01*
X176981857Y-77951659D01*
X176499984Y-77855806D01*
X176018112Y-77951654D01*
X175791769Y-78102890D01*
X175653462Y-77868423D01*
X175260899Y-77572986D01*
X174785159Y-77450265D01*
X174515612Y-77488318D01*
X174492733Y-77217060D01*
X174267231Y-76780554D01*
X173891850Y-76463571D01*
X173632489Y-76380903D01*
X173729569Y-76126586D01*
X173715792Y-75635465D01*
X173515120Y-75187002D01*
X173317308Y-74999985D01*
X173515121Y-74812971D01*
X173715798Y-74364509D01*
X173729580Y-73873389D01*
X173632501Y-73619067D01*
X173891865Y-73536402D01*
X174267249Y-73219423D01*
X174492755Y-72782919D01*
X174496962Y-72733044D01*
X174715242Y-72676739D01*
X175796408Y-72156084D01*
X175998253Y-72004181D01*
X176126604Y-71786598D01*
X176161919Y-71536460D01*
X176098822Y-71291848D01*
X175014124Y-69039421D01*
X174862221Y-68837576D01*
X174644638Y-68709225D01*
X174394500Y-68673910D01*
X174149888Y-68737007D01*
X173915735Y-68849768D01*
X173899789Y-68825903D01*
X173590511Y-68619250D01*
X173317778Y-68565000D01*
X173225692Y-68546683D01*
X173133606Y-68565000D01*
X171942086Y-68565000D01*
X171850000Y-68546683D01*
X171757914Y-68565000D01*
X171485181Y-68619250D01*
X171175903Y-68825903D01*
X171123741Y-68903969D01*
X168403960Y-71623751D01*
X168325894Y-71675913D01*
X168273732Y-71753979D01*
X168273731Y-71753980D01*
X168119240Y-71985192D01*
X168046673Y-72350010D01*
X168064991Y-72442101D01*
X168064990Y-101367904D01*
X168046673Y-101459990D01*
X168082894Y-101642085D01*
X168119240Y-101824808D01*
X168325893Y-102134087D01*
X168403962Y-102186251D01*
X170153739Y-103936028D01*
X170205903Y-104014097D01*
X170515181Y-104220750D01*
X170785788Y-104274577D01*
X170880000Y-104293317D01*
X170972086Y-104275000D01*
X171178888Y-104275000D01*
X171245423Y-104374577D01*
X171597758Y-104610000D01*
X171245423Y-104845423D01*
X170928260Y-105320091D01*
X170816887Y-105880000D01*
X170928260Y-106439909D01*
X171245423Y-106914577D01*
X171720091Y-107231740D01*
X172138667Y-107315000D01*
X173221333Y-107315000D01*
X173639909Y-107231740D01*
X174114577Y-106914577D01*
X174431740Y-106439909D01*
X174543113Y-105880000D01*
X174431740Y-105320091D01*
X174114577Y-104845423D01*
X173762242Y-104610000D01*
X174114577Y-104374577D01*
X174431740Y-103899909D01*
X174543113Y-103340000D01*
X174431740Y-102780091D01*
X174114577Y-102305423D01*
X173762242Y-102070000D01*
X174114577Y-101834577D01*
X174431740Y-101359909D01*
X174543113Y-100800000D01*
X174431740Y-100240091D01*
X174114577Y-99765423D01*
X173762242Y-99530000D01*
X174114577Y-99294577D01*
X174431740Y-98819909D01*
X174543113Y-98260000D01*
X174431740Y-97700091D01*
X174114577Y-97225423D01*
X173639909Y-96908260D01*
X173221333Y-96825000D01*
X172167290Y-96825000D01*
X171085000Y-95742711D01*
X171085000Y-93974487D01*
X171245423Y-94214577D01*
X171720091Y-94531740D01*
X172138667Y-94615000D01*
X173221333Y-94615000D01*
X173639909Y-94531740D01*
X174114577Y-94214577D01*
X174431740Y-93739909D01*
X174543113Y-93180000D01*
X174431740Y-92620091D01*
X174114577Y-92145423D01*
X173762242Y-91910000D01*
X174114577Y-91674577D01*
X174431740Y-91199909D01*
X174543113Y-90640000D01*
X174519749Y-90522540D01*
X175814990Y-89227299D01*
X175814991Y-102637899D01*
X175796673Y-102729990D01*
X175869240Y-103094808D01*
X175994476Y-103282237D01*
X176075894Y-103404087D01*
X176153960Y-103456249D01*
X178452560Y-105754850D01*
X178452560Y-106680000D01*
X178501843Y-106927765D01*
X178642191Y-107137809D01*
X178852235Y-107278157D01*
X179100000Y-107327440D01*
X181111693Y-107327440D01*
X180224125Y-108215008D01*
X164348316Y-108215008D01*
X164274948Y-107846163D01*
X164103934Y-107590223D01*
X157985000Y-101471290D01*
X157985000Y-99298717D01*
X158314017Y-99435000D01*
X158685983Y-99435000D01*
X159029635Y-99292655D01*
X159292655Y-99029635D01*
X159435000Y-98685983D01*
X159435000Y-98314017D01*
X159335000Y-98072595D01*
X159335000Y-97112237D01*
X159351358Y-97030000D01*
X159317197Y-96858260D01*
X159286552Y-96704199D01*
X159102001Y-96427999D01*
X159032283Y-96381415D01*
X155966285Y-93315418D01*
X156013113Y-93080000D01*
X155901740Y-92520091D01*
X155584577Y-92045423D01*
X155232242Y-91810000D01*
X155584577Y-91574577D01*
X155901740Y-91099909D01*
X156013113Y-90540000D01*
X155901740Y-89980091D01*
X155584577Y-89505423D01*
X155232242Y-89270000D01*
X155584577Y-89034577D01*
X155901740Y-88559909D01*
X156013113Y-88000000D01*
X155901740Y-87440091D01*
X155584577Y-86965423D01*
X155109909Y-86648260D01*
X154691333Y-86565000D01*
X153708667Y-86565000D01*
X153290091Y-86648260D01*
X152815423Y-86965423D01*
X152498260Y-87440091D01*
X152386887Y-88000000D01*
X152498260Y-88559909D01*
X152815423Y-89034577D01*
X153167758Y-89270000D01*
X152815423Y-89505423D01*
X152498260Y-89980091D01*
X152386887Y-90540000D01*
X152498260Y-91099909D01*
X152815423Y-91574577D01*
X153167758Y-91810000D01*
X152815423Y-92045423D01*
X152498260Y-92520091D01*
X152386887Y-93080000D01*
X152498260Y-93639909D01*
X152815423Y-94114577D01*
X153167758Y-94350000D01*
X152815423Y-94585423D01*
X152498260Y-95060091D01*
X152386887Y-95620000D01*
X152498260Y-96179909D01*
X152815423Y-96654577D01*
X153167758Y-96890000D01*
X152815423Y-97125423D01*
X152498260Y-97600091D01*
X152386887Y-98160000D01*
X152498260Y-98719909D01*
X152815423Y-99194577D01*
X153167758Y-99430000D01*
X152815423Y-99665423D01*
X152498260Y-100140091D01*
X152409352Y-100587062D01*
X151885000Y-100062711D01*
X151885000Y-82780000D01*
X158286091Y-82780000D01*
X158286968Y-82784408D01*
X158286145Y-82788826D01*
X158314479Y-82922718D01*
X158341195Y-83057028D01*
X158343693Y-83060767D01*
X158344623Y-83065161D01*
X158422023Y-83177996D01*
X158498119Y-83291881D01*
X158501858Y-83294379D01*
X158504399Y-83298084D01*
X158619100Y-83372718D01*
X158732972Y-83448805D01*
X158737382Y-83449682D01*
X158741147Y-83452132D01*
X158875684Y-83477192D01*
X158940074Y-83490000D01*
X158944444Y-83490000D01*
X159018826Y-83503855D01*
X159084297Y-83490000D01*
X159544444Y-83490000D01*
X159618826Y-83503855D01*
X159752715Y-83475521D01*
X159887028Y-83448805D01*
X159890767Y-83446307D01*
X159895161Y-83445377D01*
X160007996Y-83367977D01*
X160121881Y-83291881D01*
X160124379Y-83288142D01*
X160128084Y-83285601D01*
X160202723Y-83170893D01*
X160278805Y-83057028D01*
X160293567Y-82982815D01*
X160490693Y-82490000D01*
X160529307Y-82490000D01*
X160700000Y-82916732D01*
X160700001Y-84110070D01*
X160686091Y-84180000D01*
X160741195Y-84457028D01*
X160898119Y-84691881D01*
X161132972Y-84848805D01*
X161340074Y-84890000D01*
X161340075Y-84890000D01*
X161410000Y-84903909D01*
X161479926Y-84890000D01*
X161907971Y-84890000D01*
X161941195Y-85057028D01*
X162098119Y-85291881D01*
X162332972Y-85448805D01*
X162540074Y-85490000D01*
X162540075Y-85490000D01*
X162610000Y-85503909D01*
X162679926Y-85490000D01*
X163140074Y-85490000D01*
X163210000Y-85503909D01*
X163279925Y-85490000D01*
X163279926Y-85490000D01*
X163487028Y-85448805D01*
X163721881Y-85291881D01*
X163878805Y-85057028D01*
X163914833Y-84875903D01*
X163920000Y-84849926D01*
X163920000Y-84849925D01*
X163933909Y-84780000D01*
X163920000Y-84710074D01*
X163920000Y-82049925D01*
X163933909Y-81980000D01*
X163918588Y-81902973D01*
X163878805Y-81702972D01*
X163857348Y-81670859D01*
X163721881Y-81468119D01*
X163555230Y-81356766D01*
X163558330Y-81327544D01*
X163579176Y-81262635D01*
X163575756Y-81220990D01*
X163583909Y-81180000D01*
X163577435Y-81147453D01*
X163580935Y-81114461D01*
X163561636Y-81049074D01*
X163556055Y-80981128D01*
X163536959Y-80943963D01*
X163528805Y-80902972D01*
X163510369Y-80875381D01*
X163500977Y-80843560D01*
X163458124Y-80790536D01*
X163426966Y-80729897D01*
X163395100Y-80702868D01*
X163371881Y-80668119D01*
X163344287Y-80649681D01*
X163323434Y-80623879D01*
X163289204Y-80605250D01*
X163278805Y-80552972D01*
X163243513Y-80500154D01*
X163220484Y-80440959D01*
X163165806Y-80383858D01*
X163121881Y-80318119D01*
X163064831Y-80280000D01*
X163121880Y-80241881D01*
X163165804Y-80176145D01*
X163220484Y-80119041D01*
X163243514Y-80059845D01*
X163278805Y-80007028D01*
X163294230Y-79929482D01*
X163322893Y-79855805D01*
X163320000Y-79722360D01*
X163320000Y-79310075D01*
X163278805Y-79102972D01*
X163121881Y-78868119D01*
X162887028Y-78711195D01*
X162610000Y-78656091D01*
X162332973Y-78711195D01*
X162098120Y-78868119D01*
X161941195Y-79102972D01*
X161925299Y-79182884D01*
X161782972Y-79211195D01*
X161548119Y-79368120D01*
X161468409Y-79487414D01*
X161402723Y-79389107D01*
X161328084Y-79274399D01*
X161324379Y-79271858D01*
X161321881Y-79268119D01*
X161207996Y-79192023D01*
X161095161Y-79114623D01*
X161090767Y-79113693D01*
X161087028Y-79111195D01*
X160952715Y-79084479D01*
X160818826Y-79056145D01*
X160744444Y-79070000D01*
X160275555Y-79070000D01*
X160201173Y-79056145D01*
X160067269Y-79084482D01*
X159932972Y-79111195D01*
X159929234Y-79113693D01*
X159924838Y-79114623D01*
X159811938Y-79192067D01*
X159698119Y-79268119D01*
X159695623Y-79271854D01*
X159691915Y-79274398D01*
X159617230Y-79389177D01*
X159541195Y-79502972D01*
X159526434Y-79577180D01*
X158378377Y-82447325D01*
X158341195Y-82502972D01*
X158326433Y-82577185D01*
X158324812Y-82581238D01*
X158312805Y-82645700D01*
X158286091Y-82780000D01*
X151885000Y-82780000D01*
X151885000Y-80887289D01*
X154146031Y-78626259D01*
X154224097Y-78574097D01*
X154430750Y-78264819D01*
X154485000Y-77992086D01*
X154485000Y-77992083D01*
X154503316Y-77900001D01*
X154485000Y-77807919D01*
X154485000Y-77166890D01*
X160168524Y-77166890D01*
X160338355Y-77576924D01*
X160728642Y-78005183D01*
X161253108Y-78251486D01*
X161483000Y-78130819D01*
X161483000Y-76937000D01*
X161737000Y-76937000D01*
X161737000Y-78130819D01*
X161966892Y-78251486D01*
X162491358Y-78005183D01*
X162881645Y-77576924D01*
X163051476Y-77166890D01*
X162930155Y-76937000D01*
X161737000Y-76937000D01*
X161483000Y-76937000D01*
X160289845Y-76937000D01*
X160168524Y-77166890D01*
X154485000Y-77166890D01*
X154485000Y-75242081D01*
X154503316Y-75149999D01*
X154485000Y-75057915D01*
X154485000Y-75057914D01*
X154430750Y-74785181D01*
X154224097Y-74475903D01*
X154146031Y-74423741D01*
X153015971Y-73293682D01*
X152963807Y-73215613D01*
X152654529Y-73008960D01*
X152533842Y-72984954D01*
X152199178Y-72668553D01*
X151740171Y-72493337D01*
X151373020Y-72503636D01*
X151250424Y-72531617D01*
X151348738Y-72453215D01*
X151585707Y-72172590D01*
X151734910Y-71704479D01*
X151693617Y-71214904D01*
X151468115Y-70778398D01*
X151092734Y-70461415D01*
X150624624Y-70312212D01*
X150135049Y-70353505D01*
X149808727Y-70522085D01*
X149710413Y-70600487D01*
X149764974Y-70487192D01*
X149856717Y-70131540D01*
X149788038Y-69645051D01*
X149538416Y-69221875D01*
X149145853Y-68926438D01*
X148670113Y-68803717D01*
X148183624Y-68872396D01*
X147977095Y-68994223D01*
X145636844Y-66653972D01*
X145624167Y-66634999D01*
X160695001Y-66634999D01*
X160695000Y-69157094D01*
X160695000Y-69157094D01*
G37*
X160695000Y-69157094D02*
X160646683Y-69400000D01*
X160665000Y-69492086D01*
X160665000Y-69582885D01*
X160551843Y-69752235D01*
X160502560Y-70000000D01*
X160502560Y-70500000D01*
X160551843Y-70747765D01*
X160692191Y-70957809D01*
X160755334Y-71000000D01*
X160692191Y-71042191D01*
X160551843Y-71252235D01*
X160502560Y-71500000D01*
X160502560Y-72000000D01*
X160551843Y-72247765D01*
X160675001Y-72432082D01*
X160675001Y-72789467D01*
X160512235Y-72821843D01*
X160302191Y-72962191D01*
X160161843Y-73172235D01*
X160112560Y-73420000D01*
X160112560Y-75120000D01*
X160161843Y-75367765D01*
X160302191Y-75577809D01*
X160512235Y-75718157D01*
X160615708Y-75738739D01*
X160338355Y-76043076D01*
X160168524Y-76453110D01*
X160289845Y-76683000D01*
X161483000Y-76683000D01*
X161483000Y-76663000D01*
X161737000Y-76663000D01*
X161737000Y-76683000D01*
X162930155Y-76683000D01*
X163051476Y-76453110D01*
X162881645Y-76043076D01*
X162604292Y-75738739D01*
X162707765Y-75718157D01*
X162917809Y-75577809D01*
X163058157Y-75367765D01*
X163107440Y-75120000D01*
X163107440Y-73420000D01*
X163058157Y-73172235D01*
X162917809Y-72962191D01*
X162707765Y-72821843D01*
X162545000Y-72789467D01*
X162545000Y-72402149D01*
X162648157Y-72247765D01*
X162697440Y-72000000D01*
X162697440Y-71500000D01*
X162648157Y-71252235D01*
X162507809Y-71042191D01*
X162444666Y-71000000D01*
X162507809Y-70957809D01*
X162648157Y-70747765D01*
X162697440Y-70500000D01*
X162697440Y-70000000D01*
X162648157Y-69752235D01*
X162539602Y-69589772D01*
X162565000Y-69462086D01*
X162565000Y-69462081D01*
X162583316Y-69370001D01*
X162565000Y-69277920D01*
X162565000Y-66634999D01*
X178796951Y-66634999D01*
X178671843Y-66822235D01*
X178622560Y-67070000D01*
X178622560Y-67570000D01*
X178671843Y-67817765D01*
X178785001Y-67987116D01*
X178785000Y-68883127D01*
X178433624Y-68932732D01*
X178010449Y-69182354D01*
X177789587Y-69475825D01*
X177119980Y-70866261D01*
X177028237Y-71221913D01*
X177096916Y-71708401D01*
X177346538Y-72131577D01*
X177739101Y-72427014D01*
X178214841Y-72549735D01*
X178484388Y-72511682D01*
X178507267Y-72782940D01*
X178732769Y-73219446D01*
X179108150Y-73536429D01*
X179367512Y-73619097D01*
X179270431Y-73873415D01*
X179284208Y-74364535D01*
X179484880Y-74812998D01*
X179682692Y-75000015D01*
X179484879Y-75187029D01*
X179284202Y-75635491D01*
X179270420Y-76126610D01*
X179367498Y-76380933D01*
X179108135Y-76463598D01*
X178732751Y-76780577D01*
X178507245Y-77217081D01*
X178484363Y-77488338D01*
X178214815Y-77450283D01*
X177739074Y-77572999D01*
X177346508Y-77868433D01*
X177208200Y-78102898D01*
X176981857Y-77951659D01*
X176499984Y-77855806D01*
X176018112Y-77951654D01*
X175791769Y-78102890D01*
X175653462Y-77868423D01*
X175260899Y-77572986D01*
X174785159Y-77450265D01*
X174515612Y-77488318D01*
X174492733Y-77217060D01*
X174267231Y-76780554D01*
X173891850Y-76463571D01*
X173632489Y-76380903D01*
X173729569Y-76126586D01*
X173715792Y-75635465D01*
X173515120Y-75187002D01*
X173317308Y-74999985D01*
X173515121Y-74812971D01*
X173715798Y-74364509D01*
X173729580Y-73873389D01*
X173632501Y-73619067D01*
X173891865Y-73536402D01*
X174267249Y-73219423D01*
X174492755Y-72782919D01*
X174496962Y-72733044D01*
X174715242Y-72676739D01*
X175796408Y-72156084D01*
X175998253Y-72004181D01*
X176126604Y-71786598D01*
X176161919Y-71536460D01*
X176098822Y-71291848D01*
X175014124Y-69039421D01*
X174862221Y-68837576D01*
X174644638Y-68709225D01*
X174394500Y-68673910D01*
X174149888Y-68737007D01*
X173915735Y-68849768D01*
X173899789Y-68825903D01*
X173590511Y-68619250D01*
X173317778Y-68565000D01*
X173225692Y-68546683D01*
X173133606Y-68565000D01*
X171942086Y-68565000D01*
X171850000Y-68546683D01*
X171757914Y-68565000D01*
X171485181Y-68619250D01*
X171175903Y-68825903D01*
X171123741Y-68903969D01*
X168403960Y-71623751D01*
X168325894Y-71675913D01*
X168273732Y-71753979D01*
X168273731Y-71753980D01*
X168119240Y-71985192D01*
X168046673Y-72350010D01*
X168064991Y-72442101D01*
X168064990Y-101367904D01*
X168046673Y-101459990D01*
X168082894Y-101642085D01*
X168119240Y-101824808D01*
X168325893Y-102134087D01*
X168403962Y-102186251D01*
X170153739Y-103936028D01*
X170205903Y-104014097D01*
X170515181Y-104220750D01*
X170785788Y-104274577D01*
X170880000Y-104293317D01*
X170972086Y-104275000D01*
X171178888Y-104275000D01*
X171245423Y-104374577D01*
X171597758Y-104610000D01*
X171245423Y-104845423D01*
X170928260Y-105320091D01*
X170816887Y-105880000D01*
X170928260Y-106439909D01*
X171245423Y-106914577D01*
X171720091Y-107231740D01*
X172138667Y-107315000D01*
X173221333Y-107315000D01*
X173639909Y-107231740D01*
X174114577Y-106914577D01*
X174431740Y-106439909D01*
X174543113Y-105880000D01*
X174431740Y-105320091D01*
X174114577Y-104845423D01*
X173762242Y-104610000D01*
X174114577Y-104374577D01*
X174431740Y-103899909D01*
X174543113Y-103340000D01*
X174431740Y-102780091D01*
X174114577Y-102305423D01*
X173762242Y-102070000D01*
X174114577Y-101834577D01*
X174431740Y-101359909D01*
X174543113Y-100800000D01*
X174431740Y-100240091D01*
X174114577Y-99765423D01*
X173762242Y-99530000D01*
X174114577Y-99294577D01*
X174431740Y-98819909D01*
X174543113Y-98260000D01*
X174431740Y-97700091D01*
X174114577Y-97225423D01*
X173639909Y-96908260D01*
X173221333Y-96825000D01*
X172167290Y-96825000D01*
X171085000Y-95742711D01*
X171085000Y-93974487D01*
X171245423Y-94214577D01*
X171720091Y-94531740D01*
X172138667Y-94615000D01*
X173221333Y-94615000D01*
X173639909Y-94531740D01*
X174114577Y-94214577D01*
X174431740Y-93739909D01*
X174543113Y-93180000D01*
X174431740Y-92620091D01*
X174114577Y-92145423D01*
X173762242Y-91910000D01*
X174114577Y-91674577D01*
X174431740Y-91199909D01*
X174543113Y-90640000D01*
X174519749Y-90522540D01*
X175814990Y-89227299D01*
X175814991Y-102637899D01*
X175796673Y-102729990D01*
X175869240Y-103094808D01*
X175994476Y-103282237D01*
X176075894Y-103404087D01*
X176153960Y-103456249D01*
X178452560Y-105754850D01*
X178452560Y-106680000D01*
X178501843Y-106927765D01*
X178642191Y-107137809D01*
X178852235Y-107278157D01*
X179100000Y-107327440D01*
X181111693Y-107327440D01*
X180224125Y-108215008D01*
X164348316Y-108215008D01*
X164274948Y-107846163D01*
X164103934Y-107590223D01*
X157985000Y-101471290D01*
X157985000Y-99298717D01*
X158314017Y-99435000D01*
X158685983Y-99435000D01*
X159029635Y-99292655D01*
X159292655Y-99029635D01*
X159435000Y-98685983D01*
X159435000Y-98314017D01*
X159335000Y-98072595D01*
X159335000Y-97112237D01*
X159351358Y-97030000D01*
X159317197Y-96858260D01*
X159286552Y-96704199D01*
X159102001Y-96427999D01*
X159032283Y-96381415D01*
X155966285Y-93315418D01*
X156013113Y-93080000D01*
X155901740Y-92520091D01*
X155584577Y-92045423D01*
X155232242Y-91810000D01*
X155584577Y-91574577D01*
X155901740Y-91099909D01*
X156013113Y-90540000D01*
X155901740Y-89980091D01*
X155584577Y-89505423D01*
X155232242Y-89270000D01*
X155584577Y-89034577D01*
X155901740Y-88559909D01*
X156013113Y-88000000D01*
X155901740Y-87440091D01*
X155584577Y-86965423D01*
X155109909Y-86648260D01*
X154691333Y-86565000D01*
X153708667Y-86565000D01*
X153290091Y-86648260D01*
X152815423Y-86965423D01*
X152498260Y-87440091D01*
X152386887Y-88000000D01*
X152498260Y-88559909D01*
X152815423Y-89034577D01*
X153167758Y-89270000D01*
X152815423Y-89505423D01*
X152498260Y-89980091D01*
X152386887Y-90540000D01*
X152498260Y-91099909D01*
X152815423Y-91574577D01*
X153167758Y-91810000D01*
X152815423Y-92045423D01*
X152498260Y-92520091D01*
X152386887Y-93080000D01*
X152498260Y-93639909D01*
X152815423Y-94114577D01*
X153167758Y-94350000D01*
X152815423Y-94585423D01*
X152498260Y-95060091D01*
X152386887Y-95620000D01*
X152498260Y-96179909D01*
X152815423Y-96654577D01*
X153167758Y-96890000D01*
X152815423Y-97125423D01*
X152498260Y-97600091D01*
X152386887Y-98160000D01*
X152498260Y-98719909D01*
X152815423Y-99194577D01*
X153167758Y-99430000D01*
X152815423Y-99665423D01*
X152498260Y-100140091D01*
X152409352Y-100587062D01*
X151885000Y-100062711D01*
X151885000Y-82780000D01*
X158286091Y-82780000D01*
X158286968Y-82784408D01*
X158286145Y-82788826D01*
X158314479Y-82922718D01*
X158341195Y-83057028D01*
X158343693Y-83060767D01*
X158344623Y-83065161D01*
X158422023Y-83177996D01*
X158498119Y-83291881D01*
X158501858Y-83294379D01*
X158504399Y-83298084D01*
X158619100Y-83372718D01*
X158732972Y-83448805D01*
X158737382Y-83449682D01*
X158741147Y-83452132D01*
X158875684Y-83477192D01*
X158940074Y-83490000D01*
X158944444Y-83490000D01*
X159018826Y-83503855D01*
X159084297Y-83490000D01*
X159544444Y-83490000D01*
X159618826Y-83503855D01*
X159752715Y-83475521D01*
X159887028Y-83448805D01*
X159890767Y-83446307D01*
X159895161Y-83445377D01*
X160007996Y-83367977D01*
X160121881Y-83291881D01*
X160124379Y-83288142D01*
X160128084Y-83285601D01*
X160202723Y-83170893D01*
X160278805Y-83057028D01*
X160293567Y-82982815D01*
X160490693Y-82490000D01*
X160529307Y-82490000D01*
X160700000Y-82916732D01*
X160700001Y-84110070D01*
X160686091Y-84180000D01*
X160741195Y-84457028D01*
X160898119Y-84691881D01*
X161132972Y-84848805D01*
X161340074Y-84890000D01*
X161340075Y-84890000D01*
X161410000Y-84903909D01*
X161479926Y-84890000D01*
X161907971Y-84890000D01*
X161941195Y-85057028D01*
X162098119Y-85291881D01*
X162332972Y-85448805D01*
X162540074Y-85490000D01*
X162540075Y-85490000D01*
X162610000Y-85503909D01*
X162679926Y-85490000D01*
X163140074Y-85490000D01*
X163210000Y-85503909D01*
X163279925Y-85490000D01*
X163279926Y-85490000D01*
X163487028Y-85448805D01*
X163721881Y-85291881D01*
X163878805Y-85057028D01*
X163914833Y-84875903D01*
X163920000Y-84849926D01*
X163920000Y-84849925D01*
X163933909Y-84780000D01*
X163920000Y-84710074D01*
X163920000Y-82049925D01*
X163933909Y-81980000D01*
X163918588Y-81902973D01*
X163878805Y-81702972D01*
X163857348Y-81670859D01*
X163721881Y-81468119D01*
X163555230Y-81356766D01*
X163558330Y-81327544D01*
X163579176Y-81262635D01*
X163575756Y-81220990D01*
X163583909Y-81180000D01*
X163577435Y-81147453D01*
X163580935Y-81114461D01*
X163561636Y-81049074D01*
X163556055Y-80981128D01*
X163536959Y-80943963D01*
X163528805Y-80902972D01*
X163510369Y-80875381D01*
X163500977Y-80843560D01*
X163458124Y-80790536D01*
X163426966Y-80729897D01*
X163395100Y-80702868D01*
X163371881Y-80668119D01*
X163344287Y-80649681D01*
X163323434Y-80623879D01*
X163289204Y-80605250D01*
X163278805Y-80552972D01*
X163243513Y-80500154D01*
X163220484Y-80440959D01*
X163165806Y-80383858D01*
X163121881Y-80318119D01*
X163064831Y-80280000D01*
X163121880Y-80241881D01*
X163165804Y-80176145D01*
X163220484Y-80119041D01*
X163243514Y-80059845D01*
X163278805Y-80007028D01*
X163294230Y-79929482D01*
X163322893Y-79855805D01*
X163320000Y-79722360D01*
X163320000Y-79310075D01*
X163278805Y-79102972D01*
X163121881Y-78868119D01*
X162887028Y-78711195D01*
X162610000Y-78656091D01*
X162332973Y-78711195D01*
X162098120Y-78868119D01*
X161941195Y-79102972D01*
X161925299Y-79182884D01*
X161782972Y-79211195D01*
X161548119Y-79368120D01*
X161468409Y-79487414D01*
X161402723Y-79389107D01*
X161328084Y-79274399D01*
X161324379Y-79271858D01*
X161321881Y-79268119D01*
X161207996Y-79192023D01*
X161095161Y-79114623D01*
X161090767Y-79113693D01*
X161087028Y-79111195D01*
X160952715Y-79084479D01*
X160818826Y-79056145D01*
X160744444Y-79070000D01*
X160275555Y-79070000D01*
X160201173Y-79056145D01*
X160067269Y-79084482D01*
X159932972Y-79111195D01*
X159929234Y-79113693D01*
X159924838Y-79114623D01*
X159811938Y-79192067D01*
X159698119Y-79268119D01*
X159695623Y-79271854D01*
X159691915Y-79274398D01*
X159617230Y-79389177D01*
X159541195Y-79502972D01*
X159526434Y-79577180D01*
X158378377Y-82447325D01*
X158341195Y-82502972D01*
X158326433Y-82577185D01*
X158324812Y-82581238D01*
X158312805Y-82645700D01*
X158286091Y-82780000D01*
X151885000Y-82780000D01*
X151885000Y-80887289D01*
X154146031Y-78626259D01*
X154224097Y-78574097D01*
X154430750Y-78264819D01*
X154485000Y-77992086D01*
X154485000Y-77992083D01*
X154503316Y-77900001D01*
X154485000Y-77807919D01*
X154485000Y-77166890D01*
X160168524Y-77166890D01*
X160338355Y-77576924D01*
X160728642Y-78005183D01*
X161253108Y-78251486D01*
X161483000Y-78130819D01*
X161483000Y-76937000D01*
X161737000Y-76937000D01*
X161737000Y-78130819D01*
X161966892Y-78251486D01*
X162491358Y-78005183D01*
X162881645Y-77576924D01*
X163051476Y-77166890D01*
X162930155Y-76937000D01*
X161737000Y-76937000D01*
X161483000Y-76937000D01*
X160289845Y-76937000D01*
X160168524Y-77166890D01*
X154485000Y-77166890D01*
X154485000Y-75242081D01*
X154503316Y-75149999D01*
X154485000Y-75057915D01*
X154485000Y-75057914D01*
X154430750Y-74785181D01*
X154224097Y-74475903D01*
X154146031Y-74423741D01*
X153015971Y-73293682D01*
X152963807Y-73215613D01*
X152654529Y-73008960D01*
X152533842Y-72984954D01*
X152199178Y-72668553D01*
X151740171Y-72493337D01*
X151373020Y-72503636D01*
X151250424Y-72531617D01*
X151348738Y-72453215D01*
X151585707Y-72172590D01*
X151734910Y-71704479D01*
X151693617Y-71214904D01*
X151468115Y-70778398D01*
X151092734Y-70461415D01*
X150624624Y-70312212D01*
X150135049Y-70353505D01*
X149808727Y-70522085D01*
X149710413Y-70600487D01*
X149764974Y-70487192D01*
X149856717Y-70131540D01*
X149788038Y-69645051D01*
X149538416Y-69221875D01*
X149145853Y-68926438D01*
X148670113Y-68803717D01*
X148183624Y-68872396D01*
X147977095Y-68994223D01*
X145636844Y-66653972D01*
X145624167Y-66634999D01*
X160695001Y-66634999D01*
X160695000Y-69157094D01*
G36*
X200018389Y-68823521D02*
X200081711Y-68918289D01*
X200425733Y-69148157D01*
X200457145Y-69169146D01*
X200900000Y-69257235D01*
X201011783Y-69235000D01*
X201970828Y-69235000D01*
X201789587Y-69475825D01*
X201119980Y-70866261D01*
X201028237Y-71221913D01*
X201096916Y-71708401D01*
X201346538Y-72131577D01*
X201739101Y-72427014D01*
X202214841Y-72549735D01*
X202484388Y-72511682D01*
X202507267Y-72782940D01*
X202732769Y-73219446D01*
X203108150Y-73536429D01*
X203367512Y-73619097D01*
X203270431Y-73873415D01*
X203284208Y-74364535D01*
X203484880Y-74812998D01*
X203682692Y-75000015D01*
X203484879Y-75187029D01*
X203284202Y-75635491D01*
X203270420Y-76126610D01*
X203367498Y-76380933D01*
X203108135Y-76463598D01*
X202732751Y-76780577D01*
X202507245Y-77217081D01*
X202484363Y-77488338D01*
X202214815Y-77450283D01*
X201739074Y-77572999D01*
X201346508Y-77868433D01*
X201208200Y-78102898D01*
X200981857Y-77951659D01*
X200499984Y-77855806D01*
X200018112Y-77951654D01*
X199791769Y-78102890D01*
X199653462Y-77868423D01*
X199260899Y-77572986D01*
X198785159Y-77450265D01*
X198515612Y-77488318D01*
X198492733Y-77217060D01*
X198267231Y-76780554D01*
X197891850Y-76463571D01*
X197632489Y-76380903D01*
X197729569Y-76126586D01*
X197715792Y-75635465D01*
X197515120Y-75187002D01*
X197317308Y-74999985D01*
X197515121Y-74812971D01*
X197715798Y-74364509D01*
X197729580Y-73873389D01*
X197632501Y-73619067D01*
X197891865Y-73536402D01*
X198267249Y-73219423D01*
X198492755Y-72782919D01*
X198496962Y-72733044D01*
X198715242Y-72676739D01*
X199796408Y-72156084D01*
X199998253Y-72004181D01*
X200126604Y-71786598D01*
X200161919Y-71536460D01*
X200098822Y-71291848D01*
X199014124Y-69039421D01*
X198862221Y-68837576D01*
X198644638Y-68709225D01*
X198394500Y-68673910D01*
X198149888Y-68737007D01*
X197869582Y-68871994D01*
X197790240Y-68818979D01*
X197517507Y-68764729D01*
X197425421Y-68746412D01*
X197333335Y-68764729D01*
X195842357Y-68764729D01*
X195750271Y-68746412D01*
X195658185Y-68764729D01*
X195385452Y-68818979D01*
X195076174Y-69025632D01*
X195024012Y-69103698D01*
X192103960Y-72023751D01*
X192025894Y-72075913D01*
X191973732Y-72153979D01*
X191973731Y-72153980D01*
X191819240Y-72385192D01*
X191746673Y-72750010D01*
X191764991Y-72842100D01*
X191764990Y-82057914D01*
X191746673Y-82150000D01*
X191764990Y-82242085D01*
X191819240Y-82514818D01*
X192025893Y-82824097D01*
X192103962Y-82876261D01*
X196314991Y-87087290D01*
X196314990Y-96207914D01*
X196296673Y-96300000D01*
X196314990Y-96392085D01*
X196369240Y-96664818D01*
X196575893Y-96974097D01*
X196653962Y-97026261D01*
X197665001Y-98037301D01*
X197665000Y-101367914D01*
X197646683Y-101460000D01*
X197682902Y-101642085D01*
X197719250Y-101824818D01*
X197925903Y-102134097D01*
X198003972Y-102186261D01*
X198990251Y-103172541D01*
X198966887Y-103290000D01*
X199078260Y-103849909D01*
X199395423Y-104324577D01*
X199747758Y-104560000D01*
X199395423Y-104795423D01*
X199078260Y-105270091D01*
X198966887Y-105830000D01*
X199078260Y-106389909D01*
X199395423Y-106864577D01*
X199870091Y-107181740D01*
X200288667Y-107265000D01*
X201371333Y-107265000D01*
X201789909Y-107181740D01*
X202264577Y-106864577D01*
X202581740Y-106389909D01*
X202693113Y-105830000D01*
X202581740Y-105270091D01*
X202264577Y-104795423D01*
X201912242Y-104560000D01*
X202264577Y-104324577D01*
X202581740Y-103849909D01*
X202693113Y-103290000D01*
X202581740Y-102730091D01*
X202264577Y-102255423D01*
X201912242Y-102020000D01*
X202264577Y-101784577D01*
X202581740Y-101309909D01*
X202693113Y-100750000D01*
X202581740Y-100190091D01*
X202264577Y-99715423D01*
X201912242Y-99480000D01*
X202264577Y-99244577D01*
X202581740Y-98769909D01*
X202693113Y-98210000D01*
X202581740Y-97650091D01*
X202264577Y-97175423D01*
X201789909Y-96858260D01*
X201371333Y-96775000D01*
X200317290Y-96775000D01*
X198985000Y-95442711D01*
X198985000Y-93221060D01*
X199078260Y-93689909D01*
X199395423Y-94164577D01*
X199870091Y-94481740D01*
X200288667Y-94565000D01*
X201371333Y-94565000D01*
X201789909Y-94481740D01*
X202264577Y-94164577D01*
X202581740Y-93689909D01*
X202693113Y-93130000D01*
X202669749Y-93012540D01*
X203290413Y-92391876D01*
X203290413Y-101913321D01*
X203272095Y-102005412D01*
X203344662Y-102370230D01*
X203447189Y-102523672D01*
X203551316Y-102679509D01*
X203629382Y-102731671D01*
X206602560Y-105704850D01*
X206602560Y-106630000D01*
X206651843Y-106877765D01*
X206792191Y-107087809D01*
X207002235Y-107228157D01*
X207250000Y-107277440D01*
X209541692Y-107277440D01*
X208804133Y-108015000D01*
X199295869Y-108015000D01*
X196285000Y-105004133D01*
X196285000Y-97482237D01*
X196301358Y-97400000D01*
X196263380Y-97209074D01*
X196236552Y-97074199D01*
X196052001Y-96797999D01*
X195982283Y-96751415D01*
X191548587Y-92317720D01*
X191502001Y-92247999D01*
X191432282Y-92201414D01*
X190898587Y-91667720D01*
X190852001Y-91597999D01*
X190575801Y-91413448D01*
X190332237Y-91365000D01*
X190332233Y-91365000D01*
X190250000Y-91348643D01*
X190167767Y-91365000D01*
X188115000Y-91365000D01*
X188115000Y-89897440D01*
X188130000Y-89897440D01*
X188377765Y-89848157D01*
X188587809Y-89707809D01*
X188728157Y-89497765D01*
X188777440Y-89250000D01*
X188777440Y-87550000D01*
X188728157Y-87302235D01*
X188587809Y-87092191D01*
X188377765Y-86951843D01*
X188274292Y-86931261D01*
X188551645Y-86626924D01*
X188721476Y-86216890D01*
X188600155Y-85987000D01*
X187407000Y-85987000D01*
X187407000Y-86007000D01*
X187153000Y-86007000D01*
X187153000Y-85987000D01*
X185959845Y-85987000D01*
X185838524Y-86216890D01*
X186008355Y-86626924D01*
X186285708Y-86931261D01*
X186182235Y-86951843D01*
X185972191Y-87092191D01*
X185831843Y-87302235D01*
X185782560Y-87550000D01*
X185782560Y-89250000D01*
X185831843Y-89497765D01*
X185972191Y-89707809D01*
X186182235Y-89848157D01*
X186430000Y-89897440D01*
X186445000Y-89897440D01*
X186445001Y-91365000D01*
X184302237Y-91365000D01*
X184220000Y-91348642D01*
X184137763Y-91365000D01*
X183894199Y-91413448D01*
X183617999Y-91597999D01*
X183571415Y-91667717D01*
X182145861Y-93093271D01*
X182051740Y-92620091D01*
X181734577Y-92145423D01*
X181382242Y-91910000D01*
X181734577Y-91674577D01*
X182051740Y-91199909D01*
X182163113Y-90640000D01*
X182051740Y-90080091D01*
X181734577Y-89605423D01*
X181382242Y-89370000D01*
X181734577Y-89134577D01*
X182051740Y-88659909D01*
X182163113Y-88100000D01*
X182051740Y-87540091D01*
X181734577Y-87065423D01*
X181259909Y-86748260D01*
X180841333Y-86665000D01*
X179758667Y-86665000D01*
X179340091Y-86748260D01*
X178865423Y-87065423D01*
X178548260Y-87540091D01*
X178485000Y-87858120D01*
X178485000Y-87337289D01*
X184196031Y-81626259D01*
X184274097Y-81574097D01*
X184480750Y-81264819D01*
X184484682Y-81245053D01*
X184553317Y-80900001D01*
X184535000Y-80807915D01*
X184535000Y-75042086D01*
X184553317Y-74950000D01*
X184480750Y-74585181D01*
X184447715Y-74535740D01*
X184274097Y-74275903D01*
X184196031Y-74223741D01*
X183315971Y-73343682D01*
X183263807Y-73265613D01*
X182954529Y-73058960D01*
X182756674Y-73019604D01*
X182449178Y-72728889D01*
X181990171Y-72553673D01*
X181623020Y-72563972D01*
X181500424Y-72591953D01*
X181598738Y-72513551D01*
X181835707Y-72232926D01*
X181984910Y-71764815D01*
X181943617Y-71275240D01*
X181718115Y-70838734D01*
X181342734Y-70521751D01*
X180874624Y-70372548D01*
X180385049Y-70413841D01*
X180058727Y-70582421D01*
X179960413Y-70660823D01*
X179983243Y-70613418D01*
X180346036Y-70250625D01*
X180424096Y-70198467D01*
X180476254Y-70120407D01*
X180476259Y-70120402D01*
X180630750Y-69889190D01*
X180703317Y-69524372D01*
X180655000Y-69281466D01*
X180655000Y-68224017D01*
X181515000Y-68224017D01*
X181515000Y-68595983D01*
X181657345Y-68939635D01*
X181920365Y-69202655D01*
X182161789Y-69302656D01*
X187695002Y-74835870D01*
X187695002Y-76808457D01*
X187426256Y-76755000D01*
X187133744Y-76755000D01*
X186700582Y-76841161D01*
X186209375Y-77169375D01*
X185881161Y-77660582D01*
X185765908Y-78240000D01*
X185881161Y-78819418D01*
X186209375Y-79310625D01*
X186507761Y-79510000D01*
X186209375Y-79709375D01*
X185881161Y-80200582D01*
X185765908Y-80780000D01*
X185881161Y-81359418D01*
X186209375Y-81850625D01*
X186507761Y-82050000D01*
X186209375Y-82249375D01*
X185881161Y-82740582D01*
X185765908Y-83320000D01*
X185881161Y-83899418D01*
X186209375Y-84390625D01*
X186528478Y-84603843D01*
X186398642Y-84664817D01*
X186008355Y-85093076D01*
X185838524Y-85503110D01*
X185959845Y-85733000D01*
X187153000Y-85733000D01*
X187153000Y-85713000D01*
X187407000Y-85713000D01*
X187407000Y-85733000D01*
X188600155Y-85733000D01*
X188721476Y-85503110D01*
X188551645Y-85093076D01*
X188161358Y-84664817D01*
X188031522Y-84603843D01*
X188350625Y-84390625D01*
X188678839Y-83899418D01*
X188794092Y-83320000D01*
X188738807Y-83042061D01*
X189662293Y-82118575D01*
X189732011Y-82071991D01*
X189916562Y-81795791D01*
X189965010Y-81552227D01*
X189965010Y-81552224D01*
X189981367Y-81469991D01*
X189965010Y-81387758D01*
X189965010Y-74002242D01*
X189981367Y-73920009D01*
X189965010Y-73837776D01*
X189965010Y-73837773D01*
X189916562Y-73594209D01*
X189870215Y-73524846D01*
X189778594Y-73387725D01*
X189778593Y-73387724D01*
X189732011Y-73318009D01*
X189662296Y-73271427D01*
X184542656Y-68151789D01*
X184442655Y-67910365D01*
X184179635Y-67647345D01*
X183835983Y-67505000D01*
X183464017Y-67505000D01*
X183120365Y-67647345D01*
X183065000Y-67702710D01*
X182979635Y-67617345D01*
X182635983Y-67475000D01*
X182264017Y-67475000D01*
X181920365Y-67617345D01*
X181657345Y-67880365D01*
X181515000Y-68224017D01*
X180655000Y-68224017D01*
X180655000Y-67987115D01*
X180768157Y-67817765D01*
X180817440Y-67570000D01*
X180817440Y-67070000D01*
X180768157Y-66822235D01*
X180643049Y-66634999D01*
X197829868Y-66634999D01*
X200018389Y-68823521D01*
X200018389Y-68823521D01*
G37*
X200018389Y-68823521D02*
X200081711Y-68918289D01*
X200425733Y-69148157D01*
X200457145Y-69169146D01*
X200900000Y-69257235D01*
X201011783Y-69235000D01*
X201970828Y-69235000D01*
X201789587Y-69475825D01*
X201119980Y-70866261D01*
X201028237Y-71221913D01*
X201096916Y-71708401D01*
X201346538Y-72131577D01*
X201739101Y-72427014D01*
X202214841Y-72549735D01*
X202484388Y-72511682D01*
X202507267Y-72782940D01*
X202732769Y-73219446D01*
X203108150Y-73536429D01*
X203367512Y-73619097D01*
X203270431Y-73873415D01*
X203284208Y-74364535D01*
X203484880Y-74812998D01*
X203682692Y-75000015D01*
X203484879Y-75187029D01*
X203284202Y-75635491D01*
X203270420Y-76126610D01*
X203367498Y-76380933D01*
X203108135Y-76463598D01*
X202732751Y-76780577D01*
X202507245Y-77217081D01*
X202484363Y-77488338D01*
X202214815Y-77450283D01*
X201739074Y-77572999D01*
X201346508Y-77868433D01*
X201208200Y-78102898D01*
X200981857Y-77951659D01*
X200499984Y-77855806D01*
X200018112Y-77951654D01*
X199791769Y-78102890D01*
X199653462Y-77868423D01*
X199260899Y-77572986D01*
X198785159Y-77450265D01*
X198515612Y-77488318D01*
X198492733Y-77217060D01*
X198267231Y-76780554D01*
X197891850Y-76463571D01*
X197632489Y-76380903D01*
X197729569Y-76126586D01*
X197715792Y-75635465D01*
X197515120Y-75187002D01*
X197317308Y-74999985D01*
X197515121Y-74812971D01*
X197715798Y-74364509D01*
X197729580Y-73873389D01*
X197632501Y-73619067D01*
X197891865Y-73536402D01*
X198267249Y-73219423D01*
X198492755Y-72782919D01*
X198496962Y-72733044D01*
X198715242Y-72676739D01*
X199796408Y-72156084D01*
X199998253Y-72004181D01*
X200126604Y-71786598D01*
X200161919Y-71536460D01*
X200098822Y-71291848D01*
X199014124Y-69039421D01*
X198862221Y-68837576D01*
X198644638Y-68709225D01*
X198394500Y-68673910D01*
X198149888Y-68737007D01*
X197869582Y-68871994D01*
X197790240Y-68818979D01*
X197517507Y-68764729D01*
X197425421Y-68746412D01*
X197333335Y-68764729D01*
X195842357Y-68764729D01*
X195750271Y-68746412D01*
X195658185Y-68764729D01*
X195385452Y-68818979D01*
X195076174Y-69025632D01*
X195024012Y-69103698D01*
X192103960Y-72023751D01*
X192025894Y-72075913D01*
X191973732Y-72153979D01*
X191973731Y-72153980D01*
X191819240Y-72385192D01*
X191746673Y-72750010D01*
X191764991Y-72842100D01*
X191764990Y-82057914D01*
X191746673Y-82150000D01*
X191764990Y-82242085D01*
X191819240Y-82514818D01*
X192025893Y-82824097D01*
X192103962Y-82876261D01*
X196314991Y-87087290D01*
X196314990Y-96207914D01*
X196296673Y-96300000D01*
X196314990Y-96392085D01*
X196369240Y-96664818D01*
X196575893Y-96974097D01*
X196653962Y-97026261D01*
X197665001Y-98037301D01*
X197665000Y-101367914D01*
X197646683Y-101460000D01*
X197682902Y-101642085D01*
X197719250Y-101824818D01*
X197925903Y-102134097D01*
X198003972Y-102186261D01*
X198990251Y-103172541D01*
X198966887Y-103290000D01*
X199078260Y-103849909D01*
X199395423Y-104324577D01*
X199747758Y-104560000D01*
X199395423Y-104795423D01*
X199078260Y-105270091D01*
X198966887Y-105830000D01*
X199078260Y-106389909D01*
X199395423Y-106864577D01*
X199870091Y-107181740D01*
X200288667Y-107265000D01*
X201371333Y-107265000D01*
X201789909Y-107181740D01*
X202264577Y-106864577D01*
X202581740Y-106389909D01*
X202693113Y-105830000D01*
X202581740Y-105270091D01*
X202264577Y-104795423D01*
X201912242Y-104560000D01*
X202264577Y-104324577D01*
X202581740Y-103849909D01*
X202693113Y-103290000D01*
X202581740Y-102730091D01*
X202264577Y-102255423D01*
X201912242Y-102020000D01*
X202264577Y-101784577D01*
X202581740Y-101309909D01*
X202693113Y-100750000D01*
X202581740Y-100190091D01*
X202264577Y-99715423D01*
X201912242Y-99480000D01*
X202264577Y-99244577D01*
X202581740Y-98769909D01*
X202693113Y-98210000D01*
X202581740Y-97650091D01*
X202264577Y-97175423D01*
X201789909Y-96858260D01*
X201371333Y-96775000D01*
X200317290Y-96775000D01*
X198985000Y-95442711D01*
X198985000Y-93221060D01*
X199078260Y-93689909D01*
X199395423Y-94164577D01*
X199870091Y-94481740D01*
X200288667Y-94565000D01*
X201371333Y-94565000D01*
X201789909Y-94481740D01*
X202264577Y-94164577D01*
X202581740Y-93689909D01*
X202693113Y-93130000D01*
X202669749Y-93012540D01*
X203290413Y-92391876D01*
X203290413Y-101913321D01*
X203272095Y-102005412D01*
X203344662Y-102370230D01*
X203447189Y-102523672D01*
X203551316Y-102679509D01*
X203629382Y-102731671D01*
X206602560Y-105704850D01*
X206602560Y-106630000D01*
X206651843Y-106877765D01*
X206792191Y-107087809D01*
X207002235Y-107228157D01*
X207250000Y-107277440D01*
X209541692Y-107277440D01*
X208804133Y-108015000D01*
X199295869Y-108015000D01*
X196285000Y-105004133D01*
X196285000Y-97482237D01*
X196301358Y-97400000D01*
X196263380Y-97209074D01*
X196236552Y-97074199D01*
X196052001Y-96797999D01*
X195982283Y-96751415D01*
X191548587Y-92317720D01*
X191502001Y-92247999D01*
X191432282Y-92201414D01*
X190898587Y-91667720D01*
X190852001Y-91597999D01*
X190575801Y-91413448D01*
X190332237Y-91365000D01*
X190332233Y-91365000D01*
X190250000Y-91348643D01*
X190167767Y-91365000D01*
X188115000Y-91365000D01*
X188115000Y-89897440D01*
X188130000Y-89897440D01*
X188377765Y-89848157D01*
X188587809Y-89707809D01*
X188728157Y-89497765D01*
X188777440Y-89250000D01*
X188777440Y-87550000D01*
X188728157Y-87302235D01*
X188587809Y-87092191D01*
X188377765Y-86951843D01*
X188274292Y-86931261D01*
X188551645Y-86626924D01*
X188721476Y-86216890D01*
X188600155Y-85987000D01*
X187407000Y-85987000D01*
X187407000Y-86007000D01*
X187153000Y-86007000D01*
X187153000Y-85987000D01*
X185959845Y-85987000D01*
X185838524Y-86216890D01*
X186008355Y-86626924D01*
X186285708Y-86931261D01*
X186182235Y-86951843D01*
X185972191Y-87092191D01*
X185831843Y-87302235D01*
X185782560Y-87550000D01*
X185782560Y-89250000D01*
X185831843Y-89497765D01*
X185972191Y-89707809D01*
X186182235Y-89848157D01*
X186430000Y-89897440D01*
X186445000Y-89897440D01*
X186445001Y-91365000D01*
X184302237Y-91365000D01*
X184220000Y-91348642D01*
X184137763Y-91365000D01*
X183894199Y-91413448D01*
X183617999Y-91597999D01*
X183571415Y-91667717D01*
X182145861Y-93093271D01*
X182051740Y-92620091D01*
X181734577Y-92145423D01*
X181382242Y-91910000D01*
X181734577Y-91674577D01*
X182051740Y-91199909D01*
X182163113Y-90640000D01*
X182051740Y-90080091D01*
X181734577Y-89605423D01*
X181382242Y-89370000D01*
X181734577Y-89134577D01*
X182051740Y-88659909D01*
X182163113Y-88100000D01*
X182051740Y-87540091D01*
X181734577Y-87065423D01*
X181259909Y-86748260D01*
X180841333Y-86665000D01*
X179758667Y-86665000D01*
X179340091Y-86748260D01*
X178865423Y-87065423D01*
X178548260Y-87540091D01*
X178485000Y-87858120D01*
X178485000Y-87337289D01*
X184196031Y-81626259D01*
X184274097Y-81574097D01*
X184480750Y-81264819D01*
X184484682Y-81245053D01*
X184553317Y-80900001D01*
X184535000Y-80807915D01*
X184535000Y-75042086D01*
X184553317Y-74950000D01*
X184480750Y-74585181D01*
X184447715Y-74535740D01*
X184274097Y-74275903D01*
X184196031Y-74223741D01*
X183315971Y-73343682D01*
X183263807Y-73265613D01*
X182954529Y-73058960D01*
X182756674Y-73019604D01*
X182449178Y-72728889D01*
X181990171Y-72553673D01*
X181623020Y-72563972D01*
X181500424Y-72591953D01*
X181598738Y-72513551D01*
X181835707Y-72232926D01*
X181984910Y-71764815D01*
X181943617Y-71275240D01*
X181718115Y-70838734D01*
X181342734Y-70521751D01*
X180874624Y-70372548D01*
X180385049Y-70413841D01*
X180058727Y-70582421D01*
X179960413Y-70660823D01*
X179983243Y-70613418D01*
X180346036Y-70250625D01*
X180424096Y-70198467D01*
X180476254Y-70120407D01*
X180476259Y-70120402D01*
X180630750Y-69889190D01*
X180703317Y-69524372D01*
X180655000Y-69281466D01*
X180655000Y-68224017D01*
X181515000Y-68224017D01*
X181515000Y-68595983D01*
X181657345Y-68939635D01*
X181920365Y-69202655D01*
X182161789Y-69302656D01*
X187695002Y-74835870D01*
X187695002Y-76808457D01*
X187426256Y-76755000D01*
X187133744Y-76755000D01*
X186700582Y-76841161D01*
X186209375Y-77169375D01*
X185881161Y-77660582D01*
X185765908Y-78240000D01*
X185881161Y-78819418D01*
X186209375Y-79310625D01*
X186507761Y-79510000D01*
X186209375Y-79709375D01*
X185881161Y-80200582D01*
X185765908Y-80780000D01*
X185881161Y-81359418D01*
X186209375Y-81850625D01*
X186507761Y-82050000D01*
X186209375Y-82249375D01*
X185881161Y-82740582D01*
X185765908Y-83320000D01*
X185881161Y-83899418D01*
X186209375Y-84390625D01*
X186528478Y-84603843D01*
X186398642Y-84664817D01*
X186008355Y-85093076D01*
X185838524Y-85503110D01*
X185959845Y-85733000D01*
X187153000Y-85733000D01*
X187153000Y-85713000D01*
X187407000Y-85713000D01*
X187407000Y-85733000D01*
X188600155Y-85733000D01*
X188721476Y-85503110D01*
X188551645Y-85093076D01*
X188161358Y-84664817D01*
X188031522Y-84603843D01*
X188350625Y-84390625D01*
X188678839Y-83899418D01*
X188794092Y-83320000D01*
X188738807Y-83042061D01*
X189662293Y-82118575D01*
X189732011Y-82071991D01*
X189916562Y-81795791D01*
X189965010Y-81552227D01*
X189965010Y-81552224D01*
X189981367Y-81469991D01*
X189965010Y-81387758D01*
X189965010Y-74002242D01*
X189981367Y-73920009D01*
X189965010Y-73837776D01*
X189965010Y-73837773D01*
X189916562Y-73594209D01*
X189870215Y-73524846D01*
X189778594Y-73387725D01*
X189778593Y-73387724D01*
X189732011Y-73318009D01*
X189662296Y-73271427D01*
X184542656Y-68151789D01*
X184442655Y-67910365D01*
X184179635Y-67647345D01*
X183835983Y-67505000D01*
X183464017Y-67505000D01*
X183120365Y-67647345D01*
X183065000Y-67702710D01*
X182979635Y-67617345D01*
X182635983Y-67475000D01*
X182264017Y-67475000D01*
X181920365Y-67617345D01*
X181657345Y-67880365D01*
X181515000Y-68224017D01*
X180655000Y-68224017D01*
X180655000Y-67987115D01*
X180768157Y-67817765D01*
X180817440Y-67570000D01*
X180817440Y-67070000D01*
X180768157Y-66822235D01*
X180643049Y-66634999D01*
X197829868Y-66634999D01*
X200018389Y-68823521D01*
G36*
X142364991Y-85942929D02*
X142364990Y-96457914D01*
X142346673Y-96550000D01*
X142364990Y-96642085D01*
X142419240Y-96914818D01*
X142625893Y-97224097D01*
X142703962Y-97276261D01*
X143815001Y-98387301D01*
X143815000Y-101667914D01*
X143796683Y-101760000D01*
X143830152Y-101928260D01*
X143869250Y-102124818D01*
X144075903Y-102434097D01*
X144153972Y-102486261D01*
X144790251Y-103122541D01*
X144766887Y-103240000D01*
X144878260Y-103799909D01*
X145195423Y-104274577D01*
X145547758Y-104510000D01*
X145195423Y-104745423D01*
X144878260Y-105220091D01*
X144766887Y-105780000D01*
X144878260Y-106339909D01*
X145195423Y-106814577D01*
X145670091Y-107131740D01*
X146088667Y-107215000D01*
X147071333Y-107215000D01*
X147489909Y-107131740D01*
X147964577Y-106814577D01*
X148281740Y-106339909D01*
X148393113Y-105780000D01*
X148281740Y-105220091D01*
X147964577Y-104745423D01*
X147612242Y-104510000D01*
X147964577Y-104274577D01*
X148281740Y-103799909D01*
X148393113Y-103240000D01*
X148281740Y-102680091D01*
X147964577Y-102205423D01*
X147612242Y-101970000D01*
X147964577Y-101734577D01*
X148281740Y-101259909D01*
X148393113Y-100700000D01*
X148281740Y-100140091D01*
X147964577Y-99665423D01*
X147612242Y-99430000D01*
X147964577Y-99194577D01*
X148281740Y-98719909D01*
X148393113Y-98160000D01*
X148281740Y-97600091D01*
X147964577Y-97125423D01*
X147489909Y-96808260D01*
X147071333Y-96725000D01*
X146117290Y-96725000D01*
X145035000Y-95642711D01*
X145035000Y-93874487D01*
X145195423Y-94114577D01*
X145670091Y-94431740D01*
X146088667Y-94515000D01*
X147071333Y-94515000D01*
X147489909Y-94431740D01*
X147964577Y-94114577D01*
X148281740Y-93639909D01*
X148393113Y-93080000D01*
X148369749Y-92962541D01*
X149040413Y-92291877D01*
X149040413Y-101813321D01*
X149022095Y-101905412D01*
X149094662Y-102270230D01*
X149220961Y-102459250D01*
X149301316Y-102579509D01*
X149379382Y-102631671D01*
X150503959Y-103756249D01*
X150503962Y-103756251D01*
X152410251Y-105662541D01*
X152386887Y-105780000D01*
X152498260Y-106339909D01*
X152815423Y-106814577D01*
X153290091Y-107131740D01*
X153708667Y-107215000D01*
X154691333Y-107215000D01*
X154707311Y-107211822D01*
X154354133Y-107565000D01*
X145025870Y-107565000D01*
X142915001Y-105454133D01*
X142915001Y-98232233D01*
X142931358Y-98150000D01*
X142915001Y-98067765D01*
X142915001Y-98067764D01*
X142866553Y-97824200D01*
X142781229Y-97696503D01*
X142728585Y-97617716D01*
X142728584Y-97617715D01*
X142682002Y-97548000D01*
X142612287Y-97501418D01*
X138063389Y-92952521D01*
X138159635Y-92912655D01*
X138422655Y-92649635D01*
X138565000Y-92305983D01*
X138565000Y-91934017D01*
X138465000Y-91692595D01*
X138465000Y-88267440D01*
X140090000Y-88267440D01*
X140337765Y-88218157D01*
X140547809Y-88077809D01*
X140688157Y-87867765D01*
X140737440Y-87620000D01*
X140737440Y-85920000D01*
X140688157Y-85672235D01*
X140547809Y-85462191D01*
X140337765Y-85321843D01*
X140090000Y-85272560D01*
X138465000Y-85272560D01*
X138465000Y-82042937D01*
X142364991Y-85942929D01*
X142364991Y-85942929D01*
G37*
X142364991Y-85942929D02*
X142364990Y-96457914D01*
X142346673Y-96550000D01*
X142364990Y-96642085D01*
X142419240Y-96914818D01*
X142625893Y-97224097D01*
X142703962Y-97276261D01*
X143815001Y-98387301D01*
X143815000Y-101667914D01*
X143796683Y-101760000D01*
X143830152Y-101928260D01*
X143869250Y-102124818D01*
X144075903Y-102434097D01*
X144153972Y-102486261D01*
X144790251Y-103122541D01*
X144766887Y-103240000D01*
X144878260Y-103799909D01*
X145195423Y-104274577D01*
X145547758Y-104510000D01*
X145195423Y-104745423D01*
X144878260Y-105220091D01*
X144766887Y-105780000D01*
X144878260Y-106339909D01*
X145195423Y-106814577D01*
X145670091Y-107131740D01*
X146088667Y-107215000D01*
X147071333Y-107215000D01*
X147489909Y-107131740D01*
X147964577Y-106814577D01*
X148281740Y-106339909D01*
X148393113Y-105780000D01*
X148281740Y-105220091D01*
X147964577Y-104745423D01*
X147612242Y-104510000D01*
X147964577Y-104274577D01*
X148281740Y-103799909D01*
X148393113Y-103240000D01*
X148281740Y-102680091D01*
X147964577Y-102205423D01*
X147612242Y-101970000D01*
X147964577Y-101734577D01*
X148281740Y-101259909D01*
X148393113Y-100700000D01*
X148281740Y-100140091D01*
X147964577Y-99665423D01*
X147612242Y-99430000D01*
X147964577Y-99194577D01*
X148281740Y-98719909D01*
X148393113Y-98160000D01*
X148281740Y-97600091D01*
X147964577Y-97125423D01*
X147489909Y-96808260D01*
X147071333Y-96725000D01*
X146117290Y-96725000D01*
X145035000Y-95642711D01*
X145035000Y-93874487D01*
X145195423Y-94114577D01*
X145670091Y-94431740D01*
X146088667Y-94515000D01*
X147071333Y-94515000D01*
X147489909Y-94431740D01*
X147964577Y-94114577D01*
X148281740Y-93639909D01*
X148393113Y-93080000D01*
X148369749Y-92962541D01*
X149040413Y-92291877D01*
X149040413Y-101813321D01*
X149022095Y-101905412D01*
X149094662Y-102270230D01*
X149220961Y-102459250D01*
X149301316Y-102579509D01*
X149379382Y-102631671D01*
X150503959Y-103756249D01*
X150503962Y-103756251D01*
X152410251Y-105662541D01*
X152386887Y-105780000D01*
X152498260Y-106339909D01*
X152815423Y-106814577D01*
X153290091Y-107131740D01*
X153708667Y-107215000D01*
X154691333Y-107215000D01*
X154707311Y-107211822D01*
X154354133Y-107565000D01*
X145025870Y-107565000D01*
X142915001Y-105454133D01*
X142915001Y-98232233D01*
X142931358Y-98150000D01*
X142915001Y-98067765D01*
X142915001Y-98067764D01*
X142866553Y-97824200D01*
X142781229Y-97696503D01*
X142728585Y-97617716D01*
X142728584Y-97617715D01*
X142682002Y-97548000D01*
X142612287Y-97501418D01*
X138063389Y-92952521D01*
X138159635Y-92912655D01*
X138422655Y-92649635D01*
X138565000Y-92305983D01*
X138565000Y-91934017D01*
X138465000Y-91692595D01*
X138465000Y-88267440D01*
X140090000Y-88267440D01*
X140337765Y-88218157D01*
X140547809Y-88077809D01*
X140688157Y-87867765D01*
X140737440Y-87620000D01*
X140737440Y-85920000D01*
X140688157Y-85672235D01*
X140547809Y-85462191D01*
X140337765Y-85321843D01*
X140090000Y-85272560D01*
X138465000Y-85272560D01*
X138465000Y-82042937D01*
X142364991Y-85942929D01*
G36*
X136068389Y-67973521D02*
X136131711Y-68068289D01*
X136409673Y-68254017D01*
X136507145Y-68319146D01*
X136950000Y-68407235D01*
X137061783Y-68385000D01*
X139111783Y-68385000D01*
X139442855Y-68319146D01*
X139464307Y-68304812D01*
X139497765Y-68298157D01*
X139707809Y-68157809D01*
X139726760Y-68129446D01*
X139758893Y-68107976D01*
X139792191Y-68157809D01*
X140002235Y-68298157D01*
X140250000Y-68347440D01*
X140750000Y-68347440D01*
X140997765Y-68298157D01*
X141167115Y-68185000D01*
X144523294Y-68185000D01*
X146959120Y-70620826D01*
X146869980Y-70805925D01*
X146778237Y-71161577D01*
X146846916Y-71648065D01*
X147096538Y-72071241D01*
X147489101Y-72366678D01*
X147964841Y-72489399D01*
X148234388Y-72451346D01*
X148257267Y-72722604D01*
X148482769Y-73159110D01*
X148858150Y-73476093D01*
X149117512Y-73558761D01*
X149020431Y-73813079D01*
X149034208Y-74304199D01*
X149234880Y-74752662D01*
X149432692Y-74939679D01*
X149234879Y-75126693D01*
X149034202Y-75575155D01*
X149020420Y-76066274D01*
X149117498Y-76320597D01*
X148858135Y-76403262D01*
X148482751Y-76720241D01*
X148257245Y-77156745D01*
X148234363Y-77428002D01*
X147964815Y-77389947D01*
X147489074Y-77512663D01*
X147096508Y-77808097D01*
X146958200Y-78042562D01*
X146731857Y-77891323D01*
X146249984Y-77795470D01*
X145768112Y-77891318D01*
X145541769Y-78042554D01*
X145403462Y-77808087D01*
X145010899Y-77512650D01*
X144535159Y-77389929D01*
X144265612Y-77427982D01*
X144242733Y-77156724D01*
X144017231Y-76720218D01*
X143641850Y-76403235D01*
X143382489Y-76320567D01*
X143479569Y-76066250D01*
X143465792Y-75575129D01*
X143265120Y-75126666D01*
X143067308Y-74939649D01*
X143265121Y-74752635D01*
X143465798Y-74304173D01*
X143479580Y-73813053D01*
X143382501Y-73558731D01*
X143641865Y-73476066D01*
X144017249Y-73159087D01*
X144242755Y-72722583D01*
X144246962Y-72672708D01*
X144465242Y-72616403D01*
X145546408Y-72095748D01*
X145748253Y-71943845D01*
X145876604Y-71726262D01*
X145911919Y-71476124D01*
X145848822Y-71231512D01*
X144764124Y-68979085D01*
X144612221Y-68777240D01*
X144394638Y-68648889D01*
X144144500Y-68613574D01*
X143899888Y-68676671D01*
X143610592Y-68815987D01*
X143540240Y-68768979D01*
X143267507Y-68714729D01*
X143175421Y-68696412D01*
X143083335Y-68714729D01*
X141042357Y-68714729D01*
X140950271Y-68696412D01*
X140858185Y-68714729D01*
X140585452Y-68768979D01*
X140276174Y-68975632D01*
X140224012Y-69053698D01*
X139295831Y-69981880D01*
X139162655Y-69660365D01*
X138899635Y-69397345D01*
X138555983Y-69255000D01*
X138184017Y-69255000D01*
X137840365Y-69397345D01*
X137577345Y-69660365D01*
X137477345Y-69901788D01*
X137097718Y-70281415D01*
X137028000Y-70327999D01*
X136981416Y-70397717D01*
X136843448Y-70604200D01*
X136778643Y-70930000D01*
X136795001Y-71012238D01*
X136795000Y-91684133D01*
X136578586Y-91467719D01*
X136532000Y-91397998D01*
X136255800Y-91213447D01*
X136012236Y-91164999D01*
X136012232Y-91164999D01*
X135929999Y-91148642D01*
X135847766Y-91164999D01*
X130192233Y-91164999D01*
X130110000Y-91148642D01*
X130027767Y-91164999D01*
X130027764Y-91164999D01*
X129784200Y-91213447D01*
X129508000Y-91397998D01*
X129461416Y-91467716D01*
X127895861Y-93033271D01*
X127801740Y-92560091D01*
X127484577Y-92085423D01*
X127132242Y-91850000D01*
X127484577Y-91614577D01*
X127801740Y-91139909D01*
X127913113Y-90580000D01*
X127801740Y-90020091D01*
X127484577Y-89545423D01*
X127132242Y-89310000D01*
X127484577Y-89074577D01*
X127801740Y-88599909D01*
X127913113Y-88040000D01*
X127801740Y-87480091D01*
X127484577Y-87005423D01*
X127009909Y-86688260D01*
X126591333Y-86605000D01*
X125608667Y-86605000D01*
X125190091Y-86688260D01*
X124715423Y-87005423D01*
X124398260Y-87480091D01*
X124286887Y-88040000D01*
X124398260Y-88599909D01*
X124715423Y-89074577D01*
X125067758Y-89310000D01*
X124715423Y-89545423D01*
X124398260Y-90020091D01*
X124286887Y-90580000D01*
X124398260Y-91139909D01*
X124715423Y-91614577D01*
X125067758Y-91850000D01*
X124715423Y-92085423D01*
X124398260Y-92560091D01*
X124286887Y-93120000D01*
X124398260Y-93679909D01*
X124715423Y-94154577D01*
X125067758Y-94390000D01*
X124715423Y-94625423D01*
X124398260Y-95100091D01*
X124286887Y-95660000D01*
X124398260Y-96219909D01*
X124715423Y-96694577D01*
X125067758Y-96930000D01*
X124715423Y-97165423D01*
X124398260Y-97640091D01*
X124286887Y-98200000D01*
X124398260Y-98759909D01*
X124715423Y-99234577D01*
X125067758Y-99470000D01*
X124715423Y-99705423D01*
X124398260Y-100180091D01*
X124327602Y-100535313D01*
X124135020Y-100342731D01*
X124135020Y-86315723D01*
X129696031Y-80754713D01*
X129774097Y-80702551D01*
X129980750Y-80393273D01*
X130035000Y-80120540D01*
X130035000Y-80120539D01*
X130053317Y-80028454D01*
X130035000Y-79936368D01*
X130035000Y-74772280D01*
X130053317Y-74680194D01*
X129980750Y-74315375D01*
X129906654Y-74204483D01*
X129774097Y-74006097D01*
X129696030Y-73953935D01*
X128985777Y-73243682D01*
X128933613Y-73165613D01*
X128624335Y-72958960D01*
X128591364Y-72952402D01*
X128249178Y-72628889D01*
X127790171Y-72453673D01*
X127423020Y-72463972D01*
X127300424Y-72491953D01*
X127398738Y-72413551D01*
X127635707Y-72132926D01*
X127784910Y-71664815D01*
X127743617Y-71175240D01*
X127518115Y-70738734D01*
X127142734Y-70421751D01*
X126674624Y-70272548D01*
X126185049Y-70313841D01*
X125858727Y-70482421D01*
X125760413Y-70560823D01*
X125814974Y-70447528D01*
X125906717Y-70091876D01*
X125838038Y-69605387D01*
X125588416Y-69182211D01*
X125535000Y-69142011D01*
X125535000Y-67604674D01*
X125535694Y-67604812D01*
X125557146Y-67619146D01*
X126000000Y-67707235D01*
X126442854Y-67619146D01*
X126464306Y-67604812D01*
X126497765Y-67598157D01*
X126707809Y-67457809D01*
X126728927Y-67426204D01*
X126804055Y-67351076D01*
X126942191Y-67557809D01*
X127152235Y-67698157D01*
X127400000Y-67747440D01*
X129400000Y-67747440D01*
X129647765Y-67698157D01*
X129857809Y-67557809D01*
X129998157Y-67347765D01*
X130020587Y-67235000D01*
X135329869Y-67235000D01*
X136068389Y-67973521D01*
X136068389Y-67973521D01*
G37*
X136068389Y-67973521D02*
X136131711Y-68068289D01*
X136409673Y-68254017D01*
X136507145Y-68319146D01*
X136950000Y-68407235D01*
X137061783Y-68385000D01*
X139111783Y-68385000D01*
X139442855Y-68319146D01*
X139464307Y-68304812D01*
X139497765Y-68298157D01*
X139707809Y-68157809D01*
X139726760Y-68129446D01*
X139758893Y-68107976D01*
X139792191Y-68157809D01*
X140002235Y-68298157D01*
X140250000Y-68347440D01*
X140750000Y-68347440D01*
X140997765Y-68298157D01*
X141167115Y-68185000D01*
X144523294Y-68185000D01*
X146959120Y-70620826D01*
X146869980Y-70805925D01*
X146778237Y-71161577D01*
X146846916Y-71648065D01*
X147096538Y-72071241D01*
X147489101Y-72366678D01*
X147964841Y-72489399D01*
X148234388Y-72451346D01*
X148257267Y-72722604D01*
X148482769Y-73159110D01*
X148858150Y-73476093D01*
X149117512Y-73558761D01*
X149020431Y-73813079D01*
X149034208Y-74304199D01*
X149234880Y-74752662D01*
X149432692Y-74939679D01*
X149234879Y-75126693D01*
X149034202Y-75575155D01*
X149020420Y-76066274D01*
X149117498Y-76320597D01*
X148858135Y-76403262D01*
X148482751Y-76720241D01*
X148257245Y-77156745D01*
X148234363Y-77428002D01*
X147964815Y-77389947D01*
X147489074Y-77512663D01*
X147096508Y-77808097D01*
X146958200Y-78042562D01*
X146731857Y-77891323D01*
X146249984Y-77795470D01*
X145768112Y-77891318D01*
X145541769Y-78042554D01*
X145403462Y-77808087D01*
X145010899Y-77512650D01*
X144535159Y-77389929D01*
X144265612Y-77427982D01*
X144242733Y-77156724D01*
X144017231Y-76720218D01*
X143641850Y-76403235D01*
X143382489Y-76320567D01*
X143479569Y-76066250D01*
X143465792Y-75575129D01*
X143265120Y-75126666D01*
X143067308Y-74939649D01*
X143265121Y-74752635D01*
X143465798Y-74304173D01*
X143479580Y-73813053D01*
X143382501Y-73558731D01*
X143641865Y-73476066D01*
X144017249Y-73159087D01*
X144242755Y-72722583D01*
X144246962Y-72672708D01*
X144465242Y-72616403D01*
X145546408Y-72095748D01*
X145748253Y-71943845D01*
X145876604Y-71726262D01*
X145911919Y-71476124D01*
X145848822Y-71231512D01*
X144764124Y-68979085D01*
X144612221Y-68777240D01*
X144394638Y-68648889D01*
X144144500Y-68613574D01*
X143899888Y-68676671D01*
X143610592Y-68815987D01*
X143540240Y-68768979D01*
X143267507Y-68714729D01*
X143175421Y-68696412D01*
X143083335Y-68714729D01*
X141042357Y-68714729D01*
X140950271Y-68696412D01*
X140858185Y-68714729D01*
X140585452Y-68768979D01*
X140276174Y-68975632D01*
X140224012Y-69053698D01*
X139295831Y-69981880D01*
X139162655Y-69660365D01*
X138899635Y-69397345D01*
X138555983Y-69255000D01*
X138184017Y-69255000D01*
X137840365Y-69397345D01*
X137577345Y-69660365D01*
X137477345Y-69901788D01*
X137097718Y-70281415D01*
X137028000Y-70327999D01*
X136981416Y-70397717D01*
X136843448Y-70604200D01*
X136778643Y-70930000D01*
X136795001Y-71012238D01*
X136795000Y-91684133D01*
X136578586Y-91467719D01*
X136532000Y-91397998D01*
X136255800Y-91213447D01*
X136012236Y-91164999D01*
X136012232Y-91164999D01*
X135929999Y-91148642D01*
X135847766Y-91164999D01*
X130192233Y-91164999D01*
X130110000Y-91148642D01*
X130027767Y-91164999D01*
X130027764Y-91164999D01*
X129784200Y-91213447D01*
X129508000Y-91397998D01*
X129461416Y-91467716D01*
X127895861Y-93033271D01*
X127801740Y-92560091D01*
X127484577Y-92085423D01*
X127132242Y-91850000D01*
X127484577Y-91614577D01*
X127801740Y-91139909D01*
X127913113Y-90580000D01*
X127801740Y-90020091D01*
X127484577Y-89545423D01*
X127132242Y-89310000D01*
X127484577Y-89074577D01*
X127801740Y-88599909D01*
X127913113Y-88040000D01*
X127801740Y-87480091D01*
X127484577Y-87005423D01*
X127009909Y-86688260D01*
X126591333Y-86605000D01*
X125608667Y-86605000D01*
X125190091Y-86688260D01*
X124715423Y-87005423D01*
X124398260Y-87480091D01*
X124286887Y-88040000D01*
X124398260Y-88599909D01*
X124715423Y-89074577D01*
X125067758Y-89310000D01*
X124715423Y-89545423D01*
X124398260Y-90020091D01*
X124286887Y-90580000D01*
X124398260Y-91139909D01*
X124715423Y-91614577D01*
X125067758Y-91850000D01*
X124715423Y-92085423D01*
X124398260Y-92560091D01*
X124286887Y-93120000D01*
X124398260Y-93679909D01*
X124715423Y-94154577D01*
X125067758Y-94390000D01*
X124715423Y-94625423D01*
X124398260Y-95100091D01*
X124286887Y-95660000D01*
X124398260Y-96219909D01*
X124715423Y-96694577D01*
X125067758Y-96930000D01*
X124715423Y-97165423D01*
X124398260Y-97640091D01*
X124286887Y-98200000D01*
X124398260Y-98759909D01*
X124715423Y-99234577D01*
X125067758Y-99470000D01*
X124715423Y-99705423D01*
X124398260Y-100180091D01*
X124327602Y-100535313D01*
X124135020Y-100342731D01*
X124135020Y-86315723D01*
X129696031Y-80754713D01*
X129774097Y-80702551D01*
X129980750Y-80393273D01*
X130035000Y-80120540D01*
X130035000Y-80120539D01*
X130053317Y-80028454D01*
X130035000Y-79936368D01*
X130035000Y-74772280D01*
X130053317Y-74680194D01*
X129980750Y-74315375D01*
X129906654Y-74204483D01*
X129774097Y-74006097D01*
X129696030Y-73953935D01*
X128985777Y-73243682D01*
X128933613Y-73165613D01*
X128624335Y-72958960D01*
X128591364Y-72952402D01*
X128249178Y-72628889D01*
X127790171Y-72453673D01*
X127423020Y-72463972D01*
X127300424Y-72491953D01*
X127398738Y-72413551D01*
X127635707Y-72132926D01*
X127784910Y-71664815D01*
X127743617Y-71175240D01*
X127518115Y-70738734D01*
X127142734Y-70421751D01*
X126674624Y-70272548D01*
X126185049Y-70313841D01*
X125858727Y-70482421D01*
X125760413Y-70560823D01*
X125814974Y-70447528D01*
X125906717Y-70091876D01*
X125838038Y-69605387D01*
X125588416Y-69182211D01*
X125535000Y-69142011D01*
X125535000Y-67604674D01*
X125535694Y-67604812D01*
X125557146Y-67619146D01*
X126000000Y-67707235D01*
X126442854Y-67619146D01*
X126464306Y-67604812D01*
X126497765Y-67598157D01*
X126707809Y-67457809D01*
X126728927Y-67426204D01*
X126804055Y-67351076D01*
X126942191Y-67557809D01*
X127152235Y-67698157D01*
X127400000Y-67747440D01*
X129400000Y-67747440D01*
X129647765Y-67698157D01*
X129857809Y-67557809D01*
X129998157Y-67347765D01*
X130020587Y-67235000D01*
X135329869Y-67235000D01*
X136068389Y-67973521D01*
G04 #@! TD*
M02*
