G04 #@! TF.GenerationSoftware,KiCad,Pcbnew,5.1.5*
G04 #@! TF.CreationDate,2020-03-31T14:32:58+02:00*
G04 #@! TF.ProjectId,nixie_2_digit_board,6e697869-655f-4325-9f64-696769745f62,rev?*
G04 #@! TF.SameCoordinates,Original*
G04 #@! TF.FileFunction,Copper,L2,Bot*
G04 #@! TF.FilePolarity,Positive*
%FSLAX46Y46*%
G04 Gerber Fmt 4.6, Leading zero omitted, Abs format (unit mm)*
G04 Created by KiCad (PCBNEW 5.1.5) date 2020-03-31 14:32:58*
%MOMM*%
%LPD*%
G04 APERTURE LIST*
%ADD10C,0.150000*%
%ADD11C,0.600000*%
%ADD12O,2.300000X1.600000*%
%ADD13C,0.100000*%
%ADD14C,1.200000*%
%ADD15R,1.700000X1.700000*%
%ADD16O,1.700000X1.700000*%
%ADD17R,1.500000X0.500000*%
%ADD18R,2.000000X2.000000*%
%ADD19R,2.400000X1.600000*%
%ADD20O,2.400000X1.600000*%
%ADD21O,1.050000X1.500000*%
%ADD22R,1.050000X1.500000*%
%ADD23C,0.500000*%
%ADD24C,0.600000*%
%ADD25C,0.400000*%
%ADD26C,0.800000*%
%ADD27C,0.254000*%
G04 APERTURE END LIST*
D10*
X165530000Y-102270000D02*
X165180000Y-102170000D01*
X165030000Y-102270000D02*
X165530000Y-102270000D01*
X165280000Y-101970000D02*
X165030000Y-102270000D01*
X165280000Y-101970000D02*
X165530000Y-102270000D01*
X165280000Y-101470000D02*
X165280000Y-102620000D01*
X164780000Y-102970000D02*
X165280000Y-102620000D01*
X165280000Y-103720000D02*
X165280000Y-104070000D01*
X164780000Y-103370000D02*
X165280000Y-103720000D01*
X164730000Y-103570000D02*
X164730000Y-102770000D01*
X163680000Y-103170000D02*
X164730000Y-103170000D01*
X165880000Y-101470000D02*
X165880000Y-101270000D01*
X165280000Y-101470000D02*
X165880000Y-101470000D01*
X165280000Y-101270000D02*
X165280000Y-101470000D01*
X164680000Y-101870000D02*
X164280000Y-101870000D01*
X164680000Y-101670000D02*
X164680000Y-101870000D01*
X165880000Y-98670000D02*
X165880000Y-98870000D01*
X165280000Y-98670000D02*
X165880000Y-98670000D01*
X165280000Y-98870000D02*
X165280000Y-98670000D01*
X165280000Y-100670000D02*
X164680000Y-100670000D01*
X165280000Y-101270000D02*
X165280000Y-100670000D01*
X165880000Y-98870000D02*
X165880000Y-101270000D01*
X165280000Y-100270000D02*
X165280000Y-98870000D01*
X164680000Y-100270000D02*
X165280000Y-100270000D01*
X164680000Y-99270000D02*
X164680000Y-100270000D01*
X164080000Y-99270000D02*
X164680000Y-99270000D01*
X164080000Y-100670000D02*
X164080000Y-99270000D01*
X164680000Y-100670000D02*
X164680000Y-101670000D01*
X162280000Y-100670000D02*
X161680000Y-100670000D01*
X163080000Y-102670000D02*
X162880000Y-102070000D01*
X163280000Y-102670000D02*
X163080000Y-102670000D01*
X163480000Y-102070000D02*
X163280000Y-102670000D01*
X162880000Y-102070000D02*
X163480000Y-102070000D01*
X163680000Y-101670000D02*
X164080000Y-100670000D01*
X162680000Y-101670000D02*
X163680000Y-101670000D01*
X162280000Y-100670000D02*
X162680000Y-101670000D01*
X163480000Y-103670000D02*
X164680000Y-100670000D01*
X162880000Y-103670000D02*
X163480000Y-103670000D01*
X161680000Y-100670000D02*
X162880000Y-103670000D01*
D11*
X190760000Y-70450000D03*
X190760000Y-69450000D03*
X190760000Y-68450000D03*
X140810000Y-92570000D03*
X140810000Y-91570000D03*
X140810000Y-90570000D03*
X124690000Y-86410000D03*
X152580000Y-84805000D03*
X152580000Y-83805000D03*
X152580000Y-82805000D03*
X187074262Y-98676359D03*
X187781369Y-97969253D03*
X161980000Y-92505000D03*
X161980000Y-91505000D03*
X162980000Y-91505000D03*
X162980000Y-92505000D03*
X163980000Y-92505000D03*
X163980000Y-91505000D03*
X163980000Y-90505000D03*
X162980000Y-90505000D03*
X161980000Y-90505000D03*
X131950000Y-70140000D03*
X132950000Y-70140000D03*
X133950000Y-70140000D03*
X133950000Y-71140000D03*
X133950000Y-72140000D03*
X132950000Y-72140000D03*
X131950000Y-72140000D03*
X132950000Y-71140000D03*
X131950000Y-71140000D03*
X194160000Y-90525000D03*
X195160000Y-90525000D03*
X195160000Y-91525000D03*
X194160000Y-91525000D03*
X194160000Y-89525000D03*
X195160000Y-89525000D03*
X191990000Y-106505000D03*
X192990000Y-106505000D03*
X191990000Y-107505000D03*
X193990000Y-106505000D03*
X193990000Y-107505000D03*
X193990000Y-108505000D03*
X191990000Y-108505000D03*
X192990000Y-107505000D03*
X192990000Y-108505000D03*
X183040000Y-86965000D03*
X184040000Y-86965000D03*
X183040000Y-84965000D03*
X184040000Y-85965000D03*
X183040000Y-85965000D03*
X184040000Y-84965000D03*
D12*
X154200000Y-105780000D03*
X154200000Y-103240000D03*
X154200000Y-100700000D03*
X154200000Y-98160000D03*
X154200000Y-95620000D03*
X154200000Y-93080000D03*
X154200000Y-90540000D03*
X154200000Y-88000000D03*
X146580000Y-88000000D03*
X146580000Y-90540000D03*
X146580000Y-93080000D03*
X146580000Y-95620000D03*
X146580000Y-98160000D03*
X146580000Y-100700000D03*
X146580000Y-103240000D03*
X146580000Y-105780000D03*
G04 #@! TA.AperFunction,ComponentPad*
D13*
G36*
X145265497Y-71512423D02*
G01*
X144184331Y-72033078D01*
X143099633Y-69780651D01*
X144180799Y-69259996D01*
X145265497Y-71512423D01*
G37*
G04 #@! TD.AperFunction*
D14*
X143032776Y-72373987D02*
X142016400Y-71563445D01*
X142238176Y-74023970D02*
X140970772Y-73734686D01*
X142238167Y-75855319D02*
X140970759Y-76144589D01*
X143032750Y-77505308D02*
X142016366Y-78315840D01*
X144464550Y-78647142D02*
X143900496Y-79818398D01*
X146249979Y-79054664D02*
X146249973Y-80354664D01*
X148035413Y-78647160D02*
X148599457Y-79818422D01*
X149467224Y-77505341D02*
X150483600Y-78315883D01*
X150261824Y-75855358D02*
X151529228Y-76144642D01*
X150261833Y-74024009D02*
X151529241Y-73734739D01*
X149467250Y-72374020D02*
X150483634Y-71563488D01*
X148035450Y-71232186D02*
X148599504Y-70060930D01*
D15*
X161610000Y-74270000D03*
D16*
X161610000Y-76810000D03*
D11*
X129615000Y-104230000D03*
X128615000Y-104230000D03*
X128615000Y-103230000D03*
X129615000Y-103230000D03*
X130615000Y-104230000D03*
X130615000Y-103230000D03*
X130615000Y-102230000D03*
X129615000Y-102230000D03*
X128615000Y-102230000D03*
X131680000Y-86800000D03*
X130680000Y-86800000D03*
X129680000Y-86800000D03*
X131680000Y-85800000D03*
X130680000Y-85800000D03*
X129680000Y-85800000D03*
X131680000Y-84800000D03*
X130680000Y-84800000D03*
D17*
X129900000Y-100340000D03*
X129900000Y-99070000D03*
X129900000Y-97800000D03*
X129900000Y-96530000D03*
X129900000Y-95260000D03*
X129900000Y-93990000D03*
X129900000Y-92720000D03*
X129900000Y-91450000D03*
X135300000Y-91450000D03*
X135300000Y-92720000D03*
X135300000Y-93990000D03*
X135300000Y-95260000D03*
X135300000Y-96530000D03*
X135300000Y-97800000D03*
X135300000Y-99070000D03*
X135300000Y-100340000D03*
G04 #@! TA.AperFunction,ComponentPad*
D13*
G36*
X121315497Y-71472759D02*
G01*
X120234331Y-71993414D01*
X119149633Y-69740987D01*
X120230799Y-69220332D01*
X121315497Y-71472759D01*
G37*
G04 #@! TD.AperFunction*
D14*
X119082776Y-72334323D02*
X118066400Y-71523781D01*
X118288176Y-73984306D02*
X117020772Y-73695022D01*
X118288167Y-75815655D02*
X117020759Y-76104925D01*
X119082750Y-77465644D02*
X118066366Y-78276176D01*
X120514550Y-78607478D02*
X119950496Y-79778734D01*
X122299979Y-79015000D02*
X122299973Y-80315000D01*
X124085413Y-78607496D02*
X124649457Y-79778758D01*
X125517224Y-77465677D02*
X126533600Y-78276219D01*
X126311824Y-75815694D02*
X127579228Y-76104978D01*
X126311833Y-73984345D02*
X127579241Y-73695075D01*
X125517250Y-72334356D02*
X126533634Y-71523824D01*
X124085450Y-71192522D02*
X124649504Y-70021266D01*
D12*
X126100000Y-105820000D03*
X126100000Y-103280000D03*
X126100000Y-100740000D03*
X126100000Y-98200000D03*
X126100000Y-95660000D03*
X126100000Y-93120000D03*
X126100000Y-90580000D03*
X126100000Y-88040000D03*
X118480000Y-88040000D03*
X118480000Y-90580000D03*
X118480000Y-93120000D03*
X118480000Y-95660000D03*
X118480000Y-98200000D03*
X118480000Y-100740000D03*
X118480000Y-103280000D03*
X118480000Y-105820000D03*
D18*
X132220000Y-66030000D03*
D11*
X129680000Y-84800000D03*
G04 #@! TA.AperFunction,ComponentPad*
D13*
G36*
X175515497Y-71572759D02*
G01*
X174434331Y-72093414D01*
X173349633Y-69840987D01*
X174430799Y-69320332D01*
X175515497Y-71572759D01*
G37*
G04 #@! TD.AperFunction*
D14*
X173282776Y-72434323D02*
X172266400Y-71623781D01*
X172488176Y-74084306D02*
X171220772Y-73795022D01*
X172488167Y-75915655D02*
X171220759Y-76204925D01*
X173282750Y-77565644D02*
X172266366Y-78376176D01*
X174714550Y-78707478D02*
X174150496Y-79878734D01*
X176499979Y-79115000D02*
X176499973Y-80415000D01*
X178285413Y-78707496D02*
X178849457Y-79878758D01*
X179717224Y-77565677D02*
X180733600Y-78376219D01*
X180511824Y-75915694D02*
X181779228Y-76204978D01*
X180511833Y-74084345D02*
X181779241Y-73795075D01*
X179717250Y-72434356D02*
X180733634Y-71623824D01*
X178285450Y-71292522D02*
X178849504Y-70121266D01*
D19*
X180300000Y-105880000D03*
D20*
X172680000Y-88100000D03*
X180300000Y-103340000D03*
X172680000Y-90640000D03*
X180300000Y-100800000D03*
X172680000Y-93180000D03*
X180300000Y-98260000D03*
X172680000Y-95720000D03*
X180300000Y-95720000D03*
X172680000Y-98260000D03*
X180300000Y-93180000D03*
X172680000Y-100800000D03*
X180300000Y-90640000D03*
X172680000Y-103340000D03*
X180300000Y-88100000D03*
X172680000Y-105880000D03*
G04 #@! TA.AperFunction,ComponentPad*
D13*
G36*
X199515497Y-71572759D02*
G01*
X198434331Y-72093414D01*
X197349633Y-69840987D01*
X198430799Y-69320332D01*
X199515497Y-71572759D01*
G37*
G04 #@! TD.AperFunction*
D14*
X197282776Y-72434323D02*
X196266400Y-71623781D01*
X196488176Y-74084306D02*
X195220772Y-73795022D01*
X196488167Y-75915655D02*
X195220759Y-76204925D01*
X197282750Y-77565644D02*
X196266366Y-78376176D01*
X198714550Y-78707478D02*
X198150496Y-79878734D01*
X200499979Y-79115000D02*
X200499973Y-80415000D01*
X202285413Y-78707496D02*
X202849457Y-79878758D01*
X203717224Y-77565677D02*
X204733600Y-78376219D01*
X204511824Y-75915694D02*
X205779228Y-76204978D01*
X204511833Y-74084345D02*
X205779241Y-73795075D01*
X203717250Y-72434356D02*
X204733634Y-71623824D01*
X202285450Y-71292522D02*
X202849504Y-70121266D01*
D19*
X208450000Y-105830000D03*
D20*
X200830000Y-88050000D03*
X208450000Y-103290000D03*
X200830000Y-90590000D03*
X208450000Y-100750000D03*
X200830000Y-93130000D03*
X208450000Y-98210000D03*
X200830000Y-95670000D03*
X208450000Y-95670000D03*
X200830000Y-98210000D03*
X208450000Y-93130000D03*
X200830000Y-100750000D03*
X208450000Y-90590000D03*
X200830000Y-103290000D03*
X208450000Y-88050000D03*
X200830000Y-105830000D03*
D15*
X139240000Y-86770000D03*
D17*
X184050000Y-100470000D03*
X184050000Y-99200000D03*
X184050000Y-97930000D03*
X184050000Y-96660000D03*
X184050000Y-95390000D03*
X184050000Y-94120000D03*
X184050000Y-92850000D03*
X184050000Y-91580000D03*
X189450000Y-91580000D03*
X189450000Y-92850000D03*
X189450000Y-94120000D03*
X189450000Y-95390000D03*
X189450000Y-96660000D03*
X189450000Y-97930000D03*
X189450000Y-99200000D03*
X189450000Y-100470000D03*
D15*
X187280000Y-88400000D03*
D16*
X187280000Y-85860000D03*
X187280000Y-83320000D03*
X187280000Y-80780000D03*
X187280000Y-78240000D03*
D15*
X158690000Y-87280000D03*
D21*
X164350000Y-82720000D03*
X165620000Y-82720000D03*
D22*
X163080000Y-82720000D03*
D11*
X116554314Y-85954314D03*
X130700000Y-97800000D03*
X163300000Y-108250000D03*
X190300000Y-92800000D03*
X138370000Y-103240000D03*
X136780000Y-92850000D03*
D23*
X190700000Y-102180000D03*
X135290000Y-101240000D03*
D11*
X138470000Y-99140000D03*
X130700000Y-96500000D03*
X158500000Y-98500000D03*
X139390000Y-103280000D03*
X130700000Y-95300000D03*
X140390000Y-103280000D03*
X130700000Y-94000000D03*
X141380000Y-103280000D03*
X130700000Y-92700000D03*
X143050000Y-83750000D03*
X138370000Y-70190000D03*
X137630000Y-92120000D03*
X183650000Y-68440000D03*
X182450000Y-68410000D03*
X185820000Y-98680000D03*
X137290000Y-99890000D03*
X170150000Y-85700000D03*
X185000000Y-97900000D03*
X196850000Y-83450000D03*
X191750000Y-100100000D03*
X184950000Y-96700000D03*
X194650000Y-103200000D03*
X185000000Y-92900000D03*
X211900010Y-95600000D03*
X192650000Y-103300000D03*
X185050000Y-95450000D03*
X193700000Y-103250000D03*
X185000000Y-94200000D03*
D24*
X117500000Y-70000000D02*
X117500000Y-70854464D01*
X126021384Y-68260000D02*
X119250000Y-68260000D01*
X117500000Y-70000000D02*
X117510000Y-70000000D01*
X117510000Y-70000000D02*
X119250000Y-68260000D01*
X129500000Y-71738616D02*
X126021384Y-68260000D01*
X130011384Y-72250000D02*
X129500000Y-71738616D01*
X130180010Y-78951374D02*
X130180010Y-73000000D01*
X130180008Y-72999998D02*
X130180010Y-73000000D01*
X129500000Y-71738616D02*
X130180008Y-72418624D01*
X130180008Y-72418624D02*
X130180008Y-72999998D01*
X126100000Y-88040000D02*
X126100000Y-83031384D01*
X126100000Y-83031384D02*
X130180010Y-78951374D01*
X117500000Y-70854464D02*
X118574588Y-71929052D01*
X118574558Y-77870910D02*
X118574558Y-83934070D01*
X118574558Y-83934070D02*
X116554314Y-85954314D01*
X116490000Y-99100000D02*
X116490000Y-87150000D01*
X120232523Y-79193106D02*
X120232523Y-83407477D01*
X120232523Y-83407477D02*
X116490000Y-87150000D01*
X116490000Y-99100000D02*
X118130000Y-100740000D01*
X118130000Y-100740000D02*
X118480000Y-100740000D01*
X118480000Y-93120000D02*
X120230000Y-93120000D01*
X120230000Y-93120000D02*
X121629264Y-91720736D01*
X121629264Y-91720736D02*
X121629264Y-80335712D01*
X121629264Y-80335712D02*
X122299976Y-79665000D01*
X118480000Y-105820000D02*
X118830000Y-105820000D01*
X122450000Y-85500000D02*
X122500000Y-85500000D01*
X118830000Y-105820000D02*
X122429274Y-102220726D01*
X122429274Y-102220726D02*
X122429274Y-85520726D01*
X122429274Y-85520726D02*
X122450000Y-85500000D01*
X129380000Y-72750000D02*
X127500000Y-70870000D01*
X122500000Y-85500000D02*
X129380000Y-78620000D01*
X129380000Y-78620000D02*
X129380000Y-72750000D01*
X127500000Y-70870000D02*
X127084532Y-70870000D01*
X127084532Y-70870000D02*
X126025442Y-71929090D01*
D25*
X132120000Y-101100000D02*
X128010000Y-101100000D01*
X127650000Y-100740000D02*
X126100000Y-100740000D01*
X128010000Y-101100000D02*
X127650000Y-100740000D01*
X135300000Y-99070000D02*
X134150000Y-99070000D01*
X134150000Y-99070000D02*
X132120000Y-101100000D01*
X130700000Y-97800000D02*
X129900000Y-97800000D01*
D26*
X174450000Y-108250000D02*
X163300000Y-108250000D01*
X177500000Y-105200000D02*
X174450000Y-108250000D01*
X177500000Y-96650000D02*
X177500000Y-105200000D01*
X178430000Y-95720000D02*
X177500000Y-96650000D01*
X180300000Y-95720000D02*
X178430000Y-95720000D01*
D25*
X190300000Y-92800000D02*
X189500000Y-92800000D01*
X189500000Y-92800000D02*
X189450000Y-92850000D01*
X135800000Y-100340000D02*
X138370000Y-102910000D01*
X138370000Y-102910000D02*
X138370000Y-103240000D01*
X135300000Y-100340000D02*
X135800000Y-100340000D01*
X135300000Y-92720000D02*
X136650000Y-92720000D01*
X136650000Y-92720000D02*
X136780000Y-92850000D01*
X190700000Y-101720000D02*
X189450000Y-100470000D01*
X190700000Y-102180000D02*
X190700000Y-101720000D01*
X135300000Y-100340000D02*
X135300000Y-101230000D01*
X135300000Y-101230000D02*
X135290000Y-101240000D01*
X129900000Y-100340000D02*
X128750000Y-100340000D01*
X128750000Y-100340000D02*
X127900000Y-99490000D01*
X127900000Y-99490000D02*
X127900000Y-94570000D01*
X127900000Y-94570000D02*
X126450000Y-93120000D01*
X126450000Y-93120000D02*
X126100000Y-93120000D01*
X126100000Y-90580000D02*
X126450000Y-90580000D01*
X126450000Y-90580000D02*
X128500010Y-92630010D01*
X128750000Y-99070000D02*
X129900000Y-99070000D01*
X128500010Y-92630010D02*
X128500010Y-98820010D01*
X128500010Y-98820010D02*
X128750000Y-99070000D01*
X138800000Y-99510000D02*
X138470000Y-99180000D01*
X138470000Y-99180000D02*
X138470000Y-99140000D01*
X156400000Y-106500000D02*
X154800000Y-108100000D01*
X152300000Y-108100000D02*
X143955626Y-108100000D01*
X154800000Y-108100000D02*
X152300000Y-108100000D01*
X156400000Y-102550000D02*
X156400000Y-106500000D01*
X154200000Y-100700000D02*
X154550000Y-100700000D01*
X154550000Y-100700000D02*
X156400000Y-102550000D01*
X142080001Y-106224375D02*
X142080001Y-102790001D01*
X143955626Y-108100000D02*
X142080001Y-106224375D01*
X142080001Y-102790001D02*
X138800000Y-99510000D01*
X129900000Y-96530000D02*
X130670000Y-96530000D01*
X130670000Y-96530000D02*
X130700000Y-96500000D01*
X155545598Y-109900028D02*
X158500000Y-106945626D01*
X143210028Y-109900028D02*
X154500000Y-109900028D01*
X154500000Y-109900028D02*
X155545598Y-109900028D01*
X158500000Y-106945626D02*
X158500000Y-98500000D01*
X139390000Y-103280000D02*
X139390000Y-106080000D01*
X139390000Y-106080000D02*
X143210028Y-109900028D01*
X129900000Y-95260000D02*
X130660000Y-95260000D01*
X130660000Y-95260000D02*
X130700000Y-95300000D01*
X143458561Y-109300019D02*
X154200000Y-109300019D01*
X154200000Y-90540000D02*
X154550000Y-90540000D01*
X157600018Y-106997066D02*
X155297065Y-109300019D01*
X154550000Y-90540000D02*
X157600019Y-93590019D01*
X157600019Y-93590019D02*
X157600018Y-106997066D01*
X155297065Y-109300019D02*
X154200000Y-109300019D01*
X140390000Y-106231458D02*
X143458561Y-109300019D01*
X140390000Y-103280000D02*
X140390000Y-106231458D01*
X130700000Y-94000000D02*
X129910000Y-94000000D01*
X129910000Y-94000000D02*
X129900000Y-93990000D01*
X143707094Y-108700010D02*
X154400000Y-108700010D01*
X154200000Y-98160000D02*
X155750000Y-98160000D01*
X155750000Y-98160000D02*
X157000010Y-99410010D01*
X157000010Y-99410010D02*
X157000009Y-106748533D01*
X155048532Y-108700010D02*
X154400000Y-108700010D01*
X157000009Y-106748533D02*
X155048532Y-108700010D01*
X141380000Y-103280000D02*
X141380000Y-106372916D01*
X141380000Y-106372916D02*
X143707094Y-108700010D01*
X129900000Y-92720000D02*
X130680000Y-92720000D01*
X130680000Y-92720000D02*
X130700000Y-92700000D01*
D24*
X143700000Y-67950000D02*
X149431384Y-67950000D01*
X143000000Y-67950000D02*
X143700000Y-67950000D01*
X141577482Y-69372518D02*
X143000000Y-67950000D01*
X142524588Y-71968716D02*
X141577482Y-71021610D01*
X141577482Y-71021610D02*
X141577482Y-69372518D01*
X149431384Y-67950000D02*
X154200000Y-72718616D01*
X154200000Y-72718616D02*
X154200000Y-88000000D01*
X154200000Y-84681384D02*
X154200000Y-88000000D01*
X142524558Y-77920910D02*
X142524558Y-83224558D01*
X142524558Y-83224558D02*
X143050000Y-83750000D01*
X144182523Y-79243106D02*
X144182523Y-98652523D01*
X144182523Y-98652523D02*
X146230000Y-100700000D01*
X146230000Y-100700000D02*
X146580000Y-100700000D01*
X146580000Y-90540000D02*
X148330000Y-90540000D01*
X148330000Y-90540000D02*
X149550000Y-89320000D01*
X149550000Y-89320000D02*
X149550000Y-80475692D01*
X149550000Y-80475692D02*
X148317435Y-79243127D01*
X149975442Y-71979090D02*
X152329090Y-71979090D01*
X152329090Y-71979090D02*
X153300000Y-72950000D01*
X153300000Y-72950000D02*
X153300000Y-78250000D01*
X150900010Y-80649990D02*
X150900010Y-103259990D01*
X153300000Y-78250000D02*
X150900010Y-80649990D01*
X150900010Y-103259990D02*
X148380000Y-105780000D01*
X148380000Y-105780000D02*
X146580000Y-105780000D01*
D25*
X135300000Y-93990000D02*
X136676002Y-93990000D01*
X136676002Y-93990000D02*
X137630000Y-93036002D01*
X137630000Y-93036002D02*
X137630000Y-92120000D01*
X141910019Y-66649981D02*
X138370000Y-70190000D01*
X183650000Y-68440000D02*
X181859981Y-66649981D01*
X181859981Y-66649981D02*
X141910019Y-66649981D01*
X187280000Y-83320000D02*
X191000001Y-87040001D01*
X191000001Y-87040001D02*
X191000001Y-93719999D01*
X191000001Y-93719999D02*
X190600000Y-94120000D01*
X190600000Y-94120000D02*
X189450000Y-94120000D01*
X189450000Y-94120000D02*
X188950000Y-94120000D01*
X182450000Y-68410000D02*
X181289990Y-67249990D01*
X181289990Y-67249990D02*
X142710047Y-67249990D01*
X142710047Y-67249990D02*
X134149999Y-75810038D01*
X134149999Y-75810038D02*
X134150000Y-94610000D01*
X134150000Y-94610000D02*
X134800000Y-95260000D01*
X134800000Y-95260000D02*
X135300000Y-95260000D01*
X187280000Y-80780000D02*
X191600010Y-85100010D01*
X191600010Y-85100010D02*
X191600010Y-94389990D01*
X190600000Y-95390000D02*
X189450000Y-95390000D01*
X191600010Y-94389990D02*
X190600000Y-95390000D01*
X185820000Y-98680000D02*
X185820000Y-93800000D01*
X185820000Y-93800000D02*
X188040000Y-91580000D01*
X188040000Y-91580000D02*
X189450000Y-91580000D01*
X135300000Y-97800000D02*
X135800000Y-97800000D01*
X135800000Y-97800000D02*
X137290000Y-99290000D01*
X137290000Y-99290000D02*
X137290000Y-99339998D01*
X137290000Y-99339998D02*
X137290000Y-99890000D01*
D24*
X180300000Y-88100000D02*
X180300000Y-83331384D01*
X180300000Y-83331384D02*
X184550010Y-79081374D01*
X184550010Y-79081374D02*
X184550010Y-72868626D01*
X172774588Y-71161621D02*
X172774588Y-72029052D01*
X184550010Y-72868626D02*
X179831384Y-68150000D01*
X172400000Y-70787033D02*
X172774588Y-71161621D01*
X179831384Y-68150000D02*
X173300000Y-68150000D01*
X173300000Y-68150000D02*
X172400000Y-69050000D01*
X172400000Y-69050000D02*
X172400000Y-70787033D01*
X172774558Y-77970910D02*
X172774558Y-83075442D01*
X172774558Y-83075442D02*
X170150000Y-85700000D01*
X170600000Y-86700000D02*
X170600000Y-99120000D01*
X170600000Y-99120000D02*
X172280000Y-100800000D01*
X172280000Y-100800000D02*
X172680000Y-100800000D01*
X174432523Y-82867477D02*
X170600000Y-86700000D01*
X174432523Y-79293106D02*
X174432523Y-82867477D01*
X172680000Y-93180000D02*
X174480000Y-93180000D01*
X174480000Y-93180000D02*
X176499976Y-91160024D01*
X176499976Y-91160024D02*
X176499976Y-89760024D01*
X176499976Y-79765000D02*
X176499976Y-89760024D01*
X172680000Y-105880000D02*
X173080000Y-105880000D01*
X175900000Y-92891384D02*
X177299984Y-91491400D01*
X173080000Y-105880000D02*
X175900000Y-103060000D01*
X175900000Y-103060000D02*
X175900000Y-92891384D01*
X177299984Y-91491400D02*
X177299984Y-85200016D01*
X183750000Y-78750000D02*
X183750000Y-73200000D01*
X177299984Y-85200016D02*
X183750000Y-78750000D01*
X183750000Y-73200000D02*
X182579090Y-72029090D01*
X182579090Y-72029090D02*
X180225442Y-72029090D01*
D25*
X185800000Y-101650000D02*
X188250000Y-99200000D01*
X188250000Y-99200000D02*
X189450000Y-99200000D01*
X182750000Y-101650000D02*
X185800000Y-101650000D01*
X180300000Y-100800000D02*
X181900000Y-100800000D01*
X181900000Y-100800000D02*
X182750000Y-101650000D01*
X185000000Y-97900000D02*
X184080000Y-97900000D01*
X184080000Y-97900000D02*
X184050000Y-97930000D01*
X184050000Y-100470000D02*
X183550000Y-100470000D01*
X183550000Y-100470000D02*
X182149990Y-99069990D01*
X182149990Y-99069990D02*
X182149990Y-94629990D01*
X182149990Y-94629990D02*
X180700000Y-93180000D01*
X180700000Y-93180000D02*
X180300000Y-93180000D01*
X182750000Y-91490000D02*
X182750000Y-98400000D01*
X182750000Y-98400000D02*
X183550000Y-99200000D01*
X183550000Y-99200000D02*
X184050000Y-99200000D01*
X180300000Y-90640000D02*
X181900000Y-90640000D01*
X181900000Y-90640000D02*
X182750000Y-91490000D01*
D24*
X208450000Y-88050000D02*
X208450000Y-72368616D01*
X208450000Y-72368616D02*
X203831384Y-67750000D01*
X203831384Y-67750000D02*
X197050000Y-67750000D01*
X195827482Y-71077482D02*
X195827482Y-71081946D01*
X197050000Y-67750000D02*
X195050000Y-69750000D01*
X195050000Y-69750000D02*
X195050000Y-70300000D01*
X195050000Y-70300000D02*
X195827482Y-71077482D01*
X195827482Y-71081946D02*
X196774588Y-72029052D01*
X196774558Y-77970910D02*
X195827453Y-78918015D01*
X196050000Y-82650000D02*
X196850000Y-83450000D01*
X195827453Y-78918015D02*
X195827453Y-82427453D01*
X195827453Y-82427453D02*
X196050000Y-82650000D01*
X198432523Y-79293106D02*
X198432523Y-98752523D01*
X198432523Y-98752523D02*
X200430000Y-100750000D01*
X200430000Y-100750000D02*
X200830000Y-100750000D01*
X200830000Y-90590000D02*
X202630000Y-90590000D01*
X202630000Y-90590000D02*
X203467972Y-89752028D01*
X203467972Y-89752028D02*
X203467972Y-80193664D01*
X203467972Y-80193664D02*
X202567435Y-79293127D01*
X207600000Y-72650000D02*
X206979090Y-72029090D01*
X206979090Y-72029090D02*
X204225442Y-72029090D01*
X207600000Y-78050000D02*
X207600000Y-72650000D01*
X205100000Y-80550000D02*
X207600000Y-78050000D01*
X205100000Y-103360000D02*
X205100000Y-80550000D01*
X200830000Y-105830000D02*
X202630000Y-105830000D01*
X202630000Y-105830000D02*
X205100000Y-103360000D01*
D25*
X191750000Y-100100000D02*
X191750000Y-100524264D01*
X191750000Y-100524264D02*
X193725735Y-102499999D01*
X193725735Y-102499999D02*
X194999999Y-102499999D01*
X208050000Y-100750000D02*
X208450000Y-100750000D01*
X194999999Y-102499999D02*
X199900000Y-107400000D01*
X205849962Y-102950038D02*
X208050000Y-100750000D01*
X199900000Y-107400000D02*
X202049962Y-107400000D01*
X202049962Y-107400000D02*
X205849962Y-103600000D01*
X205849962Y-103600000D02*
X205849962Y-102950038D01*
X184050000Y-96660000D02*
X184910000Y-96660000D01*
X184910000Y-96660000D02*
X184950000Y-96700000D01*
X210600000Y-107100000D02*
X210600000Y-99960000D01*
X210600000Y-99960000D02*
X208850000Y-98210000D01*
X208850000Y-98210000D02*
X208450000Y-98210000D01*
X209600000Y-108100000D02*
X210600000Y-107100000D01*
X194650000Y-103200000D02*
X199550000Y-108100000D01*
X199550000Y-108100000D02*
X209600000Y-108100000D01*
X208050000Y-98210000D02*
X208450000Y-98210000D01*
X184050000Y-92850000D02*
X184950000Y-92850000D01*
X184950000Y-92850000D02*
X185000000Y-92900000D01*
X198901477Y-109300019D02*
X210097066Y-109300018D01*
X210097066Y-109300018D02*
X211900010Y-107497074D01*
X211900010Y-107497074D02*
X211900010Y-95600000D01*
X192650000Y-103300000D02*
X198650019Y-109300019D01*
X198650019Y-109300019D02*
X198901477Y-109300019D01*
X184050000Y-95390000D02*
X184990000Y-95390000D01*
X184990000Y-95390000D02*
X185050000Y-95450000D01*
X208450000Y-90590000D02*
X208850000Y-90590000D01*
X208850000Y-90590000D02*
X210590000Y-92330000D01*
X210590000Y-92330000D02*
X210590000Y-99101458D01*
X210590000Y-99101458D02*
X211200010Y-99711468D01*
X211200010Y-99711468D02*
X211200010Y-107348532D01*
X211200010Y-107348532D02*
X209848533Y-108700009D01*
X209848533Y-108700009D02*
X199150009Y-108700009D01*
X199150009Y-108700009D02*
X193700000Y-103250000D01*
X184050000Y-94120000D02*
X184920000Y-94120000D01*
X184920000Y-94120000D02*
X185000000Y-94200000D01*
X135300000Y-91450000D02*
X136450000Y-91450000D01*
X136450000Y-91450000D02*
X139240000Y-88660000D01*
X139240000Y-88660000D02*
X139240000Y-86770000D01*
X187280000Y-78240000D02*
X192200020Y-83160020D01*
X192200020Y-83160020D02*
X192200020Y-95679980D01*
X192200020Y-95679980D02*
X189950000Y-97930000D01*
X189950000Y-97930000D02*
X189450000Y-97930000D01*
D27*
G36*
X171771341Y-68356370D02*
G01*
X171735656Y-68385656D01*
X171618814Y-68528029D01*
X171531993Y-68690461D01*
X171483619Y-68849929D01*
X171478529Y-68866709D01*
X171460476Y-69050000D01*
X171465000Y-69095932D01*
X171465001Y-70676410D01*
X171296171Y-70850041D01*
X171163865Y-71054190D01*
X171073928Y-71280230D01*
X171029817Y-71519470D01*
X171033227Y-71762719D01*
X171084028Y-72000629D01*
X171180267Y-72224057D01*
X171318245Y-72424418D01*
X171448956Y-72551514D01*
X171499601Y-72591903D01*
X171436448Y-72577488D01*
X171255583Y-72554536D01*
X171012908Y-72571580D01*
X170778220Y-72635640D01*
X170560540Y-72744255D01*
X170368231Y-72893250D01*
X170208686Y-73076900D01*
X170088034Y-73288147D01*
X170010913Y-73518873D01*
X169980286Y-73760211D01*
X169997330Y-74002886D01*
X170061390Y-74237574D01*
X170170005Y-74455254D01*
X170319000Y-74647563D01*
X170502650Y-74807108D01*
X170713897Y-74927760D01*
X170886809Y-74985556D01*
X170949967Y-74999972D01*
X170886809Y-75014387D01*
X170713897Y-75072181D01*
X170502648Y-75192831D01*
X170318997Y-75352374D01*
X170170000Y-75544681D01*
X170061382Y-75762360D01*
X169997320Y-75997047D01*
X169980273Y-76239722D01*
X170010897Y-76481061D01*
X170088015Y-76711787D01*
X170208665Y-76923036D01*
X170368208Y-77106687D01*
X170560515Y-77255684D01*
X170778194Y-77364302D01*
X171012881Y-77428364D01*
X171255556Y-77445411D01*
X171436421Y-77422461D01*
X171499577Y-77408046D01*
X171448931Y-77448435D01*
X171318219Y-77575530D01*
X171180239Y-77775889D01*
X171083998Y-77999316D01*
X171033195Y-78237226D01*
X171029782Y-78480475D01*
X171073891Y-78719716D01*
X171163825Y-78945756D01*
X171296130Y-79149907D01*
X171465720Y-79324323D01*
X171666079Y-79462303D01*
X171839558Y-79537029D01*
X171839559Y-82688151D01*
X169553975Y-84973736D01*
X169553972Y-84973738D01*
X169423738Y-85103972D01*
X169398089Y-85142358D01*
X169368815Y-85178029D01*
X169347062Y-85218726D01*
X169321414Y-85257111D01*
X169303748Y-85299762D01*
X169281994Y-85340460D01*
X169268597Y-85384623D01*
X169250932Y-85427271D01*
X169241927Y-85472543D01*
X169228529Y-85516709D01*
X169224005Y-85562640D01*
X169215000Y-85607911D01*
X169215000Y-85654068D01*
X169210476Y-85700000D01*
X169215000Y-85745932D01*
X169215000Y-85792089D01*
X169224005Y-85837360D01*
X169228529Y-85883291D01*
X169241927Y-85927457D01*
X169250932Y-85972729D01*
X169268597Y-86015377D01*
X169281994Y-86059540D01*
X169303748Y-86100238D01*
X169321414Y-86142889D01*
X169347062Y-86181274D01*
X169368815Y-86221971D01*
X169398089Y-86257641D01*
X169423738Y-86296028D01*
X169456385Y-86328675D01*
X169485657Y-86364343D01*
X169521325Y-86393615D01*
X169553972Y-86426262D01*
X169592359Y-86451911D01*
X169628029Y-86481185D01*
X169668726Y-86502938D01*
X169680350Y-86510705D01*
X169678529Y-86516709D01*
X169660476Y-86700000D01*
X169665000Y-86745932D01*
X169665001Y-99074058D01*
X169660476Y-99120000D01*
X169678529Y-99303291D01*
X169714705Y-99422545D01*
X169731994Y-99479540D01*
X169818815Y-99641972D01*
X169935657Y-99784344D01*
X169971336Y-99813625D01*
X170848785Y-100691074D01*
X170838057Y-100800000D01*
X170865764Y-101081309D01*
X170947818Y-101351808D01*
X171081068Y-101601101D01*
X171260392Y-101819608D01*
X171478899Y-101998932D01*
X171611858Y-102070000D01*
X171478899Y-102141068D01*
X171260392Y-102320392D01*
X171081068Y-102538899D01*
X170947818Y-102788192D01*
X170865764Y-103058691D01*
X170838057Y-103340000D01*
X170865764Y-103621309D01*
X170947818Y-103891808D01*
X171081068Y-104141101D01*
X171260392Y-104359608D01*
X171478899Y-104538932D01*
X171611858Y-104610000D01*
X171478899Y-104681068D01*
X171260392Y-104860392D01*
X171081068Y-105078899D01*
X170947818Y-105328192D01*
X170865764Y-105598691D01*
X170838057Y-105880000D01*
X170865764Y-106161309D01*
X170947818Y-106431808D01*
X171081068Y-106681101D01*
X171260392Y-106899608D01*
X171478899Y-107078932D01*
X171728192Y-107212182D01*
X171737482Y-107215000D01*
X163249162Y-107215000D01*
X163097105Y-107229976D01*
X162902007Y-107289159D01*
X162722203Y-107385266D01*
X162564604Y-107514604D01*
X162435266Y-107672203D01*
X162339159Y-107852007D01*
X162279976Y-108047105D01*
X162259993Y-108250000D01*
X162279976Y-108452895D01*
X162339159Y-108647993D01*
X162435266Y-108827797D01*
X162564604Y-108985396D01*
X162722203Y-109114734D01*
X162902007Y-109210841D01*
X163097105Y-109270024D01*
X163249162Y-109285000D01*
X174399172Y-109285000D01*
X174450000Y-109290006D01*
X174500828Y-109285000D01*
X174500838Y-109285000D01*
X174652895Y-109270024D01*
X174847993Y-109210841D01*
X175027797Y-109114734D01*
X175185396Y-108985396D01*
X175217807Y-108945903D01*
X176273989Y-107889721D01*
X185065000Y-107889721D01*
X185065000Y-108310279D01*
X185147047Y-108722756D01*
X185307988Y-109111302D01*
X185541637Y-109460983D01*
X185839017Y-109758363D01*
X186188698Y-109992012D01*
X186577244Y-110152953D01*
X186989721Y-110235000D01*
X187410279Y-110235000D01*
X187822756Y-110152953D01*
X188211302Y-109992012D01*
X188560983Y-109758363D01*
X188858363Y-109460983D01*
X189092012Y-109111302D01*
X189252953Y-108722756D01*
X189335000Y-108310279D01*
X189335000Y-107889721D01*
X189252953Y-107477244D01*
X189092012Y-107088698D01*
X188858363Y-106739017D01*
X188560983Y-106441637D01*
X188211302Y-106207988D01*
X187822756Y-106047047D01*
X187410279Y-105965000D01*
X186989721Y-105965000D01*
X186577244Y-106047047D01*
X186188698Y-106207988D01*
X185839017Y-106441637D01*
X185541637Y-106739017D01*
X185307988Y-107088698D01*
X185147047Y-107477244D01*
X185065000Y-107889721D01*
X176273989Y-107889721D01*
X178195908Y-105967803D01*
X178235396Y-105935396D01*
X178280858Y-105880000D01*
X178364734Y-105777798D01*
X178419530Y-105675280D01*
X178460841Y-105597993D01*
X178461928Y-105594410D01*
X178461928Y-106680000D01*
X178474188Y-106804482D01*
X178510498Y-106924180D01*
X178569463Y-107034494D01*
X178648815Y-107131185D01*
X178745506Y-107210537D01*
X178855820Y-107269502D01*
X178975518Y-107305812D01*
X179100000Y-107318072D01*
X181500000Y-107318072D01*
X181624482Y-107305812D01*
X181744180Y-107269502D01*
X181854494Y-107210537D01*
X181951185Y-107131185D01*
X182030537Y-107034494D01*
X182089502Y-106924180D01*
X182125812Y-106804482D01*
X182138072Y-106680000D01*
X182138072Y-105080000D01*
X182125812Y-104955518D01*
X182089502Y-104835820D01*
X182030537Y-104725506D01*
X181951185Y-104628815D01*
X181854494Y-104549463D01*
X181744180Y-104490498D01*
X181624482Y-104454188D01*
X181606518Y-104452419D01*
X181719608Y-104359608D01*
X181898932Y-104141101D01*
X182032182Y-103891808D01*
X182114236Y-103621309D01*
X182141943Y-103340000D01*
X182114236Y-103058691D01*
X182032182Y-102788192D01*
X181898932Y-102538899D01*
X181719608Y-102320392D01*
X181501101Y-102141068D01*
X181368142Y-102070000D01*
X181501101Y-101998932D01*
X181719608Y-101819608D01*
X181728232Y-101809100D01*
X182130563Y-102211432D01*
X182156709Y-102243291D01*
X182188568Y-102269437D01*
X182188570Y-102269439D01*
X182199995Y-102278815D01*
X182283854Y-102347636D01*
X182428913Y-102425172D01*
X182586311Y-102472918D01*
X182708981Y-102485000D01*
X182708982Y-102485000D01*
X182750000Y-102489040D01*
X182791018Y-102485000D01*
X185758982Y-102485000D01*
X185800000Y-102489040D01*
X185841018Y-102485000D01*
X185841019Y-102485000D01*
X185963689Y-102472918D01*
X186121087Y-102425172D01*
X186266146Y-102347636D01*
X186393291Y-102243291D01*
X186419446Y-102211421D01*
X188061928Y-100568940D01*
X188061928Y-100720000D01*
X188074188Y-100844482D01*
X188110498Y-100964180D01*
X188169463Y-101074494D01*
X188248815Y-101171185D01*
X188345506Y-101250537D01*
X188455820Y-101309502D01*
X188575518Y-101345812D01*
X188700000Y-101358072D01*
X189157205Y-101358072D01*
X189827770Y-102028638D01*
X189815000Y-102092835D01*
X189815000Y-102267165D01*
X189849010Y-102438145D01*
X189915723Y-102599205D01*
X190012576Y-102744155D01*
X190135845Y-102867424D01*
X190280795Y-102964277D01*
X190441855Y-103030990D01*
X190612835Y-103065000D01*
X190787165Y-103065000D01*
X190958145Y-103030990D01*
X191119205Y-102964277D01*
X191264155Y-102867424D01*
X191387424Y-102744155D01*
X191484277Y-102599205D01*
X191550990Y-102438145D01*
X191585000Y-102267165D01*
X191585000Y-102092835D01*
X191550990Y-101921855D01*
X191535000Y-101883252D01*
X191535000Y-101761018D01*
X191539040Y-101720000D01*
X191522918Y-101556311D01*
X191488840Y-101443971D01*
X192434430Y-102389562D01*
X192377271Y-102400932D01*
X192207111Y-102471414D01*
X192053972Y-102573738D01*
X191923738Y-102703972D01*
X191821414Y-102857111D01*
X191750932Y-103027271D01*
X191715000Y-103207911D01*
X191715000Y-103392089D01*
X191750932Y-103572729D01*
X191821414Y-103742889D01*
X191923738Y-103896028D01*
X192053972Y-104026262D01*
X192207111Y-104128586D01*
X192361788Y-104192655D01*
X198030578Y-109861446D01*
X198056728Y-109893310D01*
X198183873Y-109997655D01*
X198328932Y-110075191D01*
X198486330Y-110122937D01*
X198609000Y-110135019D01*
X198609002Y-110135019D01*
X198650018Y-110139059D01*
X198691034Y-110135019D01*
X198942496Y-110135019D01*
X210056038Y-110135017D01*
X210097066Y-110139058D01*
X210260754Y-110122936D01*
X210418152Y-110075190D01*
X210563211Y-109997654D01*
X210623039Y-109948554D01*
X210690357Y-109893308D01*
X210716507Y-109861444D01*
X212254922Y-108323031D01*
X212243048Y-108444133D01*
X212114063Y-108871353D01*
X211904554Y-109265384D01*
X211622501Y-109611214D01*
X211278651Y-109895672D01*
X210886093Y-110107927D01*
X210459788Y-110239891D01*
X209983036Y-110290000D01*
X156336493Y-110290000D01*
X159061428Y-107565066D01*
X159093291Y-107538917D01*
X159197636Y-107411772D01*
X159275172Y-107266713D01*
X159322918Y-107109315D01*
X159335000Y-106986645D01*
X159335000Y-106986635D01*
X159339039Y-106945627D01*
X159335000Y-106904619D01*
X159335000Y-100670000D01*
X160966565Y-100670000D01*
X160972999Y-100735323D01*
X160978629Y-100800642D01*
X160979844Y-100804832D01*
X160980273Y-100809184D01*
X160999336Y-100872026D01*
X161007829Y-100901304D01*
X161009437Y-100905324D01*
X161020872Y-100943020D01*
X161035350Y-100970106D01*
X162209440Y-103905334D01*
X162220872Y-103943020D01*
X162251789Y-104000862D01*
X162282011Y-104059101D01*
X162284742Y-104062513D01*
X162286800Y-104066363D01*
X162328426Y-104117084D01*
X162369412Y-104168286D01*
X162372752Y-104171096D01*
X162375525Y-104174475D01*
X162426271Y-104216121D01*
X162476433Y-104258322D01*
X162480258Y-104260427D01*
X162483637Y-104263200D01*
X162541524Y-104294141D01*
X162598964Y-104325750D01*
X162603127Y-104327068D01*
X162606980Y-104329128D01*
X162669764Y-104348173D01*
X162732295Y-104367978D01*
X162736636Y-104368459D01*
X162740816Y-104369727D01*
X162806098Y-104376156D01*
X162871301Y-104383382D01*
X162910536Y-104380000D01*
X163449463Y-104380000D01*
X163488698Y-104383382D01*
X163553855Y-104376161D01*
X163619184Y-104369727D01*
X163623369Y-104368457D01*
X163627704Y-104367977D01*
X163690173Y-104348193D01*
X163753020Y-104329128D01*
X163756875Y-104327068D01*
X163761035Y-104325750D01*
X163818441Y-104294160D01*
X163876363Y-104263200D01*
X163879744Y-104260425D01*
X163883566Y-104258322D01*
X163933689Y-104216154D01*
X163984475Y-104174475D01*
X163987251Y-104171093D01*
X163990587Y-104168286D01*
X164031534Y-104117134D01*
X164073200Y-104066363D01*
X164075260Y-104062509D01*
X164077988Y-104059101D01*
X164108177Y-104000926D01*
X164131726Y-103956869D01*
X164136800Y-103966362D01*
X164225525Y-104074474D01*
X164333637Y-104163200D01*
X164456980Y-104229128D01*
X164590816Y-104269727D01*
X164598880Y-104270521D01*
X164620872Y-104343020D01*
X164686800Y-104466363D01*
X164775526Y-104574475D01*
X164883638Y-104663200D01*
X165006981Y-104729128D01*
X165140817Y-104769727D01*
X165280000Y-104783435D01*
X165419184Y-104769727D01*
X165553020Y-104729128D01*
X165676363Y-104663200D01*
X165784475Y-104574475D01*
X165873200Y-104466363D01*
X165939128Y-104343020D01*
X165979727Y-104209183D01*
X165990000Y-104104876D01*
X165990000Y-103762592D01*
X165993267Y-103735464D01*
X165990000Y-103692839D01*
X165990000Y-103685123D01*
X165987334Y-103658050D01*
X165982579Y-103596015D01*
X165980488Y-103588542D01*
X165979727Y-103580816D01*
X165961659Y-103521256D01*
X165944891Y-103461331D01*
X165941381Y-103454408D01*
X165939128Y-103446980D01*
X165909776Y-103392067D01*
X165881651Y-103336589D01*
X165876863Y-103330489D01*
X165873200Y-103323637D01*
X165833702Y-103275508D01*
X165795291Y-103226579D01*
X165789399Y-103221526D01*
X165784474Y-103215525D01*
X165736348Y-103176029D01*
X165729318Y-103170000D01*
X165736326Y-103163990D01*
X165784475Y-103124475D01*
X165789402Y-103118472D01*
X165795291Y-103113421D01*
X165833692Y-103064504D01*
X165873200Y-103016363D01*
X165876863Y-103009511D01*
X165881651Y-103003411D01*
X165909776Y-102947933D01*
X165939128Y-102893020D01*
X165941381Y-102885592D01*
X165944891Y-102878669D01*
X165956009Y-102838937D01*
X165986729Y-102818075D01*
X165988918Y-102815853D01*
X165991486Y-102814076D01*
X166011838Y-102793053D01*
X166034475Y-102774475D01*
X166058413Y-102745307D01*
X166084878Y-102718441D01*
X166086594Y-102715831D01*
X166088762Y-102713591D01*
X166104623Y-102689000D01*
X166123200Y-102666363D01*
X166140990Y-102633081D01*
X166161702Y-102601572D01*
X166162872Y-102598686D01*
X166164567Y-102596058D01*
X166175327Y-102568840D01*
X166189128Y-102543020D01*
X166200082Y-102506911D01*
X166214251Y-102471963D01*
X166214837Y-102468896D01*
X166215984Y-102465995D01*
X166221226Y-102437207D01*
X166229727Y-102409184D01*
X166233425Y-102371637D01*
X166240505Y-102334591D01*
X166240482Y-102331467D01*
X166241040Y-102328400D01*
X166240565Y-102299138D01*
X166243435Y-102270000D01*
X166239737Y-102232449D01*
X166239453Y-102194736D01*
X166238822Y-102191682D01*
X166238771Y-102188560D01*
X166232597Y-102159955D01*
X166229727Y-102130816D01*
X166218773Y-102094706D01*
X166218638Y-102094054D01*
X166276363Y-102063200D01*
X166384475Y-101974475D01*
X166473200Y-101866363D01*
X166539128Y-101743020D01*
X166579727Y-101609184D01*
X166593435Y-101470000D01*
X166590000Y-101435123D01*
X166590000Y-98704877D01*
X166593435Y-98670000D01*
X166579727Y-98530816D01*
X166539128Y-98396980D01*
X166473200Y-98273637D01*
X166384475Y-98165525D01*
X166276363Y-98076800D01*
X166153020Y-98010872D01*
X166019184Y-97970273D01*
X165914877Y-97960000D01*
X165880000Y-97956565D01*
X165845123Y-97960000D01*
X165314877Y-97960000D01*
X165280000Y-97956565D01*
X165245123Y-97960000D01*
X165140816Y-97970273D01*
X165006980Y-98010872D01*
X164883637Y-98076800D01*
X164775525Y-98165525D01*
X164686800Y-98273637D01*
X164620872Y-98396980D01*
X164580273Y-98530816D01*
X164577399Y-98560000D01*
X164114877Y-98560000D01*
X164080000Y-98556565D01*
X164045123Y-98560000D01*
X163940816Y-98570273D01*
X163806980Y-98610872D01*
X163683637Y-98676800D01*
X163575525Y-98765525D01*
X163486800Y-98873637D01*
X163420872Y-98996980D01*
X163380273Y-99130816D01*
X163366565Y-99270000D01*
X163370001Y-99304887D01*
X163370000Y-100533268D01*
X163199307Y-100960000D01*
X163160693Y-100960000D01*
X162950563Y-100434676D01*
X162939128Y-100396980D01*
X162908177Y-100339074D01*
X162877988Y-100280899D01*
X162875260Y-100277491D01*
X162873200Y-100273637D01*
X162831534Y-100222866D01*
X162790587Y-100171714D01*
X162787251Y-100168907D01*
X162784475Y-100165525D01*
X162733689Y-100123846D01*
X162683566Y-100081678D01*
X162679744Y-100079575D01*
X162676363Y-100076800D01*
X162618441Y-100045840D01*
X162561035Y-100014250D01*
X162556875Y-100012932D01*
X162553020Y-100010872D01*
X162490173Y-99991807D01*
X162427704Y-99972023D01*
X162423369Y-99971543D01*
X162419184Y-99970273D01*
X162353855Y-99963839D01*
X162288698Y-99956618D01*
X162249463Y-99960000D01*
X161719215Y-99960000D01*
X161688698Y-99956618D01*
X161649463Y-99960000D01*
X161645123Y-99960000D01*
X161614678Y-99962998D01*
X161549358Y-99968629D01*
X161545168Y-99969844D01*
X161540816Y-99970273D01*
X161477966Y-99989339D01*
X161415037Y-100007593D01*
X161411164Y-100009603D01*
X161406980Y-100010872D01*
X161349080Y-100041820D01*
X161290899Y-100072012D01*
X161287491Y-100074740D01*
X161283637Y-100076800D01*
X161232866Y-100118466D01*
X161181714Y-100159413D01*
X161178907Y-100162749D01*
X161175525Y-100165525D01*
X161133846Y-100216311D01*
X161091678Y-100266434D01*
X161089575Y-100270256D01*
X161086800Y-100273637D01*
X161055840Y-100331559D01*
X161024250Y-100388965D01*
X161022932Y-100393125D01*
X161020872Y-100396980D01*
X161001807Y-100459827D01*
X160982023Y-100522296D01*
X160981543Y-100526631D01*
X160980273Y-100530816D01*
X160973839Y-100596146D01*
X160966618Y-100661302D01*
X160966993Y-100665653D01*
X160966565Y-100670000D01*
X159335000Y-100670000D01*
X159335000Y-98927404D01*
X159399068Y-98772729D01*
X159435000Y-98592089D01*
X159435000Y-98407911D01*
X159399068Y-98227271D01*
X159328586Y-98057111D01*
X159226262Y-97903972D01*
X159096028Y-97773738D01*
X158942889Y-97671414D01*
X158772729Y-97600932D01*
X158592089Y-97565000D01*
X158435018Y-97565000D01*
X158435019Y-93631034D01*
X158439059Y-93590018D01*
X158435019Y-93549000D01*
X158422937Y-93426331D01*
X158378982Y-93281429D01*
X158375191Y-93268932D01*
X158297655Y-93123873D01*
X158219457Y-93028589D01*
X158219456Y-93028588D01*
X158193310Y-92996729D01*
X158161451Y-92970583D01*
X155968534Y-90777667D01*
X155991943Y-90540000D01*
X155964236Y-90258691D01*
X155882182Y-89988192D01*
X155748932Y-89738899D01*
X155569608Y-89520392D01*
X155351101Y-89341068D01*
X155218142Y-89270000D01*
X155351101Y-89198932D01*
X155569608Y-89019608D01*
X155748932Y-88801101D01*
X155882182Y-88551808D01*
X155964236Y-88281309D01*
X155991943Y-88000000D01*
X155964236Y-87718691D01*
X155882182Y-87448192D01*
X155748932Y-87198899D01*
X155569608Y-86980392D01*
X155351101Y-86801068D01*
X155135000Y-86685560D01*
X155135000Y-86430000D01*
X157201928Y-86430000D01*
X157201928Y-88130000D01*
X157214188Y-88254482D01*
X157250498Y-88374180D01*
X157309463Y-88484494D01*
X157388815Y-88581185D01*
X157485506Y-88660537D01*
X157595820Y-88719502D01*
X157715518Y-88755812D01*
X157840000Y-88768072D01*
X159540000Y-88768072D01*
X159664482Y-88755812D01*
X159784180Y-88719502D01*
X159894494Y-88660537D01*
X159991185Y-88581185D01*
X160070537Y-88484494D01*
X160129502Y-88374180D01*
X160165812Y-88254482D01*
X160178072Y-88130000D01*
X160178072Y-86430000D01*
X160165812Y-86305518D01*
X160129502Y-86185820D01*
X160070537Y-86075506D01*
X159991185Y-85978815D01*
X159894494Y-85899463D01*
X159784180Y-85840498D01*
X159664482Y-85804188D01*
X159540000Y-85791928D01*
X157840000Y-85791928D01*
X157715518Y-85804188D01*
X157595820Y-85840498D01*
X157485506Y-85899463D01*
X157388815Y-85978815D01*
X157309463Y-86075506D01*
X157250498Y-86185820D01*
X157214188Y-86305518D01*
X157201928Y-86430000D01*
X155135000Y-86430000D01*
X155135000Y-83470000D01*
X161916928Y-83470000D01*
X161929188Y-83594482D01*
X161965498Y-83714180D01*
X162024463Y-83824494D01*
X162103815Y-83921185D01*
X162200506Y-84000537D01*
X162310820Y-84059502D01*
X162430518Y-84095812D01*
X162555000Y-84108072D01*
X162794250Y-84105000D01*
X162953000Y-83946250D01*
X162953000Y-82847000D01*
X162078750Y-82847000D01*
X161920000Y-83005750D01*
X161916928Y-83470000D01*
X155135000Y-83470000D01*
X155135000Y-81970000D01*
X161916928Y-81970000D01*
X161920000Y-82434250D01*
X162078750Y-82593000D01*
X162953000Y-82593000D01*
X162953000Y-82438022D01*
X163190000Y-82438022D01*
X163190000Y-83001979D01*
X163206785Y-83172400D01*
X163207000Y-83173109D01*
X163207000Y-83946250D01*
X163365750Y-84105000D01*
X163605000Y-84108072D01*
X163729482Y-84095812D01*
X163849180Y-84059502D01*
X163913902Y-84024907D01*
X164122601Y-84088215D01*
X164350000Y-84110612D01*
X164577400Y-84088215D01*
X164796060Y-84021885D01*
X164985000Y-83920894D01*
X165173941Y-84021885D01*
X165392601Y-84088215D01*
X165620000Y-84110612D01*
X165847400Y-84088215D01*
X166066060Y-84021885D01*
X166267579Y-83914171D01*
X166444212Y-83769212D01*
X166589171Y-83592579D01*
X166696885Y-83391059D01*
X166763215Y-83172399D01*
X166780000Y-83001978D01*
X166780000Y-82438021D01*
X166763215Y-82267600D01*
X166696885Y-82048940D01*
X166589171Y-81847421D01*
X166444212Y-81670788D01*
X166267578Y-81525829D01*
X166066059Y-81418115D01*
X165847399Y-81351785D01*
X165620000Y-81329388D01*
X165392600Y-81351785D01*
X165173940Y-81418115D01*
X164985000Y-81519106D01*
X164796059Y-81418115D01*
X164577399Y-81351785D01*
X164350000Y-81329388D01*
X164122600Y-81351785D01*
X163913902Y-81415093D01*
X163849180Y-81380498D01*
X163729482Y-81344188D01*
X163605000Y-81331928D01*
X163365750Y-81335000D01*
X163207000Y-81493750D01*
X163207000Y-82266892D01*
X163206785Y-82267601D01*
X163190000Y-82438022D01*
X162953000Y-82438022D01*
X162953000Y-81493750D01*
X162794250Y-81335000D01*
X162555000Y-81331928D01*
X162430518Y-81344188D01*
X162310820Y-81380498D01*
X162200506Y-81439463D01*
X162103815Y-81518815D01*
X162024463Y-81615506D01*
X161965498Y-81725820D01*
X161929188Y-81845518D01*
X161916928Y-81970000D01*
X155135000Y-81970000D01*
X155135000Y-73420000D01*
X160121928Y-73420000D01*
X160121928Y-75120000D01*
X160134188Y-75244482D01*
X160170498Y-75364180D01*
X160229463Y-75474494D01*
X160308815Y-75571185D01*
X160405506Y-75650537D01*
X160515820Y-75709502D01*
X160588380Y-75731513D01*
X160456525Y-75863368D01*
X160294010Y-76106589D01*
X160182068Y-76376842D01*
X160125000Y-76663740D01*
X160125000Y-76956260D01*
X160182068Y-77243158D01*
X160294010Y-77513411D01*
X160456525Y-77756632D01*
X160663368Y-77963475D01*
X160906589Y-78125990D01*
X161176842Y-78237932D01*
X161463740Y-78295000D01*
X161756260Y-78295000D01*
X162043158Y-78237932D01*
X162313411Y-78125990D01*
X162556632Y-77963475D01*
X162763475Y-77756632D01*
X162925990Y-77513411D01*
X163037932Y-77243158D01*
X163095000Y-76956260D01*
X163095000Y-76663740D01*
X163037932Y-76376842D01*
X162925990Y-76106589D01*
X162763475Y-75863368D01*
X162631620Y-75731513D01*
X162704180Y-75709502D01*
X162814494Y-75650537D01*
X162911185Y-75571185D01*
X162990537Y-75474494D01*
X163049502Y-75364180D01*
X163085812Y-75244482D01*
X163098072Y-75120000D01*
X163098072Y-73420000D01*
X163085812Y-73295518D01*
X163049502Y-73175820D01*
X162990537Y-73065506D01*
X162911185Y-72968815D01*
X162814494Y-72889463D01*
X162704180Y-72830498D01*
X162584482Y-72794188D01*
X162460000Y-72781928D01*
X160760000Y-72781928D01*
X160635518Y-72794188D01*
X160515820Y-72830498D01*
X160405506Y-72889463D01*
X160308815Y-72968815D01*
X160229463Y-73065506D01*
X160170498Y-73175820D01*
X160134188Y-73295518D01*
X160121928Y-73420000D01*
X155135000Y-73420000D01*
X155135000Y-72764540D01*
X155139523Y-72718615D01*
X155135000Y-72672690D01*
X155135000Y-72672684D01*
X155121471Y-72535324D01*
X155120325Y-72531544D01*
X155103927Y-72477488D01*
X155068007Y-72359076D01*
X154981186Y-72196644D01*
X154864344Y-72054272D01*
X154828666Y-72024992D01*
X150888663Y-68084990D01*
X172042721Y-68084990D01*
X171771341Y-68356370D01*
G37*
X171771341Y-68356370D02*
X171735656Y-68385656D01*
X171618814Y-68528029D01*
X171531993Y-68690461D01*
X171483619Y-68849929D01*
X171478529Y-68866709D01*
X171460476Y-69050000D01*
X171465000Y-69095932D01*
X171465001Y-70676410D01*
X171296171Y-70850041D01*
X171163865Y-71054190D01*
X171073928Y-71280230D01*
X171029817Y-71519470D01*
X171033227Y-71762719D01*
X171084028Y-72000629D01*
X171180267Y-72224057D01*
X171318245Y-72424418D01*
X171448956Y-72551514D01*
X171499601Y-72591903D01*
X171436448Y-72577488D01*
X171255583Y-72554536D01*
X171012908Y-72571580D01*
X170778220Y-72635640D01*
X170560540Y-72744255D01*
X170368231Y-72893250D01*
X170208686Y-73076900D01*
X170088034Y-73288147D01*
X170010913Y-73518873D01*
X169980286Y-73760211D01*
X169997330Y-74002886D01*
X170061390Y-74237574D01*
X170170005Y-74455254D01*
X170319000Y-74647563D01*
X170502650Y-74807108D01*
X170713897Y-74927760D01*
X170886809Y-74985556D01*
X170949967Y-74999972D01*
X170886809Y-75014387D01*
X170713897Y-75072181D01*
X170502648Y-75192831D01*
X170318997Y-75352374D01*
X170170000Y-75544681D01*
X170061382Y-75762360D01*
X169997320Y-75997047D01*
X169980273Y-76239722D01*
X170010897Y-76481061D01*
X170088015Y-76711787D01*
X170208665Y-76923036D01*
X170368208Y-77106687D01*
X170560515Y-77255684D01*
X170778194Y-77364302D01*
X171012881Y-77428364D01*
X171255556Y-77445411D01*
X171436421Y-77422461D01*
X171499577Y-77408046D01*
X171448931Y-77448435D01*
X171318219Y-77575530D01*
X171180239Y-77775889D01*
X171083998Y-77999316D01*
X171033195Y-78237226D01*
X171029782Y-78480475D01*
X171073891Y-78719716D01*
X171163825Y-78945756D01*
X171296130Y-79149907D01*
X171465720Y-79324323D01*
X171666079Y-79462303D01*
X171839558Y-79537029D01*
X171839559Y-82688151D01*
X169553975Y-84973736D01*
X169553972Y-84973738D01*
X169423738Y-85103972D01*
X169398089Y-85142358D01*
X169368815Y-85178029D01*
X169347062Y-85218726D01*
X169321414Y-85257111D01*
X169303748Y-85299762D01*
X169281994Y-85340460D01*
X169268597Y-85384623D01*
X169250932Y-85427271D01*
X169241927Y-85472543D01*
X169228529Y-85516709D01*
X169224005Y-85562640D01*
X169215000Y-85607911D01*
X169215000Y-85654068D01*
X169210476Y-85700000D01*
X169215000Y-85745932D01*
X169215000Y-85792089D01*
X169224005Y-85837360D01*
X169228529Y-85883291D01*
X169241927Y-85927457D01*
X169250932Y-85972729D01*
X169268597Y-86015377D01*
X169281994Y-86059540D01*
X169303748Y-86100238D01*
X169321414Y-86142889D01*
X169347062Y-86181274D01*
X169368815Y-86221971D01*
X169398089Y-86257641D01*
X169423738Y-86296028D01*
X169456385Y-86328675D01*
X169485657Y-86364343D01*
X169521325Y-86393615D01*
X169553972Y-86426262D01*
X169592359Y-86451911D01*
X169628029Y-86481185D01*
X169668726Y-86502938D01*
X169680350Y-86510705D01*
X169678529Y-86516709D01*
X169660476Y-86700000D01*
X169665000Y-86745932D01*
X169665001Y-99074058D01*
X169660476Y-99120000D01*
X169678529Y-99303291D01*
X169714705Y-99422545D01*
X169731994Y-99479540D01*
X169818815Y-99641972D01*
X169935657Y-99784344D01*
X169971336Y-99813625D01*
X170848785Y-100691074D01*
X170838057Y-100800000D01*
X170865764Y-101081309D01*
X170947818Y-101351808D01*
X171081068Y-101601101D01*
X171260392Y-101819608D01*
X171478899Y-101998932D01*
X171611858Y-102070000D01*
X171478899Y-102141068D01*
X171260392Y-102320392D01*
X171081068Y-102538899D01*
X170947818Y-102788192D01*
X170865764Y-103058691D01*
X170838057Y-103340000D01*
X170865764Y-103621309D01*
X170947818Y-103891808D01*
X171081068Y-104141101D01*
X171260392Y-104359608D01*
X171478899Y-104538932D01*
X171611858Y-104610000D01*
X171478899Y-104681068D01*
X171260392Y-104860392D01*
X171081068Y-105078899D01*
X170947818Y-105328192D01*
X170865764Y-105598691D01*
X170838057Y-105880000D01*
X170865764Y-106161309D01*
X170947818Y-106431808D01*
X171081068Y-106681101D01*
X171260392Y-106899608D01*
X171478899Y-107078932D01*
X171728192Y-107212182D01*
X171737482Y-107215000D01*
X163249162Y-107215000D01*
X163097105Y-107229976D01*
X162902007Y-107289159D01*
X162722203Y-107385266D01*
X162564604Y-107514604D01*
X162435266Y-107672203D01*
X162339159Y-107852007D01*
X162279976Y-108047105D01*
X162259993Y-108250000D01*
X162279976Y-108452895D01*
X162339159Y-108647993D01*
X162435266Y-108827797D01*
X162564604Y-108985396D01*
X162722203Y-109114734D01*
X162902007Y-109210841D01*
X163097105Y-109270024D01*
X163249162Y-109285000D01*
X174399172Y-109285000D01*
X174450000Y-109290006D01*
X174500828Y-109285000D01*
X174500838Y-109285000D01*
X174652895Y-109270024D01*
X174847993Y-109210841D01*
X175027797Y-109114734D01*
X175185396Y-108985396D01*
X175217807Y-108945903D01*
X176273989Y-107889721D01*
X185065000Y-107889721D01*
X185065000Y-108310279D01*
X185147047Y-108722756D01*
X185307988Y-109111302D01*
X185541637Y-109460983D01*
X185839017Y-109758363D01*
X186188698Y-109992012D01*
X186577244Y-110152953D01*
X186989721Y-110235000D01*
X187410279Y-110235000D01*
X187822756Y-110152953D01*
X188211302Y-109992012D01*
X188560983Y-109758363D01*
X188858363Y-109460983D01*
X189092012Y-109111302D01*
X189252953Y-108722756D01*
X189335000Y-108310279D01*
X189335000Y-107889721D01*
X189252953Y-107477244D01*
X189092012Y-107088698D01*
X188858363Y-106739017D01*
X188560983Y-106441637D01*
X188211302Y-106207988D01*
X187822756Y-106047047D01*
X187410279Y-105965000D01*
X186989721Y-105965000D01*
X186577244Y-106047047D01*
X186188698Y-106207988D01*
X185839017Y-106441637D01*
X185541637Y-106739017D01*
X185307988Y-107088698D01*
X185147047Y-107477244D01*
X185065000Y-107889721D01*
X176273989Y-107889721D01*
X178195908Y-105967803D01*
X178235396Y-105935396D01*
X178280858Y-105880000D01*
X178364734Y-105777798D01*
X178419530Y-105675280D01*
X178460841Y-105597993D01*
X178461928Y-105594410D01*
X178461928Y-106680000D01*
X178474188Y-106804482D01*
X178510498Y-106924180D01*
X178569463Y-107034494D01*
X178648815Y-107131185D01*
X178745506Y-107210537D01*
X178855820Y-107269502D01*
X178975518Y-107305812D01*
X179100000Y-107318072D01*
X181500000Y-107318072D01*
X181624482Y-107305812D01*
X181744180Y-107269502D01*
X181854494Y-107210537D01*
X181951185Y-107131185D01*
X182030537Y-107034494D01*
X182089502Y-106924180D01*
X182125812Y-106804482D01*
X182138072Y-106680000D01*
X182138072Y-105080000D01*
X182125812Y-104955518D01*
X182089502Y-104835820D01*
X182030537Y-104725506D01*
X181951185Y-104628815D01*
X181854494Y-104549463D01*
X181744180Y-104490498D01*
X181624482Y-104454188D01*
X181606518Y-104452419D01*
X181719608Y-104359608D01*
X181898932Y-104141101D01*
X182032182Y-103891808D01*
X182114236Y-103621309D01*
X182141943Y-103340000D01*
X182114236Y-103058691D01*
X182032182Y-102788192D01*
X181898932Y-102538899D01*
X181719608Y-102320392D01*
X181501101Y-102141068D01*
X181368142Y-102070000D01*
X181501101Y-101998932D01*
X181719608Y-101819608D01*
X181728232Y-101809100D01*
X182130563Y-102211432D01*
X182156709Y-102243291D01*
X182188568Y-102269437D01*
X182188570Y-102269439D01*
X182199995Y-102278815D01*
X182283854Y-102347636D01*
X182428913Y-102425172D01*
X182586311Y-102472918D01*
X182708981Y-102485000D01*
X182708982Y-102485000D01*
X182750000Y-102489040D01*
X182791018Y-102485000D01*
X185758982Y-102485000D01*
X185800000Y-102489040D01*
X185841018Y-102485000D01*
X185841019Y-102485000D01*
X185963689Y-102472918D01*
X186121087Y-102425172D01*
X186266146Y-102347636D01*
X186393291Y-102243291D01*
X186419446Y-102211421D01*
X188061928Y-100568940D01*
X188061928Y-100720000D01*
X188074188Y-100844482D01*
X188110498Y-100964180D01*
X188169463Y-101074494D01*
X188248815Y-101171185D01*
X188345506Y-101250537D01*
X188455820Y-101309502D01*
X188575518Y-101345812D01*
X188700000Y-101358072D01*
X189157205Y-101358072D01*
X189827770Y-102028638D01*
X189815000Y-102092835D01*
X189815000Y-102267165D01*
X189849010Y-102438145D01*
X189915723Y-102599205D01*
X190012576Y-102744155D01*
X190135845Y-102867424D01*
X190280795Y-102964277D01*
X190441855Y-103030990D01*
X190612835Y-103065000D01*
X190787165Y-103065000D01*
X190958145Y-103030990D01*
X191119205Y-102964277D01*
X191264155Y-102867424D01*
X191387424Y-102744155D01*
X191484277Y-102599205D01*
X191550990Y-102438145D01*
X191585000Y-102267165D01*
X191585000Y-102092835D01*
X191550990Y-101921855D01*
X191535000Y-101883252D01*
X191535000Y-101761018D01*
X191539040Y-101720000D01*
X191522918Y-101556311D01*
X191488840Y-101443971D01*
X192434430Y-102389562D01*
X192377271Y-102400932D01*
X192207111Y-102471414D01*
X192053972Y-102573738D01*
X191923738Y-102703972D01*
X191821414Y-102857111D01*
X191750932Y-103027271D01*
X191715000Y-103207911D01*
X191715000Y-103392089D01*
X191750932Y-103572729D01*
X191821414Y-103742889D01*
X191923738Y-103896028D01*
X192053972Y-104026262D01*
X192207111Y-104128586D01*
X192361788Y-104192655D01*
X198030578Y-109861446D01*
X198056728Y-109893310D01*
X198183873Y-109997655D01*
X198328932Y-110075191D01*
X198486330Y-110122937D01*
X198609000Y-110135019D01*
X198609002Y-110135019D01*
X198650018Y-110139059D01*
X198691034Y-110135019D01*
X198942496Y-110135019D01*
X210056038Y-110135017D01*
X210097066Y-110139058D01*
X210260754Y-110122936D01*
X210418152Y-110075190D01*
X210563211Y-109997654D01*
X210623039Y-109948554D01*
X210690357Y-109893308D01*
X210716507Y-109861444D01*
X212254922Y-108323031D01*
X212243048Y-108444133D01*
X212114063Y-108871353D01*
X211904554Y-109265384D01*
X211622501Y-109611214D01*
X211278651Y-109895672D01*
X210886093Y-110107927D01*
X210459788Y-110239891D01*
X209983036Y-110290000D01*
X156336493Y-110290000D01*
X159061428Y-107565066D01*
X159093291Y-107538917D01*
X159197636Y-107411772D01*
X159275172Y-107266713D01*
X159322918Y-107109315D01*
X159335000Y-106986645D01*
X159335000Y-106986635D01*
X159339039Y-106945627D01*
X159335000Y-106904619D01*
X159335000Y-100670000D01*
X160966565Y-100670000D01*
X160972999Y-100735323D01*
X160978629Y-100800642D01*
X160979844Y-100804832D01*
X160980273Y-100809184D01*
X160999336Y-100872026D01*
X161007829Y-100901304D01*
X161009437Y-100905324D01*
X161020872Y-100943020D01*
X161035350Y-100970106D01*
X162209440Y-103905334D01*
X162220872Y-103943020D01*
X162251789Y-104000862D01*
X162282011Y-104059101D01*
X162284742Y-104062513D01*
X162286800Y-104066363D01*
X162328426Y-104117084D01*
X162369412Y-104168286D01*
X162372752Y-104171096D01*
X162375525Y-104174475D01*
X162426271Y-104216121D01*
X162476433Y-104258322D01*
X162480258Y-104260427D01*
X162483637Y-104263200D01*
X162541524Y-104294141D01*
X162598964Y-104325750D01*
X162603127Y-104327068D01*
X162606980Y-104329128D01*
X162669764Y-104348173D01*
X162732295Y-104367978D01*
X162736636Y-104368459D01*
X162740816Y-104369727D01*
X162806098Y-104376156D01*
X162871301Y-104383382D01*
X162910536Y-104380000D01*
X163449463Y-104380000D01*
X163488698Y-104383382D01*
X163553855Y-104376161D01*
X163619184Y-104369727D01*
X163623369Y-104368457D01*
X163627704Y-104367977D01*
X163690173Y-104348193D01*
X163753020Y-104329128D01*
X163756875Y-104327068D01*
X163761035Y-104325750D01*
X163818441Y-104294160D01*
X163876363Y-104263200D01*
X163879744Y-104260425D01*
X163883566Y-104258322D01*
X163933689Y-104216154D01*
X163984475Y-104174475D01*
X163987251Y-104171093D01*
X163990587Y-104168286D01*
X164031534Y-104117134D01*
X164073200Y-104066363D01*
X164075260Y-104062509D01*
X164077988Y-104059101D01*
X164108177Y-104000926D01*
X164131726Y-103956869D01*
X164136800Y-103966362D01*
X164225525Y-104074474D01*
X164333637Y-104163200D01*
X164456980Y-104229128D01*
X164590816Y-104269727D01*
X164598880Y-104270521D01*
X164620872Y-104343020D01*
X164686800Y-104466363D01*
X164775526Y-104574475D01*
X164883638Y-104663200D01*
X165006981Y-104729128D01*
X165140817Y-104769727D01*
X165280000Y-104783435D01*
X165419184Y-104769727D01*
X165553020Y-104729128D01*
X165676363Y-104663200D01*
X165784475Y-104574475D01*
X165873200Y-104466363D01*
X165939128Y-104343020D01*
X165979727Y-104209183D01*
X165990000Y-104104876D01*
X165990000Y-103762592D01*
X165993267Y-103735464D01*
X165990000Y-103692839D01*
X165990000Y-103685123D01*
X165987334Y-103658050D01*
X165982579Y-103596015D01*
X165980488Y-103588542D01*
X165979727Y-103580816D01*
X165961659Y-103521256D01*
X165944891Y-103461331D01*
X165941381Y-103454408D01*
X165939128Y-103446980D01*
X165909776Y-103392067D01*
X165881651Y-103336589D01*
X165876863Y-103330489D01*
X165873200Y-103323637D01*
X165833702Y-103275508D01*
X165795291Y-103226579D01*
X165789399Y-103221526D01*
X165784474Y-103215525D01*
X165736348Y-103176029D01*
X165729318Y-103170000D01*
X165736326Y-103163990D01*
X165784475Y-103124475D01*
X165789402Y-103118472D01*
X165795291Y-103113421D01*
X165833692Y-103064504D01*
X165873200Y-103016363D01*
X165876863Y-103009511D01*
X165881651Y-103003411D01*
X165909776Y-102947933D01*
X165939128Y-102893020D01*
X165941381Y-102885592D01*
X165944891Y-102878669D01*
X165956009Y-102838937D01*
X165986729Y-102818075D01*
X165988918Y-102815853D01*
X165991486Y-102814076D01*
X166011838Y-102793053D01*
X166034475Y-102774475D01*
X166058413Y-102745307D01*
X166084878Y-102718441D01*
X166086594Y-102715831D01*
X166088762Y-102713591D01*
X166104623Y-102689000D01*
X166123200Y-102666363D01*
X166140990Y-102633081D01*
X166161702Y-102601572D01*
X166162872Y-102598686D01*
X166164567Y-102596058D01*
X166175327Y-102568840D01*
X166189128Y-102543020D01*
X166200082Y-102506911D01*
X166214251Y-102471963D01*
X166214837Y-102468896D01*
X166215984Y-102465995D01*
X166221226Y-102437207D01*
X166229727Y-102409184D01*
X166233425Y-102371637D01*
X166240505Y-102334591D01*
X166240482Y-102331467D01*
X166241040Y-102328400D01*
X166240565Y-102299138D01*
X166243435Y-102270000D01*
X166239737Y-102232449D01*
X166239453Y-102194736D01*
X166238822Y-102191682D01*
X166238771Y-102188560D01*
X166232597Y-102159955D01*
X166229727Y-102130816D01*
X166218773Y-102094706D01*
X166218638Y-102094054D01*
X166276363Y-102063200D01*
X166384475Y-101974475D01*
X166473200Y-101866363D01*
X166539128Y-101743020D01*
X166579727Y-101609184D01*
X166593435Y-101470000D01*
X166590000Y-101435123D01*
X166590000Y-98704877D01*
X166593435Y-98670000D01*
X166579727Y-98530816D01*
X166539128Y-98396980D01*
X166473200Y-98273637D01*
X166384475Y-98165525D01*
X166276363Y-98076800D01*
X166153020Y-98010872D01*
X166019184Y-97970273D01*
X165914877Y-97960000D01*
X165880000Y-97956565D01*
X165845123Y-97960000D01*
X165314877Y-97960000D01*
X165280000Y-97956565D01*
X165245123Y-97960000D01*
X165140816Y-97970273D01*
X165006980Y-98010872D01*
X164883637Y-98076800D01*
X164775525Y-98165525D01*
X164686800Y-98273637D01*
X164620872Y-98396980D01*
X164580273Y-98530816D01*
X164577399Y-98560000D01*
X164114877Y-98560000D01*
X164080000Y-98556565D01*
X164045123Y-98560000D01*
X163940816Y-98570273D01*
X163806980Y-98610872D01*
X163683637Y-98676800D01*
X163575525Y-98765525D01*
X163486800Y-98873637D01*
X163420872Y-98996980D01*
X163380273Y-99130816D01*
X163366565Y-99270000D01*
X163370001Y-99304887D01*
X163370000Y-100533268D01*
X163199307Y-100960000D01*
X163160693Y-100960000D01*
X162950563Y-100434676D01*
X162939128Y-100396980D01*
X162908177Y-100339074D01*
X162877988Y-100280899D01*
X162875260Y-100277491D01*
X162873200Y-100273637D01*
X162831534Y-100222866D01*
X162790587Y-100171714D01*
X162787251Y-100168907D01*
X162784475Y-100165525D01*
X162733689Y-100123846D01*
X162683566Y-100081678D01*
X162679744Y-100079575D01*
X162676363Y-100076800D01*
X162618441Y-100045840D01*
X162561035Y-100014250D01*
X162556875Y-100012932D01*
X162553020Y-100010872D01*
X162490173Y-99991807D01*
X162427704Y-99972023D01*
X162423369Y-99971543D01*
X162419184Y-99970273D01*
X162353855Y-99963839D01*
X162288698Y-99956618D01*
X162249463Y-99960000D01*
X161719215Y-99960000D01*
X161688698Y-99956618D01*
X161649463Y-99960000D01*
X161645123Y-99960000D01*
X161614678Y-99962998D01*
X161549358Y-99968629D01*
X161545168Y-99969844D01*
X161540816Y-99970273D01*
X161477966Y-99989339D01*
X161415037Y-100007593D01*
X161411164Y-100009603D01*
X161406980Y-100010872D01*
X161349080Y-100041820D01*
X161290899Y-100072012D01*
X161287491Y-100074740D01*
X161283637Y-100076800D01*
X161232866Y-100118466D01*
X161181714Y-100159413D01*
X161178907Y-100162749D01*
X161175525Y-100165525D01*
X161133846Y-100216311D01*
X161091678Y-100266434D01*
X161089575Y-100270256D01*
X161086800Y-100273637D01*
X161055840Y-100331559D01*
X161024250Y-100388965D01*
X161022932Y-100393125D01*
X161020872Y-100396980D01*
X161001807Y-100459827D01*
X160982023Y-100522296D01*
X160981543Y-100526631D01*
X160980273Y-100530816D01*
X160973839Y-100596146D01*
X160966618Y-100661302D01*
X160966993Y-100665653D01*
X160966565Y-100670000D01*
X159335000Y-100670000D01*
X159335000Y-98927404D01*
X159399068Y-98772729D01*
X159435000Y-98592089D01*
X159435000Y-98407911D01*
X159399068Y-98227271D01*
X159328586Y-98057111D01*
X159226262Y-97903972D01*
X159096028Y-97773738D01*
X158942889Y-97671414D01*
X158772729Y-97600932D01*
X158592089Y-97565000D01*
X158435018Y-97565000D01*
X158435019Y-93631034D01*
X158439059Y-93590018D01*
X158435019Y-93549000D01*
X158422937Y-93426331D01*
X158378982Y-93281429D01*
X158375191Y-93268932D01*
X158297655Y-93123873D01*
X158219457Y-93028589D01*
X158219456Y-93028588D01*
X158193310Y-92996729D01*
X158161451Y-92970583D01*
X155968534Y-90777667D01*
X155991943Y-90540000D01*
X155964236Y-90258691D01*
X155882182Y-89988192D01*
X155748932Y-89738899D01*
X155569608Y-89520392D01*
X155351101Y-89341068D01*
X155218142Y-89270000D01*
X155351101Y-89198932D01*
X155569608Y-89019608D01*
X155748932Y-88801101D01*
X155882182Y-88551808D01*
X155964236Y-88281309D01*
X155991943Y-88000000D01*
X155964236Y-87718691D01*
X155882182Y-87448192D01*
X155748932Y-87198899D01*
X155569608Y-86980392D01*
X155351101Y-86801068D01*
X155135000Y-86685560D01*
X155135000Y-86430000D01*
X157201928Y-86430000D01*
X157201928Y-88130000D01*
X157214188Y-88254482D01*
X157250498Y-88374180D01*
X157309463Y-88484494D01*
X157388815Y-88581185D01*
X157485506Y-88660537D01*
X157595820Y-88719502D01*
X157715518Y-88755812D01*
X157840000Y-88768072D01*
X159540000Y-88768072D01*
X159664482Y-88755812D01*
X159784180Y-88719502D01*
X159894494Y-88660537D01*
X159991185Y-88581185D01*
X160070537Y-88484494D01*
X160129502Y-88374180D01*
X160165812Y-88254482D01*
X160178072Y-88130000D01*
X160178072Y-86430000D01*
X160165812Y-86305518D01*
X160129502Y-86185820D01*
X160070537Y-86075506D01*
X159991185Y-85978815D01*
X159894494Y-85899463D01*
X159784180Y-85840498D01*
X159664482Y-85804188D01*
X159540000Y-85791928D01*
X157840000Y-85791928D01*
X157715518Y-85804188D01*
X157595820Y-85840498D01*
X157485506Y-85899463D01*
X157388815Y-85978815D01*
X157309463Y-86075506D01*
X157250498Y-86185820D01*
X157214188Y-86305518D01*
X157201928Y-86430000D01*
X155135000Y-86430000D01*
X155135000Y-83470000D01*
X161916928Y-83470000D01*
X161929188Y-83594482D01*
X161965498Y-83714180D01*
X162024463Y-83824494D01*
X162103815Y-83921185D01*
X162200506Y-84000537D01*
X162310820Y-84059502D01*
X162430518Y-84095812D01*
X162555000Y-84108072D01*
X162794250Y-84105000D01*
X162953000Y-83946250D01*
X162953000Y-82847000D01*
X162078750Y-82847000D01*
X161920000Y-83005750D01*
X161916928Y-83470000D01*
X155135000Y-83470000D01*
X155135000Y-81970000D01*
X161916928Y-81970000D01*
X161920000Y-82434250D01*
X162078750Y-82593000D01*
X162953000Y-82593000D01*
X162953000Y-82438022D01*
X163190000Y-82438022D01*
X163190000Y-83001979D01*
X163206785Y-83172400D01*
X163207000Y-83173109D01*
X163207000Y-83946250D01*
X163365750Y-84105000D01*
X163605000Y-84108072D01*
X163729482Y-84095812D01*
X163849180Y-84059502D01*
X163913902Y-84024907D01*
X164122601Y-84088215D01*
X164350000Y-84110612D01*
X164577400Y-84088215D01*
X164796060Y-84021885D01*
X164985000Y-83920894D01*
X165173941Y-84021885D01*
X165392601Y-84088215D01*
X165620000Y-84110612D01*
X165847400Y-84088215D01*
X166066060Y-84021885D01*
X166267579Y-83914171D01*
X166444212Y-83769212D01*
X166589171Y-83592579D01*
X166696885Y-83391059D01*
X166763215Y-83172399D01*
X166780000Y-83001978D01*
X166780000Y-82438021D01*
X166763215Y-82267600D01*
X166696885Y-82048940D01*
X166589171Y-81847421D01*
X166444212Y-81670788D01*
X166267578Y-81525829D01*
X166066059Y-81418115D01*
X165847399Y-81351785D01*
X165620000Y-81329388D01*
X165392600Y-81351785D01*
X165173940Y-81418115D01*
X164985000Y-81519106D01*
X164796059Y-81418115D01*
X164577399Y-81351785D01*
X164350000Y-81329388D01*
X164122600Y-81351785D01*
X163913902Y-81415093D01*
X163849180Y-81380498D01*
X163729482Y-81344188D01*
X163605000Y-81331928D01*
X163365750Y-81335000D01*
X163207000Y-81493750D01*
X163207000Y-82266892D01*
X163206785Y-82267601D01*
X163190000Y-82438022D01*
X162953000Y-82438022D01*
X162953000Y-81493750D01*
X162794250Y-81335000D01*
X162555000Y-81331928D01*
X162430518Y-81344188D01*
X162310820Y-81380498D01*
X162200506Y-81439463D01*
X162103815Y-81518815D01*
X162024463Y-81615506D01*
X161965498Y-81725820D01*
X161929188Y-81845518D01*
X161916928Y-81970000D01*
X155135000Y-81970000D01*
X155135000Y-73420000D01*
X160121928Y-73420000D01*
X160121928Y-75120000D01*
X160134188Y-75244482D01*
X160170498Y-75364180D01*
X160229463Y-75474494D01*
X160308815Y-75571185D01*
X160405506Y-75650537D01*
X160515820Y-75709502D01*
X160588380Y-75731513D01*
X160456525Y-75863368D01*
X160294010Y-76106589D01*
X160182068Y-76376842D01*
X160125000Y-76663740D01*
X160125000Y-76956260D01*
X160182068Y-77243158D01*
X160294010Y-77513411D01*
X160456525Y-77756632D01*
X160663368Y-77963475D01*
X160906589Y-78125990D01*
X161176842Y-78237932D01*
X161463740Y-78295000D01*
X161756260Y-78295000D01*
X162043158Y-78237932D01*
X162313411Y-78125990D01*
X162556632Y-77963475D01*
X162763475Y-77756632D01*
X162925990Y-77513411D01*
X163037932Y-77243158D01*
X163095000Y-76956260D01*
X163095000Y-76663740D01*
X163037932Y-76376842D01*
X162925990Y-76106589D01*
X162763475Y-75863368D01*
X162631620Y-75731513D01*
X162704180Y-75709502D01*
X162814494Y-75650537D01*
X162911185Y-75571185D01*
X162990537Y-75474494D01*
X163049502Y-75364180D01*
X163085812Y-75244482D01*
X163098072Y-75120000D01*
X163098072Y-73420000D01*
X163085812Y-73295518D01*
X163049502Y-73175820D01*
X162990537Y-73065506D01*
X162911185Y-72968815D01*
X162814494Y-72889463D01*
X162704180Y-72830498D01*
X162584482Y-72794188D01*
X162460000Y-72781928D01*
X160760000Y-72781928D01*
X160635518Y-72794188D01*
X160515820Y-72830498D01*
X160405506Y-72889463D01*
X160308815Y-72968815D01*
X160229463Y-73065506D01*
X160170498Y-73175820D01*
X160134188Y-73295518D01*
X160121928Y-73420000D01*
X155135000Y-73420000D01*
X155135000Y-72764540D01*
X155139523Y-72718615D01*
X155135000Y-72672690D01*
X155135000Y-72672684D01*
X155121471Y-72535324D01*
X155120325Y-72531544D01*
X155103927Y-72477488D01*
X155068007Y-72359076D01*
X154981186Y-72196644D01*
X154864344Y-72054272D01*
X154828666Y-72024992D01*
X150888663Y-68084990D01*
X172042721Y-68084990D01*
X171771341Y-68356370D01*
G36*
X130630498Y-64785820D02*
G01*
X130594188Y-64905518D01*
X130581928Y-65030000D01*
X130581928Y-67030000D01*
X130594188Y-67154482D01*
X130630498Y-67274180D01*
X130689463Y-67384494D01*
X130768815Y-67481185D01*
X130865506Y-67560537D01*
X130975820Y-67619502D01*
X131095518Y-67655812D01*
X131220000Y-67668072D01*
X133220000Y-67668072D01*
X133344482Y-67655812D01*
X133464180Y-67619502D01*
X133574494Y-67560537D01*
X133671185Y-67481185D01*
X133750537Y-67384494D01*
X133809502Y-67274180D01*
X133845812Y-67154482D01*
X133858072Y-67030000D01*
X133858072Y-65030000D01*
X133845812Y-64905518D01*
X133809502Y-64785820D01*
X133768975Y-64710000D01*
X209965279Y-64710000D01*
X210444134Y-64756953D01*
X210871355Y-64885938D01*
X211265384Y-65095446D01*
X211611214Y-65377499D01*
X211895673Y-65721351D01*
X212107929Y-66113910D01*
X212239892Y-66540213D01*
X212290001Y-67016974D01*
X212290000Y-94749503D01*
X212172739Y-94700932D01*
X211992099Y-94665000D01*
X211807921Y-94665000D01*
X211627281Y-94700932D01*
X211457121Y-94771414D01*
X211425000Y-94792877D01*
X211425000Y-92371018D01*
X211429040Y-92330000D01*
X211419757Y-92235750D01*
X211412918Y-92166311D01*
X211365172Y-92008913D01*
X211287636Y-91863854D01*
X211241053Y-91807092D01*
X211209439Y-91768570D01*
X211209437Y-91768568D01*
X211183291Y-91736709D01*
X211151433Y-91710564D01*
X210268534Y-90827667D01*
X210291943Y-90590000D01*
X210264236Y-90308691D01*
X210182182Y-90038192D01*
X210048932Y-89788899D01*
X209869608Y-89570392D01*
X209651101Y-89391068D01*
X209518142Y-89320000D01*
X209651101Y-89248932D01*
X209869608Y-89069608D01*
X210048932Y-88851101D01*
X210182182Y-88601808D01*
X210264236Y-88331309D01*
X210291943Y-88050000D01*
X210264236Y-87768691D01*
X210182182Y-87498192D01*
X210048932Y-87248899D01*
X209869608Y-87030392D01*
X209651101Y-86851068D01*
X209401808Y-86717818D01*
X209385000Y-86712719D01*
X209385000Y-72414547D01*
X209389524Y-72368615D01*
X209371471Y-72185323D01*
X209339075Y-72078529D01*
X209318007Y-72009076D01*
X209231186Y-71846644D01*
X209114344Y-71704272D01*
X209078664Y-71674990D01*
X204525014Y-67121341D01*
X204495728Y-67085656D01*
X204353356Y-66968814D01*
X204190924Y-66881993D01*
X204014676Y-66828529D01*
X203877316Y-66815000D01*
X203831384Y-66810476D01*
X203785452Y-66815000D01*
X197095931Y-66815000D01*
X197049999Y-66810476D01*
X196866707Y-66828529D01*
X196813243Y-66844747D01*
X196690460Y-66881993D01*
X196528028Y-66968814D01*
X196385656Y-67085656D01*
X196356374Y-67121336D01*
X194421341Y-69056370D01*
X194385656Y-69085656D01*
X194268814Y-69228029D01*
X194181993Y-69390461D01*
X194128529Y-69566708D01*
X194128529Y-69566709D01*
X194110476Y-69750000D01*
X194115000Y-69795932D01*
X194115000Y-70254068D01*
X194110476Y-70300000D01*
X194115000Y-70345932D01*
X194128529Y-70483292D01*
X194181993Y-70659540D01*
X194268815Y-70821972D01*
X194385657Y-70964344D01*
X194421336Y-70993625D01*
X195030992Y-71603281D01*
X195033227Y-71762719D01*
X195084028Y-72000629D01*
X195180267Y-72224057D01*
X195318245Y-72424418D01*
X195448956Y-72551514D01*
X195499601Y-72591903D01*
X195436448Y-72577488D01*
X195255583Y-72554536D01*
X195012908Y-72571580D01*
X194778220Y-72635640D01*
X194560540Y-72744255D01*
X194368231Y-72893250D01*
X194208686Y-73076900D01*
X194088034Y-73288147D01*
X194010913Y-73518873D01*
X193980286Y-73760211D01*
X193997330Y-74002886D01*
X194061390Y-74237574D01*
X194170005Y-74455254D01*
X194319000Y-74647563D01*
X194502650Y-74807108D01*
X194713897Y-74927760D01*
X194886809Y-74985556D01*
X194949967Y-74999972D01*
X194886809Y-75014387D01*
X194713897Y-75072181D01*
X194502648Y-75192831D01*
X194318997Y-75352374D01*
X194170000Y-75544681D01*
X194061382Y-75762360D01*
X193997320Y-75997047D01*
X193980273Y-76239722D01*
X194010897Y-76481061D01*
X194088015Y-76711787D01*
X194208665Y-76923036D01*
X194368208Y-77106687D01*
X194560515Y-77255684D01*
X194778194Y-77364302D01*
X195012881Y-77428364D01*
X195255556Y-77445411D01*
X195436421Y-77422461D01*
X195499577Y-77408046D01*
X195448931Y-77448435D01*
X195318219Y-77575530D01*
X195180239Y-77775889D01*
X195083998Y-77999316D01*
X195033195Y-78237226D01*
X195030554Y-78425441D01*
X194959446Y-78558476D01*
X194910104Y-78721135D01*
X194905982Y-78734724D01*
X194887929Y-78918015D01*
X194892453Y-78963947D01*
X194892454Y-82381511D01*
X194887929Y-82427453D01*
X194905982Y-82610744D01*
X194959447Y-82786993D01*
X195046268Y-82949425D01*
X195163110Y-83091797D01*
X195198789Y-83121078D01*
X196123736Y-84046025D01*
X196123738Y-84046028D01*
X196253972Y-84176262D01*
X196292354Y-84201908D01*
X196328028Y-84231185D01*
X196368730Y-84252940D01*
X196407111Y-84278586D01*
X196449757Y-84296251D01*
X196490459Y-84318006D01*
X196534626Y-84331404D01*
X196577271Y-84349068D01*
X196622540Y-84358073D01*
X196666708Y-84371471D01*
X196712641Y-84375995D01*
X196757911Y-84385000D01*
X196804068Y-84385000D01*
X196850000Y-84389524D01*
X196895932Y-84385000D01*
X196942089Y-84385000D01*
X196987359Y-84375995D01*
X197033292Y-84371471D01*
X197077459Y-84358073D01*
X197122729Y-84349068D01*
X197165376Y-84331403D01*
X197209540Y-84318006D01*
X197250238Y-84296252D01*
X197292889Y-84278586D01*
X197331274Y-84252938D01*
X197371971Y-84231185D01*
X197407641Y-84201911D01*
X197446028Y-84176262D01*
X197478675Y-84143615D01*
X197497523Y-84128147D01*
X197497524Y-98706581D01*
X197492999Y-98752523D01*
X197511052Y-98935814D01*
X197557498Y-99088924D01*
X197564517Y-99112063D01*
X197651338Y-99274495D01*
X197768180Y-99416867D01*
X197803859Y-99446148D01*
X198998785Y-100641075D01*
X198988057Y-100750000D01*
X199015764Y-101031309D01*
X199097818Y-101301808D01*
X199231068Y-101551101D01*
X199410392Y-101769608D01*
X199628899Y-101948932D01*
X199761858Y-102020000D01*
X199628899Y-102091068D01*
X199410392Y-102270392D01*
X199231068Y-102488899D01*
X199097818Y-102738192D01*
X199015764Y-103008691D01*
X198988057Y-103290000D01*
X199015764Y-103571309D01*
X199097818Y-103841808D01*
X199231068Y-104091101D01*
X199410392Y-104309608D01*
X199628899Y-104488932D01*
X199761858Y-104560000D01*
X199628899Y-104631068D01*
X199410392Y-104810392D01*
X199231068Y-105028899D01*
X199097818Y-105278192D01*
X199065523Y-105384655D01*
X195619445Y-101938578D01*
X195593290Y-101906708D01*
X195466145Y-101802363D01*
X195321086Y-101724827D01*
X195163688Y-101677081D01*
X195041018Y-101664999D01*
X195041017Y-101664999D01*
X194999999Y-101660959D01*
X194958981Y-101664999D01*
X194071603Y-101664999D01*
X192670680Y-100264077D01*
X192685000Y-100192089D01*
X192685000Y-100007911D01*
X192649068Y-99827271D01*
X192578586Y-99657111D01*
X192476262Y-99503972D01*
X192346028Y-99373738D01*
X192192889Y-99271414D01*
X192022729Y-99200932D01*
X191842089Y-99165000D01*
X191657911Y-99165000D01*
X191477271Y-99200932D01*
X191307111Y-99271414D01*
X191153972Y-99373738D01*
X191023738Y-99503972D01*
X190921414Y-99657111D01*
X190850932Y-99827271D01*
X190815000Y-100007911D01*
X190815000Y-100059876D01*
X190789502Y-99975820D01*
X190730537Y-99865506D01*
X190705501Y-99835000D01*
X190730537Y-99804494D01*
X190789502Y-99694180D01*
X190825812Y-99574482D01*
X190838072Y-99450000D01*
X190838072Y-98950000D01*
X190825812Y-98825518D01*
X190789502Y-98705820D01*
X190730537Y-98595506D01*
X190705501Y-98565000D01*
X190730537Y-98534494D01*
X190789502Y-98424180D01*
X190825812Y-98304482D01*
X190833397Y-98227471D01*
X192761452Y-96299417D01*
X192793311Y-96273271D01*
X192824720Y-96235000D01*
X192897656Y-96146126D01*
X192975192Y-96001067D01*
X193022938Y-95843669D01*
X193039060Y-95679980D01*
X193035020Y-95638962D01*
X193035020Y-83201038D01*
X193039060Y-83160019D01*
X193022938Y-82996331D01*
X192975192Y-82838933D01*
X192897656Y-82693874D01*
X192875634Y-82667040D01*
X192793311Y-82566729D01*
X192761448Y-82540580D01*
X188738807Y-78517940D01*
X188765000Y-78386260D01*
X188765000Y-78093740D01*
X188707932Y-77806842D01*
X188595990Y-77536589D01*
X188433475Y-77293368D01*
X188226632Y-77086525D01*
X187983411Y-76924010D01*
X187713158Y-76812068D01*
X187426260Y-76755000D01*
X187133740Y-76755000D01*
X186846842Y-76812068D01*
X186576589Y-76924010D01*
X186333368Y-77086525D01*
X186126525Y-77293368D01*
X185964010Y-77536589D01*
X185852068Y-77806842D01*
X185795000Y-78093740D01*
X185795000Y-78386260D01*
X185852068Y-78673158D01*
X185964010Y-78943411D01*
X186126525Y-79186632D01*
X186333368Y-79393475D01*
X186507760Y-79510000D01*
X186333368Y-79626525D01*
X186126525Y-79833368D01*
X185964010Y-80076589D01*
X185852068Y-80346842D01*
X185795000Y-80633740D01*
X185795000Y-80926260D01*
X185852068Y-81213158D01*
X185964010Y-81483411D01*
X186126525Y-81726632D01*
X186333368Y-81933475D01*
X186507760Y-82050000D01*
X186333368Y-82166525D01*
X186126525Y-82373368D01*
X185964010Y-82616589D01*
X185852068Y-82886842D01*
X185795000Y-83173740D01*
X185795000Y-83466260D01*
X185852068Y-83753158D01*
X185964010Y-84023411D01*
X186126525Y-84266632D01*
X186333368Y-84473475D01*
X186515534Y-84595195D01*
X186398645Y-84664822D01*
X186182412Y-84859731D01*
X186008359Y-85093080D01*
X185883175Y-85355901D01*
X185838524Y-85503110D01*
X185959845Y-85733000D01*
X187153000Y-85733000D01*
X187153000Y-85713000D01*
X187407000Y-85713000D01*
X187407000Y-85733000D01*
X187427000Y-85733000D01*
X187427000Y-85987000D01*
X187407000Y-85987000D01*
X187407000Y-86007000D01*
X187153000Y-86007000D01*
X187153000Y-85987000D01*
X185959845Y-85987000D01*
X185838524Y-86216890D01*
X185883175Y-86364099D01*
X186008359Y-86626920D01*
X186182412Y-86860269D01*
X186266466Y-86936034D01*
X186185820Y-86960498D01*
X186075506Y-87019463D01*
X185978815Y-87098815D01*
X185899463Y-87195506D01*
X185840498Y-87305820D01*
X185804188Y-87425518D01*
X185791928Y-87550000D01*
X185791928Y-89250000D01*
X185804188Y-89374482D01*
X185840498Y-89494180D01*
X185899463Y-89604494D01*
X185978815Y-89701185D01*
X186075506Y-89780537D01*
X186185820Y-89839502D01*
X186305518Y-89875812D01*
X186430000Y-89888072D01*
X188130000Y-89888072D01*
X188254482Y-89875812D01*
X188374180Y-89839502D01*
X188484494Y-89780537D01*
X188581185Y-89701185D01*
X188660537Y-89604494D01*
X188719502Y-89494180D01*
X188755812Y-89374482D01*
X188768072Y-89250000D01*
X188768072Y-87550000D01*
X188755812Y-87425518D01*
X188719502Y-87305820D01*
X188660537Y-87195506D01*
X188581185Y-87098815D01*
X188484494Y-87019463D01*
X188374180Y-86960498D01*
X188293534Y-86936034D01*
X188377588Y-86860269D01*
X188551641Y-86626920D01*
X188676825Y-86364099D01*
X188721476Y-86216890D01*
X188600156Y-85987002D01*
X188765000Y-85987002D01*
X188765000Y-85985868D01*
X190165001Y-87385870D01*
X190165002Y-90691928D01*
X188700000Y-90691928D01*
X188575518Y-90704188D01*
X188455820Y-90740498D01*
X188447397Y-90745000D01*
X188081018Y-90745000D01*
X188039999Y-90740960D01*
X187876311Y-90757082D01*
X187718913Y-90804828D01*
X187573854Y-90882364D01*
X187446709Y-90986709D01*
X187420559Y-91018573D01*
X185873526Y-92565607D01*
X185828586Y-92457111D01*
X185726262Y-92303972D01*
X185596028Y-92173738D01*
X185442889Y-92071414D01*
X185272729Y-92000932D01*
X185092089Y-91965000D01*
X184907911Y-91965000D01*
X184882505Y-91970054D01*
X184800000Y-91961928D01*
X183585000Y-91961928D01*
X183585000Y-91531018D01*
X183589040Y-91490000D01*
X183576354Y-91361196D01*
X183572918Y-91326311D01*
X183525172Y-91168913D01*
X183447636Y-91023854D01*
X183384631Y-90947082D01*
X183369439Y-90928570D01*
X183369437Y-90928568D01*
X183343291Y-90896709D01*
X183311433Y-90870564D01*
X182519445Y-90078578D01*
X182493291Y-90046709D01*
X182366146Y-89942364D01*
X182221087Y-89864828D01*
X182063689Y-89817082D01*
X181941019Y-89805000D01*
X181941018Y-89805000D01*
X181900000Y-89800960D01*
X181870205Y-89803895D01*
X181719608Y-89620392D01*
X181501101Y-89441068D01*
X181368142Y-89370000D01*
X181501101Y-89298932D01*
X181719608Y-89119608D01*
X181898932Y-88901101D01*
X182032182Y-88651808D01*
X182114236Y-88381309D01*
X182141943Y-88100000D01*
X182114236Y-87818691D01*
X182032182Y-87548192D01*
X181898932Y-87298899D01*
X181719608Y-87080392D01*
X181501101Y-86901068D01*
X181251808Y-86767818D01*
X181235000Y-86762719D01*
X181235000Y-83718673D01*
X185178670Y-79775003D01*
X185214354Y-79745718D01*
X185331196Y-79603346D01*
X185418017Y-79440914D01*
X185453369Y-79324374D01*
X185471482Y-79264666D01*
X185489534Y-79081374D01*
X185485010Y-79035439D01*
X185485010Y-72914558D01*
X185489534Y-72868626D01*
X185471481Y-72685334D01*
X185465278Y-72664884D01*
X185418017Y-72509086D01*
X185331196Y-72346654D01*
X185214354Y-72204282D01*
X185178669Y-72174996D01*
X182346379Y-69342706D01*
X182357911Y-69345000D01*
X182542089Y-69345000D01*
X182722729Y-69309068D01*
X182892889Y-69238586D01*
X183032806Y-69145096D01*
X183053972Y-69166262D01*
X183207111Y-69268586D01*
X183377271Y-69339068D01*
X183557911Y-69375000D01*
X183742089Y-69375000D01*
X183922729Y-69339068D01*
X184092889Y-69268586D01*
X184246028Y-69166262D01*
X184376262Y-69036028D01*
X184478586Y-68882889D01*
X184549068Y-68712729D01*
X184585000Y-68532089D01*
X184585000Y-68347911D01*
X184549068Y-68167271D01*
X184478586Y-67997111D01*
X184376262Y-67843972D01*
X184246028Y-67713738D01*
X184092889Y-67611414D01*
X183938214Y-67547346D01*
X183180589Y-66789721D01*
X207865000Y-66789721D01*
X207865000Y-67210279D01*
X207947047Y-67622756D01*
X208107988Y-68011302D01*
X208341637Y-68360983D01*
X208639017Y-68658363D01*
X208988698Y-68892012D01*
X209377244Y-69052953D01*
X209789721Y-69135000D01*
X210210279Y-69135000D01*
X210622756Y-69052953D01*
X211011302Y-68892012D01*
X211360983Y-68658363D01*
X211658363Y-68360983D01*
X211892012Y-68011302D01*
X212052953Y-67622756D01*
X212135000Y-67210279D01*
X212135000Y-66789721D01*
X212052953Y-66377244D01*
X211892012Y-65988698D01*
X211658363Y-65639017D01*
X211360983Y-65341637D01*
X211011302Y-65107988D01*
X210622756Y-64947047D01*
X210210279Y-64865000D01*
X209789721Y-64865000D01*
X209377244Y-64947047D01*
X208988698Y-65107988D01*
X208639017Y-65341637D01*
X208341637Y-65639017D01*
X208107988Y-65988698D01*
X207947047Y-66377244D01*
X207865000Y-66789721D01*
X183180589Y-66789721D01*
X182479427Y-66088560D01*
X182453272Y-66056690D01*
X182326127Y-65952345D01*
X182181068Y-65874809D01*
X182023670Y-65827063D01*
X181901000Y-65814981D01*
X181900999Y-65814981D01*
X181859981Y-65810941D01*
X181818963Y-65814981D01*
X141951037Y-65814981D01*
X141910019Y-65810941D01*
X141746330Y-65827063D01*
X141588932Y-65874809D01*
X141443873Y-65952345D01*
X141360291Y-66020939D01*
X141316728Y-66056690D01*
X141290582Y-66088549D01*
X138081787Y-69297345D01*
X137927111Y-69361414D01*
X137773972Y-69463738D01*
X137643738Y-69593972D01*
X137541414Y-69747111D01*
X137470932Y-69917271D01*
X137435000Y-70097911D01*
X137435000Y-70282089D01*
X137470932Y-70462729D01*
X137541414Y-70632889D01*
X137643738Y-70786028D01*
X137773972Y-70916262D01*
X137827285Y-70951885D01*
X133588572Y-75190598D01*
X133556708Y-75216748D01*
X133468039Y-75324792D01*
X133452363Y-75343893D01*
X133374827Y-75488952D01*
X133327081Y-75646350D01*
X133310959Y-75810038D01*
X133314999Y-75851057D01*
X133315001Y-94568971D01*
X133310960Y-94610000D01*
X133327082Y-94773688D01*
X133374828Y-94931086D01*
X133452364Y-95076145D01*
X133468914Y-95096311D01*
X133556710Y-95203291D01*
X133588573Y-95229441D01*
X133916603Y-95557471D01*
X133924188Y-95634482D01*
X133960498Y-95754180D01*
X134019463Y-95864494D01*
X134044232Y-95894675D01*
X134024792Y-95917657D01*
X133964194Y-96027082D01*
X133926109Y-96146227D01*
X133915000Y-96248250D01*
X134073750Y-96407000D01*
X135173000Y-96407000D01*
X135173000Y-96383000D01*
X135427000Y-96383000D01*
X135427000Y-96407000D01*
X136526250Y-96407000D01*
X136685000Y-96248250D01*
X136673891Y-96146227D01*
X136635806Y-96027082D01*
X136575208Y-95917657D01*
X136555768Y-95894675D01*
X136580537Y-95864494D01*
X136639502Y-95754180D01*
X136675812Y-95634482D01*
X136688072Y-95510000D01*
X136688072Y-95010000D01*
X136675812Y-94885518D01*
X136658146Y-94827281D01*
X136676002Y-94829040D01*
X136717020Y-94825000D01*
X136717021Y-94825000D01*
X136839691Y-94812918D01*
X136997089Y-94765172D01*
X137142148Y-94687636D01*
X137269293Y-94583291D01*
X137295447Y-94551422D01*
X138191433Y-93655438D01*
X138223291Y-93629293D01*
X138266813Y-93576262D01*
X138327636Y-93502148D01*
X138405172Y-93357089D01*
X138452918Y-93199691D01*
X138469040Y-93036002D01*
X138465000Y-92994984D01*
X138465000Y-92547404D01*
X138529068Y-92392729D01*
X138565000Y-92212089D01*
X138565000Y-92027911D01*
X138529068Y-91847271D01*
X138458586Y-91677111D01*
X138356262Y-91523972D01*
X138226028Y-91393738D01*
X138072889Y-91291414D01*
X137902729Y-91220932D01*
X137867036Y-91213832D01*
X139801433Y-89279436D01*
X139833291Y-89253291D01*
X139872923Y-89205000D01*
X139937636Y-89126146D01*
X140015172Y-88981087D01*
X140062918Y-88823689D01*
X140073688Y-88714344D01*
X140075000Y-88701019D01*
X140075000Y-88701018D01*
X140079040Y-88660000D01*
X140075000Y-88618982D01*
X140075000Y-88258072D01*
X140090000Y-88258072D01*
X140214482Y-88245812D01*
X140334180Y-88209502D01*
X140444494Y-88150537D01*
X140541185Y-88071185D01*
X140620537Y-87974494D01*
X140679502Y-87864180D01*
X140715812Y-87744482D01*
X140728072Y-87620000D01*
X140728072Y-85920000D01*
X140715812Y-85795518D01*
X140679502Y-85675820D01*
X140620537Y-85565506D01*
X140541185Y-85468815D01*
X140444494Y-85389463D01*
X140334180Y-85330498D01*
X140214482Y-85294188D01*
X140090000Y-85281928D01*
X138390000Y-85281928D01*
X138265518Y-85294188D01*
X138145820Y-85330498D01*
X138035506Y-85389463D01*
X137938815Y-85468815D01*
X137859463Y-85565506D01*
X137800498Y-85675820D01*
X137764188Y-85795518D01*
X137751928Y-85920000D01*
X137751928Y-87620000D01*
X137764188Y-87744482D01*
X137800498Y-87864180D01*
X137859463Y-87974494D01*
X137938815Y-88071185D01*
X138035506Y-88150537D01*
X138145820Y-88209502D01*
X138265518Y-88245812D01*
X138390000Y-88258072D01*
X138405000Y-88258072D01*
X138405000Y-88314131D01*
X136147593Y-90571540D01*
X136050000Y-90561928D01*
X134985000Y-90561928D01*
X134984998Y-76155906D01*
X140642482Y-70498422D01*
X140642482Y-70975678D01*
X140637958Y-71021610D01*
X140642482Y-71067541D01*
X140656011Y-71204901D01*
X140709475Y-71381149D01*
X140780589Y-71514195D01*
X140783227Y-71702383D01*
X140834028Y-71940293D01*
X140930267Y-72163721D01*
X141068245Y-72364082D01*
X141198956Y-72491178D01*
X141249601Y-72531567D01*
X141186448Y-72517152D01*
X141005583Y-72494200D01*
X140762908Y-72511244D01*
X140528220Y-72575304D01*
X140310540Y-72683919D01*
X140118231Y-72832914D01*
X139958686Y-73016564D01*
X139838034Y-73227811D01*
X139760913Y-73458537D01*
X139730286Y-73699875D01*
X139747330Y-73942550D01*
X139811390Y-74177238D01*
X139920005Y-74394918D01*
X140069000Y-74587227D01*
X140252650Y-74746772D01*
X140463897Y-74867424D01*
X140636809Y-74925220D01*
X140699967Y-74939636D01*
X140636809Y-74954051D01*
X140463897Y-75011845D01*
X140252648Y-75132495D01*
X140068997Y-75292038D01*
X139920000Y-75484345D01*
X139811382Y-75702024D01*
X139747320Y-75936711D01*
X139730273Y-76179386D01*
X139760897Y-76420725D01*
X139838015Y-76651451D01*
X139958665Y-76862700D01*
X140118208Y-77046351D01*
X140310515Y-77195348D01*
X140528194Y-77303966D01*
X140762881Y-77368028D01*
X141005556Y-77385075D01*
X141186421Y-77362125D01*
X141249577Y-77347710D01*
X141198931Y-77388099D01*
X141068219Y-77515194D01*
X140930239Y-77715553D01*
X140833998Y-77938980D01*
X140783195Y-78176890D01*
X140779782Y-78420139D01*
X140823891Y-78659380D01*
X140913825Y-78885420D01*
X141046130Y-79089571D01*
X141215720Y-79263987D01*
X141416079Y-79401967D01*
X141589558Y-79476693D01*
X141589559Y-83178616D01*
X141585034Y-83224558D01*
X141603087Y-83407849D01*
X141652722Y-83571471D01*
X141656552Y-83584098D01*
X141743373Y-83746530D01*
X141860215Y-83888902D01*
X141895894Y-83918183D01*
X142323736Y-84346025D01*
X142323738Y-84346028D01*
X142453972Y-84476262D01*
X142492354Y-84501908D01*
X142528028Y-84531185D01*
X142568730Y-84552940D01*
X142607111Y-84578586D01*
X142649757Y-84596251D01*
X142690459Y-84618006D01*
X142734627Y-84631404D01*
X142777271Y-84649068D01*
X142822538Y-84658072D01*
X142866707Y-84671471D01*
X142912642Y-84675995D01*
X142957911Y-84685000D01*
X143004067Y-84685000D01*
X143049999Y-84689524D01*
X143095931Y-84685000D01*
X143142089Y-84685000D01*
X143187360Y-84675995D01*
X143233291Y-84671471D01*
X143247523Y-84667154D01*
X143247524Y-98606581D01*
X143242999Y-98652523D01*
X143261052Y-98835814D01*
X143305913Y-98983699D01*
X143314517Y-99012063D01*
X143401338Y-99174495D01*
X143518180Y-99316867D01*
X143553859Y-99346148D01*
X144798785Y-100591074D01*
X144788057Y-100700000D01*
X144815764Y-100981309D01*
X144897818Y-101251808D01*
X145031068Y-101501101D01*
X145210392Y-101719608D01*
X145428899Y-101898932D01*
X145561858Y-101970000D01*
X145428899Y-102041068D01*
X145210392Y-102220392D01*
X145031068Y-102438899D01*
X144897818Y-102688192D01*
X144815764Y-102958691D01*
X144788057Y-103240000D01*
X144815764Y-103521309D01*
X144897818Y-103791808D01*
X145031068Y-104041101D01*
X145210392Y-104259608D01*
X145428899Y-104438932D01*
X145561858Y-104510000D01*
X145428899Y-104581068D01*
X145210392Y-104760392D01*
X145031068Y-104978899D01*
X144897818Y-105228192D01*
X144815764Y-105498691D01*
X144788057Y-105780000D01*
X144815764Y-106061309D01*
X144897818Y-106331808D01*
X145031068Y-106581101D01*
X145210392Y-106799608D01*
X145428899Y-106978932D01*
X145678192Y-107112182D01*
X145948691Y-107194236D01*
X146159508Y-107215000D01*
X147000492Y-107215000D01*
X147211309Y-107194236D01*
X147481808Y-107112182D01*
X147731101Y-106978932D01*
X147949608Y-106799608D01*
X148019044Y-106715000D01*
X148334068Y-106715000D01*
X148380000Y-106719524D01*
X148425932Y-106715000D01*
X148563292Y-106701471D01*
X148739540Y-106648007D01*
X148901972Y-106561186D01*
X149044344Y-106444344D01*
X149073630Y-106408659D01*
X151528674Y-103953616D01*
X151564354Y-103924334D01*
X151681196Y-103781962D01*
X151768017Y-103619530D01*
X151808738Y-103485291D01*
X151821481Y-103443283D01*
X151839534Y-103259991D01*
X151835010Y-103214059D01*
X151835010Y-81037279D01*
X153265000Y-79607289D01*
X153265001Y-84635445D01*
X153265000Y-84635453D01*
X153265001Y-86342365D01*
X153265001Y-86685559D01*
X153048899Y-86801068D01*
X152830392Y-86980392D01*
X152651068Y-87198899D01*
X152517818Y-87448192D01*
X152435764Y-87718691D01*
X152408057Y-88000000D01*
X152435764Y-88281309D01*
X152517818Y-88551808D01*
X152651068Y-88801101D01*
X152830392Y-89019608D01*
X153048899Y-89198932D01*
X153181858Y-89270000D01*
X153048899Y-89341068D01*
X152830392Y-89520392D01*
X152651068Y-89738899D01*
X152517818Y-89988192D01*
X152435764Y-90258691D01*
X152408057Y-90540000D01*
X152435764Y-90821309D01*
X152517818Y-91091808D01*
X152651068Y-91341101D01*
X152830392Y-91559608D01*
X153048899Y-91738932D01*
X153181858Y-91810000D01*
X153048899Y-91881068D01*
X152830392Y-92060392D01*
X152651068Y-92278899D01*
X152517818Y-92528192D01*
X152435764Y-92798691D01*
X152408057Y-93080000D01*
X152435764Y-93361309D01*
X152517818Y-93631808D01*
X152651068Y-93881101D01*
X152830392Y-94099608D01*
X153048899Y-94278932D01*
X153181858Y-94350000D01*
X153048899Y-94421068D01*
X152830392Y-94600392D01*
X152651068Y-94818899D01*
X152517818Y-95068192D01*
X152435764Y-95338691D01*
X152408057Y-95620000D01*
X152435764Y-95901309D01*
X152517818Y-96171808D01*
X152651068Y-96421101D01*
X152830392Y-96639608D01*
X153048899Y-96818932D01*
X153181858Y-96890000D01*
X153048899Y-96961068D01*
X152830392Y-97140392D01*
X152651068Y-97358899D01*
X152517818Y-97608192D01*
X152435764Y-97878691D01*
X152408057Y-98160000D01*
X152435764Y-98441309D01*
X152517818Y-98711808D01*
X152651068Y-98961101D01*
X152830392Y-99179608D01*
X153048899Y-99358932D01*
X153181858Y-99430000D01*
X153048899Y-99501068D01*
X152830392Y-99680392D01*
X152651068Y-99898899D01*
X152517818Y-100148192D01*
X152435764Y-100418691D01*
X152408057Y-100700000D01*
X152435764Y-100981309D01*
X152517818Y-101251808D01*
X152651068Y-101501101D01*
X152830392Y-101719608D01*
X153048899Y-101898932D01*
X153181858Y-101970000D01*
X153048899Y-102041068D01*
X152830392Y-102220392D01*
X152651068Y-102438899D01*
X152517818Y-102688192D01*
X152435764Y-102958691D01*
X152408057Y-103240000D01*
X152435764Y-103521309D01*
X152517818Y-103791808D01*
X152651068Y-104041101D01*
X152830392Y-104259608D01*
X153048899Y-104438932D01*
X153181858Y-104510000D01*
X153048899Y-104581068D01*
X152830392Y-104760392D01*
X152651068Y-104978899D01*
X152517818Y-105228192D01*
X152435764Y-105498691D01*
X152408057Y-105780000D01*
X152435764Y-106061309D01*
X152517818Y-106331808D01*
X152651068Y-106581101D01*
X152830392Y-106799608D01*
X153048899Y-106978932D01*
X153298192Y-107112182D01*
X153568691Y-107194236D01*
X153779508Y-107215000D01*
X154504133Y-107215000D01*
X154454133Y-107265000D01*
X144301494Y-107265000D01*
X142915001Y-105878508D01*
X142915001Y-102831019D01*
X142919041Y-102790001D01*
X142902919Y-102626312D01*
X142855173Y-102468914D01*
X142777637Y-102323855D01*
X142699440Y-102228571D01*
X142699438Y-102228569D01*
X142673292Y-102196710D01*
X142641433Y-102170564D01*
X139376748Y-98905881D01*
X139369068Y-98867271D01*
X139298586Y-98697111D01*
X139196262Y-98543972D01*
X139066028Y-98413738D01*
X138912889Y-98311414D01*
X138742729Y-98240932D01*
X138562089Y-98205000D01*
X138377911Y-98205000D01*
X138197271Y-98240932D01*
X138027111Y-98311414D01*
X137873972Y-98413738D01*
X137743738Y-98543972D01*
X137736168Y-98555301D01*
X136683397Y-97502530D01*
X136675812Y-97425518D01*
X136639502Y-97305820D01*
X136580537Y-97195506D01*
X136555768Y-97165325D01*
X136575208Y-97142343D01*
X136635806Y-97032918D01*
X136673891Y-96913773D01*
X136685000Y-96811750D01*
X136526250Y-96653000D01*
X135427000Y-96653000D01*
X135427000Y-96677000D01*
X135173000Y-96677000D01*
X135173000Y-96653000D01*
X134073750Y-96653000D01*
X133915000Y-96811750D01*
X133926109Y-96913773D01*
X133964194Y-97032918D01*
X134024792Y-97142343D01*
X134044232Y-97165325D01*
X134019463Y-97195506D01*
X133960498Y-97305820D01*
X133924188Y-97425518D01*
X133911928Y-97550000D01*
X133911928Y-98050000D01*
X133924188Y-98174482D01*
X133949590Y-98258221D01*
X133828913Y-98294828D01*
X133683854Y-98372364D01*
X133642409Y-98406377D01*
X133598559Y-98442364D01*
X133556709Y-98476709D01*
X133530563Y-98508568D01*
X131774133Y-100265000D01*
X131288072Y-100265000D01*
X131288072Y-100090000D01*
X131275812Y-99965518D01*
X131239502Y-99845820D01*
X131180537Y-99735506D01*
X131155501Y-99705000D01*
X131180537Y-99674494D01*
X131239502Y-99564180D01*
X131275812Y-99444482D01*
X131288072Y-99320000D01*
X131288072Y-98820000D01*
X131275812Y-98695518D01*
X131239502Y-98575820D01*
X131234859Y-98567134D01*
X131296028Y-98526262D01*
X131426262Y-98396028D01*
X131528586Y-98242889D01*
X131599068Y-98072729D01*
X131635000Y-97892089D01*
X131635000Y-97707911D01*
X131599068Y-97527271D01*
X131528586Y-97357111D01*
X131426262Y-97203972D01*
X131372290Y-97150000D01*
X131426262Y-97096028D01*
X131528586Y-96942889D01*
X131599068Y-96772729D01*
X131635000Y-96592089D01*
X131635000Y-96407911D01*
X131599068Y-96227271D01*
X131528586Y-96057111D01*
X131426262Y-95903972D01*
X131422290Y-95900000D01*
X131426262Y-95896028D01*
X131528586Y-95742889D01*
X131599068Y-95572729D01*
X131635000Y-95392089D01*
X131635000Y-95207911D01*
X131599068Y-95027271D01*
X131528586Y-94857111D01*
X131426262Y-94703972D01*
X131372290Y-94650000D01*
X131426262Y-94596028D01*
X131528586Y-94442889D01*
X131599068Y-94272729D01*
X131635000Y-94092089D01*
X131635000Y-93907911D01*
X131599068Y-93727271D01*
X131528586Y-93557111D01*
X131426262Y-93403972D01*
X131372290Y-93350000D01*
X131426262Y-93296028D01*
X131528586Y-93142889D01*
X131599068Y-92972729D01*
X131635000Y-92792089D01*
X131635000Y-92607911D01*
X131599068Y-92427271D01*
X131528586Y-92257111D01*
X131426262Y-92103972D01*
X131296028Y-91973738D01*
X131240921Y-91936917D01*
X131273891Y-91833773D01*
X131285000Y-91731750D01*
X131126250Y-91573000D01*
X130027000Y-91573000D01*
X130027000Y-91597000D01*
X129773000Y-91597000D01*
X129773000Y-91573000D01*
X128673750Y-91573000D01*
X128648809Y-91597941D01*
X128219118Y-91168250D01*
X128515000Y-91168250D01*
X128673750Y-91327000D01*
X129773000Y-91327000D01*
X129773000Y-90723750D01*
X130027000Y-90723750D01*
X130027000Y-91327000D01*
X131126250Y-91327000D01*
X131285000Y-91168250D01*
X131273891Y-91066227D01*
X131235806Y-90947082D01*
X131175208Y-90837657D01*
X131094426Y-90742156D01*
X130996566Y-90664250D01*
X130885387Y-90606933D01*
X130765162Y-90572407D01*
X130640512Y-90561999D01*
X130185750Y-90565000D01*
X130027000Y-90723750D01*
X129773000Y-90723750D01*
X129614250Y-90565000D01*
X129159488Y-90561999D01*
X129034838Y-90572407D01*
X128914613Y-90606933D01*
X128803434Y-90664250D01*
X128705574Y-90742156D01*
X128624792Y-90837657D01*
X128564194Y-90947082D01*
X128526109Y-91066227D01*
X128515000Y-91168250D01*
X128219118Y-91168250D01*
X127868534Y-90817667D01*
X127891943Y-90580000D01*
X127864236Y-90298691D01*
X127782182Y-90028192D01*
X127648932Y-89778899D01*
X127469608Y-89560392D01*
X127251101Y-89381068D01*
X127118142Y-89310000D01*
X127251101Y-89238932D01*
X127469608Y-89059608D01*
X127648932Y-88841101D01*
X127782182Y-88591808D01*
X127864236Y-88321309D01*
X127891943Y-88040000D01*
X127864236Y-87758691D01*
X127782182Y-87488192D01*
X127648932Y-87238899D01*
X127469608Y-87020392D01*
X127251101Y-86841068D01*
X127035000Y-86725560D01*
X127035000Y-83418673D01*
X130808676Y-79644998D01*
X130844354Y-79615718D01*
X130961196Y-79473346D01*
X131048017Y-79310914D01*
X131096858Y-79149907D01*
X131101481Y-79134667D01*
X131105917Y-79089623D01*
X131115010Y-78997306D01*
X131115010Y-78997300D01*
X131119533Y-78951375D01*
X131115010Y-78905450D01*
X131115010Y-73045930D01*
X131119534Y-73000000D01*
X131115008Y-72954048D01*
X131115008Y-72464559D01*
X131119532Y-72418624D01*
X131101480Y-72235332D01*
X131048015Y-72059083D01*
X131007127Y-71982587D01*
X130961194Y-71896652D01*
X130844352Y-71754280D01*
X130808668Y-71724995D01*
X126715014Y-67631341D01*
X126685728Y-67595656D01*
X126543356Y-67478814D01*
X126380924Y-67391993D01*
X126204676Y-67338529D01*
X126067316Y-67325000D01*
X126021384Y-67320476D01*
X125975452Y-67325000D01*
X119295935Y-67325000D01*
X119250000Y-67320476D01*
X119066708Y-67338528D01*
X118890459Y-67391993D01*
X118877195Y-67399083D01*
X118728028Y-67478814D01*
X118585656Y-67595656D01*
X118556370Y-67631341D01*
X116927108Y-69260603D01*
X116835656Y-69335656D01*
X116718814Y-69478028D01*
X116631993Y-69640460D01*
X116578529Y-69816708D01*
X116560476Y-70000000D01*
X116565000Y-70045932D01*
X116565000Y-70808532D01*
X116560476Y-70854464D01*
X116578529Y-71037755D01*
X116626506Y-71195913D01*
X116631994Y-71214004D01*
X116718815Y-71376436D01*
X116831132Y-71513295D01*
X116833227Y-71662719D01*
X116884028Y-71900629D01*
X116980267Y-72124057D01*
X117118245Y-72324418D01*
X117248956Y-72451514D01*
X117299601Y-72491903D01*
X117236448Y-72477488D01*
X117055583Y-72454536D01*
X116812908Y-72471580D01*
X116578220Y-72535640D01*
X116360540Y-72644255D01*
X116168231Y-72793250D01*
X116008686Y-72976900D01*
X115888034Y-73188147D01*
X115810913Y-73418873D01*
X115780286Y-73660211D01*
X115797330Y-73902886D01*
X115861390Y-74137574D01*
X115970005Y-74355254D01*
X116119000Y-74547563D01*
X116302650Y-74707108D01*
X116513897Y-74827760D01*
X116686809Y-74885556D01*
X116749967Y-74899972D01*
X116686809Y-74914387D01*
X116513897Y-74972181D01*
X116302648Y-75092831D01*
X116118997Y-75252374D01*
X115970000Y-75444681D01*
X115861382Y-75662360D01*
X115797320Y-75897047D01*
X115780273Y-76139722D01*
X115810897Y-76381061D01*
X115888015Y-76611787D01*
X116008665Y-76823036D01*
X116168208Y-77006687D01*
X116360515Y-77155684D01*
X116578194Y-77264302D01*
X116812881Y-77328364D01*
X117055556Y-77345411D01*
X117236421Y-77322461D01*
X117299577Y-77308046D01*
X117248931Y-77348435D01*
X117118219Y-77475530D01*
X116980239Y-77675889D01*
X116883998Y-77899316D01*
X116833195Y-78137226D01*
X116829782Y-78380475D01*
X116873891Y-78619716D01*
X116963825Y-78845756D01*
X117096130Y-79049907D01*
X117265720Y-79224323D01*
X117466079Y-79362303D01*
X117639558Y-79437029D01*
X117639559Y-83546779D01*
X115958289Y-85228050D01*
X115958286Y-85228052D01*
X115828052Y-85358286D01*
X115802403Y-85396672D01*
X115773129Y-85432343D01*
X115751376Y-85473040D01*
X115725728Y-85511425D01*
X115708062Y-85554076D01*
X115686308Y-85594774D01*
X115672911Y-85638937D01*
X115655246Y-85681585D01*
X115646241Y-85726857D01*
X115632843Y-85771023D01*
X115628319Y-85816954D01*
X115619314Y-85862225D01*
X115619314Y-85908382D01*
X115614790Y-85954314D01*
X115619314Y-86000246D01*
X115619314Y-86046403D01*
X115628319Y-86091674D01*
X115632843Y-86137605D01*
X115646241Y-86181771D01*
X115655246Y-86227043D01*
X115672911Y-86269691D01*
X115686308Y-86313854D01*
X115708062Y-86354552D01*
X115725728Y-86397203D01*
X115751376Y-86435588D01*
X115773129Y-86476285D01*
X115802403Y-86511955D01*
X115803153Y-86513077D01*
X115708815Y-86628028D01*
X115654855Y-86728981D01*
X115621994Y-86790460D01*
X115568529Y-86966709D01*
X115550476Y-87150000D01*
X115555001Y-87195942D01*
X115555000Y-99054068D01*
X115550476Y-99100000D01*
X115560417Y-99200932D01*
X115568529Y-99283291D01*
X115621993Y-99459539D01*
X115708814Y-99621971D01*
X115825656Y-99764344D01*
X115861341Y-99793630D01*
X116698785Y-100631075D01*
X116688057Y-100740000D01*
X116715764Y-101021309D01*
X116797818Y-101291808D01*
X116931068Y-101541101D01*
X117110392Y-101759608D01*
X117328899Y-101938932D01*
X117461858Y-102010000D01*
X117328899Y-102081068D01*
X117110392Y-102260392D01*
X116931068Y-102478899D01*
X116797818Y-102728192D01*
X116715764Y-102998691D01*
X116688057Y-103280000D01*
X116715764Y-103561309D01*
X116797818Y-103831808D01*
X116931068Y-104081101D01*
X117110392Y-104299608D01*
X117328899Y-104478932D01*
X117461858Y-104550000D01*
X117328899Y-104621068D01*
X117110392Y-104800392D01*
X116931068Y-105018899D01*
X116797818Y-105268192D01*
X116715764Y-105538691D01*
X116688057Y-105820000D01*
X116715764Y-106101309D01*
X116797818Y-106371808D01*
X116931068Y-106621101D01*
X117110392Y-106839608D01*
X117328899Y-107018932D01*
X117578192Y-107152182D01*
X117848691Y-107234236D01*
X118059508Y-107255000D01*
X118900492Y-107255000D01*
X119111309Y-107234236D01*
X119381808Y-107152182D01*
X119631101Y-107018932D01*
X119849608Y-106839608D01*
X120028932Y-106621101D01*
X120162182Y-106371808D01*
X120244236Y-106101309D01*
X120271943Y-105820000D01*
X120261215Y-105711075D01*
X123057940Y-102914350D01*
X123093618Y-102885070D01*
X123210460Y-102742698D01*
X123297281Y-102580266D01*
X123344328Y-102425172D01*
X123350745Y-102404019D01*
X123368798Y-102220727D01*
X123364274Y-102174795D01*
X123364274Y-85958015D01*
X125165001Y-84157289D01*
X125165000Y-86725559D01*
X124948899Y-86841068D01*
X124730392Y-87020392D01*
X124551068Y-87238899D01*
X124417818Y-87488192D01*
X124335764Y-87758691D01*
X124308057Y-88040000D01*
X124335764Y-88321309D01*
X124417818Y-88591808D01*
X124551068Y-88841101D01*
X124730392Y-89059608D01*
X124948899Y-89238932D01*
X125081858Y-89310000D01*
X124948899Y-89381068D01*
X124730392Y-89560392D01*
X124551068Y-89778899D01*
X124417818Y-90028192D01*
X124335764Y-90298691D01*
X124308057Y-90580000D01*
X124335764Y-90861309D01*
X124417818Y-91131808D01*
X124551068Y-91381101D01*
X124730392Y-91599608D01*
X124948899Y-91778932D01*
X125081858Y-91850000D01*
X124948899Y-91921068D01*
X124730392Y-92100392D01*
X124551068Y-92318899D01*
X124417818Y-92568192D01*
X124335764Y-92838691D01*
X124308057Y-93120000D01*
X124335764Y-93401309D01*
X124417818Y-93671808D01*
X124551068Y-93921101D01*
X124730392Y-94139608D01*
X124948899Y-94318932D01*
X125081858Y-94390000D01*
X124948899Y-94461068D01*
X124730392Y-94640392D01*
X124551068Y-94858899D01*
X124417818Y-95108192D01*
X124335764Y-95378691D01*
X124308057Y-95660000D01*
X124335764Y-95941309D01*
X124417818Y-96211808D01*
X124551068Y-96461101D01*
X124730392Y-96679608D01*
X124948899Y-96858932D01*
X125081858Y-96930000D01*
X124948899Y-97001068D01*
X124730392Y-97180392D01*
X124551068Y-97398899D01*
X124417818Y-97648192D01*
X124335764Y-97918691D01*
X124308057Y-98200000D01*
X124335764Y-98481309D01*
X124417818Y-98751808D01*
X124551068Y-99001101D01*
X124730392Y-99219608D01*
X124948899Y-99398932D01*
X125081858Y-99470000D01*
X124948899Y-99541068D01*
X124730392Y-99720392D01*
X124551068Y-99938899D01*
X124417818Y-100188192D01*
X124335764Y-100458691D01*
X124308057Y-100740000D01*
X124335764Y-101021309D01*
X124417818Y-101291808D01*
X124551068Y-101541101D01*
X124730392Y-101759608D01*
X124948899Y-101938932D01*
X125081858Y-102010000D01*
X124948899Y-102081068D01*
X124730392Y-102260392D01*
X124551068Y-102478899D01*
X124417818Y-102728192D01*
X124335764Y-102998691D01*
X124308057Y-103280000D01*
X124335764Y-103561309D01*
X124417818Y-103831808D01*
X124551068Y-104081101D01*
X124730392Y-104299608D01*
X124948899Y-104478932D01*
X125081858Y-104550000D01*
X124948899Y-104621068D01*
X124730392Y-104800392D01*
X124551068Y-105018899D01*
X124417818Y-105268192D01*
X124335764Y-105538691D01*
X124308057Y-105820000D01*
X124335764Y-106101309D01*
X124417818Y-106371808D01*
X124551068Y-106621101D01*
X124730392Y-106839608D01*
X124948899Y-107018932D01*
X125198192Y-107152182D01*
X125468691Y-107234236D01*
X125679508Y-107255000D01*
X126520492Y-107255000D01*
X126731309Y-107234236D01*
X127001808Y-107152182D01*
X127251101Y-107018932D01*
X127469608Y-106839608D01*
X127648932Y-106621101D01*
X127782182Y-106371808D01*
X127864236Y-106101309D01*
X127891943Y-105820000D01*
X127864236Y-105538691D01*
X127782182Y-105268192D01*
X127648932Y-105018899D01*
X127469608Y-104800392D01*
X127251101Y-104621068D01*
X127118142Y-104550000D01*
X127251101Y-104478932D01*
X127469608Y-104299608D01*
X127648932Y-104081101D01*
X127782182Y-103831808D01*
X127864236Y-103561309D01*
X127891943Y-103280000D01*
X127864236Y-102998691D01*
X127782182Y-102728192D01*
X127648932Y-102478899D01*
X127469608Y-102260392D01*
X127251101Y-102081068D01*
X127118142Y-102010000D01*
X127251101Y-101938932D01*
X127469608Y-101759608D01*
X127480840Y-101745922D01*
X127543854Y-101797636D01*
X127688913Y-101875172D01*
X127846311Y-101922918D01*
X127926501Y-101930816D01*
X128010000Y-101939040D01*
X128051018Y-101935000D01*
X132078982Y-101935000D01*
X132120000Y-101939040D01*
X132161018Y-101935000D01*
X132161019Y-101935000D01*
X132283689Y-101922918D01*
X132441087Y-101875172D01*
X132586146Y-101797636D01*
X132713291Y-101693291D01*
X132739446Y-101661421D01*
X133911928Y-100488940D01*
X133911928Y-100590000D01*
X133924188Y-100714482D01*
X133960498Y-100834180D01*
X134019463Y-100944494D01*
X134098815Y-101041185D01*
X134195506Y-101120537D01*
X134305820Y-101179502D01*
X134405000Y-101209588D01*
X134405000Y-101327165D01*
X134439010Y-101498145D01*
X134505723Y-101659205D01*
X134602576Y-101804155D01*
X134725845Y-101927424D01*
X134870795Y-102024277D01*
X135031855Y-102090990D01*
X135202835Y-102125000D01*
X135377165Y-102125000D01*
X135548145Y-102090990D01*
X135709205Y-102024277D01*
X135854155Y-101927424D01*
X135977424Y-101804155D01*
X136019827Y-101740695D01*
X137435000Y-103155869D01*
X137435000Y-103332089D01*
X137470932Y-103512729D01*
X137541414Y-103682889D01*
X137643738Y-103836028D01*
X137773972Y-103966262D01*
X137927111Y-104068586D01*
X138097271Y-104139068D01*
X138277911Y-104175000D01*
X138462089Y-104175000D01*
X138555000Y-104156519D01*
X138555001Y-106038972D01*
X138550960Y-106080000D01*
X138567082Y-106243688D01*
X138614828Y-106401086D01*
X138692364Y-106546145D01*
X138704707Y-106561185D01*
X138796710Y-106673291D01*
X138828574Y-106699441D01*
X142419132Y-110290000D01*
X116034721Y-110290000D01*
X115555867Y-110243048D01*
X115128647Y-110114063D01*
X114734616Y-109904554D01*
X114388786Y-109622501D01*
X114104328Y-109278651D01*
X113892073Y-108886093D01*
X113760109Y-108459788D01*
X113710000Y-107983036D01*
X113710000Y-107789721D01*
X130865000Y-107789721D01*
X130865000Y-108210279D01*
X130947047Y-108622756D01*
X131107988Y-109011302D01*
X131341637Y-109360983D01*
X131639017Y-109658363D01*
X131988698Y-109892012D01*
X132377244Y-110052953D01*
X132789721Y-110135000D01*
X133210279Y-110135000D01*
X133622756Y-110052953D01*
X134011302Y-109892012D01*
X134360983Y-109658363D01*
X134658363Y-109360983D01*
X134892012Y-109011302D01*
X135052953Y-108622756D01*
X135135000Y-108210279D01*
X135135000Y-107789721D01*
X135052953Y-107377244D01*
X134892012Y-106988698D01*
X134658363Y-106639017D01*
X134360983Y-106341637D01*
X134011302Y-106107988D01*
X133622756Y-105947047D01*
X133210279Y-105865000D01*
X132789721Y-105865000D01*
X132377244Y-105947047D01*
X131988698Y-106107988D01*
X131639017Y-106341637D01*
X131341637Y-106639017D01*
X131107988Y-106988698D01*
X130947047Y-107377244D01*
X130865000Y-107789721D01*
X113710000Y-107789721D01*
X113710000Y-67034721D01*
X113734022Y-66789721D01*
X113865000Y-66789721D01*
X113865000Y-67210279D01*
X113947047Y-67622756D01*
X114107988Y-68011302D01*
X114341637Y-68360983D01*
X114639017Y-68658363D01*
X114988698Y-68892012D01*
X115377244Y-69052953D01*
X115789721Y-69135000D01*
X116210279Y-69135000D01*
X116622756Y-69052953D01*
X117011302Y-68892012D01*
X117360983Y-68658363D01*
X117658363Y-68360983D01*
X117892012Y-68011302D01*
X118052953Y-67622756D01*
X118135000Y-67210279D01*
X118135000Y-66789721D01*
X118052953Y-66377244D01*
X117892012Y-65988698D01*
X117658363Y-65639017D01*
X117360983Y-65341637D01*
X117011302Y-65107988D01*
X116622756Y-64947047D01*
X116210279Y-64865000D01*
X115789721Y-64865000D01*
X115377244Y-64947047D01*
X114988698Y-65107988D01*
X114639017Y-65341637D01*
X114341637Y-65639017D01*
X114107988Y-65988698D01*
X113947047Y-66377244D01*
X113865000Y-66789721D01*
X113734022Y-66789721D01*
X113756953Y-66555866D01*
X113885938Y-66128645D01*
X114095446Y-65734616D01*
X114377499Y-65388786D01*
X114721351Y-65104327D01*
X115113910Y-64892071D01*
X115540213Y-64760108D01*
X116016964Y-64710000D01*
X130671025Y-64710000D01*
X130630498Y-64785820D01*
G37*
X130630498Y-64785820D02*
X130594188Y-64905518D01*
X130581928Y-65030000D01*
X130581928Y-67030000D01*
X130594188Y-67154482D01*
X130630498Y-67274180D01*
X130689463Y-67384494D01*
X130768815Y-67481185D01*
X130865506Y-67560537D01*
X130975820Y-67619502D01*
X131095518Y-67655812D01*
X131220000Y-67668072D01*
X133220000Y-67668072D01*
X133344482Y-67655812D01*
X133464180Y-67619502D01*
X133574494Y-67560537D01*
X133671185Y-67481185D01*
X133750537Y-67384494D01*
X133809502Y-67274180D01*
X133845812Y-67154482D01*
X133858072Y-67030000D01*
X133858072Y-65030000D01*
X133845812Y-64905518D01*
X133809502Y-64785820D01*
X133768975Y-64710000D01*
X209965279Y-64710000D01*
X210444134Y-64756953D01*
X210871355Y-64885938D01*
X211265384Y-65095446D01*
X211611214Y-65377499D01*
X211895673Y-65721351D01*
X212107929Y-66113910D01*
X212239892Y-66540213D01*
X212290001Y-67016974D01*
X212290000Y-94749503D01*
X212172739Y-94700932D01*
X211992099Y-94665000D01*
X211807921Y-94665000D01*
X211627281Y-94700932D01*
X211457121Y-94771414D01*
X211425000Y-94792877D01*
X211425000Y-92371018D01*
X211429040Y-92330000D01*
X211419757Y-92235750D01*
X211412918Y-92166311D01*
X211365172Y-92008913D01*
X211287636Y-91863854D01*
X211241053Y-91807092D01*
X211209439Y-91768570D01*
X211209437Y-91768568D01*
X211183291Y-91736709D01*
X211151433Y-91710564D01*
X210268534Y-90827667D01*
X210291943Y-90590000D01*
X210264236Y-90308691D01*
X210182182Y-90038192D01*
X210048932Y-89788899D01*
X209869608Y-89570392D01*
X209651101Y-89391068D01*
X209518142Y-89320000D01*
X209651101Y-89248932D01*
X209869608Y-89069608D01*
X210048932Y-88851101D01*
X210182182Y-88601808D01*
X210264236Y-88331309D01*
X210291943Y-88050000D01*
X210264236Y-87768691D01*
X210182182Y-87498192D01*
X210048932Y-87248899D01*
X209869608Y-87030392D01*
X209651101Y-86851068D01*
X209401808Y-86717818D01*
X209385000Y-86712719D01*
X209385000Y-72414547D01*
X209389524Y-72368615D01*
X209371471Y-72185323D01*
X209339075Y-72078529D01*
X209318007Y-72009076D01*
X209231186Y-71846644D01*
X209114344Y-71704272D01*
X209078664Y-71674990D01*
X204525014Y-67121341D01*
X204495728Y-67085656D01*
X204353356Y-66968814D01*
X204190924Y-66881993D01*
X204014676Y-66828529D01*
X203877316Y-66815000D01*
X203831384Y-66810476D01*
X203785452Y-66815000D01*
X197095931Y-66815000D01*
X197049999Y-66810476D01*
X196866707Y-66828529D01*
X196813243Y-66844747D01*
X196690460Y-66881993D01*
X196528028Y-66968814D01*
X196385656Y-67085656D01*
X196356374Y-67121336D01*
X194421341Y-69056370D01*
X194385656Y-69085656D01*
X194268814Y-69228029D01*
X194181993Y-69390461D01*
X194128529Y-69566708D01*
X194128529Y-69566709D01*
X194110476Y-69750000D01*
X194115000Y-69795932D01*
X194115000Y-70254068D01*
X194110476Y-70300000D01*
X194115000Y-70345932D01*
X194128529Y-70483292D01*
X194181993Y-70659540D01*
X194268815Y-70821972D01*
X194385657Y-70964344D01*
X194421336Y-70993625D01*
X195030992Y-71603281D01*
X195033227Y-71762719D01*
X195084028Y-72000629D01*
X195180267Y-72224057D01*
X195318245Y-72424418D01*
X195448956Y-72551514D01*
X195499601Y-72591903D01*
X195436448Y-72577488D01*
X195255583Y-72554536D01*
X195012908Y-72571580D01*
X194778220Y-72635640D01*
X194560540Y-72744255D01*
X194368231Y-72893250D01*
X194208686Y-73076900D01*
X194088034Y-73288147D01*
X194010913Y-73518873D01*
X193980286Y-73760211D01*
X193997330Y-74002886D01*
X194061390Y-74237574D01*
X194170005Y-74455254D01*
X194319000Y-74647563D01*
X194502650Y-74807108D01*
X194713897Y-74927760D01*
X194886809Y-74985556D01*
X194949967Y-74999972D01*
X194886809Y-75014387D01*
X194713897Y-75072181D01*
X194502648Y-75192831D01*
X194318997Y-75352374D01*
X194170000Y-75544681D01*
X194061382Y-75762360D01*
X193997320Y-75997047D01*
X193980273Y-76239722D01*
X194010897Y-76481061D01*
X194088015Y-76711787D01*
X194208665Y-76923036D01*
X194368208Y-77106687D01*
X194560515Y-77255684D01*
X194778194Y-77364302D01*
X195012881Y-77428364D01*
X195255556Y-77445411D01*
X195436421Y-77422461D01*
X195499577Y-77408046D01*
X195448931Y-77448435D01*
X195318219Y-77575530D01*
X195180239Y-77775889D01*
X195083998Y-77999316D01*
X195033195Y-78237226D01*
X195030554Y-78425441D01*
X194959446Y-78558476D01*
X194910104Y-78721135D01*
X194905982Y-78734724D01*
X194887929Y-78918015D01*
X194892453Y-78963947D01*
X194892454Y-82381511D01*
X194887929Y-82427453D01*
X194905982Y-82610744D01*
X194959447Y-82786993D01*
X195046268Y-82949425D01*
X195163110Y-83091797D01*
X195198789Y-83121078D01*
X196123736Y-84046025D01*
X196123738Y-84046028D01*
X196253972Y-84176262D01*
X196292354Y-84201908D01*
X196328028Y-84231185D01*
X196368730Y-84252940D01*
X196407111Y-84278586D01*
X196449757Y-84296251D01*
X196490459Y-84318006D01*
X196534626Y-84331404D01*
X196577271Y-84349068D01*
X196622540Y-84358073D01*
X196666708Y-84371471D01*
X196712641Y-84375995D01*
X196757911Y-84385000D01*
X196804068Y-84385000D01*
X196850000Y-84389524D01*
X196895932Y-84385000D01*
X196942089Y-84385000D01*
X196987359Y-84375995D01*
X197033292Y-84371471D01*
X197077459Y-84358073D01*
X197122729Y-84349068D01*
X197165376Y-84331403D01*
X197209540Y-84318006D01*
X197250238Y-84296252D01*
X197292889Y-84278586D01*
X197331274Y-84252938D01*
X197371971Y-84231185D01*
X197407641Y-84201911D01*
X197446028Y-84176262D01*
X197478675Y-84143615D01*
X197497523Y-84128147D01*
X197497524Y-98706581D01*
X197492999Y-98752523D01*
X197511052Y-98935814D01*
X197557498Y-99088924D01*
X197564517Y-99112063D01*
X197651338Y-99274495D01*
X197768180Y-99416867D01*
X197803859Y-99446148D01*
X198998785Y-100641075D01*
X198988057Y-100750000D01*
X199015764Y-101031309D01*
X199097818Y-101301808D01*
X199231068Y-101551101D01*
X199410392Y-101769608D01*
X199628899Y-101948932D01*
X199761858Y-102020000D01*
X199628899Y-102091068D01*
X199410392Y-102270392D01*
X199231068Y-102488899D01*
X199097818Y-102738192D01*
X199015764Y-103008691D01*
X198988057Y-103290000D01*
X199015764Y-103571309D01*
X199097818Y-103841808D01*
X199231068Y-104091101D01*
X199410392Y-104309608D01*
X199628899Y-104488932D01*
X199761858Y-104560000D01*
X199628899Y-104631068D01*
X199410392Y-104810392D01*
X199231068Y-105028899D01*
X199097818Y-105278192D01*
X199065523Y-105384655D01*
X195619445Y-101938578D01*
X195593290Y-101906708D01*
X195466145Y-101802363D01*
X195321086Y-101724827D01*
X195163688Y-101677081D01*
X195041018Y-101664999D01*
X195041017Y-101664999D01*
X194999999Y-101660959D01*
X194958981Y-101664999D01*
X194071603Y-101664999D01*
X192670680Y-100264077D01*
X192685000Y-100192089D01*
X192685000Y-100007911D01*
X192649068Y-99827271D01*
X192578586Y-99657111D01*
X192476262Y-99503972D01*
X192346028Y-99373738D01*
X192192889Y-99271414D01*
X192022729Y-99200932D01*
X191842089Y-99165000D01*
X191657911Y-99165000D01*
X191477271Y-99200932D01*
X191307111Y-99271414D01*
X191153972Y-99373738D01*
X191023738Y-99503972D01*
X190921414Y-99657111D01*
X190850932Y-99827271D01*
X190815000Y-100007911D01*
X190815000Y-100059876D01*
X190789502Y-99975820D01*
X190730537Y-99865506D01*
X190705501Y-99835000D01*
X190730537Y-99804494D01*
X190789502Y-99694180D01*
X190825812Y-99574482D01*
X190838072Y-99450000D01*
X190838072Y-98950000D01*
X190825812Y-98825518D01*
X190789502Y-98705820D01*
X190730537Y-98595506D01*
X190705501Y-98565000D01*
X190730537Y-98534494D01*
X190789502Y-98424180D01*
X190825812Y-98304482D01*
X190833397Y-98227471D01*
X192761452Y-96299417D01*
X192793311Y-96273271D01*
X192824720Y-96235000D01*
X192897656Y-96146126D01*
X192975192Y-96001067D01*
X193022938Y-95843669D01*
X193039060Y-95679980D01*
X193035020Y-95638962D01*
X193035020Y-83201038D01*
X193039060Y-83160019D01*
X193022938Y-82996331D01*
X192975192Y-82838933D01*
X192897656Y-82693874D01*
X192875634Y-82667040D01*
X192793311Y-82566729D01*
X192761448Y-82540580D01*
X188738807Y-78517940D01*
X188765000Y-78386260D01*
X188765000Y-78093740D01*
X188707932Y-77806842D01*
X188595990Y-77536589D01*
X188433475Y-77293368D01*
X188226632Y-77086525D01*
X187983411Y-76924010D01*
X187713158Y-76812068D01*
X187426260Y-76755000D01*
X187133740Y-76755000D01*
X186846842Y-76812068D01*
X186576589Y-76924010D01*
X186333368Y-77086525D01*
X186126525Y-77293368D01*
X185964010Y-77536589D01*
X185852068Y-77806842D01*
X185795000Y-78093740D01*
X185795000Y-78386260D01*
X185852068Y-78673158D01*
X185964010Y-78943411D01*
X186126525Y-79186632D01*
X186333368Y-79393475D01*
X186507760Y-79510000D01*
X186333368Y-79626525D01*
X186126525Y-79833368D01*
X185964010Y-80076589D01*
X185852068Y-80346842D01*
X185795000Y-80633740D01*
X185795000Y-80926260D01*
X185852068Y-81213158D01*
X185964010Y-81483411D01*
X186126525Y-81726632D01*
X186333368Y-81933475D01*
X186507760Y-82050000D01*
X186333368Y-82166525D01*
X186126525Y-82373368D01*
X185964010Y-82616589D01*
X185852068Y-82886842D01*
X185795000Y-83173740D01*
X185795000Y-83466260D01*
X185852068Y-83753158D01*
X185964010Y-84023411D01*
X186126525Y-84266632D01*
X186333368Y-84473475D01*
X186515534Y-84595195D01*
X186398645Y-84664822D01*
X186182412Y-84859731D01*
X186008359Y-85093080D01*
X185883175Y-85355901D01*
X185838524Y-85503110D01*
X185959845Y-85733000D01*
X187153000Y-85733000D01*
X187153000Y-85713000D01*
X187407000Y-85713000D01*
X187407000Y-85733000D01*
X187427000Y-85733000D01*
X187427000Y-85987000D01*
X187407000Y-85987000D01*
X187407000Y-86007000D01*
X187153000Y-86007000D01*
X187153000Y-85987000D01*
X185959845Y-85987000D01*
X185838524Y-86216890D01*
X185883175Y-86364099D01*
X186008359Y-86626920D01*
X186182412Y-86860269D01*
X186266466Y-86936034D01*
X186185820Y-86960498D01*
X186075506Y-87019463D01*
X185978815Y-87098815D01*
X185899463Y-87195506D01*
X185840498Y-87305820D01*
X185804188Y-87425518D01*
X185791928Y-87550000D01*
X185791928Y-89250000D01*
X185804188Y-89374482D01*
X185840498Y-89494180D01*
X185899463Y-89604494D01*
X185978815Y-89701185D01*
X186075506Y-89780537D01*
X186185820Y-89839502D01*
X186305518Y-89875812D01*
X186430000Y-89888072D01*
X188130000Y-89888072D01*
X188254482Y-89875812D01*
X188374180Y-89839502D01*
X188484494Y-89780537D01*
X188581185Y-89701185D01*
X188660537Y-89604494D01*
X188719502Y-89494180D01*
X188755812Y-89374482D01*
X188768072Y-89250000D01*
X188768072Y-87550000D01*
X188755812Y-87425518D01*
X188719502Y-87305820D01*
X188660537Y-87195506D01*
X188581185Y-87098815D01*
X188484494Y-87019463D01*
X188374180Y-86960498D01*
X188293534Y-86936034D01*
X188377588Y-86860269D01*
X188551641Y-86626920D01*
X188676825Y-86364099D01*
X188721476Y-86216890D01*
X188600156Y-85987002D01*
X188765000Y-85987002D01*
X188765000Y-85985868D01*
X190165001Y-87385870D01*
X190165002Y-90691928D01*
X188700000Y-90691928D01*
X188575518Y-90704188D01*
X188455820Y-90740498D01*
X188447397Y-90745000D01*
X188081018Y-90745000D01*
X188039999Y-90740960D01*
X187876311Y-90757082D01*
X187718913Y-90804828D01*
X187573854Y-90882364D01*
X187446709Y-90986709D01*
X187420559Y-91018573D01*
X185873526Y-92565607D01*
X185828586Y-92457111D01*
X185726262Y-92303972D01*
X185596028Y-92173738D01*
X185442889Y-92071414D01*
X185272729Y-92000932D01*
X185092089Y-91965000D01*
X184907911Y-91965000D01*
X184882505Y-91970054D01*
X184800000Y-91961928D01*
X183585000Y-91961928D01*
X183585000Y-91531018D01*
X183589040Y-91490000D01*
X183576354Y-91361196D01*
X183572918Y-91326311D01*
X183525172Y-91168913D01*
X183447636Y-91023854D01*
X183384631Y-90947082D01*
X183369439Y-90928570D01*
X183369437Y-90928568D01*
X183343291Y-90896709D01*
X183311433Y-90870564D01*
X182519445Y-90078578D01*
X182493291Y-90046709D01*
X182366146Y-89942364D01*
X182221087Y-89864828D01*
X182063689Y-89817082D01*
X181941019Y-89805000D01*
X181941018Y-89805000D01*
X181900000Y-89800960D01*
X181870205Y-89803895D01*
X181719608Y-89620392D01*
X181501101Y-89441068D01*
X181368142Y-89370000D01*
X181501101Y-89298932D01*
X181719608Y-89119608D01*
X181898932Y-88901101D01*
X182032182Y-88651808D01*
X182114236Y-88381309D01*
X182141943Y-88100000D01*
X182114236Y-87818691D01*
X182032182Y-87548192D01*
X181898932Y-87298899D01*
X181719608Y-87080392D01*
X181501101Y-86901068D01*
X181251808Y-86767818D01*
X181235000Y-86762719D01*
X181235000Y-83718673D01*
X185178670Y-79775003D01*
X185214354Y-79745718D01*
X185331196Y-79603346D01*
X185418017Y-79440914D01*
X185453369Y-79324374D01*
X185471482Y-79264666D01*
X185489534Y-79081374D01*
X185485010Y-79035439D01*
X185485010Y-72914558D01*
X185489534Y-72868626D01*
X185471481Y-72685334D01*
X185465278Y-72664884D01*
X185418017Y-72509086D01*
X185331196Y-72346654D01*
X185214354Y-72204282D01*
X185178669Y-72174996D01*
X182346379Y-69342706D01*
X182357911Y-69345000D01*
X182542089Y-69345000D01*
X182722729Y-69309068D01*
X182892889Y-69238586D01*
X183032806Y-69145096D01*
X183053972Y-69166262D01*
X183207111Y-69268586D01*
X183377271Y-69339068D01*
X183557911Y-69375000D01*
X183742089Y-69375000D01*
X183922729Y-69339068D01*
X184092889Y-69268586D01*
X184246028Y-69166262D01*
X184376262Y-69036028D01*
X184478586Y-68882889D01*
X184549068Y-68712729D01*
X184585000Y-68532089D01*
X184585000Y-68347911D01*
X184549068Y-68167271D01*
X184478586Y-67997111D01*
X184376262Y-67843972D01*
X184246028Y-67713738D01*
X184092889Y-67611414D01*
X183938214Y-67547346D01*
X183180589Y-66789721D01*
X207865000Y-66789721D01*
X207865000Y-67210279D01*
X207947047Y-67622756D01*
X208107988Y-68011302D01*
X208341637Y-68360983D01*
X208639017Y-68658363D01*
X208988698Y-68892012D01*
X209377244Y-69052953D01*
X209789721Y-69135000D01*
X210210279Y-69135000D01*
X210622756Y-69052953D01*
X211011302Y-68892012D01*
X211360983Y-68658363D01*
X211658363Y-68360983D01*
X211892012Y-68011302D01*
X212052953Y-67622756D01*
X212135000Y-67210279D01*
X212135000Y-66789721D01*
X212052953Y-66377244D01*
X211892012Y-65988698D01*
X211658363Y-65639017D01*
X211360983Y-65341637D01*
X211011302Y-65107988D01*
X210622756Y-64947047D01*
X210210279Y-64865000D01*
X209789721Y-64865000D01*
X209377244Y-64947047D01*
X208988698Y-65107988D01*
X208639017Y-65341637D01*
X208341637Y-65639017D01*
X208107988Y-65988698D01*
X207947047Y-66377244D01*
X207865000Y-66789721D01*
X183180589Y-66789721D01*
X182479427Y-66088560D01*
X182453272Y-66056690D01*
X182326127Y-65952345D01*
X182181068Y-65874809D01*
X182023670Y-65827063D01*
X181901000Y-65814981D01*
X181900999Y-65814981D01*
X181859981Y-65810941D01*
X181818963Y-65814981D01*
X141951037Y-65814981D01*
X141910019Y-65810941D01*
X141746330Y-65827063D01*
X141588932Y-65874809D01*
X141443873Y-65952345D01*
X141360291Y-66020939D01*
X141316728Y-66056690D01*
X141290582Y-66088549D01*
X138081787Y-69297345D01*
X137927111Y-69361414D01*
X137773972Y-69463738D01*
X137643738Y-69593972D01*
X137541414Y-69747111D01*
X137470932Y-69917271D01*
X137435000Y-70097911D01*
X137435000Y-70282089D01*
X137470932Y-70462729D01*
X137541414Y-70632889D01*
X137643738Y-70786028D01*
X137773972Y-70916262D01*
X137827285Y-70951885D01*
X133588572Y-75190598D01*
X133556708Y-75216748D01*
X133468039Y-75324792D01*
X133452363Y-75343893D01*
X133374827Y-75488952D01*
X133327081Y-75646350D01*
X133310959Y-75810038D01*
X133314999Y-75851057D01*
X133315001Y-94568971D01*
X133310960Y-94610000D01*
X133327082Y-94773688D01*
X133374828Y-94931086D01*
X133452364Y-95076145D01*
X133468914Y-95096311D01*
X133556710Y-95203291D01*
X133588573Y-95229441D01*
X133916603Y-95557471D01*
X133924188Y-95634482D01*
X133960498Y-95754180D01*
X134019463Y-95864494D01*
X134044232Y-95894675D01*
X134024792Y-95917657D01*
X133964194Y-96027082D01*
X133926109Y-96146227D01*
X133915000Y-96248250D01*
X134073750Y-96407000D01*
X135173000Y-96407000D01*
X135173000Y-96383000D01*
X135427000Y-96383000D01*
X135427000Y-96407000D01*
X136526250Y-96407000D01*
X136685000Y-96248250D01*
X136673891Y-96146227D01*
X136635806Y-96027082D01*
X136575208Y-95917657D01*
X136555768Y-95894675D01*
X136580537Y-95864494D01*
X136639502Y-95754180D01*
X136675812Y-95634482D01*
X136688072Y-95510000D01*
X136688072Y-95010000D01*
X136675812Y-94885518D01*
X136658146Y-94827281D01*
X136676002Y-94829040D01*
X136717020Y-94825000D01*
X136717021Y-94825000D01*
X136839691Y-94812918D01*
X136997089Y-94765172D01*
X137142148Y-94687636D01*
X137269293Y-94583291D01*
X137295447Y-94551422D01*
X138191433Y-93655438D01*
X138223291Y-93629293D01*
X138266813Y-93576262D01*
X138327636Y-93502148D01*
X138405172Y-93357089D01*
X138452918Y-93199691D01*
X138469040Y-93036002D01*
X138465000Y-92994984D01*
X138465000Y-92547404D01*
X138529068Y-92392729D01*
X138565000Y-92212089D01*
X138565000Y-92027911D01*
X138529068Y-91847271D01*
X138458586Y-91677111D01*
X138356262Y-91523972D01*
X138226028Y-91393738D01*
X138072889Y-91291414D01*
X137902729Y-91220932D01*
X137867036Y-91213832D01*
X139801433Y-89279436D01*
X139833291Y-89253291D01*
X139872923Y-89205000D01*
X139937636Y-89126146D01*
X140015172Y-88981087D01*
X140062918Y-88823689D01*
X140073688Y-88714344D01*
X140075000Y-88701019D01*
X140075000Y-88701018D01*
X140079040Y-88660000D01*
X140075000Y-88618982D01*
X140075000Y-88258072D01*
X140090000Y-88258072D01*
X140214482Y-88245812D01*
X140334180Y-88209502D01*
X140444494Y-88150537D01*
X140541185Y-88071185D01*
X140620537Y-87974494D01*
X140679502Y-87864180D01*
X140715812Y-87744482D01*
X140728072Y-87620000D01*
X140728072Y-85920000D01*
X140715812Y-85795518D01*
X140679502Y-85675820D01*
X140620537Y-85565506D01*
X140541185Y-85468815D01*
X140444494Y-85389463D01*
X140334180Y-85330498D01*
X140214482Y-85294188D01*
X140090000Y-85281928D01*
X138390000Y-85281928D01*
X138265518Y-85294188D01*
X138145820Y-85330498D01*
X138035506Y-85389463D01*
X137938815Y-85468815D01*
X137859463Y-85565506D01*
X137800498Y-85675820D01*
X137764188Y-85795518D01*
X137751928Y-85920000D01*
X137751928Y-87620000D01*
X137764188Y-87744482D01*
X137800498Y-87864180D01*
X137859463Y-87974494D01*
X137938815Y-88071185D01*
X138035506Y-88150537D01*
X138145820Y-88209502D01*
X138265518Y-88245812D01*
X138390000Y-88258072D01*
X138405000Y-88258072D01*
X138405000Y-88314131D01*
X136147593Y-90571540D01*
X136050000Y-90561928D01*
X134985000Y-90561928D01*
X134984998Y-76155906D01*
X140642482Y-70498422D01*
X140642482Y-70975678D01*
X140637958Y-71021610D01*
X140642482Y-71067541D01*
X140656011Y-71204901D01*
X140709475Y-71381149D01*
X140780589Y-71514195D01*
X140783227Y-71702383D01*
X140834028Y-71940293D01*
X140930267Y-72163721D01*
X141068245Y-72364082D01*
X141198956Y-72491178D01*
X141249601Y-72531567D01*
X141186448Y-72517152D01*
X141005583Y-72494200D01*
X140762908Y-72511244D01*
X140528220Y-72575304D01*
X140310540Y-72683919D01*
X140118231Y-72832914D01*
X139958686Y-73016564D01*
X139838034Y-73227811D01*
X139760913Y-73458537D01*
X139730286Y-73699875D01*
X139747330Y-73942550D01*
X139811390Y-74177238D01*
X139920005Y-74394918D01*
X140069000Y-74587227D01*
X140252650Y-74746772D01*
X140463897Y-74867424D01*
X140636809Y-74925220D01*
X140699967Y-74939636D01*
X140636809Y-74954051D01*
X140463897Y-75011845D01*
X140252648Y-75132495D01*
X140068997Y-75292038D01*
X139920000Y-75484345D01*
X139811382Y-75702024D01*
X139747320Y-75936711D01*
X139730273Y-76179386D01*
X139760897Y-76420725D01*
X139838015Y-76651451D01*
X139958665Y-76862700D01*
X140118208Y-77046351D01*
X140310515Y-77195348D01*
X140528194Y-77303966D01*
X140762881Y-77368028D01*
X141005556Y-77385075D01*
X141186421Y-77362125D01*
X141249577Y-77347710D01*
X141198931Y-77388099D01*
X141068219Y-77515194D01*
X140930239Y-77715553D01*
X140833998Y-77938980D01*
X140783195Y-78176890D01*
X140779782Y-78420139D01*
X140823891Y-78659380D01*
X140913825Y-78885420D01*
X141046130Y-79089571D01*
X141215720Y-79263987D01*
X141416079Y-79401967D01*
X141589558Y-79476693D01*
X141589559Y-83178616D01*
X141585034Y-83224558D01*
X141603087Y-83407849D01*
X141652722Y-83571471D01*
X141656552Y-83584098D01*
X141743373Y-83746530D01*
X141860215Y-83888902D01*
X141895894Y-83918183D01*
X142323736Y-84346025D01*
X142323738Y-84346028D01*
X142453972Y-84476262D01*
X142492354Y-84501908D01*
X142528028Y-84531185D01*
X142568730Y-84552940D01*
X142607111Y-84578586D01*
X142649757Y-84596251D01*
X142690459Y-84618006D01*
X142734627Y-84631404D01*
X142777271Y-84649068D01*
X142822538Y-84658072D01*
X142866707Y-84671471D01*
X142912642Y-84675995D01*
X142957911Y-84685000D01*
X143004067Y-84685000D01*
X143049999Y-84689524D01*
X143095931Y-84685000D01*
X143142089Y-84685000D01*
X143187360Y-84675995D01*
X143233291Y-84671471D01*
X143247523Y-84667154D01*
X143247524Y-98606581D01*
X143242999Y-98652523D01*
X143261052Y-98835814D01*
X143305913Y-98983699D01*
X143314517Y-99012063D01*
X143401338Y-99174495D01*
X143518180Y-99316867D01*
X143553859Y-99346148D01*
X144798785Y-100591074D01*
X144788057Y-100700000D01*
X144815764Y-100981309D01*
X144897818Y-101251808D01*
X145031068Y-101501101D01*
X145210392Y-101719608D01*
X145428899Y-101898932D01*
X145561858Y-101970000D01*
X145428899Y-102041068D01*
X145210392Y-102220392D01*
X145031068Y-102438899D01*
X144897818Y-102688192D01*
X144815764Y-102958691D01*
X144788057Y-103240000D01*
X144815764Y-103521309D01*
X144897818Y-103791808D01*
X145031068Y-104041101D01*
X145210392Y-104259608D01*
X145428899Y-104438932D01*
X145561858Y-104510000D01*
X145428899Y-104581068D01*
X145210392Y-104760392D01*
X145031068Y-104978899D01*
X144897818Y-105228192D01*
X144815764Y-105498691D01*
X144788057Y-105780000D01*
X144815764Y-106061309D01*
X144897818Y-106331808D01*
X145031068Y-106581101D01*
X145210392Y-106799608D01*
X145428899Y-106978932D01*
X145678192Y-107112182D01*
X145948691Y-107194236D01*
X146159508Y-107215000D01*
X147000492Y-107215000D01*
X147211309Y-107194236D01*
X147481808Y-107112182D01*
X147731101Y-106978932D01*
X147949608Y-106799608D01*
X148019044Y-106715000D01*
X148334068Y-106715000D01*
X148380000Y-106719524D01*
X148425932Y-106715000D01*
X148563292Y-106701471D01*
X148739540Y-106648007D01*
X148901972Y-106561186D01*
X149044344Y-106444344D01*
X149073630Y-106408659D01*
X151528674Y-103953616D01*
X151564354Y-103924334D01*
X151681196Y-103781962D01*
X151768017Y-103619530D01*
X151808738Y-103485291D01*
X151821481Y-103443283D01*
X151839534Y-103259991D01*
X151835010Y-103214059D01*
X151835010Y-81037279D01*
X153265000Y-79607289D01*
X153265001Y-84635445D01*
X153265000Y-84635453D01*
X153265001Y-86342365D01*
X153265001Y-86685559D01*
X153048899Y-86801068D01*
X152830392Y-86980392D01*
X152651068Y-87198899D01*
X152517818Y-87448192D01*
X152435764Y-87718691D01*
X152408057Y-88000000D01*
X152435764Y-88281309D01*
X152517818Y-88551808D01*
X152651068Y-88801101D01*
X152830392Y-89019608D01*
X153048899Y-89198932D01*
X153181858Y-89270000D01*
X153048899Y-89341068D01*
X152830392Y-89520392D01*
X152651068Y-89738899D01*
X152517818Y-89988192D01*
X152435764Y-90258691D01*
X152408057Y-90540000D01*
X152435764Y-90821309D01*
X152517818Y-91091808D01*
X152651068Y-91341101D01*
X152830392Y-91559608D01*
X153048899Y-91738932D01*
X153181858Y-91810000D01*
X153048899Y-91881068D01*
X152830392Y-92060392D01*
X152651068Y-92278899D01*
X152517818Y-92528192D01*
X152435764Y-92798691D01*
X152408057Y-93080000D01*
X152435764Y-93361309D01*
X152517818Y-93631808D01*
X152651068Y-93881101D01*
X152830392Y-94099608D01*
X153048899Y-94278932D01*
X153181858Y-94350000D01*
X153048899Y-94421068D01*
X152830392Y-94600392D01*
X152651068Y-94818899D01*
X152517818Y-95068192D01*
X152435764Y-95338691D01*
X152408057Y-95620000D01*
X152435764Y-95901309D01*
X152517818Y-96171808D01*
X152651068Y-96421101D01*
X152830392Y-96639608D01*
X153048899Y-96818932D01*
X153181858Y-96890000D01*
X153048899Y-96961068D01*
X152830392Y-97140392D01*
X152651068Y-97358899D01*
X152517818Y-97608192D01*
X152435764Y-97878691D01*
X152408057Y-98160000D01*
X152435764Y-98441309D01*
X152517818Y-98711808D01*
X152651068Y-98961101D01*
X152830392Y-99179608D01*
X153048899Y-99358932D01*
X153181858Y-99430000D01*
X153048899Y-99501068D01*
X152830392Y-99680392D01*
X152651068Y-99898899D01*
X152517818Y-100148192D01*
X152435764Y-100418691D01*
X152408057Y-100700000D01*
X152435764Y-100981309D01*
X152517818Y-101251808D01*
X152651068Y-101501101D01*
X152830392Y-101719608D01*
X153048899Y-101898932D01*
X153181858Y-101970000D01*
X153048899Y-102041068D01*
X152830392Y-102220392D01*
X152651068Y-102438899D01*
X152517818Y-102688192D01*
X152435764Y-102958691D01*
X152408057Y-103240000D01*
X152435764Y-103521309D01*
X152517818Y-103791808D01*
X152651068Y-104041101D01*
X152830392Y-104259608D01*
X153048899Y-104438932D01*
X153181858Y-104510000D01*
X153048899Y-104581068D01*
X152830392Y-104760392D01*
X152651068Y-104978899D01*
X152517818Y-105228192D01*
X152435764Y-105498691D01*
X152408057Y-105780000D01*
X152435764Y-106061309D01*
X152517818Y-106331808D01*
X152651068Y-106581101D01*
X152830392Y-106799608D01*
X153048899Y-106978932D01*
X153298192Y-107112182D01*
X153568691Y-107194236D01*
X153779508Y-107215000D01*
X154504133Y-107215000D01*
X154454133Y-107265000D01*
X144301494Y-107265000D01*
X142915001Y-105878508D01*
X142915001Y-102831019D01*
X142919041Y-102790001D01*
X142902919Y-102626312D01*
X142855173Y-102468914D01*
X142777637Y-102323855D01*
X142699440Y-102228571D01*
X142699438Y-102228569D01*
X142673292Y-102196710D01*
X142641433Y-102170564D01*
X139376748Y-98905881D01*
X139369068Y-98867271D01*
X139298586Y-98697111D01*
X139196262Y-98543972D01*
X139066028Y-98413738D01*
X138912889Y-98311414D01*
X138742729Y-98240932D01*
X138562089Y-98205000D01*
X138377911Y-98205000D01*
X138197271Y-98240932D01*
X138027111Y-98311414D01*
X137873972Y-98413738D01*
X137743738Y-98543972D01*
X137736168Y-98555301D01*
X136683397Y-97502530D01*
X136675812Y-97425518D01*
X136639502Y-97305820D01*
X136580537Y-97195506D01*
X136555768Y-97165325D01*
X136575208Y-97142343D01*
X136635806Y-97032918D01*
X136673891Y-96913773D01*
X136685000Y-96811750D01*
X136526250Y-96653000D01*
X135427000Y-96653000D01*
X135427000Y-96677000D01*
X135173000Y-96677000D01*
X135173000Y-96653000D01*
X134073750Y-96653000D01*
X133915000Y-96811750D01*
X133926109Y-96913773D01*
X133964194Y-97032918D01*
X134024792Y-97142343D01*
X134044232Y-97165325D01*
X134019463Y-97195506D01*
X133960498Y-97305820D01*
X133924188Y-97425518D01*
X133911928Y-97550000D01*
X133911928Y-98050000D01*
X133924188Y-98174482D01*
X133949590Y-98258221D01*
X133828913Y-98294828D01*
X133683854Y-98372364D01*
X133642409Y-98406377D01*
X133598559Y-98442364D01*
X133556709Y-98476709D01*
X133530563Y-98508568D01*
X131774133Y-100265000D01*
X131288072Y-100265000D01*
X131288072Y-100090000D01*
X131275812Y-99965518D01*
X131239502Y-99845820D01*
X131180537Y-99735506D01*
X131155501Y-99705000D01*
X131180537Y-99674494D01*
X131239502Y-99564180D01*
X131275812Y-99444482D01*
X131288072Y-99320000D01*
X131288072Y-98820000D01*
X131275812Y-98695518D01*
X131239502Y-98575820D01*
X131234859Y-98567134D01*
X131296028Y-98526262D01*
X131426262Y-98396028D01*
X131528586Y-98242889D01*
X131599068Y-98072729D01*
X131635000Y-97892089D01*
X131635000Y-97707911D01*
X131599068Y-97527271D01*
X131528586Y-97357111D01*
X131426262Y-97203972D01*
X131372290Y-97150000D01*
X131426262Y-97096028D01*
X131528586Y-96942889D01*
X131599068Y-96772729D01*
X131635000Y-96592089D01*
X131635000Y-96407911D01*
X131599068Y-96227271D01*
X131528586Y-96057111D01*
X131426262Y-95903972D01*
X131422290Y-95900000D01*
X131426262Y-95896028D01*
X131528586Y-95742889D01*
X131599068Y-95572729D01*
X131635000Y-95392089D01*
X131635000Y-95207911D01*
X131599068Y-95027271D01*
X131528586Y-94857111D01*
X131426262Y-94703972D01*
X131372290Y-94650000D01*
X131426262Y-94596028D01*
X131528586Y-94442889D01*
X131599068Y-94272729D01*
X131635000Y-94092089D01*
X131635000Y-93907911D01*
X131599068Y-93727271D01*
X131528586Y-93557111D01*
X131426262Y-93403972D01*
X131372290Y-93350000D01*
X131426262Y-93296028D01*
X131528586Y-93142889D01*
X131599068Y-92972729D01*
X131635000Y-92792089D01*
X131635000Y-92607911D01*
X131599068Y-92427271D01*
X131528586Y-92257111D01*
X131426262Y-92103972D01*
X131296028Y-91973738D01*
X131240921Y-91936917D01*
X131273891Y-91833773D01*
X131285000Y-91731750D01*
X131126250Y-91573000D01*
X130027000Y-91573000D01*
X130027000Y-91597000D01*
X129773000Y-91597000D01*
X129773000Y-91573000D01*
X128673750Y-91573000D01*
X128648809Y-91597941D01*
X128219118Y-91168250D01*
X128515000Y-91168250D01*
X128673750Y-91327000D01*
X129773000Y-91327000D01*
X129773000Y-90723750D01*
X130027000Y-90723750D01*
X130027000Y-91327000D01*
X131126250Y-91327000D01*
X131285000Y-91168250D01*
X131273891Y-91066227D01*
X131235806Y-90947082D01*
X131175208Y-90837657D01*
X131094426Y-90742156D01*
X130996566Y-90664250D01*
X130885387Y-90606933D01*
X130765162Y-90572407D01*
X130640512Y-90561999D01*
X130185750Y-90565000D01*
X130027000Y-90723750D01*
X129773000Y-90723750D01*
X129614250Y-90565000D01*
X129159488Y-90561999D01*
X129034838Y-90572407D01*
X128914613Y-90606933D01*
X128803434Y-90664250D01*
X128705574Y-90742156D01*
X128624792Y-90837657D01*
X128564194Y-90947082D01*
X128526109Y-91066227D01*
X128515000Y-91168250D01*
X128219118Y-91168250D01*
X127868534Y-90817667D01*
X127891943Y-90580000D01*
X127864236Y-90298691D01*
X127782182Y-90028192D01*
X127648932Y-89778899D01*
X127469608Y-89560392D01*
X127251101Y-89381068D01*
X127118142Y-89310000D01*
X127251101Y-89238932D01*
X127469608Y-89059608D01*
X127648932Y-88841101D01*
X127782182Y-88591808D01*
X127864236Y-88321309D01*
X127891943Y-88040000D01*
X127864236Y-87758691D01*
X127782182Y-87488192D01*
X127648932Y-87238899D01*
X127469608Y-87020392D01*
X127251101Y-86841068D01*
X127035000Y-86725560D01*
X127035000Y-83418673D01*
X130808676Y-79644998D01*
X130844354Y-79615718D01*
X130961196Y-79473346D01*
X131048017Y-79310914D01*
X131096858Y-79149907D01*
X131101481Y-79134667D01*
X131105917Y-79089623D01*
X131115010Y-78997306D01*
X131115010Y-78997300D01*
X131119533Y-78951375D01*
X131115010Y-78905450D01*
X131115010Y-73045930D01*
X131119534Y-73000000D01*
X131115008Y-72954048D01*
X131115008Y-72464559D01*
X131119532Y-72418624D01*
X131101480Y-72235332D01*
X131048015Y-72059083D01*
X131007127Y-71982587D01*
X130961194Y-71896652D01*
X130844352Y-71754280D01*
X130808668Y-71724995D01*
X126715014Y-67631341D01*
X126685728Y-67595656D01*
X126543356Y-67478814D01*
X126380924Y-67391993D01*
X126204676Y-67338529D01*
X126067316Y-67325000D01*
X126021384Y-67320476D01*
X125975452Y-67325000D01*
X119295935Y-67325000D01*
X119250000Y-67320476D01*
X119066708Y-67338528D01*
X118890459Y-67391993D01*
X118877195Y-67399083D01*
X118728028Y-67478814D01*
X118585656Y-67595656D01*
X118556370Y-67631341D01*
X116927108Y-69260603D01*
X116835656Y-69335656D01*
X116718814Y-69478028D01*
X116631993Y-69640460D01*
X116578529Y-69816708D01*
X116560476Y-70000000D01*
X116565000Y-70045932D01*
X116565000Y-70808532D01*
X116560476Y-70854464D01*
X116578529Y-71037755D01*
X116626506Y-71195913D01*
X116631994Y-71214004D01*
X116718815Y-71376436D01*
X116831132Y-71513295D01*
X116833227Y-71662719D01*
X116884028Y-71900629D01*
X116980267Y-72124057D01*
X117118245Y-72324418D01*
X117248956Y-72451514D01*
X117299601Y-72491903D01*
X117236448Y-72477488D01*
X117055583Y-72454536D01*
X116812908Y-72471580D01*
X116578220Y-72535640D01*
X116360540Y-72644255D01*
X116168231Y-72793250D01*
X116008686Y-72976900D01*
X115888034Y-73188147D01*
X115810913Y-73418873D01*
X115780286Y-73660211D01*
X115797330Y-73902886D01*
X115861390Y-74137574D01*
X115970005Y-74355254D01*
X116119000Y-74547563D01*
X116302650Y-74707108D01*
X116513897Y-74827760D01*
X116686809Y-74885556D01*
X116749967Y-74899972D01*
X116686809Y-74914387D01*
X116513897Y-74972181D01*
X116302648Y-75092831D01*
X116118997Y-75252374D01*
X115970000Y-75444681D01*
X115861382Y-75662360D01*
X115797320Y-75897047D01*
X115780273Y-76139722D01*
X115810897Y-76381061D01*
X115888015Y-76611787D01*
X116008665Y-76823036D01*
X116168208Y-77006687D01*
X116360515Y-77155684D01*
X116578194Y-77264302D01*
X116812881Y-77328364D01*
X117055556Y-77345411D01*
X117236421Y-77322461D01*
X117299577Y-77308046D01*
X117248931Y-77348435D01*
X117118219Y-77475530D01*
X116980239Y-77675889D01*
X116883998Y-77899316D01*
X116833195Y-78137226D01*
X116829782Y-78380475D01*
X116873891Y-78619716D01*
X116963825Y-78845756D01*
X117096130Y-79049907D01*
X117265720Y-79224323D01*
X117466079Y-79362303D01*
X117639558Y-79437029D01*
X117639559Y-83546779D01*
X115958289Y-85228050D01*
X115958286Y-85228052D01*
X115828052Y-85358286D01*
X115802403Y-85396672D01*
X115773129Y-85432343D01*
X115751376Y-85473040D01*
X115725728Y-85511425D01*
X115708062Y-85554076D01*
X115686308Y-85594774D01*
X115672911Y-85638937D01*
X115655246Y-85681585D01*
X115646241Y-85726857D01*
X115632843Y-85771023D01*
X115628319Y-85816954D01*
X115619314Y-85862225D01*
X115619314Y-85908382D01*
X115614790Y-85954314D01*
X115619314Y-86000246D01*
X115619314Y-86046403D01*
X115628319Y-86091674D01*
X115632843Y-86137605D01*
X115646241Y-86181771D01*
X115655246Y-86227043D01*
X115672911Y-86269691D01*
X115686308Y-86313854D01*
X115708062Y-86354552D01*
X115725728Y-86397203D01*
X115751376Y-86435588D01*
X115773129Y-86476285D01*
X115802403Y-86511955D01*
X115803153Y-86513077D01*
X115708815Y-86628028D01*
X115654855Y-86728981D01*
X115621994Y-86790460D01*
X115568529Y-86966709D01*
X115550476Y-87150000D01*
X115555001Y-87195942D01*
X115555000Y-99054068D01*
X115550476Y-99100000D01*
X115560417Y-99200932D01*
X115568529Y-99283291D01*
X115621993Y-99459539D01*
X115708814Y-99621971D01*
X115825656Y-99764344D01*
X115861341Y-99793630D01*
X116698785Y-100631075D01*
X116688057Y-100740000D01*
X116715764Y-101021309D01*
X116797818Y-101291808D01*
X116931068Y-101541101D01*
X117110392Y-101759608D01*
X117328899Y-101938932D01*
X117461858Y-102010000D01*
X117328899Y-102081068D01*
X117110392Y-102260392D01*
X116931068Y-102478899D01*
X116797818Y-102728192D01*
X116715764Y-102998691D01*
X116688057Y-103280000D01*
X116715764Y-103561309D01*
X116797818Y-103831808D01*
X116931068Y-104081101D01*
X117110392Y-104299608D01*
X117328899Y-104478932D01*
X117461858Y-104550000D01*
X117328899Y-104621068D01*
X117110392Y-104800392D01*
X116931068Y-105018899D01*
X116797818Y-105268192D01*
X116715764Y-105538691D01*
X116688057Y-105820000D01*
X116715764Y-106101309D01*
X116797818Y-106371808D01*
X116931068Y-106621101D01*
X117110392Y-106839608D01*
X117328899Y-107018932D01*
X117578192Y-107152182D01*
X117848691Y-107234236D01*
X118059508Y-107255000D01*
X118900492Y-107255000D01*
X119111309Y-107234236D01*
X119381808Y-107152182D01*
X119631101Y-107018932D01*
X119849608Y-106839608D01*
X120028932Y-106621101D01*
X120162182Y-106371808D01*
X120244236Y-106101309D01*
X120271943Y-105820000D01*
X120261215Y-105711075D01*
X123057940Y-102914350D01*
X123093618Y-102885070D01*
X123210460Y-102742698D01*
X123297281Y-102580266D01*
X123344328Y-102425172D01*
X123350745Y-102404019D01*
X123368798Y-102220727D01*
X123364274Y-102174795D01*
X123364274Y-85958015D01*
X125165001Y-84157289D01*
X125165000Y-86725559D01*
X124948899Y-86841068D01*
X124730392Y-87020392D01*
X124551068Y-87238899D01*
X124417818Y-87488192D01*
X124335764Y-87758691D01*
X124308057Y-88040000D01*
X124335764Y-88321309D01*
X124417818Y-88591808D01*
X124551068Y-88841101D01*
X124730392Y-89059608D01*
X124948899Y-89238932D01*
X125081858Y-89310000D01*
X124948899Y-89381068D01*
X124730392Y-89560392D01*
X124551068Y-89778899D01*
X124417818Y-90028192D01*
X124335764Y-90298691D01*
X124308057Y-90580000D01*
X124335764Y-90861309D01*
X124417818Y-91131808D01*
X124551068Y-91381101D01*
X124730392Y-91599608D01*
X124948899Y-91778932D01*
X125081858Y-91850000D01*
X124948899Y-91921068D01*
X124730392Y-92100392D01*
X124551068Y-92318899D01*
X124417818Y-92568192D01*
X124335764Y-92838691D01*
X124308057Y-93120000D01*
X124335764Y-93401309D01*
X124417818Y-93671808D01*
X124551068Y-93921101D01*
X124730392Y-94139608D01*
X124948899Y-94318932D01*
X125081858Y-94390000D01*
X124948899Y-94461068D01*
X124730392Y-94640392D01*
X124551068Y-94858899D01*
X124417818Y-95108192D01*
X124335764Y-95378691D01*
X124308057Y-95660000D01*
X124335764Y-95941309D01*
X124417818Y-96211808D01*
X124551068Y-96461101D01*
X124730392Y-96679608D01*
X124948899Y-96858932D01*
X125081858Y-96930000D01*
X124948899Y-97001068D01*
X124730392Y-97180392D01*
X124551068Y-97398899D01*
X124417818Y-97648192D01*
X124335764Y-97918691D01*
X124308057Y-98200000D01*
X124335764Y-98481309D01*
X124417818Y-98751808D01*
X124551068Y-99001101D01*
X124730392Y-99219608D01*
X124948899Y-99398932D01*
X125081858Y-99470000D01*
X124948899Y-99541068D01*
X124730392Y-99720392D01*
X124551068Y-99938899D01*
X124417818Y-100188192D01*
X124335764Y-100458691D01*
X124308057Y-100740000D01*
X124335764Y-101021309D01*
X124417818Y-101291808D01*
X124551068Y-101541101D01*
X124730392Y-101759608D01*
X124948899Y-101938932D01*
X125081858Y-102010000D01*
X124948899Y-102081068D01*
X124730392Y-102260392D01*
X124551068Y-102478899D01*
X124417818Y-102728192D01*
X124335764Y-102998691D01*
X124308057Y-103280000D01*
X124335764Y-103561309D01*
X124417818Y-103831808D01*
X124551068Y-104081101D01*
X124730392Y-104299608D01*
X124948899Y-104478932D01*
X125081858Y-104550000D01*
X124948899Y-104621068D01*
X124730392Y-104800392D01*
X124551068Y-105018899D01*
X124417818Y-105268192D01*
X124335764Y-105538691D01*
X124308057Y-105820000D01*
X124335764Y-106101309D01*
X124417818Y-106371808D01*
X124551068Y-106621101D01*
X124730392Y-106839608D01*
X124948899Y-107018932D01*
X125198192Y-107152182D01*
X125468691Y-107234236D01*
X125679508Y-107255000D01*
X126520492Y-107255000D01*
X126731309Y-107234236D01*
X127001808Y-107152182D01*
X127251101Y-107018932D01*
X127469608Y-106839608D01*
X127648932Y-106621101D01*
X127782182Y-106371808D01*
X127864236Y-106101309D01*
X127891943Y-105820000D01*
X127864236Y-105538691D01*
X127782182Y-105268192D01*
X127648932Y-105018899D01*
X127469608Y-104800392D01*
X127251101Y-104621068D01*
X127118142Y-104550000D01*
X127251101Y-104478932D01*
X127469608Y-104299608D01*
X127648932Y-104081101D01*
X127782182Y-103831808D01*
X127864236Y-103561309D01*
X127891943Y-103280000D01*
X127864236Y-102998691D01*
X127782182Y-102728192D01*
X127648932Y-102478899D01*
X127469608Y-102260392D01*
X127251101Y-102081068D01*
X127118142Y-102010000D01*
X127251101Y-101938932D01*
X127469608Y-101759608D01*
X127480840Y-101745922D01*
X127543854Y-101797636D01*
X127688913Y-101875172D01*
X127846311Y-101922918D01*
X127926501Y-101930816D01*
X128010000Y-101939040D01*
X128051018Y-101935000D01*
X132078982Y-101935000D01*
X132120000Y-101939040D01*
X132161018Y-101935000D01*
X132161019Y-101935000D01*
X132283689Y-101922918D01*
X132441087Y-101875172D01*
X132586146Y-101797636D01*
X132713291Y-101693291D01*
X132739446Y-101661421D01*
X133911928Y-100488940D01*
X133911928Y-100590000D01*
X133924188Y-100714482D01*
X133960498Y-100834180D01*
X134019463Y-100944494D01*
X134098815Y-101041185D01*
X134195506Y-101120537D01*
X134305820Y-101179502D01*
X134405000Y-101209588D01*
X134405000Y-101327165D01*
X134439010Y-101498145D01*
X134505723Y-101659205D01*
X134602576Y-101804155D01*
X134725845Y-101927424D01*
X134870795Y-102024277D01*
X135031855Y-102090990D01*
X135202835Y-102125000D01*
X135377165Y-102125000D01*
X135548145Y-102090990D01*
X135709205Y-102024277D01*
X135854155Y-101927424D01*
X135977424Y-101804155D01*
X136019827Y-101740695D01*
X137435000Y-103155869D01*
X137435000Y-103332089D01*
X137470932Y-103512729D01*
X137541414Y-103682889D01*
X137643738Y-103836028D01*
X137773972Y-103966262D01*
X137927111Y-104068586D01*
X138097271Y-104139068D01*
X138277911Y-104175000D01*
X138462089Y-104175000D01*
X138555000Y-104156519D01*
X138555001Y-106038972D01*
X138550960Y-106080000D01*
X138567082Y-106243688D01*
X138614828Y-106401086D01*
X138692364Y-106546145D01*
X138704707Y-106561185D01*
X138796710Y-106673291D01*
X138828574Y-106699441D01*
X142419132Y-110290000D01*
X116034721Y-110290000D01*
X115555867Y-110243048D01*
X115128647Y-110114063D01*
X114734616Y-109904554D01*
X114388786Y-109622501D01*
X114104328Y-109278651D01*
X113892073Y-108886093D01*
X113760109Y-108459788D01*
X113710000Y-107983036D01*
X113710000Y-107789721D01*
X130865000Y-107789721D01*
X130865000Y-108210279D01*
X130947047Y-108622756D01*
X131107988Y-109011302D01*
X131341637Y-109360983D01*
X131639017Y-109658363D01*
X131988698Y-109892012D01*
X132377244Y-110052953D01*
X132789721Y-110135000D01*
X133210279Y-110135000D01*
X133622756Y-110052953D01*
X134011302Y-109892012D01*
X134360983Y-109658363D01*
X134658363Y-109360983D01*
X134892012Y-109011302D01*
X135052953Y-108622756D01*
X135135000Y-108210279D01*
X135135000Y-107789721D01*
X135052953Y-107377244D01*
X134892012Y-106988698D01*
X134658363Y-106639017D01*
X134360983Y-106341637D01*
X134011302Y-106107988D01*
X133622756Y-105947047D01*
X133210279Y-105865000D01*
X132789721Y-105865000D01*
X132377244Y-105947047D01*
X131988698Y-106107988D01*
X131639017Y-106341637D01*
X131341637Y-106639017D01*
X131107988Y-106988698D01*
X130947047Y-107377244D01*
X130865000Y-107789721D01*
X113710000Y-107789721D01*
X113710000Y-67034721D01*
X113734022Y-66789721D01*
X113865000Y-66789721D01*
X113865000Y-67210279D01*
X113947047Y-67622756D01*
X114107988Y-68011302D01*
X114341637Y-68360983D01*
X114639017Y-68658363D01*
X114988698Y-68892012D01*
X115377244Y-69052953D01*
X115789721Y-69135000D01*
X116210279Y-69135000D01*
X116622756Y-69052953D01*
X117011302Y-68892012D01*
X117360983Y-68658363D01*
X117658363Y-68360983D01*
X117892012Y-68011302D01*
X118052953Y-67622756D01*
X118135000Y-67210279D01*
X118135000Y-66789721D01*
X118052953Y-66377244D01*
X117892012Y-65988698D01*
X117658363Y-65639017D01*
X117360983Y-65341637D01*
X117011302Y-65107988D01*
X116622756Y-64947047D01*
X116210279Y-64865000D01*
X115789721Y-64865000D01*
X115377244Y-64947047D01*
X114988698Y-65107988D01*
X114639017Y-65341637D01*
X114341637Y-65639017D01*
X114107988Y-65988698D01*
X113947047Y-66377244D01*
X113865000Y-66789721D01*
X113734022Y-66789721D01*
X113756953Y-66555866D01*
X113885938Y-66128645D01*
X114095446Y-65734616D01*
X114377499Y-65388786D01*
X114721351Y-65104327D01*
X115113910Y-64892071D01*
X115540213Y-64760108D01*
X116016964Y-64710000D01*
X130671025Y-64710000D01*
X130630498Y-64785820D01*
G36*
X204165000Y-102972710D02*
G01*
X202284636Y-104853074D01*
X202249608Y-104810392D01*
X202031101Y-104631068D01*
X201898142Y-104560000D01*
X202031101Y-104488932D01*
X202249608Y-104309608D01*
X202428932Y-104091101D01*
X202562182Y-103841808D01*
X202644236Y-103571309D01*
X202671943Y-103290000D01*
X202644236Y-103008691D01*
X202562182Y-102738192D01*
X202428932Y-102488899D01*
X202249608Y-102270392D01*
X202031101Y-102091068D01*
X201898142Y-102020000D01*
X202031101Y-101948932D01*
X202249608Y-101769608D01*
X202428932Y-101551101D01*
X202562182Y-101301808D01*
X202644236Y-101031309D01*
X202671943Y-100750000D01*
X202644236Y-100468691D01*
X202562182Y-100198192D01*
X202428932Y-99948899D01*
X202249608Y-99730392D01*
X202031101Y-99551068D01*
X201898142Y-99480000D01*
X202031101Y-99408932D01*
X202249608Y-99229608D01*
X202428932Y-99011101D01*
X202562182Y-98761808D01*
X202644236Y-98491309D01*
X202671943Y-98210000D01*
X202644236Y-97928691D01*
X202562182Y-97658192D01*
X202428932Y-97408899D01*
X202249608Y-97190392D01*
X202031101Y-97011068D01*
X201781808Y-96877818D01*
X201511309Y-96795764D01*
X201300492Y-96775000D01*
X200359508Y-96775000D01*
X200148691Y-96795764D01*
X199878192Y-96877818D01*
X199628899Y-97011068D01*
X199410392Y-97190392D01*
X199367523Y-97242628D01*
X199367523Y-94097372D01*
X199410392Y-94149608D01*
X199628899Y-94328932D01*
X199878192Y-94462182D01*
X200148691Y-94544236D01*
X200359508Y-94565000D01*
X201300492Y-94565000D01*
X201511309Y-94544236D01*
X201781808Y-94462182D01*
X202031101Y-94328932D01*
X202249608Y-94149608D01*
X202428932Y-93931101D01*
X202562182Y-93681808D01*
X202644236Y-93411309D01*
X202671943Y-93130000D01*
X202644236Y-92848691D01*
X202562182Y-92578192D01*
X202428932Y-92328899D01*
X202249608Y-92110392D01*
X202031101Y-91931068D01*
X201898142Y-91860000D01*
X202031101Y-91788932D01*
X202249608Y-91609608D01*
X202319044Y-91525000D01*
X202584068Y-91525000D01*
X202630000Y-91529524D01*
X202675932Y-91525000D01*
X202813292Y-91511471D01*
X202989540Y-91458007D01*
X203151972Y-91371186D01*
X203294344Y-91254344D01*
X203323630Y-91218659D01*
X204096637Y-90445653D01*
X204132316Y-90416372D01*
X204165001Y-90376546D01*
X204165000Y-102972710D01*
G37*
X204165000Y-102972710D02*
X202284636Y-104853074D01*
X202249608Y-104810392D01*
X202031101Y-104631068D01*
X201898142Y-104560000D01*
X202031101Y-104488932D01*
X202249608Y-104309608D01*
X202428932Y-104091101D01*
X202562182Y-103841808D01*
X202644236Y-103571309D01*
X202671943Y-103290000D01*
X202644236Y-103008691D01*
X202562182Y-102738192D01*
X202428932Y-102488899D01*
X202249608Y-102270392D01*
X202031101Y-102091068D01*
X201898142Y-102020000D01*
X202031101Y-101948932D01*
X202249608Y-101769608D01*
X202428932Y-101551101D01*
X202562182Y-101301808D01*
X202644236Y-101031309D01*
X202671943Y-100750000D01*
X202644236Y-100468691D01*
X202562182Y-100198192D01*
X202428932Y-99948899D01*
X202249608Y-99730392D01*
X202031101Y-99551068D01*
X201898142Y-99480000D01*
X202031101Y-99408932D01*
X202249608Y-99229608D01*
X202428932Y-99011101D01*
X202562182Y-98761808D01*
X202644236Y-98491309D01*
X202671943Y-98210000D01*
X202644236Y-97928691D01*
X202562182Y-97658192D01*
X202428932Y-97408899D01*
X202249608Y-97190392D01*
X202031101Y-97011068D01*
X201781808Y-96877818D01*
X201511309Y-96795764D01*
X201300492Y-96775000D01*
X200359508Y-96775000D01*
X200148691Y-96795764D01*
X199878192Y-96877818D01*
X199628899Y-97011068D01*
X199410392Y-97190392D01*
X199367523Y-97242628D01*
X199367523Y-94097372D01*
X199410392Y-94149608D01*
X199628899Y-94328932D01*
X199878192Y-94462182D01*
X200148691Y-94544236D01*
X200359508Y-94565000D01*
X201300492Y-94565000D01*
X201511309Y-94544236D01*
X201781808Y-94462182D01*
X202031101Y-94328932D01*
X202249608Y-94149608D01*
X202428932Y-93931101D01*
X202562182Y-93681808D01*
X202644236Y-93411309D01*
X202671943Y-93130000D01*
X202644236Y-92848691D01*
X202562182Y-92578192D01*
X202428932Y-92328899D01*
X202249608Y-92110392D01*
X202031101Y-91931068D01*
X201898142Y-91860000D01*
X202031101Y-91788932D01*
X202249608Y-91609608D01*
X202319044Y-91525000D01*
X202584068Y-91525000D01*
X202630000Y-91529524D01*
X202675932Y-91525000D01*
X202813292Y-91511471D01*
X202989540Y-91458007D01*
X203151972Y-91371186D01*
X203294344Y-91254344D01*
X203323630Y-91218659D01*
X204096637Y-90445653D01*
X204132316Y-90416372D01*
X204165001Y-90376546D01*
X204165000Y-102972710D01*
G36*
X149965011Y-102872699D02*
G01*
X148007174Y-104830537D01*
X147949608Y-104760392D01*
X147731101Y-104581068D01*
X147598142Y-104510000D01*
X147731101Y-104438932D01*
X147949608Y-104259608D01*
X148128932Y-104041101D01*
X148262182Y-103791808D01*
X148344236Y-103521309D01*
X148371943Y-103240000D01*
X148344236Y-102958691D01*
X148262182Y-102688192D01*
X148128932Y-102438899D01*
X147949608Y-102220392D01*
X147731101Y-102041068D01*
X147598142Y-101970000D01*
X147731101Y-101898932D01*
X147949608Y-101719608D01*
X148128932Y-101501101D01*
X148262182Y-101251808D01*
X148344236Y-100981309D01*
X148371943Y-100700000D01*
X148344236Y-100418691D01*
X148262182Y-100148192D01*
X148128932Y-99898899D01*
X147949608Y-99680392D01*
X147731101Y-99501068D01*
X147598142Y-99430000D01*
X147731101Y-99358932D01*
X147949608Y-99179608D01*
X148128932Y-98961101D01*
X148262182Y-98711808D01*
X148344236Y-98441309D01*
X148371943Y-98160000D01*
X148344236Y-97878691D01*
X148262182Y-97608192D01*
X148128932Y-97358899D01*
X147949608Y-97140392D01*
X147731101Y-96961068D01*
X147481808Y-96827818D01*
X147211309Y-96745764D01*
X147000492Y-96725000D01*
X146159508Y-96725000D01*
X145948691Y-96745764D01*
X145678192Y-96827818D01*
X145428899Y-96961068D01*
X145210392Y-97140392D01*
X145117523Y-97253553D01*
X145117523Y-93986447D01*
X145210392Y-94099608D01*
X145428899Y-94278932D01*
X145678192Y-94412182D01*
X145948691Y-94494236D01*
X146159508Y-94515000D01*
X147000492Y-94515000D01*
X147211309Y-94494236D01*
X147481808Y-94412182D01*
X147731101Y-94278932D01*
X147949608Y-94099608D01*
X148128932Y-93881101D01*
X148262182Y-93631808D01*
X148344236Y-93361309D01*
X148371943Y-93080000D01*
X148344236Y-92798691D01*
X148262182Y-92528192D01*
X148128932Y-92278899D01*
X147949608Y-92060392D01*
X147731101Y-91881068D01*
X147598142Y-91810000D01*
X147731101Y-91738932D01*
X147949608Y-91559608D01*
X148019044Y-91475000D01*
X148284068Y-91475000D01*
X148330000Y-91479524D01*
X148375932Y-91475000D01*
X148513292Y-91461471D01*
X148689540Y-91408007D01*
X148851972Y-91321186D01*
X148994344Y-91204344D01*
X149023630Y-91168659D01*
X149965010Y-90227279D01*
X149965011Y-102872699D01*
G37*
X149965011Y-102872699D02*
X148007174Y-104830537D01*
X147949608Y-104760392D01*
X147731101Y-104581068D01*
X147598142Y-104510000D01*
X147731101Y-104438932D01*
X147949608Y-104259608D01*
X148128932Y-104041101D01*
X148262182Y-103791808D01*
X148344236Y-103521309D01*
X148371943Y-103240000D01*
X148344236Y-102958691D01*
X148262182Y-102688192D01*
X148128932Y-102438899D01*
X147949608Y-102220392D01*
X147731101Y-102041068D01*
X147598142Y-101970000D01*
X147731101Y-101898932D01*
X147949608Y-101719608D01*
X148128932Y-101501101D01*
X148262182Y-101251808D01*
X148344236Y-100981309D01*
X148371943Y-100700000D01*
X148344236Y-100418691D01*
X148262182Y-100148192D01*
X148128932Y-99898899D01*
X147949608Y-99680392D01*
X147731101Y-99501068D01*
X147598142Y-99430000D01*
X147731101Y-99358932D01*
X147949608Y-99179608D01*
X148128932Y-98961101D01*
X148262182Y-98711808D01*
X148344236Y-98441309D01*
X148371943Y-98160000D01*
X148344236Y-97878691D01*
X148262182Y-97608192D01*
X148128932Y-97358899D01*
X147949608Y-97140392D01*
X147731101Y-96961068D01*
X147481808Y-96827818D01*
X147211309Y-96745764D01*
X147000492Y-96725000D01*
X146159508Y-96725000D01*
X145948691Y-96745764D01*
X145678192Y-96827818D01*
X145428899Y-96961068D01*
X145210392Y-97140392D01*
X145117523Y-97253553D01*
X145117523Y-93986447D01*
X145210392Y-94099608D01*
X145428899Y-94278932D01*
X145678192Y-94412182D01*
X145948691Y-94494236D01*
X146159508Y-94515000D01*
X147000492Y-94515000D01*
X147211309Y-94494236D01*
X147481808Y-94412182D01*
X147731101Y-94278932D01*
X147949608Y-94099608D01*
X148128932Y-93881101D01*
X148262182Y-93631808D01*
X148344236Y-93361309D01*
X148371943Y-93080000D01*
X148344236Y-92798691D01*
X148262182Y-92528192D01*
X148128932Y-92278899D01*
X147949608Y-92060392D01*
X147731101Y-91881068D01*
X147598142Y-91810000D01*
X147731101Y-91738932D01*
X147949608Y-91559608D01*
X148019044Y-91475000D01*
X148284068Y-91475000D01*
X148330000Y-91479524D01*
X148375932Y-91475000D01*
X148513292Y-91461471D01*
X148689540Y-91408007D01*
X148851972Y-91321186D01*
X148994344Y-91204344D01*
X149023630Y-91168659D01*
X149965010Y-90227279D01*
X149965011Y-102872699D01*
G36*
X174965000Y-102672710D02*
G01*
X174501838Y-103135872D01*
X174494236Y-103058691D01*
X174412182Y-102788192D01*
X174278932Y-102538899D01*
X174099608Y-102320392D01*
X173881101Y-102141068D01*
X173748142Y-102070000D01*
X173881101Y-101998932D01*
X174099608Y-101819608D01*
X174278932Y-101601101D01*
X174412182Y-101351808D01*
X174494236Y-101081309D01*
X174521943Y-100800000D01*
X174494236Y-100518691D01*
X174412182Y-100248192D01*
X174278932Y-99998899D01*
X174099608Y-99780392D01*
X173881101Y-99601068D01*
X173748142Y-99530000D01*
X173881101Y-99458932D01*
X174099608Y-99279608D01*
X174278932Y-99061101D01*
X174412182Y-98811808D01*
X174494236Y-98541309D01*
X174521943Y-98260000D01*
X174494236Y-97978691D01*
X174412182Y-97708192D01*
X174278932Y-97458899D01*
X174099608Y-97240392D01*
X173881101Y-97061068D01*
X173631808Y-96927818D01*
X173361309Y-96845764D01*
X173150492Y-96825000D01*
X172209508Y-96825000D01*
X171998691Y-96845764D01*
X171728192Y-96927818D01*
X171535000Y-97031081D01*
X171535000Y-94408919D01*
X171728192Y-94512182D01*
X171998691Y-94594236D01*
X172209508Y-94615000D01*
X173150492Y-94615000D01*
X173361309Y-94594236D01*
X173631808Y-94512182D01*
X173881101Y-94378932D01*
X174099608Y-94199608D01*
X174169044Y-94115000D01*
X174434068Y-94115000D01*
X174480000Y-94119524D01*
X174525932Y-94115000D01*
X174663292Y-94101471D01*
X174839540Y-94048007D01*
X174965001Y-93980947D01*
X174965000Y-102672710D01*
G37*
X174965000Y-102672710D02*
X174501838Y-103135872D01*
X174494236Y-103058691D01*
X174412182Y-102788192D01*
X174278932Y-102538899D01*
X174099608Y-102320392D01*
X173881101Y-102141068D01*
X173748142Y-102070000D01*
X173881101Y-101998932D01*
X174099608Y-101819608D01*
X174278932Y-101601101D01*
X174412182Y-101351808D01*
X174494236Y-101081309D01*
X174521943Y-100800000D01*
X174494236Y-100518691D01*
X174412182Y-100248192D01*
X174278932Y-99998899D01*
X174099608Y-99780392D01*
X173881101Y-99601068D01*
X173748142Y-99530000D01*
X173881101Y-99458932D01*
X174099608Y-99279608D01*
X174278932Y-99061101D01*
X174412182Y-98811808D01*
X174494236Y-98541309D01*
X174521943Y-98260000D01*
X174494236Y-97978691D01*
X174412182Y-97708192D01*
X174278932Y-97458899D01*
X174099608Y-97240392D01*
X173881101Y-97061068D01*
X173631808Y-96927818D01*
X173361309Y-96845764D01*
X173150492Y-96825000D01*
X172209508Y-96825000D01*
X171998691Y-96845764D01*
X171728192Y-96927818D01*
X171535000Y-97031081D01*
X171535000Y-94408919D01*
X171728192Y-94512182D01*
X171998691Y-94594236D01*
X172209508Y-94615000D01*
X173150492Y-94615000D01*
X173361309Y-94594236D01*
X173631808Y-94512182D01*
X173881101Y-94378932D01*
X174099608Y-94199608D01*
X174169044Y-94115000D01*
X174434068Y-94115000D01*
X174480000Y-94119524D01*
X174525932Y-94115000D01*
X174663292Y-94101471D01*
X174839540Y-94048007D01*
X174965001Y-93980947D01*
X174965000Y-102672710D01*
G36*
X121494274Y-101833436D02*
G01*
X120251838Y-103075873D01*
X120244236Y-102998691D01*
X120162182Y-102728192D01*
X120028932Y-102478899D01*
X119849608Y-102260392D01*
X119631101Y-102081068D01*
X119498142Y-102010000D01*
X119631101Y-101938932D01*
X119849608Y-101759608D01*
X120028932Y-101541101D01*
X120162182Y-101291808D01*
X120244236Y-101021309D01*
X120271943Y-100740000D01*
X120244236Y-100458691D01*
X120162182Y-100188192D01*
X120028932Y-99938899D01*
X119849608Y-99720392D01*
X119631101Y-99541068D01*
X119498142Y-99470000D01*
X119631101Y-99398932D01*
X119849608Y-99219608D01*
X120028932Y-99001101D01*
X120162182Y-98751808D01*
X120244236Y-98481309D01*
X120271943Y-98200000D01*
X120244236Y-97918691D01*
X120162182Y-97648192D01*
X120028932Y-97398899D01*
X119849608Y-97180392D01*
X119631101Y-97001068D01*
X119381808Y-96867818D01*
X119111309Y-96785764D01*
X118900492Y-96765000D01*
X118059508Y-96765000D01*
X117848691Y-96785764D01*
X117578192Y-96867818D01*
X117425000Y-96949701D01*
X117425000Y-94370299D01*
X117578192Y-94452182D01*
X117848691Y-94534236D01*
X118059508Y-94555000D01*
X118900492Y-94555000D01*
X119111309Y-94534236D01*
X119381808Y-94452182D01*
X119631101Y-94318932D01*
X119849608Y-94139608D01*
X119919044Y-94055000D01*
X120184068Y-94055000D01*
X120230000Y-94059524D01*
X120275932Y-94055000D01*
X120413292Y-94041471D01*
X120589540Y-93988007D01*
X120751972Y-93901186D01*
X120894344Y-93784344D01*
X120923630Y-93748659D01*
X121494275Y-93178015D01*
X121494274Y-101833436D01*
G37*
X121494274Y-101833436D02*
X120251838Y-103075873D01*
X120244236Y-102998691D01*
X120162182Y-102728192D01*
X120028932Y-102478899D01*
X119849608Y-102260392D01*
X119631101Y-102081068D01*
X119498142Y-102010000D01*
X119631101Y-101938932D01*
X119849608Y-101759608D01*
X120028932Y-101541101D01*
X120162182Y-101291808D01*
X120244236Y-101021309D01*
X120271943Y-100740000D01*
X120244236Y-100458691D01*
X120162182Y-100188192D01*
X120028932Y-99938899D01*
X119849608Y-99720392D01*
X119631101Y-99541068D01*
X119498142Y-99470000D01*
X119631101Y-99398932D01*
X119849608Y-99219608D01*
X120028932Y-99001101D01*
X120162182Y-98751808D01*
X120244236Y-98481309D01*
X120271943Y-98200000D01*
X120244236Y-97918691D01*
X120162182Y-97648192D01*
X120028932Y-97398899D01*
X119849608Y-97180392D01*
X119631101Y-97001068D01*
X119381808Y-96867818D01*
X119111309Y-96785764D01*
X118900492Y-96765000D01*
X118059508Y-96765000D01*
X117848691Y-96785764D01*
X117578192Y-96867818D01*
X117425000Y-96949701D01*
X117425000Y-94370299D01*
X117578192Y-94452182D01*
X117848691Y-94534236D01*
X118059508Y-94555000D01*
X118900492Y-94555000D01*
X119111309Y-94534236D01*
X119381808Y-94452182D01*
X119631101Y-94318932D01*
X119849608Y-94139608D01*
X119919044Y-94055000D01*
X120184068Y-94055000D01*
X120230000Y-94059524D01*
X120275932Y-94055000D01*
X120413292Y-94041471D01*
X120589540Y-93988007D01*
X120751972Y-93901186D01*
X120894344Y-93784344D01*
X120923630Y-93748659D01*
X121494275Y-93178015D01*
X121494274Y-101833436D01*
G36*
X188061928Y-93100000D02*
G01*
X188074188Y-93224482D01*
X188110498Y-93344180D01*
X188169463Y-93454494D01*
X188194499Y-93485000D01*
X188169463Y-93515506D01*
X188110498Y-93625820D01*
X188074188Y-93745518D01*
X188061928Y-93870000D01*
X188061928Y-94370000D01*
X188074188Y-94494482D01*
X188110498Y-94614180D01*
X188169463Y-94724494D01*
X188194499Y-94755000D01*
X188169463Y-94785506D01*
X188110498Y-94895820D01*
X188074188Y-95015518D01*
X188061928Y-95140000D01*
X188061928Y-95640000D01*
X188074188Y-95764482D01*
X188110498Y-95884180D01*
X188169463Y-95994494D01*
X188248815Y-96091185D01*
X188345506Y-96170537D01*
X188455820Y-96229502D01*
X188575518Y-96265812D01*
X188700000Y-96278072D01*
X190200000Y-96278072D01*
X190324482Y-96265812D01*
X190444180Y-96229502D01*
X190452603Y-96225000D01*
X190474132Y-96225000D01*
X189657205Y-97041928D01*
X188700000Y-97041928D01*
X188575518Y-97054188D01*
X188455820Y-97090498D01*
X188345506Y-97149463D01*
X188248815Y-97228815D01*
X188169463Y-97325506D01*
X188110498Y-97435820D01*
X188074188Y-97555518D01*
X188061928Y-97680000D01*
X188061928Y-98180000D01*
X188074188Y-98304482D01*
X188095924Y-98376135D01*
X188086311Y-98377082D01*
X187928913Y-98424828D01*
X187783854Y-98502364D01*
X187656709Y-98606709D01*
X187630559Y-98638573D01*
X185454133Y-100815000D01*
X185428716Y-100815000D01*
X185438072Y-100720000D01*
X185438072Y-100220000D01*
X185425812Y-100095518D01*
X185389502Y-99975820D01*
X185330537Y-99865506D01*
X185305501Y-99835000D01*
X185330537Y-99804494D01*
X185389502Y-99694180D01*
X185425812Y-99574482D01*
X185430139Y-99530551D01*
X185547271Y-99579068D01*
X185727911Y-99615000D01*
X185912089Y-99615000D01*
X186092729Y-99579068D01*
X186262889Y-99508586D01*
X186416028Y-99406262D01*
X186546262Y-99276028D01*
X186648586Y-99122889D01*
X186719068Y-98952729D01*
X186755000Y-98772089D01*
X186755000Y-98587911D01*
X186719068Y-98407271D01*
X186655000Y-98252596D01*
X186655000Y-94145867D01*
X188061928Y-92738940D01*
X188061928Y-93100000D01*
G37*
X188061928Y-93100000D02*
X188074188Y-93224482D01*
X188110498Y-93344180D01*
X188169463Y-93454494D01*
X188194499Y-93485000D01*
X188169463Y-93515506D01*
X188110498Y-93625820D01*
X188074188Y-93745518D01*
X188061928Y-93870000D01*
X188061928Y-94370000D01*
X188074188Y-94494482D01*
X188110498Y-94614180D01*
X188169463Y-94724494D01*
X188194499Y-94755000D01*
X188169463Y-94785506D01*
X188110498Y-94895820D01*
X188074188Y-95015518D01*
X188061928Y-95140000D01*
X188061928Y-95640000D01*
X188074188Y-95764482D01*
X188110498Y-95884180D01*
X188169463Y-95994494D01*
X188248815Y-96091185D01*
X188345506Y-96170537D01*
X188455820Y-96229502D01*
X188575518Y-96265812D01*
X188700000Y-96278072D01*
X190200000Y-96278072D01*
X190324482Y-96265812D01*
X190444180Y-96229502D01*
X190452603Y-96225000D01*
X190474132Y-96225000D01*
X189657205Y-97041928D01*
X188700000Y-97041928D01*
X188575518Y-97054188D01*
X188455820Y-97090498D01*
X188345506Y-97149463D01*
X188248815Y-97228815D01*
X188169463Y-97325506D01*
X188110498Y-97435820D01*
X188074188Y-97555518D01*
X188061928Y-97680000D01*
X188061928Y-98180000D01*
X188074188Y-98304482D01*
X188095924Y-98376135D01*
X188086311Y-98377082D01*
X187928913Y-98424828D01*
X187783854Y-98502364D01*
X187656709Y-98606709D01*
X187630559Y-98638573D01*
X185454133Y-100815000D01*
X185428716Y-100815000D01*
X185438072Y-100720000D01*
X185438072Y-100220000D01*
X185425812Y-100095518D01*
X185389502Y-99975820D01*
X185330537Y-99865506D01*
X185305501Y-99835000D01*
X185330537Y-99804494D01*
X185389502Y-99694180D01*
X185425812Y-99574482D01*
X185430139Y-99530551D01*
X185547271Y-99579068D01*
X185727911Y-99615000D01*
X185912089Y-99615000D01*
X186092729Y-99579068D01*
X186262889Y-99508586D01*
X186416028Y-99406262D01*
X186546262Y-99276028D01*
X186648586Y-99122889D01*
X186719068Y-98952729D01*
X186755000Y-98772089D01*
X186755000Y-98587911D01*
X186719068Y-98407271D01*
X186655000Y-98252596D01*
X186655000Y-94145867D01*
X188061928Y-92738940D01*
X188061928Y-93100000D01*
M02*
