G04 #@! TF.GenerationSoftware,KiCad,Pcbnew,5.0.0*
G04 #@! TF.CreationDate,2018-08-01T12:35:26+02:00*
G04 #@! TF.ProjectId,nixie_2_digit_board,6E697869655F325F64696769745F626F,rev?*
G04 #@! TF.SameCoordinates,Original*
G04 #@! TF.FileFunction,Legend,Top*
G04 #@! TF.FilePolarity,Positive*
%FSLAX46Y46*%
G04 Gerber Fmt 4.6, Leading zero omitted, Abs format (unit mm)*
G04 Created by KiCad (PCBNEW 5.0.0) date Wed Aug  1 12:35:26 2018*
%MOMM*%
%LPD*%
G01*
G04 APERTURE LIST*
%ADD10C,0.150000*%
%ADD11C,0.120000*%
%ADD12C,0.100000*%
%ADD13C,0.125000*%
G04 APERTURE END LIST*
D10*
G04 #@! TO.C,U5*
X154065000Y-108075000D02*
X154065000Y-106805000D01*
X146715000Y-108075000D02*
X146715000Y-106805000D01*
X146715000Y-85705000D02*
X146715000Y-86975000D01*
X154065000Y-85705000D02*
X154065000Y-86975000D01*
X154065000Y-108075000D02*
X146715000Y-108075000D01*
X154065000Y-85705000D02*
X146715000Y-85705000D01*
X154065000Y-106805000D02*
X155350000Y-106805000D01*
G04 #@! TO.C,R2*
X140250000Y-67925000D02*
X139250000Y-67925000D01*
X139250000Y-66575000D02*
X140250000Y-66575000D01*
G04 #@! TO.C,U4*
X153397500Y-74939664D02*
G75*
G03X153397500Y-74939664I-7147500J0D01*
G01*
D11*
G04 #@! TO.C,J2*
X160280000Y-78140000D02*
X162940000Y-78140000D01*
X160280000Y-75540000D02*
X160280000Y-78140000D01*
X162940000Y-75540000D02*
X162940000Y-78140000D01*
X160280000Y-75540000D02*
X162940000Y-75540000D01*
X160280000Y-74270000D02*
X160280000Y-72940000D01*
X160280000Y-72940000D02*
X161610000Y-72940000D01*
D10*
G04 #@! TO.C,U1*
X129447500Y-74900000D02*
G75*
G03X129447500Y-74900000I-7147500J0D01*
G01*
G04 #@! TO.C,R1*
X124750000Y-65875000D02*
X125750000Y-65875000D01*
X125750000Y-67225000D02*
X124750000Y-67225000D01*
G04 #@! TO.C,U2*
X125965000Y-108115000D02*
X125965000Y-106845000D01*
X118615000Y-108115000D02*
X118615000Y-106845000D01*
X118615000Y-85745000D02*
X118615000Y-87015000D01*
X125965000Y-85745000D02*
X125965000Y-87015000D01*
X125965000Y-108115000D02*
X118615000Y-108115000D01*
X125965000Y-85745000D02*
X118615000Y-85745000D01*
X125965000Y-106845000D02*
X127250000Y-106845000D01*
D12*
G04 #@! TO.C,P3*
X129400000Y-65100000D02*
X129400000Y-66100000D01*
X127400000Y-66100000D02*
X127400000Y-65100000D01*
X127400000Y-65100000D02*
X129400000Y-65100000D01*
X127400000Y-67100000D02*
X129400000Y-67100000D01*
D11*
G04 #@! TO.C,R3*
X179040000Y-67070000D02*
X179040000Y-66070000D01*
X180400000Y-66070000D02*
X180400000Y-67070000D01*
G04 #@! TO.C,R4*
X203400000Y-68780000D02*
X202400000Y-68780000D01*
X202400000Y-67420000D02*
X203400000Y-67420000D01*
D10*
G04 #@! TO.C,U7*
X183647500Y-75000000D02*
G75*
G03X183647500Y-75000000I-7147500J0D01*
G01*
D11*
G04 #@! TO.C,U8*
X175490000Y-107210000D02*
G75*
G02X177490000Y-107210000I1000000J0D01*
G01*
X177490000Y-107210000D02*
X178740000Y-107210000D01*
X178740000Y-107210000D02*
X178740000Y-86770000D01*
X178740000Y-86770000D02*
X174240000Y-86770000D01*
X174240000Y-86770000D02*
X174240000Y-107210000D01*
X174240000Y-107210000D02*
X175490000Y-107210000D01*
D10*
G04 #@! TO.C,U10*
X207647500Y-75000000D02*
G75*
G03X207647500Y-75000000I-7147500J0D01*
G01*
D11*
G04 #@! TO.C,U11*
X203640000Y-107160000D02*
G75*
G02X205640000Y-107160000I1000000J0D01*
G01*
X205640000Y-107160000D02*
X206890000Y-107160000D01*
X206890000Y-107160000D02*
X206890000Y-86720000D01*
X206890000Y-86720000D02*
X202390000Y-86720000D01*
X202390000Y-86720000D02*
X202390000Y-107160000D01*
X202390000Y-107160000D02*
X203640000Y-107160000D01*
G04 #@! TO.C,P1*
X137910000Y-88100000D02*
X140570000Y-88100000D01*
X137910000Y-88040000D02*
X137910000Y-88100000D01*
X140570000Y-88040000D02*
X140570000Y-88100000D01*
X137910000Y-88040000D02*
X140570000Y-88040000D01*
X137910000Y-86770000D02*
X137910000Y-85440000D01*
X137910000Y-85440000D02*
X139240000Y-85440000D01*
G04 #@! TO.C,J1*
X188610000Y-76910000D02*
X185950000Y-76910000D01*
X188610000Y-87130000D02*
X188610000Y-76910000D01*
X185950000Y-87130000D02*
X185950000Y-76910000D01*
X188610000Y-87130000D02*
X185950000Y-87130000D01*
X188610000Y-88400000D02*
X188610000Y-89730000D01*
X188610000Y-89730000D02*
X187280000Y-89730000D01*
G04 #@! TO.C,R5*
X160920000Y-71500000D02*
X160920000Y-70500000D01*
X162280000Y-70500000D02*
X162280000Y-71500000D01*
G04 #@! TD*
D12*
G04 #@! TO.C,U4*
X145265497Y-71512423D02*
X144184331Y-72033078D01*
X143099633Y-69780651D01*
X144180799Y-69259996D01*
X145265497Y-71512423D01*
X143375698Y-71943981D02*
X142359321Y-71133439D01*
X142689855Y-72803993D02*
X141673478Y-71993451D01*
X142359322Y-71133439D02*
G75*
G03X141673478Y-71993451I-342922J-430006D01*
G01*
X142689854Y-72803993D02*
G75*
G03X143375698Y-71943981I342922J430006D01*
G01*
X142360566Y-73487760D02*
X141093161Y-73198476D01*
X142115787Y-74560180D02*
X140848382Y-74270896D01*
X141093161Y-73198476D02*
G75*
G03X140848383Y-74270896I-122389J-536210D01*
G01*
X142115787Y-74560180D02*
G75*
G03X142360565Y-73487760I122389J536210D01*
G01*
X142115783Y-75319108D02*
X140848375Y-75608378D01*
X142360551Y-76391530D02*
X141093143Y-76680800D01*
X140848375Y-75608378D02*
G75*
G03X141093143Y-76680800I122384J-536211D01*
G01*
X142360551Y-76391530D02*
G75*
G03X142115783Y-75319108I-122384J536211D01*
G01*
X142689833Y-77075299D02*
X141673448Y-77885831D01*
X143375668Y-77935317D02*
X142359283Y-78745849D01*
X141673449Y-77885831D02*
G75*
G03X142359283Y-78745849I342917J-430009D01*
G01*
X143375667Y-77935317D02*
G75*
G03X142689833Y-77075299I-342917J430009D01*
G01*
X143969019Y-78408503D02*
X143404964Y-79579760D01*
X144960082Y-78885780D02*
X144396027Y-80057037D01*
X143404964Y-79579759D02*
G75*
G03X144396028Y-80057037I495532J-238639D01*
G01*
X144960082Y-78885781D02*
G75*
G03X143969018Y-78408503I-495532J238639D01*
G01*
X145699979Y-79054661D02*
X145699973Y-80354661D01*
X146799979Y-79054667D02*
X146799973Y-80354667D01*
X145699973Y-80354661D02*
G75*
G03X146799973Y-80354667I550000J-3D01*
G01*
X146799979Y-79054667D02*
G75*
G03X145699979Y-79054661I-550000J3D01*
G01*
X147539879Y-78885793D02*
X148103922Y-80057056D01*
X148530948Y-78408526D02*
X149094991Y-79579789D01*
X148103923Y-80057056D02*
G75*
G03X149094991Y-79579788I495534J238634D01*
G01*
X148530947Y-78408526D02*
G75*
G03X147539879Y-78885794I-495534J-238634D01*
G01*
X149124302Y-77935347D02*
X150140679Y-78745889D01*
X149810145Y-77075335D02*
X150826522Y-77885877D01*
X150140678Y-78745889D02*
G75*
G03X150826522Y-77885877I342922J430006D01*
G01*
X149810146Y-77075335D02*
G75*
G03X149124302Y-77935347I-342922J-430006D01*
G01*
X150139434Y-76391568D02*
X151406839Y-76680852D01*
X150384213Y-75319148D02*
X151651618Y-75608432D01*
X151406839Y-76680852D02*
G75*
G03X151651617Y-75608432I122389J536210D01*
G01*
X150384213Y-75319148D02*
G75*
G03X150139435Y-76391568I-122389J-536210D01*
G01*
X150384217Y-74560220D02*
X151651625Y-74270950D01*
X150139449Y-73487798D02*
X151406857Y-73198528D01*
X151651625Y-74270950D02*
G75*
G03X151406857Y-73198528I-122384J536211D01*
G01*
X150139449Y-73487798D02*
G75*
G03X150384217Y-74560220I122384J-536211D01*
G01*
X149810167Y-72804029D02*
X150826552Y-71993497D01*
X149124332Y-71944011D02*
X150140717Y-71133479D01*
X150826551Y-71993497D02*
G75*
G03X150140717Y-71133479I-342917J430009D01*
G01*
X149124333Y-71944011D02*
G75*
G03X149810167Y-72804029I342917J-430009D01*
G01*
X148530981Y-71470825D02*
X149095036Y-70299568D01*
X147539918Y-70993548D02*
X148103973Y-69822291D01*
X149095036Y-70299569D02*
G75*
G03X148103972Y-69822291I-495532J238639D01*
G01*
X147539918Y-70993547D02*
G75*
G03X148530982Y-71470825I495532J-238639D01*
G01*
G04 #@! TD*
G04 #@! TO.C,U1*
X121315497Y-71472759D02*
X120234331Y-71993414D01*
X119149633Y-69740987D01*
X120230799Y-69220332D01*
X121315497Y-71472759D01*
X119425698Y-71904317D02*
X118409321Y-71093775D01*
X118739855Y-72764329D02*
X117723478Y-71953787D01*
X118409322Y-71093775D02*
G75*
G03X117723478Y-71953787I-342922J-430006D01*
G01*
X118739854Y-72764329D02*
G75*
G03X119425698Y-71904317I342922J430006D01*
G01*
X118410566Y-73448096D02*
X117143161Y-73158812D01*
X118165787Y-74520516D02*
X116898382Y-74231232D01*
X117143161Y-73158812D02*
G75*
G03X116898383Y-74231232I-122389J-536210D01*
G01*
X118165787Y-74520516D02*
G75*
G03X118410565Y-73448096I122389J536210D01*
G01*
X118165783Y-75279444D02*
X116898375Y-75568714D01*
X118410551Y-76351866D02*
X117143143Y-76641136D01*
X116898375Y-75568714D02*
G75*
G03X117143143Y-76641136I122384J-536211D01*
G01*
X118410551Y-76351866D02*
G75*
G03X118165783Y-75279444I-122384J536211D01*
G01*
X118739833Y-77035635D02*
X117723448Y-77846167D01*
X119425668Y-77895653D02*
X118409283Y-78706185D01*
X117723449Y-77846167D02*
G75*
G03X118409283Y-78706185I342917J-430009D01*
G01*
X119425667Y-77895653D02*
G75*
G03X118739833Y-77035635I-342917J430009D01*
G01*
X120019019Y-78368839D02*
X119454964Y-79540096D01*
X121010082Y-78846116D02*
X120446027Y-80017373D01*
X119454964Y-79540095D02*
G75*
G03X120446028Y-80017373I495532J-238639D01*
G01*
X121010082Y-78846117D02*
G75*
G03X120019018Y-78368839I-495532J238639D01*
G01*
X121749979Y-79014997D02*
X121749973Y-80314997D01*
X122849979Y-79015003D02*
X122849973Y-80315003D01*
X121749973Y-80314997D02*
G75*
G03X122849973Y-80315003I550000J-3D01*
G01*
X122849979Y-79015003D02*
G75*
G03X121749979Y-79014997I-550000J3D01*
G01*
X123589879Y-78846129D02*
X124153922Y-80017392D01*
X124580948Y-78368862D02*
X125144991Y-79540125D01*
X124153923Y-80017392D02*
G75*
G03X125144991Y-79540124I495534J238634D01*
G01*
X124580947Y-78368862D02*
G75*
G03X123589879Y-78846130I-495534J-238634D01*
G01*
X125174302Y-77895683D02*
X126190679Y-78706225D01*
X125860145Y-77035671D02*
X126876522Y-77846213D01*
X126190678Y-78706225D02*
G75*
G03X126876522Y-77846213I342922J430006D01*
G01*
X125860146Y-77035671D02*
G75*
G03X125174302Y-77895683I-342922J-430006D01*
G01*
X126189434Y-76351904D02*
X127456839Y-76641188D01*
X126434213Y-75279484D02*
X127701618Y-75568768D01*
X127456839Y-76641188D02*
G75*
G03X127701617Y-75568768I122389J536210D01*
G01*
X126434213Y-75279484D02*
G75*
G03X126189435Y-76351904I-122389J-536210D01*
G01*
X126434217Y-74520556D02*
X127701625Y-74231286D01*
X126189449Y-73448134D02*
X127456857Y-73158864D01*
X127701625Y-74231286D02*
G75*
G03X127456857Y-73158864I-122384J536211D01*
G01*
X126189449Y-73448134D02*
G75*
G03X126434217Y-74520556I122384J-536211D01*
G01*
X125860167Y-72764365D02*
X126876552Y-71953833D01*
X125174332Y-71904347D02*
X126190717Y-71093815D01*
X126876551Y-71953833D02*
G75*
G03X126190717Y-71093815I-342917J430009D01*
G01*
X125174333Y-71904347D02*
G75*
G03X125860167Y-72764365I342917J-430009D01*
G01*
X124580981Y-71431161D02*
X125145036Y-70259904D01*
X123589918Y-70953884D02*
X124153973Y-69782627D01*
X125145036Y-70259905D02*
G75*
G03X124153972Y-69782627I-495532J238639D01*
G01*
X123589918Y-70953883D02*
G75*
G03X124580982Y-71431161I495532J-238639D01*
G01*
G04 #@! TD*
G04 #@! TO.C,U7*
X175515497Y-71572759D02*
X174434331Y-72093414D01*
X173349633Y-69840987D01*
X174430799Y-69320332D01*
X175515497Y-71572759D01*
X173625698Y-72004317D02*
X172609321Y-71193775D01*
X172939855Y-72864329D02*
X171923478Y-72053787D01*
X172609322Y-71193775D02*
G75*
G03X171923478Y-72053787I-342922J-430006D01*
G01*
X172939854Y-72864329D02*
G75*
G03X173625698Y-72004317I342922J430006D01*
G01*
X172610566Y-73548096D02*
X171343161Y-73258812D01*
X172365787Y-74620516D02*
X171098382Y-74331232D01*
X171343161Y-73258812D02*
G75*
G03X171098383Y-74331232I-122389J-536210D01*
G01*
X172365787Y-74620516D02*
G75*
G03X172610565Y-73548096I122389J536210D01*
G01*
X172365783Y-75379444D02*
X171098375Y-75668714D01*
X172610551Y-76451866D02*
X171343143Y-76741136D01*
X171098375Y-75668714D02*
G75*
G03X171343143Y-76741136I122384J-536211D01*
G01*
X172610551Y-76451866D02*
G75*
G03X172365783Y-75379444I-122384J536211D01*
G01*
X172939833Y-77135635D02*
X171923448Y-77946167D01*
X173625668Y-77995653D02*
X172609283Y-78806185D01*
X171923449Y-77946167D02*
G75*
G03X172609283Y-78806185I342917J-430009D01*
G01*
X173625667Y-77995653D02*
G75*
G03X172939833Y-77135635I-342917J430009D01*
G01*
X174219019Y-78468839D02*
X173654964Y-79640096D01*
X175210082Y-78946116D02*
X174646027Y-80117373D01*
X173654964Y-79640095D02*
G75*
G03X174646028Y-80117373I495532J-238639D01*
G01*
X175210082Y-78946117D02*
G75*
G03X174219018Y-78468839I-495532J238639D01*
G01*
X175949979Y-79114997D02*
X175949973Y-80414997D01*
X177049979Y-79115003D02*
X177049973Y-80415003D01*
X175949973Y-80414997D02*
G75*
G03X177049973Y-80415003I550000J-3D01*
G01*
X177049979Y-79115003D02*
G75*
G03X175949979Y-79114997I-550000J3D01*
G01*
X177789879Y-78946129D02*
X178353922Y-80117392D01*
X178780948Y-78468862D02*
X179344991Y-79640125D01*
X178353923Y-80117392D02*
G75*
G03X179344991Y-79640124I495534J238634D01*
G01*
X178780947Y-78468862D02*
G75*
G03X177789879Y-78946130I-495534J-238634D01*
G01*
X179374302Y-77995683D02*
X180390679Y-78806225D01*
X180060145Y-77135671D02*
X181076522Y-77946213D01*
X180390678Y-78806225D02*
G75*
G03X181076522Y-77946213I342922J430006D01*
G01*
X180060146Y-77135671D02*
G75*
G03X179374302Y-77995683I-342922J-430006D01*
G01*
X180389434Y-76451904D02*
X181656839Y-76741188D01*
X180634213Y-75379484D02*
X181901618Y-75668768D01*
X181656839Y-76741188D02*
G75*
G03X181901617Y-75668768I122389J536210D01*
G01*
X180634213Y-75379484D02*
G75*
G03X180389435Y-76451904I-122389J-536210D01*
G01*
X180634217Y-74620556D02*
X181901625Y-74331286D01*
X180389449Y-73548134D02*
X181656857Y-73258864D01*
X181901625Y-74331286D02*
G75*
G03X181656857Y-73258864I-122384J536211D01*
G01*
X180389449Y-73548134D02*
G75*
G03X180634217Y-74620556I122384J-536211D01*
G01*
X180060167Y-72864365D02*
X181076552Y-72053833D01*
X179374332Y-72004347D02*
X180390717Y-71193815D01*
X181076551Y-72053833D02*
G75*
G03X180390717Y-71193815I-342917J430009D01*
G01*
X179374333Y-72004347D02*
G75*
G03X180060167Y-72864365I342917J-430009D01*
G01*
X178780981Y-71531161D02*
X179345036Y-70359904D01*
X177789918Y-71053884D02*
X178353973Y-69882627D01*
X179345036Y-70359905D02*
G75*
G03X178353972Y-69882627I-495532J238639D01*
G01*
X177789918Y-71053883D02*
G75*
G03X178780982Y-71531161I495532J-238639D01*
G01*
G04 #@! TD*
G04 #@! TO.C,U10*
X199515497Y-71572759D02*
X198434331Y-72093414D01*
X197349633Y-69840987D01*
X198430799Y-69320332D01*
X199515497Y-71572759D01*
X197625698Y-72004317D02*
X196609321Y-71193775D01*
X196939855Y-72864329D02*
X195923478Y-72053787D01*
X196609322Y-71193775D02*
G75*
G03X195923478Y-72053787I-342922J-430006D01*
G01*
X196939854Y-72864329D02*
G75*
G03X197625698Y-72004317I342922J430006D01*
G01*
X196610566Y-73548096D02*
X195343161Y-73258812D01*
X196365787Y-74620516D02*
X195098382Y-74331232D01*
X195343161Y-73258812D02*
G75*
G03X195098383Y-74331232I-122389J-536210D01*
G01*
X196365787Y-74620516D02*
G75*
G03X196610565Y-73548096I122389J536210D01*
G01*
X196365783Y-75379444D02*
X195098375Y-75668714D01*
X196610551Y-76451866D02*
X195343143Y-76741136D01*
X195098375Y-75668714D02*
G75*
G03X195343143Y-76741136I122384J-536211D01*
G01*
X196610551Y-76451866D02*
G75*
G03X196365783Y-75379444I-122384J536211D01*
G01*
X196939833Y-77135635D02*
X195923448Y-77946167D01*
X197625668Y-77995653D02*
X196609283Y-78806185D01*
X195923449Y-77946167D02*
G75*
G03X196609283Y-78806185I342917J-430009D01*
G01*
X197625667Y-77995653D02*
G75*
G03X196939833Y-77135635I-342917J430009D01*
G01*
X198219019Y-78468839D02*
X197654964Y-79640096D01*
X199210082Y-78946116D02*
X198646027Y-80117373D01*
X197654964Y-79640095D02*
G75*
G03X198646028Y-80117373I495532J-238639D01*
G01*
X199210082Y-78946117D02*
G75*
G03X198219018Y-78468839I-495532J238639D01*
G01*
X199949979Y-79114997D02*
X199949973Y-80414997D01*
X201049979Y-79115003D02*
X201049973Y-80415003D01*
X199949973Y-80414997D02*
G75*
G03X201049973Y-80415003I550000J-3D01*
G01*
X201049979Y-79115003D02*
G75*
G03X199949979Y-79114997I-550000J3D01*
G01*
X201789879Y-78946129D02*
X202353922Y-80117392D01*
X202780948Y-78468862D02*
X203344991Y-79640125D01*
X202353923Y-80117392D02*
G75*
G03X203344991Y-79640124I495534J238634D01*
G01*
X202780947Y-78468862D02*
G75*
G03X201789879Y-78946130I-495534J-238634D01*
G01*
X203374302Y-77995683D02*
X204390679Y-78806225D01*
X204060145Y-77135671D02*
X205076522Y-77946213D01*
X204390678Y-78806225D02*
G75*
G03X205076522Y-77946213I342922J430006D01*
G01*
X204060146Y-77135671D02*
G75*
G03X203374302Y-77995683I-342922J-430006D01*
G01*
X204389434Y-76451904D02*
X205656839Y-76741188D01*
X204634213Y-75379484D02*
X205901618Y-75668768D01*
X205656839Y-76741188D02*
G75*
G03X205901617Y-75668768I122389J536210D01*
G01*
X204634213Y-75379484D02*
G75*
G03X204389435Y-76451904I-122389J-536210D01*
G01*
X204634217Y-74620556D02*
X205901625Y-74331286D01*
X204389449Y-73548134D02*
X205656857Y-73258864D01*
X205901625Y-74331286D02*
G75*
G03X205656857Y-73258864I-122384J536211D01*
G01*
X204389449Y-73548134D02*
G75*
G03X204634217Y-74620556I122384J-536211D01*
G01*
X204060167Y-72864365D02*
X205076552Y-72053833D01*
X203374332Y-72004347D02*
X204390717Y-71193815D01*
X205076551Y-72053833D02*
G75*
G03X204390717Y-71193815I-342917J430009D01*
G01*
X203374333Y-72004347D02*
G75*
G03X204060167Y-72864365I342917J-430009D01*
G01*
X202780981Y-71531161D02*
X203345036Y-70359904D01*
X201789918Y-71053884D02*
X202353973Y-69882627D01*
X203345036Y-70359905D02*
G75*
G03X202353972Y-69882627I-495532J238639D01*
G01*
X201789918Y-71053883D02*
G75*
G03X202780982Y-71531161I495532J-238639D01*
G01*
G04 #@! TD*
G04 #@! TO.C,U5*
D13*
X147119047Y-84326190D02*
X147119047Y-84730952D01*
X147142857Y-84778571D01*
X147166666Y-84802380D01*
X147214285Y-84826190D01*
X147309523Y-84826190D01*
X147357142Y-84802380D01*
X147380952Y-84778571D01*
X147404761Y-84730952D01*
X147404761Y-84326190D01*
X147880952Y-84326190D02*
X147642857Y-84326190D01*
X147619047Y-84564285D01*
X147642857Y-84540476D01*
X147690476Y-84516666D01*
X147809523Y-84516666D01*
X147857142Y-84540476D01*
X147880952Y-84564285D01*
X147904761Y-84611904D01*
X147904761Y-84730952D01*
X147880952Y-84778571D01*
X147857142Y-84802380D01*
X147809523Y-84826190D01*
X147690476Y-84826190D01*
X147642857Y-84802380D01*
X147619047Y-84778571D01*
G04 #@! TO.C,R2*
X141916666Y-67526190D02*
X141750000Y-67288095D01*
X141630952Y-67526190D02*
X141630952Y-67026190D01*
X141821428Y-67026190D01*
X141869047Y-67050000D01*
X141892857Y-67073809D01*
X141916666Y-67121428D01*
X141916666Y-67192857D01*
X141892857Y-67240476D01*
X141869047Y-67264285D01*
X141821428Y-67288095D01*
X141630952Y-67288095D01*
X142107142Y-67073809D02*
X142130952Y-67050000D01*
X142178571Y-67026190D01*
X142297619Y-67026190D01*
X142345238Y-67050000D01*
X142369047Y-67073809D01*
X142392857Y-67121428D01*
X142392857Y-67169047D01*
X142369047Y-67240476D01*
X142083333Y-67526190D01*
X142392857Y-67526190D01*
G04 #@! TO.C,U4*
X138721547Y-81813354D02*
X138721547Y-82218116D01*
X138745357Y-82265735D01*
X138769166Y-82289544D01*
X138816785Y-82313354D01*
X138912023Y-82313354D01*
X138959642Y-82289544D01*
X138983452Y-82265735D01*
X139007261Y-82218116D01*
X139007261Y-81813354D01*
X139459642Y-81980021D02*
X139459642Y-82313354D01*
X139340595Y-81789544D02*
X139221547Y-82146687D01*
X139531071Y-82146687D01*
G04 #@! TO.C,J2*
X158583333Y-74726190D02*
X158583333Y-75083333D01*
X158559523Y-75154761D01*
X158511904Y-75202380D01*
X158440476Y-75226190D01*
X158392857Y-75226190D01*
X158797619Y-74773809D02*
X158821428Y-74750000D01*
X158869047Y-74726190D01*
X158988095Y-74726190D01*
X159035714Y-74750000D01*
X159059523Y-74773809D01*
X159083333Y-74821428D01*
X159083333Y-74869047D01*
X159059523Y-74940476D01*
X158773809Y-75226190D01*
X159083333Y-75226190D01*
G04 #@! TO.C,U1*
X114771547Y-81773690D02*
X114771547Y-82178452D01*
X114795357Y-82226071D01*
X114819166Y-82249880D01*
X114866785Y-82273690D01*
X114962023Y-82273690D01*
X115009642Y-82249880D01*
X115033452Y-82226071D01*
X115057261Y-82178452D01*
X115057261Y-81773690D01*
X115557261Y-82273690D02*
X115271547Y-82273690D01*
X115414404Y-82273690D02*
X115414404Y-81773690D01*
X115366785Y-81845119D01*
X115319166Y-81892738D01*
X115271547Y-81916547D01*
G04 #@! TO.C,R1*
X122616666Y-66726190D02*
X122450000Y-66488095D01*
X122330952Y-66726190D02*
X122330952Y-66226190D01*
X122521428Y-66226190D01*
X122569047Y-66250000D01*
X122592857Y-66273809D01*
X122616666Y-66321428D01*
X122616666Y-66392857D01*
X122592857Y-66440476D01*
X122569047Y-66464285D01*
X122521428Y-66488095D01*
X122330952Y-66488095D01*
X123092857Y-66726190D02*
X122807142Y-66726190D01*
X122950000Y-66726190D02*
X122950000Y-66226190D01*
X122902380Y-66297619D01*
X122854761Y-66345238D01*
X122807142Y-66369047D01*
G04 #@! TO.C,U2*
X119019047Y-84426190D02*
X119019047Y-84830952D01*
X119042857Y-84878571D01*
X119066666Y-84902380D01*
X119114285Y-84926190D01*
X119209523Y-84926190D01*
X119257142Y-84902380D01*
X119280952Y-84878571D01*
X119304761Y-84830952D01*
X119304761Y-84426190D01*
X119519047Y-84473809D02*
X119542857Y-84450000D01*
X119590476Y-84426190D01*
X119709523Y-84426190D01*
X119757142Y-84450000D01*
X119780952Y-84473809D01*
X119804761Y-84521428D01*
X119804761Y-84569047D01*
X119780952Y-84640476D01*
X119495238Y-84926190D01*
X119804761Y-84926190D01*
G04 #@! TO.C,P3*
X127690952Y-68376190D02*
X127690952Y-67876190D01*
X127881428Y-67876190D01*
X127929047Y-67900000D01*
X127952857Y-67923809D01*
X127976666Y-67971428D01*
X127976666Y-68042857D01*
X127952857Y-68090476D01*
X127929047Y-68114285D01*
X127881428Y-68138095D01*
X127690952Y-68138095D01*
X128143333Y-67876190D02*
X128452857Y-67876190D01*
X128286190Y-68066666D01*
X128357619Y-68066666D01*
X128405238Y-68090476D01*
X128429047Y-68114285D01*
X128452857Y-68161904D01*
X128452857Y-68280952D01*
X128429047Y-68328571D01*
X128405238Y-68352380D01*
X128357619Y-68376190D01*
X128214761Y-68376190D01*
X128167142Y-68352380D01*
X128143333Y-68328571D01*
G04 #@! TO.C,R3*
X181396190Y-66653333D02*
X181158095Y-66820000D01*
X181396190Y-66939047D02*
X180896190Y-66939047D01*
X180896190Y-66748571D01*
X180920000Y-66700952D01*
X180943809Y-66677142D01*
X180991428Y-66653333D01*
X181062857Y-66653333D01*
X181110476Y-66677142D01*
X181134285Y-66700952D01*
X181158095Y-66748571D01*
X181158095Y-66939047D01*
X180896190Y-66486666D02*
X180896190Y-66177142D01*
X181086666Y-66343809D01*
X181086666Y-66272380D01*
X181110476Y-66224761D01*
X181134285Y-66200952D01*
X181181904Y-66177142D01*
X181300952Y-66177142D01*
X181348571Y-66200952D01*
X181372380Y-66224761D01*
X181396190Y-66272380D01*
X181396190Y-66415238D01*
X181372380Y-66462857D01*
X181348571Y-66486666D01*
G04 #@! TO.C,R4*
X202816666Y-66876190D02*
X202650000Y-66638095D01*
X202530952Y-66876190D02*
X202530952Y-66376190D01*
X202721428Y-66376190D01*
X202769047Y-66400000D01*
X202792857Y-66423809D01*
X202816666Y-66471428D01*
X202816666Y-66542857D01*
X202792857Y-66590476D01*
X202769047Y-66614285D01*
X202721428Y-66638095D01*
X202530952Y-66638095D01*
X203245238Y-66542857D02*
X203245238Y-66876190D01*
X203126190Y-66352380D02*
X203007142Y-66709523D01*
X203316666Y-66709523D01*
G04 #@! TO.C,U7*
X168971547Y-81873690D02*
X168971547Y-82278452D01*
X168995357Y-82326071D01*
X169019166Y-82349880D01*
X169066785Y-82373690D01*
X169162023Y-82373690D01*
X169209642Y-82349880D01*
X169233452Y-82326071D01*
X169257261Y-82278452D01*
X169257261Y-81873690D01*
X169447738Y-81873690D02*
X169781071Y-81873690D01*
X169566785Y-82373690D01*
G04 #@! TO.C,U8*
X176109047Y-107936190D02*
X176109047Y-108340952D01*
X176132857Y-108388571D01*
X176156666Y-108412380D01*
X176204285Y-108436190D01*
X176299523Y-108436190D01*
X176347142Y-108412380D01*
X176370952Y-108388571D01*
X176394761Y-108340952D01*
X176394761Y-107936190D01*
X176704285Y-108150476D02*
X176656666Y-108126666D01*
X176632857Y-108102857D01*
X176609047Y-108055238D01*
X176609047Y-108031428D01*
X176632857Y-107983809D01*
X176656666Y-107960000D01*
X176704285Y-107936190D01*
X176799523Y-107936190D01*
X176847142Y-107960000D01*
X176870952Y-107983809D01*
X176894761Y-108031428D01*
X176894761Y-108055238D01*
X176870952Y-108102857D01*
X176847142Y-108126666D01*
X176799523Y-108150476D01*
X176704285Y-108150476D01*
X176656666Y-108174285D01*
X176632857Y-108198095D01*
X176609047Y-108245714D01*
X176609047Y-108340952D01*
X176632857Y-108388571D01*
X176656666Y-108412380D01*
X176704285Y-108436190D01*
X176799523Y-108436190D01*
X176847142Y-108412380D01*
X176870952Y-108388571D01*
X176894761Y-108340952D01*
X176894761Y-108245714D01*
X176870952Y-108198095D01*
X176847142Y-108174285D01*
X176799523Y-108150476D01*
G04 #@! TO.C,U10*
X192733452Y-81873690D02*
X192733452Y-82278452D01*
X192757261Y-82326071D01*
X192781071Y-82349880D01*
X192828690Y-82373690D01*
X192923928Y-82373690D01*
X192971547Y-82349880D01*
X192995357Y-82326071D01*
X193019166Y-82278452D01*
X193019166Y-81873690D01*
X193519166Y-82373690D02*
X193233452Y-82373690D01*
X193376309Y-82373690D02*
X193376309Y-81873690D01*
X193328690Y-81945119D01*
X193281071Y-81992738D01*
X193233452Y-82016547D01*
X193828690Y-81873690D02*
X193876309Y-81873690D01*
X193923928Y-81897500D01*
X193947738Y-81921309D01*
X193971547Y-81968928D01*
X193995357Y-82064166D01*
X193995357Y-82183214D01*
X193971547Y-82278452D01*
X193947738Y-82326071D01*
X193923928Y-82349880D01*
X193876309Y-82373690D01*
X193828690Y-82373690D01*
X193781071Y-82349880D01*
X193757261Y-82326071D01*
X193733452Y-82278452D01*
X193709642Y-82183214D01*
X193709642Y-82064166D01*
X193733452Y-81968928D01*
X193757261Y-81921309D01*
X193781071Y-81897500D01*
X193828690Y-81873690D01*
G04 #@! TO.C,U11*
X204020952Y-107886190D02*
X204020952Y-108290952D01*
X204044761Y-108338571D01*
X204068571Y-108362380D01*
X204116190Y-108386190D01*
X204211428Y-108386190D01*
X204259047Y-108362380D01*
X204282857Y-108338571D01*
X204306666Y-108290952D01*
X204306666Y-107886190D01*
X204806666Y-108386190D02*
X204520952Y-108386190D01*
X204663809Y-108386190D02*
X204663809Y-107886190D01*
X204616190Y-107957619D01*
X204568571Y-108005238D01*
X204520952Y-108029047D01*
X205282857Y-108386190D02*
X204997142Y-108386190D01*
X205140000Y-108386190D02*
X205140000Y-107886190D01*
X205092380Y-107957619D01*
X205044761Y-108005238D01*
X204997142Y-108029047D01*
G04 #@! TO.C,P1*
X138870952Y-84666190D02*
X138870952Y-84166190D01*
X139061428Y-84166190D01*
X139109047Y-84190000D01*
X139132857Y-84213809D01*
X139156666Y-84261428D01*
X139156666Y-84332857D01*
X139132857Y-84380476D01*
X139109047Y-84404285D01*
X139061428Y-84428095D01*
X138870952Y-84428095D01*
X139632857Y-84666190D02*
X139347142Y-84666190D01*
X139490000Y-84666190D02*
X139490000Y-84166190D01*
X139442380Y-84237619D01*
X139394761Y-84285238D01*
X139347142Y-84309047D01*
G04 #@! TO.C,J1*
X187113333Y-90456190D02*
X187113333Y-90813333D01*
X187089523Y-90884761D01*
X187041904Y-90932380D01*
X186970476Y-90956190D01*
X186922857Y-90956190D01*
X187613333Y-90956190D02*
X187327619Y-90956190D01*
X187470476Y-90956190D02*
X187470476Y-90456190D01*
X187422857Y-90527619D01*
X187375238Y-90575238D01*
X187327619Y-90599047D01*
G04 #@! TO.C,R5*
X160376190Y-70983333D02*
X160138095Y-71150000D01*
X160376190Y-71269047D02*
X159876190Y-71269047D01*
X159876190Y-71078571D01*
X159900000Y-71030952D01*
X159923809Y-71007142D01*
X159971428Y-70983333D01*
X160042857Y-70983333D01*
X160090476Y-71007142D01*
X160114285Y-71030952D01*
X160138095Y-71078571D01*
X160138095Y-71269047D01*
X159876190Y-70530952D02*
X159876190Y-70769047D01*
X160114285Y-70792857D01*
X160090476Y-70769047D01*
X160066666Y-70721428D01*
X160066666Y-70602380D01*
X160090476Y-70554761D01*
X160114285Y-70530952D01*
X160161904Y-70507142D01*
X160280952Y-70507142D01*
X160328571Y-70530952D01*
X160352380Y-70554761D01*
X160376190Y-70602380D01*
X160376190Y-70721428D01*
X160352380Y-70769047D01*
X160328571Y-70792857D01*
G04 #@! TD*
M02*
