G04 #@! TF.GenerationSoftware,KiCad,Pcbnew,5.0.0*
G04 #@! TF.CreationDate,2018-08-01T12:35:26+02:00*
G04 #@! TF.ProjectId,nixie_2_digit_board,6E697869655F325F64696769745F626F,rev?*
G04 #@! TF.SameCoordinates,Original*
G04 #@! TF.FileFunction,Copper,L2,Bot,Signal*
G04 #@! TF.FilePolarity,Positive*
%FSLAX46Y46*%
G04 Gerber Fmt 4.6, Leading zero omitted, Abs format (unit mm)*
G04 Created by KiCad (PCBNEW 5.0.0) date Wed Aug  1 12:35:26 2018*
%MOMM*%
%LPD*%
G01*
G04 APERTURE LIST*
G04 #@! TA.AperFunction,ViaPad*
%ADD10C,0.600000*%
G04 #@! TD*
G04 #@! TA.AperFunction,ComponentPad*
%ADD11O,2.300000X1.600000*%
G04 #@! TD*
G04 #@! TA.AperFunction,ComponentPad*
%ADD12C,1.200000*%
G04 #@! TD*
G04 #@! TA.AperFunction,Conductor*
%ADD13C,0.100000*%
G04 #@! TD*
G04 #@! TA.AperFunction,Conductor*
%ADD14C,1.200000*%
G04 #@! TD*
G04 #@! TA.AperFunction,ComponentPad*
%ADD15R,1.700000X1.700000*%
G04 #@! TD*
G04 #@! TA.AperFunction,ComponentPad*
%ADD16O,1.700000X1.700000*%
G04 #@! TD*
G04 #@! TA.AperFunction,SMDPad,CuDef*
%ADD17R,1.500000X0.500000*%
G04 #@! TD*
G04 #@! TA.AperFunction,ComponentPad*
%ADD18R,2.000000X2.000000*%
G04 #@! TD*
G04 #@! TA.AperFunction,ComponentPad*
%ADD19R,2.400000X1.600000*%
G04 #@! TD*
G04 #@! TA.AperFunction,ComponentPad*
%ADD20O,2.400000X1.600000*%
G04 #@! TD*
G04 #@! TA.AperFunction,Conductor*
%ADD21C,0.600000*%
G04 #@! TD*
G04 #@! TA.AperFunction,Conductor*
%ADD22C,0.400000*%
G04 #@! TD*
G04 #@! TA.AperFunction,Conductor*
%ADD23C,0.800000*%
G04 #@! TD*
G04 #@! TA.AperFunction,Conductor*
%ADD24C,0.254000*%
G04 #@! TD*
G04 APERTURE END LIST*
D10*
G04 #@! TO.N,GND*
G04 #@! TO.C,REF\002A\002A*
X190760000Y-70450000D03*
G04 #@! TD*
G04 #@! TO.N,GND*
G04 #@! TO.C,REF\002A\002A*
X190760000Y-69450000D03*
G04 #@! TD*
G04 #@! TO.N,GND*
G04 #@! TO.C,REF\002A\002A*
X190760000Y-68450000D03*
G04 #@! TD*
G04 #@! TO.N,GND*
G04 #@! TO.C,REF\002A\002A*
X140810000Y-92570000D03*
G04 #@! TD*
G04 #@! TO.N,GND*
G04 #@! TO.C,REF\002A\002A*
X140810000Y-91570000D03*
G04 #@! TD*
G04 #@! TO.N,GND*
G04 #@! TO.C,REF\002A\002A*
X140810000Y-90570000D03*
G04 #@! TD*
G04 #@! TO.N,GND*
G04 #@! TO.C,REF\002A\002A*
X124690000Y-86410000D03*
G04 #@! TD*
G04 #@! TO.N,GND*
G04 #@! TO.C,REF\002A\002A*
X152580000Y-84805000D03*
G04 #@! TD*
G04 #@! TO.N,GND*
G04 #@! TO.C,REF\002A\002A*
X152580000Y-83805000D03*
G04 #@! TD*
G04 #@! TO.N,GND*
G04 #@! TO.C,REF\002A\002A*
X152580000Y-82805000D03*
G04 #@! TD*
G04 #@! TO.N,GND*
G04 #@! TO.C,REF\002A\002A*
X187074262Y-98676359D03*
G04 #@! TD*
G04 #@! TO.N,GND*
G04 #@! TO.C,REF\002A\002A*
X187781369Y-97969253D03*
G04 #@! TD*
G04 #@! TO.N,GND*
G04 #@! TO.C,REF\002A\002A*
X161980000Y-92505000D03*
G04 #@! TD*
G04 #@! TO.N,GND*
G04 #@! TO.C,REF\002A\002A*
X161980000Y-91505000D03*
G04 #@! TD*
G04 #@! TO.N,GND*
G04 #@! TO.C,REF\002A\002A*
X162980000Y-91505000D03*
G04 #@! TD*
G04 #@! TO.N,GND*
G04 #@! TO.C,REF\002A\002A*
X162980000Y-92505000D03*
G04 #@! TD*
G04 #@! TO.N,GND*
G04 #@! TO.C,REF\002A\002A*
X163980000Y-92505000D03*
G04 #@! TD*
G04 #@! TO.N,GND*
G04 #@! TO.C,REF\002A\002A*
X163980000Y-91505000D03*
G04 #@! TD*
G04 #@! TO.N,GND*
G04 #@! TO.C,REF\002A\002A*
X163980000Y-90505000D03*
G04 #@! TD*
G04 #@! TO.N,GND*
G04 #@! TO.C,REF\002A\002A*
X162980000Y-90505000D03*
G04 #@! TD*
G04 #@! TO.N,GND*
G04 #@! TO.C,REF\002A\002A*
X161980000Y-90505000D03*
G04 #@! TD*
G04 #@! TO.N,GND*
G04 #@! TO.C,REF\002A\002A*
X130430000Y-67760000D03*
G04 #@! TD*
G04 #@! TO.N,GND*
G04 #@! TO.C,REF\002A\002A*
X131430000Y-67760000D03*
G04 #@! TD*
G04 #@! TO.N,GND*
G04 #@! TO.C,REF\002A\002A*
X132430000Y-67760000D03*
G04 #@! TD*
G04 #@! TO.N,GND*
G04 #@! TO.C,REF\002A\002A*
X132430000Y-68760000D03*
G04 #@! TD*
G04 #@! TO.N,GND*
G04 #@! TO.C,REF\002A\002A*
X132430000Y-69760000D03*
G04 #@! TD*
G04 #@! TO.N,GND*
G04 #@! TO.C,REF\002A\002A*
X131430000Y-69760000D03*
G04 #@! TD*
G04 #@! TO.N,GND*
G04 #@! TO.C,REF\002A\002A*
X130430000Y-69760000D03*
G04 #@! TD*
G04 #@! TO.N,GND*
G04 #@! TO.C,REF\002A\002A*
X131430000Y-68760000D03*
G04 #@! TD*
G04 #@! TO.N,GND*
G04 #@! TO.C,REF\002A\002A*
X130430000Y-68760000D03*
G04 #@! TD*
G04 #@! TO.N,GND*
G04 #@! TO.C,REF\002A\002A*
X194160000Y-90525000D03*
G04 #@! TD*
G04 #@! TO.N,GND*
G04 #@! TO.C,REF\002A\002A*
X195160000Y-90525000D03*
G04 #@! TD*
G04 #@! TO.N,GND*
G04 #@! TO.C,REF\002A\002A*
X195160000Y-91525000D03*
G04 #@! TD*
G04 #@! TO.N,GND*
G04 #@! TO.C,REF\002A\002A*
X194160000Y-91525000D03*
G04 #@! TD*
G04 #@! TO.N,GND*
G04 #@! TO.C,REF\002A\002A*
X194160000Y-89525000D03*
G04 #@! TD*
G04 #@! TO.N,GND*
G04 #@! TO.C,REF\002A\002A*
X195160000Y-89525000D03*
G04 #@! TD*
G04 #@! TO.N,GND*
G04 #@! TO.C,REF\002A\002A*
X191990000Y-106505000D03*
G04 #@! TD*
G04 #@! TO.N,GND*
G04 #@! TO.C,REF\002A\002A*
X192990000Y-106505000D03*
G04 #@! TD*
G04 #@! TO.N,GND*
G04 #@! TO.C,REF\002A\002A*
X191990000Y-107505000D03*
G04 #@! TD*
G04 #@! TO.N,GND*
G04 #@! TO.C,REF\002A\002A*
X193990000Y-106505000D03*
G04 #@! TD*
G04 #@! TO.N,GND*
G04 #@! TO.C,REF\002A\002A*
X193990000Y-107505000D03*
G04 #@! TD*
G04 #@! TO.N,GND*
G04 #@! TO.C,REF\002A\002A*
X193990000Y-108505000D03*
G04 #@! TD*
G04 #@! TO.N,GND*
G04 #@! TO.C,REF\002A\002A*
X191990000Y-108505000D03*
G04 #@! TD*
G04 #@! TO.N,GND*
G04 #@! TO.C,REF\002A\002A*
X192990000Y-107505000D03*
G04 #@! TD*
G04 #@! TO.N,GND*
G04 #@! TO.C,REF\002A\002A*
X192990000Y-108505000D03*
G04 #@! TD*
G04 #@! TO.N,GND*
G04 #@! TO.C,REF\002A\002A*
X183040000Y-86965000D03*
G04 #@! TD*
G04 #@! TO.N,GND*
G04 #@! TO.C,REF\002A\002A*
X184040000Y-86965000D03*
G04 #@! TD*
G04 #@! TO.N,GND*
G04 #@! TO.C,REF\002A\002A*
X183040000Y-84965000D03*
G04 #@! TD*
G04 #@! TO.N,GND*
G04 #@! TO.C,REF\002A\002A*
X184040000Y-85965000D03*
G04 #@! TD*
G04 #@! TO.N,GND*
G04 #@! TO.C,REF\002A\002A*
X183040000Y-85965000D03*
G04 #@! TD*
G04 #@! TO.N,GND*
G04 #@! TO.C,REF\002A\002A*
X184040000Y-84965000D03*
G04 #@! TD*
D11*
G04 #@! TO.P,U5,1*
G04 #@! TO.N,Net-(U4-Pad9)*
X154200000Y-105780000D03*
G04 #@! TO.P,U5,2*
G04 #@! TO.N,Net-(U4-Pad11)*
X154200000Y-103240000D03*
G04 #@! TO.P,U5,3*
G04 #@! TO.N,Net-(U3-Pad4)*
X154200000Y-100700000D03*
G04 #@! TO.P,U5,4*
G04 #@! TO.N,Net-(U3-Pad7)*
X154200000Y-98160000D03*
G04 #@! TO.P,U5,5*
G04 #@! TO.N,+5V*
X154200000Y-95620000D03*
G04 #@! TO.P,U5,6*
G04 #@! TO.N,Net-(U3-Pad5)*
X154200000Y-93080000D03*
G04 #@! TO.P,U5,7*
G04 #@! TO.N,Net-(U3-Pad6)*
X154200000Y-90540000D03*
G04 #@! TO.P,U5,8*
G04 #@! TO.N,Net-(U4-Pad2)*
X154200000Y-88000000D03*
G04 #@! TO.P,U5,9*
G04 #@! TO.N,Net-(U4-Pad3)*
X146580000Y-88000000D03*
G04 #@! TO.P,U5,10*
G04 #@! TO.N,Net-(U4-Pad8)*
X146580000Y-90540000D03*
G04 #@! TO.P,U5,11*
G04 #@! TO.N,Net-(U4-Pad7)*
X146580000Y-93080000D03*
G04 #@! TO.P,U5,12*
G04 #@! TO.N,GND*
X146580000Y-95620000D03*
G04 #@! TO.P,U5,13*
G04 #@! TO.N,Net-(U4-Pad5)*
X146580000Y-98160000D03*
G04 #@! TO.P,U5,14*
G04 #@! TO.N,Net-(U4-Pad6)*
X146580000Y-100700000D03*
G04 #@! TO.P,U5,15*
G04 #@! TO.N,Net-(U4-Pad1)*
X146580000Y-103240000D03*
G04 #@! TO.P,U5,16*
G04 #@! TO.N,Net-(U4-Pad12)*
X146580000Y-105780000D03*
G04 #@! TD*
D12*
G04 #@! TO.P,U4,1*
G04 #@! TO.N,Net-(U4-Pad1)*
X144182565Y-70646537D03*
D13*
G04 #@! TD*
G04 #@! TO.N,Net-(U4-Pad1)*
G04 #@! TO.C,U4*
G36*
X145265497Y-71512423D02*
X144184331Y-72033078D01*
X143099633Y-69780651D01*
X144180799Y-69259996D01*
X145265497Y-71512423D01*
X145265497Y-71512423D01*
G37*
D12*
G04 #@! TO.P,U4,2*
G04 #@! TO.N,Net-(U4-Pad2)*
X142524588Y-71968716D03*
D14*
G04 #@! TD*
G04 #@! TO.N,Net-(U4-Pad2)*
G04 #@! TO.C,U4*
X143032776Y-72373987D02*
X142016400Y-71563445D01*
D12*
G04 #@! TO.P,U4,3*
G04 #@! TO.N,Net-(U4-Pad3)*
X141604474Y-73879328D03*
D14*
G04 #@! TD*
G04 #@! TO.N,Net-(U4-Pad3)*
G04 #@! TO.C,U4*
X142238176Y-74023970D02*
X140970772Y-73734686D01*
D12*
G04 #@! TO.P,U4,4*
G04 #@! TO.N,Net-(U4-Pad4)*
X141604463Y-75999954D03*
D14*
G04 #@! TD*
G04 #@! TO.N,Net-(U4-Pad4)*
G04 #@! TO.C,U4*
X142238167Y-75855319D02*
X140970759Y-76144589D01*
D12*
G04 #@! TO.P,U4,5*
G04 #@! TO.N,Net-(U4-Pad5)*
X142524558Y-77910574D03*
D14*
G04 #@! TD*
G04 #@! TO.N,Net-(U4-Pad5)*
G04 #@! TO.C,U4*
X143032750Y-77505308D02*
X142016366Y-78315840D01*
D12*
G04 #@! TO.P,U4,6*
G04 #@! TO.N,Net-(U4-Pad6)*
X144182523Y-79232770D03*
D14*
G04 #@! TD*
G04 #@! TO.N,Net-(U4-Pad6)*
G04 #@! TO.C,U4*
X144464550Y-78647142D02*
X143900496Y-79818398D01*
D12*
G04 #@! TO.P,U4,7*
G04 #@! TO.N,Net-(U4-Pad7)*
X146249976Y-79704664D03*
D14*
G04 #@! TD*
G04 #@! TO.N,Net-(U4-Pad7)*
G04 #@! TO.C,U4*
X146249979Y-79054664D02*
X146249973Y-80354664D01*
D12*
G04 #@! TO.P,U4,8*
G04 #@! TO.N,Net-(U4-Pad8)*
X148317435Y-79232791D03*
D14*
G04 #@! TD*
G04 #@! TO.N,Net-(U4-Pad8)*
G04 #@! TO.C,U4*
X148035413Y-78647160D02*
X148599457Y-79818422D01*
D12*
G04 #@! TO.P,U4,9*
G04 #@! TO.N,Net-(U4-Pad9)*
X149975412Y-77910612D03*
D14*
G04 #@! TD*
G04 #@! TO.N,Net-(U4-Pad9)*
G04 #@! TO.C,U4*
X149467224Y-77505341D02*
X150483600Y-78315883D01*
D12*
G04 #@! TO.P,U4,10*
G04 #@! TO.N,Net-(U4-Pad10)*
X150895526Y-76000000D03*
D14*
G04 #@! TD*
G04 #@! TO.N,Net-(U4-Pad10)*
G04 #@! TO.C,U4*
X150261824Y-75855358D02*
X151529228Y-76144642D01*
D12*
G04 #@! TO.P,U4,11*
G04 #@! TO.N,Net-(U4-Pad11)*
X150895537Y-73879374D03*
D14*
G04 #@! TD*
G04 #@! TO.N,Net-(U4-Pad11)*
G04 #@! TO.C,U4*
X150261833Y-74024009D02*
X151529241Y-73734739D01*
D12*
G04 #@! TO.P,U4,12*
G04 #@! TO.N,Net-(U4-Pad12)*
X149975442Y-71968754D03*
D14*
G04 #@! TD*
G04 #@! TO.N,Net-(U4-Pad12)*
G04 #@! TO.C,U4*
X149467250Y-72374020D02*
X150483634Y-71563488D01*
D12*
G04 #@! TO.P,U4,13*
G04 #@! TO.N,Net-(R2-Pad2)*
X148317477Y-70646558D03*
D14*
G04 #@! TD*
G04 #@! TO.N,Net-(R2-Pad2)*
G04 #@! TO.C,U4*
X148035450Y-71232186D02*
X148599504Y-70060930D01*
D15*
G04 #@! TO.P,J2,1*
G04 #@! TO.N,Net-(J2-Pad1)*
X161610000Y-74270000D03*
D16*
G04 #@! TO.P,J2,2*
G04 #@! TO.N,GND*
X161610000Y-76810000D03*
G04 #@! TD*
D10*
G04 #@! TO.N,GND*
G04 #@! TO.C,REF\002A\002A*
X134605000Y-103920000D03*
G04 #@! TD*
G04 #@! TO.N,GND*
G04 #@! TO.C,REF\002A\002A*
X133605000Y-103920000D03*
G04 #@! TD*
G04 #@! TO.N,GND*
G04 #@! TO.C,REF\002A\002A*
X133605000Y-102920000D03*
G04 #@! TD*
G04 #@! TO.N,GND*
G04 #@! TO.C,REF\002A\002A*
X134605000Y-102920000D03*
G04 #@! TD*
G04 #@! TO.N,GND*
G04 #@! TO.C,REF\002A\002A*
X135605000Y-103920000D03*
G04 #@! TD*
G04 #@! TO.N,GND*
G04 #@! TO.C,REF\002A\002A*
X135605000Y-102920000D03*
G04 #@! TD*
G04 #@! TO.N,GND*
G04 #@! TO.C,REF\002A\002A*
X135605000Y-101920000D03*
G04 #@! TD*
G04 #@! TO.N,GND*
G04 #@! TO.C,REF\002A\002A*
X134605000Y-101920000D03*
G04 #@! TD*
G04 #@! TO.N,GND*
G04 #@! TO.C,REF\002A\002A*
X133605000Y-101920000D03*
G04 #@! TD*
G04 #@! TO.N,GND*
G04 #@! TO.C,REF\002A\002A*
X131680000Y-86800000D03*
G04 #@! TD*
G04 #@! TO.N,GND*
G04 #@! TO.C,REF\002A\002A*
X130680000Y-86800000D03*
G04 #@! TD*
G04 #@! TO.N,GND*
G04 #@! TO.C,REF\002A\002A*
X129680000Y-86800000D03*
G04 #@! TD*
G04 #@! TO.N,GND*
G04 #@! TO.C,REF\002A\002A*
X131680000Y-85800000D03*
G04 #@! TD*
G04 #@! TO.N,GND*
G04 #@! TO.C,REF\002A\002A*
X130680000Y-85800000D03*
G04 #@! TD*
G04 #@! TO.N,GND*
G04 #@! TO.C,REF\002A\002A*
X129680000Y-85800000D03*
G04 #@! TD*
G04 #@! TO.N,GND*
G04 #@! TO.C,REF\002A\002A*
X131680000Y-84800000D03*
G04 #@! TD*
G04 #@! TO.N,GND*
G04 #@! TO.C,REF\002A\002A*
X130680000Y-84800000D03*
G04 #@! TD*
D17*
G04 #@! TO.P,U3,1*
G04 #@! TO.N,Net-(U2-Pad6)*
X129900000Y-100340000D03*
G04 #@! TO.P,U3,2*
G04 #@! TO.N,Net-(U2-Pad7)*
X129900000Y-99070000D03*
G04 #@! TO.P,U3,3*
G04 #@! TO.N,Net-(U2-Pad4)*
X129900000Y-97800000D03*
G04 #@! TO.P,U3,4*
G04 #@! TO.N,Net-(U3-Pad4)*
X129900000Y-96530000D03*
G04 #@! TO.P,U3,5*
G04 #@! TO.N,Net-(U3-Pad5)*
X129900000Y-95260000D03*
G04 #@! TO.P,U3,6*
G04 #@! TO.N,Net-(U3-Pad6)*
X129900000Y-93990000D03*
G04 #@! TO.P,U3,7*
G04 #@! TO.N,Net-(U3-Pad7)*
X129900000Y-92720000D03*
G04 #@! TO.P,U3,8*
G04 #@! TO.N,GND*
X129900000Y-91450000D03*
G04 #@! TO.P,U3,9*
G04 #@! TO.N,Net-(P1-Pad1)*
X135300000Y-91450000D03*
G04 #@! TO.P,U3,10*
G04 #@! TO.N,+5V*
X135300000Y-92720000D03*
G04 #@! TO.P,U3,11*
G04 #@! TO.N,SHIFT_SERIAL_CLOCK*
X135300000Y-93990000D03*
G04 #@! TO.P,U3,12*
G04 #@! TO.N,SHIFT_LATCH_CLOCK*
X135300000Y-95260000D03*
G04 #@! TO.P,U3,13*
G04 #@! TO.N,GND*
X135300000Y-96530000D03*
G04 #@! TO.P,U3,14*
G04 #@! TO.N,SHIFT_OUT*
X135300000Y-97800000D03*
G04 #@! TO.P,U3,15*
G04 #@! TO.N,Net-(U2-Pad3)*
X135300000Y-99070000D03*
G04 #@! TO.P,U3,16*
G04 #@! TO.N,+5V*
X135300000Y-100340000D03*
G04 #@! TD*
D12*
G04 #@! TO.P,U1,1*
G04 #@! TO.N,Net-(U1-Pad1)*
X120232565Y-70606873D03*
D13*
G04 #@! TD*
G04 #@! TO.N,Net-(U1-Pad1)*
G04 #@! TO.C,U1*
G36*
X121315497Y-71472759D02*
X120234331Y-71993414D01*
X119149633Y-69740987D01*
X120230799Y-69220332D01*
X121315497Y-71472759D01*
X121315497Y-71472759D01*
G37*
D12*
G04 #@! TO.P,U1,2*
G04 #@! TO.N,Net-(U1-Pad2)*
X118574588Y-71929052D03*
D14*
G04 #@! TD*
G04 #@! TO.N,Net-(U1-Pad2)*
G04 #@! TO.C,U1*
X119082776Y-72334323D02*
X118066400Y-71523781D01*
D12*
G04 #@! TO.P,U1,3*
G04 #@! TO.N,Net-(U1-Pad3)*
X117654474Y-73839664D03*
D14*
G04 #@! TD*
G04 #@! TO.N,Net-(U1-Pad3)*
G04 #@! TO.C,U1*
X118288176Y-73984306D02*
X117020772Y-73695022D01*
D12*
G04 #@! TO.P,U1,4*
G04 #@! TO.N,Net-(U1-Pad4)*
X117654463Y-75960290D03*
D14*
G04 #@! TD*
G04 #@! TO.N,Net-(U1-Pad4)*
G04 #@! TO.C,U1*
X118288167Y-75815655D02*
X117020759Y-76104925D01*
D12*
G04 #@! TO.P,U1,5*
G04 #@! TO.N,Net-(U1-Pad5)*
X118574558Y-77870910D03*
D14*
G04 #@! TD*
G04 #@! TO.N,Net-(U1-Pad5)*
G04 #@! TO.C,U1*
X119082750Y-77465644D02*
X118066366Y-78276176D01*
D12*
G04 #@! TO.P,U1,6*
G04 #@! TO.N,Net-(U1-Pad6)*
X120232523Y-79193106D03*
D14*
G04 #@! TD*
G04 #@! TO.N,Net-(U1-Pad6)*
G04 #@! TO.C,U1*
X120514550Y-78607478D02*
X119950496Y-79778734D01*
D12*
G04 #@! TO.P,U1,7*
G04 #@! TO.N,Net-(U1-Pad7)*
X122299976Y-79665000D03*
D14*
G04 #@! TD*
G04 #@! TO.N,Net-(U1-Pad7)*
G04 #@! TO.C,U1*
X122299979Y-79015000D02*
X122299973Y-80315000D01*
D12*
G04 #@! TO.P,U1,8*
G04 #@! TO.N,Net-(U1-Pad8)*
X124367435Y-79193127D03*
D14*
G04 #@! TD*
G04 #@! TO.N,Net-(U1-Pad8)*
G04 #@! TO.C,U1*
X124085413Y-78607496D02*
X124649457Y-79778758D01*
D12*
G04 #@! TO.P,U1,9*
G04 #@! TO.N,Net-(U1-Pad9)*
X126025412Y-77870948D03*
D14*
G04 #@! TD*
G04 #@! TO.N,Net-(U1-Pad9)*
G04 #@! TO.C,U1*
X125517224Y-77465677D02*
X126533600Y-78276219D01*
D12*
G04 #@! TO.P,U1,10*
G04 #@! TO.N,Net-(U1-Pad10)*
X126945526Y-75960336D03*
D14*
G04 #@! TD*
G04 #@! TO.N,Net-(U1-Pad10)*
G04 #@! TO.C,U1*
X126311824Y-75815694D02*
X127579228Y-76104978D01*
D12*
G04 #@! TO.P,U1,11*
G04 #@! TO.N,Net-(U1-Pad11)*
X126945537Y-73839710D03*
D14*
G04 #@! TD*
G04 #@! TO.N,Net-(U1-Pad11)*
G04 #@! TO.C,U1*
X126311833Y-73984345D02*
X127579241Y-73695075D01*
D12*
G04 #@! TO.P,U1,12*
G04 #@! TO.N,Net-(U1-Pad12)*
X126025442Y-71929090D03*
D14*
G04 #@! TD*
G04 #@! TO.N,Net-(U1-Pad12)*
G04 #@! TO.C,U1*
X125517250Y-72334356D02*
X126533634Y-71523824D01*
D12*
G04 #@! TO.P,U1,13*
G04 #@! TO.N,Net-(R1-Pad2)*
X124367477Y-70606894D03*
D14*
G04 #@! TD*
G04 #@! TO.N,Net-(R1-Pad2)*
G04 #@! TO.C,U1*
X124085450Y-71192522D02*
X124649504Y-70021266D01*
D11*
G04 #@! TO.P,U2,1*
G04 #@! TO.N,Net-(U1-Pad9)*
X126100000Y-105820000D03*
G04 #@! TO.P,U2,2*
G04 #@! TO.N,Net-(U1-Pad11)*
X126100000Y-103280000D03*
G04 #@! TO.P,U2,3*
G04 #@! TO.N,Net-(U2-Pad3)*
X126100000Y-100740000D03*
G04 #@! TO.P,U2,4*
G04 #@! TO.N,Net-(U2-Pad4)*
X126100000Y-98200000D03*
G04 #@! TO.P,U2,5*
G04 #@! TO.N,+5V*
X126100000Y-95660000D03*
G04 #@! TO.P,U2,6*
G04 #@! TO.N,Net-(U2-Pad6)*
X126100000Y-93120000D03*
G04 #@! TO.P,U2,7*
G04 #@! TO.N,Net-(U2-Pad7)*
X126100000Y-90580000D03*
G04 #@! TO.P,U2,8*
G04 #@! TO.N,Net-(U1-Pad2)*
X126100000Y-88040000D03*
G04 #@! TO.P,U2,9*
G04 #@! TO.N,Net-(U1-Pad3)*
X118480000Y-88040000D03*
G04 #@! TO.P,U2,10*
G04 #@! TO.N,Net-(U1-Pad8)*
X118480000Y-90580000D03*
G04 #@! TO.P,U2,11*
G04 #@! TO.N,Net-(U1-Pad7)*
X118480000Y-93120000D03*
G04 #@! TO.P,U2,12*
G04 #@! TO.N,GND*
X118480000Y-95660000D03*
G04 #@! TO.P,U2,13*
G04 #@! TO.N,Net-(U1-Pad5)*
X118480000Y-98200000D03*
G04 #@! TO.P,U2,14*
G04 #@! TO.N,Net-(U1-Pad6)*
X118480000Y-100740000D03*
G04 #@! TO.P,U2,15*
G04 #@! TO.N,Net-(U1-Pad1)*
X118480000Y-103280000D03*
G04 #@! TO.P,U2,16*
G04 #@! TO.N,Net-(U1-Pad12)*
X118480000Y-105820000D03*
G04 #@! TD*
D18*
G04 #@! TO.P,P3,1*
G04 #@! TO.N,180V*
X128400000Y-66100000D03*
G04 #@! TD*
D10*
G04 #@! TO.N,GND*
G04 #@! TO.C,REF\002A\002A*
X129680000Y-84800000D03*
G04 #@! TD*
D12*
G04 #@! TO.P,U7,1*
G04 #@! TO.N,Net-(U7-Pad1)*
X174432565Y-70706873D03*
D13*
G04 #@! TD*
G04 #@! TO.N,Net-(U7-Pad1)*
G04 #@! TO.C,U7*
G36*
X175515497Y-71572759D02*
X174434331Y-72093414D01*
X173349633Y-69840987D01*
X174430799Y-69320332D01*
X175515497Y-71572759D01*
X175515497Y-71572759D01*
G37*
D12*
G04 #@! TO.P,U7,2*
G04 #@! TO.N,Net-(U7-Pad2)*
X172774588Y-72029052D03*
D14*
G04 #@! TD*
G04 #@! TO.N,Net-(U7-Pad2)*
G04 #@! TO.C,U7*
X173282776Y-72434323D02*
X172266400Y-71623781D01*
D12*
G04 #@! TO.P,U7,3*
G04 #@! TO.N,Net-(U7-Pad3)*
X171854474Y-73939664D03*
D14*
G04 #@! TD*
G04 #@! TO.N,Net-(U7-Pad3)*
G04 #@! TO.C,U7*
X172488176Y-74084306D02*
X171220772Y-73795022D01*
D12*
G04 #@! TO.P,U7,4*
G04 #@! TO.N,Net-(U7-Pad4)*
X171854463Y-76060290D03*
D14*
G04 #@! TD*
G04 #@! TO.N,Net-(U7-Pad4)*
G04 #@! TO.C,U7*
X172488167Y-75915655D02*
X171220759Y-76204925D01*
D12*
G04 #@! TO.P,U7,5*
G04 #@! TO.N,Net-(U7-Pad5)*
X172774558Y-77970910D03*
D14*
G04 #@! TD*
G04 #@! TO.N,Net-(U7-Pad5)*
G04 #@! TO.C,U7*
X173282750Y-77565644D02*
X172266366Y-78376176D01*
D12*
G04 #@! TO.P,U7,6*
G04 #@! TO.N,Net-(U7-Pad6)*
X174432523Y-79293106D03*
D14*
G04 #@! TD*
G04 #@! TO.N,Net-(U7-Pad6)*
G04 #@! TO.C,U7*
X174714550Y-78707478D02*
X174150496Y-79878734D01*
D12*
G04 #@! TO.P,U7,7*
G04 #@! TO.N,Net-(U7-Pad7)*
X176499976Y-79765000D03*
D14*
G04 #@! TD*
G04 #@! TO.N,Net-(U7-Pad7)*
G04 #@! TO.C,U7*
X176499979Y-79115000D02*
X176499973Y-80415000D01*
D12*
G04 #@! TO.P,U7,8*
G04 #@! TO.N,Net-(U7-Pad8)*
X178567435Y-79293127D03*
D14*
G04 #@! TD*
G04 #@! TO.N,Net-(U7-Pad8)*
G04 #@! TO.C,U7*
X178285413Y-78707496D02*
X178849457Y-79878758D01*
D12*
G04 #@! TO.P,U7,9*
G04 #@! TO.N,Net-(U7-Pad9)*
X180225412Y-77970948D03*
D14*
G04 #@! TD*
G04 #@! TO.N,Net-(U7-Pad9)*
G04 #@! TO.C,U7*
X179717224Y-77565677D02*
X180733600Y-78376219D01*
D12*
G04 #@! TO.P,U7,10*
G04 #@! TO.N,Net-(U7-Pad10)*
X181145526Y-76060336D03*
D14*
G04 #@! TD*
G04 #@! TO.N,Net-(U7-Pad10)*
G04 #@! TO.C,U7*
X180511824Y-75915694D02*
X181779228Y-76204978D01*
D12*
G04 #@! TO.P,U7,11*
G04 #@! TO.N,Net-(U7-Pad11)*
X181145537Y-73939710D03*
D14*
G04 #@! TD*
G04 #@! TO.N,Net-(U7-Pad11)*
G04 #@! TO.C,U7*
X180511833Y-74084345D02*
X181779241Y-73795075D01*
D12*
G04 #@! TO.P,U7,12*
G04 #@! TO.N,Net-(U7-Pad12)*
X180225442Y-72029090D03*
D14*
G04 #@! TD*
G04 #@! TO.N,Net-(U7-Pad12)*
G04 #@! TO.C,U7*
X179717250Y-72434356D02*
X180733634Y-71623824D01*
D12*
G04 #@! TO.P,U7,13*
G04 #@! TO.N,Net-(R3-Pad2)*
X178567477Y-70706894D03*
D14*
G04 #@! TD*
G04 #@! TO.N,Net-(R3-Pad2)*
G04 #@! TO.C,U7*
X178285450Y-71292522D02*
X178849504Y-70121266D01*
D19*
G04 #@! TO.P,U8,1*
G04 #@! TO.N,Net-(U7-Pad9)*
X180300000Y-105880000D03*
D20*
G04 #@! TO.P,U8,9*
G04 #@! TO.N,Net-(U7-Pad3)*
X172680000Y-88100000D03*
G04 #@! TO.P,U8,2*
G04 #@! TO.N,Net-(U7-Pad11)*
X180300000Y-103340000D03*
G04 #@! TO.P,U8,10*
G04 #@! TO.N,Net-(U7-Pad8)*
X172680000Y-90640000D03*
G04 #@! TO.P,U8,3*
G04 #@! TO.N,Net-(U8-Pad3)*
X180300000Y-100800000D03*
G04 #@! TO.P,U8,11*
G04 #@! TO.N,Net-(U7-Pad7)*
X172680000Y-93180000D03*
G04 #@! TO.P,U8,4*
G04 #@! TO.N,Net-(U8-Pad4)*
X180300000Y-98260000D03*
G04 #@! TO.P,U8,12*
G04 #@! TO.N,GND*
X172680000Y-95720000D03*
G04 #@! TO.P,U8,5*
G04 #@! TO.N,+5V*
X180300000Y-95720000D03*
G04 #@! TO.P,U8,13*
G04 #@! TO.N,Net-(U7-Pad5)*
X172680000Y-98260000D03*
G04 #@! TO.P,U8,6*
G04 #@! TO.N,Net-(U8-Pad6)*
X180300000Y-93180000D03*
G04 #@! TO.P,U8,14*
G04 #@! TO.N,Net-(U7-Pad6)*
X172680000Y-100800000D03*
G04 #@! TO.P,U8,7*
G04 #@! TO.N,Net-(U8-Pad7)*
X180300000Y-90640000D03*
G04 #@! TO.P,U8,15*
G04 #@! TO.N,Net-(U7-Pad1)*
X172680000Y-103340000D03*
G04 #@! TO.P,U8,8*
G04 #@! TO.N,Net-(U7-Pad2)*
X180300000Y-88100000D03*
G04 #@! TO.P,U8,16*
G04 #@! TO.N,Net-(U7-Pad12)*
X172680000Y-105880000D03*
G04 #@! TD*
D12*
G04 #@! TO.P,U10,1*
G04 #@! TO.N,Net-(U10-Pad1)*
X198432565Y-70706873D03*
D13*
G04 #@! TD*
G04 #@! TO.N,Net-(U10-Pad1)*
G04 #@! TO.C,U10*
G36*
X199515497Y-71572759D02*
X198434331Y-72093414D01*
X197349633Y-69840987D01*
X198430799Y-69320332D01*
X199515497Y-71572759D01*
X199515497Y-71572759D01*
G37*
D12*
G04 #@! TO.P,U10,2*
G04 #@! TO.N,Net-(U10-Pad2)*
X196774588Y-72029052D03*
D14*
G04 #@! TD*
G04 #@! TO.N,Net-(U10-Pad2)*
G04 #@! TO.C,U10*
X197282776Y-72434323D02*
X196266400Y-71623781D01*
D12*
G04 #@! TO.P,U10,3*
G04 #@! TO.N,Net-(U10-Pad3)*
X195854474Y-73939664D03*
D14*
G04 #@! TD*
G04 #@! TO.N,Net-(U10-Pad3)*
G04 #@! TO.C,U10*
X196488176Y-74084306D02*
X195220772Y-73795022D01*
D12*
G04 #@! TO.P,U10,4*
G04 #@! TO.N,Net-(U10-Pad4)*
X195854463Y-76060290D03*
D14*
G04 #@! TD*
G04 #@! TO.N,Net-(U10-Pad4)*
G04 #@! TO.C,U10*
X196488167Y-75915655D02*
X195220759Y-76204925D01*
D12*
G04 #@! TO.P,U10,5*
G04 #@! TO.N,Net-(U10-Pad5)*
X196774558Y-77970910D03*
D14*
G04 #@! TD*
G04 #@! TO.N,Net-(U10-Pad5)*
G04 #@! TO.C,U10*
X197282750Y-77565644D02*
X196266366Y-78376176D01*
D12*
G04 #@! TO.P,U10,6*
G04 #@! TO.N,Net-(U10-Pad6)*
X198432523Y-79293106D03*
D14*
G04 #@! TD*
G04 #@! TO.N,Net-(U10-Pad6)*
G04 #@! TO.C,U10*
X198714550Y-78707478D02*
X198150496Y-79878734D01*
D12*
G04 #@! TO.P,U10,7*
G04 #@! TO.N,Net-(U10-Pad7)*
X200499976Y-79765000D03*
D14*
G04 #@! TD*
G04 #@! TO.N,Net-(U10-Pad7)*
G04 #@! TO.C,U10*
X200499979Y-79115000D02*
X200499973Y-80415000D01*
D12*
G04 #@! TO.P,U10,8*
G04 #@! TO.N,Net-(U10-Pad8)*
X202567435Y-79293127D03*
D14*
G04 #@! TD*
G04 #@! TO.N,Net-(U10-Pad8)*
G04 #@! TO.C,U10*
X202285413Y-78707496D02*
X202849457Y-79878758D01*
D12*
G04 #@! TO.P,U10,9*
G04 #@! TO.N,Net-(U10-Pad9)*
X204225412Y-77970948D03*
D14*
G04 #@! TD*
G04 #@! TO.N,Net-(U10-Pad9)*
G04 #@! TO.C,U10*
X203717224Y-77565677D02*
X204733600Y-78376219D01*
D12*
G04 #@! TO.P,U10,10*
G04 #@! TO.N,Net-(U10-Pad10)*
X205145526Y-76060336D03*
D14*
G04 #@! TD*
G04 #@! TO.N,Net-(U10-Pad10)*
G04 #@! TO.C,U10*
X204511824Y-75915694D02*
X205779228Y-76204978D01*
D12*
G04 #@! TO.P,U10,11*
G04 #@! TO.N,Net-(U10-Pad11)*
X205145537Y-73939710D03*
D14*
G04 #@! TD*
G04 #@! TO.N,Net-(U10-Pad11)*
G04 #@! TO.C,U10*
X204511833Y-74084345D02*
X205779241Y-73795075D01*
D12*
G04 #@! TO.P,U10,12*
G04 #@! TO.N,Net-(U10-Pad12)*
X204225442Y-72029090D03*
D14*
G04 #@! TD*
G04 #@! TO.N,Net-(U10-Pad12)*
G04 #@! TO.C,U10*
X203717250Y-72434356D02*
X204733634Y-71623824D01*
D12*
G04 #@! TO.P,U10,13*
G04 #@! TO.N,Net-(R4-Pad2)*
X202567477Y-70706894D03*
D14*
G04 #@! TD*
G04 #@! TO.N,Net-(R4-Pad2)*
G04 #@! TO.C,U10*
X202285450Y-71292522D02*
X202849504Y-70121266D01*
D19*
G04 #@! TO.P,U11,1*
G04 #@! TO.N,Net-(U10-Pad9)*
X208450000Y-105830000D03*
D20*
G04 #@! TO.P,U11,9*
G04 #@! TO.N,Net-(U10-Pad3)*
X200830000Y-88050000D03*
G04 #@! TO.P,U11,2*
G04 #@! TO.N,Net-(U10-Pad11)*
X208450000Y-103290000D03*
G04 #@! TO.P,U11,10*
G04 #@! TO.N,Net-(U10-Pad8)*
X200830000Y-90590000D03*
G04 #@! TO.P,U11,3*
G04 #@! TO.N,Net-(U11-Pad3)*
X208450000Y-100750000D03*
G04 #@! TO.P,U11,11*
G04 #@! TO.N,Net-(U10-Pad7)*
X200830000Y-93130000D03*
G04 #@! TO.P,U11,4*
G04 #@! TO.N,Net-(U11-Pad4)*
X208450000Y-98210000D03*
G04 #@! TO.P,U11,12*
G04 #@! TO.N,GND*
X200830000Y-95670000D03*
G04 #@! TO.P,U11,5*
G04 #@! TO.N,+5V*
X208450000Y-95670000D03*
G04 #@! TO.P,U11,13*
G04 #@! TO.N,Net-(U10-Pad5)*
X200830000Y-98210000D03*
G04 #@! TO.P,U11,6*
G04 #@! TO.N,Net-(U11-Pad6)*
X208450000Y-93130000D03*
G04 #@! TO.P,U11,14*
G04 #@! TO.N,Net-(U10-Pad6)*
X200830000Y-100750000D03*
G04 #@! TO.P,U11,7*
G04 #@! TO.N,Net-(U11-Pad7)*
X208450000Y-90590000D03*
G04 #@! TO.P,U11,15*
G04 #@! TO.N,Net-(U10-Pad1)*
X200830000Y-103290000D03*
G04 #@! TO.P,U11,8*
G04 #@! TO.N,Net-(U10-Pad2)*
X208450000Y-88050000D03*
G04 #@! TO.P,U11,16*
G04 #@! TO.N,Net-(U10-Pad12)*
X200830000Y-105830000D03*
G04 #@! TD*
D15*
G04 #@! TO.P,P1,1*
G04 #@! TO.N,Net-(P1-Pad1)*
X139240000Y-86770000D03*
G04 #@! TD*
D17*
G04 #@! TO.P,U9,1*
G04 #@! TO.N,Net-(U8-Pad6)*
X184050000Y-100470000D03*
G04 #@! TO.P,U9,2*
G04 #@! TO.N,Net-(U8-Pad7)*
X184050000Y-99200000D03*
G04 #@! TO.P,U9,3*
G04 #@! TO.N,Net-(U8-Pad4)*
X184050000Y-97930000D03*
G04 #@! TO.P,U9,4*
G04 #@! TO.N,Net-(U11-Pad3)*
X184050000Y-96660000D03*
G04 #@! TO.P,U9,5*
G04 #@! TO.N,Net-(U11-Pad6)*
X184050000Y-95390000D03*
G04 #@! TO.P,U9,6*
G04 #@! TO.N,Net-(U11-Pad7)*
X184050000Y-94120000D03*
G04 #@! TO.P,U9,7*
G04 #@! TO.N,Net-(U11-Pad4)*
X184050000Y-92850000D03*
G04 #@! TO.P,U9,8*
G04 #@! TO.N,GND*
X184050000Y-91580000D03*
G04 #@! TO.P,U9,9*
G04 #@! TO.N,SHIFT_OUT*
X189450000Y-91580000D03*
G04 #@! TO.P,U9,10*
G04 #@! TO.N,+5V*
X189450000Y-92850000D03*
G04 #@! TO.P,U9,11*
G04 #@! TO.N,SHIFT_SERIAL_CLOCK*
X189450000Y-94120000D03*
G04 #@! TO.P,U9,12*
G04 #@! TO.N,SHIFT_LATCH_CLOCK*
X189450000Y-95390000D03*
G04 #@! TO.P,U9,13*
G04 #@! TO.N,GND*
X189450000Y-96660000D03*
G04 #@! TO.P,U9,14*
G04 #@! TO.N,SHIFT_SER_DATA*
X189450000Y-97930000D03*
G04 #@! TO.P,U9,15*
G04 #@! TO.N,Net-(U8-Pad3)*
X189450000Y-99200000D03*
G04 #@! TO.P,U9,16*
G04 #@! TO.N,+5V*
X189450000Y-100470000D03*
G04 #@! TD*
D15*
G04 #@! TO.P,J1,1*
G04 #@! TO.N,+5V*
X187280000Y-88400000D03*
D16*
G04 #@! TO.P,J1,2*
G04 #@! TO.N,GND*
X187280000Y-85860000D03*
G04 #@! TO.P,J1,3*
G04 #@! TO.N,SHIFT_SERIAL_CLOCK*
X187280000Y-83320000D03*
G04 #@! TO.P,J1,4*
G04 #@! TO.N,SHIFT_LATCH_CLOCK*
X187280000Y-80780000D03*
G04 #@! TO.P,J1,5*
G04 #@! TO.N,SHIFT_SER_DATA*
X187280000Y-78240000D03*
G04 #@! TD*
D10*
G04 #@! TO.N,Net-(U1-Pad5)*
X116554314Y-85954314D03*
G04 #@! TO.N,Net-(U2-Pad4)*
X130700000Y-97800000D03*
G04 #@! TO.N,+5V*
X163300000Y-108250000D03*
X190800000Y-103300000D03*
X190300000Y-92800000D03*
X138370000Y-103240000D03*
X136780000Y-92850000D03*
G04 #@! TO.N,Net-(U3-Pad4)*
X138470000Y-99140000D03*
X130700000Y-96500000D03*
G04 #@! TO.N,Net-(U3-Pad5)*
X158500000Y-98500000D03*
X139390000Y-103280000D03*
X130700000Y-95300000D03*
G04 #@! TO.N,Net-(U3-Pad6)*
X140390000Y-103280000D03*
X130700000Y-94000000D03*
G04 #@! TO.N,Net-(U3-Pad7)*
X141380000Y-103280000D03*
X130700000Y-92700000D03*
G04 #@! TO.N,Net-(U4-Pad5)*
X143050000Y-83750000D03*
G04 #@! TO.N,SHIFT_SERIAL_CLOCK*
X138370000Y-70190000D03*
X137630000Y-92120000D03*
X183650000Y-68440000D03*
G04 #@! TO.N,SHIFT_LATCH_CLOCK*
X182450000Y-68410000D03*
G04 #@! TO.N,SHIFT_OUT*
X185820000Y-98680000D03*
X137290000Y-99890000D03*
G04 #@! TO.N,Net-(U7-Pad5)*
X170150000Y-85700000D03*
G04 #@! TO.N,Net-(U8-Pad4)*
X185000000Y-97900000D03*
G04 #@! TO.N,Net-(U10-Pad5)*
X196850000Y-83450000D03*
G04 #@! TO.N,Net-(U11-Pad3)*
X191750000Y-100100000D03*
X184950000Y-96700000D03*
G04 #@! TO.N,Net-(U11-Pad4)*
X194650000Y-103200000D03*
X185000000Y-92900000D03*
G04 #@! TO.N,Net-(U11-Pad6)*
X211900010Y-95600000D03*
X192650000Y-103300000D03*
X185050000Y-95450000D03*
G04 #@! TO.N,Net-(U11-Pad7)*
X193700000Y-103250000D03*
X185000000Y-94200000D03*
G04 #@! TD*
D21*
G04 #@! TO.N,Net-(U1-Pad2)*
X117500000Y-70000000D02*
X117500000Y-70854464D01*
X126021384Y-68260000D02*
X119250000Y-68260000D01*
X117500000Y-70000000D02*
X117510000Y-70000000D01*
X117510000Y-70000000D02*
X119250000Y-68260000D01*
X129500000Y-71738616D02*
X126021384Y-68260000D01*
X130011384Y-72250000D02*
X129500000Y-71738616D01*
X130180010Y-78951374D02*
X130180010Y-73000000D01*
X130180008Y-72999998D02*
X130180010Y-73000000D01*
X129500000Y-71738616D02*
X130180008Y-72418624D01*
X130180008Y-72418624D02*
X130180008Y-72999998D01*
X126100000Y-88040000D02*
X126100000Y-83031384D01*
X126100000Y-83031384D02*
X130180010Y-78951374D01*
X117500000Y-70854464D02*
X118574588Y-71929052D01*
G04 #@! TO.N,Net-(U1-Pad5)*
X118574558Y-77870910D02*
X118574558Y-83934070D01*
X118574558Y-83934070D02*
X116554314Y-85954314D01*
G04 #@! TO.N,Net-(U1-Pad6)*
X116490000Y-99100000D02*
X116490000Y-87150000D01*
X120232523Y-79193106D02*
X120232523Y-83407477D01*
X120232523Y-83407477D02*
X116490000Y-87150000D01*
X116490000Y-99100000D02*
X118130000Y-100740000D01*
X118130000Y-100740000D02*
X118480000Y-100740000D01*
G04 #@! TO.N,Net-(U1-Pad7)*
X118480000Y-93120000D02*
X120230000Y-93120000D01*
X120230000Y-93120000D02*
X121629264Y-91720736D01*
X121629264Y-91720736D02*
X121629264Y-80335712D01*
X121629264Y-80335712D02*
X122299976Y-79665000D01*
G04 #@! TO.N,Net-(U1-Pad12)*
X118480000Y-105820000D02*
X118830000Y-105820000D01*
X122450000Y-85500000D02*
X122500000Y-85500000D01*
X118830000Y-105820000D02*
X122429274Y-102220726D01*
X122429274Y-102220726D02*
X122429274Y-85520726D01*
X122429274Y-85520726D02*
X122450000Y-85500000D01*
X129380000Y-72750000D02*
X127500000Y-70870000D01*
X122500000Y-85500000D02*
X129380000Y-78620000D01*
X129380000Y-78620000D02*
X129380000Y-72750000D01*
X127500000Y-70870000D02*
X127084532Y-70870000D01*
X127084532Y-70870000D02*
X126025442Y-71929090D01*
D22*
G04 #@! TO.N,Net-(U2-Pad3)*
X132120000Y-101100000D02*
X128010000Y-101100000D01*
X127650000Y-100740000D02*
X126100000Y-100740000D01*
X128010000Y-101100000D02*
X127650000Y-100740000D01*
X135300000Y-99070000D02*
X134150000Y-99070000D01*
X134150000Y-99070000D02*
X132120000Y-101100000D01*
G04 #@! TO.N,Net-(U2-Pad4)*
X130700000Y-97800000D02*
X129900000Y-97800000D01*
D23*
G04 #@! TO.N,+5V*
X174450000Y-108250000D02*
X163300000Y-108250000D01*
X177500000Y-105200000D02*
X174450000Y-108250000D01*
X177500000Y-96650000D02*
X177500000Y-105200000D01*
X178430000Y-95720000D02*
X177500000Y-96650000D01*
X180300000Y-95720000D02*
X178430000Y-95720000D01*
D22*
X189450000Y-100470000D02*
X189450000Y-101950000D01*
X189450000Y-101950000D02*
X190800000Y-103300000D01*
X190300000Y-92800000D02*
X189500000Y-92800000D01*
X189500000Y-92800000D02*
X189450000Y-92850000D01*
X135800000Y-100340000D02*
X138370000Y-102910000D01*
X138370000Y-102910000D02*
X138370000Y-103240000D01*
X135300000Y-100340000D02*
X135800000Y-100340000D01*
X135300000Y-92720000D02*
X136650000Y-92720000D01*
X136650000Y-92720000D02*
X136780000Y-92850000D01*
G04 #@! TO.N,Net-(U2-Pad6)*
X129900000Y-100340000D02*
X128750000Y-100340000D01*
X128750000Y-100340000D02*
X127900000Y-99490000D01*
X127900000Y-99490000D02*
X127900000Y-94570000D01*
X127900000Y-94570000D02*
X126450000Y-93120000D01*
X126450000Y-93120000D02*
X126100000Y-93120000D01*
G04 #@! TO.N,Net-(U2-Pad7)*
X126100000Y-90580000D02*
X126450000Y-90580000D01*
X126450000Y-90580000D02*
X128500010Y-92630010D01*
X128750000Y-99070000D02*
X129900000Y-99070000D01*
X128500010Y-92630010D02*
X128500010Y-98820010D01*
X128500010Y-98820010D02*
X128750000Y-99070000D01*
G04 #@! TO.N,Net-(U3-Pad4)*
X138800000Y-99510000D02*
X138470000Y-99180000D01*
X138470000Y-99180000D02*
X138470000Y-99140000D01*
X156400000Y-106500000D02*
X154800000Y-108100000D01*
X152300000Y-108100000D02*
X143955626Y-108100000D01*
X154800000Y-108100000D02*
X152300000Y-108100000D01*
X156400000Y-102550000D02*
X156400000Y-106500000D01*
X154200000Y-100700000D02*
X154550000Y-100700000D01*
X154550000Y-100700000D02*
X156400000Y-102550000D01*
X142080001Y-106224375D02*
X142080001Y-102790001D01*
X143955626Y-108100000D02*
X142080001Y-106224375D01*
X142080001Y-102790001D02*
X138800000Y-99510000D01*
X129900000Y-96530000D02*
X130670000Y-96530000D01*
X130670000Y-96530000D02*
X130700000Y-96500000D01*
G04 #@! TO.N,Net-(U3-Pad5)*
X155545598Y-109900028D02*
X158500000Y-106945626D01*
X143210028Y-109900028D02*
X154500000Y-109900028D01*
X154500000Y-109900028D02*
X155545598Y-109900028D01*
X158500000Y-106945626D02*
X158500000Y-98500000D01*
X139390000Y-103280000D02*
X139390000Y-106080000D01*
X139390000Y-106080000D02*
X143210028Y-109900028D01*
X129900000Y-95260000D02*
X130660000Y-95260000D01*
X130660000Y-95260000D02*
X130700000Y-95300000D01*
G04 #@! TO.N,Net-(U3-Pad6)*
X143458561Y-109300019D02*
X154200000Y-109300019D01*
X154200000Y-90540000D02*
X154550000Y-90540000D01*
X157600018Y-106997066D02*
X155297065Y-109300019D01*
X154550000Y-90540000D02*
X157600019Y-93590019D01*
X157600019Y-93590019D02*
X157600018Y-106997066D01*
X155297065Y-109300019D02*
X154200000Y-109300019D01*
X140390000Y-106231458D02*
X143458561Y-109300019D01*
X140390000Y-103280000D02*
X140390000Y-106231458D01*
X130700000Y-94000000D02*
X129910000Y-94000000D01*
X129910000Y-94000000D02*
X129900000Y-93990000D01*
G04 #@! TO.N,Net-(U3-Pad7)*
X143707094Y-108700010D02*
X154400000Y-108700010D01*
X154200000Y-98160000D02*
X155750000Y-98160000D01*
X155750000Y-98160000D02*
X157000010Y-99410010D01*
X157000010Y-99410010D02*
X157000009Y-106748533D01*
X155048532Y-108700010D02*
X154400000Y-108700010D01*
X157000009Y-106748533D02*
X155048532Y-108700010D01*
X141380000Y-103280000D02*
X141380000Y-106372916D01*
X141380000Y-106372916D02*
X143707094Y-108700010D01*
X129900000Y-92720000D02*
X130680000Y-92720000D01*
X130680000Y-92720000D02*
X130700000Y-92700000D01*
D21*
G04 #@! TO.N,Net-(U4-Pad2)*
X143700000Y-67950000D02*
X149431384Y-67950000D01*
X143000000Y-67950000D02*
X143700000Y-67950000D01*
X141577482Y-69372518D02*
X143000000Y-67950000D01*
X142524588Y-71968716D02*
X141577482Y-71021610D01*
X141577482Y-71021610D02*
X141577482Y-69372518D01*
X149431384Y-67950000D02*
X154200000Y-72718616D01*
X154200000Y-72718616D02*
X154200000Y-88000000D01*
X154200000Y-84681384D02*
X154200000Y-88000000D01*
G04 #@! TO.N,Net-(U4-Pad5)*
X142524558Y-77920910D02*
X142524558Y-83224558D01*
X142524558Y-83224558D02*
X143050000Y-83750000D01*
G04 #@! TO.N,Net-(U4-Pad6)*
X144182523Y-79243106D02*
X144182523Y-98652523D01*
X144182523Y-98652523D02*
X146230000Y-100700000D01*
X146230000Y-100700000D02*
X146580000Y-100700000D01*
G04 #@! TO.N,Net-(U4-Pad8)*
X146580000Y-90540000D02*
X148330000Y-90540000D01*
X148330000Y-90540000D02*
X149550000Y-89320000D01*
X149550000Y-89320000D02*
X149550000Y-80475692D01*
X149550000Y-80475692D02*
X148317435Y-79243127D01*
G04 #@! TO.N,Net-(U4-Pad12)*
X149975442Y-71979090D02*
X152329090Y-71979090D01*
X152329090Y-71979090D02*
X153300000Y-72950000D01*
X153300000Y-72950000D02*
X153300000Y-78250000D01*
X150900010Y-80649990D02*
X150900010Y-103259990D01*
X153300000Y-78250000D02*
X150900010Y-80649990D01*
X150900010Y-103259990D02*
X148380000Y-105780000D01*
X148380000Y-105780000D02*
X146580000Y-105780000D01*
D22*
G04 #@! TO.N,SHIFT_SERIAL_CLOCK*
X135300000Y-93990000D02*
X136676002Y-93990000D01*
X136676002Y-93990000D02*
X137630000Y-93036002D01*
X137630000Y-93036002D02*
X137630000Y-92120000D01*
X141910019Y-66649981D02*
X138370000Y-70190000D01*
X183650000Y-68440000D02*
X181859981Y-66649981D01*
X181859981Y-66649981D02*
X141910019Y-66649981D01*
X187280000Y-83320000D02*
X191000001Y-87040001D01*
X191000001Y-87040001D02*
X191000001Y-93719999D01*
X191000001Y-93719999D02*
X190600000Y-94120000D01*
X190600000Y-94120000D02*
X189450000Y-94120000D01*
X189450000Y-94120000D02*
X188950000Y-94120000D01*
G04 #@! TO.N,SHIFT_LATCH_CLOCK*
X182450000Y-68410000D02*
X181289990Y-67249990D01*
X181289990Y-67249990D02*
X142710047Y-67249990D01*
X142710047Y-67249990D02*
X134149999Y-75810038D01*
X134149999Y-75810038D02*
X134150000Y-94610000D01*
X134150000Y-94610000D02*
X134800000Y-95260000D01*
X134800000Y-95260000D02*
X135300000Y-95260000D01*
X187280000Y-80780000D02*
X191600010Y-85100010D01*
X191600010Y-85100010D02*
X191600010Y-94389990D01*
X190600000Y-95390000D02*
X189450000Y-95390000D01*
X191600010Y-94389990D02*
X190600000Y-95390000D01*
G04 #@! TO.N,SHIFT_OUT*
X185820000Y-98680000D02*
X185820000Y-93800000D01*
X185820000Y-93800000D02*
X188040000Y-91580000D01*
X188040000Y-91580000D02*
X189450000Y-91580000D01*
X135300000Y-97800000D02*
X135800000Y-97800000D01*
X135800000Y-97800000D02*
X137290000Y-99290000D01*
X137290000Y-99290000D02*
X137290000Y-99339998D01*
X137290000Y-99339998D02*
X137290000Y-99890000D01*
D21*
G04 #@! TO.N,Net-(U7-Pad2)*
X180300000Y-88100000D02*
X180300000Y-83331384D01*
X180300000Y-83331384D02*
X184550010Y-79081374D01*
X184550010Y-79081374D02*
X184550010Y-72868626D01*
X172774588Y-71161621D02*
X172774588Y-72029052D01*
X184550010Y-72868626D02*
X179831384Y-68150000D01*
X172400000Y-70787033D02*
X172774588Y-71161621D01*
X179831384Y-68150000D02*
X173300000Y-68150000D01*
X173300000Y-68150000D02*
X172400000Y-69050000D01*
X172400000Y-69050000D02*
X172400000Y-70787033D01*
G04 #@! TO.N,Net-(U7-Pad5)*
X172774558Y-77970910D02*
X172774558Y-83075442D01*
X172774558Y-83075442D02*
X170150000Y-85700000D01*
G04 #@! TO.N,Net-(U7-Pad6)*
X170600000Y-86700000D02*
X170600000Y-99120000D01*
X170600000Y-99120000D02*
X172280000Y-100800000D01*
X172280000Y-100800000D02*
X172680000Y-100800000D01*
X174432523Y-82867477D02*
X170600000Y-86700000D01*
X174432523Y-79293106D02*
X174432523Y-82867477D01*
G04 #@! TO.N,Net-(U7-Pad7)*
X172680000Y-93180000D02*
X174480000Y-93180000D01*
X174480000Y-93180000D02*
X176499976Y-91160024D01*
X176499976Y-91160024D02*
X176499976Y-89760024D01*
X176499976Y-79765000D02*
X176499976Y-89760024D01*
G04 #@! TO.N,Net-(U7-Pad12)*
X172680000Y-105880000D02*
X173080000Y-105880000D01*
X175900000Y-92891384D02*
X177299984Y-91491400D01*
X173080000Y-105880000D02*
X175900000Y-103060000D01*
X175900000Y-103060000D02*
X175900000Y-92891384D01*
X177299984Y-91491400D02*
X177299984Y-85200016D01*
X183750000Y-78750000D02*
X183750000Y-73200000D01*
X177299984Y-85200016D02*
X183750000Y-78750000D01*
X183750000Y-73200000D02*
X182579090Y-72029090D01*
X182579090Y-72029090D02*
X180225442Y-72029090D01*
D22*
G04 #@! TO.N,Net-(U8-Pad3)*
X185800000Y-101650000D02*
X188250000Y-99200000D01*
X188250000Y-99200000D02*
X189450000Y-99200000D01*
X182750000Y-101650000D02*
X185800000Y-101650000D01*
X180300000Y-100800000D02*
X181900000Y-100800000D01*
X181900000Y-100800000D02*
X182750000Y-101650000D01*
G04 #@! TO.N,Net-(U8-Pad4)*
X185000000Y-97900000D02*
X184080000Y-97900000D01*
X184080000Y-97900000D02*
X184050000Y-97930000D01*
G04 #@! TO.N,Net-(U8-Pad6)*
X184050000Y-100470000D02*
X183550000Y-100470000D01*
X183550000Y-100470000D02*
X182149990Y-99069990D01*
X182149990Y-99069990D02*
X182149990Y-94629990D01*
X182149990Y-94629990D02*
X180700000Y-93180000D01*
X180700000Y-93180000D02*
X180300000Y-93180000D01*
G04 #@! TO.N,Net-(U8-Pad7)*
X182750000Y-91490000D02*
X182750000Y-98400000D01*
X182750000Y-98400000D02*
X183550000Y-99200000D01*
X183550000Y-99200000D02*
X184050000Y-99200000D01*
X180300000Y-90640000D02*
X181900000Y-90640000D01*
X181900000Y-90640000D02*
X182750000Y-91490000D01*
D21*
G04 #@! TO.N,Net-(U10-Pad2)*
X208450000Y-88050000D02*
X208450000Y-72368616D01*
X208450000Y-72368616D02*
X203831384Y-67750000D01*
X203831384Y-67750000D02*
X197050000Y-67750000D01*
X195827482Y-71077482D02*
X195827482Y-71081946D01*
X197050000Y-67750000D02*
X195050000Y-69750000D01*
X195050000Y-69750000D02*
X195050000Y-70300000D01*
X195050000Y-70300000D02*
X195827482Y-71077482D01*
X195827482Y-71081946D02*
X196774588Y-72029052D01*
G04 #@! TO.N,Net-(U10-Pad5)*
X196774558Y-77970910D02*
X195827453Y-78918015D01*
X196050000Y-82650000D02*
X196850000Y-83450000D01*
X195827453Y-78918015D02*
X195827453Y-82427453D01*
X195827453Y-82427453D02*
X196050000Y-82650000D01*
G04 #@! TO.N,Net-(U10-Pad6)*
X198432523Y-79293106D02*
X198432523Y-98752523D01*
X198432523Y-98752523D02*
X200430000Y-100750000D01*
X200430000Y-100750000D02*
X200830000Y-100750000D01*
G04 #@! TO.N,Net-(U10-Pad8)*
X200830000Y-90590000D02*
X202630000Y-90590000D01*
X202630000Y-90590000D02*
X203467972Y-89752028D01*
X203467972Y-89752028D02*
X203467972Y-80193664D01*
X203467972Y-80193664D02*
X202567435Y-79293127D01*
G04 #@! TO.N,Net-(U10-Pad12)*
X207600000Y-72650000D02*
X206979090Y-72029090D01*
X206979090Y-72029090D02*
X204225442Y-72029090D01*
X207600000Y-78050000D02*
X207600000Y-72650000D01*
X205100000Y-80550000D02*
X207600000Y-78050000D01*
X205100000Y-103360000D02*
X205100000Y-80550000D01*
X200830000Y-105830000D02*
X202630000Y-105830000D01*
X202630000Y-105830000D02*
X205100000Y-103360000D01*
D22*
G04 #@! TO.N,Net-(U11-Pad3)*
X191750000Y-100100000D02*
X191750000Y-100524264D01*
X191750000Y-100524264D02*
X193725735Y-102499999D01*
X193725735Y-102499999D02*
X194999999Y-102499999D01*
X208050000Y-100750000D02*
X208450000Y-100750000D01*
X194999999Y-102499999D02*
X199900000Y-107400000D01*
X205849962Y-102950038D02*
X208050000Y-100750000D01*
X199900000Y-107400000D02*
X202049962Y-107400000D01*
X202049962Y-107400000D02*
X205849962Y-103600000D01*
X205849962Y-103600000D02*
X205849962Y-102950038D01*
X184050000Y-96660000D02*
X184910000Y-96660000D01*
X184910000Y-96660000D02*
X184950000Y-96700000D01*
G04 #@! TO.N,Net-(U11-Pad4)*
X210600000Y-107100000D02*
X210600000Y-99960000D01*
X210600000Y-99960000D02*
X208850000Y-98210000D01*
X208850000Y-98210000D02*
X208450000Y-98210000D01*
X209600000Y-108100000D02*
X210600000Y-107100000D01*
X194650000Y-103200000D02*
X199550000Y-108100000D01*
X199550000Y-108100000D02*
X209600000Y-108100000D01*
X208050000Y-98210000D02*
X208450000Y-98210000D01*
X184050000Y-92850000D02*
X184950000Y-92850000D01*
X184950000Y-92850000D02*
X185000000Y-92900000D01*
G04 #@! TO.N,Net-(U11-Pad6)*
X198901477Y-109300019D02*
X210097066Y-109300018D01*
X210097066Y-109300018D02*
X211900010Y-107497074D01*
X211900010Y-107497074D02*
X211900010Y-95600000D01*
X192650000Y-103300000D02*
X198650019Y-109300019D01*
X198650019Y-109300019D02*
X198901477Y-109300019D01*
X184050000Y-95390000D02*
X184990000Y-95390000D01*
X184990000Y-95390000D02*
X185050000Y-95450000D01*
G04 #@! TO.N,Net-(U11-Pad7)*
X208450000Y-90590000D02*
X208850000Y-90590000D01*
X208850000Y-90590000D02*
X210590000Y-92330000D01*
X210590000Y-92330000D02*
X210590000Y-99101458D01*
X210590000Y-99101458D02*
X211200010Y-99711468D01*
X211200010Y-99711468D02*
X211200010Y-107348532D01*
X211200010Y-107348532D02*
X209848533Y-108700009D01*
X209848533Y-108700009D02*
X199150009Y-108700009D01*
X199150009Y-108700009D02*
X193700000Y-103250000D01*
X184050000Y-94120000D02*
X184920000Y-94120000D01*
X184920000Y-94120000D02*
X185000000Y-94200000D01*
G04 #@! TO.N,Net-(P1-Pad1)*
X135300000Y-91450000D02*
X136450000Y-91450000D01*
X136450000Y-91450000D02*
X139240000Y-88660000D01*
X139240000Y-88660000D02*
X139240000Y-86770000D01*
G04 #@! TO.N,SHIFT_SER_DATA*
X187280000Y-78240000D02*
X192200020Y-83160020D01*
X192200020Y-83160020D02*
X192200020Y-95679980D01*
X192200020Y-95679980D02*
X189950000Y-97930000D01*
X189950000Y-97930000D02*
X189450000Y-97930000D01*
G04 #@! TD*
D24*
G04 #@! TO.N,GND*
G36*
X126801843Y-64852235D02*
X126752560Y-65100000D01*
X126752560Y-67100000D01*
X126801843Y-67347765D01*
X126942191Y-67557809D01*
X127152235Y-67698157D01*
X127400000Y-67747440D01*
X129400000Y-67747440D01*
X129647765Y-67698157D01*
X129857809Y-67557809D01*
X129998157Y-67347765D01*
X130047440Y-67100000D01*
X130047440Y-65100000D01*
X129998157Y-64852235D01*
X129903118Y-64710000D01*
X209958753Y-64710000D01*
X210525708Y-64776100D01*
X211023212Y-64956685D01*
X211465835Y-65246881D01*
X211829823Y-65631116D01*
X212095658Y-66088784D01*
X212251892Y-66604629D01*
X212290001Y-67031629D01*
X212290000Y-94749502D01*
X212085993Y-94665000D01*
X211714027Y-94665000D01*
X211425000Y-94784719D01*
X211425000Y-92412237D01*
X211441358Y-92330000D01*
X211410775Y-92176250D01*
X211376552Y-92004199D01*
X211192001Y-91727999D01*
X211122283Y-91681415D01*
X210266285Y-90825418D01*
X210313113Y-90590000D01*
X210201740Y-90030091D01*
X209884577Y-89555423D01*
X209532242Y-89320000D01*
X209884577Y-89084577D01*
X210201740Y-88609909D01*
X210313113Y-88050000D01*
X210201740Y-87490091D01*
X209884577Y-87015423D01*
X209409909Y-86698260D01*
X209385000Y-86693305D01*
X209385000Y-72460697D01*
X209403316Y-72368615D01*
X209385000Y-72276533D01*
X209385000Y-72276530D01*
X209330750Y-72003797D01*
X209124097Y-71694519D01*
X209046031Y-71642357D01*
X204557645Y-67153972D01*
X204505481Y-67075903D01*
X204196203Y-66869250D01*
X203923470Y-66815000D01*
X203831384Y-66796683D01*
X203739298Y-66815000D01*
X197142085Y-66815000D01*
X197049999Y-66796683D01*
X196685181Y-66869250D01*
X196375903Y-67075903D01*
X196323741Y-67153969D01*
X194453972Y-69023739D01*
X194375903Y-69075903D01*
X194239242Y-69280432D01*
X194169250Y-69385182D01*
X194096683Y-69750000D01*
X194115000Y-69842086D01*
X194115000Y-70207914D01*
X194096683Y-70300000D01*
X194115000Y-70392086D01*
X194169250Y-70664819D01*
X194375904Y-70974097D01*
X194453970Y-71026259D01*
X195028919Y-71601208D01*
X195015123Y-71764759D01*
X195164321Y-72232870D01*
X195401287Y-72513499D01*
X195499602Y-72591904D01*
X195377005Y-72563921D01*
X195009856Y-72553618D01*
X194550846Y-72728828D01*
X194193827Y-73066357D01*
X193993150Y-73514819D01*
X193979368Y-74005938D01*
X194154578Y-74464948D01*
X194492107Y-74821967D01*
X194827366Y-74971989D01*
X194949966Y-74999972D01*
X194827367Y-75027954D01*
X194492106Y-75177972D01*
X194154573Y-75534988D01*
X193979357Y-75993995D01*
X193993134Y-76485115D01*
X194193806Y-76933578D01*
X194550822Y-77271111D01*
X195009829Y-77446327D01*
X195376979Y-77436028D01*
X195499578Y-77408046D01*
X195401262Y-77486450D01*
X195164293Y-77767076D01*
X195015090Y-78235186D01*
X195031241Y-78426677D01*
X194946703Y-78553197D01*
X194874136Y-78918015D01*
X194892453Y-79010101D01*
X194892454Y-82335363D01*
X194874136Y-82427453D01*
X194946703Y-82792271D01*
X195101194Y-83023483D01*
X195153357Y-83101550D01*
X195231423Y-83153712D01*
X195323741Y-83246030D01*
X196057345Y-83979635D01*
X196320365Y-84242655D01*
X196407115Y-84278588D01*
X196485181Y-84330750D01*
X196577267Y-84349067D01*
X196664017Y-84385000D01*
X196757914Y-84385000D01*
X196850000Y-84403317D01*
X196942086Y-84385000D01*
X197035983Y-84385000D01*
X197122734Y-84349067D01*
X197214818Y-84330750D01*
X197292883Y-84278589D01*
X197379635Y-84242655D01*
X197446031Y-84176259D01*
X197497523Y-84141853D01*
X197497524Y-98660432D01*
X197479206Y-98752523D01*
X197551773Y-99117341D01*
X197706264Y-99348553D01*
X197758427Y-99426620D01*
X197836493Y-99478782D01*
X198990251Y-100632541D01*
X198966887Y-100750000D01*
X199078260Y-101309909D01*
X199395423Y-101784577D01*
X199747758Y-102020000D01*
X199395423Y-102255423D01*
X199078260Y-102730091D01*
X198966887Y-103290000D01*
X199078260Y-103849909D01*
X199395423Y-104324577D01*
X199747758Y-104560000D01*
X199395423Y-104795423D01*
X199078260Y-105270091D01*
X199057139Y-105376272D01*
X195648586Y-101967719D01*
X195602000Y-101897998D01*
X195325800Y-101713447D01*
X195082236Y-101664999D01*
X195082232Y-101664999D01*
X194999999Y-101648642D01*
X194917766Y-101664999D01*
X194071603Y-101664999D01*
X192685000Y-100278397D01*
X192685000Y-99914017D01*
X192542655Y-99570365D01*
X192279635Y-99307345D01*
X191935983Y-99165000D01*
X191564017Y-99165000D01*
X191220365Y-99307345D01*
X190957345Y-99570365D01*
X190815000Y-99914017D01*
X190815000Y-100056911D01*
X190798157Y-99972235D01*
X190706459Y-99835000D01*
X190798157Y-99697765D01*
X190847440Y-99450000D01*
X190847440Y-98950000D01*
X190798157Y-98702235D01*
X190706459Y-98565000D01*
X190798157Y-98427765D01*
X190839140Y-98221727D01*
X192732303Y-96328565D01*
X192802021Y-96281981D01*
X192986572Y-96005781D01*
X193035020Y-95762217D01*
X193051378Y-95679980D01*
X193035020Y-95597743D01*
X193035020Y-83242252D01*
X193051377Y-83160019D01*
X193035020Y-83077784D01*
X193035020Y-83077783D01*
X192986572Y-82834219D01*
X192802021Y-82558019D01*
X192732303Y-82511435D01*
X188738807Y-78517939D01*
X188794092Y-78240000D01*
X188678839Y-77660582D01*
X188350625Y-77169375D01*
X187859418Y-76841161D01*
X187426256Y-76755000D01*
X187133744Y-76755000D01*
X186700582Y-76841161D01*
X186209375Y-77169375D01*
X185881161Y-77660582D01*
X185765908Y-78240000D01*
X185881161Y-78819418D01*
X186209375Y-79310625D01*
X186507761Y-79510000D01*
X186209375Y-79709375D01*
X185881161Y-80200582D01*
X185765908Y-80780000D01*
X185881161Y-81359418D01*
X186209375Y-81850625D01*
X186507761Y-82050000D01*
X186209375Y-82249375D01*
X185881161Y-82740582D01*
X185765908Y-83320000D01*
X185881161Y-83899418D01*
X186209375Y-84390625D01*
X186528478Y-84603843D01*
X186398642Y-84664817D01*
X186008355Y-85093076D01*
X185838524Y-85503110D01*
X185959845Y-85733000D01*
X187153000Y-85733000D01*
X187153000Y-85713000D01*
X187407000Y-85713000D01*
X187407000Y-85733000D01*
X187427000Y-85733000D01*
X187427000Y-85987000D01*
X187407000Y-85987000D01*
X187407000Y-86007000D01*
X187153000Y-86007000D01*
X187153000Y-85987000D01*
X185959845Y-85987000D01*
X185838524Y-86216890D01*
X186008355Y-86626924D01*
X186285708Y-86931261D01*
X186182235Y-86951843D01*
X185972191Y-87092191D01*
X185831843Y-87302235D01*
X185782560Y-87550000D01*
X185782560Y-89250000D01*
X185831843Y-89497765D01*
X185972191Y-89707809D01*
X186182235Y-89848157D01*
X186430000Y-89897440D01*
X188130000Y-89897440D01*
X188377765Y-89848157D01*
X188587809Y-89707809D01*
X188728157Y-89497765D01*
X188777440Y-89250000D01*
X188777440Y-87550000D01*
X188728157Y-87302235D01*
X188587809Y-87092191D01*
X188377765Y-86951843D01*
X188274292Y-86931261D01*
X188551645Y-86626924D01*
X188721476Y-86216890D01*
X188600156Y-85987002D01*
X188765000Y-85987002D01*
X188765000Y-85985867D01*
X190165001Y-87385869D01*
X190165002Y-90682560D01*
X188700000Y-90682560D01*
X188452235Y-90731843D01*
X188432544Y-90745000D01*
X188122232Y-90745000D01*
X188039999Y-90728643D01*
X187957766Y-90745000D01*
X187957763Y-90745000D01*
X187714199Y-90793448D01*
X187437999Y-90977999D01*
X187391415Y-91047717D01*
X185873526Y-92565606D01*
X185792655Y-92370365D01*
X185529635Y-92107345D01*
X185185983Y-91965000D01*
X184862541Y-91965000D01*
X184800000Y-91952560D01*
X183585000Y-91952560D01*
X183585000Y-91572237D01*
X183601358Y-91490000D01*
X183554454Y-91254199D01*
X183536552Y-91164199D01*
X183352001Y-90887999D01*
X183282283Y-90841415D01*
X182548587Y-90107720D01*
X182502001Y-90037999D01*
X182225801Y-89853448D01*
X181982237Y-89805000D01*
X181982233Y-89805000D01*
X181900000Y-89788643D01*
X181862045Y-89796193D01*
X181734577Y-89605423D01*
X181382242Y-89370000D01*
X181734577Y-89134577D01*
X182051740Y-88659909D01*
X182163113Y-88100000D01*
X182051740Y-87540091D01*
X181734577Y-87065423D01*
X181259909Y-86748260D01*
X181235000Y-86743305D01*
X181235000Y-83718673D01*
X185146041Y-79807633D01*
X185224107Y-79755471D01*
X185430760Y-79446193D01*
X185485010Y-79173460D01*
X185485010Y-79173459D01*
X185503327Y-79081374D01*
X185485010Y-78989288D01*
X185485010Y-72960712D01*
X185503327Y-72868626D01*
X185470685Y-72704521D01*
X185430760Y-72503807D01*
X185224107Y-72194529D01*
X185146041Y-72142367D01*
X182348673Y-69345000D01*
X182635983Y-69345000D01*
X182979635Y-69202655D01*
X183035000Y-69147290D01*
X183120365Y-69232655D01*
X183464017Y-69375000D01*
X183835983Y-69375000D01*
X184179635Y-69232655D01*
X184442655Y-68969635D01*
X184585000Y-68625983D01*
X184585000Y-68254017D01*
X184442655Y-67910365D01*
X184179635Y-67647345D01*
X183938213Y-67547345D01*
X182966190Y-66575322D01*
X207865000Y-66575322D01*
X207865000Y-67424678D01*
X208190034Y-68209380D01*
X208790620Y-68809966D01*
X209575322Y-69135000D01*
X210424678Y-69135000D01*
X211209380Y-68809966D01*
X211809966Y-68209380D01*
X212135000Y-67424678D01*
X212135000Y-66575322D01*
X211809966Y-65790620D01*
X211209380Y-65190034D01*
X210424678Y-64865000D01*
X209575322Y-64865000D01*
X208790620Y-65190034D01*
X208190034Y-65790620D01*
X207865000Y-66575322D01*
X182966190Y-66575322D01*
X182508568Y-66117701D01*
X182461982Y-66047980D01*
X182185782Y-65863429D01*
X181942218Y-65814981D01*
X181942214Y-65814981D01*
X181859981Y-65798624D01*
X181777748Y-65814981D01*
X141992256Y-65814981D01*
X141910019Y-65798623D01*
X141827782Y-65814981D01*
X141584218Y-65863429D01*
X141308018Y-66047980D01*
X141261434Y-66117698D01*
X138081789Y-69297344D01*
X137840365Y-69397345D01*
X137577345Y-69660365D01*
X137435000Y-70004017D01*
X137435000Y-70375983D01*
X137577345Y-70719635D01*
X137818440Y-70960730D01*
X133617716Y-75161454D01*
X133547998Y-75208038D01*
X133363447Y-75484238D01*
X133314999Y-75727802D01*
X133314999Y-75727805D01*
X133298642Y-75810038D01*
X133314999Y-75892271D01*
X133315001Y-94527762D01*
X133298643Y-94610000D01*
X133363448Y-94935800D01*
X133440661Y-95051357D01*
X133548000Y-95212001D01*
X133617718Y-95258585D01*
X133910860Y-95551728D01*
X133951843Y-95757765D01*
X134040911Y-95891064D01*
X134011673Y-95920302D01*
X133915000Y-96153691D01*
X133915000Y-96246250D01*
X134073750Y-96405000D01*
X135173000Y-96405000D01*
X135173000Y-96383000D01*
X135427000Y-96383000D01*
X135427000Y-96405000D01*
X136526250Y-96405000D01*
X136685000Y-96246250D01*
X136685000Y-96153691D01*
X136588327Y-95920302D01*
X136559089Y-95891064D01*
X136648157Y-95757765D01*
X136697440Y-95510000D01*
X136697440Y-95010000D01*
X136663396Y-94838850D01*
X136676002Y-94841357D01*
X136758235Y-94825000D01*
X136758239Y-94825000D01*
X137001803Y-94776552D01*
X137278003Y-94592001D01*
X137324589Y-94522280D01*
X138162283Y-93684587D01*
X138232001Y-93638003D01*
X138416552Y-93361803D01*
X138465000Y-93118239D01*
X138465000Y-93118238D01*
X138481358Y-93036002D01*
X138465000Y-92953765D01*
X138465000Y-92547405D01*
X138565000Y-92305983D01*
X138565000Y-91934017D01*
X138422655Y-91590365D01*
X138159635Y-91327345D01*
X137872470Y-91208398D01*
X139772283Y-89308585D01*
X139842001Y-89262001D01*
X140026552Y-88985801D01*
X140075000Y-88742237D01*
X140075000Y-88742236D01*
X140091358Y-88660000D01*
X140075000Y-88577763D01*
X140075000Y-88267440D01*
X140090000Y-88267440D01*
X140337765Y-88218157D01*
X140547809Y-88077809D01*
X140688157Y-87867765D01*
X140737440Y-87620000D01*
X140737440Y-85920000D01*
X140688157Y-85672235D01*
X140547809Y-85462191D01*
X140337765Y-85321843D01*
X140090000Y-85272560D01*
X138390000Y-85272560D01*
X138142235Y-85321843D01*
X137932191Y-85462191D01*
X137791843Y-85672235D01*
X137742560Y-85920000D01*
X137742560Y-87620000D01*
X137791843Y-87867765D01*
X137932191Y-88077809D01*
X138142235Y-88218157D01*
X138390000Y-88267440D01*
X138405000Y-88267440D01*
X138405000Y-88314132D01*
X136147232Y-90571901D01*
X136050000Y-90552560D01*
X134985000Y-90552560D01*
X134984998Y-76155906D01*
X140642482Y-70498422D01*
X140642482Y-70929524D01*
X140624165Y-71021610D01*
X140680534Y-71304993D01*
X140696732Y-71386428D01*
X140781274Y-71512955D01*
X140765123Y-71704423D01*
X140914321Y-72172534D01*
X141151287Y-72453163D01*
X141249602Y-72531568D01*
X141127005Y-72503585D01*
X140759856Y-72493282D01*
X140300846Y-72668492D01*
X139943827Y-73006021D01*
X139743150Y-73454483D01*
X139729368Y-73945602D01*
X139904578Y-74404612D01*
X140242107Y-74761631D01*
X140577366Y-74911653D01*
X140699966Y-74939636D01*
X140577367Y-74967618D01*
X140242106Y-75117636D01*
X139904573Y-75474652D01*
X139729357Y-75933659D01*
X139743134Y-76424779D01*
X139943806Y-76873242D01*
X140300822Y-77210775D01*
X140759829Y-77385991D01*
X141126979Y-77375692D01*
X141249578Y-77347710D01*
X141151262Y-77426114D01*
X140914293Y-77706740D01*
X140765090Y-78174850D01*
X140806383Y-78664424D01*
X141031885Y-79100930D01*
X141407266Y-79417913D01*
X141589558Y-79476016D01*
X141589559Y-83132468D01*
X141571241Y-83224558D01*
X141643808Y-83589376D01*
X141784966Y-83800634D01*
X141850462Y-83898655D01*
X141928528Y-83950817D01*
X142257344Y-84279633D01*
X142257345Y-84279635D01*
X142520365Y-84542655D01*
X142607116Y-84578588D01*
X142685181Y-84630750D01*
X142777266Y-84649067D01*
X142864017Y-84685000D01*
X142957917Y-84685000D01*
X143049999Y-84703316D01*
X143142081Y-84685000D01*
X143235983Y-84685000D01*
X143247523Y-84680220D01*
X143247524Y-98560432D01*
X143229206Y-98652523D01*
X143301773Y-99017341D01*
X143456264Y-99248553D01*
X143508427Y-99326620D01*
X143586493Y-99378782D01*
X144790251Y-100582541D01*
X144766887Y-100700000D01*
X144878260Y-101259909D01*
X145195423Y-101734577D01*
X145547758Y-101970000D01*
X145195423Y-102205423D01*
X144878260Y-102680091D01*
X144766887Y-103240000D01*
X144878260Y-103799909D01*
X145195423Y-104274577D01*
X145547758Y-104510000D01*
X145195423Y-104745423D01*
X144878260Y-105220091D01*
X144766887Y-105780000D01*
X144878260Y-106339909D01*
X145195423Y-106814577D01*
X145670091Y-107131740D01*
X146088667Y-107215000D01*
X147071333Y-107215000D01*
X147489909Y-107131740D01*
X147964577Y-106814577D01*
X148031112Y-106715000D01*
X148287914Y-106715000D01*
X148380000Y-106733317D01*
X148472086Y-106715000D01*
X148744819Y-106660750D01*
X149054097Y-106454097D01*
X149106261Y-106376028D01*
X151496041Y-103986249D01*
X151574107Y-103934087D01*
X151780760Y-103624809D01*
X151835010Y-103352076D01*
X151835010Y-103352073D01*
X151853326Y-103259991D01*
X151835010Y-103167909D01*
X151835010Y-81037279D01*
X153265000Y-79607289D01*
X153265001Y-84589295D01*
X153265000Y-84589299D01*
X153265001Y-86665025D01*
X152815423Y-86965423D01*
X152498260Y-87440091D01*
X152386887Y-88000000D01*
X152498260Y-88559909D01*
X152815423Y-89034577D01*
X153167758Y-89270000D01*
X152815423Y-89505423D01*
X152498260Y-89980091D01*
X152386887Y-90540000D01*
X152498260Y-91099909D01*
X152815423Y-91574577D01*
X153167758Y-91810000D01*
X152815423Y-92045423D01*
X152498260Y-92520091D01*
X152386887Y-93080000D01*
X152498260Y-93639909D01*
X152815423Y-94114577D01*
X153167758Y-94350000D01*
X152815423Y-94585423D01*
X152498260Y-95060091D01*
X152386887Y-95620000D01*
X152498260Y-96179909D01*
X152815423Y-96654577D01*
X153167758Y-96890000D01*
X152815423Y-97125423D01*
X152498260Y-97600091D01*
X152386887Y-98160000D01*
X152498260Y-98719909D01*
X152815423Y-99194577D01*
X153167758Y-99430000D01*
X152815423Y-99665423D01*
X152498260Y-100140091D01*
X152386887Y-100700000D01*
X152498260Y-101259909D01*
X152815423Y-101734577D01*
X153167758Y-101970000D01*
X152815423Y-102205423D01*
X152498260Y-102680091D01*
X152386887Y-103240000D01*
X152498260Y-103799909D01*
X152815423Y-104274577D01*
X153167758Y-104510000D01*
X152815423Y-104745423D01*
X152498260Y-105220091D01*
X152386887Y-105780000D01*
X152498260Y-106339909D01*
X152815423Y-106814577D01*
X153290091Y-107131740D01*
X153708667Y-107215000D01*
X154504133Y-107215000D01*
X154454133Y-107265000D01*
X144301495Y-107265000D01*
X142915001Y-105878508D01*
X142915001Y-102872238D01*
X142931359Y-102790001D01*
X142866553Y-102464200D01*
X142835519Y-102417755D01*
X142682002Y-102188000D01*
X142612284Y-102141416D01*
X139448586Y-98977719D01*
X139448584Y-98977716D01*
X139390939Y-98920071D01*
X139262655Y-98610365D01*
X138999635Y-98347345D01*
X138655983Y-98205000D01*
X138284017Y-98205000D01*
X137940365Y-98347345D01*
X137734289Y-98553421D01*
X136689140Y-97508273D01*
X136648157Y-97302235D01*
X136559089Y-97168936D01*
X136588327Y-97139698D01*
X136685000Y-96906309D01*
X136685000Y-96813750D01*
X136526250Y-96655000D01*
X135427000Y-96655000D01*
X135427000Y-96677000D01*
X135173000Y-96677000D01*
X135173000Y-96655000D01*
X134073750Y-96655000D01*
X133915000Y-96813750D01*
X133915000Y-96906309D01*
X134011673Y-97139698D01*
X134040911Y-97168936D01*
X133951843Y-97302235D01*
X133902560Y-97550000D01*
X133902560Y-98050000D01*
X133944245Y-98259569D01*
X133824199Y-98283448D01*
X133547999Y-98467999D01*
X133501415Y-98537717D01*
X131774133Y-100265000D01*
X131297440Y-100265000D01*
X131297440Y-100090000D01*
X131248157Y-99842235D01*
X131156459Y-99705000D01*
X131248157Y-99567765D01*
X131297440Y-99320000D01*
X131297440Y-98820000D01*
X131248472Y-98573818D01*
X131492655Y-98329635D01*
X131635000Y-97985983D01*
X131635000Y-97614017D01*
X131492655Y-97270365D01*
X131372290Y-97150000D01*
X131492655Y-97029635D01*
X131635000Y-96685983D01*
X131635000Y-96314017D01*
X131492655Y-95970365D01*
X131422290Y-95900000D01*
X131492655Y-95829635D01*
X131635000Y-95485983D01*
X131635000Y-95114017D01*
X131492655Y-94770365D01*
X131372290Y-94650000D01*
X131492655Y-94529635D01*
X131635000Y-94185983D01*
X131635000Y-93814017D01*
X131492655Y-93470365D01*
X131372290Y-93350000D01*
X131492655Y-93229635D01*
X131635000Y-92885983D01*
X131635000Y-92514017D01*
X131492655Y-92170365D01*
X131245049Y-91922759D01*
X131285000Y-91826309D01*
X131285000Y-91733750D01*
X131126250Y-91575000D01*
X130027000Y-91575000D01*
X130027000Y-91597000D01*
X129773000Y-91597000D01*
X129773000Y-91575000D01*
X128673750Y-91575000D01*
X128649809Y-91598941D01*
X128124559Y-91073691D01*
X128515000Y-91073691D01*
X128515000Y-91166250D01*
X128673750Y-91325000D01*
X129773000Y-91325000D01*
X129773000Y-90723750D01*
X130027000Y-90723750D01*
X130027000Y-91325000D01*
X131126250Y-91325000D01*
X131285000Y-91166250D01*
X131285000Y-91073691D01*
X131188327Y-90840302D01*
X131009699Y-90661673D01*
X130776310Y-90565000D01*
X130185750Y-90565000D01*
X130027000Y-90723750D01*
X129773000Y-90723750D01*
X129614250Y-90565000D01*
X129023690Y-90565000D01*
X128790301Y-90661673D01*
X128611673Y-90840302D01*
X128515000Y-91073691D01*
X128124559Y-91073691D01*
X127866285Y-90815418D01*
X127913113Y-90580000D01*
X127801740Y-90020091D01*
X127484577Y-89545423D01*
X127132242Y-89310000D01*
X127484577Y-89074577D01*
X127801740Y-88599909D01*
X127913113Y-88040000D01*
X127801740Y-87480091D01*
X127484577Y-87005423D01*
X127035000Y-86705025D01*
X127035000Y-83418673D01*
X130776041Y-79677633D01*
X130854107Y-79625471D01*
X131060760Y-79316193D01*
X131115010Y-79043460D01*
X131115010Y-79043456D01*
X131133326Y-78951375D01*
X131115010Y-78859294D01*
X131115010Y-73092084D01*
X131133327Y-73000000D01*
X131115010Y-72907914D01*
X131115008Y-72907904D01*
X131115008Y-72510710D01*
X131133325Y-72418624D01*
X131108405Y-72293344D01*
X131060758Y-72053805D01*
X130854105Y-71744527D01*
X130776036Y-71692363D01*
X130226261Y-71142588D01*
X130226259Y-71142585D01*
X126747645Y-67663972D01*
X126695481Y-67585903D01*
X126386203Y-67379250D01*
X126113470Y-67325000D01*
X126021384Y-67306683D01*
X125929298Y-67325000D01*
X119342086Y-67325000D01*
X119250000Y-67306683D01*
X119157914Y-67325000D01*
X118885181Y-67379250D01*
X118575903Y-67585903D01*
X118523739Y-67663972D01*
X116934109Y-69253602D01*
X116825903Y-69325903D01*
X116619250Y-69635181D01*
X116546683Y-70000000D01*
X116565000Y-70092086D01*
X116565000Y-70762378D01*
X116546683Y-70854464D01*
X116619250Y-71219282D01*
X116773741Y-71450494D01*
X116825904Y-71528561D01*
X116826574Y-71529009D01*
X116815123Y-71664759D01*
X116964321Y-72132870D01*
X117201287Y-72413499D01*
X117299602Y-72491904D01*
X117177005Y-72463921D01*
X116809856Y-72453618D01*
X116350846Y-72628828D01*
X115993827Y-72966357D01*
X115793150Y-73414819D01*
X115779368Y-73905938D01*
X115954578Y-74364948D01*
X116292107Y-74721967D01*
X116627366Y-74871989D01*
X116749966Y-74899972D01*
X116627367Y-74927954D01*
X116292106Y-75077972D01*
X115954573Y-75434988D01*
X115779357Y-75893995D01*
X115793134Y-76385115D01*
X115993806Y-76833578D01*
X116350822Y-77171111D01*
X116809829Y-77346327D01*
X117176979Y-77336028D01*
X117299578Y-77308046D01*
X117201262Y-77386450D01*
X116964293Y-77667076D01*
X116815090Y-78135186D01*
X116856383Y-78624760D01*
X117081885Y-79061266D01*
X117457266Y-79378249D01*
X117639558Y-79436352D01*
X117639559Y-83546779D01*
X116024681Y-85161658D01*
X116024679Y-85161659D01*
X115761659Y-85424679D01*
X115725725Y-85511432D01*
X115673564Y-85589496D01*
X115655247Y-85681580D01*
X115619314Y-85768331D01*
X115619314Y-85862228D01*
X115600997Y-85954314D01*
X115619314Y-86046400D01*
X115619314Y-86140297D01*
X115655247Y-86227048D01*
X115673564Y-86319132D01*
X115725725Y-86397195D01*
X115761659Y-86483949D01*
X115790954Y-86513244D01*
X115763742Y-86553969D01*
X115763741Y-86553970D01*
X115609250Y-86785182D01*
X115536683Y-87150000D01*
X115555001Y-87242090D01*
X115555000Y-99007914D01*
X115536683Y-99100000D01*
X115600780Y-99422235D01*
X115609250Y-99464818D01*
X115815903Y-99774097D01*
X115893972Y-99826261D01*
X116690251Y-100622541D01*
X116666887Y-100740000D01*
X116778260Y-101299909D01*
X117095423Y-101774577D01*
X117447758Y-102010000D01*
X117095423Y-102245423D01*
X116778260Y-102720091D01*
X116666887Y-103280000D01*
X116778260Y-103839909D01*
X117095423Y-104314577D01*
X117447758Y-104550000D01*
X117095423Y-104785423D01*
X116778260Y-105260091D01*
X116666887Y-105820000D01*
X116778260Y-106379909D01*
X117095423Y-106854577D01*
X117570091Y-107171740D01*
X117988667Y-107255000D01*
X118971333Y-107255000D01*
X119389909Y-107171740D01*
X119864577Y-106854577D01*
X120181740Y-106379909D01*
X120293113Y-105820000D01*
X120269749Y-105702540D01*
X123025305Y-102946985D01*
X123103371Y-102894823D01*
X123310024Y-102585545D01*
X123364274Y-102312812D01*
X123364274Y-102312811D01*
X123382591Y-102220727D01*
X123364274Y-102128641D01*
X123364274Y-85958015D01*
X125165001Y-84157289D01*
X125165000Y-86705025D01*
X124715423Y-87005423D01*
X124398260Y-87480091D01*
X124286887Y-88040000D01*
X124398260Y-88599909D01*
X124715423Y-89074577D01*
X125067758Y-89310000D01*
X124715423Y-89545423D01*
X124398260Y-90020091D01*
X124286887Y-90580000D01*
X124398260Y-91139909D01*
X124715423Y-91614577D01*
X125067758Y-91850000D01*
X124715423Y-92085423D01*
X124398260Y-92560091D01*
X124286887Y-93120000D01*
X124398260Y-93679909D01*
X124715423Y-94154577D01*
X125067758Y-94390000D01*
X124715423Y-94625423D01*
X124398260Y-95100091D01*
X124286887Y-95660000D01*
X124398260Y-96219909D01*
X124715423Y-96694577D01*
X125067758Y-96930000D01*
X124715423Y-97165423D01*
X124398260Y-97640091D01*
X124286887Y-98200000D01*
X124398260Y-98759909D01*
X124715423Y-99234577D01*
X125067758Y-99470000D01*
X124715423Y-99705423D01*
X124398260Y-100180091D01*
X124286887Y-100740000D01*
X124398260Y-101299909D01*
X124715423Y-101774577D01*
X125067758Y-102010000D01*
X124715423Y-102245423D01*
X124398260Y-102720091D01*
X124286887Y-103280000D01*
X124398260Y-103839909D01*
X124715423Y-104314577D01*
X125067758Y-104550000D01*
X124715423Y-104785423D01*
X124398260Y-105260091D01*
X124286887Y-105820000D01*
X124398260Y-106379909D01*
X124715423Y-106854577D01*
X125190091Y-107171740D01*
X125608667Y-107255000D01*
X126591333Y-107255000D01*
X127009909Y-107171740D01*
X127484577Y-106854577D01*
X127801740Y-106379909D01*
X127913113Y-105820000D01*
X127801740Y-105260091D01*
X127484577Y-104785423D01*
X127132242Y-104550000D01*
X127484577Y-104314577D01*
X127801740Y-103839909D01*
X127913113Y-103280000D01*
X127801740Y-102720091D01*
X127484577Y-102245423D01*
X127132242Y-102010000D01*
X127484577Y-101774577D01*
X127494466Y-101759777D01*
X127631613Y-101851415D01*
X127684199Y-101886552D01*
X128010000Y-101951358D01*
X128092237Y-101935000D01*
X132037767Y-101935000D01*
X132120000Y-101951357D01*
X132202233Y-101935000D01*
X132202237Y-101935000D01*
X132445801Y-101886552D01*
X132722001Y-101702001D01*
X132768587Y-101632280D01*
X133902560Y-100498308D01*
X133902560Y-100590000D01*
X133951843Y-100837765D01*
X134092191Y-101047809D01*
X134302235Y-101188157D01*
X134550000Y-101237440D01*
X135516573Y-101237440D01*
X137435000Y-103155868D01*
X137435000Y-103425983D01*
X137577345Y-103769635D01*
X137840365Y-104032655D01*
X138184017Y-104175000D01*
X138555000Y-104175000D01*
X138555001Y-105997762D01*
X138538643Y-106080000D01*
X138603448Y-106405800D01*
X138709822Y-106565000D01*
X138788000Y-106682001D01*
X138857718Y-106728585D01*
X142419131Y-110290000D01*
X137330074Y-110290000D01*
X137261491Y-110303642D01*
X137261487Y-110303642D01*
X137070145Y-110341702D01*
X136994585Y-110373000D01*
X135805416Y-110373000D01*
X135729856Y-110341702D01*
X135538513Y-110303642D01*
X135538509Y-110303642D01*
X135469926Y-110290000D01*
X128330074Y-110290000D01*
X128261491Y-110303642D01*
X128261487Y-110303642D01*
X128070145Y-110341702D01*
X127994585Y-110373000D01*
X126405416Y-110373000D01*
X126329856Y-110341702D01*
X126138513Y-110303642D01*
X126138509Y-110303642D01*
X126069926Y-110290000D01*
X117930074Y-110290000D01*
X117861491Y-110303642D01*
X117861487Y-110303642D01*
X117670145Y-110341702D01*
X117594585Y-110373000D01*
X116405416Y-110373000D01*
X116329856Y-110341702D01*
X116138513Y-110303642D01*
X116131492Y-110303642D01*
X116082221Y-110294777D01*
X115474292Y-110223900D01*
X114976788Y-110043315D01*
X114534166Y-109753118D01*
X114170177Y-109368884D01*
X113904342Y-108911216D01*
X113748108Y-108395371D01*
X113710000Y-107968382D01*
X113710000Y-107575322D01*
X130865000Y-107575322D01*
X130865000Y-108424678D01*
X131190034Y-109209380D01*
X131790620Y-109809966D01*
X132575322Y-110135000D01*
X133424678Y-110135000D01*
X134209380Y-109809966D01*
X134809966Y-109209380D01*
X135135000Y-108424678D01*
X135135000Y-107575322D01*
X134809966Y-106790620D01*
X134209380Y-106190034D01*
X133424678Y-105865000D01*
X132575322Y-105865000D01*
X131790620Y-106190034D01*
X131190034Y-106790620D01*
X130865000Y-107575322D01*
X113710000Y-107575322D01*
X113710000Y-67041247D01*
X113764321Y-66575322D01*
X113865000Y-66575322D01*
X113865000Y-67424678D01*
X114190034Y-68209380D01*
X114790620Y-68809966D01*
X115575322Y-69135000D01*
X116424678Y-69135000D01*
X117209380Y-68809966D01*
X117809966Y-68209380D01*
X118135000Y-67424678D01*
X118135000Y-66575322D01*
X117809966Y-65790620D01*
X117209380Y-65190034D01*
X116424678Y-64865000D01*
X115575322Y-64865000D01*
X114790620Y-65190034D01*
X114190034Y-65790620D01*
X113865000Y-66575322D01*
X113764321Y-66575322D01*
X113776100Y-66474292D01*
X113956685Y-65976788D01*
X114246881Y-65534165D01*
X114631116Y-65170177D01*
X115088784Y-64904342D01*
X115604629Y-64748108D01*
X116031618Y-64710000D01*
X126896882Y-64710000D01*
X126801843Y-64852235D01*
X126801843Y-64852235D01*
G37*
X126801843Y-64852235D02*
X126752560Y-65100000D01*
X126752560Y-67100000D01*
X126801843Y-67347765D01*
X126942191Y-67557809D01*
X127152235Y-67698157D01*
X127400000Y-67747440D01*
X129400000Y-67747440D01*
X129647765Y-67698157D01*
X129857809Y-67557809D01*
X129998157Y-67347765D01*
X130047440Y-67100000D01*
X130047440Y-65100000D01*
X129998157Y-64852235D01*
X129903118Y-64710000D01*
X209958753Y-64710000D01*
X210525708Y-64776100D01*
X211023212Y-64956685D01*
X211465835Y-65246881D01*
X211829823Y-65631116D01*
X212095658Y-66088784D01*
X212251892Y-66604629D01*
X212290001Y-67031629D01*
X212290000Y-94749502D01*
X212085993Y-94665000D01*
X211714027Y-94665000D01*
X211425000Y-94784719D01*
X211425000Y-92412237D01*
X211441358Y-92330000D01*
X211410775Y-92176250D01*
X211376552Y-92004199D01*
X211192001Y-91727999D01*
X211122283Y-91681415D01*
X210266285Y-90825418D01*
X210313113Y-90590000D01*
X210201740Y-90030091D01*
X209884577Y-89555423D01*
X209532242Y-89320000D01*
X209884577Y-89084577D01*
X210201740Y-88609909D01*
X210313113Y-88050000D01*
X210201740Y-87490091D01*
X209884577Y-87015423D01*
X209409909Y-86698260D01*
X209385000Y-86693305D01*
X209385000Y-72460697D01*
X209403316Y-72368615D01*
X209385000Y-72276533D01*
X209385000Y-72276530D01*
X209330750Y-72003797D01*
X209124097Y-71694519D01*
X209046031Y-71642357D01*
X204557645Y-67153972D01*
X204505481Y-67075903D01*
X204196203Y-66869250D01*
X203923470Y-66815000D01*
X203831384Y-66796683D01*
X203739298Y-66815000D01*
X197142085Y-66815000D01*
X197049999Y-66796683D01*
X196685181Y-66869250D01*
X196375903Y-67075903D01*
X196323741Y-67153969D01*
X194453972Y-69023739D01*
X194375903Y-69075903D01*
X194239242Y-69280432D01*
X194169250Y-69385182D01*
X194096683Y-69750000D01*
X194115000Y-69842086D01*
X194115000Y-70207914D01*
X194096683Y-70300000D01*
X194115000Y-70392086D01*
X194169250Y-70664819D01*
X194375904Y-70974097D01*
X194453970Y-71026259D01*
X195028919Y-71601208D01*
X195015123Y-71764759D01*
X195164321Y-72232870D01*
X195401287Y-72513499D01*
X195499602Y-72591904D01*
X195377005Y-72563921D01*
X195009856Y-72553618D01*
X194550846Y-72728828D01*
X194193827Y-73066357D01*
X193993150Y-73514819D01*
X193979368Y-74005938D01*
X194154578Y-74464948D01*
X194492107Y-74821967D01*
X194827366Y-74971989D01*
X194949966Y-74999972D01*
X194827367Y-75027954D01*
X194492106Y-75177972D01*
X194154573Y-75534988D01*
X193979357Y-75993995D01*
X193993134Y-76485115D01*
X194193806Y-76933578D01*
X194550822Y-77271111D01*
X195009829Y-77446327D01*
X195376979Y-77436028D01*
X195499578Y-77408046D01*
X195401262Y-77486450D01*
X195164293Y-77767076D01*
X195015090Y-78235186D01*
X195031241Y-78426677D01*
X194946703Y-78553197D01*
X194874136Y-78918015D01*
X194892453Y-79010101D01*
X194892454Y-82335363D01*
X194874136Y-82427453D01*
X194946703Y-82792271D01*
X195101194Y-83023483D01*
X195153357Y-83101550D01*
X195231423Y-83153712D01*
X195323741Y-83246030D01*
X196057345Y-83979635D01*
X196320365Y-84242655D01*
X196407115Y-84278588D01*
X196485181Y-84330750D01*
X196577267Y-84349067D01*
X196664017Y-84385000D01*
X196757914Y-84385000D01*
X196850000Y-84403317D01*
X196942086Y-84385000D01*
X197035983Y-84385000D01*
X197122734Y-84349067D01*
X197214818Y-84330750D01*
X197292883Y-84278589D01*
X197379635Y-84242655D01*
X197446031Y-84176259D01*
X197497523Y-84141853D01*
X197497524Y-98660432D01*
X197479206Y-98752523D01*
X197551773Y-99117341D01*
X197706264Y-99348553D01*
X197758427Y-99426620D01*
X197836493Y-99478782D01*
X198990251Y-100632541D01*
X198966887Y-100750000D01*
X199078260Y-101309909D01*
X199395423Y-101784577D01*
X199747758Y-102020000D01*
X199395423Y-102255423D01*
X199078260Y-102730091D01*
X198966887Y-103290000D01*
X199078260Y-103849909D01*
X199395423Y-104324577D01*
X199747758Y-104560000D01*
X199395423Y-104795423D01*
X199078260Y-105270091D01*
X199057139Y-105376272D01*
X195648586Y-101967719D01*
X195602000Y-101897998D01*
X195325800Y-101713447D01*
X195082236Y-101664999D01*
X195082232Y-101664999D01*
X194999999Y-101648642D01*
X194917766Y-101664999D01*
X194071603Y-101664999D01*
X192685000Y-100278397D01*
X192685000Y-99914017D01*
X192542655Y-99570365D01*
X192279635Y-99307345D01*
X191935983Y-99165000D01*
X191564017Y-99165000D01*
X191220365Y-99307345D01*
X190957345Y-99570365D01*
X190815000Y-99914017D01*
X190815000Y-100056911D01*
X190798157Y-99972235D01*
X190706459Y-99835000D01*
X190798157Y-99697765D01*
X190847440Y-99450000D01*
X190847440Y-98950000D01*
X190798157Y-98702235D01*
X190706459Y-98565000D01*
X190798157Y-98427765D01*
X190839140Y-98221727D01*
X192732303Y-96328565D01*
X192802021Y-96281981D01*
X192986572Y-96005781D01*
X193035020Y-95762217D01*
X193051378Y-95679980D01*
X193035020Y-95597743D01*
X193035020Y-83242252D01*
X193051377Y-83160019D01*
X193035020Y-83077784D01*
X193035020Y-83077783D01*
X192986572Y-82834219D01*
X192802021Y-82558019D01*
X192732303Y-82511435D01*
X188738807Y-78517939D01*
X188794092Y-78240000D01*
X188678839Y-77660582D01*
X188350625Y-77169375D01*
X187859418Y-76841161D01*
X187426256Y-76755000D01*
X187133744Y-76755000D01*
X186700582Y-76841161D01*
X186209375Y-77169375D01*
X185881161Y-77660582D01*
X185765908Y-78240000D01*
X185881161Y-78819418D01*
X186209375Y-79310625D01*
X186507761Y-79510000D01*
X186209375Y-79709375D01*
X185881161Y-80200582D01*
X185765908Y-80780000D01*
X185881161Y-81359418D01*
X186209375Y-81850625D01*
X186507761Y-82050000D01*
X186209375Y-82249375D01*
X185881161Y-82740582D01*
X185765908Y-83320000D01*
X185881161Y-83899418D01*
X186209375Y-84390625D01*
X186528478Y-84603843D01*
X186398642Y-84664817D01*
X186008355Y-85093076D01*
X185838524Y-85503110D01*
X185959845Y-85733000D01*
X187153000Y-85733000D01*
X187153000Y-85713000D01*
X187407000Y-85713000D01*
X187407000Y-85733000D01*
X187427000Y-85733000D01*
X187427000Y-85987000D01*
X187407000Y-85987000D01*
X187407000Y-86007000D01*
X187153000Y-86007000D01*
X187153000Y-85987000D01*
X185959845Y-85987000D01*
X185838524Y-86216890D01*
X186008355Y-86626924D01*
X186285708Y-86931261D01*
X186182235Y-86951843D01*
X185972191Y-87092191D01*
X185831843Y-87302235D01*
X185782560Y-87550000D01*
X185782560Y-89250000D01*
X185831843Y-89497765D01*
X185972191Y-89707809D01*
X186182235Y-89848157D01*
X186430000Y-89897440D01*
X188130000Y-89897440D01*
X188377765Y-89848157D01*
X188587809Y-89707809D01*
X188728157Y-89497765D01*
X188777440Y-89250000D01*
X188777440Y-87550000D01*
X188728157Y-87302235D01*
X188587809Y-87092191D01*
X188377765Y-86951843D01*
X188274292Y-86931261D01*
X188551645Y-86626924D01*
X188721476Y-86216890D01*
X188600156Y-85987002D01*
X188765000Y-85987002D01*
X188765000Y-85985867D01*
X190165001Y-87385869D01*
X190165002Y-90682560D01*
X188700000Y-90682560D01*
X188452235Y-90731843D01*
X188432544Y-90745000D01*
X188122232Y-90745000D01*
X188039999Y-90728643D01*
X187957766Y-90745000D01*
X187957763Y-90745000D01*
X187714199Y-90793448D01*
X187437999Y-90977999D01*
X187391415Y-91047717D01*
X185873526Y-92565606D01*
X185792655Y-92370365D01*
X185529635Y-92107345D01*
X185185983Y-91965000D01*
X184862541Y-91965000D01*
X184800000Y-91952560D01*
X183585000Y-91952560D01*
X183585000Y-91572237D01*
X183601358Y-91490000D01*
X183554454Y-91254199D01*
X183536552Y-91164199D01*
X183352001Y-90887999D01*
X183282283Y-90841415D01*
X182548587Y-90107720D01*
X182502001Y-90037999D01*
X182225801Y-89853448D01*
X181982237Y-89805000D01*
X181982233Y-89805000D01*
X181900000Y-89788643D01*
X181862045Y-89796193D01*
X181734577Y-89605423D01*
X181382242Y-89370000D01*
X181734577Y-89134577D01*
X182051740Y-88659909D01*
X182163113Y-88100000D01*
X182051740Y-87540091D01*
X181734577Y-87065423D01*
X181259909Y-86748260D01*
X181235000Y-86743305D01*
X181235000Y-83718673D01*
X185146041Y-79807633D01*
X185224107Y-79755471D01*
X185430760Y-79446193D01*
X185485010Y-79173460D01*
X185485010Y-79173459D01*
X185503327Y-79081374D01*
X185485010Y-78989288D01*
X185485010Y-72960712D01*
X185503327Y-72868626D01*
X185470685Y-72704521D01*
X185430760Y-72503807D01*
X185224107Y-72194529D01*
X185146041Y-72142367D01*
X182348673Y-69345000D01*
X182635983Y-69345000D01*
X182979635Y-69202655D01*
X183035000Y-69147290D01*
X183120365Y-69232655D01*
X183464017Y-69375000D01*
X183835983Y-69375000D01*
X184179635Y-69232655D01*
X184442655Y-68969635D01*
X184585000Y-68625983D01*
X184585000Y-68254017D01*
X184442655Y-67910365D01*
X184179635Y-67647345D01*
X183938213Y-67547345D01*
X182966190Y-66575322D01*
X207865000Y-66575322D01*
X207865000Y-67424678D01*
X208190034Y-68209380D01*
X208790620Y-68809966D01*
X209575322Y-69135000D01*
X210424678Y-69135000D01*
X211209380Y-68809966D01*
X211809966Y-68209380D01*
X212135000Y-67424678D01*
X212135000Y-66575322D01*
X211809966Y-65790620D01*
X211209380Y-65190034D01*
X210424678Y-64865000D01*
X209575322Y-64865000D01*
X208790620Y-65190034D01*
X208190034Y-65790620D01*
X207865000Y-66575322D01*
X182966190Y-66575322D01*
X182508568Y-66117701D01*
X182461982Y-66047980D01*
X182185782Y-65863429D01*
X181942218Y-65814981D01*
X181942214Y-65814981D01*
X181859981Y-65798624D01*
X181777748Y-65814981D01*
X141992256Y-65814981D01*
X141910019Y-65798623D01*
X141827782Y-65814981D01*
X141584218Y-65863429D01*
X141308018Y-66047980D01*
X141261434Y-66117698D01*
X138081789Y-69297344D01*
X137840365Y-69397345D01*
X137577345Y-69660365D01*
X137435000Y-70004017D01*
X137435000Y-70375983D01*
X137577345Y-70719635D01*
X137818440Y-70960730D01*
X133617716Y-75161454D01*
X133547998Y-75208038D01*
X133363447Y-75484238D01*
X133314999Y-75727802D01*
X133314999Y-75727805D01*
X133298642Y-75810038D01*
X133314999Y-75892271D01*
X133315001Y-94527762D01*
X133298643Y-94610000D01*
X133363448Y-94935800D01*
X133440661Y-95051357D01*
X133548000Y-95212001D01*
X133617718Y-95258585D01*
X133910860Y-95551728D01*
X133951843Y-95757765D01*
X134040911Y-95891064D01*
X134011673Y-95920302D01*
X133915000Y-96153691D01*
X133915000Y-96246250D01*
X134073750Y-96405000D01*
X135173000Y-96405000D01*
X135173000Y-96383000D01*
X135427000Y-96383000D01*
X135427000Y-96405000D01*
X136526250Y-96405000D01*
X136685000Y-96246250D01*
X136685000Y-96153691D01*
X136588327Y-95920302D01*
X136559089Y-95891064D01*
X136648157Y-95757765D01*
X136697440Y-95510000D01*
X136697440Y-95010000D01*
X136663396Y-94838850D01*
X136676002Y-94841357D01*
X136758235Y-94825000D01*
X136758239Y-94825000D01*
X137001803Y-94776552D01*
X137278003Y-94592001D01*
X137324589Y-94522280D01*
X138162283Y-93684587D01*
X138232001Y-93638003D01*
X138416552Y-93361803D01*
X138465000Y-93118239D01*
X138465000Y-93118238D01*
X138481358Y-93036002D01*
X138465000Y-92953765D01*
X138465000Y-92547405D01*
X138565000Y-92305983D01*
X138565000Y-91934017D01*
X138422655Y-91590365D01*
X138159635Y-91327345D01*
X137872470Y-91208398D01*
X139772283Y-89308585D01*
X139842001Y-89262001D01*
X140026552Y-88985801D01*
X140075000Y-88742237D01*
X140075000Y-88742236D01*
X140091358Y-88660000D01*
X140075000Y-88577763D01*
X140075000Y-88267440D01*
X140090000Y-88267440D01*
X140337765Y-88218157D01*
X140547809Y-88077809D01*
X140688157Y-87867765D01*
X140737440Y-87620000D01*
X140737440Y-85920000D01*
X140688157Y-85672235D01*
X140547809Y-85462191D01*
X140337765Y-85321843D01*
X140090000Y-85272560D01*
X138390000Y-85272560D01*
X138142235Y-85321843D01*
X137932191Y-85462191D01*
X137791843Y-85672235D01*
X137742560Y-85920000D01*
X137742560Y-87620000D01*
X137791843Y-87867765D01*
X137932191Y-88077809D01*
X138142235Y-88218157D01*
X138390000Y-88267440D01*
X138405000Y-88267440D01*
X138405000Y-88314132D01*
X136147232Y-90571901D01*
X136050000Y-90552560D01*
X134985000Y-90552560D01*
X134984998Y-76155906D01*
X140642482Y-70498422D01*
X140642482Y-70929524D01*
X140624165Y-71021610D01*
X140680534Y-71304993D01*
X140696732Y-71386428D01*
X140781274Y-71512955D01*
X140765123Y-71704423D01*
X140914321Y-72172534D01*
X141151287Y-72453163D01*
X141249602Y-72531568D01*
X141127005Y-72503585D01*
X140759856Y-72493282D01*
X140300846Y-72668492D01*
X139943827Y-73006021D01*
X139743150Y-73454483D01*
X139729368Y-73945602D01*
X139904578Y-74404612D01*
X140242107Y-74761631D01*
X140577366Y-74911653D01*
X140699966Y-74939636D01*
X140577367Y-74967618D01*
X140242106Y-75117636D01*
X139904573Y-75474652D01*
X139729357Y-75933659D01*
X139743134Y-76424779D01*
X139943806Y-76873242D01*
X140300822Y-77210775D01*
X140759829Y-77385991D01*
X141126979Y-77375692D01*
X141249578Y-77347710D01*
X141151262Y-77426114D01*
X140914293Y-77706740D01*
X140765090Y-78174850D01*
X140806383Y-78664424D01*
X141031885Y-79100930D01*
X141407266Y-79417913D01*
X141589558Y-79476016D01*
X141589559Y-83132468D01*
X141571241Y-83224558D01*
X141643808Y-83589376D01*
X141784966Y-83800634D01*
X141850462Y-83898655D01*
X141928528Y-83950817D01*
X142257344Y-84279633D01*
X142257345Y-84279635D01*
X142520365Y-84542655D01*
X142607116Y-84578588D01*
X142685181Y-84630750D01*
X142777266Y-84649067D01*
X142864017Y-84685000D01*
X142957917Y-84685000D01*
X143049999Y-84703316D01*
X143142081Y-84685000D01*
X143235983Y-84685000D01*
X143247523Y-84680220D01*
X143247524Y-98560432D01*
X143229206Y-98652523D01*
X143301773Y-99017341D01*
X143456264Y-99248553D01*
X143508427Y-99326620D01*
X143586493Y-99378782D01*
X144790251Y-100582541D01*
X144766887Y-100700000D01*
X144878260Y-101259909D01*
X145195423Y-101734577D01*
X145547758Y-101970000D01*
X145195423Y-102205423D01*
X144878260Y-102680091D01*
X144766887Y-103240000D01*
X144878260Y-103799909D01*
X145195423Y-104274577D01*
X145547758Y-104510000D01*
X145195423Y-104745423D01*
X144878260Y-105220091D01*
X144766887Y-105780000D01*
X144878260Y-106339909D01*
X145195423Y-106814577D01*
X145670091Y-107131740D01*
X146088667Y-107215000D01*
X147071333Y-107215000D01*
X147489909Y-107131740D01*
X147964577Y-106814577D01*
X148031112Y-106715000D01*
X148287914Y-106715000D01*
X148380000Y-106733317D01*
X148472086Y-106715000D01*
X148744819Y-106660750D01*
X149054097Y-106454097D01*
X149106261Y-106376028D01*
X151496041Y-103986249D01*
X151574107Y-103934087D01*
X151780760Y-103624809D01*
X151835010Y-103352076D01*
X151835010Y-103352073D01*
X151853326Y-103259991D01*
X151835010Y-103167909D01*
X151835010Y-81037279D01*
X153265000Y-79607289D01*
X153265001Y-84589295D01*
X153265000Y-84589299D01*
X153265001Y-86665025D01*
X152815423Y-86965423D01*
X152498260Y-87440091D01*
X152386887Y-88000000D01*
X152498260Y-88559909D01*
X152815423Y-89034577D01*
X153167758Y-89270000D01*
X152815423Y-89505423D01*
X152498260Y-89980091D01*
X152386887Y-90540000D01*
X152498260Y-91099909D01*
X152815423Y-91574577D01*
X153167758Y-91810000D01*
X152815423Y-92045423D01*
X152498260Y-92520091D01*
X152386887Y-93080000D01*
X152498260Y-93639909D01*
X152815423Y-94114577D01*
X153167758Y-94350000D01*
X152815423Y-94585423D01*
X152498260Y-95060091D01*
X152386887Y-95620000D01*
X152498260Y-96179909D01*
X152815423Y-96654577D01*
X153167758Y-96890000D01*
X152815423Y-97125423D01*
X152498260Y-97600091D01*
X152386887Y-98160000D01*
X152498260Y-98719909D01*
X152815423Y-99194577D01*
X153167758Y-99430000D01*
X152815423Y-99665423D01*
X152498260Y-100140091D01*
X152386887Y-100700000D01*
X152498260Y-101259909D01*
X152815423Y-101734577D01*
X153167758Y-101970000D01*
X152815423Y-102205423D01*
X152498260Y-102680091D01*
X152386887Y-103240000D01*
X152498260Y-103799909D01*
X152815423Y-104274577D01*
X153167758Y-104510000D01*
X152815423Y-104745423D01*
X152498260Y-105220091D01*
X152386887Y-105780000D01*
X152498260Y-106339909D01*
X152815423Y-106814577D01*
X153290091Y-107131740D01*
X153708667Y-107215000D01*
X154504133Y-107215000D01*
X154454133Y-107265000D01*
X144301495Y-107265000D01*
X142915001Y-105878508D01*
X142915001Y-102872238D01*
X142931359Y-102790001D01*
X142866553Y-102464200D01*
X142835519Y-102417755D01*
X142682002Y-102188000D01*
X142612284Y-102141416D01*
X139448586Y-98977719D01*
X139448584Y-98977716D01*
X139390939Y-98920071D01*
X139262655Y-98610365D01*
X138999635Y-98347345D01*
X138655983Y-98205000D01*
X138284017Y-98205000D01*
X137940365Y-98347345D01*
X137734289Y-98553421D01*
X136689140Y-97508273D01*
X136648157Y-97302235D01*
X136559089Y-97168936D01*
X136588327Y-97139698D01*
X136685000Y-96906309D01*
X136685000Y-96813750D01*
X136526250Y-96655000D01*
X135427000Y-96655000D01*
X135427000Y-96677000D01*
X135173000Y-96677000D01*
X135173000Y-96655000D01*
X134073750Y-96655000D01*
X133915000Y-96813750D01*
X133915000Y-96906309D01*
X134011673Y-97139698D01*
X134040911Y-97168936D01*
X133951843Y-97302235D01*
X133902560Y-97550000D01*
X133902560Y-98050000D01*
X133944245Y-98259569D01*
X133824199Y-98283448D01*
X133547999Y-98467999D01*
X133501415Y-98537717D01*
X131774133Y-100265000D01*
X131297440Y-100265000D01*
X131297440Y-100090000D01*
X131248157Y-99842235D01*
X131156459Y-99705000D01*
X131248157Y-99567765D01*
X131297440Y-99320000D01*
X131297440Y-98820000D01*
X131248472Y-98573818D01*
X131492655Y-98329635D01*
X131635000Y-97985983D01*
X131635000Y-97614017D01*
X131492655Y-97270365D01*
X131372290Y-97150000D01*
X131492655Y-97029635D01*
X131635000Y-96685983D01*
X131635000Y-96314017D01*
X131492655Y-95970365D01*
X131422290Y-95900000D01*
X131492655Y-95829635D01*
X131635000Y-95485983D01*
X131635000Y-95114017D01*
X131492655Y-94770365D01*
X131372290Y-94650000D01*
X131492655Y-94529635D01*
X131635000Y-94185983D01*
X131635000Y-93814017D01*
X131492655Y-93470365D01*
X131372290Y-93350000D01*
X131492655Y-93229635D01*
X131635000Y-92885983D01*
X131635000Y-92514017D01*
X131492655Y-92170365D01*
X131245049Y-91922759D01*
X131285000Y-91826309D01*
X131285000Y-91733750D01*
X131126250Y-91575000D01*
X130027000Y-91575000D01*
X130027000Y-91597000D01*
X129773000Y-91597000D01*
X129773000Y-91575000D01*
X128673750Y-91575000D01*
X128649809Y-91598941D01*
X128124559Y-91073691D01*
X128515000Y-91073691D01*
X128515000Y-91166250D01*
X128673750Y-91325000D01*
X129773000Y-91325000D01*
X129773000Y-90723750D01*
X130027000Y-90723750D01*
X130027000Y-91325000D01*
X131126250Y-91325000D01*
X131285000Y-91166250D01*
X131285000Y-91073691D01*
X131188327Y-90840302D01*
X131009699Y-90661673D01*
X130776310Y-90565000D01*
X130185750Y-90565000D01*
X130027000Y-90723750D01*
X129773000Y-90723750D01*
X129614250Y-90565000D01*
X129023690Y-90565000D01*
X128790301Y-90661673D01*
X128611673Y-90840302D01*
X128515000Y-91073691D01*
X128124559Y-91073691D01*
X127866285Y-90815418D01*
X127913113Y-90580000D01*
X127801740Y-90020091D01*
X127484577Y-89545423D01*
X127132242Y-89310000D01*
X127484577Y-89074577D01*
X127801740Y-88599909D01*
X127913113Y-88040000D01*
X127801740Y-87480091D01*
X127484577Y-87005423D01*
X127035000Y-86705025D01*
X127035000Y-83418673D01*
X130776041Y-79677633D01*
X130854107Y-79625471D01*
X131060760Y-79316193D01*
X131115010Y-79043460D01*
X131115010Y-79043456D01*
X131133326Y-78951375D01*
X131115010Y-78859294D01*
X131115010Y-73092084D01*
X131133327Y-73000000D01*
X131115010Y-72907914D01*
X131115008Y-72907904D01*
X131115008Y-72510710D01*
X131133325Y-72418624D01*
X131108405Y-72293344D01*
X131060758Y-72053805D01*
X130854105Y-71744527D01*
X130776036Y-71692363D01*
X130226261Y-71142588D01*
X130226259Y-71142585D01*
X126747645Y-67663972D01*
X126695481Y-67585903D01*
X126386203Y-67379250D01*
X126113470Y-67325000D01*
X126021384Y-67306683D01*
X125929298Y-67325000D01*
X119342086Y-67325000D01*
X119250000Y-67306683D01*
X119157914Y-67325000D01*
X118885181Y-67379250D01*
X118575903Y-67585903D01*
X118523739Y-67663972D01*
X116934109Y-69253602D01*
X116825903Y-69325903D01*
X116619250Y-69635181D01*
X116546683Y-70000000D01*
X116565000Y-70092086D01*
X116565000Y-70762378D01*
X116546683Y-70854464D01*
X116619250Y-71219282D01*
X116773741Y-71450494D01*
X116825904Y-71528561D01*
X116826574Y-71529009D01*
X116815123Y-71664759D01*
X116964321Y-72132870D01*
X117201287Y-72413499D01*
X117299602Y-72491904D01*
X117177005Y-72463921D01*
X116809856Y-72453618D01*
X116350846Y-72628828D01*
X115993827Y-72966357D01*
X115793150Y-73414819D01*
X115779368Y-73905938D01*
X115954578Y-74364948D01*
X116292107Y-74721967D01*
X116627366Y-74871989D01*
X116749966Y-74899972D01*
X116627367Y-74927954D01*
X116292106Y-75077972D01*
X115954573Y-75434988D01*
X115779357Y-75893995D01*
X115793134Y-76385115D01*
X115993806Y-76833578D01*
X116350822Y-77171111D01*
X116809829Y-77346327D01*
X117176979Y-77336028D01*
X117299578Y-77308046D01*
X117201262Y-77386450D01*
X116964293Y-77667076D01*
X116815090Y-78135186D01*
X116856383Y-78624760D01*
X117081885Y-79061266D01*
X117457266Y-79378249D01*
X117639558Y-79436352D01*
X117639559Y-83546779D01*
X116024681Y-85161658D01*
X116024679Y-85161659D01*
X115761659Y-85424679D01*
X115725725Y-85511432D01*
X115673564Y-85589496D01*
X115655247Y-85681580D01*
X115619314Y-85768331D01*
X115619314Y-85862228D01*
X115600997Y-85954314D01*
X115619314Y-86046400D01*
X115619314Y-86140297D01*
X115655247Y-86227048D01*
X115673564Y-86319132D01*
X115725725Y-86397195D01*
X115761659Y-86483949D01*
X115790954Y-86513244D01*
X115763742Y-86553969D01*
X115763741Y-86553970D01*
X115609250Y-86785182D01*
X115536683Y-87150000D01*
X115555001Y-87242090D01*
X115555000Y-99007914D01*
X115536683Y-99100000D01*
X115600780Y-99422235D01*
X115609250Y-99464818D01*
X115815903Y-99774097D01*
X115893972Y-99826261D01*
X116690251Y-100622541D01*
X116666887Y-100740000D01*
X116778260Y-101299909D01*
X117095423Y-101774577D01*
X117447758Y-102010000D01*
X117095423Y-102245423D01*
X116778260Y-102720091D01*
X116666887Y-103280000D01*
X116778260Y-103839909D01*
X117095423Y-104314577D01*
X117447758Y-104550000D01*
X117095423Y-104785423D01*
X116778260Y-105260091D01*
X116666887Y-105820000D01*
X116778260Y-106379909D01*
X117095423Y-106854577D01*
X117570091Y-107171740D01*
X117988667Y-107255000D01*
X118971333Y-107255000D01*
X119389909Y-107171740D01*
X119864577Y-106854577D01*
X120181740Y-106379909D01*
X120293113Y-105820000D01*
X120269749Y-105702540D01*
X123025305Y-102946985D01*
X123103371Y-102894823D01*
X123310024Y-102585545D01*
X123364274Y-102312812D01*
X123364274Y-102312811D01*
X123382591Y-102220727D01*
X123364274Y-102128641D01*
X123364274Y-85958015D01*
X125165001Y-84157289D01*
X125165000Y-86705025D01*
X124715423Y-87005423D01*
X124398260Y-87480091D01*
X124286887Y-88040000D01*
X124398260Y-88599909D01*
X124715423Y-89074577D01*
X125067758Y-89310000D01*
X124715423Y-89545423D01*
X124398260Y-90020091D01*
X124286887Y-90580000D01*
X124398260Y-91139909D01*
X124715423Y-91614577D01*
X125067758Y-91850000D01*
X124715423Y-92085423D01*
X124398260Y-92560091D01*
X124286887Y-93120000D01*
X124398260Y-93679909D01*
X124715423Y-94154577D01*
X125067758Y-94390000D01*
X124715423Y-94625423D01*
X124398260Y-95100091D01*
X124286887Y-95660000D01*
X124398260Y-96219909D01*
X124715423Y-96694577D01*
X125067758Y-96930000D01*
X124715423Y-97165423D01*
X124398260Y-97640091D01*
X124286887Y-98200000D01*
X124398260Y-98759909D01*
X124715423Y-99234577D01*
X125067758Y-99470000D01*
X124715423Y-99705423D01*
X124398260Y-100180091D01*
X124286887Y-100740000D01*
X124398260Y-101299909D01*
X124715423Y-101774577D01*
X125067758Y-102010000D01*
X124715423Y-102245423D01*
X124398260Y-102720091D01*
X124286887Y-103280000D01*
X124398260Y-103839909D01*
X124715423Y-104314577D01*
X125067758Y-104550000D01*
X124715423Y-104785423D01*
X124398260Y-105260091D01*
X124286887Y-105820000D01*
X124398260Y-106379909D01*
X124715423Y-106854577D01*
X125190091Y-107171740D01*
X125608667Y-107255000D01*
X126591333Y-107255000D01*
X127009909Y-107171740D01*
X127484577Y-106854577D01*
X127801740Y-106379909D01*
X127913113Y-105820000D01*
X127801740Y-105260091D01*
X127484577Y-104785423D01*
X127132242Y-104550000D01*
X127484577Y-104314577D01*
X127801740Y-103839909D01*
X127913113Y-103280000D01*
X127801740Y-102720091D01*
X127484577Y-102245423D01*
X127132242Y-102010000D01*
X127484577Y-101774577D01*
X127494466Y-101759777D01*
X127631613Y-101851415D01*
X127684199Y-101886552D01*
X128010000Y-101951358D01*
X128092237Y-101935000D01*
X132037767Y-101935000D01*
X132120000Y-101951357D01*
X132202233Y-101935000D01*
X132202237Y-101935000D01*
X132445801Y-101886552D01*
X132722001Y-101702001D01*
X132768587Y-101632280D01*
X133902560Y-100498308D01*
X133902560Y-100590000D01*
X133951843Y-100837765D01*
X134092191Y-101047809D01*
X134302235Y-101188157D01*
X134550000Y-101237440D01*
X135516573Y-101237440D01*
X137435000Y-103155868D01*
X137435000Y-103425983D01*
X137577345Y-103769635D01*
X137840365Y-104032655D01*
X138184017Y-104175000D01*
X138555000Y-104175000D01*
X138555001Y-105997762D01*
X138538643Y-106080000D01*
X138603448Y-106405800D01*
X138709822Y-106565000D01*
X138788000Y-106682001D01*
X138857718Y-106728585D01*
X142419131Y-110290000D01*
X137330074Y-110290000D01*
X137261491Y-110303642D01*
X137261487Y-110303642D01*
X137070145Y-110341702D01*
X136994585Y-110373000D01*
X135805416Y-110373000D01*
X135729856Y-110341702D01*
X135538513Y-110303642D01*
X135538509Y-110303642D01*
X135469926Y-110290000D01*
X128330074Y-110290000D01*
X128261491Y-110303642D01*
X128261487Y-110303642D01*
X128070145Y-110341702D01*
X127994585Y-110373000D01*
X126405416Y-110373000D01*
X126329856Y-110341702D01*
X126138513Y-110303642D01*
X126138509Y-110303642D01*
X126069926Y-110290000D01*
X117930074Y-110290000D01*
X117861491Y-110303642D01*
X117861487Y-110303642D01*
X117670145Y-110341702D01*
X117594585Y-110373000D01*
X116405416Y-110373000D01*
X116329856Y-110341702D01*
X116138513Y-110303642D01*
X116131492Y-110303642D01*
X116082221Y-110294777D01*
X115474292Y-110223900D01*
X114976788Y-110043315D01*
X114534166Y-109753118D01*
X114170177Y-109368884D01*
X113904342Y-108911216D01*
X113748108Y-108395371D01*
X113710000Y-107968382D01*
X113710000Y-107575322D01*
X130865000Y-107575322D01*
X130865000Y-108424678D01*
X131190034Y-109209380D01*
X131790620Y-109809966D01*
X132575322Y-110135000D01*
X133424678Y-110135000D01*
X134209380Y-109809966D01*
X134809966Y-109209380D01*
X135135000Y-108424678D01*
X135135000Y-107575322D01*
X134809966Y-106790620D01*
X134209380Y-106190034D01*
X133424678Y-105865000D01*
X132575322Y-105865000D01*
X131790620Y-106190034D01*
X131190034Y-106790620D01*
X130865000Y-107575322D01*
X113710000Y-107575322D01*
X113710000Y-67041247D01*
X113764321Y-66575322D01*
X113865000Y-66575322D01*
X113865000Y-67424678D01*
X114190034Y-68209380D01*
X114790620Y-68809966D01*
X115575322Y-69135000D01*
X116424678Y-69135000D01*
X117209380Y-68809966D01*
X117809966Y-68209380D01*
X118135000Y-67424678D01*
X118135000Y-66575322D01*
X117809966Y-65790620D01*
X117209380Y-65190034D01*
X116424678Y-64865000D01*
X115575322Y-64865000D01*
X114790620Y-65190034D01*
X114190034Y-65790620D01*
X113865000Y-66575322D01*
X113764321Y-66575322D01*
X113776100Y-66474292D01*
X113956685Y-65976788D01*
X114246881Y-65534165D01*
X114631116Y-65170177D01*
X115088784Y-64904342D01*
X115604629Y-64748108D01*
X116031618Y-64710000D01*
X126896882Y-64710000D01*
X126801843Y-64852235D01*
G36*
X171803972Y-68323739D02*
X171725903Y-68375903D01*
X171543500Y-68648889D01*
X171519250Y-68685182D01*
X171446683Y-69050000D01*
X171465000Y-69142086D01*
X171465001Y-70684091D01*
X171281927Y-70838681D01*
X171056421Y-71275185D01*
X171015123Y-71764759D01*
X171164321Y-72232870D01*
X171401287Y-72513499D01*
X171499602Y-72591904D01*
X171377005Y-72563921D01*
X171009856Y-72553618D01*
X170550846Y-72728828D01*
X170193827Y-73066357D01*
X169993150Y-73514819D01*
X169979368Y-74005938D01*
X170154578Y-74464948D01*
X170492107Y-74821967D01*
X170827366Y-74971989D01*
X170949966Y-74999972D01*
X170827367Y-75027954D01*
X170492106Y-75177972D01*
X170154573Y-75534988D01*
X169979357Y-75993995D01*
X169993134Y-76485115D01*
X170193806Y-76933578D01*
X170550822Y-77271111D01*
X171009829Y-77446327D01*
X171376979Y-77436028D01*
X171499578Y-77408046D01*
X171401262Y-77486450D01*
X171164293Y-77767076D01*
X171015090Y-78235186D01*
X171056383Y-78724760D01*
X171281885Y-79161266D01*
X171657266Y-79478249D01*
X171839558Y-79536352D01*
X171839559Y-82688152D01*
X169620367Y-84907344D01*
X169620365Y-84907345D01*
X169357345Y-85170365D01*
X169321411Y-85257118D01*
X169269250Y-85335182D01*
X169250933Y-85427266D01*
X169215000Y-85514017D01*
X169215000Y-85607914D01*
X169196683Y-85700000D01*
X169215000Y-85792086D01*
X169215000Y-85885983D01*
X169250933Y-85972734D01*
X169269250Y-86064818D01*
X169321411Y-86142881D01*
X169357345Y-86229635D01*
X169423745Y-86296035D01*
X169475904Y-86374096D01*
X169553965Y-86426255D01*
X169620365Y-86492655D01*
X169682784Y-86518510D01*
X169646683Y-86700000D01*
X169665000Y-86792086D01*
X169665001Y-99027910D01*
X169646683Y-99120000D01*
X169719250Y-99484818D01*
X169873741Y-99716030D01*
X169925904Y-99794097D01*
X170003970Y-99846259D01*
X170840251Y-100682541D01*
X170816887Y-100800000D01*
X170928260Y-101359909D01*
X171245423Y-101834577D01*
X171597758Y-102070000D01*
X171245423Y-102305423D01*
X170928260Y-102780091D01*
X170816887Y-103340000D01*
X170928260Y-103899909D01*
X171245423Y-104374577D01*
X171597758Y-104610000D01*
X171245423Y-104845423D01*
X170928260Y-105320091D01*
X170816887Y-105880000D01*
X170928260Y-106439909D01*
X171245423Y-106914577D01*
X171695038Y-107215000D01*
X163198065Y-107215000D01*
X162896163Y-107275052D01*
X162553807Y-107503807D01*
X162325052Y-107846163D01*
X162244724Y-108250000D01*
X162325052Y-108653837D01*
X162553807Y-108996193D01*
X162896163Y-109224948D01*
X163198065Y-109285000D01*
X174348066Y-109285000D01*
X174450000Y-109305276D01*
X174551934Y-109285000D01*
X174551935Y-109285000D01*
X174853837Y-109224948D01*
X175196193Y-108996193D01*
X175253937Y-108909773D01*
X176488388Y-107675322D01*
X185065000Y-107675322D01*
X185065000Y-108524678D01*
X185390034Y-109309380D01*
X185990620Y-109909966D01*
X186775322Y-110235000D01*
X187624678Y-110235000D01*
X188409380Y-109909966D01*
X189009966Y-109309380D01*
X189335000Y-108524678D01*
X189335000Y-107675322D01*
X189009966Y-106890620D01*
X188409380Y-106290034D01*
X187624678Y-105965000D01*
X186775322Y-105965000D01*
X185990620Y-106290034D01*
X185390034Y-106890620D01*
X185065000Y-107675322D01*
X176488388Y-107675322D01*
X178159776Y-106003935D01*
X178246193Y-105946193D01*
X178452560Y-105637343D01*
X178452560Y-106680000D01*
X178501843Y-106927765D01*
X178642191Y-107137809D01*
X178852235Y-107278157D01*
X179100000Y-107327440D01*
X181500000Y-107327440D01*
X181747765Y-107278157D01*
X181957809Y-107137809D01*
X182098157Y-106927765D01*
X182147440Y-106680000D01*
X182147440Y-105080000D01*
X182098157Y-104832235D01*
X181957809Y-104622191D01*
X181747765Y-104481843D01*
X181613894Y-104455215D01*
X181734577Y-104374577D01*
X182051740Y-103899909D01*
X182163113Y-103340000D01*
X182051740Y-102780091D01*
X181734577Y-102305423D01*
X181382242Y-102070000D01*
X181734577Y-101834577D01*
X181742240Y-101823108D01*
X182101414Y-102182282D01*
X182147999Y-102252001D01*
X182424199Y-102436552D01*
X182667763Y-102485000D01*
X182750000Y-102501358D01*
X182832237Y-102485000D01*
X185717767Y-102485000D01*
X185800000Y-102501357D01*
X185882233Y-102485000D01*
X185882237Y-102485000D01*
X186125801Y-102436552D01*
X186402001Y-102252001D01*
X186448587Y-102182280D01*
X188052560Y-100578308D01*
X188052560Y-100720000D01*
X188101843Y-100967765D01*
X188242191Y-101177809D01*
X188452235Y-101318157D01*
X188615001Y-101350533D01*
X188615001Y-101867762D01*
X188598643Y-101950000D01*
X188663448Y-102275800D01*
X188712120Y-102348643D01*
X188848000Y-102552001D01*
X188917718Y-102598585D01*
X189907345Y-103588214D01*
X190007345Y-103829635D01*
X190270365Y-104092655D01*
X190614017Y-104235000D01*
X190985983Y-104235000D01*
X191329635Y-104092655D01*
X191592655Y-103829635D01*
X191725000Y-103510125D01*
X191857345Y-103829635D01*
X192120365Y-104092655D01*
X192361789Y-104192656D01*
X198001434Y-109832302D01*
X198048018Y-109902020D01*
X198324218Y-110086571D01*
X198567782Y-110135019D01*
X198567785Y-110135019D01*
X198650018Y-110151376D01*
X198732251Y-110135019D01*
X198983714Y-110135019D01*
X210014828Y-110135017D01*
X210097066Y-110151375D01*
X210422866Y-110086570D01*
X210629349Y-109948602D01*
X210699067Y-109902018D01*
X210745651Y-109832300D01*
X212246554Y-108331398D01*
X212223900Y-108525708D01*
X212043315Y-109023212D01*
X211753118Y-109465834D01*
X211368884Y-109829823D01*
X210911216Y-110095658D01*
X210395371Y-110251892D01*
X209968382Y-110290000D01*
X205930074Y-110290000D01*
X205861491Y-110303642D01*
X205861487Y-110303642D01*
X205670145Y-110341702D01*
X205594585Y-110373000D01*
X204005416Y-110373000D01*
X203929856Y-110341702D01*
X203738513Y-110303642D01*
X203738509Y-110303642D01*
X203669926Y-110290000D01*
X195530074Y-110290000D01*
X195461491Y-110303642D01*
X195461487Y-110303642D01*
X195270145Y-110341702D01*
X195194585Y-110373000D01*
X194005416Y-110373000D01*
X193929856Y-110341702D01*
X193738513Y-110303642D01*
X193738509Y-110303642D01*
X193669926Y-110290000D01*
X186530074Y-110290000D01*
X186461491Y-110303642D01*
X186461487Y-110303642D01*
X186270145Y-110341702D01*
X186194585Y-110373000D01*
X184605416Y-110373000D01*
X184529856Y-110341702D01*
X184338513Y-110303642D01*
X184338509Y-110303642D01*
X184269926Y-110290000D01*
X176130074Y-110290000D01*
X176061491Y-110303642D01*
X176061487Y-110303642D01*
X175870145Y-110341702D01*
X175794585Y-110373000D01*
X174605416Y-110373000D01*
X174529856Y-110341702D01*
X174338513Y-110303642D01*
X174338509Y-110303642D01*
X174269926Y-110290000D01*
X167130074Y-110290000D01*
X167061491Y-110303642D01*
X167061487Y-110303642D01*
X166870145Y-110341702D01*
X166794585Y-110373000D01*
X165205416Y-110373000D01*
X165129856Y-110341702D01*
X164938513Y-110303642D01*
X164938509Y-110303642D01*
X164869926Y-110290000D01*
X156730074Y-110290000D01*
X156661491Y-110303642D01*
X156661487Y-110303642D01*
X156470145Y-110341702D01*
X156394585Y-110373000D01*
X156253493Y-110373000D01*
X159032286Y-107594209D01*
X159102001Y-107547627D01*
X159253775Y-107320482D01*
X159286552Y-107271427D01*
X159306381Y-107171740D01*
X159335000Y-107027863D01*
X159335000Y-107027860D01*
X159351357Y-106945627D01*
X159335000Y-106863394D01*
X159335000Y-98927405D01*
X159435000Y-98685983D01*
X159435000Y-98314017D01*
X159292655Y-97970365D01*
X159029635Y-97707345D01*
X158685983Y-97565000D01*
X158435018Y-97565000D01*
X158435019Y-93672251D01*
X158451376Y-93590018D01*
X158435019Y-93507782D01*
X158390146Y-93282191D01*
X158386571Y-93264218D01*
X158248603Y-93057735D01*
X158248602Y-93057734D01*
X158202020Y-92988019D01*
X158132305Y-92941437D01*
X155966285Y-90775418D01*
X156013113Y-90540000D01*
X155901740Y-89980091D01*
X155584577Y-89505423D01*
X155232242Y-89270000D01*
X155584577Y-89034577D01*
X155901740Y-88559909D01*
X156013113Y-88000000D01*
X155901740Y-87440091D01*
X155584577Y-86965423D01*
X155135000Y-86665025D01*
X155135000Y-77166890D01*
X160168524Y-77166890D01*
X160338355Y-77576924D01*
X160728642Y-78005183D01*
X161253108Y-78251486D01*
X161483000Y-78130819D01*
X161483000Y-76937000D01*
X161737000Y-76937000D01*
X161737000Y-78130819D01*
X161966892Y-78251486D01*
X162491358Y-78005183D01*
X162881645Y-77576924D01*
X163051476Y-77166890D01*
X162930155Y-76937000D01*
X161737000Y-76937000D01*
X161483000Y-76937000D01*
X160289845Y-76937000D01*
X160168524Y-77166890D01*
X155135000Y-77166890D01*
X155135000Y-73420000D01*
X160112560Y-73420000D01*
X160112560Y-75120000D01*
X160161843Y-75367765D01*
X160302191Y-75577809D01*
X160512235Y-75718157D01*
X160615708Y-75738739D01*
X160338355Y-76043076D01*
X160168524Y-76453110D01*
X160289845Y-76683000D01*
X161483000Y-76683000D01*
X161483000Y-76663000D01*
X161737000Y-76663000D01*
X161737000Y-76683000D01*
X162930155Y-76683000D01*
X163051476Y-76453110D01*
X162881645Y-76043076D01*
X162604292Y-75738739D01*
X162707765Y-75718157D01*
X162917809Y-75577809D01*
X163058157Y-75367765D01*
X163107440Y-75120000D01*
X163107440Y-73420000D01*
X163058157Y-73172235D01*
X162917809Y-72962191D01*
X162707765Y-72821843D01*
X162460000Y-72772560D01*
X160760000Y-72772560D01*
X160512235Y-72821843D01*
X160302191Y-72962191D01*
X160161843Y-73172235D01*
X160112560Y-73420000D01*
X155135000Y-73420000D01*
X155135000Y-72810696D01*
X155153316Y-72718615D01*
X155135000Y-72626534D01*
X155135000Y-72626530D01*
X155080750Y-72353797D01*
X154874097Y-72044519D01*
X154796031Y-71992357D01*
X150888663Y-68084990D01*
X172042721Y-68084990D01*
X171803972Y-68323739D01*
X171803972Y-68323739D01*
G37*
X171803972Y-68323739D02*
X171725903Y-68375903D01*
X171543500Y-68648889D01*
X171519250Y-68685182D01*
X171446683Y-69050000D01*
X171465000Y-69142086D01*
X171465001Y-70684091D01*
X171281927Y-70838681D01*
X171056421Y-71275185D01*
X171015123Y-71764759D01*
X171164321Y-72232870D01*
X171401287Y-72513499D01*
X171499602Y-72591904D01*
X171377005Y-72563921D01*
X171009856Y-72553618D01*
X170550846Y-72728828D01*
X170193827Y-73066357D01*
X169993150Y-73514819D01*
X169979368Y-74005938D01*
X170154578Y-74464948D01*
X170492107Y-74821967D01*
X170827366Y-74971989D01*
X170949966Y-74999972D01*
X170827367Y-75027954D01*
X170492106Y-75177972D01*
X170154573Y-75534988D01*
X169979357Y-75993995D01*
X169993134Y-76485115D01*
X170193806Y-76933578D01*
X170550822Y-77271111D01*
X171009829Y-77446327D01*
X171376979Y-77436028D01*
X171499578Y-77408046D01*
X171401262Y-77486450D01*
X171164293Y-77767076D01*
X171015090Y-78235186D01*
X171056383Y-78724760D01*
X171281885Y-79161266D01*
X171657266Y-79478249D01*
X171839558Y-79536352D01*
X171839559Y-82688152D01*
X169620367Y-84907344D01*
X169620365Y-84907345D01*
X169357345Y-85170365D01*
X169321411Y-85257118D01*
X169269250Y-85335182D01*
X169250933Y-85427266D01*
X169215000Y-85514017D01*
X169215000Y-85607914D01*
X169196683Y-85700000D01*
X169215000Y-85792086D01*
X169215000Y-85885983D01*
X169250933Y-85972734D01*
X169269250Y-86064818D01*
X169321411Y-86142881D01*
X169357345Y-86229635D01*
X169423745Y-86296035D01*
X169475904Y-86374096D01*
X169553965Y-86426255D01*
X169620365Y-86492655D01*
X169682784Y-86518510D01*
X169646683Y-86700000D01*
X169665000Y-86792086D01*
X169665001Y-99027910D01*
X169646683Y-99120000D01*
X169719250Y-99484818D01*
X169873741Y-99716030D01*
X169925904Y-99794097D01*
X170003970Y-99846259D01*
X170840251Y-100682541D01*
X170816887Y-100800000D01*
X170928260Y-101359909D01*
X171245423Y-101834577D01*
X171597758Y-102070000D01*
X171245423Y-102305423D01*
X170928260Y-102780091D01*
X170816887Y-103340000D01*
X170928260Y-103899909D01*
X171245423Y-104374577D01*
X171597758Y-104610000D01*
X171245423Y-104845423D01*
X170928260Y-105320091D01*
X170816887Y-105880000D01*
X170928260Y-106439909D01*
X171245423Y-106914577D01*
X171695038Y-107215000D01*
X163198065Y-107215000D01*
X162896163Y-107275052D01*
X162553807Y-107503807D01*
X162325052Y-107846163D01*
X162244724Y-108250000D01*
X162325052Y-108653837D01*
X162553807Y-108996193D01*
X162896163Y-109224948D01*
X163198065Y-109285000D01*
X174348066Y-109285000D01*
X174450000Y-109305276D01*
X174551934Y-109285000D01*
X174551935Y-109285000D01*
X174853837Y-109224948D01*
X175196193Y-108996193D01*
X175253937Y-108909773D01*
X176488388Y-107675322D01*
X185065000Y-107675322D01*
X185065000Y-108524678D01*
X185390034Y-109309380D01*
X185990620Y-109909966D01*
X186775322Y-110235000D01*
X187624678Y-110235000D01*
X188409380Y-109909966D01*
X189009966Y-109309380D01*
X189335000Y-108524678D01*
X189335000Y-107675322D01*
X189009966Y-106890620D01*
X188409380Y-106290034D01*
X187624678Y-105965000D01*
X186775322Y-105965000D01*
X185990620Y-106290034D01*
X185390034Y-106890620D01*
X185065000Y-107675322D01*
X176488388Y-107675322D01*
X178159776Y-106003935D01*
X178246193Y-105946193D01*
X178452560Y-105637343D01*
X178452560Y-106680000D01*
X178501843Y-106927765D01*
X178642191Y-107137809D01*
X178852235Y-107278157D01*
X179100000Y-107327440D01*
X181500000Y-107327440D01*
X181747765Y-107278157D01*
X181957809Y-107137809D01*
X182098157Y-106927765D01*
X182147440Y-106680000D01*
X182147440Y-105080000D01*
X182098157Y-104832235D01*
X181957809Y-104622191D01*
X181747765Y-104481843D01*
X181613894Y-104455215D01*
X181734577Y-104374577D01*
X182051740Y-103899909D01*
X182163113Y-103340000D01*
X182051740Y-102780091D01*
X181734577Y-102305423D01*
X181382242Y-102070000D01*
X181734577Y-101834577D01*
X181742240Y-101823108D01*
X182101414Y-102182282D01*
X182147999Y-102252001D01*
X182424199Y-102436552D01*
X182667763Y-102485000D01*
X182750000Y-102501358D01*
X182832237Y-102485000D01*
X185717767Y-102485000D01*
X185800000Y-102501357D01*
X185882233Y-102485000D01*
X185882237Y-102485000D01*
X186125801Y-102436552D01*
X186402001Y-102252001D01*
X186448587Y-102182280D01*
X188052560Y-100578308D01*
X188052560Y-100720000D01*
X188101843Y-100967765D01*
X188242191Y-101177809D01*
X188452235Y-101318157D01*
X188615001Y-101350533D01*
X188615001Y-101867762D01*
X188598643Y-101950000D01*
X188663448Y-102275800D01*
X188712120Y-102348643D01*
X188848000Y-102552001D01*
X188917718Y-102598585D01*
X189907345Y-103588214D01*
X190007345Y-103829635D01*
X190270365Y-104092655D01*
X190614017Y-104235000D01*
X190985983Y-104235000D01*
X191329635Y-104092655D01*
X191592655Y-103829635D01*
X191725000Y-103510125D01*
X191857345Y-103829635D01*
X192120365Y-104092655D01*
X192361789Y-104192656D01*
X198001434Y-109832302D01*
X198048018Y-109902020D01*
X198324218Y-110086571D01*
X198567782Y-110135019D01*
X198567785Y-110135019D01*
X198650018Y-110151376D01*
X198732251Y-110135019D01*
X198983714Y-110135019D01*
X210014828Y-110135017D01*
X210097066Y-110151375D01*
X210422866Y-110086570D01*
X210629349Y-109948602D01*
X210699067Y-109902018D01*
X210745651Y-109832300D01*
X212246554Y-108331398D01*
X212223900Y-108525708D01*
X212043315Y-109023212D01*
X211753118Y-109465834D01*
X211368884Y-109829823D01*
X210911216Y-110095658D01*
X210395371Y-110251892D01*
X209968382Y-110290000D01*
X205930074Y-110290000D01*
X205861491Y-110303642D01*
X205861487Y-110303642D01*
X205670145Y-110341702D01*
X205594585Y-110373000D01*
X204005416Y-110373000D01*
X203929856Y-110341702D01*
X203738513Y-110303642D01*
X203738509Y-110303642D01*
X203669926Y-110290000D01*
X195530074Y-110290000D01*
X195461491Y-110303642D01*
X195461487Y-110303642D01*
X195270145Y-110341702D01*
X195194585Y-110373000D01*
X194005416Y-110373000D01*
X193929856Y-110341702D01*
X193738513Y-110303642D01*
X193738509Y-110303642D01*
X193669926Y-110290000D01*
X186530074Y-110290000D01*
X186461491Y-110303642D01*
X186461487Y-110303642D01*
X186270145Y-110341702D01*
X186194585Y-110373000D01*
X184605416Y-110373000D01*
X184529856Y-110341702D01*
X184338513Y-110303642D01*
X184338509Y-110303642D01*
X184269926Y-110290000D01*
X176130074Y-110290000D01*
X176061491Y-110303642D01*
X176061487Y-110303642D01*
X175870145Y-110341702D01*
X175794585Y-110373000D01*
X174605416Y-110373000D01*
X174529856Y-110341702D01*
X174338513Y-110303642D01*
X174338509Y-110303642D01*
X174269926Y-110290000D01*
X167130074Y-110290000D01*
X167061491Y-110303642D01*
X167061487Y-110303642D01*
X166870145Y-110341702D01*
X166794585Y-110373000D01*
X165205416Y-110373000D01*
X165129856Y-110341702D01*
X164938513Y-110303642D01*
X164938509Y-110303642D01*
X164869926Y-110290000D01*
X156730074Y-110290000D01*
X156661491Y-110303642D01*
X156661487Y-110303642D01*
X156470145Y-110341702D01*
X156394585Y-110373000D01*
X156253493Y-110373000D01*
X159032286Y-107594209D01*
X159102001Y-107547627D01*
X159253775Y-107320482D01*
X159286552Y-107271427D01*
X159306381Y-107171740D01*
X159335000Y-107027863D01*
X159335000Y-107027860D01*
X159351357Y-106945627D01*
X159335000Y-106863394D01*
X159335000Y-98927405D01*
X159435000Y-98685983D01*
X159435000Y-98314017D01*
X159292655Y-97970365D01*
X159029635Y-97707345D01*
X158685983Y-97565000D01*
X158435018Y-97565000D01*
X158435019Y-93672251D01*
X158451376Y-93590018D01*
X158435019Y-93507782D01*
X158390146Y-93282191D01*
X158386571Y-93264218D01*
X158248603Y-93057735D01*
X158248602Y-93057734D01*
X158202020Y-92988019D01*
X158132305Y-92941437D01*
X155966285Y-90775418D01*
X156013113Y-90540000D01*
X155901740Y-89980091D01*
X155584577Y-89505423D01*
X155232242Y-89270000D01*
X155584577Y-89034577D01*
X155901740Y-88559909D01*
X156013113Y-88000000D01*
X155901740Y-87440091D01*
X155584577Y-86965423D01*
X155135000Y-86665025D01*
X155135000Y-77166890D01*
X160168524Y-77166890D01*
X160338355Y-77576924D01*
X160728642Y-78005183D01*
X161253108Y-78251486D01*
X161483000Y-78130819D01*
X161483000Y-76937000D01*
X161737000Y-76937000D01*
X161737000Y-78130819D01*
X161966892Y-78251486D01*
X162491358Y-78005183D01*
X162881645Y-77576924D01*
X163051476Y-77166890D01*
X162930155Y-76937000D01*
X161737000Y-76937000D01*
X161483000Y-76937000D01*
X160289845Y-76937000D01*
X160168524Y-77166890D01*
X155135000Y-77166890D01*
X155135000Y-73420000D01*
X160112560Y-73420000D01*
X160112560Y-75120000D01*
X160161843Y-75367765D01*
X160302191Y-75577809D01*
X160512235Y-75718157D01*
X160615708Y-75738739D01*
X160338355Y-76043076D01*
X160168524Y-76453110D01*
X160289845Y-76683000D01*
X161483000Y-76683000D01*
X161483000Y-76663000D01*
X161737000Y-76663000D01*
X161737000Y-76683000D01*
X162930155Y-76683000D01*
X163051476Y-76453110D01*
X162881645Y-76043076D01*
X162604292Y-75738739D01*
X162707765Y-75718157D01*
X162917809Y-75577809D01*
X163058157Y-75367765D01*
X163107440Y-75120000D01*
X163107440Y-73420000D01*
X163058157Y-73172235D01*
X162917809Y-72962191D01*
X162707765Y-72821843D01*
X162460000Y-72772560D01*
X160760000Y-72772560D01*
X160512235Y-72821843D01*
X160302191Y-72962191D01*
X160161843Y-73172235D01*
X160112560Y-73420000D01*
X155135000Y-73420000D01*
X155135000Y-72810696D01*
X155153316Y-72718615D01*
X155135000Y-72626534D01*
X155135000Y-72626530D01*
X155080750Y-72353797D01*
X154874097Y-72044519D01*
X154796031Y-71992357D01*
X150888663Y-68084990D01*
X172042721Y-68084990D01*
X171803972Y-68323739D01*
G36*
X204165000Y-102972710D02*
X202295704Y-104842007D01*
X202264577Y-104795423D01*
X201912242Y-104560000D01*
X202264577Y-104324577D01*
X202581740Y-103849909D01*
X202693113Y-103290000D01*
X202581740Y-102730091D01*
X202264577Y-102255423D01*
X201912242Y-102020000D01*
X202264577Y-101784577D01*
X202581740Y-101309909D01*
X202693113Y-100750000D01*
X202581740Y-100190091D01*
X202264577Y-99715423D01*
X201912242Y-99480000D01*
X202264577Y-99244577D01*
X202581740Y-98769909D01*
X202693113Y-98210000D01*
X202581740Y-97650091D01*
X202264577Y-97175423D01*
X201789909Y-96858260D01*
X201371333Y-96775000D01*
X200288667Y-96775000D01*
X199870091Y-96858260D01*
X199395423Y-97175423D01*
X199367523Y-97217178D01*
X199367523Y-94122822D01*
X199395423Y-94164577D01*
X199870091Y-94481740D01*
X200288667Y-94565000D01*
X201371333Y-94565000D01*
X201789909Y-94481740D01*
X202264577Y-94164577D01*
X202581740Y-93689909D01*
X202693113Y-93130000D01*
X202581740Y-92570091D01*
X202264577Y-92095423D01*
X201912242Y-91860000D01*
X202264577Y-91624577D01*
X202331112Y-91525000D01*
X202537914Y-91525000D01*
X202630000Y-91543317D01*
X202722086Y-91525000D01*
X202994819Y-91470750D01*
X203304097Y-91264097D01*
X203356261Y-91186028D01*
X204064003Y-90478287D01*
X204142069Y-90426125D01*
X204165001Y-90391805D01*
X204165000Y-102972710D01*
X204165000Y-102972710D01*
G37*
X204165000Y-102972710D02*
X202295704Y-104842007D01*
X202264577Y-104795423D01*
X201912242Y-104560000D01*
X202264577Y-104324577D01*
X202581740Y-103849909D01*
X202693113Y-103290000D01*
X202581740Y-102730091D01*
X202264577Y-102255423D01*
X201912242Y-102020000D01*
X202264577Y-101784577D01*
X202581740Y-101309909D01*
X202693113Y-100750000D01*
X202581740Y-100190091D01*
X202264577Y-99715423D01*
X201912242Y-99480000D01*
X202264577Y-99244577D01*
X202581740Y-98769909D01*
X202693113Y-98210000D01*
X202581740Y-97650091D01*
X202264577Y-97175423D01*
X201789909Y-96858260D01*
X201371333Y-96775000D01*
X200288667Y-96775000D01*
X199870091Y-96858260D01*
X199395423Y-97175423D01*
X199367523Y-97217178D01*
X199367523Y-94122822D01*
X199395423Y-94164577D01*
X199870091Y-94481740D01*
X200288667Y-94565000D01*
X201371333Y-94565000D01*
X201789909Y-94481740D01*
X202264577Y-94164577D01*
X202581740Y-93689909D01*
X202693113Y-93130000D01*
X202581740Y-92570091D01*
X202264577Y-92095423D01*
X201912242Y-91860000D01*
X202264577Y-91624577D01*
X202331112Y-91525000D01*
X202537914Y-91525000D01*
X202630000Y-91543317D01*
X202722086Y-91525000D01*
X202994819Y-91470750D01*
X203304097Y-91264097D01*
X203356261Y-91186028D01*
X204064003Y-90478287D01*
X204142069Y-90426125D01*
X204165001Y-90391805D01*
X204165000Y-102972710D01*
G36*
X149965011Y-102872699D02*
X148015731Y-104821980D01*
X147964577Y-104745423D01*
X147612242Y-104510000D01*
X147964577Y-104274577D01*
X148281740Y-103799909D01*
X148393113Y-103240000D01*
X148281740Y-102680091D01*
X147964577Y-102205423D01*
X147612242Y-101970000D01*
X147964577Y-101734577D01*
X148281740Y-101259909D01*
X148393113Y-100700000D01*
X148281740Y-100140091D01*
X147964577Y-99665423D01*
X147612242Y-99430000D01*
X147964577Y-99194577D01*
X148281740Y-98719909D01*
X148393113Y-98160000D01*
X148281740Y-97600091D01*
X147964577Y-97125423D01*
X147489909Y-96808260D01*
X147071333Y-96725000D01*
X146088667Y-96725000D01*
X145670091Y-96808260D01*
X145195423Y-97125423D01*
X145117523Y-97242009D01*
X145117523Y-93997991D01*
X145195423Y-94114577D01*
X145670091Y-94431740D01*
X146088667Y-94515000D01*
X147071333Y-94515000D01*
X147489909Y-94431740D01*
X147964577Y-94114577D01*
X148281740Y-93639909D01*
X148393113Y-93080000D01*
X148281740Y-92520091D01*
X147964577Y-92045423D01*
X147612242Y-91810000D01*
X147964577Y-91574577D01*
X148031112Y-91475000D01*
X148237914Y-91475000D01*
X148330000Y-91493317D01*
X148422086Y-91475000D01*
X148694819Y-91420750D01*
X149004097Y-91214097D01*
X149056261Y-91136028D01*
X149965010Y-90227279D01*
X149965011Y-102872699D01*
X149965011Y-102872699D01*
G37*
X149965011Y-102872699D02*
X148015731Y-104821980D01*
X147964577Y-104745423D01*
X147612242Y-104510000D01*
X147964577Y-104274577D01*
X148281740Y-103799909D01*
X148393113Y-103240000D01*
X148281740Y-102680091D01*
X147964577Y-102205423D01*
X147612242Y-101970000D01*
X147964577Y-101734577D01*
X148281740Y-101259909D01*
X148393113Y-100700000D01*
X148281740Y-100140091D01*
X147964577Y-99665423D01*
X147612242Y-99430000D01*
X147964577Y-99194577D01*
X148281740Y-98719909D01*
X148393113Y-98160000D01*
X148281740Y-97600091D01*
X147964577Y-97125423D01*
X147489909Y-96808260D01*
X147071333Y-96725000D01*
X146088667Y-96725000D01*
X145670091Y-96808260D01*
X145195423Y-97125423D01*
X145117523Y-97242009D01*
X145117523Y-93997991D01*
X145195423Y-94114577D01*
X145670091Y-94431740D01*
X146088667Y-94515000D01*
X147071333Y-94515000D01*
X147489909Y-94431740D01*
X147964577Y-94114577D01*
X148281740Y-93639909D01*
X148393113Y-93080000D01*
X148281740Y-92520091D01*
X147964577Y-92045423D01*
X147612242Y-91810000D01*
X147964577Y-91574577D01*
X148031112Y-91475000D01*
X148237914Y-91475000D01*
X148330000Y-91493317D01*
X148422086Y-91475000D01*
X148694819Y-91420750D01*
X149004097Y-91214097D01*
X149056261Y-91136028D01*
X149965010Y-90227279D01*
X149965011Y-102872699D01*
G36*
X174965000Y-102672710D02*
X174502398Y-103135312D01*
X174431740Y-102780091D01*
X174114577Y-102305423D01*
X173762242Y-102070000D01*
X174114577Y-101834577D01*
X174431740Y-101359909D01*
X174543113Y-100800000D01*
X174431740Y-100240091D01*
X174114577Y-99765423D01*
X173762242Y-99530000D01*
X174114577Y-99294577D01*
X174431740Y-98819909D01*
X174543113Y-98260000D01*
X174431740Y-97700091D01*
X174114577Y-97225423D01*
X173639909Y-96908260D01*
X173221333Y-96825000D01*
X172138667Y-96825000D01*
X171720091Y-96908260D01*
X171535000Y-97031934D01*
X171535000Y-94408066D01*
X171720091Y-94531740D01*
X172138667Y-94615000D01*
X173221333Y-94615000D01*
X173639909Y-94531740D01*
X174114577Y-94214577D01*
X174181112Y-94115000D01*
X174387914Y-94115000D01*
X174480000Y-94133317D01*
X174572086Y-94115000D01*
X174844819Y-94060750D01*
X174965001Y-93980447D01*
X174965000Y-102672710D01*
X174965000Y-102672710D01*
G37*
X174965000Y-102672710D02*
X174502398Y-103135312D01*
X174431740Y-102780091D01*
X174114577Y-102305423D01*
X173762242Y-102070000D01*
X174114577Y-101834577D01*
X174431740Y-101359909D01*
X174543113Y-100800000D01*
X174431740Y-100240091D01*
X174114577Y-99765423D01*
X173762242Y-99530000D01*
X174114577Y-99294577D01*
X174431740Y-98819909D01*
X174543113Y-98260000D01*
X174431740Y-97700091D01*
X174114577Y-97225423D01*
X173639909Y-96908260D01*
X173221333Y-96825000D01*
X172138667Y-96825000D01*
X171720091Y-96908260D01*
X171535000Y-97031934D01*
X171535000Y-94408066D01*
X171720091Y-94531740D01*
X172138667Y-94615000D01*
X173221333Y-94615000D01*
X173639909Y-94531740D01*
X174114577Y-94214577D01*
X174181112Y-94115000D01*
X174387914Y-94115000D01*
X174480000Y-94133317D01*
X174572086Y-94115000D01*
X174844819Y-94060750D01*
X174965001Y-93980447D01*
X174965000Y-102672710D01*
G36*
X121494274Y-101833436D02*
X120252398Y-103075312D01*
X120181740Y-102720091D01*
X119864577Y-102245423D01*
X119512242Y-102010000D01*
X119864577Y-101774577D01*
X120181740Y-101299909D01*
X120293113Y-100740000D01*
X120181740Y-100180091D01*
X119864577Y-99705423D01*
X119512242Y-99470000D01*
X119864577Y-99234577D01*
X120181740Y-98759909D01*
X120293113Y-98200000D01*
X120181740Y-97640091D01*
X119864577Y-97165423D01*
X119389909Y-96848260D01*
X118971333Y-96765000D01*
X117988667Y-96765000D01*
X117570091Y-96848260D01*
X117425000Y-96945207D01*
X117425000Y-94374793D01*
X117570091Y-94471740D01*
X117988667Y-94555000D01*
X118971333Y-94555000D01*
X119389909Y-94471740D01*
X119864577Y-94154577D01*
X119931112Y-94055000D01*
X120137914Y-94055000D01*
X120230000Y-94073317D01*
X120322086Y-94055000D01*
X120594819Y-94000750D01*
X120904097Y-93794097D01*
X120956261Y-93716028D01*
X121494275Y-93178015D01*
X121494274Y-101833436D01*
X121494274Y-101833436D01*
G37*
X121494274Y-101833436D02*
X120252398Y-103075312D01*
X120181740Y-102720091D01*
X119864577Y-102245423D01*
X119512242Y-102010000D01*
X119864577Y-101774577D01*
X120181740Y-101299909D01*
X120293113Y-100740000D01*
X120181740Y-100180091D01*
X119864577Y-99705423D01*
X119512242Y-99470000D01*
X119864577Y-99234577D01*
X120181740Y-98759909D01*
X120293113Y-98200000D01*
X120181740Y-97640091D01*
X119864577Y-97165423D01*
X119389909Y-96848260D01*
X118971333Y-96765000D01*
X117988667Y-96765000D01*
X117570091Y-96848260D01*
X117425000Y-96945207D01*
X117425000Y-94374793D01*
X117570091Y-94471740D01*
X117988667Y-94555000D01*
X118971333Y-94555000D01*
X119389909Y-94471740D01*
X119864577Y-94154577D01*
X119931112Y-94055000D01*
X120137914Y-94055000D01*
X120230000Y-94073317D01*
X120322086Y-94055000D01*
X120594819Y-94000750D01*
X120904097Y-93794097D01*
X120956261Y-93716028D01*
X121494275Y-93178015D01*
X121494274Y-101833436D01*
G36*
X188052560Y-93100000D02*
X188101843Y-93347765D01*
X188193541Y-93485000D01*
X188101843Y-93622235D01*
X188052560Y-93870000D01*
X188052560Y-94370000D01*
X188101843Y-94617765D01*
X188193541Y-94755000D01*
X188101843Y-94892235D01*
X188052560Y-95140000D01*
X188052560Y-95640000D01*
X188101843Y-95887765D01*
X188242191Y-96097809D01*
X188452235Y-96238157D01*
X188700000Y-96287440D01*
X190200000Y-96287440D01*
X190447765Y-96238157D01*
X190467456Y-96225000D01*
X190474133Y-96225000D01*
X189666573Y-97032560D01*
X188700000Y-97032560D01*
X188452235Y-97081843D01*
X188242191Y-97222191D01*
X188101843Y-97432235D01*
X188052560Y-97680000D01*
X188052560Y-98180000D01*
X188092342Y-98380002D01*
X187924199Y-98413448D01*
X187647999Y-98597999D01*
X187601416Y-98667716D01*
X185454133Y-100815000D01*
X185428544Y-100815000D01*
X185447440Y-100720000D01*
X185447440Y-100220000D01*
X185398157Y-99972235D01*
X185306459Y-99835000D01*
X185398157Y-99697765D01*
X185431320Y-99531040D01*
X185634017Y-99615000D01*
X186005983Y-99615000D01*
X186349635Y-99472655D01*
X186612655Y-99209635D01*
X186755000Y-98865983D01*
X186755000Y-98494017D01*
X186655000Y-98252595D01*
X186655000Y-94145867D01*
X188052560Y-92748308D01*
X188052560Y-93100000D01*
X188052560Y-93100000D01*
G37*
X188052560Y-93100000D02*
X188101843Y-93347765D01*
X188193541Y-93485000D01*
X188101843Y-93622235D01*
X188052560Y-93870000D01*
X188052560Y-94370000D01*
X188101843Y-94617765D01*
X188193541Y-94755000D01*
X188101843Y-94892235D01*
X188052560Y-95140000D01*
X188052560Y-95640000D01*
X188101843Y-95887765D01*
X188242191Y-96097809D01*
X188452235Y-96238157D01*
X188700000Y-96287440D01*
X190200000Y-96287440D01*
X190447765Y-96238157D01*
X190467456Y-96225000D01*
X190474133Y-96225000D01*
X189666573Y-97032560D01*
X188700000Y-97032560D01*
X188452235Y-97081843D01*
X188242191Y-97222191D01*
X188101843Y-97432235D01*
X188052560Y-97680000D01*
X188052560Y-98180000D01*
X188092342Y-98380002D01*
X187924199Y-98413448D01*
X187647999Y-98597999D01*
X187601416Y-98667716D01*
X185454133Y-100815000D01*
X185428544Y-100815000D01*
X185447440Y-100720000D01*
X185447440Y-100220000D01*
X185398157Y-99972235D01*
X185306459Y-99835000D01*
X185398157Y-99697765D01*
X185431320Y-99531040D01*
X185634017Y-99615000D01*
X186005983Y-99615000D01*
X186349635Y-99472655D01*
X186612655Y-99209635D01*
X186755000Y-98865983D01*
X186755000Y-98494017D01*
X186655000Y-98252595D01*
X186655000Y-94145867D01*
X188052560Y-92748308D01*
X188052560Y-93100000D01*
G04 #@! TD*
M02*
