M48
INCH
T1C0.0118
T2C0.0157
T3C0.0295
T4C0.0315
T5C0.0394
%
G90
G05
T1
X5.3264Y-3.9858
X7.5079Y-4.0228
X6.0071Y-3.2994
X7.6374Y-4.1931
X7.6835Y-3.6033
X5.1843Y-3.378
X6.3772Y-3.6419
X6.4559Y-3.6419
X5.2343Y-2.7614
X6.4559Y-3.6026
X5.0636Y-4.0642
X5.0636Y-4.1035
X7.2457Y-3.3844
X5.1449Y-3.3386
X6.4165Y-3.5632
X5.1949Y-2.8008
X5.1949Y-2.7614
X7.2063Y-3.4238
X7.6441Y-3.564
X5.2343Y-2.8008
X5.103Y-4.0248
X7.598Y-4.2719
X7.5587Y-4.2719
X6.3772Y-3.6026
X5.1055Y-3.378
X5.1055Y-3.3386
X6.0071Y-3.26
X7.393Y-3.8571
X5.2736Y-2.7614
X5.1449Y-3.378
X5.1423Y-4.0248
X6.4559Y-3.5632
X7.6835Y-3.5246
X7.5102Y-2.7736
X5.1055Y-3.4173
X7.5587Y-4.1931
X5.1949Y-2.8402
X6.4165Y-3.6419
X5.5437Y-3.6445
X7.6374Y-4.2325
X7.2457Y-3.3451
X5.1843Y-3.3386
X7.2063Y-3.3844
X7.6441Y-3.5246
X5.103Y-4.1035
X7.5587Y-4.2325
X5.2736Y-2.8008
X6.4165Y-3.6026
X5.1449Y-3.4173
X5.1843Y-3.4173
X5.2343Y-2.8402
X7.5102Y-2.7343
X7.6835Y-3.564
X7.5102Y-2.6949
X7.598Y-4.1931
X5.103Y-4.0642
X7.6374Y-4.2719
X6.0071Y-3.3388
X7.2457Y-3.4238
X6.3772Y-3.5632
X7.6441Y-3.6033
X5.5437Y-3.5657
X5.1423Y-4.0642
X4.9091Y-3.402
X7.2063Y-3.3451
X5.5437Y-3.6051
X7.3651Y-3.8849
X5.2736Y-2.8402
X5.0636Y-4.0248
X7.598Y-4.2325
X5.1423Y-4.1035
T2
X4.5888Y-3.384
X5.1457Y-3.6496
X5.1457Y-3.7008
X5.1457Y-3.752
X5.1457Y-3.7992
X5.1457Y-3.8504
X5.385Y-3.6555
X5.4051Y-3.9327
X5.4185Y-3.6268
X5.4476Y-2.7634
X5.4476Y-4.0646
X5.4516Y-3.9031
X5.4878Y-4.0661
X5.5272Y-4.0661
X5.5661Y-4.0661
X5.6319Y-3.2972
X6.2402Y-3.878
X6.4291Y-4.2618
X6.6988Y-3.374
X7.1831Y-2.6933
X7.2303Y-2.6945
X7.2815Y-3.8071
X7.2835Y-3.6575
X7.2835Y-3.7087
X7.2835Y-3.8543
X7.2854Y-3.7579
X7.3157Y-3.885
X7.4921Y-3.6535
X7.5492Y-3.9409
X7.5846Y-4.0669
X7.626Y-4.065
X7.6634Y-4.063
X7.75Y-3.2854
X8.3425Y-3.7638
T3
X6.4205Y-3.2567
X6.4705Y-3.2567
X6.5205Y-3.2567
T4
X7.9067Y-3.4665
X7.9067Y-3.5665
X7.9067Y-3.6665
X7.9067Y-3.7665
X7.9067Y-3.8665
X7.9067Y-3.9665
X7.9067Y-4.0665
X7.9067Y-4.1665
X8.2067Y-3.4665
X8.2067Y-3.5665
X8.2067Y-3.6665
X8.2067Y-3.7665
X8.2067Y-3.8665
X8.2067Y-3.9665
X8.2067Y-4.0665
X8.2067Y-4.1665
X5.7709Y-3.4646
X5.7709Y-3.5646
X5.7709Y-3.6646
X5.7709Y-3.7646
X5.7709Y-3.8646
X5.7709Y-3.9646
X5.7709Y-4.0646
X5.7709Y-4.1646
X6.0709Y-3.4646
X6.0709Y-3.5646
X6.0709Y-3.6646
X6.0709Y-3.7646
X6.0709Y-3.8646
X6.0709Y-3.9646
X6.0709Y-4.0646
X6.0709Y-4.1646
X6.7984Y-3.4685
X6.7984Y-3.5685
X6.7984Y-3.6685
X6.7984Y-3.7685
X6.7984Y-3.8685
X6.7984Y-3.9685
X6.7984Y-4.0685
X6.7984Y-4.1685
X7.0984Y-3.4685
X7.0984Y-3.5685
X7.0984Y-3.6685
X7.0984Y-3.7685
X7.0984Y-3.8685
X7.0984Y-3.9685
X7.0984Y-4.0685
X7.0984Y-4.1685
X4.6646Y-3.4661
X4.6646Y-3.5661
X4.6646Y-3.6661
X4.6646Y-3.7661
X4.6646Y-3.8661
X4.6646Y-3.9661
X4.6646Y-4.0661
X4.6646Y-4.1661
X4.9646Y-3.4661
X4.9646Y-3.5661
X4.9646Y-3.6661
X4.9646Y-3.7661
X4.9646Y-3.8661
X4.9646Y-3.9661
X4.9646Y-4.0661
X4.9646Y-4.1661
T5
X7.3732Y-3.0803
X7.3732Y-3.1803
X7.3732Y-3.2803
X7.3732Y-3.3803
X7.3732Y-3.4803
X5.2055Y-2.5996
X6.2476Y-3.4362
X5.4819Y-3.4161
X6.3626Y-2.924
X6.3626Y-3.024
T5
G00X4.6455Y-2.9875
M15
G01X4.6186Y-2.9936
M16
G05
G00X4.6455Y-2.9101
M15
G01X4.6186Y-2.904
M16
G05
G00X4.6791Y-3.0572
M15
G01X4.6575Y-3.0744
M16
G05
G00X4.6791Y-2.8404
M15
G01X4.6575Y-2.8233
M16
G05
G00X4.7395Y-3.1054
M15
G01X4.7276Y-3.1303
M16
G05
G00X4.7395Y-2.7922
M15
G01X4.7276Y-2.7674
M16
G05
G00X4.815Y-3.1226
M15
G01X4.815Y-3.1502
M16
G05
G00X4.8904Y-3.1054
M15
G01X4.9023Y-3.1303
M16
G05
G00X4.8904Y-2.7922
M15
G01X4.9023Y-2.7674
M16
G05
G00X4.9509Y-3.0572
M15
G01X4.9724Y-3.0744
M16
G05
G00X4.9509Y-2.8404
M15
G01X4.9724Y-2.8233
M16
G05
G00X4.9844Y-2.9875
M15
G01X5.0113Y-2.9936
M16
G05
G00X4.9844Y-2.9101
M15
G01X5.0113Y-2.904
M16
G05
G00X7.7242Y-2.9914
M15
G01X7.6974Y-2.9976
M16
G05
G00X7.7242Y-2.9141
M15
G01X7.6974Y-2.9079
M16
G05
G00X7.7578Y-3.0611
M15
G01X7.7363Y-3.0783
M16
G05
G00X7.7578Y-2.8444
M15
G01X7.7363Y-2.8272
M16
G05
G00X7.8183Y-3.1094
M15
G01X7.8063Y-3.1342
M16
G05
G00X7.8183Y-2.7962
M15
G01X7.8063Y-2.7713
M16
G05
G00X7.8937Y-3.1266
M15
G01X7.8937Y-3.1541
M16
G05
G00X7.9691Y-3.1094
M15
G01X7.9811Y-3.1342
M16
G05
G00X7.9691Y-2.7962
M15
G01X7.9811Y-2.7713
M16
G05
G00X8.0296Y-3.0611
M15
G01X8.0511Y-3.0783
M16
G05
G00X8.0296Y-2.8444
M15
G01X8.0511Y-2.8272
M16
G05
G00X8.0632Y-2.9914
M15
G01X8.09Y-2.9976
M16
G05
G00X8.0632Y-2.9141
M15
G01X8.09Y-2.9079
M16
G05
G00X6.7794Y-2.9914
M15
G01X6.7525Y-2.9976
M16
G05
G00X6.7794Y-2.9141
M15
G01X6.7525Y-2.9079
M16
G05
G00X6.8129Y-3.0611
M15
G01X6.7914Y-3.0783
M16
G05
G00X6.8129Y-2.8444
M15
G01X6.7914Y-2.8272
M16
G05
G00X6.8734Y-3.1094
M15
G01X6.8614Y-3.1342
M16
G05
G00X6.8734Y-2.7962
M15
G01X6.8614Y-2.7713
M16
G05
G00X6.9488Y-3.1266
M15
G01X6.9488Y-3.1541
M16
G05
G00X7.0242Y-3.1094
M15
G01X7.0362Y-3.1342
M16
G05
G00X7.0242Y-2.7962
M15
G01X7.0362Y-2.7713
M16
G05
G00X7.0847Y-3.0611
M15
G01X7.1063Y-3.0783
M16
G05
G00X7.0847Y-2.8444
M15
G01X7.1063Y-2.8272
M16
G05
G00X7.1183Y-2.9914
M15
G01X7.1451Y-2.9976
M16
G05
G00X7.1183Y-2.9141
M15
G01X7.1451Y-2.9079
M16
G05
G00X5.5884Y-2.9891
M15
G01X5.5615Y-2.9952
M16
G05
G00X5.5884Y-2.9117
M15
G01X5.5615Y-2.9056
M16
G05
G00X5.622Y-3.0588
M15
G01X5.6004Y-3.0759
M16
G05
G00X5.622Y-2.842
M15
G01X5.6004Y-2.8248
M16
G05
G00X5.6825Y-3.107
M15
G01X5.6705Y-3.1318
M16
G05
G00X5.6825Y-2.7938
M15
G01X5.6705Y-2.7689
M16
G05
G00X5.7579Y-3.1242
M15
G01X5.7579Y-3.1518
M16
G05
G00X5.8333Y-3.107
M15
G01X5.8452Y-3.1318
M16
G05
G00X5.8333Y-2.7938
M15
G01X5.8452Y-2.7689
M16
G05
G00X5.8938Y-3.0588
M15
G01X5.9153Y-3.0759
M16
G05
G00X5.8938Y-2.842
M15
G01X5.9153Y-2.8248
M16
G05
G00X5.9273Y-2.9891
M15
G01X5.9542Y-2.9952
M16
G05
G00X5.9273Y-2.9117
M15
G01X5.9542Y-2.9056
M16
G05
T0
M30
