G04 #@! TF.GenerationSoftware,KiCad,Pcbnew,5.1.5*
G04 #@! TF.CreationDate,2020-03-31T14:32:58+02:00*
G04 #@! TF.ProjectId,nixie_2_digit_board,6e697869-655f-4325-9f64-696769745f62,rev?*
G04 #@! TF.SameCoordinates,Original*
G04 #@! TF.FileFunction,Copper,L1,Top*
G04 #@! TF.FilePolarity,Positive*
%FSLAX46Y46*%
G04 Gerber Fmt 4.6, Leading zero omitted, Abs format (unit mm)*
G04 Created by KiCad (PCBNEW 5.1.5) date 2020-03-31 14:32:58*
%MOMM*%
%LPD*%
G04 APERTURE LIST*
%ADD10C,0.600000*%
%ADD11O,2.300000X1.600000*%
%ADD12R,0.500000X0.900000*%
%ADD13C,0.100000*%
%ADD14C,1.200000*%
%ADD15R,1.700000X1.700000*%
%ADD16O,1.700000X1.700000*%
%ADD17R,2.000000X2.000000*%
%ADD18R,0.900000X0.500000*%
%ADD19R,2.400000X1.600000*%
%ADD20O,2.400000X1.600000*%
%ADD21O,1.050000X1.500000*%
%ADD22R,1.050000X1.500000*%
%ADD23C,0.500000*%
%ADD24C,1.000000*%
%ADD25C,0.600000*%
%ADD26C,0.800000*%
%ADD27C,0.400000*%
%ADD28C,0.254000*%
G04 APERTURE END LIST*
D10*
X190760000Y-70450000D03*
X190760000Y-69450000D03*
X190760000Y-68450000D03*
X140810000Y-92570000D03*
X140810000Y-91570000D03*
X140810000Y-90570000D03*
X124690000Y-86410000D03*
X152580000Y-84805000D03*
X152580000Y-83805000D03*
X152580000Y-82805000D03*
X187074262Y-98676359D03*
X187781369Y-97969253D03*
X161980000Y-92505000D03*
X161980000Y-91505000D03*
X162980000Y-91505000D03*
X162980000Y-92505000D03*
X163980000Y-92505000D03*
X163980000Y-91505000D03*
X163980000Y-90505000D03*
X162980000Y-90505000D03*
X161980000Y-90505000D03*
X131950000Y-70140000D03*
X132950000Y-70140000D03*
X133950000Y-70140000D03*
X133950000Y-71140000D03*
X133950000Y-72140000D03*
X132950000Y-72140000D03*
X131950000Y-72140000D03*
X132950000Y-71140000D03*
X131950000Y-71140000D03*
X194160000Y-90525000D03*
X195160000Y-90525000D03*
X195160000Y-91525000D03*
X194160000Y-91525000D03*
X194160000Y-89525000D03*
X195160000Y-89525000D03*
X191990000Y-106505000D03*
X192990000Y-106505000D03*
X191990000Y-107505000D03*
X193990000Y-106505000D03*
X193990000Y-107505000D03*
X193990000Y-108505000D03*
X191990000Y-108505000D03*
X192990000Y-107505000D03*
X192990000Y-108505000D03*
X183040000Y-86965000D03*
X184040000Y-86965000D03*
X183040000Y-84965000D03*
X184040000Y-85965000D03*
X183040000Y-85965000D03*
X184040000Y-84965000D03*
D11*
X154200000Y-105780000D03*
X154200000Y-103240000D03*
X154200000Y-100700000D03*
X154200000Y-98160000D03*
X154200000Y-95620000D03*
X154200000Y-93080000D03*
X154200000Y-90540000D03*
X154200000Y-88000000D03*
X146580000Y-88000000D03*
X146580000Y-90540000D03*
X146580000Y-93080000D03*
X146580000Y-95620000D03*
X146580000Y-98160000D03*
X146580000Y-100700000D03*
X146580000Y-103240000D03*
X146580000Y-105780000D03*
D12*
X139000000Y-67250000D03*
X140500000Y-67250000D03*
G04 #@! TA.AperFunction,ComponentPad*
D13*
G36*
X145265497Y-71512423D02*
G01*
X144184331Y-72033078D01*
X143099633Y-69780651D01*
X144180799Y-69259996D01*
X145265497Y-71512423D01*
G37*
G04 #@! TD.AperFunction*
D14*
X143032776Y-72373987D02*
X142016400Y-71563445D01*
X142238176Y-74023970D02*
X140970772Y-73734686D01*
X142238167Y-75855319D02*
X140970759Y-76144589D01*
X143032750Y-77505308D02*
X142016366Y-78315840D01*
X144464550Y-78647142D02*
X143900496Y-79818398D01*
X146249979Y-79054664D02*
X146249973Y-80354664D01*
X148035413Y-78647160D02*
X148599457Y-79818422D01*
X149467224Y-77505341D02*
X150483600Y-78315883D01*
X150261824Y-75855358D02*
X151529228Y-76144642D01*
X150261833Y-74024009D02*
X151529241Y-73734739D01*
X149467250Y-72374020D02*
X150483634Y-71563488D01*
X148035450Y-71232186D02*
X148599504Y-70060930D01*
D15*
X161610000Y-74270000D03*
D16*
X161610000Y-76810000D03*
D10*
X129615000Y-104230000D03*
X128615000Y-104230000D03*
X128615000Y-103230000D03*
X129615000Y-103230000D03*
X130615000Y-104230000D03*
X130615000Y-103230000D03*
X130615000Y-102230000D03*
X129615000Y-102230000D03*
X128615000Y-102230000D03*
X131680000Y-86800000D03*
X130680000Y-86800000D03*
X129680000Y-86800000D03*
X131680000Y-85800000D03*
X130680000Y-85800000D03*
X129680000Y-85800000D03*
X131680000Y-84800000D03*
X130680000Y-84800000D03*
G04 #@! TA.AperFunction,ComponentPad*
D13*
G36*
X121315497Y-71472759D02*
G01*
X120234331Y-71993414D01*
X119149633Y-69740987D01*
X120230799Y-69220332D01*
X121315497Y-71472759D01*
G37*
G04 #@! TD.AperFunction*
D14*
X119082776Y-72334323D02*
X118066400Y-71523781D01*
X118288176Y-73984306D02*
X117020772Y-73695022D01*
X118288167Y-75815655D02*
X117020759Y-76104925D01*
X119082750Y-77465644D02*
X118066366Y-78276176D01*
X120514550Y-78607478D02*
X119950496Y-79778734D01*
X122299979Y-79015000D02*
X122299973Y-80315000D01*
X124085413Y-78607496D02*
X124649457Y-79778758D01*
X125517224Y-77465677D02*
X126533600Y-78276219D01*
X126311824Y-75815694D02*
X127579228Y-76104978D01*
X126311833Y-73984345D02*
X127579241Y-73695075D01*
X125517250Y-72334356D02*
X126533634Y-71523824D01*
X124085450Y-71192522D02*
X124649504Y-70021266D01*
D12*
X126000000Y-66550000D03*
X124500000Y-66550000D03*
D11*
X126100000Y-105820000D03*
X126100000Y-103280000D03*
X126100000Y-100740000D03*
X126100000Y-98200000D03*
X126100000Y-95660000D03*
X126100000Y-93120000D03*
X126100000Y-90580000D03*
X126100000Y-88040000D03*
X118480000Y-88040000D03*
X118480000Y-90580000D03*
X118480000Y-93120000D03*
X118480000Y-95660000D03*
X118480000Y-98200000D03*
X118480000Y-100740000D03*
X118480000Y-103280000D03*
X118480000Y-105820000D03*
D17*
X132220000Y-66030000D03*
D10*
X129680000Y-84800000D03*
D18*
X179720000Y-65820000D03*
X179720000Y-67320000D03*
D12*
X202150000Y-68100000D03*
X203650000Y-68100000D03*
G04 #@! TA.AperFunction,ComponentPad*
D13*
G36*
X175515497Y-71572759D02*
G01*
X174434331Y-72093414D01*
X173349633Y-69840987D01*
X174430799Y-69320332D01*
X175515497Y-71572759D01*
G37*
G04 #@! TD.AperFunction*
D14*
X173282776Y-72434323D02*
X172266400Y-71623781D01*
X172488176Y-74084306D02*
X171220772Y-73795022D01*
X172488167Y-75915655D02*
X171220759Y-76204925D01*
X173282750Y-77565644D02*
X172266366Y-78376176D01*
X174714550Y-78707478D02*
X174150496Y-79878734D01*
X176499979Y-79115000D02*
X176499973Y-80415000D01*
X178285413Y-78707496D02*
X178849457Y-79878758D01*
X179717224Y-77565677D02*
X180733600Y-78376219D01*
X180511824Y-75915694D02*
X181779228Y-76204978D01*
X180511833Y-74084345D02*
X181779241Y-73795075D01*
X179717250Y-72434356D02*
X180733634Y-71623824D01*
X178285450Y-71292522D02*
X178849504Y-70121266D01*
D19*
X180300000Y-105880000D03*
D20*
X172680000Y-88100000D03*
X180300000Y-103340000D03*
X172680000Y-90640000D03*
X180300000Y-100800000D03*
X172680000Y-93180000D03*
X180300000Y-98260000D03*
X172680000Y-95720000D03*
X180300000Y-95720000D03*
X172680000Y-98260000D03*
X180300000Y-93180000D03*
X172680000Y-100800000D03*
X180300000Y-90640000D03*
X172680000Y-103340000D03*
X180300000Y-88100000D03*
X172680000Y-105880000D03*
G04 #@! TA.AperFunction,ComponentPad*
D13*
G36*
X199515497Y-71572759D02*
G01*
X198434331Y-72093414D01*
X197349633Y-69840987D01*
X198430799Y-69320332D01*
X199515497Y-71572759D01*
G37*
G04 #@! TD.AperFunction*
D14*
X197282776Y-72434323D02*
X196266400Y-71623781D01*
X196488176Y-74084306D02*
X195220772Y-73795022D01*
X196488167Y-75915655D02*
X195220759Y-76204925D01*
X197282750Y-77565644D02*
X196266366Y-78376176D01*
X198714550Y-78707478D02*
X198150496Y-79878734D01*
X200499979Y-79115000D02*
X200499973Y-80415000D01*
X202285413Y-78707496D02*
X202849457Y-79878758D01*
X203717224Y-77565677D02*
X204733600Y-78376219D01*
X204511824Y-75915694D02*
X205779228Y-76204978D01*
X204511833Y-74084345D02*
X205779241Y-73795075D01*
X203717250Y-72434356D02*
X204733634Y-71623824D01*
X202285450Y-71292522D02*
X202849504Y-70121266D01*
D19*
X208450000Y-105830000D03*
D20*
X200830000Y-88050000D03*
X208450000Y-103290000D03*
X200830000Y-90590000D03*
X208450000Y-100750000D03*
X200830000Y-93130000D03*
X208450000Y-98210000D03*
X200830000Y-95670000D03*
X208450000Y-95670000D03*
X200830000Y-98210000D03*
X208450000Y-93130000D03*
X200830000Y-100750000D03*
X208450000Y-90590000D03*
X200830000Y-103290000D03*
X208450000Y-88050000D03*
X200830000Y-105830000D03*
D15*
X139240000Y-86770000D03*
X187280000Y-88400000D03*
D16*
X187280000Y-85860000D03*
X187280000Y-83320000D03*
X187280000Y-80780000D03*
X187280000Y-78240000D03*
D18*
X161600000Y-70250000D03*
X161600000Y-71750000D03*
G04 #@! TA.AperFunction,SMDPad,CuDef*
D13*
G36*
X191600191Y-102896053D02*
G01*
X191621426Y-102899203D01*
X191642250Y-102904419D01*
X191662462Y-102911651D01*
X191681868Y-102920830D01*
X191700281Y-102931866D01*
X191717524Y-102944654D01*
X191733430Y-102959070D01*
X191747846Y-102974976D01*
X191760634Y-102992219D01*
X191771670Y-103010632D01*
X191780849Y-103030038D01*
X191788081Y-103050250D01*
X191793297Y-103071074D01*
X191796447Y-103092309D01*
X191797500Y-103113750D01*
X191797500Y-103626250D01*
X191796447Y-103647691D01*
X191793297Y-103668926D01*
X191788081Y-103689750D01*
X191780849Y-103709962D01*
X191771670Y-103729368D01*
X191760634Y-103747781D01*
X191747846Y-103765024D01*
X191733430Y-103780930D01*
X191717524Y-103795346D01*
X191700281Y-103808134D01*
X191681868Y-103819170D01*
X191662462Y-103828349D01*
X191642250Y-103835581D01*
X191621426Y-103840797D01*
X191600191Y-103843947D01*
X191578750Y-103845000D01*
X191141250Y-103845000D01*
X191119809Y-103843947D01*
X191098574Y-103840797D01*
X191077750Y-103835581D01*
X191057538Y-103828349D01*
X191038132Y-103819170D01*
X191019719Y-103808134D01*
X191002476Y-103795346D01*
X190986570Y-103780930D01*
X190972154Y-103765024D01*
X190959366Y-103747781D01*
X190948330Y-103729368D01*
X190939151Y-103709962D01*
X190931919Y-103689750D01*
X190926703Y-103668926D01*
X190923553Y-103647691D01*
X190922500Y-103626250D01*
X190922500Y-103113750D01*
X190923553Y-103092309D01*
X190926703Y-103071074D01*
X190931919Y-103050250D01*
X190939151Y-103030038D01*
X190948330Y-103010632D01*
X190959366Y-102992219D01*
X190972154Y-102974976D01*
X190986570Y-102959070D01*
X191002476Y-102944654D01*
X191019719Y-102931866D01*
X191038132Y-102920830D01*
X191057538Y-102911651D01*
X191077750Y-102904419D01*
X191098574Y-102899203D01*
X191119809Y-102896053D01*
X191141250Y-102895000D01*
X191578750Y-102895000D01*
X191600191Y-102896053D01*
G37*
G04 #@! TD.AperFunction*
G04 #@! TA.AperFunction,SMDPad,CuDef*
G36*
X190025191Y-102896053D02*
G01*
X190046426Y-102899203D01*
X190067250Y-102904419D01*
X190087462Y-102911651D01*
X190106868Y-102920830D01*
X190125281Y-102931866D01*
X190142524Y-102944654D01*
X190158430Y-102959070D01*
X190172846Y-102974976D01*
X190185634Y-102992219D01*
X190196670Y-103010632D01*
X190205849Y-103030038D01*
X190213081Y-103050250D01*
X190218297Y-103071074D01*
X190221447Y-103092309D01*
X190222500Y-103113750D01*
X190222500Y-103626250D01*
X190221447Y-103647691D01*
X190218297Y-103668926D01*
X190213081Y-103689750D01*
X190205849Y-103709962D01*
X190196670Y-103729368D01*
X190185634Y-103747781D01*
X190172846Y-103765024D01*
X190158430Y-103780930D01*
X190142524Y-103795346D01*
X190125281Y-103808134D01*
X190106868Y-103819170D01*
X190087462Y-103828349D01*
X190067250Y-103835581D01*
X190046426Y-103840797D01*
X190025191Y-103843947D01*
X190003750Y-103845000D01*
X189566250Y-103845000D01*
X189544809Y-103843947D01*
X189523574Y-103840797D01*
X189502750Y-103835581D01*
X189482538Y-103828349D01*
X189463132Y-103819170D01*
X189444719Y-103808134D01*
X189427476Y-103795346D01*
X189411570Y-103780930D01*
X189397154Y-103765024D01*
X189384366Y-103747781D01*
X189373330Y-103729368D01*
X189364151Y-103709962D01*
X189356919Y-103689750D01*
X189351703Y-103668926D01*
X189348553Y-103647691D01*
X189347500Y-103626250D01*
X189347500Y-103113750D01*
X189348553Y-103092309D01*
X189351703Y-103071074D01*
X189356919Y-103050250D01*
X189364151Y-103030038D01*
X189373330Y-103010632D01*
X189384366Y-102992219D01*
X189397154Y-102974976D01*
X189411570Y-102959070D01*
X189427476Y-102944654D01*
X189444719Y-102931866D01*
X189463132Y-102920830D01*
X189482538Y-102911651D01*
X189502750Y-102904419D01*
X189523574Y-102899203D01*
X189544809Y-102896053D01*
X189566250Y-102895000D01*
X190003750Y-102895000D01*
X190025191Y-102896053D01*
G37*
G04 #@! TD.AperFunction*
G04 #@! TA.AperFunction,SMDPad,CuDef*
G36*
X133922691Y-101966053D02*
G01*
X133943926Y-101969203D01*
X133964750Y-101974419D01*
X133984962Y-101981651D01*
X134004368Y-101990830D01*
X134022781Y-102001866D01*
X134040024Y-102014654D01*
X134055930Y-102029070D01*
X134070346Y-102044976D01*
X134083134Y-102062219D01*
X134094170Y-102080632D01*
X134103349Y-102100038D01*
X134110581Y-102120250D01*
X134115797Y-102141074D01*
X134118947Y-102162309D01*
X134120000Y-102183750D01*
X134120000Y-102696250D01*
X134118947Y-102717691D01*
X134115797Y-102738926D01*
X134110581Y-102759750D01*
X134103349Y-102779962D01*
X134094170Y-102799368D01*
X134083134Y-102817781D01*
X134070346Y-102835024D01*
X134055930Y-102850930D01*
X134040024Y-102865346D01*
X134022781Y-102878134D01*
X134004368Y-102889170D01*
X133984962Y-102898349D01*
X133964750Y-102905581D01*
X133943926Y-102910797D01*
X133922691Y-102913947D01*
X133901250Y-102915000D01*
X133463750Y-102915000D01*
X133442309Y-102913947D01*
X133421074Y-102910797D01*
X133400250Y-102905581D01*
X133380038Y-102898349D01*
X133360632Y-102889170D01*
X133342219Y-102878134D01*
X133324976Y-102865346D01*
X133309070Y-102850930D01*
X133294654Y-102835024D01*
X133281866Y-102817781D01*
X133270830Y-102799368D01*
X133261651Y-102779962D01*
X133254419Y-102759750D01*
X133249203Y-102738926D01*
X133246053Y-102717691D01*
X133245000Y-102696250D01*
X133245000Y-102183750D01*
X133246053Y-102162309D01*
X133249203Y-102141074D01*
X133254419Y-102120250D01*
X133261651Y-102100038D01*
X133270830Y-102080632D01*
X133281866Y-102062219D01*
X133294654Y-102044976D01*
X133309070Y-102029070D01*
X133324976Y-102014654D01*
X133342219Y-102001866D01*
X133360632Y-101990830D01*
X133380038Y-101981651D01*
X133400250Y-101974419D01*
X133421074Y-101969203D01*
X133442309Y-101966053D01*
X133463750Y-101965000D01*
X133901250Y-101965000D01*
X133922691Y-101966053D01*
G37*
G04 #@! TD.AperFunction*
G04 #@! TA.AperFunction,SMDPad,CuDef*
G36*
X135497691Y-101966053D02*
G01*
X135518926Y-101969203D01*
X135539750Y-101974419D01*
X135559962Y-101981651D01*
X135579368Y-101990830D01*
X135597781Y-102001866D01*
X135615024Y-102014654D01*
X135630930Y-102029070D01*
X135645346Y-102044976D01*
X135658134Y-102062219D01*
X135669170Y-102080632D01*
X135678349Y-102100038D01*
X135685581Y-102120250D01*
X135690797Y-102141074D01*
X135693947Y-102162309D01*
X135695000Y-102183750D01*
X135695000Y-102696250D01*
X135693947Y-102717691D01*
X135690797Y-102738926D01*
X135685581Y-102759750D01*
X135678349Y-102779962D01*
X135669170Y-102799368D01*
X135658134Y-102817781D01*
X135645346Y-102835024D01*
X135630930Y-102850930D01*
X135615024Y-102865346D01*
X135597781Y-102878134D01*
X135579368Y-102889170D01*
X135559962Y-102898349D01*
X135539750Y-102905581D01*
X135518926Y-102910797D01*
X135497691Y-102913947D01*
X135476250Y-102915000D01*
X135038750Y-102915000D01*
X135017309Y-102913947D01*
X134996074Y-102910797D01*
X134975250Y-102905581D01*
X134955038Y-102898349D01*
X134935632Y-102889170D01*
X134917219Y-102878134D01*
X134899976Y-102865346D01*
X134884070Y-102850930D01*
X134869654Y-102835024D01*
X134856866Y-102817781D01*
X134845830Y-102799368D01*
X134836651Y-102779962D01*
X134829419Y-102759750D01*
X134824203Y-102738926D01*
X134821053Y-102717691D01*
X134820000Y-102696250D01*
X134820000Y-102183750D01*
X134821053Y-102162309D01*
X134824203Y-102141074D01*
X134829419Y-102120250D01*
X134836651Y-102100038D01*
X134845830Y-102080632D01*
X134856866Y-102062219D01*
X134869654Y-102044976D01*
X134884070Y-102029070D01*
X134899976Y-102014654D01*
X134917219Y-102001866D01*
X134935632Y-101990830D01*
X134955038Y-101981651D01*
X134975250Y-101974419D01*
X134996074Y-101969203D01*
X135017309Y-101966053D01*
X135038750Y-101965000D01*
X135476250Y-101965000D01*
X135497691Y-101966053D01*
G37*
G04 #@! TD.AperFunction*
D15*
X158690000Y-87280000D03*
D21*
X164350000Y-82720000D03*
X165620000Y-82720000D03*
D22*
X163080000Y-82720000D03*
G04 #@! TA.AperFunction,SMDPad,CuDef*
D13*
G36*
X164617691Y-85316053D02*
G01*
X164638926Y-85319203D01*
X164659750Y-85324419D01*
X164679962Y-85331651D01*
X164699368Y-85340830D01*
X164717781Y-85351866D01*
X164735024Y-85364654D01*
X164750930Y-85379070D01*
X164765346Y-85394976D01*
X164778134Y-85412219D01*
X164789170Y-85430632D01*
X164798349Y-85450038D01*
X164805581Y-85470250D01*
X164810797Y-85491074D01*
X164813947Y-85512309D01*
X164815000Y-85533750D01*
X164815000Y-85971250D01*
X164813947Y-85992691D01*
X164810797Y-86013926D01*
X164805581Y-86034750D01*
X164798349Y-86054962D01*
X164789170Y-86074368D01*
X164778134Y-86092781D01*
X164765346Y-86110024D01*
X164750930Y-86125930D01*
X164735024Y-86140346D01*
X164717781Y-86153134D01*
X164699368Y-86164170D01*
X164679962Y-86173349D01*
X164659750Y-86180581D01*
X164638926Y-86185797D01*
X164617691Y-86188947D01*
X164596250Y-86190000D01*
X164083750Y-86190000D01*
X164062309Y-86188947D01*
X164041074Y-86185797D01*
X164020250Y-86180581D01*
X164000038Y-86173349D01*
X163980632Y-86164170D01*
X163962219Y-86153134D01*
X163944976Y-86140346D01*
X163929070Y-86125930D01*
X163914654Y-86110024D01*
X163901866Y-86092781D01*
X163890830Y-86074368D01*
X163881651Y-86054962D01*
X163874419Y-86034750D01*
X163869203Y-86013926D01*
X163866053Y-85992691D01*
X163865000Y-85971250D01*
X163865000Y-85533750D01*
X163866053Y-85512309D01*
X163869203Y-85491074D01*
X163874419Y-85470250D01*
X163881651Y-85450038D01*
X163890830Y-85430632D01*
X163901866Y-85412219D01*
X163914654Y-85394976D01*
X163929070Y-85379070D01*
X163944976Y-85364654D01*
X163962219Y-85351866D01*
X163980632Y-85340830D01*
X164000038Y-85331651D01*
X164020250Y-85324419D01*
X164041074Y-85319203D01*
X164062309Y-85316053D01*
X164083750Y-85315000D01*
X164596250Y-85315000D01*
X164617691Y-85316053D01*
G37*
G04 #@! TD.AperFunction*
G04 #@! TA.AperFunction,SMDPad,CuDef*
G36*
X164617691Y-86891053D02*
G01*
X164638926Y-86894203D01*
X164659750Y-86899419D01*
X164679962Y-86906651D01*
X164699368Y-86915830D01*
X164717781Y-86926866D01*
X164735024Y-86939654D01*
X164750930Y-86954070D01*
X164765346Y-86969976D01*
X164778134Y-86987219D01*
X164789170Y-87005632D01*
X164798349Y-87025038D01*
X164805581Y-87045250D01*
X164810797Y-87066074D01*
X164813947Y-87087309D01*
X164815000Y-87108750D01*
X164815000Y-87546250D01*
X164813947Y-87567691D01*
X164810797Y-87588926D01*
X164805581Y-87609750D01*
X164798349Y-87629962D01*
X164789170Y-87649368D01*
X164778134Y-87667781D01*
X164765346Y-87685024D01*
X164750930Y-87700930D01*
X164735024Y-87715346D01*
X164717781Y-87728134D01*
X164699368Y-87739170D01*
X164679962Y-87748349D01*
X164659750Y-87755581D01*
X164638926Y-87760797D01*
X164617691Y-87763947D01*
X164596250Y-87765000D01*
X164083750Y-87765000D01*
X164062309Y-87763947D01*
X164041074Y-87760797D01*
X164020250Y-87755581D01*
X164000038Y-87748349D01*
X163980632Y-87739170D01*
X163962219Y-87728134D01*
X163944976Y-87715346D01*
X163929070Y-87700930D01*
X163914654Y-87685024D01*
X163901866Y-87667781D01*
X163890830Y-87649368D01*
X163881651Y-87629962D01*
X163874419Y-87609750D01*
X163869203Y-87588926D01*
X163866053Y-87567691D01*
X163865000Y-87546250D01*
X163865000Y-87108750D01*
X163866053Y-87087309D01*
X163869203Y-87066074D01*
X163874419Y-87045250D01*
X163881651Y-87025038D01*
X163890830Y-87005632D01*
X163901866Y-86987219D01*
X163914654Y-86969976D01*
X163929070Y-86954070D01*
X163944976Y-86939654D01*
X163962219Y-86926866D01*
X163980632Y-86915830D01*
X164000038Y-86906651D01*
X164020250Y-86899419D01*
X164041074Y-86894203D01*
X164062309Y-86891053D01*
X164083750Y-86890000D01*
X164596250Y-86890000D01*
X164617691Y-86891053D01*
G37*
G04 #@! TD.AperFunction*
G04 #@! TA.AperFunction,SMDPad,CuDef*
G36*
X165917691Y-77041053D02*
G01*
X165938926Y-77044203D01*
X165959750Y-77049419D01*
X165979962Y-77056651D01*
X165999368Y-77065830D01*
X166017781Y-77076866D01*
X166035024Y-77089654D01*
X166050930Y-77104070D01*
X166065346Y-77119976D01*
X166078134Y-77137219D01*
X166089170Y-77155632D01*
X166098349Y-77175038D01*
X166105581Y-77195250D01*
X166110797Y-77216074D01*
X166113947Y-77237309D01*
X166115000Y-77258750D01*
X166115000Y-77696250D01*
X166113947Y-77717691D01*
X166110797Y-77738926D01*
X166105581Y-77759750D01*
X166098349Y-77779962D01*
X166089170Y-77799368D01*
X166078134Y-77817781D01*
X166065346Y-77835024D01*
X166050930Y-77850930D01*
X166035024Y-77865346D01*
X166017781Y-77878134D01*
X165999368Y-77889170D01*
X165979962Y-77898349D01*
X165959750Y-77905581D01*
X165938926Y-77910797D01*
X165917691Y-77913947D01*
X165896250Y-77915000D01*
X165383750Y-77915000D01*
X165362309Y-77913947D01*
X165341074Y-77910797D01*
X165320250Y-77905581D01*
X165300038Y-77898349D01*
X165280632Y-77889170D01*
X165262219Y-77878134D01*
X165244976Y-77865346D01*
X165229070Y-77850930D01*
X165214654Y-77835024D01*
X165201866Y-77817781D01*
X165190830Y-77799368D01*
X165181651Y-77779962D01*
X165174419Y-77759750D01*
X165169203Y-77738926D01*
X165166053Y-77717691D01*
X165165000Y-77696250D01*
X165165000Y-77258750D01*
X165166053Y-77237309D01*
X165169203Y-77216074D01*
X165174419Y-77195250D01*
X165181651Y-77175038D01*
X165190830Y-77155632D01*
X165201866Y-77137219D01*
X165214654Y-77119976D01*
X165229070Y-77104070D01*
X165244976Y-77089654D01*
X165262219Y-77076866D01*
X165280632Y-77065830D01*
X165300038Y-77056651D01*
X165320250Y-77049419D01*
X165341074Y-77044203D01*
X165362309Y-77041053D01*
X165383750Y-77040000D01*
X165896250Y-77040000D01*
X165917691Y-77041053D01*
G37*
G04 #@! TD.AperFunction*
G04 #@! TA.AperFunction,SMDPad,CuDef*
G36*
X165917691Y-75466053D02*
G01*
X165938926Y-75469203D01*
X165959750Y-75474419D01*
X165979962Y-75481651D01*
X165999368Y-75490830D01*
X166017781Y-75501866D01*
X166035024Y-75514654D01*
X166050930Y-75529070D01*
X166065346Y-75544976D01*
X166078134Y-75562219D01*
X166089170Y-75580632D01*
X166098349Y-75600038D01*
X166105581Y-75620250D01*
X166110797Y-75641074D01*
X166113947Y-75662309D01*
X166115000Y-75683750D01*
X166115000Y-76121250D01*
X166113947Y-76142691D01*
X166110797Y-76163926D01*
X166105581Y-76184750D01*
X166098349Y-76204962D01*
X166089170Y-76224368D01*
X166078134Y-76242781D01*
X166065346Y-76260024D01*
X166050930Y-76275930D01*
X166035024Y-76290346D01*
X166017781Y-76303134D01*
X165999368Y-76314170D01*
X165979962Y-76323349D01*
X165959750Y-76330581D01*
X165938926Y-76335797D01*
X165917691Y-76338947D01*
X165896250Y-76340000D01*
X165383750Y-76340000D01*
X165362309Y-76338947D01*
X165341074Y-76335797D01*
X165320250Y-76330581D01*
X165300038Y-76323349D01*
X165280632Y-76314170D01*
X165262219Y-76303134D01*
X165244976Y-76290346D01*
X165229070Y-76275930D01*
X165214654Y-76260024D01*
X165201866Y-76242781D01*
X165190830Y-76224368D01*
X165181651Y-76204962D01*
X165174419Y-76184750D01*
X165169203Y-76163926D01*
X165166053Y-76142691D01*
X165165000Y-76121250D01*
X165165000Y-75683750D01*
X165166053Y-75662309D01*
X165169203Y-75641074D01*
X165174419Y-75620250D01*
X165181651Y-75600038D01*
X165190830Y-75580632D01*
X165201866Y-75562219D01*
X165214654Y-75544976D01*
X165229070Y-75529070D01*
X165244976Y-75514654D01*
X165262219Y-75501866D01*
X165280632Y-75490830D01*
X165300038Y-75481651D01*
X165320250Y-75474419D01*
X165341074Y-75469203D01*
X165362309Y-75466053D01*
X165383750Y-75465000D01*
X165896250Y-75465000D01*
X165917691Y-75466053D01*
G37*
G04 #@! TD.AperFunction*
D10*
X116554314Y-85954314D03*
X130700000Y-97800000D03*
X163300000Y-108250000D03*
X190300000Y-92800000D03*
X138370000Y-103240000D03*
X136780000Y-92850000D03*
D23*
X190700000Y-102180000D03*
X135290000Y-101240000D03*
D10*
X138470000Y-99140000D03*
X130700000Y-96500000D03*
X158500000Y-98500000D03*
X139390000Y-103280000D03*
X130700000Y-95300000D03*
X140390000Y-103280000D03*
X130700000Y-94000000D03*
X141380000Y-103280000D03*
X130700000Y-92700000D03*
X143050000Y-83750000D03*
X138370000Y-70190000D03*
X137630000Y-92120000D03*
X183650000Y-68440000D03*
X182450000Y-68410000D03*
X185820000Y-98680000D03*
X137290000Y-99890000D03*
X170150000Y-85700000D03*
X185000000Y-97900000D03*
X196850000Y-83450000D03*
X191750000Y-100100000D03*
X184950000Y-96700000D03*
X194650000Y-103200000D03*
X185000000Y-92900000D03*
X211900010Y-95600000D03*
X192650000Y-103300000D03*
X185050000Y-95450000D03*
X193700000Y-103250000D03*
X185000000Y-94200000D03*
D24*
X136400001Y-65499999D02*
X161630000Y-65499999D01*
X161630000Y-65499999D02*
X179750000Y-65499999D01*
X161610000Y-65519999D02*
X161630000Y-65499999D01*
X179750000Y-65499999D02*
X198299999Y-65499999D01*
D25*
X179720000Y-65820000D02*
X179720000Y-65529999D01*
X179720000Y-65529999D02*
X179750000Y-65499999D01*
D24*
X200900000Y-68100000D02*
X202150000Y-68100000D01*
X198299999Y-65499999D02*
X200900000Y-68100000D01*
X135800000Y-66100000D02*
X136400001Y-65499999D01*
X135800000Y-66100000D02*
X136950000Y-67250000D01*
X136950000Y-67250000D02*
X139000000Y-67250000D01*
D26*
X202150000Y-68100000D02*
X202150000Y-67900000D01*
D24*
X128400000Y-66100000D02*
X135800000Y-66100000D01*
X128400000Y-66100000D02*
X126450000Y-66100000D01*
X126450000Y-66100000D02*
X126000000Y-66550000D01*
D25*
X161630000Y-69370000D02*
X161630000Y-65499999D01*
X161600000Y-69400000D02*
X161630000Y-69370000D01*
X161600000Y-70250000D02*
X161600000Y-69400000D01*
D26*
X124500000Y-66550000D02*
X124500000Y-70474371D01*
X124500000Y-70474371D02*
X124367477Y-70606894D01*
D25*
X144910583Y-67250000D02*
X140500000Y-67250000D01*
X148317477Y-70656894D02*
X144910583Y-67250000D01*
X118480000Y-103280000D02*
X116730000Y-103280000D01*
X118000261Y-69599729D02*
X119225421Y-69599729D01*
X116730000Y-103280000D02*
X115754304Y-102304304D01*
X115754304Y-102304304D02*
X115754304Y-85045688D01*
X115754304Y-85045688D02*
X114699990Y-83991374D01*
X119225421Y-69599729D02*
X120232565Y-70606873D01*
X114699990Y-83991374D02*
X114699990Y-72900000D01*
X114699990Y-72900000D02*
X118000261Y-69599729D01*
X115500000Y-74680162D02*
X115500000Y-83660000D01*
X115500000Y-83660000D02*
X118480000Y-86640000D01*
X118480000Y-86640000D02*
X118480000Y-88040000D01*
X117654474Y-73839664D02*
X116340498Y-73839664D01*
X116340498Y-73839664D02*
X115500000Y-74680162D01*
X116554314Y-85954314D02*
X116554314Y-96624314D01*
X116554314Y-96624314D02*
X118130000Y-98200000D01*
X118130000Y-98200000D02*
X118480000Y-98200000D01*
X118480000Y-90580000D02*
X118830000Y-90580000D01*
X121600000Y-87810000D02*
X121600000Y-85265686D01*
X118830000Y-90580000D02*
X121600000Y-87810000D01*
X121600000Y-85265686D02*
X124367435Y-82498251D01*
X124367435Y-82498251D02*
X124367435Y-79193127D01*
X122400010Y-101550000D02*
X122400010Y-91870000D01*
X126100000Y-105820000D02*
X125750000Y-105820000D01*
X125750000Y-105820000D02*
X122400010Y-102470010D01*
X122400010Y-102470010D02*
X122400010Y-101550000D01*
X122400010Y-85597060D02*
X122400010Y-91870000D01*
X122400010Y-91870000D02*
X122400010Y-92140000D01*
X126025412Y-77870948D02*
X126025412Y-81971658D01*
X126025412Y-81971658D02*
X122400010Y-85597060D01*
D24*
X125980000Y-105700000D02*
X126100000Y-105820000D01*
D25*
X126100000Y-103280000D02*
X125750000Y-103280000D01*
X123200020Y-100730020D02*
X123200020Y-85928434D01*
X125750000Y-103280000D02*
X123200020Y-100730020D01*
X123200020Y-85928434D02*
X129100000Y-80028454D01*
X129100000Y-80028454D02*
X129100000Y-74680194D01*
X129100000Y-74680194D02*
X128259516Y-73839710D01*
X128259516Y-73839710D02*
X126945537Y-73839710D01*
D27*
X126100000Y-100740000D02*
X126450000Y-100740000D01*
X130700000Y-97800000D02*
X126500000Y-97800000D01*
X126500000Y-97800000D02*
X126100000Y-98200000D01*
X184220000Y-92200000D02*
X187280000Y-92200000D01*
X187280000Y-92200000D02*
X190250000Y-92200000D01*
X187280000Y-88400000D02*
X187280000Y-92200000D01*
X135929999Y-91999999D02*
X130110001Y-91999999D01*
D26*
X156950000Y-101900000D02*
X156950000Y-98020000D01*
X156950000Y-98020000D02*
X154550000Y-95620000D01*
X154550000Y-95620000D02*
X154200000Y-95620000D01*
X163300000Y-108250000D02*
X156950000Y-101900000D01*
D27*
X142080001Y-105800000D02*
X144680001Y-108400000D01*
X144680001Y-108400000D02*
X154700000Y-108400000D01*
X154700000Y-108400000D02*
X156950000Y-106150000D01*
X156950000Y-106150000D02*
X156950000Y-101900000D01*
D24*
X154200000Y-95620000D02*
X154220000Y-95600000D01*
D27*
X194450000Y-104350000D02*
X195450000Y-105350000D01*
X190900000Y-92850000D02*
X195450000Y-97400000D01*
X190250000Y-92200000D02*
X190900000Y-92850000D01*
X190900000Y-92850000D02*
X190350000Y-92850000D01*
X190350000Y-92850000D02*
X190300000Y-92800000D01*
X180300000Y-95720000D02*
X180700000Y-95720000D01*
X210650000Y-97470000D02*
X208850000Y-95670000D01*
X180700000Y-95720000D02*
X184220000Y-92200000D01*
X209150000Y-108850000D02*
X210650000Y-107350000D01*
X195450000Y-97400000D02*
X195450000Y-105350000D01*
X195450000Y-105350000D02*
X198950000Y-108850000D01*
X198950000Y-108850000D02*
X209150000Y-108850000D01*
X208850000Y-95670000D02*
X208450000Y-95670000D01*
X210650000Y-107350000D02*
X210650000Y-97470000D01*
X138370000Y-103240000D02*
X138370000Y-103664264D01*
X138370000Y-103664264D02*
X138685737Y-103980001D01*
X138685737Y-103980001D02*
X140260002Y-103980001D01*
X140260002Y-103980001D02*
X142080001Y-105800000D01*
X142080001Y-98150001D02*
X142080001Y-105800000D01*
X136780000Y-92850000D02*
X142080001Y-98150001D01*
X136780000Y-92850000D02*
X135929999Y-91999999D01*
X130110001Y-91999999D02*
X126450000Y-95660000D01*
X126450000Y-95660000D02*
X126100000Y-95660000D01*
X190700000Y-102312002D02*
X190700000Y-102180000D01*
X194450000Y-104350000D02*
X192737998Y-104350000D01*
X192737998Y-104350000D02*
X190700000Y-102312002D01*
X190700000Y-102710000D02*
X191360000Y-103370000D01*
X190700000Y-102180000D02*
X190700000Y-102710000D01*
X135290000Y-102407500D02*
X135257500Y-102440000D01*
X135290000Y-101240000D02*
X135290000Y-102407500D01*
X135690000Y-96500000D02*
X130700000Y-96500000D01*
X138470000Y-99140000D02*
X135830000Y-96500000D01*
X135830000Y-96500000D02*
X135690000Y-96500000D01*
X158500000Y-98500000D02*
X158500000Y-97030000D01*
X158500000Y-97030000D02*
X154550000Y-93080000D01*
X154550000Y-93080000D02*
X154200000Y-93080000D01*
X139160000Y-97917046D02*
X139390000Y-98147046D01*
X139390000Y-98147046D02*
X139390000Y-103280000D01*
X130700000Y-95300000D02*
X136542954Y-95300000D01*
X136542954Y-95300000D02*
X139160000Y-97917046D01*
X136091496Y-94000000D02*
X140390000Y-98298504D01*
X140390000Y-98298504D02*
X140390000Y-103280000D01*
X130700000Y-94000000D02*
X136091496Y-94000000D01*
X141370000Y-98429962D02*
X141370000Y-103270000D01*
X141370000Y-103270000D02*
X141380000Y-103280000D01*
X130700000Y-92700000D02*
X135640038Y-92700000D01*
X135640038Y-92700000D02*
X141370000Y-98429962D01*
D25*
X143299990Y-96550000D02*
X143299990Y-85555638D01*
X144750000Y-101760000D02*
X144750000Y-98000010D01*
X144750000Y-98000010D02*
X143299990Y-96550000D01*
X146230000Y-103240000D02*
X144750000Y-101760000D01*
X138399990Y-72200010D02*
X140950271Y-69649729D01*
X146580000Y-103240000D02*
X146230000Y-103240000D01*
X143299990Y-85555638D02*
X138399990Y-80655638D01*
X138399990Y-80655638D02*
X138399990Y-72200010D01*
X140950271Y-69649729D02*
X143175421Y-69649729D01*
X143175421Y-69649729D02*
X144182565Y-70656873D01*
X146580000Y-103240000D02*
X146580000Y-102888491D01*
X139200000Y-78450000D02*
X146580000Y-85830000D01*
X146580000Y-85830000D02*
X146580000Y-88000000D01*
X139200000Y-74980162D02*
X139200000Y-78450000D01*
X141604474Y-73889664D02*
X140290498Y-73889664D01*
X140290498Y-73889664D02*
X139200000Y-74980162D01*
X144100000Y-85224264D02*
X144100000Y-96030000D01*
X146230000Y-98160000D02*
X146580000Y-98160000D01*
X144100000Y-96030000D02*
X146230000Y-98160000D01*
X143050000Y-83750000D02*
X143050000Y-84174264D01*
X143050000Y-84174264D02*
X144100000Y-85224264D01*
X146580000Y-93080000D02*
X146930000Y-93080000D01*
X146930000Y-93080000D02*
X148650000Y-91360000D01*
X148650000Y-91360000D02*
X148650000Y-82115024D01*
X148650000Y-82115024D02*
X146249976Y-79715000D01*
X149975412Y-77920948D02*
X149975412Y-101905412D01*
X149975412Y-101905412D02*
X151099990Y-103029990D01*
X151099990Y-103029990D02*
X153850000Y-105780000D01*
X153850000Y-105780000D02*
X154200000Y-105780000D01*
X150950000Y-80500000D02*
X150950000Y-100450000D01*
X150950000Y-100450000D02*
X151900000Y-101400000D01*
X153550000Y-77900000D02*
X150950000Y-80500000D01*
X153550000Y-75150000D02*
X153550000Y-77900000D01*
X152289710Y-73889710D02*
X153550000Y-75150000D01*
X150895537Y-73889710D02*
X152289710Y-73889710D01*
X154200000Y-103240000D02*
X153740000Y-103240000D01*
X153740000Y-103240000D02*
X151900000Y-101400000D01*
D27*
X137630000Y-92120000D02*
X137630000Y-70930000D01*
X137630000Y-70930000D02*
X138370000Y-70190000D01*
X187280000Y-83320000D02*
X189130010Y-81469990D01*
X189130010Y-81469990D02*
X189130010Y-73920010D01*
X189130010Y-73920010D02*
X183650000Y-68440000D01*
X187280000Y-80780000D02*
X188530001Y-79529999D01*
X188530001Y-79529999D02*
X188530001Y-74490001D01*
X188530001Y-74490001D02*
X182450000Y-68410000D01*
X180569992Y-109050008D02*
X185820000Y-103800000D01*
X185820000Y-103800000D02*
X185820000Y-98680000D01*
X137290000Y-99890000D02*
X137290000Y-103432806D01*
X137290000Y-103432806D02*
X142907202Y-109050008D01*
X142907202Y-109050008D02*
X180569992Y-109050008D01*
D25*
X179750000Y-69524371D02*
X179720000Y-69494371D01*
X179720000Y-69494371D02*
X179720000Y-67320000D01*
X179750000Y-69524371D02*
X178567477Y-70706894D01*
X203650000Y-69624371D02*
X203650000Y-68100000D01*
X202567477Y-70706894D02*
X203650000Y-69624371D01*
X172680000Y-103340000D02*
X170880000Y-103340000D01*
X170880000Y-103340000D02*
X168999990Y-101459990D01*
X168999990Y-101459990D02*
X168999990Y-72350010D01*
X168999990Y-72350010D02*
X171850000Y-69500000D01*
X171850000Y-69500000D02*
X173225692Y-69500000D01*
X173225692Y-69500000D02*
X174432565Y-70706873D01*
X169800000Y-74400000D02*
X169800000Y-83820000D01*
X169800000Y-83820000D02*
X172680000Y-86700000D01*
X172680000Y-86700000D02*
X172680000Y-88100000D01*
X170260336Y-73939664D02*
X169800000Y-74400000D01*
X171854474Y-73939664D02*
X170260336Y-73939664D01*
X170150000Y-85700000D02*
X170150000Y-96130000D01*
X170150000Y-96130000D02*
X172280000Y-98260000D01*
X172280000Y-98260000D02*
X172680000Y-98260000D01*
X175949980Y-86287252D02*
X175949980Y-87770020D01*
X175949980Y-87770020D02*
X173080000Y-90640000D01*
X173080000Y-90640000D02*
X172680000Y-90640000D01*
X178567435Y-79293127D02*
X178567435Y-83669797D01*
X178567435Y-83669797D02*
X175949980Y-86287252D01*
X180225412Y-77970948D02*
X180225412Y-83143204D01*
X180225412Y-83143204D02*
X176749990Y-86618626D01*
X176749990Y-86618626D02*
X176749990Y-102729990D01*
X176749990Y-102729990D02*
X179900000Y-105880000D01*
X179900000Y-105880000D02*
X180300000Y-105880000D01*
X177550000Y-86950000D02*
X177550000Y-100990000D01*
X177550000Y-100990000D02*
X179900000Y-103340000D01*
X179900000Y-103340000D02*
X180300000Y-103340000D01*
X183600000Y-80900000D02*
X177550000Y-86950000D01*
X183600000Y-74950000D02*
X183600000Y-80900000D01*
X182589710Y-73939710D02*
X183600000Y-74950000D01*
X181145537Y-73939710D02*
X182589710Y-73939710D01*
D27*
X180300000Y-98260000D02*
X184640000Y-98260000D01*
X184640000Y-98260000D02*
X185000000Y-97900000D01*
D25*
X200830000Y-103290000D02*
X200430000Y-103290000D01*
X197249990Y-96300000D02*
X197249990Y-86700000D01*
X200430000Y-103290000D02*
X198600000Y-101460000D01*
X195750271Y-69699729D02*
X197425421Y-69699729D01*
X198600000Y-101460000D02*
X198600000Y-97650010D01*
X198600000Y-97650010D02*
X197249990Y-96300000D01*
X197249990Y-86700000D02*
X192699990Y-82150000D01*
X192699990Y-82150000D02*
X192699990Y-72750010D01*
X192699990Y-72750010D02*
X195750271Y-69699729D01*
X197425421Y-69699729D02*
X198432565Y-70706873D01*
X200830000Y-85550000D02*
X200830000Y-88050000D01*
X193500000Y-78250000D02*
X193500000Y-77650000D01*
X200830000Y-85550000D02*
X200800000Y-85550000D01*
X200800000Y-85550000D02*
X193500000Y-78250000D01*
X193500000Y-74600000D02*
X193500000Y-77650000D01*
X194160336Y-73939664D02*
X193500000Y-74600000D01*
X195854474Y-73939664D02*
X194160336Y-73939664D01*
X198050000Y-95830000D02*
X198050000Y-84650000D01*
X198050000Y-84650000D02*
X196850000Y-83450000D01*
X200830000Y-98210000D02*
X200430000Y-98210000D01*
X200430000Y-98210000D02*
X198050000Y-95830000D01*
X200830000Y-93130000D02*
X201230000Y-93130000D01*
X201230000Y-93130000D02*
X203050000Y-91310000D01*
X203050000Y-91310000D02*
X203050000Y-82315024D01*
X203050000Y-82315024D02*
X200499976Y-79765000D01*
X204225412Y-77970948D02*
X204225412Y-102005412D01*
X204225412Y-102005412D02*
X208050000Y-105830000D01*
X208050000Y-105830000D02*
X208450000Y-105830000D01*
X207750000Y-78000000D02*
X207750000Y-74789710D01*
X207750000Y-74789710D02*
X206900000Y-73939710D01*
X206900000Y-73939710D02*
X205145537Y-73939710D01*
X205025422Y-80724578D02*
X207750000Y-78000000D01*
X205025422Y-101665422D02*
X205025422Y-80724578D01*
X208450000Y-103290000D02*
X206650000Y-103290000D01*
X206650000Y-103290000D02*
X205025422Y-101665422D01*
D27*
X191700000Y-97995626D02*
X191700000Y-100050000D01*
X191700000Y-100050000D02*
X191750000Y-100100000D01*
X190404374Y-96700000D02*
X191700000Y-97995626D01*
X184950000Y-96700000D02*
X190404374Y-96700000D01*
X189150000Y-92900000D02*
X194650000Y-98400000D01*
X194650000Y-98400000D02*
X194650000Y-103200000D01*
X185000000Y-92900000D02*
X189150000Y-92900000D01*
X211900010Y-95600000D02*
X209430010Y-93130000D01*
X209430010Y-93130000D02*
X208450000Y-93130000D01*
X190002916Y-95450000D02*
X192650000Y-98097084D01*
X192650000Y-98097084D02*
X192650000Y-103300000D01*
X185050000Y-95450000D02*
X190002916Y-95450000D01*
X193700000Y-98298542D02*
X193700000Y-103250000D01*
X185000000Y-94200000D02*
X189601458Y-94200000D01*
X189601458Y-94200000D02*
X193700000Y-98298542D01*
D25*
X161610000Y-71760000D02*
X161600000Y-71750000D01*
X161610000Y-74270000D02*
X161610000Y-71760000D01*
D26*
X163242500Y-75902500D02*
X161610000Y-74270000D01*
X165640000Y-75902500D02*
X163242500Y-75902500D01*
X164292500Y-87280000D02*
X164340000Y-87327500D01*
X158690000Y-87280000D02*
X164292500Y-87280000D01*
X164340000Y-82730000D02*
X164350000Y-82720000D01*
X164340000Y-85752500D02*
X164340000Y-82730000D01*
X165620000Y-77497500D02*
X165640000Y-77477500D01*
X165620000Y-82720000D02*
X165620000Y-77497500D01*
D28*
G36*
X130630498Y-64785820D02*
G01*
X130594188Y-64905518D01*
X130588330Y-64965000D01*
X126505751Y-64965000D01*
X126449999Y-64959509D01*
X126394248Y-64965000D01*
X126227501Y-64981423D01*
X126013553Y-65046324D01*
X125816377Y-65151716D01*
X125643551Y-65293551D01*
X125608004Y-65336865D01*
X125243948Y-65700921D01*
X125201185Y-65648815D01*
X125104494Y-65569463D01*
X124994180Y-65510498D01*
X124874482Y-65474188D01*
X124750000Y-65461928D01*
X124250000Y-65461928D01*
X124125518Y-65474188D01*
X124005820Y-65510498D01*
X123895506Y-65569463D01*
X123798815Y-65648815D01*
X123719463Y-65745506D01*
X123660498Y-65855820D01*
X123624188Y-65975518D01*
X123622086Y-65996861D01*
X123539159Y-66152008D01*
X123479976Y-66347106D01*
X123465000Y-66499163D01*
X123465001Y-69634527D01*
X122946435Y-70711328D01*
X122883812Y-70882550D01*
X122846428Y-71122935D01*
X122856660Y-71365992D01*
X122914113Y-71602384D01*
X123016580Y-71823025D01*
X123160123Y-72019436D01*
X123339227Y-72184070D01*
X123547006Y-72310599D01*
X123775478Y-72394160D01*
X124015863Y-72431544D01*
X124258920Y-72421312D01*
X124280985Y-72415949D01*
X124280666Y-72438655D01*
X124324775Y-72677896D01*
X124414709Y-72903936D01*
X124547014Y-73108087D01*
X124716604Y-73282503D01*
X124916963Y-73420483D01*
X125140390Y-73516724D01*
X125162593Y-73521465D01*
X125152456Y-73541780D01*
X125088394Y-73776467D01*
X125071347Y-74019142D01*
X125101971Y-74260481D01*
X125179089Y-74491207D01*
X125299739Y-74702456D01*
X125459282Y-74886107D01*
X125477233Y-74900015D01*
X125459283Y-74913922D01*
X125299738Y-75097572D01*
X125179086Y-75308819D01*
X125101965Y-75539545D01*
X125071338Y-75780883D01*
X125088382Y-76023558D01*
X125152442Y-76258246D01*
X125162580Y-76278564D01*
X125140376Y-76283305D01*
X124916948Y-76379544D01*
X124716587Y-76517522D01*
X124546995Y-76691937D01*
X124414689Y-76896086D01*
X124324752Y-77122126D01*
X124280641Y-77361366D01*
X124280959Y-77384070D01*
X124258894Y-77378707D01*
X124015837Y-77368474D01*
X123775452Y-77405855D01*
X123546979Y-77489414D01*
X123339198Y-77615941D01*
X123160093Y-77780574D01*
X123016548Y-77976983D01*
X123006984Y-77997576D01*
X122989432Y-77983171D01*
X122774885Y-77868492D01*
X122542086Y-77797872D01*
X122299984Y-77774026D01*
X122057883Y-77797869D01*
X121825084Y-77868487D01*
X121610535Y-77983164D01*
X121592984Y-77997568D01*
X121583420Y-77976975D01*
X121439877Y-77780564D01*
X121260773Y-77615930D01*
X121052994Y-77489401D01*
X120824522Y-77405840D01*
X120584137Y-77368456D01*
X120341079Y-77378688D01*
X120319015Y-77384050D01*
X120319334Y-77361346D01*
X120275225Y-77122105D01*
X120185290Y-76896064D01*
X120052986Y-76691914D01*
X119883396Y-76517497D01*
X119683036Y-76379517D01*
X119459609Y-76283276D01*
X119437407Y-76278535D01*
X119447544Y-76258220D01*
X119511606Y-76023534D01*
X119528653Y-75780858D01*
X119498029Y-75539519D01*
X119420911Y-75308793D01*
X119300261Y-75097544D01*
X119140718Y-74913893D01*
X119122767Y-74899985D01*
X119140716Y-74886078D01*
X119300261Y-74702428D01*
X119420914Y-74491181D01*
X119498035Y-74260455D01*
X119528662Y-74019117D01*
X119511617Y-73776441D01*
X119447557Y-73541754D01*
X119437419Y-73521436D01*
X119459624Y-73516695D01*
X119683052Y-73420456D01*
X119883412Y-73282478D01*
X120053004Y-73108063D01*
X120185311Y-72903914D01*
X120275248Y-72677874D01*
X120284396Y-72628260D01*
X120393703Y-72611262D01*
X120511177Y-72568298D01*
X121592343Y-72047643D01*
X121699178Y-71982587D01*
X121791268Y-71897938D01*
X121865075Y-71796950D01*
X121917761Y-71683504D01*
X121947303Y-71561958D01*
X121952565Y-71436985D01*
X121933345Y-71313387D01*
X121890381Y-71195913D01*
X120805683Y-68943486D01*
X120740627Y-68836651D01*
X120655979Y-68744561D01*
X120554991Y-68670754D01*
X120441544Y-68618068D01*
X120319999Y-68588526D01*
X120195025Y-68583264D01*
X120071427Y-68602484D01*
X119953953Y-68645448D01*
X119674935Y-68779814D01*
X119584961Y-68731722D01*
X119408713Y-68678258D01*
X119271353Y-68664729D01*
X119225421Y-68660205D01*
X119179489Y-68664729D01*
X118046192Y-68664729D01*
X118000260Y-68660205D01*
X117836067Y-68676377D01*
X117816969Y-68678258D01*
X117640721Y-68731722D01*
X117478289Y-68818543D01*
X117335917Y-68935385D01*
X117306635Y-68971065D01*
X114071326Y-72206375D01*
X114035647Y-72235656D01*
X113918805Y-72378028D01*
X113879499Y-72451565D01*
X113831984Y-72540460D01*
X113778519Y-72716709D01*
X113760466Y-72900000D01*
X113764991Y-72945942D01*
X113764990Y-83945442D01*
X113760466Y-83991374D01*
X113771657Y-84105000D01*
X113778519Y-84174665D01*
X113831983Y-84350913D01*
X113918804Y-84513345D01*
X114035646Y-84655718D01*
X114071331Y-84685004D01*
X114819305Y-85432979D01*
X114819304Y-102258372D01*
X114814780Y-102304304D01*
X114832833Y-102487595D01*
X114886297Y-102663843D01*
X114973118Y-102826275D01*
X115089960Y-102968648D01*
X115125645Y-102997934D01*
X116036374Y-103908664D01*
X116065656Y-103944344D01*
X116208028Y-104061186D01*
X116313880Y-104117765D01*
X116370459Y-104148007D01*
X116546708Y-104201472D01*
X116730000Y-104219524D01*
X116775935Y-104215000D01*
X117040956Y-104215000D01*
X117110392Y-104299608D01*
X117328899Y-104478932D01*
X117461858Y-104550000D01*
X117328899Y-104621068D01*
X117110392Y-104800392D01*
X116931068Y-105018899D01*
X116797818Y-105268192D01*
X116715764Y-105538691D01*
X116688057Y-105820000D01*
X116715764Y-106101309D01*
X116797818Y-106371808D01*
X116931068Y-106621101D01*
X117110392Y-106839608D01*
X117328899Y-107018932D01*
X117578192Y-107152182D01*
X117848691Y-107234236D01*
X118059508Y-107255000D01*
X118900492Y-107255000D01*
X119111309Y-107234236D01*
X119381808Y-107152182D01*
X119631101Y-107018932D01*
X119849608Y-106839608D01*
X120028932Y-106621101D01*
X120162182Y-106371808D01*
X120244236Y-106101309D01*
X120271943Y-105820000D01*
X120244236Y-105538691D01*
X120162182Y-105268192D01*
X120028932Y-105018899D01*
X119849608Y-104800392D01*
X119631101Y-104621068D01*
X119498142Y-104550000D01*
X119631101Y-104478932D01*
X119849608Y-104299608D01*
X120028932Y-104081101D01*
X120162182Y-103831808D01*
X120244236Y-103561309D01*
X120271943Y-103280000D01*
X120244236Y-102998691D01*
X120162182Y-102728192D01*
X120028932Y-102478899D01*
X119849608Y-102260392D01*
X119631101Y-102081068D01*
X119498142Y-102010000D01*
X119631101Y-101938932D01*
X119849608Y-101759608D01*
X120028932Y-101541101D01*
X120162182Y-101291808D01*
X120244236Y-101021309D01*
X120271943Y-100740000D01*
X120244236Y-100458691D01*
X120162182Y-100188192D01*
X120028932Y-99938899D01*
X119849608Y-99720392D01*
X119631101Y-99541068D01*
X119498142Y-99470000D01*
X119631101Y-99398932D01*
X119849608Y-99219608D01*
X120028932Y-99001101D01*
X120162182Y-98751808D01*
X120244236Y-98481309D01*
X120271943Y-98200000D01*
X120244236Y-97918691D01*
X120162182Y-97648192D01*
X120028932Y-97398899D01*
X119849608Y-97180392D01*
X119631101Y-97001068D01*
X119381808Y-96867818D01*
X119111309Y-96785764D01*
X118900492Y-96765000D01*
X118059508Y-96765000D01*
X118021075Y-96768785D01*
X117489314Y-96237025D01*
X117489314Y-94404676D01*
X117578192Y-94452182D01*
X117848691Y-94534236D01*
X118059508Y-94555000D01*
X118900492Y-94555000D01*
X119111309Y-94534236D01*
X119381808Y-94452182D01*
X119631101Y-94318932D01*
X119849608Y-94139608D01*
X120028932Y-93921101D01*
X120162182Y-93671808D01*
X120244236Y-93401309D01*
X120271943Y-93120000D01*
X120244236Y-92838691D01*
X120162182Y-92568192D01*
X120028932Y-92318899D01*
X119849608Y-92100392D01*
X119631101Y-91921068D01*
X119498142Y-91850000D01*
X119631101Y-91778932D01*
X119849608Y-91599608D01*
X120028932Y-91381101D01*
X120162182Y-91131808D01*
X120244236Y-90861309D01*
X120271943Y-90580000D01*
X120261215Y-90471074D01*
X121465011Y-89267278D01*
X121465011Y-91824059D01*
X121465010Y-91824069D01*
X121465010Y-92185932D01*
X121465011Y-92185942D01*
X121465010Y-101595931D01*
X121465011Y-101595940D01*
X121465010Y-102424077D01*
X121460486Y-102470010D01*
X121471998Y-102586893D01*
X121478539Y-102653301D01*
X121532003Y-102829549D01*
X121618824Y-102991981D01*
X121735666Y-103134354D01*
X121771351Y-103163640D01*
X124318785Y-105711075D01*
X124308057Y-105820000D01*
X124335764Y-106101309D01*
X124417818Y-106371808D01*
X124551068Y-106621101D01*
X124730392Y-106839608D01*
X124948899Y-107018932D01*
X125198192Y-107152182D01*
X125468691Y-107234236D01*
X125679508Y-107255000D01*
X126520492Y-107255000D01*
X126731309Y-107234236D01*
X127001808Y-107152182D01*
X127251101Y-107018932D01*
X127469608Y-106839608D01*
X127648932Y-106621101D01*
X127782182Y-106371808D01*
X127864236Y-106101309D01*
X127891943Y-105820000D01*
X127864236Y-105538691D01*
X127782182Y-105268192D01*
X127648932Y-105018899D01*
X127469608Y-104800392D01*
X127251101Y-104621068D01*
X127118142Y-104550000D01*
X127251101Y-104478932D01*
X127469608Y-104299608D01*
X127648932Y-104081101D01*
X127782182Y-103831808D01*
X127864236Y-103561309D01*
X127891943Y-103280000D01*
X127864236Y-102998691D01*
X127838849Y-102915000D01*
X132606928Y-102915000D01*
X132619188Y-103039482D01*
X132655498Y-103159180D01*
X132714463Y-103269494D01*
X132793815Y-103366185D01*
X132890506Y-103445537D01*
X133000820Y-103504502D01*
X133120518Y-103540812D01*
X133245000Y-103553072D01*
X133396750Y-103550000D01*
X133555500Y-103391250D01*
X133555500Y-102567000D01*
X132768750Y-102567000D01*
X132610000Y-102725750D01*
X132606928Y-102915000D01*
X127838849Y-102915000D01*
X127782182Y-102728192D01*
X127648932Y-102478899D01*
X127469608Y-102260392D01*
X127251101Y-102081068D01*
X127118142Y-102010000D01*
X127202331Y-101965000D01*
X132606928Y-101965000D01*
X132610000Y-102154250D01*
X132768750Y-102313000D01*
X133555500Y-102313000D01*
X133555500Y-101488750D01*
X133809500Y-101488750D01*
X133809500Y-102313000D01*
X133829500Y-102313000D01*
X133829500Y-102567000D01*
X133809500Y-102567000D01*
X133809500Y-103391250D01*
X133968250Y-103550000D01*
X134120000Y-103553072D01*
X134244482Y-103540812D01*
X134364180Y-103504502D01*
X134474494Y-103445537D01*
X134541070Y-103390900D01*
X134562725Y-103408671D01*
X134710858Y-103487850D01*
X134871592Y-103536608D01*
X135038750Y-103553072D01*
X135476250Y-103553072D01*
X135643408Y-103536608D01*
X135804142Y-103487850D01*
X135952275Y-103408671D01*
X136082115Y-103302115D01*
X136188671Y-103172275D01*
X136267850Y-103024142D01*
X136316608Y-102863408D01*
X136333072Y-102696250D01*
X136333072Y-102183750D01*
X136316608Y-102016592D01*
X136267850Y-101855858D01*
X136188671Y-101707725D01*
X136125000Y-101630141D01*
X136125000Y-101536748D01*
X136140990Y-101498145D01*
X136175000Y-101327165D01*
X136175000Y-101152835D01*
X136140990Y-100981855D01*
X136074277Y-100820795D01*
X135977424Y-100675845D01*
X135854155Y-100552576D01*
X135709205Y-100455723D01*
X135548145Y-100389010D01*
X135377165Y-100355000D01*
X135202835Y-100355000D01*
X135031855Y-100389010D01*
X134870795Y-100455723D01*
X134725845Y-100552576D01*
X134602576Y-100675845D01*
X134505723Y-100820795D01*
X134439010Y-100981855D01*
X134405000Y-101152835D01*
X134405000Y-101327165D01*
X134420614Y-101405663D01*
X134364180Y-101375498D01*
X134244482Y-101339188D01*
X134120000Y-101326928D01*
X133968250Y-101330000D01*
X133809500Y-101488750D01*
X133555500Y-101488750D01*
X133396750Y-101330000D01*
X133245000Y-101326928D01*
X133120518Y-101339188D01*
X133000820Y-101375498D01*
X132890506Y-101434463D01*
X132793815Y-101513815D01*
X132714463Y-101610506D01*
X132655498Y-101720820D01*
X132619188Y-101840518D01*
X132606928Y-101965000D01*
X127202331Y-101965000D01*
X127251101Y-101938932D01*
X127469608Y-101759608D01*
X127648932Y-101541101D01*
X127782182Y-101291808D01*
X127864236Y-101021309D01*
X127891943Y-100740000D01*
X127864236Y-100458691D01*
X127782182Y-100188192D01*
X127648932Y-99938899D01*
X127469608Y-99720392D01*
X127251101Y-99541068D01*
X127118142Y-99470000D01*
X127251101Y-99398932D01*
X127469608Y-99219608D01*
X127648932Y-99001101D01*
X127782182Y-98751808D01*
X127817615Y-98635000D01*
X130272596Y-98635000D01*
X130427271Y-98699068D01*
X130607911Y-98735000D01*
X130792089Y-98735000D01*
X130972729Y-98699068D01*
X131142889Y-98628586D01*
X131296028Y-98526262D01*
X131426262Y-98396028D01*
X131528586Y-98242889D01*
X131599068Y-98072729D01*
X131635000Y-97892089D01*
X131635000Y-97707911D01*
X131599068Y-97527271D01*
X131528586Y-97357111D01*
X131513812Y-97335000D01*
X135484133Y-97335000D01*
X137119691Y-98970559D01*
X137017271Y-98990932D01*
X136847111Y-99061414D01*
X136693972Y-99163738D01*
X136563738Y-99293972D01*
X136461414Y-99447111D01*
X136390932Y-99617271D01*
X136355000Y-99797911D01*
X136355000Y-99982089D01*
X136390932Y-100162729D01*
X136455000Y-100317404D01*
X136455001Y-103391778D01*
X136450960Y-103432806D01*
X136467082Y-103596494D01*
X136514828Y-103753892D01*
X136591854Y-103897996D01*
X136592365Y-103898952D01*
X136696710Y-104026097D01*
X136728574Y-104052247D01*
X142287761Y-109611435D01*
X142313911Y-109643299D01*
X142441056Y-109747644D01*
X142586115Y-109825180D01*
X142743513Y-109872926D01*
X142866183Y-109885008D01*
X142866185Y-109885008D01*
X142907201Y-109889048D01*
X142948217Y-109885008D01*
X180528974Y-109885008D01*
X180569992Y-109889048D01*
X180611010Y-109885008D01*
X180611011Y-109885008D01*
X180733681Y-109872926D01*
X180891079Y-109825180D01*
X181036138Y-109747644D01*
X181163283Y-109643299D01*
X181189438Y-109611429D01*
X182911146Y-107889721D01*
X185065000Y-107889721D01*
X185065000Y-108310279D01*
X185147047Y-108722756D01*
X185307988Y-109111302D01*
X185541637Y-109460983D01*
X185839017Y-109758363D01*
X186188698Y-109992012D01*
X186577244Y-110152953D01*
X186989721Y-110235000D01*
X187410279Y-110235000D01*
X187822756Y-110152953D01*
X188211302Y-109992012D01*
X188560983Y-109758363D01*
X188858363Y-109460983D01*
X189092012Y-109111302D01*
X189252953Y-108722756D01*
X189335000Y-108310279D01*
X189335000Y-107889721D01*
X189252953Y-107477244D01*
X189092012Y-107088698D01*
X188858363Y-106739017D01*
X188560983Y-106441637D01*
X188211302Y-106207988D01*
X187822756Y-106047047D01*
X187410279Y-105965000D01*
X186989721Y-105965000D01*
X186577244Y-106047047D01*
X186188698Y-106207988D01*
X185839017Y-106441637D01*
X185541637Y-106739017D01*
X185307988Y-107088698D01*
X185147047Y-107477244D01*
X185065000Y-107889721D01*
X182911146Y-107889721D01*
X186381433Y-104419436D01*
X186413291Y-104393291D01*
X186452923Y-104345000D01*
X186472413Y-104321250D01*
X186517636Y-104266146D01*
X186595172Y-104121087D01*
X186642918Y-103963689D01*
X186654607Y-103845000D01*
X188709428Y-103845000D01*
X188721688Y-103969482D01*
X188757998Y-104089180D01*
X188816963Y-104199494D01*
X188896315Y-104296185D01*
X188993006Y-104375537D01*
X189103320Y-104434502D01*
X189223018Y-104470812D01*
X189347500Y-104483072D01*
X189499250Y-104480000D01*
X189658000Y-104321250D01*
X189658000Y-103497000D01*
X188871250Y-103497000D01*
X188712500Y-103655750D01*
X188709428Y-103845000D01*
X186654607Y-103845000D01*
X186655000Y-103841019D01*
X186655000Y-103841018D01*
X186659040Y-103800000D01*
X186655000Y-103758982D01*
X186655000Y-102895000D01*
X188709428Y-102895000D01*
X188712500Y-103084250D01*
X188871250Y-103243000D01*
X189658000Y-103243000D01*
X189658000Y-102418750D01*
X189499250Y-102260000D01*
X189347500Y-102256928D01*
X189223018Y-102269188D01*
X189103320Y-102305498D01*
X188993006Y-102364463D01*
X188896315Y-102443815D01*
X188816963Y-102540506D01*
X188757998Y-102650820D01*
X188721688Y-102770518D01*
X188709428Y-102895000D01*
X186655000Y-102895000D01*
X186655000Y-99107404D01*
X186719068Y-98952729D01*
X186755000Y-98772089D01*
X186755000Y-98587911D01*
X186719068Y-98407271D01*
X186648586Y-98237111D01*
X186546262Y-98083972D01*
X186416028Y-97953738D01*
X186262889Y-97851414D01*
X186092729Y-97780932D01*
X185922914Y-97747153D01*
X185899068Y-97627271D01*
X185860848Y-97535000D01*
X190058507Y-97535000D01*
X190865000Y-98341495D01*
X190865001Y-99793305D01*
X190850932Y-99827271D01*
X190815000Y-100007911D01*
X190815000Y-100192089D01*
X190850932Y-100372729D01*
X190921414Y-100542889D01*
X191023738Y-100696028D01*
X191153972Y-100826262D01*
X191307111Y-100928586D01*
X191477271Y-100999068D01*
X191657911Y-101035000D01*
X191815001Y-101035000D01*
X191815001Y-102246136D01*
X191565955Y-101997090D01*
X191550990Y-101921855D01*
X191484277Y-101760795D01*
X191387424Y-101615845D01*
X191264155Y-101492576D01*
X191119205Y-101395723D01*
X190958145Y-101329010D01*
X190787165Y-101295000D01*
X190612835Y-101295000D01*
X190441855Y-101329010D01*
X190280795Y-101395723D01*
X190135845Y-101492576D01*
X190012576Y-101615845D01*
X189915723Y-101760795D01*
X189849010Y-101921855D01*
X189815000Y-102092835D01*
X189815000Y-102267165D01*
X189849010Y-102438145D01*
X189865000Y-102476748D01*
X189865000Y-102668982D01*
X189860960Y-102710000D01*
X189865000Y-102751018D01*
X189865000Y-102751019D01*
X189877082Y-102873689D01*
X189912000Y-102988799D01*
X189912000Y-103243000D01*
X189932000Y-103243000D01*
X189932000Y-103497000D01*
X189912000Y-103497000D01*
X189912000Y-104321250D01*
X190070750Y-104480000D01*
X190222500Y-104483072D01*
X190346982Y-104470812D01*
X190466680Y-104434502D01*
X190576994Y-104375537D01*
X190643570Y-104320900D01*
X190665225Y-104338671D01*
X190813358Y-104417850D01*
X190974092Y-104466608D01*
X191141250Y-104483072D01*
X191578750Y-104483072D01*
X191680209Y-104473079D01*
X192118557Y-104911427D01*
X192144707Y-104943291D01*
X192271852Y-105047636D01*
X192416911Y-105125172D01*
X192574309Y-105172918D01*
X192696979Y-105185000D01*
X192696989Y-105185000D01*
X192737997Y-105189039D01*
X192779005Y-105185000D01*
X194104132Y-105185000D01*
X194830568Y-105911437D01*
X194856710Y-105943291D01*
X194888563Y-105969432D01*
X194888570Y-105969439D01*
X194888581Y-105969448D01*
X198330559Y-109411427D01*
X198356709Y-109443291D01*
X198483854Y-109547636D01*
X198628913Y-109625172D01*
X198786311Y-109672918D01*
X198908981Y-109685000D01*
X198908991Y-109685000D01*
X198949999Y-109689039D01*
X198991007Y-109685000D01*
X209108982Y-109685000D01*
X209150000Y-109689040D01*
X209191018Y-109685000D01*
X209191019Y-109685000D01*
X209313689Y-109672918D01*
X209471087Y-109625172D01*
X209616146Y-109547636D01*
X209743291Y-109443291D01*
X209769446Y-109411421D01*
X211211428Y-107969440D01*
X211243291Y-107943291D01*
X211347636Y-107816146D01*
X211425172Y-107671087D01*
X211472918Y-107513689D01*
X211485000Y-107391019D01*
X211485000Y-107391009D01*
X211489039Y-107350001D01*
X211485000Y-107308993D01*
X211485000Y-97511007D01*
X211489039Y-97469999D01*
X211485000Y-97428991D01*
X211485000Y-97428981D01*
X211472918Y-97306311D01*
X211425172Y-97148913D01*
X211347636Y-97003854D01*
X211243291Y-96876709D01*
X211211427Y-96850559D01*
X210268534Y-95907667D01*
X210291943Y-95670000D01*
X210264236Y-95388691D01*
X210182182Y-95118192D01*
X210118851Y-94999709D01*
X211007356Y-95888214D01*
X211071424Y-96042889D01*
X211173748Y-96196028D01*
X211303982Y-96326262D01*
X211457121Y-96428586D01*
X211627281Y-96499068D01*
X211807921Y-96535000D01*
X211992099Y-96535000D01*
X212172739Y-96499068D01*
X212290000Y-96450497D01*
X212290000Y-107965279D01*
X212243048Y-108444133D01*
X212114063Y-108871353D01*
X211904554Y-109265384D01*
X211622501Y-109611214D01*
X211278651Y-109895672D01*
X210886093Y-110107927D01*
X210459788Y-110239891D01*
X209983036Y-110290000D01*
X116034721Y-110290000D01*
X115555867Y-110243048D01*
X115128647Y-110114063D01*
X114734616Y-109904554D01*
X114388786Y-109622501D01*
X114104328Y-109278651D01*
X113892073Y-108886093D01*
X113760109Y-108459788D01*
X113710000Y-107983036D01*
X113710000Y-107789721D01*
X130865000Y-107789721D01*
X130865000Y-108210279D01*
X130947047Y-108622756D01*
X131107988Y-109011302D01*
X131341637Y-109360983D01*
X131639017Y-109658363D01*
X131988698Y-109892012D01*
X132377244Y-110052953D01*
X132789721Y-110135000D01*
X133210279Y-110135000D01*
X133622756Y-110052953D01*
X134011302Y-109892012D01*
X134360983Y-109658363D01*
X134658363Y-109360983D01*
X134892012Y-109011302D01*
X135052953Y-108622756D01*
X135135000Y-108210279D01*
X135135000Y-107789721D01*
X135052953Y-107377244D01*
X134892012Y-106988698D01*
X134658363Y-106639017D01*
X134360983Y-106341637D01*
X134011302Y-106107988D01*
X133622756Y-105947047D01*
X133210279Y-105865000D01*
X132789721Y-105865000D01*
X132377244Y-105947047D01*
X131988698Y-106107988D01*
X131639017Y-106341637D01*
X131341637Y-106639017D01*
X131107988Y-106988698D01*
X130947047Y-107377244D01*
X130865000Y-107789721D01*
X113710000Y-107789721D01*
X113710000Y-67034721D01*
X113734022Y-66789721D01*
X113865000Y-66789721D01*
X113865000Y-67210279D01*
X113947047Y-67622756D01*
X114107988Y-68011302D01*
X114341637Y-68360983D01*
X114639017Y-68658363D01*
X114988698Y-68892012D01*
X115377244Y-69052953D01*
X115789721Y-69135000D01*
X116210279Y-69135000D01*
X116622756Y-69052953D01*
X117011302Y-68892012D01*
X117360983Y-68658363D01*
X117658363Y-68360983D01*
X117892012Y-68011302D01*
X118052953Y-67622756D01*
X118135000Y-67210279D01*
X118135000Y-66789721D01*
X118052953Y-66377244D01*
X117892012Y-65988698D01*
X117658363Y-65639017D01*
X117360983Y-65341637D01*
X117011302Y-65107988D01*
X116622756Y-64947047D01*
X116210279Y-64865000D01*
X115789721Y-64865000D01*
X115377244Y-64947047D01*
X114988698Y-65107988D01*
X114639017Y-65341637D01*
X114341637Y-65639017D01*
X114107988Y-65988698D01*
X113947047Y-66377244D01*
X113865000Y-66789721D01*
X113734022Y-66789721D01*
X113756953Y-66555866D01*
X113885938Y-66128645D01*
X114095446Y-65734616D01*
X114377499Y-65388786D01*
X114721351Y-65104327D01*
X115113910Y-64892071D01*
X115540213Y-64760108D01*
X116016964Y-64710000D01*
X130671025Y-64710000D01*
X130630498Y-64785820D01*
G37*
X130630498Y-64785820D02*
X130594188Y-64905518D01*
X130588330Y-64965000D01*
X126505751Y-64965000D01*
X126449999Y-64959509D01*
X126394248Y-64965000D01*
X126227501Y-64981423D01*
X126013553Y-65046324D01*
X125816377Y-65151716D01*
X125643551Y-65293551D01*
X125608004Y-65336865D01*
X125243948Y-65700921D01*
X125201185Y-65648815D01*
X125104494Y-65569463D01*
X124994180Y-65510498D01*
X124874482Y-65474188D01*
X124750000Y-65461928D01*
X124250000Y-65461928D01*
X124125518Y-65474188D01*
X124005820Y-65510498D01*
X123895506Y-65569463D01*
X123798815Y-65648815D01*
X123719463Y-65745506D01*
X123660498Y-65855820D01*
X123624188Y-65975518D01*
X123622086Y-65996861D01*
X123539159Y-66152008D01*
X123479976Y-66347106D01*
X123465000Y-66499163D01*
X123465001Y-69634527D01*
X122946435Y-70711328D01*
X122883812Y-70882550D01*
X122846428Y-71122935D01*
X122856660Y-71365992D01*
X122914113Y-71602384D01*
X123016580Y-71823025D01*
X123160123Y-72019436D01*
X123339227Y-72184070D01*
X123547006Y-72310599D01*
X123775478Y-72394160D01*
X124015863Y-72431544D01*
X124258920Y-72421312D01*
X124280985Y-72415949D01*
X124280666Y-72438655D01*
X124324775Y-72677896D01*
X124414709Y-72903936D01*
X124547014Y-73108087D01*
X124716604Y-73282503D01*
X124916963Y-73420483D01*
X125140390Y-73516724D01*
X125162593Y-73521465D01*
X125152456Y-73541780D01*
X125088394Y-73776467D01*
X125071347Y-74019142D01*
X125101971Y-74260481D01*
X125179089Y-74491207D01*
X125299739Y-74702456D01*
X125459282Y-74886107D01*
X125477233Y-74900015D01*
X125459283Y-74913922D01*
X125299738Y-75097572D01*
X125179086Y-75308819D01*
X125101965Y-75539545D01*
X125071338Y-75780883D01*
X125088382Y-76023558D01*
X125152442Y-76258246D01*
X125162580Y-76278564D01*
X125140376Y-76283305D01*
X124916948Y-76379544D01*
X124716587Y-76517522D01*
X124546995Y-76691937D01*
X124414689Y-76896086D01*
X124324752Y-77122126D01*
X124280641Y-77361366D01*
X124280959Y-77384070D01*
X124258894Y-77378707D01*
X124015837Y-77368474D01*
X123775452Y-77405855D01*
X123546979Y-77489414D01*
X123339198Y-77615941D01*
X123160093Y-77780574D01*
X123016548Y-77976983D01*
X123006984Y-77997576D01*
X122989432Y-77983171D01*
X122774885Y-77868492D01*
X122542086Y-77797872D01*
X122299984Y-77774026D01*
X122057883Y-77797869D01*
X121825084Y-77868487D01*
X121610535Y-77983164D01*
X121592984Y-77997568D01*
X121583420Y-77976975D01*
X121439877Y-77780564D01*
X121260773Y-77615930D01*
X121052994Y-77489401D01*
X120824522Y-77405840D01*
X120584137Y-77368456D01*
X120341079Y-77378688D01*
X120319015Y-77384050D01*
X120319334Y-77361346D01*
X120275225Y-77122105D01*
X120185290Y-76896064D01*
X120052986Y-76691914D01*
X119883396Y-76517497D01*
X119683036Y-76379517D01*
X119459609Y-76283276D01*
X119437407Y-76278535D01*
X119447544Y-76258220D01*
X119511606Y-76023534D01*
X119528653Y-75780858D01*
X119498029Y-75539519D01*
X119420911Y-75308793D01*
X119300261Y-75097544D01*
X119140718Y-74913893D01*
X119122767Y-74899985D01*
X119140716Y-74886078D01*
X119300261Y-74702428D01*
X119420914Y-74491181D01*
X119498035Y-74260455D01*
X119528662Y-74019117D01*
X119511617Y-73776441D01*
X119447557Y-73541754D01*
X119437419Y-73521436D01*
X119459624Y-73516695D01*
X119683052Y-73420456D01*
X119883412Y-73282478D01*
X120053004Y-73108063D01*
X120185311Y-72903914D01*
X120275248Y-72677874D01*
X120284396Y-72628260D01*
X120393703Y-72611262D01*
X120511177Y-72568298D01*
X121592343Y-72047643D01*
X121699178Y-71982587D01*
X121791268Y-71897938D01*
X121865075Y-71796950D01*
X121917761Y-71683504D01*
X121947303Y-71561958D01*
X121952565Y-71436985D01*
X121933345Y-71313387D01*
X121890381Y-71195913D01*
X120805683Y-68943486D01*
X120740627Y-68836651D01*
X120655979Y-68744561D01*
X120554991Y-68670754D01*
X120441544Y-68618068D01*
X120319999Y-68588526D01*
X120195025Y-68583264D01*
X120071427Y-68602484D01*
X119953953Y-68645448D01*
X119674935Y-68779814D01*
X119584961Y-68731722D01*
X119408713Y-68678258D01*
X119271353Y-68664729D01*
X119225421Y-68660205D01*
X119179489Y-68664729D01*
X118046192Y-68664729D01*
X118000260Y-68660205D01*
X117836067Y-68676377D01*
X117816969Y-68678258D01*
X117640721Y-68731722D01*
X117478289Y-68818543D01*
X117335917Y-68935385D01*
X117306635Y-68971065D01*
X114071326Y-72206375D01*
X114035647Y-72235656D01*
X113918805Y-72378028D01*
X113879499Y-72451565D01*
X113831984Y-72540460D01*
X113778519Y-72716709D01*
X113760466Y-72900000D01*
X113764991Y-72945942D01*
X113764990Y-83945442D01*
X113760466Y-83991374D01*
X113771657Y-84105000D01*
X113778519Y-84174665D01*
X113831983Y-84350913D01*
X113918804Y-84513345D01*
X114035646Y-84655718D01*
X114071331Y-84685004D01*
X114819305Y-85432979D01*
X114819304Y-102258372D01*
X114814780Y-102304304D01*
X114832833Y-102487595D01*
X114886297Y-102663843D01*
X114973118Y-102826275D01*
X115089960Y-102968648D01*
X115125645Y-102997934D01*
X116036374Y-103908664D01*
X116065656Y-103944344D01*
X116208028Y-104061186D01*
X116313880Y-104117765D01*
X116370459Y-104148007D01*
X116546708Y-104201472D01*
X116730000Y-104219524D01*
X116775935Y-104215000D01*
X117040956Y-104215000D01*
X117110392Y-104299608D01*
X117328899Y-104478932D01*
X117461858Y-104550000D01*
X117328899Y-104621068D01*
X117110392Y-104800392D01*
X116931068Y-105018899D01*
X116797818Y-105268192D01*
X116715764Y-105538691D01*
X116688057Y-105820000D01*
X116715764Y-106101309D01*
X116797818Y-106371808D01*
X116931068Y-106621101D01*
X117110392Y-106839608D01*
X117328899Y-107018932D01*
X117578192Y-107152182D01*
X117848691Y-107234236D01*
X118059508Y-107255000D01*
X118900492Y-107255000D01*
X119111309Y-107234236D01*
X119381808Y-107152182D01*
X119631101Y-107018932D01*
X119849608Y-106839608D01*
X120028932Y-106621101D01*
X120162182Y-106371808D01*
X120244236Y-106101309D01*
X120271943Y-105820000D01*
X120244236Y-105538691D01*
X120162182Y-105268192D01*
X120028932Y-105018899D01*
X119849608Y-104800392D01*
X119631101Y-104621068D01*
X119498142Y-104550000D01*
X119631101Y-104478932D01*
X119849608Y-104299608D01*
X120028932Y-104081101D01*
X120162182Y-103831808D01*
X120244236Y-103561309D01*
X120271943Y-103280000D01*
X120244236Y-102998691D01*
X120162182Y-102728192D01*
X120028932Y-102478899D01*
X119849608Y-102260392D01*
X119631101Y-102081068D01*
X119498142Y-102010000D01*
X119631101Y-101938932D01*
X119849608Y-101759608D01*
X120028932Y-101541101D01*
X120162182Y-101291808D01*
X120244236Y-101021309D01*
X120271943Y-100740000D01*
X120244236Y-100458691D01*
X120162182Y-100188192D01*
X120028932Y-99938899D01*
X119849608Y-99720392D01*
X119631101Y-99541068D01*
X119498142Y-99470000D01*
X119631101Y-99398932D01*
X119849608Y-99219608D01*
X120028932Y-99001101D01*
X120162182Y-98751808D01*
X120244236Y-98481309D01*
X120271943Y-98200000D01*
X120244236Y-97918691D01*
X120162182Y-97648192D01*
X120028932Y-97398899D01*
X119849608Y-97180392D01*
X119631101Y-97001068D01*
X119381808Y-96867818D01*
X119111309Y-96785764D01*
X118900492Y-96765000D01*
X118059508Y-96765000D01*
X118021075Y-96768785D01*
X117489314Y-96237025D01*
X117489314Y-94404676D01*
X117578192Y-94452182D01*
X117848691Y-94534236D01*
X118059508Y-94555000D01*
X118900492Y-94555000D01*
X119111309Y-94534236D01*
X119381808Y-94452182D01*
X119631101Y-94318932D01*
X119849608Y-94139608D01*
X120028932Y-93921101D01*
X120162182Y-93671808D01*
X120244236Y-93401309D01*
X120271943Y-93120000D01*
X120244236Y-92838691D01*
X120162182Y-92568192D01*
X120028932Y-92318899D01*
X119849608Y-92100392D01*
X119631101Y-91921068D01*
X119498142Y-91850000D01*
X119631101Y-91778932D01*
X119849608Y-91599608D01*
X120028932Y-91381101D01*
X120162182Y-91131808D01*
X120244236Y-90861309D01*
X120271943Y-90580000D01*
X120261215Y-90471074D01*
X121465011Y-89267278D01*
X121465011Y-91824059D01*
X121465010Y-91824069D01*
X121465010Y-92185932D01*
X121465011Y-92185942D01*
X121465010Y-101595931D01*
X121465011Y-101595940D01*
X121465010Y-102424077D01*
X121460486Y-102470010D01*
X121471998Y-102586893D01*
X121478539Y-102653301D01*
X121532003Y-102829549D01*
X121618824Y-102991981D01*
X121735666Y-103134354D01*
X121771351Y-103163640D01*
X124318785Y-105711075D01*
X124308057Y-105820000D01*
X124335764Y-106101309D01*
X124417818Y-106371808D01*
X124551068Y-106621101D01*
X124730392Y-106839608D01*
X124948899Y-107018932D01*
X125198192Y-107152182D01*
X125468691Y-107234236D01*
X125679508Y-107255000D01*
X126520492Y-107255000D01*
X126731309Y-107234236D01*
X127001808Y-107152182D01*
X127251101Y-107018932D01*
X127469608Y-106839608D01*
X127648932Y-106621101D01*
X127782182Y-106371808D01*
X127864236Y-106101309D01*
X127891943Y-105820000D01*
X127864236Y-105538691D01*
X127782182Y-105268192D01*
X127648932Y-105018899D01*
X127469608Y-104800392D01*
X127251101Y-104621068D01*
X127118142Y-104550000D01*
X127251101Y-104478932D01*
X127469608Y-104299608D01*
X127648932Y-104081101D01*
X127782182Y-103831808D01*
X127864236Y-103561309D01*
X127891943Y-103280000D01*
X127864236Y-102998691D01*
X127838849Y-102915000D01*
X132606928Y-102915000D01*
X132619188Y-103039482D01*
X132655498Y-103159180D01*
X132714463Y-103269494D01*
X132793815Y-103366185D01*
X132890506Y-103445537D01*
X133000820Y-103504502D01*
X133120518Y-103540812D01*
X133245000Y-103553072D01*
X133396750Y-103550000D01*
X133555500Y-103391250D01*
X133555500Y-102567000D01*
X132768750Y-102567000D01*
X132610000Y-102725750D01*
X132606928Y-102915000D01*
X127838849Y-102915000D01*
X127782182Y-102728192D01*
X127648932Y-102478899D01*
X127469608Y-102260392D01*
X127251101Y-102081068D01*
X127118142Y-102010000D01*
X127202331Y-101965000D01*
X132606928Y-101965000D01*
X132610000Y-102154250D01*
X132768750Y-102313000D01*
X133555500Y-102313000D01*
X133555500Y-101488750D01*
X133809500Y-101488750D01*
X133809500Y-102313000D01*
X133829500Y-102313000D01*
X133829500Y-102567000D01*
X133809500Y-102567000D01*
X133809500Y-103391250D01*
X133968250Y-103550000D01*
X134120000Y-103553072D01*
X134244482Y-103540812D01*
X134364180Y-103504502D01*
X134474494Y-103445537D01*
X134541070Y-103390900D01*
X134562725Y-103408671D01*
X134710858Y-103487850D01*
X134871592Y-103536608D01*
X135038750Y-103553072D01*
X135476250Y-103553072D01*
X135643408Y-103536608D01*
X135804142Y-103487850D01*
X135952275Y-103408671D01*
X136082115Y-103302115D01*
X136188671Y-103172275D01*
X136267850Y-103024142D01*
X136316608Y-102863408D01*
X136333072Y-102696250D01*
X136333072Y-102183750D01*
X136316608Y-102016592D01*
X136267850Y-101855858D01*
X136188671Y-101707725D01*
X136125000Y-101630141D01*
X136125000Y-101536748D01*
X136140990Y-101498145D01*
X136175000Y-101327165D01*
X136175000Y-101152835D01*
X136140990Y-100981855D01*
X136074277Y-100820795D01*
X135977424Y-100675845D01*
X135854155Y-100552576D01*
X135709205Y-100455723D01*
X135548145Y-100389010D01*
X135377165Y-100355000D01*
X135202835Y-100355000D01*
X135031855Y-100389010D01*
X134870795Y-100455723D01*
X134725845Y-100552576D01*
X134602576Y-100675845D01*
X134505723Y-100820795D01*
X134439010Y-100981855D01*
X134405000Y-101152835D01*
X134405000Y-101327165D01*
X134420614Y-101405663D01*
X134364180Y-101375498D01*
X134244482Y-101339188D01*
X134120000Y-101326928D01*
X133968250Y-101330000D01*
X133809500Y-101488750D01*
X133555500Y-101488750D01*
X133396750Y-101330000D01*
X133245000Y-101326928D01*
X133120518Y-101339188D01*
X133000820Y-101375498D01*
X132890506Y-101434463D01*
X132793815Y-101513815D01*
X132714463Y-101610506D01*
X132655498Y-101720820D01*
X132619188Y-101840518D01*
X132606928Y-101965000D01*
X127202331Y-101965000D01*
X127251101Y-101938932D01*
X127469608Y-101759608D01*
X127648932Y-101541101D01*
X127782182Y-101291808D01*
X127864236Y-101021309D01*
X127891943Y-100740000D01*
X127864236Y-100458691D01*
X127782182Y-100188192D01*
X127648932Y-99938899D01*
X127469608Y-99720392D01*
X127251101Y-99541068D01*
X127118142Y-99470000D01*
X127251101Y-99398932D01*
X127469608Y-99219608D01*
X127648932Y-99001101D01*
X127782182Y-98751808D01*
X127817615Y-98635000D01*
X130272596Y-98635000D01*
X130427271Y-98699068D01*
X130607911Y-98735000D01*
X130792089Y-98735000D01*
X130972729Y-98699068D01*
X131142889Y-98628586D01*
X131296028Y-98526262D01*
X131426262Y-98396028D01*
X131528586Y-98242889D01*
X131599068Y-98072729D01*
X131635000Y-97892089D01*
X131635000Y-97707911D01*
X131599068Y-97527271D01*
X131528586Y-97357111D01*
X131513812Y-97335000D01*
X135484133Y-97335000D01*
X137119691Y-98970559D01*
X137017271Y-98990932D01*
X136847111Y-99061414D01*
X136693972Y-99163738D01*
X136563738Y-99293972D01*
X136461414Y-99447111D01*
X136390932Y-99617271D01*
X136355000Y-99797911D01*
X136355000Y-99982089D01*
X136390932Y-100162729D01*
X136455000Y-100317404D01*
X136455001Y-103391778D01*
X136450960Y-103432806D01*
X136467082Y-103596494D01*
X136514828Y-103753892D01*
X136591854Y-103897996D01*
X136592365Y-103898952D01*
X136696710Y-104026097D01*
X136728574Y-104052247D01*
X142287761Y-109611435D01*
X142313911Y-109643299D01*
X142441056Y-109747644D01*
X142586115Y-109825180D01*
X142743513Y-109872926D01*
X142866183Y-109885008D01*
X142866185Y-109885008D01*
X142907201Y-109889048D01*
X142948217Y-109885008D01*
X180528974Y-109885008D01*
X180569992Y-109889048D01*
X180611010Y-109885008D01*
X180611011Y-109885008D01*
X180733681Y-109872926D01*
X180891079Y-109825180D01*
X181036138Y-109747644D01*
X181163283Y-109643299D01*
X181189438Y-109611429D01*
X182911146Y-107889721D01*
X185065000Y-107889721D01*
X185065000Y-108310279D01*
X185147047Y-108722756D01*
X185307988Y-109111302D01*
X185541637Y-109460983D01*
X185839017Y-109758363D01*
X186188698Y-109992012D01*
X186577244Y-110152953D01*
X186989721Y-110235000D01*
X187410279Y-110235000D01*
X187822756Y-110152953D01*
X188211302Y-109992012D01*
X188560983Y-109758363D01*
X188858363Y-109460983D01*
X189092012Y-109111302D01*
X189252953Y-108722756D01*
X189335000Y-108310279D01*
X189335000Y-107889721D01*
X189252953Y-107477244D01*
X189092012Y-107088698D01*
X188858363Y-106739017D01*
X188560983Y-106441637D01*
X188211302Y-106207988D01*
X187822756Y-106047047D01*
X187410279Y-105965000D01*
X186989721Y-105965000D01*
X186577244Y-106047047D01*
X186188698Y-106207988D01*
X185839017Y-106441637D01*
X185541637Y-106739017D01*
X185307988Y-107088698D01*
X185147047Y-107477244D01*
X185065000Y-107889721D01*
X182911146Y-107889721D01*
X186381433Y-104419436D01*
X186413291Y-104393291D01*
X186452923Y-104345000D01*
X186472413Y-104321250D01*
X186517636Y-104266146D01*
X186595172Y-104121087D01*
X186642918Y-103963689D01*
X186654607Y-103845000D01*
X188709428Y-103845000D01*
X188721688Y-103969482D01*
X188757998Y-104089180D01*
X188816963Y-104199494D01*
X188896315Y-104296185D01*
X188993006Y-104375537D01*
X189103320Y-104434502D01*
X189223018Y-104470812D01*
X189347500Y-104483072D01*
X189499250Y-104480000D01*
X189658000Y-104321250D01*
X189658000Y-103497000D01*
X188871250Y-103497000D01*
X188712500Y-103655750D01*
X188709428Y-103845000D01*
X186654607Y-103845000D01*
X186655000Y-103841019D01*
X186655000Y-103841018D01*
X186659040Y-103800000D01*
X186655000Y-103758982D01*
X186655000Y-102895000D01*
X188709428Y-102895000D01*
X188712500Y-103084250D01*
X188871250Y-103243000D01*
X189658000Y-103243000D01*
X189658000Y-102418750D01*
X189499250Y-102260000D01*
X189347500Y-102256928D01*
X189223018Y-102269188D01*
X189103320Y-102305498D01*
X188993006Y-102364463D01*
X188896315Y-102443815D01*
X188816963Y-102540506D01*
X188757998Y-102650820D01*
X188721688Y-102770518D01*
X188709428Y-102895000D01*
X186655000Y-102895000D01*
X186655000Y-99107404D01*
X186719068Y-98952729D01*
X186755000Y-98772089D01*
X186755000Y-98587911D01*
X186719068Y-98407271D01*
X186648586Y-98237111D01*
X186546262Y-98083972D01*
X186416028Y-97953738D01*
X186262889Y-97851414D01*
X186092729Y-97780932D01*
X185922914Y-97747153D01*
X185899068Y-97627271D01*
X185860848Y-97535000D01*
X190058507Y-97535000D01*
X190865000Y-98341495D01*
X190865001Y-99793305D01*
X190850932Y-99827271D01*
X190815000Y-100007911D01*
X190815000Y-100192089D01*
X190850932Y-100372729D01*
X190921414Y-100542889D01*
X191023738Y-100696028D01*
X191153972Y-100826262D01*
X191307111Y-100928586D01*
X191477271Y-100999068D01*
X191657911Y-101035000D01*
X191815001Y-101035000D01*
X191815001Y-102246136D01*
X191565955Y-101997090D01*
X191550990Y-101921855D01*
X191484277Y-101760795D01*
X191387424Y-101615845D01*
X191264155Y-101492576D01*
X191119205Y-101395723D01*
X190958145Y-101329010D01*
X190787165Y-101295000D01*
X190612835Y-101295000D01*
X190441855Y-101329010D01*
X190280795Y-101395723D01*
X190135845Y-101492576D01*
X190012576Y-101615845D01*
X189915723Y-101760795D01*
X189849010Y-101921855D01*
X189815000Y-102092835D01*
X189815000Y-102267165D01*
X189849010Y-102438145D01*
X189865000Y-102476748D01*
X189865000Y-102668982D01*
X189860960Y-102710000D01*
X189865000Y-102751018D01*
X189865000Y-102751019D01*
X189877082Y-102873689D01*
X189912000Y-102988799D01*
X189912000Y-103243000D01*
X189932000Y-103243000D01*
X189932000Y-103497000D01*
X189912000Y-103497000D01*
X189912000Y-104321250D01*
X190070750Y-104480000D01*
X190222500Y-104483072D01*
X190346982Y-104470812D01*
X190466680Y-104434502D01*
X190576994Y-104375537D01*
X190643570Y-104320900D01*
X190665225Y-104338671D01*
X190813358Y-104417850D01*
X190974092Y-104466608D01*
X191141250Y-104483072D01*
X191578750Y-104483072D01*
X191680209Y-104473079D01*
X192118557Y-104911427D01*
X192144707Y-104943291D01*
X192271852Y-105047636D01*
X192416911Y-105125172D01*
X192574309Y-105172918D01*
X192696979Y-105185000D01*
X192696989Y-105185000D01*
X192737997Y-105189039D01*
X192779005Y-105185000D01*
X194104132Y-105185000D01*
X194830568Y-105911437D01*
X194856710Y-105943291D01*
X194888563Y-105969432D01*
X194888570Y-105969439D01*
X194888581Y-105969448D01*
X198330559Y-109411427D01*
X198356709Y-109443291D01*
X198483854Y-109547636D01*
X198628913Y-109625172D01*
X198786311Y-109672918D01*
X198908981Y-109685000D01*
X198908991Y-109685000D01*
X198949999Y-109689039D01*
X198991007Y-109685000D01*
X209108982Y-109685000D01*
X209150000Y-109689040D01*
X209191018Y-109685000D01*
X209191019Y-109685000D01*
X209313689Y-109672918D01*
X209471087Y-109625172D01*
X209616146Y-109547636D01*
X209743291Y-109443291D01*
X209769446Y-109411421D01*
X211211428Y-107969440D01*
X211243291Y-107943291D01*
X211347636Y-107816146D01*
X211425172Y-107671087D01*
X211472918Y-107513689D01*
X211485000Y-107391019D01*
X211485000Y-107391009D01*
X211489039Y-107350001D01*
X211485000Y-107308993D01*
X211485000Y-97511007D01*
X211489039Y-97469999D01*
X211485000Y-97428991D01*
X211485000Y-97428981D01*
X211472918Y-97306311D01*
X211425172Y-97148913D01*
X211347636Y-97003854D01*
X211243291Y-96876709D01*
X211211427Y-96850559D01*
X210268534Y-95907667D01*
X210291943Y-95670000D01*
X210264236Y-95388691D01*
X210182182Y-95118192D01*
X210118851Y-94999709D01*
X211007356Y-95888214D01*
X211071424Y-96042889D01*
X211173748Y-96196028D01*
X211303982Y-96326262D01*
X211457121Y-96428586D01*
X211627281Y-96499068D01*
X211807921Y-96535000D01*
X211992099Y-96535000D01*
X212172739Y-96499068D01*
X212290000Y-96450497D01*
X212290000Y-107965279D01*
X212243048Y-108444133D01*
X212114063Y-108871353D01*
X211904554Y-109265384D01*
X211622501Y-109611214D01*
X211278651Y-109895672D01*
X210886093Y-110107927D01*
X210459788Y-110239891D01*
X209983036Y-110290000D01*
X116034721Y-110290000D01*
X115555867Y-110243048D01*
X115128647Y-110114063D01*
X114734616Y-109904554D01*
X114388786Y-109622501D01*
X114104328Y-109278651D01*
X113892073Y-108886093D01*
X113760109Y-108459788D01*
X113710000Y-107983036D01*
X113710000Y-107789721D01*
X130865000Y-107789721D01*
X130865000Y-108210279D01*
X130947047Y-108622756D01*
X131107988Y-109011302D01*
X131341637Y-109360983D01*
X131639017Y-109658363D01*
X131988698Y-109892012D01*
X132377244Y-110052953D01*
X132789721Y-110135000D01*
X133210279Y-110135000D01*
X133622756Y-110052953D01*
X134011302Y-109892012D01*
X134360983Y-109658363D01*
X134658363Y-109360983D01*
X134892012Y-109011302D01*
X135052953Y-108622756D01*
X135135000Y-108210279D01*
X135135000Y-107789721D01*
X135052953Y-107377244D01*
X134892012Y-106988698D01*
X134658363Y-106639017D01*
X134360983Y-106341637D01*
X134011302Y-106107988D01*
X133622756Y-105947047D01*
X133210279Y-105865000D01*
X132789721Y-105865000D01*
X132377244Y-105947047D01*
X131988698Y-106107988D01*
X131639017Y-106341637D01*
X131341637Y-106639017D01*
X131107988Y-106988698D01*
X130947047Y-107377244D01*
X130865000Y-107789721D01*
X113710000Y-107789721D01*
X113710000Y-67034721D01*
X113734022Y-66789721D01*
X113865000Y-66789721D01*
X113865000Y-67210279D01*
X113947047Y-67622756D01*
X114107988Y-68011302D01*
X114341637Y-68360983D01*
X114639017Y-68658363D01*
X114988698Y-68892012D01*
X115377244Y-69052953D01*
X115789721Y-69135000D01*
X116210279Y-69135000D01*
X116622756Y-69052953D01*
X117011302Y-68892012D01*
X117360983Y-68658363D01*
X117658363Y-68360983D01*
X117892012Y-68011302D01*
X118052953Y-67622756D01*
X118135000Y-67210279D01*
X118135000Y-66789721D01*
X118052953Y-66377244D01*
X117892012Y-65988698D01*
X117658363Y-65639017D01*
X117360983Y-65341637D01*
X117011302Y-65107988D01*
X116622756Y-64947047D01*
X116210279Y-64865000D01*
X115789721Y-64865000D01*
X115377244Y-64947047D01*
X114988698Y-65107988D01*
X114639017Y-65341637D01*
X114341637Y-65639017D01*
X114107988Y-65988698D01*
X113947047Y-66377244D01*
X113865000Y-66789721D01*
X113734022Y-66789721D01*
X113756953Y-66555866D01*
X113885938Y-66128645D01*
X114095446Y-65734616D01*
X114377499Y-65388786D01*
X114721351Y-65104327D01*
X115113910Y-64892071D01*
X115540213Y-64760108D01*
X116016964Y-64710000D01*
X130671025Y-64710000D01*
X130630498Y-64785820D01*
G36*
X160695000Y-69162412D02*
G01*
X160678529Y-69216709D01*
X160660476Y-69400000D01*
X160665000Y-69445932D01*
X160665000Y-69590019D01*
X160619463Y-69645506D01*
X160560498Y-69755820D01*
X160524188Y-69875518D01*
X160511928Y-70000000D01*
X160511928Y-70500000D01*
X160524188Y-70624482D01*
X160560498Y-70744180D01*
X160619463Y-70854494D01*
X160698815Y-70951185D01*
X160758296Y-71000000D01*
X160698815Y-71048815D01*
X160619463Y-71145506D01*
X160560498Y-71255820D01*
X160524188Y-71375518D01*
X160511928Y-71500000D01*
X160511928Y-72000000D01*
X160524188Y-72124482D01*
X160560498Y-72244180D01*
X160619463Y-72354494D01*
X160675001Y-72422167D01*
X160675001Y-72790299D01*
X160635518Y-72794188D01*
X160515820Y-72830498D01*
X160405506Y-72889463D01*
X160308815Y-72968815D01*
X160229463Y-73065506D01*
X160170498Y-73175820D01*
X160134188Y-73295518D01*
X160121928Y-73420000D01*
X160121928Y-75120000D01*
X160134188Y-75244482D01*
X160170498Y-75364180D01*
X160229463Y-75474494D01*
X160308815Y-75571185D01*
X160405506Y-75650537D01*
X160515820Y-75709502D01*
X160588380Y-75731513D01*
X160456525Y-75863368D01*
X160294010Y-76106589D01*
X160182068Y-76376842D01*
X160125000Y-76663740D01*
X160125000Y-76956260D01*
X160182068Y-77243158D01*
X160294010Y-77513411D01*
X160456525Y-77756632D01*
X160663368Y-77963475D01*
X160906589Y-78125990D01*
X161176842Y-78237932D01*
X161463740Y-78295000D01*
X161756260Y-78295000D01*
X162043158Y-78237932D01*
X162313411Y-78125990D01*
X162556632Y-77963475D01*
X162763475Y-77756632D01*
X162925990Y-77513411D01*
X163037932Y-77243158D01*
X163095000Y-76956260D01*
X163095000Y-76927980D01*
X163191662Y-76937500D01*
X163191665Y-76937500D01*
X163242500Y-76942507D01*
X163293335Y-76937500D01*
X164590135Y-76937500D01*
X164543392Y-77091592D01*
X164526928Y-77258750D01*
X164526928Y-77696250D01*
X164543392Y-77863408D01*
X164585001Y-78000575D01*
X164585000Y-81354091D01*
X164577399Y-81351785D01*
X164350000Y-81329388D01*
X164122600Y-81351785D01*
X163913902Y-81415093D01*
X163849180Y-81380498D01*
X163729482Y-81344188D01*
X163605000Y-81331928D01*
X163365750Y-81335000D01*
X163207000Y-81493750D01*
X163207000Y-82266892D01*
X163206785Y-82267601D01*
X163190000Y-82438022D01*
X163190000Y-83001979D01*
X163206785Y-83172400D01*
X163207000Y-83173109D01*
X163207000Y-83946250D01*
X163305001Y-84044251D01*
X163305000Y-85181817D01*
X163292150Y-85205858D01*
X163243392Y-85366592D01*
X163226928Y-85533750D01*
X163226928Y-85971250D01*
X163243392Y-86138408D01*
X163275726Y-86245000D01*
X160147454Y-86245000D01*
X160129502Y-86185820D01*
X160070537Y-86075506D01*
X159991185Y-85978815D01*
X159894494Y-85899463D01*
X159784180Y-85840498D01*
X159664482Y-85804188D01*
X159540000Y-85791928D01*
X157840000Y-85791928D01*
X157715518Y-85804188D01*
X157595820Y-85840498D01*
X157485506Y-85899463D01*
X157388815Y-85978815D01*
X157309463Y-86075506D01*
X157250498Y-86185820D01*
X157214188Y-86305518D01*
X157201928Y-86430000D01*
X157201928Y-88130000D01*
X157214188Y-88254482D01*
X157250498Y-88374180D01*
X157309463Y-88484494D01*
X157388815Y-88581185D01*
X157485506Y-88660537D01*
X157595820Y-88719502D01*
X157715518Y-88755812D01*
X157840000Y-88768072D01*
X159540000Y-88768072D01*
X159664482Y-88755812D01*
X159784180Y-88719502D01*
X159894494Y-88660537D01*
X159991185Y-88581185D01*
X160070537Y-88484494D01*
X160129502Y-88374180D01*
X160147454Y-88315000D01*
X163713109Y-88315000D01*
X163755858Y-88337850D01*
X163916592Y-88386608D01*
X164083750Y-88403072D01*
X164596250Y-88403072D01*
X164763408Y-88386608D01*
X164924142Y-88337850D01*
X165072275Y-88258671D01*
X165202115Y-88152115D01*
X165308671Y-88022275D01*
X165387850Y-87874142D01*
X165436608Y-87713408D01*
X165453072Y-87546250D01*
X165453072Y-87108750D01*
X165436608Y-86941592D01*
X165387850Y-86780858D01*
X165308671Y-86632725D01*
X165232574Y-86540000D01*
X165308671Y-86447275D01*
X165387850Y-86299142D01*
X165436608Y-86138408D01*
X165453072Y-85971250D01*
X165453072Y-85533750D01*
X165436608Y-85366592D01*
X165387850Y-85205858D01*
X165375000Y-85181817D01*
X165375000Y-84082876D01*
X165392601Y-84088215D01*
X165620000Y-84110612D01*
X165847400Y-84088215D01*
X166066060Y-84021885D01*
X166267579Y-83914171D01*
X166444212Y-83769212D01*
X166589171Y-83592579D01*
X166696885Y-83391059D01*
X166763215Y-83172399D01*
X166780000Y-83001978D01*
X166780000Y-82438021D01*
X166763215Y-82267600D01*
X166696885Y-82048940D01*
X166655000Y-81970579D01*
X166655000Y-78085600D01*
X166687850Y-78024142D01*
X166736608Y-77863408D01*
X166753072Y-77696250D01*
X166753072Y-77258750D01*
X166736608Y-77091592D01*
X166687850Y-76930858D01*
X166608671Y-76782725D01*
X166532574Y-76690000D01*
X166608671Y-76597275D01*
X166687850Y-76449142D01*
X166736608Y-76288408D01*
X166753072Y-76121250D01*
X166753072Y-75683750D01*
X166736608Y-75516592D01*
X166687850Y-75355858D01*
X166608671Y-75207725D01*
X166502115Y-75077885D01*
X166372275Y-74971329D01*
X166224142Y-74892150D01*
X166063408Y-74843392D01*
X165896250Y-74826928D01*
X165383750Y-74826928D01*
X165216592Y-74843392D01*
X165137118Y-74867500D01*
X163671211Y-74867500D01*
X163098072Y-74294362D01*
X163098072Y-73420000D01*
X163085812Y-73295518D01*
X163049502Y-73175820D01*
X162990537Y-73065506D01*
X162911185Y-72968815D01*
X162814494Y-72889463D01*
X162704180Y-72830498D01*
X162584482Y-72794188D01*
X162545000Y-72790299D01*
X162545000Y-72397796D01*
X162580537Y-72354494D01*
X162639502Y-72244180D01*
X162675812Y-72124482D01*
X162688072Y-72000000D01*
X162688072Y-71500000D01*
X162675812Y-71375518D01*
X162639502Y-71255820D01*
X162580537Y-71145506D01*
X162501185Y-71048815D01*
X162441704Y-71000000D01*
X162501185Y-70951185D01*
X162580537Y-70854494D01*
X162639502Y-70744180D01*
X162675812Y-70624482D01*
X162688072Y-70500000D01*
X162688072Y-70000000D01*
X162675812Y-69875518D01*
X162639502Y-69755820D01*
X162580537Y-69645506D01*
X162538892Y-69594761D01*
X162551471Y-69553292D01*
X162560026Y-69466437D01*
X162569524Y-69370001D01*
X162565000Y-69324069D01*
X162565000Y-66634999D01*
X178805533Y-66634999D01*
X178739463Y-66715506D01*
X178680498Y-66825820D01*
X178644188Y-66945518D01*
X178631928Y-67070000D01*
X178631928Y-67570000D01*
X178644188Y-67694482D01*
X178680498Y-67814180D01*
X178739463Y-67924494D01*
X178785001Y-67979982D01*
X178785000Y-68887889D01*
X178676033Y-68892476D01*
X178439641Y-68949929D01*
X178219001Y-69052396D01*
X178022590Y-69195939D01*
X177857956Y-69375043D01*
X177763132Y-69530758D01*
X177146435Y-70811328D01*
X177083812Y-70982550D01*
X177046428Y-71222935D01*
X177056660Y-71465992D01*
X177114113Y-71702384D01*
X177216580Y-71923025D01*
X177360123Y-72119436D01*
X177539227Y-72284070D01*
X177747006Y-72410599D01*
X177975478Y-72494160D01*
X178215863Y-72531544D01*
X178458920Y-72521312D01*
X178480985Y-72515949D01*
X178480666Y-72538655D01*
X178524775Y-72777896D01*
X178614709Y-73003936D01*
X178747014Y-73208087D01*
X178916604Y-73382503D01*
X179116963Y-73520483D01*
X179340390Y-73616724D01*
X179362593Y-73621465D01*
X179352456Y-73641780D01*
X179288394Y-73876467D01*
X179271347Y-74119142D01*
X179301971Y-74360481D01*
X179379089Y-74591207D01*
X179499739Y-74802456D01*
X179659282Y-74986107D01*
X179677233Y-75000015D01*
X179659283Y-75013922D01*
X179499738Y-75197572D01*
X179379086Y-75408819D01*
X179301965Y-75639545D01*
X179271338Y-75880883D01*
X179288382Y-76123558D01*
X179352442Y-76358246D01*
X179362580Y-76378564D01*
X179340376Y-76383305D01*
X179116948Y-76479544D01*
X178916587Y-76617522D01*
X178746995Y-76791937D01*
X178614689Y-76996086D01*
X178524752Y-77222126D01*
X178480641Y-77461366D01*
X178480959Y-77484070D01*
X178458894Y-77478707D01*
X178215837Y-77468474D01*
X177975452Y-77505855D01*
X177746979Y-77589414D01*
X177539198Y-77715941D01*
X177360093Y-77880574D01*
X177216548Y-78076983D01*
X177206984Y-78097576D01*
X177189432Y-78083171D01*
X176974885Y-77968492D01*
X176742086Y-77897872D01*
X176499984Y-77874026D01*
X176257883Y-77897869D01*
X176025084Y-77968487D01*
X175810535Y-78083164D01*
X175792984Y-78097568D01*
X175783420Y-78076975D01*
X175639877Y-77880564D01*
X175460773Y-77715930D01*
X175252994Y-77589401D01*
X175024522Y-77505840D01*
X174784137Y-77468456D01*
X174541079Y-77478688D01*
X174519015Y-77484050D01*
X174519334Y-77461346D01*
X174475225Y-77222105D01*
X174385290Y-76996064D01*
X174252986Y-76791914D01*
X174083396Y-76617497D01*
X173883036Y-76479517D01*
X173659609Y-76383276D01*
X173637407Y-76378535D01*
X173647544Y-76358220D01*
X173711606Y-76123534D01*
X173728653Y-75880858D01*
X173698029Y-75639519D01*
X173620911Y-75408793D01*
X173500261Y-75197544D01*
X173340718Y-75013893D01*
X173322767Y-74999985D01*
X173340716Y-74986078D01*
X173500261Y-74802428D01*
X173620914Y-74591181D01*
X173698035Y-74360455D01*
X173728662Y-74119117D01*
X173711617Y-73876441D01*
X173647557Y-73641754D01*
X173637419Y-73621436D01*
X173659624Y-73616695D01*
X173883052Y-73520456D01*
X174083412Y-73382478D01*
X174253004Y-73208063D01*
X174385311Y-73003914D01*
X174475248Y-72777874D01*
X174484396Y-72728260D01*
X174593703Y-72711262D01*
X174711177Y-72668298D01*
X175792343Y-72147643D01*
X175899178Y-72082587D01*
X175991268Y-71997938D01*
X176065075Y-71896950D01*
X176117761Y-71783504D01*
X176147303Y-71661958D01*
X176152565Y-71536985D01*
X176133345Y-71413387D01*
X176090381Y-71295913D01*
X175005683Y-69043486D01*
X174940627Y-68936651D01*
X174855979Y-68844561D01*
X174754991Y-68770754D01*
X174641544Y-68718068D01*
X174519999Y-68688526D01*
X174395025Y-68683264D01*
X174271427Y-68702484D01*
X174153953Y-68745448D01*
X173911733Y-68862094D01*
X173890036Y-68835656D01*
X173747664Y-68718814D01*
X173585232Y-68631993D01*
X173408984Y-68578529D01*
X173271624Y-68565000D01*
X173225692Y-68560476D01*
X173179760Y-68565000D01*
X171895935Y-68565000D01*
X171850000Y-68560476D01*
X171666708Y-68578528D01*
X171562828Y-68610041D01*
X171490460Y-68631993D01*
X171328028Y-68718814D01*
X171185656Y-68835656D01*
X171156370Y-68871341D01*
X168371326Y-71656385D01*
X168335647Y-71685666D01*
X168218805Y-71828038D01*
X168149621Y-71957474D01*
X168131984Y-71990470D01*
X168078519Y-72166719D01*
X168060466Y-72350010D01*
X168064991Y-72395952D01*
X168064990Y-101414058D01*
X168060466Y-101459990D01*
X168075291Y-101610506D01*
X168078519Y-101643281D01*
X168131983Y-101819529D01*
X168218804Y-101981961D01*
X168335646Y-102124334D01*
X168371331Y-102153620D01*
X170186370Y-103968659D01*
X170215656Y-104004344D01*
X170358028Y-104121186D01*
X170426916Y-104158007D01*
X170520459Y-104208007D01*
X170696708Y-104261472D01*
X170880000Y-104279524D01*
X170925935Y-104275000D01*
X171190956Y-104275000D01*
X171260392Y-104359608D01*
X171478899Y-104538932D01*
X171611858Y-104610000D01*
X171478899Y-104681068D01*
X171260392Y-104860392D01*
X171081068Y-105078899D01*
X170947818Y-105328192D01*
X170865764Y-105598691D01*
X170838057Y-105880000D01*
X170865764Y-106161309D01*
X170947818Y-106431808D01*
X171081068Y-106681101D01*
X171260392Y-106899608D01*
X171478899Y-107078932D01*
X171728192Y-107212182D01*
X171998691Y-107294236D01*
X172209508Y-107315000D01*
X173150492Y-107315000D01*
X173361309Y-107294236D01*
X173631808Y-107212182D01*
X173881101Y-107078932D01*
X174099608Y-106899608D01*
X174278932Y-106681101D01*
X174412182Y-106431808D01*
X174494236Y-106161309D01*
X174521943Y-105880000D01*
X174494236Y-105598691D01*
X174412182Y-105328192D01*
X174278932Y-105078899D01*
X174099608Y-104860392D01*
X173881101Y-104681068D01*
X173748142Y-104610000D01*
X173881101Y-104538932D01*
X174099608Y-104359608D01*
X174278932Y-104141101D01*
X174412182Y-103891808D01*
X174494236Y-103621309D01*
X174521943Y-103340000D01*
X174494236Y-103058691D01*
X174412182Y-102788192D01*
X174278932Y-102538899D01*
X174099608Y-102320392D01*
X173881101Y-102141068D01*
X173748142Y-102070000D01*
X173881101Y-101998932D01*
X174099608Y-101819608D01*
X174278932Y-101601101D01*
X174412182Y-101351808D01*
X174494236Y-101081309D01*
X174521943Y-100800000D01*
X174494236Y-100518691D01*
X174412182Y-100248192D01*
X174278932Y-99998899D01*
X174099608Y-99780392D01*
X173881101Y-99601068D01*
X173748142Y-99530000D01*
X173881101Y-99458932D01*
X174099608Y-99279608D01*
X174278932Y-99061101D01*
X174412182Y-98811808D01*
X174494236Y-98541309D01*
X174521943Y-98260000D01*
X174494236Y-97978691D01*
X174412182Y-97708192D01*
X174278932Y-97458899D01*
X174099608Y-97240392D01*
X173881101Y-97061068D01*
X173631808Y-96927818D01*
X173361309Y-96845764D01*
X173150492Y-96825000D01*
X172209508Y-96825000D01*
X172171074Y-96828785D01*
X171085000Y-95742711D01*
X171085000Y-93985892D01*
X171260392Y-94199608D01*
X171478899Y-94378932D01*
X171728192Y-94512182D01*
X171998691Y-94594236D01*
X172209508Y-94615000D01*
X173150492Y-94615000D01*
X173361309Y-94594236D01*
X173631808Y-94512182D01*
X173881101Y-94378932D01*
X174099608Y-94199608D01*
X174278932Y-93981101D01*
X174412182Y-93731808D01*
X174494236Y-93461309D01*
X174521943Y-93180000D01*
X174494236Y-92898691D01*
X174412182Y-92628192D01*
X174278932Y-92378899D01*
X174099608Y-92160392D01*
X173881101Y-91981068D01*
X173748142Y-91910000D01*
X173881101Y-91838932D01*
X174099608Y-91659608D01*
X174278932Y-91441101D01*
X174412182Y-91191808D01*
X174494236Y-90921309D01*
X174521943Y-90640000D01*
X174511215Y-90531074D01*
X175814990Y-89227299D01*
X175814991Y-102684048D01*
X175810466Y-102729990D01*
X175828519Y-102913281D01*
X175872629Y-103058691D01*
X175881984Y-103089530D01*
X175968805Y-103251962D01*
X176085647Y-103394334D01*
X176121326Y-103423615D01*
X178461928Y-105764217D01*
X178461928Y-106680000D01*
X178474188Y-106804482D01*
X178510498Y-106924180D01*
X178569463Y-107034494D01*
X178648815Y-107131185D01*
X178745506Y-107210537D01*
X178855820Y-107269502D01*
X178975518Y-107305812D01*
X179100000Y-107318072D01*
X181121061Y-107318072D01*
X180224125Y-108215008D01*
X164336560Y-108215008D01*
X164320023Y-108047104D01*
X164260840Y-107852006D01*
X164164734Y-107672202D01*
X164067803Y-107554092D01*
X157985000Y-101471290D01*
X157985000Y-99280403D01*
X158057111Y-99328586D01*
X158227271Y-99399068D01*
X158407911Y-99435000D01*
X158592089Y-99435000D01*
X158772729Y-99399068D01*
X158942889Y-99328586D01*
X159096028Y-99226262D01*
X159226262Y-99096028D01*
X159328586Y-98942889D01*
X159399068Y-98772729D01*
X159435000Y-98592089D01*
X159435000Y-98407911D01*
X159399068Y-98227271D01*
X159335000Y-98072596D01*
X159335000Y-97071018D01*
X159339040Y-97030000D01*
X159330460Y-96942889D01*
X159322918Y-96866311D01*
X159275172Y-96708913D01*
X159197636Y-96563854D01*
X159140591Y-96494344D01*
X159119439Y-96468570D01*
X159119437Y-96468568D01*
X159093291Y-96436709D01*
X159061432Y-96410563D01*
X155968534Y-93317667D01*
X155991943Y-93080000D01*
X155964236Y-92798691D01*
X155882182Y-92528192D01*
X155748932Y-92278899D01*
X155569608Y-92060392D01*
X155351101Y-91881068D01*
X155218142Y-91810000D01*
X155351101Y-91738932D01*
X155569608Y-91559608D01*
X155748932Y-91341101D01*
X155882182Y-91091808D01*
X155964236Y-90821309D01*
X155991943Y-90540000D01*
X155964236Y-90258691D01*
X155882182Y-89988192D01*
X155748932Y-89738899D01*
X155569608Y-89520392D01*
X155351101Y-89341068D01*
X155218142Y-89270000D01*
X155351101Y-89198932D01*
X155569608Y-89019608D01*
X155748932Y-88801101D01*
X155882182Y-88551808D01*
X155964236Y-88281309D01*
X155991943Y-88000000D01*
X155964236Y-87718691D01*
X155882182Y-87448192D01*
X155748932Y-87198899D01*
X155569608Y-86980392D01*
X155351101Y-86801068D01*
X155101808Y-86667818D01*
X154831309Y-86585764D01*
X154620492Y-86565000D01*
X153779508Y-86565000D01*
X153568691Y-86585764D01*
X153298192Y-86667818D01*
X153048899Y-86801068D01*
X152830392Y-86980392D01*
X152651068Y-87198899D01*
X152517818Y-87448192D01*
X152435764Y-87718691D01*
X152408057Y-88000000D01*
X152435764Y-88281309D01*
X152517818Y-88551808D01*
X152651068Y-88801101D01*
X152830392Y-89019608D01*
X153048899Y-89198932D01*
X153181858Y-89270000D01*
X153048899Y-89341068D01*
X152830392Y-89520392D01*
X152651068Y-89738899D01*
X152517818Y-89988192D01*
X152435764Y-90258691D01*
X152408057Y-90540000D01*
X152435764Y-90821309D01*
X152517818Y-91091808D01*
X152651068Y-91341101D01*
X152830392Y-91559608D01*
X153048899Y-91738932D01*
X153181858Y-91810000D01*
X153048899Y-91881068D01*
X152830392Y-92060392D01*
X152651068Y-92278899D01*
X152517818Y-92528192D01*
X152435764Y-92798691D01*
X152408057Y-93080000D01*
X152435764Y-93361309D01*
X152517818Y-93631808D01*
X152651068Y-93881101D01*
X152830392Y-94099608D01*
X153048899Y-94278932D01*
X153181858Y-94350000D01*
X153048899Y-94421068D01*
X152830392Y-94600392D01*
X152651068Y-94818899D01*
X152517818Y-95068192D01*
X152435764Y-95338691D01*
X152408057Y-95620000D01*
X152435764Y-95901309D01*
X152517818Y-96171808D01*
X152651068Y-96421101D01*
X152830392Y-96639608D01*
X153048899Y-96818932D01*
X153181858Y-96890000D01*
X153048899Y-96961068D01*
X152830392Y-97140392D01*
X152651068Y-97358899D01*
X152517818Y-97608192D01*
X152435764Y-97878691D01*
X152408057Y-98160000D01*
X152435764Y-98441309D01*
X152517818Y-98711808D01*
X152651068Y-98961101D01*
X152830392Y-99179608D01*
X153048899Y-99358932D01*
X153181858Y-99430000D01*
X153048899Y-99501068D01*
X152830392Y-99680392D01*
X152651068Y-99898899D01*
X152517818Y-100148192D01*
X152435764Y-100418691D01*
X152418299Y-100596010D01*
X151885000Y-100062711D01*
X151885000Y-83470000D01*
X161916928Y-83470000D01*
X161929188Y-83594482D01*
X161965498Y-83714180D01*
X162024463Y-83824494D01*
X162103815Y-83921185D01*
X162200506Y-84000537D01*
X162310820Y-84059502D01*
X162430518Y-84095812D01*
X162555000Y-84108072D01*
X162794250Y-84105000D01*
X162953000Y-83946250D01*
X162953000Y-82847000D01*
X162078750Y-82847000D01*
X161920000Y-83005750D01*
X161916928Y-83470000D01*
X151885000Y-83470000D01*
X151885000Y-81970000D01*
X161916928Y-81970000D01*
X161920000Y-82434250D01*
X162078750Y-82593000D01*
X162953000Y-82593000D01*
X162953000Y-81493750D01*
X162794250Y-81335000D01*
X162555000Y-81331928D01*
X162430518Y-81344188D01*
X162310820Y-81380498D01*
X162200506Y-81439463D01*
X162103815Y-81518815D01*
X162024463Y-81615506D01*
X161965498Y-81725820D01*
X161929188Y-81845518D01*
X161916928Y-81970000D01*
X151885000Y-81970000D01*
X151885000Y-80887289D01*
X154178664Y-78593626D01*
X154214344Y-78564344D01*
X154331186Y-78421972D01*
X154418007Y-78259540D01*
X154471471Y-78083292D01*
X154472093Y-78076975D01*
X154489524Y-77900001D01*
X154485000Y-77854069D01*
X154485000Y-75195931D01*
X154489524Y-75149999D01*
X154471471Y-74966707D01*
X154446854Y-74885556D01*
X154418007Y-74790460D01*
X154331186Y-74628028D01*
X154214344Y-74485656D01*
X154178665Y-74456375D01*
X152983340Y-73261051D01*
X152954054Y-73225366D01*
X152811682Y-73108524D01*
X152649250Y-73021703D01*
X152508707Y-72979070D01*
X152381792Y-72832977D01*
X152189485Y-72683980D01*
X151971806Y-72575362D01*
X151737119Y-72511300D01*
X151494443Y-72494253D01*
X151313578Y-72517203D01*
X151250423Y-72531617D01*
X151301069Y-72491229D01*
X151431781Y-72364135D01*
X151569761Y-72163776D01*
X151666002Y-71940349D01*
X151716805Y-71702439D01*
X151720218Y-71459190D01*
X151676109Y-71219949D01*
X151586174Y-70993908D01*
X151453870Y-70789758D01*
X151284280Y-70615341D01*
X151083920Y-70477361D01*
X150860493Y-70381120D01*
X150622584Y-70330317D01*
X150379334Y-70326904D01*
X150140093Y-70371013D01*
X149914053Y-70460948D01*
X149761057Y-70560100D01*
X149710413Y-70600487D01*
X149738519Y-70542125D01*
X149801142Y-70370903D01*
X149838526Y-70130518D01*
X149828294Y-69887460D01*
X149770841Y-69651068D01*
X149668374Y-69430427D01*
X149524831Y-69234016D01*
X149345727Y-69069382D01*
X149137948Y-68942853D01*
X148909476Y-68859292D01*
X148669091Y-68821908D01*
X148426033Y-68832140D01*
X148189641Y-68889593D01*
X147973051Y-68990179D01*
X145617871Y-66634999D01*
X160695001Y-66634999D01*
X160695000Y-69162412D01*
G37*
X160695000Y-69162412D02*
X160678529Y-69216709D01*
X160660476Y-69400000D01*
X160665000Y-69445932D01*
X160665000Y-69590019D01*
X160619463Y-69645506D01*
X160560498Y-69755820D01*
X160524188Y-69875518D01*
X160511928Y-70000000D01*
X160511928Y-70500000D01*
X160524188Y-70624482D01*
X160560498Y-70744180D01*
X160619463Y-70854494D01*
X160698815Y-70951185D01*
X160758296Y-71000000D01*
X160698815Y-71048815D01*
X160619463Y-71145506D01*
X160560498Y-71255820D01*
X160524188Y-71375518D01*
X160511928Y-71500000D01*
X160511928Y-72000000D01*
X160524188Y-72124482D01*
X160560498Y-72244180D01*
X160619463Y-72354494D01*
X160675001Y-72422167D01*
X160675001Y-72790299D01*
X160635518Y-72794188D01*
X160515820Y-72830498D01*
X160405506Y-72889463D01*
X160308815Y-72968815D01*
X160229463Y-73065506D01*
X160170498Y-73175820D01*
X160134188Y-73295518D01*
X160121928Y-73420000D01*
X160121928Y-75120000D01*
X160134188Y-75244482D01*
X160170498Y-75364180D01*
X160229463Y-75474494D01*
X160308815Y-75571185D01*
X160405506Y-75650537D01*
X160515820Y-75709502D01*
X160588380Y-75731513D01*
X160456525Y-75863368D01*
X160294010Y-76106589D01*
X160182068Y-76376842D01*
X160125000Y-76663740D01*
X160125000Y-76956260D01*
X160182068Y-77243158D01*
X160294010Y-77513411D01*
X160456525Y-77756632D01*
X160663368Y-77963475D01*
X160906589Y-78125990D01*
X161176842Y-78237932D01*
X161463740Y-78295000D01*
X161756260Y-78295000D01*
X162043158Y-78237932D01*
X162313411Y-78125990D01*
X162556632Y-77963475D01*
X162763475Y-77756632D01*
X162925990Y-77513411D01*
X163037932Y-77243158D01*
X163095000Y-76956260D01*
X163095000Y-76927980D01*
X163191662Y-76937500D01*
X163191665Y-76937500D01*
X163242500Y-76942507D01*
X163293335Y-76937500D01*
X164590135Y-76937500D01*
X164543392Y-77091592D01*
X164526928Y-77258750D01*
X164526928Y-77696250D01*
X164543392Y-77863408D01*
X164585001Y-78000575D01*
X164585000Y-81354091D01*
X164577399Y-81351785D01*
X164350000Y-81329388D01*
X164122600Y-81351785D01*
X163913902Y-81415093D01*
X163849180Y-81380498D01*
X163729482Y-81344188D01*
X163605000Y-81331928D01*
X163365750Y-81335000D01*
X163207000Y-81493750D01*
X163207000Y-82266892D01*
X163206785Y-82267601D01*
X163190000Y-82438022D01*
X163190000Y-83001979D01*
X163206785Y-83172400D01*
X163207000Y-83173109D01*
X163207000Y-83946250D01*
X163305001Y-84044251D01*
X163305000Y-85181817D01*
X163292150Y-85205858D01*
X163243392Y-85366592D01*
X163226928Y-85533750D01*
X163226928Y-85971250D01*
X163243392Y-86138408D01*
X163275726Y-86245000D01*
X160147454Y-86245000D01*
X160129502Y-86185820D01*
X160070537Y-86075506D01*
X159991185Y-85978815D01*
X159894494Y-85899463D01*
X159784180Y-85840498D01*
X159664482Y-85804188D01*
X159540000Y-85791928D01*
X157840000Y-85791928D01*
X157715518Y-85804188D01*
X157595820Y-85840498D01*
X157485506Y-85899463D01*
X157388815Y-85978815D01*
X157309463Y-86075506D01*
X157250498Y-86185820D01*
X157214188Y-86305518D01*
X157201928Y-86430000D01*
X157201928Y-88130000D01*
X157214188Y-88254482D01*
X157250498Y-88374180D01*
X157309463Y-88484494D01*
X157388815Y-88581185D01*
X157485506Y-88660537D01*
X157595820Y-88719502D01*
X157715518Y-88755812D01*
X157840000Y-88768072D01*
X159540000Y-88768072D01*
X159664482Y-88755812D01*
X159784180Y-88719502D01*
X159894494Y-88660537D01*
X159991185Y-88581185D01*
X160070537Y-88484494D01*
X160129502Y-88374180D01*
X160147454Y-88315000D01*
X163713109Y-88315000D01*
X163755858Y-88337850D01*
X163916592Y-88386608D01*
X164083750Y-88403072D01*
X164596250Y-88403072D01*
X164763408Y-88386608D01*
X164924142Y-88337850D01*
X165072275Y-88258671D01*
X165202115Y-88152115D01*
X165308671Y-88022275D01*
X165387850Y-87874142D01*
X165436608Y-87713408D01*
X165453072Y-87546250D01*
X165453072Y-87108750D01*
X165436608Y-86941592D01*
X165387850Y-86780858D01*
X165308671Y-86632725D01*
X165232574Y-86540000D01*
X165308671Y-86447275D01*
X165387850Y-86299142D01*
X165436608Y-86138408D01*
X165453072Y-85971250D01*
X165453072Y-85533750D01*
X165436608Y-85366592D01*
X165387850Y-85205858D01*
X165375000Y-85181817D01*
X165375000Y-84082876D01*
X165392601Y-84088215D01*
X165620000Y-84110612D01*
X165847400Y-84088215D01*
X166066060Y-84021885D01*
X166267579Y-83914171D01*
X166444212Y-83769212D01*
X166589171Y-83592579D01*
X166696885Y-83391059D01*
X166763215Y-83172399D01*
X166780000Y-83001978D01*
X166780000Y-82438021D01*
X166763215Y-82267600D01*
X166696885Y-82048940D01*
X166655000Y-81970579D01*
X166655000Y-78085600D01*
X166687850Y-78024142D01*
X166736608Y-77863408D01*
X166753072Y-77696250D01*
X166753072Y-77258750D01*
X166736608Y-77091592D01*
X166687850Y-76930858D01*
X166608671Y-76782725D01*
X166532574Y-76690000D01*
X166608671Y-76597275D01*
X166687850Y-76449142D01*
X166736608Y-76288408D01*
X166753072Y-76121250D01*
X166753072Y-75683750D01*
X166736608Y-75516592D01*
X166687850Y-75355858D01*
X166608671Y-75207725D01*
X166502115Y-75077885D01*
X166372275Y-74971329D01*
X166224142Y-74892150D01*
X166063408Y-74843392D01*
X165896250Y-74826928D01*
X165383750Y-74826928D01*
X165216592Y-74843392D01*
X165137118Y-74867500D01*
X163671211Y-74867500D01*
X163098072Y-74294362D01*
X163098072Y-73420000D01*
X163085812Y-73295518D01*
X163049502Y-73175820D01*
X162990537Y-73065506D01*
X162911185Y-72968815D01*
X162814494Y-72889463D01*
X162704180Y-72830498D01*
X162584482Y-72794188D01*
X162545000Y-72790299D01*
X162545000Y-72397796D01*
X162580537Y-72354494D01*
X162639502Y-72244180D01*
X162675812Y-72124482D01*
X162688072Y-72000000D01*
X162688072Y-71500000D01*
X162675812Y-71375518D01*
X162639502Y-71255820D01*
X162580537Y-71145506D01*
X162501185Y-71048815D01*
X162441704Y-71000000D01*
X162501185Y-70951185D01*
X162580537Y-70854494D01*
X162639502Y-70744180D01*
X162675812Y-70624482D01*
X162688072Y-70500000D01*
X162688072Y-70000000D01*
X162675812Y-69875518D01*
X162639502Y-69755820D01*
X162580537Y-69645506D01*
X162538892Y-69594761D01*
X162551471Y-69553292D01*
X162560026Y-69466437D01*
X162569524Y-69370001D01*
X162565000Y-69324069D01*
X162565000Y-66634999D01*
X178805533Y-66634999D01*
X178739463Y-66715506D01*
X178680498Y-66825820D01*
X178644188Y-66945518D01*
X178631928Y-67070000D01*
X178631928Y-67570000D01*
X178644188Y-67694482D01*
X178680498Y-67814180D01*
X178739463Y-67924494D01*
X178785001Y-67979982D01*
X178785000Y-68887889D01*
X178676033Y-68892476D01*
X178439641Y-68949929D01*
X178219001Y-69052396D01*
X178022590Y-69195939D01*
X177857956Y-69375043D01*
X177763132Y-69530758D01*
X177146435Y-70811328D01*
X177083812Y-70982550D01*
X177046428Y-71222935D01*
X177056660Y-71465992D01*
X177114113Y-71702384D01*
X177216580Y-71923025D01*
X177360123Y-72119436D01*
X177539227Y-72284070D01*
X177747006Y-72410599D01*
X177975478Y-72494160D01*
X178215863Y-72531544D01*
X178458920Y-72521312D01*
X178480985Y-72515949D01*
X178480666Y-72538655D01*
X178524775Y-72777896D01*
X178614709Y-73003936D01*
X178747014Y-73208087D01*
X178916604Y-73382503D01*
X179116963Y-73520483D01*
X179340390Y-73616724D01*
X179362593Y-73621465D01*
X179352456Y-73641780D01*
X179288394Y-73876467D01*
X179271347Y-74119142D01*
X179301971Y-74360481D01*
X179379089Y-74591207D01*
X179499739Y-74802456D01*
X179659282Y-74986107D01*
X179677233Y-75000015D01*
X179659283Y-75013922D01*
X179499738Y-75197572D01*
X179379086Y-75408819D01*
X179301965Y-75639545D01*
X179271338Y-75880883D01*
X179288382Y-76123558D01*
X179352442Y-76358246D01*
X179362580Y-76378564D01*
X179340376Y-76383305D01*
X179116948Y-76479544D01*
X178916587Y-76617522D01*
X178746995Y-76791937D01*
X178614689Y-76996086D01*
X178524752Y-77222126D01*
X178480641Y-77461366D01*
X178480959Y-77484070D01*
X178458894Y-77478707D01*
X178215837Y-77468474D01*
X177975452Y-77505855D01*
X177746979Y-77589414D01*
X177539198Y-77715941D01*
X177360093Y-77880574D01*
X177216548Y-78076983D01*
X177206984Y-78097576D01*
X177189432Y-78083171D01*
X176974885Y-77968492D01*
X176742086Y-77897872D01*
X176499984Y-77874026D01*
X176257883Y-77897869D01*
X176025084Y-77968487D01*
X175810535Y-78083164D01*
X175792984Y-78097568D01*
X175783420Y-78076975D01*
X175639877Y-77880564D01*
X175460773Y-77715930D01*
X175252994Y-77589401D01*
X175024522Y-77505840D01*
X174784137Y-77468456D01*
X174541079Y-77478688D01*
X174519015Y-77484050D01*
X174519334Y-77461346D01*
X174475225Y-77222105D01*
X174385290Y-76996064D01*
X174252986Y-76791914D01*
X174083396Y-76617497D01*
X173883036Y-76479517D01*
X173659609Y-76383276D01*
X173637407Y-76378535D01*
X173647544Y-76358220D01*
X173711606Y-76123534D01*
X173728653Y-75880858D01*
X173698029Y-75639519D01*
X173620911Y-75408793D01*
X173500261Y-75197544D01*
X173340718Y-75013893D01*
X173322767Y-74999985D01*
X173340716Y-74986078D01*
X173500261Y-74802428D01*
X173620914Y-74591181D01*
X173698035Y-74360455D01*
X173728662Y-74119117D01*
X173711617Y-73876441D01*
X173647557Y-73641754D01*
X173637419Y-73621436D01*
X173659624Y-73616695D01*
X173883052Y-73520456D01*
X174083412Y-73382478D01*
X174253004Y-73208063D01*
X174385311Y-73003914D01*
X174475248Y-72777874D01*
X174484396Y-72728260D01*
X174593703Y-72711262D01*
X174711177Y-72668298D01*
X175792343Y-72147643D01*
X175899178Y-72082587D01*
X175991268Y-71997938D01*
X176065075Y-71896950D01*
X176117761Y-71783504D01*
X176147303Y-71661958D01*
X176152565Y-71536985D01*
X176133345Y-71413387D01*
X176090381Y-71295913D01*
X175005683Y-69043486D01*
X174940627Y-68936651D01*
X174855979Y-68844561D01*
X174754991Y-68770754D01*
X174641544Y-68718068D01*
X174519999Y-68688526D01*
X174395025Y-68683264D01*
X174271427Y-68702484D01*
X174153953Y-68745448D01*
X173911733Y-68862094D01*
X173890036Y-68835656D01*
X173747664Y-68718814D01*
X173585232Y-68631993D01*
X173408984Y-68578529D01*
X173271624Y-68565000D01*
X173225692Y-68560476D01*
X173179760Y-68565000D01*
X171895935Y-68565000D01*
X171850000Y-68560476D01*
X171666708Y-68578528D01*
X171562828Y-68610041D01*
X171490460Y-68631993D01*
X171328028Y-68718814D01*
X171185656Y-68835656D01*
X171156370Y-68871341D01*
X168371326Y-71656385D01*
X168335647Y-71685666D01*
X168218805Y-71828038D01*
X168149621Y-71957474D01*
X168131984Y-71990470D01*
X168078519Y-72166719D01*
X168060466Y-72350010D01*
X168064991Y-72395952D01*
X168064990Y-101414058D01*
X168060466Y-101459990D01*
X168075291Y-101610506D01*
X168078519Y-101643281D01*
X168131983Y-101819529D01*
X168218804Y-101981961D01*
X168335646Y-102124334D01*
X168371331Y-102153620D01*
X170186370Y-103968659D01*
X170215656Y-104004344D01*
X170358028Y-104121186D01*
X170426916Y-104158007D01*
X170520459Y-104208007D01*
X170696708Y-104261472D01*
X170880000Y-104279524D01*
X170925935Y-104275000D01*
X171190956Y-104275000D01*
X171260392Y-104359608D01*
X171478899Y-104538932D01*
X171611858Y-104610000D01*
X171478899Y-104681068D01*
X171260392Y-104860392D01*
X171081068Y-105078899D01*
X170947818Y-105328192D01*
X170865764Y-105598691D01*
X170838057Y-105880000D01*
X170865764Y-106161309D01*
X170947818Y-106431808D01*
X171081068Y-106681101D01*
X171260392Y-106899608D01*
X171478899Y-107078932D01*
X171728192Y-107212182D01*
X171998691Y-107294236D01*
X172209508Y-107315000D01*
X173150492Y-107315000D01*
X173361309Y-107294236D01*
X173631808Y-107212182D01*
X173881101Y-107078932D01*
X174099608Y-106899608D01*
X174278932Y-106681101D01*
X174412182Y-106431808D01*
X174494236Y-106161309D01*
X174521943Y-105880000D01*
X174494236Y-105598691D01*
X174412182Y-105328192D01*
X174278932Y-105078899D01*
X174099608Y-104860392D01*
X173881101Y-104681068D01*
X173748142Y-104610000D01*
X173881101Y-104538932D01*
X174099608Y-104359608D01*
X174278932Y-104141101D01*
X174412182Y-103891808D01*
X174494236Y-103621309D01*
X174521943Y-103340000D01*
X174494236Y-103058691D01*
X174412182Y-102788192D01*
X174278932Y-102538899D01*
X174099608Y-102320392D01*
X173881101Y-102141068D01*
X173748142Y-102070000D01*
X173881101Y-101998932D01*
X174099608Y-101819608D01*
X174278932Y-101601101D01*
X174412182Y-101351808D01*
X174494236Y-101081309D01*
X174521943Y-100800000D01*
X174494236Y-100518691D01*
X174412182Y-100248192D01*
X174278932Y-99998899D01*
X174099608Y-99780392D01*
X173881101Y-99601068D01*
X173748142Y-99530000D01*
X173881101Y-99458932D01*
X174099608Y-99279608D01*
X174278932Y-99061101D01*
X174412182Y-98811808D01*
X174494236Y-98541309D01*
X174521943Y-98260000D01*
X174494236Y-97978691D01*
X174412182Y-97708192D01*
X174278932Y-97458899D01*
X174099608Y-97240392D01*
X173881101Y-97061068D01*
X173631808Y-96927818D01*
X173361309Y-96845764D01*
X173150492Y-96825000D01*
X172209508Y-96825000D01*
X172171074Y-96828785D01*
X171085000Y-95742711D01*
X171085000Y-93985892D01*
X171260392Y-94199608D01*
X171478899Y-94378932D01*
X171728192Y-94512182D01*
X171998691Y-94594236D01*
X172209508Y-94615000D01*
X173150492Y-94615000D01*
X173361309Y-94594236D01*
X173631808Y-94512182D01*
X173881101Y-94378932D01*
X174099608Y-94199608D01*
X174278932Y-93981101D01*
X174412182Y-93731808D01*
X174494236Y-93461309D01*
X174521943Y-93180000D01*
X174494236Y-92898691D01*
X174412182Y-92628192D01*
X174278932Y-92378899D01*
X174099608Y-92160392D01*
X173881101Y-91981068D01*
X173748142Y-91910000D01*
X173881101Y-91838932D01*
X174099608Y-91659608D01*
X174278932Y-91441101D01*
X174412182Y-91191808D01*
X174494236Y-90921309D01*
X174521943Y-90640000D01*
X174511215Y-90531074D01*
X175814990Y-89227299D01*
X175814991Y-102684048D01*
X175810466Y-102729990D01*
X175828519Y-102913281D01*
X175872629Y-103058691D01*
X175881984Y-103089530D01*
X175968805Y-103251962D01*
X176085647Y-103394334D01*
X176121326Y-103423615D01*
X178461928Y-105764217D01*
X178461928Y-106680000D01*
X178474188Y-106804482D01*
X178510498Y-106924180D01*
X178569463Y-107034494D01*
X178648815Y-107131185D01*
X178745506Y-107210537D01*
X178855820Y-107269502D01*
X178975518Y-107305812D01*
X179100000Y-107318072D01*
X181121061Y-107318072D01*
X180224125Y-108215008D01*
X164336560Y-108215008D01*
X164320023Y-108047104D01*
X164260840Y-107852006D01*
X164164734Y-107672202D01*
X164067803Y-107554092D01*
X157985000Y-101471290D01*
X157985000Y-99280403D01*
X158057111Y-99328586D01*
X158227271Y-99399068D01*
X158407911Y-99435000D01*
X158592089Y-99435000D01*
X158772729Y-99399068D01*
X158942889Y-99328586D01*
X159096028Y-99226262D01*
X159226262Y-99096028D01*
X159328586Y-98942889D01*
X159399068Y-98772729D01*
X159435000Y-98592089D01*
X159435000Y-98407911D01*
X159399068Y-98227271D01*
X159335000Y-98072596D01*
X159335000Y-97071018D01*
X159339040Y-97030000D01*
X159330460Y-96942889D01*
X159322918Y-96866311D01*
X159275172Y-96708913D01*
X159197636Y-96563854D01*
X159140591Y-96494344D01*
X159119439Y-96468570D01*
X159119437Y-96468568D01*
X159093291Y-96436709D01*
X159061432Y-96410563D01*
X155968534Y-93317667D01*
X155991943Y-93080000D01*
X155964236Y-92798691D01*
X155882182Y-92528192D01*
X155748932Y-92278899D01*
X155569608Y-92060392D01*
X155351101Y-91881068D01*
X155218142Y-91810000D01*
X155351101Y-91738932D01*
X155569608Y-91559608D01*
X155748932Y-91341101D01*
X155882182Y-91091808D01*
X155964236Y-90821309D01*
X155991943Y-90540000D01*
X155964236Y-90258691D01*
X155882182Y-89988192D01*
X155748932Y-89738899D01*
X155569608Y-89520392D01*
X155351101Y-89341068D01*
X155218142Y-89270000D01*
X155351101Y-89198932D01*
X155569608Y-89019608D01*
X155748932Y-88801101D01*
X155882182Y-88551808D01*
X155964236Y-88281309D01*
X155991943Y-88000000D01*
X155964236Y-87718691D01*
X155882182Y-87448192D01*
X155748932Y-87198899D01*
X155569608Y-86980392D01*
X155351101Y-86801068D01*
X155101808Y-86667818D01*
X154831309Y-86585764D01*
X154620492Y-86565000D01*
X153779508Y-86565000D01*
X153568691Y-86585764D01*
X153298192Y-86667818D01*
X153048899Y-86801068D01*
X152830392Y-86980392D01*
X152651068Y-87198899D01*
X152517818Y-87448192D01*
X152435764Y-87718691D01*
X152408057Y-88000000D01*
X152435764Y-88281309D01*
X152517818Y-88551808D01*
X152651068Y-88801101D01*
X152830392Y-89019608D01*
X153048899Y-89198932D01*
X153181858Y-89270000D01*
X153048899Y-89341068D01*
X152830392Y-89520392D01*
X152651068Y-89738899D01*
X152517818Y-89988192D01*
X152435764Y-90258691D01*
X152408057Y-90540000D01*
X152435764Y-90821309D01*
X152517818Y-91091808D01*
X152651068Y-91341101D01*
X152830392Y-91559608D01*
X153048899Y-91738932D01*
X153181858Y-91810000D01*
X153048899Y-91881068D01*
X152830392Y-92060392D01*
X152651068Y-92278899D01*
X152517818Y-92528192D01*
X152435764Y-92798691D01*
X152408057Y-93080000D01*
X152435764Y-93361309D01*
X152517818Y-93631808D01*
X152651068Y-93881101D01*
X152830392Y-94099608D01*
X153048899Y-94278932D01*
X153181858Y-94350000D01*
X153048899Y-94421068D01*
X152830392Y-94600392D01*
X152651068Y-94818899D01*
X152517818Y-95068192D01*
X152435764Y-95338691D01*
X152408057Y-95620000D01*
X152435764Y-95901309D01*
X152517818Y-96171808D01*
X152651068Y-96421101D01*
X152830392Y-96639608D01*
X153048899Y-96818932D01*
X153181858Y-96890000D01*
X153048899Y-96961068D01*
X152830392Y-97140392D01*
X152651068Y-97358899D01*
X152517818Y-97608192D01*
X152435764Y-97878691D01*
X152408057Y-98160000D01*
X152435764Y-98441309D01*
X152517818Y-98711808D01*
X152651068Y-98961101D01*
X152830392Y-99179608D01*
X153048899Y-99358932D01*
X153181858Y-99430000D01*
X153048899Y-99501068D01*
X152830392Y-99680392D01*
X152651068Y-99898899D01*
X152517818Y-100148192D01*
X152435764Y-100418691D01*
X152418299Y-100596010D01*
X151885000Y-100062711D01*
X151885000Y-83470000D01*
X161916928Y-83470000D01*
X161929188Y-83594482D01*
X161965498Y-83714180D01*
X162024463Y-83824494D01*
X162103815Y-83921185D01*
X162200506Y-84000537D01*
X162310820Y-84059502D01*
X162430518Y-84095812D01*
X162555000Y-84108072D01*
X162794250Y-84105000D01*
X162953000Y-83946250D01*
X162953000Y-82847000D01*
X162078750Y-82847000D01*
X161920000Y-83005750D01*
X161916928Y-83470000D01*
X151885000Y-83470000D01*
X151885000Y-81970000D01*
X161916928Y-81970000D01*
X161920000Y-82434250D01*
X162078750Y-82593000D01*
X162953000Y-82593000D01*
X162953000Y-81493750D01*
X162794250Y-81335000D01*
X162555000Y-81331928D01*
X162430518Y-81344188D01*
X162310820Y-81380498D01*
X162200506Y-81439463D01*
X162103815Y-81518815D01*
X162024463Y-81615506D01*
X161965498Y-81725820D01*
X161929188Y-81845518D01*
X161916928Y-81970000D01*
X151885000Y-81970000D01*
X151885000Y-80887289D01*
X154178664Y-78593626D01*
X154214344Y-78564344D01*
X154331186Y-78421972D01*
X154418007Y-78259540D01*
X154471471Y-78083292D01*
X154472093Y-78076975D01*
X154489524Y-77900001D01*
X154485000Y-77854069D01*
X154485000Y-75195931D01*
X154489524Y-75149999D01*
X154471471Y-74966707D01*
X154446854Y-74885556D01*
X154418007Y-74790460D01*
X154331186Y-74628028D01*
X154214344Y-74485656D01*
X154178665Y-74456375D01*
X152983340Y-73261051D01*
X152954054Y-73225366D01*
X152811682Y-73108524D01*
X152649250Y-73021703D01*
X152508707Y-72979070D01*
X152381792Y-72832977D01*
X152189485Y-72683980D01*
X151971806Y-72575362D01*
X151737119Y-72511300D01*
X151494443Y-72494253D01*
X151313578Y-72517203D01*
X151250423Y-72531617D01*
X151301069Y-72491229D01*
X151431781Y-72364135D01*
X151569761Y-72163776D01*
X151666002Y-71940349D01*
X151716805Y-71702439D01*
X151720218Y-71459190D01*
X151676109Y-71219949D01*
X151586174Y-70993908D01*
X151453870Y-70789758D01*
X151284280Y-70615341D01*
X151083920Y-70477361D01*
X150860493Y-70381120D01*
X150622584Y-70330317D01*
X150379334Y-70326904D01*
X150140093Y-70371013D01*
X149914053Y-70460948D01*
X149761057Y-70560100D01*
X149710413Y-70600487D01*
X149738519Y-70542125D01*
X149801142Y-70370903D01*
X149838526Y-70130518D01*
X149828294Y-69887460D01*
X149770841Y-69651068D01*
X149668374Y-69430427D01*
X149524831Y-69234016D01*
X149345727Y-69069382D01*
X149137948Y-68942853D01*
X148909476Y-68859292D01*
X148669091Y-68821908D01*
X148426033Y-68832140D01*
X148189641Y-68889593D01*
X147973051Y-68990179D01*
X145617871Y-66634999D01*
X160695001Y-66634999D01*
X160695000Y-69162412D01*
G36*
X200058013Y-68863146D02*
G01*
X200093551Y-68906449D01*
X200136854Y-68941987D01*
X200136856Y-68941989D01*
X200197868Y-68992060D01*
X200266377Y-69048284D01*
X200463553Y-69153676D01*
X200677501Y-69218577D01*
X200834258Y-69234016D01*
X200900000Y-69240491D01*
X200955752Y-69235000D01*
X201986685Y-69235000D01*
X201857956Y-69375043D01*
X201763132Y-69530758D01*
X201146435Y-70811328D01*
X201083812Y-70982550D01*
X201046428Y-71222935D01*
X201056660Y-71465992D01*
X201114113Y-71702384D01*
X201216580Y-71923025D01*
X201360123Y-72119436D01*
X201539227Y-72284070D01*
X201747006Y-72410599D01*
X201975478Y-72494160D01*
X202215863Y-72531544D01*
X202458920Y-72521312D01*
X202480985Y-72515949D01*
X202480666Y-72538655D01*
X202524775Y-72777896D01*
X202614709Y-73003936D01*
X202747014Y-73208087D01*
X202916604Y-73382503D01*
X203116963Y-73520483D01*
X203340390Y-73616724D01*
X203362593Y-73621465D01*
X203352456Y-73641780D01*
X203288394Y-73876467D01*
X203271347Y-74119142D01*
X203301971Y-74360481D01*
X203379089Y-74591207D01*
X203499739Y-74802456D01*
X203659282Y-74986107D01*
X203677233Y-75000015D01*
X203659283Y-75013922D01*
X203499738Y-75197572D01*
X203379086Y-75408819D01*
X203301965Y-75639545D01*
X203271338Y-75880883D01*
X203288382Y-76123558D01*
X203352442Y-76358246D01*
X203362580Y-76378564D01*
X203340376Y-76383305D01*
X203116948Y-76479544D01*
X202916587Y-76617522D01*
X202746995Y-76791937D01*
X202614689Y-76996086D01*
X202524752Y-77222126D01*
X202480641Y-77461366D01*
X202480959Y-77484070D01*
X202458894Y-77478707D01*
X202215837Y-77468474D01*
X201975452Y-77505855D01*
X201746979Y-77589414D01*
X201539198Y-77715941D01*
X201360093Y-77880574D01*
X201216548Y-78076983D01*
X201206984Y-78097576D01*
X201189432Y-78083171D01*
X200974885Y-77968492D01*
X200742086Y-77897872D01*
X200499984Y-77874026D01*
X200257883Y-77897869D01*
X200025084Y-77968487D01*
X199810535Y-78083164D01*
X199792984Y-78097568D01*
X199783420Y-78076975D01*
X199639877Y-77880564D01*
X199460773Y-77715930D01*
X199252994Y-77589401D01*
X199024522Y-77505840D01*
X198784137Y-77468456D01*
X198541079Y-77478688D01*
X198519015Y-77484050D01*
X198519334Y-77461346D01*
X198475225Y-77222105D01*
X198385290Y-76996064D01*
X198252986Y-76791914D01*
X198083396Y-76617497D01*
X197883036Y-76479517D01*
X197659609Y-76383276D01*
X197637407Y-76378535D01*
X197647544Y-76358220D01*
X197711606Y-76123534D01*
X197728653Y-75880858D01*
X197698029Y-75639519D01*
X197620911Y-75408793D01*
X197500261Y-75197544D01*
X197340718Y-75013893D01*
X197322767Y-74999985D01*
X197340716Y-74986078D01*
X197500261Y-74802428D01*
X197620914Y-74591181D01*
X197698035Y-74360455D01*
X197728662Y-74119117D01*
X197711617Y-73876441D01*
X197647557Y-73641754D01*
X197637419Y-73621436D01*
X197659624Y-73616695D01*
X197883052Y-73520456D01*
X198083412Y-73382478D01*
X198253004Y-73208063D01*
X198385311Y-73003914D01*
X198475248Y-72777874D01*
X198484396Y-72728260D01*
X198593703Y-72711262D01*
X198711177Y-72668298D01*
X199792343Y-72147643D01*
X199899178Y-72082587D01*
X199991268Y-71997938D01*
X200065075Y-71896950D01*
X200117761Y-71783504D01*
X200147303Y-71661958D01*
X200152565Y-71536985D01*
X200133345Y-71413387D01*
X200090381Y-71295913D01*
X199005683Y-69043486D01*
X198940627Y-68936651D01*
X198855979Y-68844561D01*
X198754991Y-68770754D01*
X198641544Y-68718068D01*
X198519999Y-68688526D01*
X198395025Y-68683264D01*
X198271427Y-68702484D01*
X198153953Y-68745448D01*
X197874935Y-68879814D01*
X197784961Y-68831722D01*
X197608713Y-68778258D01*
X197471353Y-68764729D01*
X197425421Y-68760205D01*
X197379489Y-68764729D01*
X195796206Y-68764729D01*
X195750271Y-68760205D01*
X195566979Y-68778257D01*
X195463099Y-68809770D01*
X195390731Y-68831722D01*
X195228299Y-68918543D01*
X195085927Y-69035385D01*
X195056641Y-69071070D01*
X192071326Y-72056385D01*
X192035647Y-72085666D01*
X191918805Y-72228038D01*
X191847526Y-72361392D01*
X191831984Y-72390470D01*
X191778519Y-72566719D01*
X191760466Y-72750010D01*
X191764991Y-72795952D01*
X191764990Y-82104068D01*
X191760466Y-82150000D01*
X191764990Y-82195931D01*
X191778519Y-82333291D01*
X191831983Y-82509539D01*
X191918804Y-82671971D01*
X192035646Y-82814344D01*
X192071331Y-82843630D01*
X196314991Y-87087290D01*
X196314990Y-96254068D01*
X196310466Y-96300000D01*
X196314990Y-96345931D01*
X196328519Y-96483291D01*
X196381983Y-96659539D01*
X196468804Y-96821971D01*
X196585646Y-96964344D01*
X196621331Y-96993630D01*
X197665001Y-98037301D01*
X197665000Y-101414068D01*
X197660476Y-101460000D01*
X197675300Y-101610506D01*
X197678529Y-101643291D01*
X197731993Y-101819539D01*
X197818814Y-101981971D01*
X197935656Y-102124344D01*
X197971341Y-102153630D01*
X198998785Y-103181074D01*
X198988057Y-103290000D01*
X199015764Y-103571309D01*
X199097818Y-103841808D01*
X199231068Y-104091101D01*
X199410392Y-104309608D01*
X199628899Y-104488932D01*
X199761858Y-104560000D01*
X199628899Y-104631068D01*
X199410392Y-104810392D01*
X199231068Y-105028899D01*
X199097818Y-105278192D01*
X199015764Y-105548691D01*
X198988057Y-105830000D01*
X199015764Y-106111309D01*
X199097818Y-106381808D01*
X199231068Y-106631101D01*
X199410392Y-106849608D01*
X199628899Y-107028932D01*
X199878192Y-107162182D01*
X200148691Y-107244236D01*
X200359508Y-107265000D01*
X201300492Y-107265000D01*
X201511309Y-107244236D01*
X201781808Y-107162182D01*
X202031101Y-107028932D01*
X202249608Y-106849608D01*
X202428932Y-106631101D01*
X202562182Y-106381808D01*
X202644236Y-106111309D01*
X202671943Y-105830000D01*
X202644236Y-105548691D01*
X202562182Y-105278192D01*
X202428932Y-105028899D01*
X202249608Y-104810392D01*
X202031101Y-104631068D01*
X201898142Y-104560000D01*
X202031101Y-104488932D01*
X202249608Y-104309608D01*
X202428932Y-104091101D01*
X202562182Y-103841808D01*
X202644236Y-103571309D01*
X202671943Y-103290000D01*
X202644236Y-103008691D01*
X202562182Y-102738192D01*
X202428932Y-102488899D01*
X202249608Y-102270392D01*
X202031101Y-102091068D01*
X201898142Y-102020000D01*
X202031101Y-101948932D01*
X202249608Y-101769608D01*
X202428932Y-101551101D01*
X202562182Y-101301808D01*
X202644236Y-101031309D01*
X202671943Y-100750000D01*
X202644236Y-100468691D01*
X202562182Y-100198192D01*
X202428932Y-99948899D01*
X202249608Y-99730392D01*
X202031101Y-99551068D01*
X201898142Y-99480000D01*
X202031101Y-99408932D01*
X202249608Y-99229608D01*
X202428932Y-99011101D01*
X202562182Y-98761808D01*
X202644236Y-98491309D01*
X202671943Y-98210000D01*
X202644236Y-97928691D01*
X202562182Y-97658192D01*
X202428932Y-97408899D01*
X202249608Y-97190392D01*
X202031101Y-97011068D01*
X201781808Y-96877818D01*
X201511309Y-96795764D01*
X201300492Y-96775000D01*
X200359508Y-96775000D01*
X200321075Y-96778785D01*
X198985000Y-95442711D01*
X198985000Y-85057290D01*
X199895000Y-85967290D01*
X199895000Y-86712719D01*
X199878192Y-86717818D01*
X199628899Y-86851068D01*
X199410392Y-87030392D01*
X199231068Y-87248899D01*
X199097818Y-87498192D01*
X199015764Y-87768691D01*
X198988057Y-88050000D01*
X199015764Y-88331309D01*
X199097818Y-88601808D01*
X199231068Y-88851101D01*
X199410392Y-89069608D01*
X199628899Y-89248932D01*
X199761858Y-89320000D01*
X199628899Y-89391068D01*
X199410392Y-89570392D01*
X199231068Y-89788899D01*
X199097818Y-90038192D01*
X199015764Y-90308691D01*
X198988057Y-90590000D01*
X199015764Y-90871309D01*
X199097818Y-91141808D01*
X199231068Y-91391101D01*
X199410392Y-91609608D01*
X199628899Y-91788932D01*
X199761858Y-91860000D01*
X199628899Y-91931068D01*
X199410392Y-92110392D01*
X199231068Y-92328899D01*
X199097818Y-92578192D01*
X199015764Y-92848691D01*
X198988057Y-93130000D01*
X199015764Y-93411309D01*
X199097818Y-93681808D01*
X199231068Y-93931101D01*
X199410392Y-94149608D01*
X199628899Y-94328932D01*
X199878192Y-94462182D01*
X200148691Y-94544236D01*
X200359508Y-94565000D01*
X201300492Y-94565000D01*
X201511309Y-94544236D01*
X201781808Y-94462182D01*
X202031101Y-94328932D01*
X202249608Y-94149608D01*
X202428932Y-93931101D01*
X202562182Y-93681808D01*
X202644236Y-93411309D01*
X202671943Y-93130000D01*
X202661215Y-93021074D01*
X203290413Y-92391876D01*
X203290413Y-101959470D01*
X203285888Y-102005412D01*
X203303941Y-102188703D01*
X203350120Y-102340932D01*
X203357406Y-102364952D01*
X203444227Y-102527384D01*
X203561069Y-102669756D01*
X203596748Y-102699037D01*
X206611928Y-105714218D01*
X206611928Y-106630000D01*
X206624188Y-106754482D01*
X206660498Y-106874180D01*
X206719463Y-106984494D01*
X206798815Y-107081185D01*
X206895506Y-107160537D01*
X207005820Y-107219502D01*
X207125518Y-107255812D01*
X207250000Y-107268072D01*
X209551060Y-107268072D01*
X208804133Y-108015000D01*
X199295868Y-108015000D01*
X196285000Y-105004133D01*
X196285000Y-97441018D01*
X196289040Y-97400000D01*
X196276745Y-97275172D01*
X196272918Y-97236311D01*
X196225172Y-97078913D01*
X196147636Y-96933854D01*
X196101649Y-96877818D01*
X196069439Y-96838570D01*
X196069437Y-96838568D01*
X196043291Y-96806709D01*
X196011433Y-96780564D01*
X191519448Y-92288581D01*
X191519439Y-92288570D01*
X191519437Y-92288568D01*
X191493291Y-92256709D01*
X191461431Y-92230562D01*
X190869445Y-91638578D01*
X190843291Y-91606709D01*
X190716146Y-91502364D01*
X190571087Y-91424828D01*
X190413689Y-91377082D01*
X190291019Y-91365000D01*
X190291018Y-91365000D01*
X190250000Y-91360960D01*
X190208982Y-91365000D01*
X188115000Y-91365000D01*
X188115000Y-89888072D01*
X188130000Y-89888072D01*
X188254482Y-89875812D01*
X188374180Y-89839502D01*
X188484494Y-89780537D01*
X188581185Y-89701185D01*
X188660537Y-89604494D01*
X188719502Y-89494180D01*
X188755812Y-89374482D01*
X188768072Y-89250000D01*
X188768072Y-87550000D01*
X188755812Y-87425518D01*
X188719502Y-87305820D01*
X188660537Y-87195506D01*
X188581185Y-87098815D01*
X188484494Y-87019463D01*
X188374180Y-86960498D01*
X188293534Y-86936034D01*
X188377588Y-86860269D01*
X188551641Y-86626920D01*
X188676825Y-86364099D01*
X188721476Y-86216890D01*
X188600155Y-85987000D01*
X187407000Y-85987000D01*
X187407000Y-86007000D01*
X187153000Y-86007000D01*
X187153000Y-85987000D01*
X185959845Y-85987000D01*
X185838524Y-86216890D01*
X185883175Y-86364099D01*
X186008359Y-86626920D01*
X186182412Y-86860269D01*
X186266466Y-86936034D01*
X186185820Y-86960498D01*
X186075506Y-87019463D01*
X185978815Y-87098815D01*
X185899463Y-87195506D01*
X185840498Y-87305820D01*
X185804188Y-87425518D01*
X185791928Y-87550000D01*
X185791928Y-89250000D01*
X185804188Y-89374482D01*
X185840498Y-89494180D01*
X185899463Y-89604494D01*
X185978815Y-89701185D01*
X186075506Y-89780537D01*
X186185820Y-89839502D01*
X186305518Y-89875812D01*
X186430000Y-89888072D01*
X186445000Y-89888072D01*
X186445001Y-91365000D01*
X184261018Y-91365000D01*
X184220000Y-91360960D01*
X184178982Y-91365000D01*
X184178981Y-91365000D01*
X184056311Y-91377082D01*
X183961205Y-91405932D01*
X183898913Y-91424828D01*
X183753854Y-91502364D01*
X183665347Y-91575000D01*
X183626709Y-91606709D01*
X183600563Y-91638568D01*
X182134518Y-93104614D01*
X182114236Y-92898691D01*
X182032182Y-92628192D01*
X181898932Y-92378899D01*
X181719608Y-92160392D01*
X181501101Y-91981068D01*
X181368142Y-91910000D01*
X181501101Y-91838932D01*
X181719608Y-91659608D01*
X181898932Y-91441101D01*
X182032182Y-91191808D01*
X182114236Y-90921309D01*
X182141943Y-90640000D01*
X182114236Y-90358691D01*
X182032182Y-90088192D01*
X181898932Y-89838899D01*
X181719608Y-89620392D01*
X181501101Y-89441068D01*
X181368142Y-89370000D01*
X181501101Y-89298932D01*
X181719608Y-89119608D01*
X181898932Y-88901101D01*
X182032182Y-88651808D01*
X182114236Y-88381309D01*
X182141943Y-88100000D01*
X182114236Y-87818691D01*
X182032182Y-87548192D01*
X181898932Y-87298899D01*
X181719608Y-87080392D01*
X181501101Y-86901068D01*
X181251808Y-86767818D01*
X180981309Y-86685764D01*
X180770492Y-86665000D01*
X179829508Y-86665000D01*
X179618691Y-86685764D01*
X179348192Y-86767818D01*
X179098899Y-86901068D01*
X178880392Y-87080392D01*
X178701068Y-87298899D01*
X178567818Y-87548192D01*
X178485764Y-87818691D01*
X178485000Y-87826448D01*
X178485000Y-87337289D01*
X184228665Y-81593625D01*
X184264344Y-81564344D01*
X184381186Y-81421972D01*
X184468007Y-81259540D01*
X184511017Y-81117756D01*
X184521471Y-81083293D01*
X184539524Y-80900001D01*
X184535000Y-80854069D01*
X184535000Y-74995932D01*
X184539524Y-74950000D01*
X184521471Y-74766708D01*
X184515442Y-74746833D01*
X184468007Y-74590460D01*
X184381186Y-74428028D01*
X184264344Y-74285656D01*
X184228660Y-74256371D01*
X183283340Y-73311051D01*
X183254054Y-73275366D01*
X183111682Y-73158524D01*
X182949250Y-73071703D01*
X182773002Y-73018239D01*
X182737261Y-73014719D01*
X182631792Y-72893313D01*
X182439485Y-72744316D01*
X182221806Y-72635698D01*
X181987119Y-72571636D01*
X181744443Y-72554589D01*
X181563578Y-72577539D01*
X181500423Y-72591953D01*
X181551069Y-72551565D01*
X181681781Y-72424471D01*
X181819761Y-72224112D01*
X181916002Y-72000685D01*
X181966805Y-71762775D01*
X181970218Y-71519526D01*
X181926109Y-71280285D01*
X181836174Y-71054244D01*
X181703870Y-70850094D01*
X181534280Y-70675677D01*
X181333920Y-70537697D01*
X181110493Y-70441456D01*
X180872584Y-70390653D01*
X180629334Y-70387240D01*
X180390093Y-70431349D01*
X180164053Y-70521284D01*
X180011057Y-70620436D01*
X179960413Y-70660823D01*
X179983242Y-70613419D01*
X180378674Y-70217987D01*
X180414343Y-70188714D01*
X180443615Y-70153046D01*
X180443623Y-70153038D01*
X180531185Y-70046343D01*
X180618006Y-69883912D01*
X180671471Y-69707664D01*
X180689524Y-69524372D01*
X180688743Y-69516437D01*
X180671471Y-69341079D01*
X180655000Y-69286782D01*
X180655000Y-68317911D01*
X181515000Y-68317911D01*
X181515000Y-68502089D01*
X181550932Y-68682729D01*
X181621414Y-68852889D01*
X181723738Y-69006028D01*
X181853972Y-69136262D01*
X182007111Y-69238586D01*
X182161787Y-69302655D01*
X187695002Y-74835871D01*
X187695002Y-76808456D01*
X187426260Y-76755000D01*
X187133740Y-76755000D01*
X186846842Y-76812068D01*
X186576589Y-76924010D01*
X186333368Y-77086525D01*
X186126525Y-77293368D01*
X185964010Y-77536589D01*
X185852068Y-77806842D01*
X185795000Y-78093740D01*
X185795000Y-78386260D01*
X185852068Y-78673158D01*
X185964010Y-78943411D01*
X186126525Y-79186632D01*
X186333368Y-79393475D01*
X186507760Y-79510000D01*
X186333368Y-79626525D01*
X186126525Y-79833368D01*
X185964010Y-80076589D01*
X185852068Y-80346842D01*
X185795000Y-80633740D01*
X185795000Y-80926260D01*
X185852068Y-81213158D01*
X185964010Y-81483411D01*
X186126525Y-81726632D01*
X186333368Y-81933475D01*
X186507760Y-82050000D01*
X186333368Y-82166525D01*
X186126525Y-82373368D01*
X185964010Y-82616589D01*
X185852068Y-82886842D01*
X185795000Y-83173740D01*
X185795000Y-83466260D01*
X185852068Y-83753158D01*
X185964010Y-84023411D01*
X186126525Y-84266632D01*
X186333368Y-84473475D01*
X186515534Y-84595195D01*
X186398645Y-84664822D01*
X186182412Y-84859731D01*
X186008359Y-85093080D01*
X185883175Y-85355901D01*
X185838524Y-85503110D01*
X185959845Y-85733000D01*
X187153000Y-85733000D01*
X187153000Y-85713000D01*
X187407000Y-85713000D01*
X187407000Y-85733000D01*
X188600155Y-85733000D01*
X188721476Y-85503110D01*
X188676825Y-85355901D01*
X188551641Y-85093080D01*
X188377588Y-84859731D01*
X188161355Y-84664822D01*
X188044466Y-84595195D01*
X188226632Y-84473475D01*
X188433475Y-84266632D01*
X188595990Y-84023411D01*
X188707932Y-83753158D01*
X188765000Y-83466260D01*
X188765000Y-83173740D01*
X188738807Y-83042060D01*
X189691438Y-82089430D01*
X189723301Y-82063281D01*
X189827646Y-81936136D01*
X189905182Y-81791077D01*
X189952928Y-81633679D01*
X189965010Y-81511009D01*
X189965010Y-81511007D01*
X189969050Y-81469991D01*
X189965010Y-81428975D01*
X189965010Y-73961017D01*
X189969049Y-73920009D01*
X189965010Y-73879001D01*
X189965010Y-73878991D01*
X189952928Y-73756321D01*
X189905182Y-73598923D01*
X189827646Y-73453864D01*
X189723301Y-73326719D01*
X189691437Y-73300569D01*
X184542655Y-68151788D01*
X184478586Y-67997111D01*
X184376262Y-67843972D01*
X184246028Y-67713738D01*
X184092889Y-67611414D01*
X183922729Y-67540932D01*
X183742089Y-67505000D01*
X183557911Y-67505000D01*
X183377271Y-67540932D01*
X183207111Y-67611414D01*
X183067194Y-67704904D01*
X183046028Y-67683738D01*
X182892889Y-67581414D01*
X182722729Y-67510932D01*
X182542089Y-67475000D01*
X182357911Y-67475000D01*
X182177271Y-67510932D01*
X182007111Y-67581414D01*
X181853972Y-67683738D01*
X181723738Y-67813972D01*
X181621414Y-67967111D01*
X181550932Y-68137271D01*
X181515000Y-68317911D01*
X180655000Y-68317911D01*
X180655000Y-67979981D01*
X180700537Y-67924494D01*
X180759502Y-67814180D01*
X180795812Y-67694482D01*
X180808072Y-67570000D01*
X180808072Y-67070000D01*
X180795812Y-66945518D01*
X180759502Y-66825820D01*
X180700537Y-66715506D01*
X180634467Y-66634999D01*
X197829868Y-66634999D01*
X200058013Y-68863146D01*
G37*
X200058013Y-68863146D02*
X200093551Y-68906449D01*
X200136854Y-68941987D01*
X200136856Y-68941989D01*
X200197868Y-68992060D01*
X200266377Y-69048284D01*
X200463553Y-69153676D01*
X200677501Y-69218577D01*
X200834258Y-69234016D01*
X200900000Y-69240491D01*
X200955752Y-69235000D01*
X201986685Y-69235000D01*
X201857956Y-69375043D01*
X201763132Y-69530758D01*
X201146435Y-70811328D01*
X201083812Y-70982550D01*
X201046428Y-71222935D01*
X201056660Y-71465992D01*
X201114113Y-71702384D01*
X201216580Y-71923025D01*
X201360123Y-72119436D01*
X201539227Y-72284070D01*
X201747006Y-72410599D01*
X201975478Y-72494160D01*
X202215863Y-72531544D01*
X202458920Y-72521312D01*
X202480985Y-72515949D01*
X202480666Y-72538655D01*
X202524775Y-72777896D01*
X202614709Y-73003936D01*
X202747014Y-73208087D01*
X202916604Y-73382503D01*
X203116963Y-73520483D01*
X203340390Y-73616724D01*
X203362593Y-73621465D01*
X203352456Y-73641780D01*
X203288394Y-73876467D01*
X203271347Y-74119142D01*
X203301971Y-74360481D01*
X203379089Y-74591207D01*
X203499739Y-74802456D01*
X203659282Y-74986107D01*
X203677233Y-75000015D01*
X203659283Y-75013922D01*
X203499738Y-75197572D01*
X203379086Y-75408819D01*
X203301965Y-75639545D01*
X203271338Y-75880883D01*
X203288382Y-76123558D01*
X203352442Y-76358246D01*
X203362580Y-76378564D01*
X203340376Y-76383305D01*
X203116948Y-76479544D01*
X202916587Y-76617522D01*
X202746995Y-76791937D01*
X202614689Y-76996086D01*
X202524752Y-77222126D01*
X202480641Y-77461366D01*
X202480959Y-77484070D01*
X202458894Y-77478707D01*
X202215837Y-77468474D01*
X201975452Y-77505855D01*
X201746979Y-77589414D01*
X201539198Y-77715941D01*
X201360093Y-77880574D01*
X201216548Y-78076983D01*
X201206984Y-78097576D01*
X201189432Y-78083171D01*
X200974885Y-77968492D01*
X200742086Y-77897872D01*
X200499984Y-77874026D01*
X200257883Y-77897869D01*
X200025084Y-77968487D01*
X199810535Y-78083164D01*
X199792984Y-78097568D01*
X199783420Y-78076975D01*
X199639877Y-77880564D01*
X199460773Y-77715930D01*
X199252994Y-77589401D01*
X199024522Y-77505840D01*
X198784137Y-77468456D01*
X198541079Y-77478688D01*
X198519015Y-77484050D01*
X198519334Y-77461346D01*
X198475225Y-77222105D01*
X198385290Y-76996064D01*
X198252986Y-76791914D01*
X198083396Y-76617497D01*
X197883036Y-76479517D01*
X197659609Y-76383276D01*
X197637407Y-76378535D01*
X197647544Y-76358220D01*
X197711606Y-76123534D01*
X197728653Y-75880858D01*
X197698029Y-75639519D01*
X197620911Y-75408793D01*
X197500261Y-75197544D01*
X197340718Y-75013893D01*
X197322767Y-74999985D01*
X197340716Y-74986078D01*
X197500261Y-74802428D01*
X197620914Y-74591181D01*
X197698035Y-74360455D01*
X197728662Y-74119117D01*
X197711617Y-73876441D01*
X197647557Y-73641754D01*
X197637419Y-73621436D01*
X197659624Y-73616695D01*
X197883052Y-73520456D01*
X198083412Y-73382478D01*
X198253004Y-73208063D01*
X198385311Y-73003914D01*
X198475248Y-72777874D01*
X198484396Y-72728260D01*
X198593703Y-72711262D01*
X198711177Y-72668298D01*
X199792343Y-72147643D01*
X199899178Y-72082587D01*
X199991268Y-71997938D01*
X200065075Y-71896950D01*
X200117761Y-71783504D01*
X200147303Y-71661958D01*
X200152565Y-71536985D01*
X200133345Y-71413387D01*
X200090381Y-71295913D01*
X199005683Y-69043486D01*
X198940627Y-68936651D01*
X198855979Y-68844561D01*
X198754991Y-68770754D01*
X198641544Y-68718068D01*
X198519999Y-68688526D01*
X198395025Y-68683264D01*
X198271427Y-68702484D01*
X198153953Y-68745448D01*
X197874935Y-68879814D01*
X197784961Y-68831722D01*
X197608713Y-68778258D01*
X197471353Y-68764729D01*
X197425421Y-68760205D01*
X197379489Y-68764729D01*
X195796206Y-68764729D01*
X195750271Y-68760205D01*
X195566979Y-68778257D01*
X195463099Y-68809770D01*
X195390731Y-68831722D01*
X195228299Y-68918543D01*
X195085927Y-69035385D01*
X195056641Y-69071070D01*
X192071326Y-72056385D01*
X192035647Y-72085666D01*
X191918805Y-72228038D01*
X191847526Y-72361392D01*
X191831984Y-72390470D01*
X191778519Y-72566719D01*
X191760466Y-72750010D01*
X191764991Y-72795952D01*
X191764990Y-82104068D01*
X191760466Y-82150000D01*
X191764990Y-82195931D01*
X191778519Y-82333291D01*
X191831983Y-82509539D01*
X191918804Y-82671971D01*
X192035646Y-82814344D01*
X192071331Y-82843630D01*
X196314991Y-87087290D01*
X196314990Y-96254068D01*
X196310466Y-96300000D01*
X196314990Y-96345931D01*
X196328519Y-96483291D01*
X196381983Y-96659539D01*
X196468804Y-96821971D01*
X196585646Y-96964344D01*
X196621331Y-96993630D01*
X197665001Y-98037301D01*
X197665000Y-101414068D01*
X197660476Y-101460000D01*
X197675300Y-101610506D01*
X197678529Y-101643291D01*
X197731993Y-101819539D01*
X197818814Y-101981971D01*
X197935656Y-102124344D01*
X197971341Y-102153630D01*
X198998785Y-103181074D01*
X198988057Y-103290000D01*
X199015764Y-103571309D01*
X199097818Y-103841808D01*
X199231068Y-104091101D01*
X199410392Y-104309608D01*
X199628899Y-104488932D01*
X199761858Y-104560000D01*
X199628899Y-104631068D01*
X199410392Y-104810392D01*
X199231068Y-105028899D01*
X199097818Y-105278192D01*
X199015764Y-105548691D01*
X198988057Y-105830000D01*
X199015764Y-106111309D01*
X199097818Y-106381808D01*
X199231068Y-106631101D01*
X199410392Y-106849608D01*
X199628899Y-107028932D01*
X199878192Y-107162182D01*
X200148691Y-107244236D01*
X200359508Y-107265000D01*
X201300492Y-107265000D01*
X201511309Y-107244236D01*
X201781808Y-107162182D01*
X202031101Y-107028932D01*
X202249608Y-106849608D01*
X202428932Y-106631101D01*
X202562182Y-106381808D01*
X202644236Y-106111309D01*
X202671943Y-105830000D01*
X202644236Y-105548691D01*
X202562182Y-105278192D01*
X202428932Y-105028899D01*
X202249608Y-104810392D01*
X202031101Y-104631068D01*
X201898142Y-104560000D01*
X202031101Y-104488932D01*
X202249608Y-104309608D01*
X202428932Y-104091101D01*
X202562182Y-103841808D01*
X202644236Y-103571309D01*
X202671943Y-103290000D01*
X202644236Y-103008691D01*
X202562182Y-102738192D01*
X202428932Y-102488899D01*
X202249608Y-102270392D01*
X202031101Y-102091068D01*
X201898142Y-102020000D01*
X202031101Y-101948932D01*
X202249608Y-101769608D01*
X202428932Y-101551101D01*
X202562182Y-101301808D01*
X202644236Y-101031309D01*
X202671943Y-100750000D01*
X202644236Y-100468691D01*
X202562182Y-100198192D01*
X202428932Y-99948899D01*
X202249608Y-99730392D01*
X202031101Y-99551068D01*
X201898142Y-99480000D01*
X202031101Y-99408932D01*
X202249608Y-99229608D01*
X202428932Y-99011101D01*
X202562182Y-98761808D01*
X202644236Y-98491309D01*
X202671943Y-98210000D01*
X202644236Y-97928691D01*
X202562182Y-97658192D01*
X202428932Y-97408899D01*
X202249608Y-97190392D01*
X202031101Y-97011068D01*
X201781808Y-96877818D01*
X201511309Y-96795764D01*
X201300492Y-96775000D01*
X200359508Y-96775000D01*
X200321075Y-96778785D01*
X198985000Y-95442711D01*
X198985000Y-85057290D01*
X199895000Y-85967290D01*
X199895000Y-86712719D01*
X199878192Y-86717818D01*
X199628899Y-86851068D01*
X199410392Y-87030392D01*
X199231068Y-87248899D01*
X199097818Y-87498192D01*
X199015764Y-87768691D01*
X198988057Y-88050000D01*
X199015764Y-88331309D01*
X199097818Y-88601808D01*
X199231068Y-88851101D01*
X199410392Y-89069608D01*
X199628899Y-89248932D01*
X199761858Y-89320000D01*
X199628899Y-89391068D01*
X199410392Y-89570392D01*
X199231068Y-89788899D01*
X199097818Y-90038192D01*
X199015764Y-90308691D01*
X198988057Y-90590000D01*
X199015764Y-90871309D01*
X199097818Y-91141808D01*
X199231068Y-91391101D01*
X199410392Y-91609608D01*
X199628899Y-91788932D01*
X199761858Y-91860000D01*
X199628899Y-91931068D01*
X199410392Y-92110392D01*
X199231068Y-92328899D01*
X199097818Y-92578192D01*
X199015764Y-92848691D01*
X198988057Y-93130000D01*
X199015764Y-93411309D01*
X199097818Y-93681808D01*
X199231068Y-93931101D01*
X199410392Y-94149608D01*
X199628899Y-94328932D01*
X199878192Y-94462182D01*
X200148691Y-94544236D01*
X200359508Y-94565000D01*
X201300492Y-94565000D01*
X201511309Y-94544236D01*
X201781808Y-94462182D01*
X202031101Y-94328932D01*
X202249608Y-94149608D01*
X202428932Y-93931101D01*
X202562182Y-93681808D01*
X202644236Y-93411309D01*
X202671943Y-93130000D01*
X202661215Y-93021074D01*
X203290413Y-92391876D01*
X203290413Y-101959470D01*
X203285888Y-102005412D01*
X203303941Y-102188703D01*
X203350120Y-102340932D01*
X203357406Y-102364952D01*
X203444227Y-102527384D01*
X203561069Y-102669756D01*
X203596748Y-102699037D01*
X206611928Y-105714218D01*
X206611928Y-106630000D01*
X206624188Y-106754482D01*
X206660498Y-106874180D01*
X206719463Y-106984494D01*
X206798815Y-107081185D01*
X206895506Y-107160537D01*
X207005820Y-107219502D01*
X207125518Y-107255812D01*
X207250000Y-107268072D01*
X209551060Y-107268072D01*
X208804133Y-108015000D01*
X199295868Y-108015000D01*
X196285000Y-105004133D01*
X196285000Y-97441018D01*
X196289040Y-97400000D01*
X196276745Y-97275172D01*
X196272918Y-97236311D01*
X196225172Y-97078913D01*
X196147636Y-96933854D01*
X196101649Y-96877818D01*
X196069439Y-96838570D01*
X196069437Y-96838568D01*
X196043291Y-96806709D01*
X196011433Y-96780564D01*
X191519448Y-92288581D01*
X191519439Y-92288570D01*
X191519437Y-92288568D01*
X191493291Y-92256709D01*
X191461431Y-92230562D01*
X190869445Y-91638578D01*
X190843291Y-91606709D01*
X190716146Y-91502364D01*
X190571087Y-91424828D01*
X190413689Y-91377082D01*
X190291019Y-91365000D01*
X190291018Y-91365000D01*
X190250000Y-91360960D01*
X190208982Y-91365000D01*
X188115000Y-91365000D01*
X188115000Y-89888072D01*
X188130000Y-89888072D01*
X188254482Y-89875812D01*
X188374180Y-89839502D01*
X188484494Y-89780537D01*
X188581185Y-89701185D01*
X188660537Y-89604494D01*
X188719502Y-89494180D01*
X188755812Y-89374482D01*
X188768072Y-89250000D01*
X188768072Y-87550000D01*
X188755812Y-87425518D01*
X188719502Y-87305820D01*
X188660537Y-87195506D01*
X188581185Y-87098815D01*
X188484494Y-87019463D01*
X188374180Y-86960498D01*
X188293534Y-86936034D01*
X188377588Y-86860269D01*
X188551641Y-86626920D01*
X188676825Y-86364099D01*
X188721476Y-86216890D01*
X188600155Y-85987000D01*
X187407000Y-85987000D01*
X187407000Y-86007000D01*
X187153000Y-86007000D01*
X187153000Y-85987000D01*
X185959845Y-85987000D01*
X185838524Y-86216890D01*
X185883175Y-86364099D01*
X186008359Y-86626920D01*
X186182412Y-86860269D01*
X186266466Y-86936034D01*
X186185820Y-86960498D01*
X186075506Y-87019463D01*
X185978815Y-87098815D01*
X185899463Y-87195506D01*
X185840498Y-87305820D01*
X185804188Y-87425518D01*
X185791928Y-87550000D01*
X185791928Y-89250000D01*
X185804188Y-89374482D01*
X185840498Y-89494180D01*
X185899463Y-89604494D01*
X185978815Y-89701185D01*
X186075506Y-89780537D01*
X186185820Y-89839502D01*
X186305518Y-89875812D01*
X186430000Y-89888072D01*
X186445000Y-89888072D01*
X186445001Y-91365000D01*
X184261018Y-91365000D01*
X184220000Y-91360960D01*
X184178982Y-91365000D01*
X184178981Y-91365000D01*
X184056311Y-91377082D01*
X183961205Y-91405932D01*
X183898913Y-91424828D01*
X183753854Y-91502364D01*
X183665347Y-91575000D01*
X183626709Y-91606709D01*
X183600563Y-91638568D01*
X182134518Y-93104614D01*
X182114236Y-92898691D01*
X182032182Y-92628192D01*
X181898932Y-92378899D01*
X181719608Y-92160392D01*
X181501101Y-91981068D01*
X181368142Y-91910000D01*
X181501101Y-91838932D01*
X181719608Y-91659608D01*
X181898932Y-91441101D01*
X182032182Y-91191808D01*
X182114236Y-90921309D01*
X182141943Y-90640000D01*
X182114236Y-90358691D01*
X182032182Y-90088192D01*
X181898932Y-89838899D01*
X181719608Y-89620392D01*
X181501101Y-89441068D01*
X181368142Y-89370000D01*
X181501101Y-89298932D01*
X181719608Y-89119608D01*
X181898932Y-88901101D01*
X182032182Y-88651808D01*
X182114236Y-88381309D01*
X182141943Y-88100000D01*
X182114236Y-87818691D01*
X182032182Y-87548192D01*
X181898932Y-87298899D01*
X181719608Y-87080392D01*
X181501101Y-86901068D01*
X181251808Y-86767818D01*
X180981309Y-86685764D01*
X180770492Y-86665000D01*
X179829508Y-86665000D01*
X179618691Y-86685764D01*
X179348192Y-86767818D01*
X179098899Y-86901068D01*
X178880392Y-87080392D01*
X178701068Y-87298899D01*
X178567818Y-87548192D01*
X178485764Y-87818691D01*
X178485000Y-87826448D01*
X178485000Y-87337289D01*
X184228665Y-81593625D01*
X184264344Y-81564344D01*
X184381186Y-81421972D01*
X184468007Y-81259540D01*
X184511017Y-81117756D01*
X184521471Y-81083293D01*
X184539524Y-80900001D01*
X184535000Y-80854069D01*
X184535000Y-74995932D01*
X184539524Y-74950000D01*
X184521471Y-74766708D01*
X184515442Y-74746833D01*
X184468007Y-74590460D01*
X184381186Y-74428028D01*
X184264344Y-74285656D01*
X184228660Y-74256371D01*
X183283340Y-73311051D01*
X183254054Y-73275366D01*
X183111682Y-73158524D01*
X182949250Y-73071703D01*
X182773002Y-73018239D01*
X182737261Y-73014719D01*
X182631792Y-72893313D01*
X182439485Y-72744316D01*
X182221806Y-72635698D01*
X181987119Y-72571636D01*
X181744443Y-72554589D01*
X181563578Y-72577539D01*
X181500423Y-72591953D01*
X181551069Y-72551565D01*
X181681781Y-72424471D01*
X181819761Y-72224112D01*
X181916002Y-72000685D01*
X181966805Y-71762775D01*
X181970218Y-71519526D01*
X181926109Y-71280285D01*
X181836174Y-71054244D01*
X181703870Y-70850094D01*
X181534280Y-70675677D01*
X181333920Y-70537697D01*
X181110493Y-70441456D01*
X180872584Y-70390653D01*
X180629334Y-70387240D01*
X180390093Y-70431349D01*
X180164053Y-70521284D01*
X180011057Y-70620436D01*
X179960413Y-70660823D01*
X179983242Y-70613419D01*
X180378674Y-70217987D01*
X180414343Y-70188714D01*
X180443615Y-70153046D01*
X180443623Y-70153038D01*
X180531185Y-70046343D01*
X180618006Y-69883912D01*
X180671471Y-69707664D01*
X180689524Y-69524372D01*
X180688743Y-69516437D01*
X180671471Y-69341079D01*
X180655000Y-69286782D01*
X180655000Y-68317911D01*
X181515000Y-68317911D01*
X181515000Y-68502089D01*
X181550932Y-68682729D01*
X181621414Y-68852889D01*
X181723738Y-69006028D01*
X181853972Y-69136262D01*
X182007111Y-69238586D01*
X182161787Y-69302655D01*
X187695002Y-74835871D01*
X187695002Y-76808456D01*
X187426260Y-76755000D01*
X187133740Y-76755000D01*
X186846842Y-76812068D01*
X186576589Y-76924010D01*
X186333368Y-77086525D01*
X186126525Y-77293368D01*
X185964010Y-77536589D01*
X185852068Y-77806842D01*
X185795000Y-78093740D01*
X185795000Y-78386260D01*
X185852068Y-78673158D01*
X185964010Y-78943411D01*
X186126525Y-79186632D01*
X186333368Y-79393475D01*
X186507760Y-79510000D01*
X186333368Y-79626525D01*
X186126525Y-79833368D01*
X185964010Y-80076589D01*
X185852068Y-80346842D01*
X185795000Y-80633740D01*
X185795000Y-80926260D01*
X185852068Y-81213158D01*
X185964010Y-81483411D01*
X186126525Y-81726632D01*
X186333368Y-81933475D01*
X186507760Y-82050000D01*
X186333368Y-82166525D01*
X186126525Y-82373368D01*
X185964010Y-82616589D01*
X185852068Y-82886842D01*
X185795000Y-83173740D01*
X185795000Y-83466260D01*
X185852068Y-83753158D01*
X185964010Y-84023411D01*
X186126525Y-84266632D01*
X186333368Y-84473475D01*
X186515534Y-84595195D01*
X186398645Y-84664822D01*
X186182412Y-84859731D01*
X186008359Y-85093080D01*
X185883175Y-85355901D01*
X185838524Y-85503110D01*
X185959845Y-85733000D01*
X187153000Y-85733000D01*
X187153000Y-85713000D01*
X187407000Y-85713000D01*
X187407000Y-85733000D01*
X188600155Y-85733000D01*
X188721476Y-85503110D01*
X188676825Y-85355901D01*
X188551641Y-85093080D01*
X188377588Y-84859731D01*
X188161355Y-84664822D01*
X188044466Y-84595195D01*
X188226632Y-84473475D01*
X188433475Y-84266632D01*
X188595990Y-84023411D01*
X188707932Y-83753158D01*
X188765000Y-83466260D01*
X188765000Y-83173740D01*
X188738807Y-83042060D01*
X189691438Y-82089430D01*
X189723301Y-82063281D01*
X189827646Y-81936136D01*
X189905182Y-81791077D01*
X189952928Y-81633679D01*
X189965010Y-81511009D01*
X189965010Y-81511007D01*
X189969050Y-81469991D01*
X189965010Y-81428975D01*
X189965010Y-73961017D01*
X189969049Y-73920009D01*
X189965010Y-73879001D01*
X189965010Y-73878991D01*
X189952928Y-73756321D01*
X189905182Y-73598923D01*
X189827646Y-73453864D01*
X189723301Y-73326719D01*
X189691437Y-73300569D01*
X184542655Y-68151788D01*
X184478586Y-67997111D01*
X184376262Y-67843972D01*
X184246028Y-67713738D01*
X184092889Y-67611414D01*
X183922729Y-67540932D01*
X183742089Y-67505000D01*
X183557911Y-67505000D01*
X183377271Y-67540932D01*
X183207111Y-67611414D01*
X183067194Y-67704904D01*
X183046028Y-67683738D01*
X182892889Y-67581414D01*
X182722729Y-67510932D01*
X182542089Y-67475000D01*
X182357911Y-67475000D01*
X182177271Y-67510932D01*
X182007111Y-67581414D01*
X181853972Y-67683738D01*
X181723738Y-67813972D01*
X181621414Y-67967111D01*
X181550932Y-68137271D01*
X181515000Y-68317911D01*
X180655000Y-68317911D01*
X180655000Y-67979981D01*
X180700537Y-67924494D01*
X180759502Y-67814180D01*
X180795812Y-67694482D01*
X180808072Y-67570000D01*
X180808072Y-67070000D01*
X180795812Y-66945518D01*
X180759502Y-66825820D01*
X180700537Y-66715506D01*
X180634467Y-66634999D01*
X197829868Y-66634999D01*
X200058013Y-68863146D01*
G36*
X142364991Y-85942929D02*
G01*
X142364990Y-96504068D01*
X142360466Y-96550000D01*
X142372647Y-96673676D01*
X142378519Y-96733291D01*
X142431983Y-96909539D01*
X142518804Y-97071971D01*
X142635646Y-97214344D01*
X142671331Y-97243630D01*
X143815001Y-98387300D01*
X143815000Y-101714068D01*
X143810476Y-101760000D01*
X143822993Y-101887082D01*
X143828529Y-101943291D01*
X143881993Y-102119539D01*
X143968814Y-102281971D01*
X144085656Y-102424344D01*
X144121341Y-102453630D01*
X144798785Y-103131075D01*
X144788057Y-103240000D01*
X144815764Y-103521309D01*
X144897818Y-103791808D01*
X145031068Y-104041101D01*
X145210392Y-104259608D01*
X145428899Y-104438932D01*
X145561858Y-104510000D01*
X145428899Y-104581068D01*
X145210392Y-104760392D01*
X145031068Y-104978899D01*
X144897818Y-105228192D01*
X144815764Y-105498691D01*
X144788057Y-105780000D01*
X144815764Y-106061309D01*
X144897818Y-106331808D01*
X145031068Y-106581101D01*
X145210392Y-106799608D01*
X145428899Y-106978932D01*
X145678192Y-107112182D01*
X145948691Y-107194236D01*
X146159508Y-107215000D01*
X147000492Y-107215000D01*
X147211309Y-107194236D01*
X147481808Y-107112182D01*
X147731101Y-106978932D01*
X147949608Y-106799608D01*
X148128932Y-106581101D01*
X148262182Y-106331808D01*
X148344236Y-106061309D01*
X148371943Y-105780000D01*
X148344236Y-105498691D01*
X148262182Y-105228192D01*
X148128932Y-104978899D01*
X147949608Y-104760392D01*
X147731101Y-104581068D01*
X147598142Y-104510000D01*
X147731101Y-104438932D01*
X147949608Y-104259608D01*
X148128932Y-104041101D01*
X148262182Y-103791808D01*
X148344236Y-103521309D01*
X148371943Y-103240000D01*
X148344236Y-102958691D01*
X148262182Y-102688192D01*
X148128932Y-102438899D01*
X147949608Y-102220392D01*
X147731101Y-102041068D01*
X147598142Y-101970000D01*
X147731101Y-101898932D01*
X147949608Y-101719608D01*
X148128932Y-101501101D01*
X148262182Y-101251808D01*
X148344236Y-100981309D01*
X148371943Y-100700000D01*
X148344236Y-100418691D01*
X148262182Y-100148192D01*
X148128932Y-99898899D01*
X147949608Y-99680392D01*
X147731101Y-99501068D01*
X147598142Y-99430000D01*
X147731101Y-99358932D01*
X147949608Y-99179608D01*
X148128932Y-98961101D01*
X148262182Y-98711808D01*
X148344236Y-98441309D01*
X148371943Y-98160000D01*
X148344236Y-97878691D01*
X148262182Y-97608192D01*
X148128932Y-97358899D01*
X147949608Y-97140392D01*
X147731101Y-96961068D01*
X147481808Y-96827818D01*
X147211309Y-96745764D01*
X147000492Y-96725000D01*
X146159508Y-96725000D01*
X146121074Y-96728785D01*
X145035000Y-95642711D01*
X145035000Y-93885892D01*
X145210392Y-94099608D01*
X145428899Y-94278932D01*
X145678192Y-94412182D01*
X145948691Y-94494236D01*
X146159508Y-94515000D01*
X147000492Y-94515000D01*
X147211309Y-94494236D01*
X147481808Y-94412182D01*
X147731101Y-94278932D01*
X147949608Y-94099608D01*
X148128932Y-93881101D01*
X148262182Y-93631808D01*
X148344236Y-93361309D01*
X148371943Y-93080000D01*
X148361215Y-92971075D01*
X149040413Y-92291877D01*
X149040413Y-101859470D01*
X149035888Y-101905412D01*
X149053941Y-102088703D01*
X149092054Y-102214344D01*
X149107406Y-102264952D01*
X149194227Y-102427384D01*
X149311069Y-102569756D01*
X149346748Y-102599037D01*
X150471323Y-103723613D01*
X150471328Y-103723617D01*
X152418785Y-105671075D01*
X152408057Y-105780000D01*
X152435764Y-106061309D01*
X152517818Y-106331808D01*
X152651068Y-106581101D01*
X152830392Y-106799608D01*
X153048899Y-106978932D01*
X153298192Y-107112182D01*
X153568691Y-107194236D01*
X153779508Y-107215000D01*
X154620492Y-107215000D01*
X154713270Y-107205862D01*
X154354133Y-107565000D01*
X145025869Y-107565000D01*
X142915001Y-105454133D01*
X142915001Y-98191008D01*
X142919040Y-98150000D01*
X142915001Y-98108992D01*
X142915001Y-98108982D01*
X142902919Y-97986312D01*
X142855173Y-97828914D01*
X142777637Y-97683855D01*
X142673292Y-97556710D01*
X142641429Y-97530561D01*
X138063388Y-92952521D01*
X138072889Y-92948586D01*
X138226028Y-92846262D01*
X138356262Y-92716028D01*
X138458586Y-92562889D01*
X138529068Y-92392729D01*
X138565000Y-92212089D01*
X138565000Y-92027911D01*
X138529068Y-91847271D01*
X138465000Y-91692596D01*
X138465000Y-88258072D01*
X140090000Y-88258072D01*
X140214482Y-88245812D01*
X140334180Y-88209502D01*
X140444494Y-88150537D01*
X140541185Y-88071185D01*
X140620537Y-87974494D01*
X140679502Y-87864180D01*
X140715812Y-87744482D01*
X140728072Y-87620000D01*
X140728072Y-85920000D01*
X140715812Y-85795518D01*
X140679502Y-85675820D01*
X140620537Y-85565506D01*
X140541185Y-85468815D01*
X140444494Y-85389463D01*
X140334180Y-85330498D01*
X140214482Y-85294188D01*
X140090000Y-85281928D01*
X138465000Y-85281928D01*
X138465000Y-82042937D01*
X142364991Y-85942929D01*
G37*
X142364991Y-85942929D02*
X142364990Y-96504068D01*
X142360466Y-96550000D01*
X142372647Y-96673676D01*
X142378519Y-96733291D01*
X142431983Y-96909539D01*
X142518804Y-97071971D01*
X142635646Y-97214344D01*
X142671331Y-97243630D01*
X143815001Y-98387300D01*
X143815000Y-101714068D01*
X143810476Y-101760000D01*
X143822993Y-101887082D01*
X143828529Y-101943291D01*
X143881993Y-102119539D01*
X143968814Y-102281971D01*
X144085656Y-102424344D01*
X144121341Y-102453630D01*
X144798785Y-103131075D01*
X144788057Y-103240000D01*
X144815764Y-103521309D01*
X144897818Y-103791808D01*
X145031068Y-104041101D01*
X145210392Y-104259608D01*
X145428899Y-104438932D01*
X145561858Y-104510000D01*
X145428899Y-104581068D01*
X145210392Y-104760392D01*
X145031068Y-104978899D01*
X144897818Y-105228192D01*
X144815764Y-105498691D01*
X144788057Y-105780000D01*
X144815764Y-106061309D01*
X144897818Y-106331808D01*
X145031068Y-106581101D01*
X145210392Y-106799608D01*
X145428899Y-106978932D01*
X145678192Y-107112182D01*
X145948691Y-107194236D01*
X146159508Y-107215000D01*
X147000492Y-107215000D01*
X147211309Y-107194236D01*
X147481808Y-107112182D01*
X147731101Y-106978932D01*
X147949608Y-106799608D01*
X148128932Y-106581101D01*
X148262182Y-106331808D01*
X148344236Y-106061309D01*
X148371943Y-105780000D01*
X148344236Y-105498691D01*
X148262182Y-105228192D01*
X148128932Y-104978899D01*
X147949608Y-104760392D01*
X147731101Y-104581068D01*
X147598142Y-104510000D01*
X147731101Y-104438932D01*
X147949608Y-104259608D01*
X148128932Y-104041101D01*
X148262182Y-103791808D01*
X148344236Y-103521309D01*
X148371943Y-103240000D01*
X148344236Y-102958691D01*
X148262182Y-102688192D01*
X148128932Y-102438899D01*
X147949608Y-102220392D01*
X147731101Y-102041068D01*
X147598142Y-101970000D01*
X147731101Y-101898932D01*
X147949608Y-101719608D01*
X148128932Y-101501101D01*
X148262182Y-101251808D01*
X148344236Y-100981309D01*
X148371943Y-100700000D01*
X148344236Y-100418691D01*
X148262182Y-100148192D01*
X148128932Y-99898899D01*
X147949608Y-99680392D01*
X147731101Y-99501068D01*
X147598142Y-99430000D01*
X147731101Y-99358932D01*
X147949608Y-99179608D01*
X148128932Y-98961101D01*
X148262182Y-98711808D01*
X148344236Y-98441309D01*
X148371943Y-98160000D01*
X148344236Y-97878691D01*
X148262182Y-97608192D01*
X148128932Y-97358899D01*
X147949608Y-97140392D01*
X147731101Y-96961068D01*
X147481808Y-96827818D01*
X147211309Y-96745764D01*
X147000492Y-96725000D01*
X146159508Y-96725000D01*
X146121074Y-96728785D01*
X145035000Y-95642711D01*
X145035000Y-93885892D01*
X145210392Y-94099608D01*
X145428899Y-94278932D01*
X145678192Y-94412182D01*
X145948691Y-94494236D01*
X146159508Y-94515000D01*
X147000492Y-94515000D01*
X147211309Y-94494236D01*
X147481808Y-94412182D01*
X147731101Y-94278932D01*
X147949608Y-94099608D01*
X148128932Y-93881101D01*
X148262182Y-93631808D01*
X148344236Y-93361309D01*
X148371943Y-93080000D01*
X148361215Y-92971075D01*
X149040413Y-92291877D01*
X149040413Y-101859470D01*
X149035888Y-101905412D01*
X149053941Y-102088703D01*
X149092054Y-102214344D01*
X149107406Y-102264952D01*
X149194227Y-102427384D01*
X149311069Y-102569756D01*
X149346748Y-102599037D01*
X150471323Y-103723613D01*
X150471328Y-103723617D01*
X152418785Y-105671075D01*
X152408057Y-105780000D01*
X152435764Y-106061309D01*
X152517818Y-106331808D01*
X152651068Y-106581101D01*
X152830392Y-106799608D01*
X153048899Y-106978932D01*
X153298192Y-107112182D01*
X153568691Y-107194236D01*
X153779508Y-107215000D01*
X154620492Y-107215000D01*
X154713270Y-107205862D01*
X154354133Y-107565000D01*
X145025869Y-107565000D01*
X142915001Y-105454133D01*
X142915001Y-98191008D01*
X142919040Y-98150000D01*
X142915001Y-98108992D01*
X142915001Y-98108982D01*
X142902919Y-97986312D01*
X142855173Y-97828914D01*
X142777637Y-97683855D01*
X142673292Y-97556710D01*
X142641429Y-97530561D01*
X138063388Y-92952521D01*
X138072889Y-92948586D01*
X138226028Y-92846262D01*
X138356262Y-92716028D01*
X138458586Y-92562889D01*
X138529068Y-92392729D01*
X138565000Y-92212089D01*
X138565000Y-92027911D01*
X138529068Y-91847271D01*
X138465000Y-91692596D01*
X138465000Y-88258072D01*
X140090000Y-88258072D01*
X140214482Y-88245812D01*
X140334180Y-88209502D01*
X140444494Y-88150537D01*
X140541185Y-88071185D01*
X140620537Y-87974494D01*
X140679502Y-87864180D01*
X140715812Y-87744482D01*
X140728072Y-87620000D01*
X140728072Y-85920000D01*
X140715812Y-85795518D01*
X140679502Y-85675820D01*
X140620537Y-85565506D01*
X140541185Y-85468815D01*
X140444494Y-85389463D01*
X140334180Y-85330498D01*
X140214482Y-85294188D01*
X140090000Y-85281928D01*
X138465000Y-85281928D01*
X138465000Y-82042937D01*
X142364991Y-85942929D01*
G36*
X130630498Y-67274180D02*
G01*
X130689463Y-67384494D01*
X130768815Y-67481185D01*
X130865506Y-67560537D01*
X130975820Y-67619502D01*
X131095518Y-67655812D01*
X131220000Y-67668072D01*
X133220000Y-67668072D01*
X133344482Y-67655812D01*
X133464180Y-67619502D01*
X133574494Y-67560537D01*
X133671185Y-67481185D01*
X133750537Y-67384494D01*
X133809502Y-67274180D01*
X133821387Y-67235000D01*
X135329868Y-67235000D01*
X136108013Y-68013146D01*
X136143551Y-68056449D01*
X136186854Y-68091987D01*
X136186856Y-68091989D01*
X136316377Y-68198284D01*
X136513553Y-68303676D01*
X136727501Y-68368577D01*
X136950000Y-68390491D01*
X137005752Y-68385000D01*
X139055752Y-68385000D01*
X139222499Y-68368577D01*
X139358183Y-68327417D01*
X139374482Y-68325812D01*
X139494180Y-68289502D01*
X139604494Y-68230537D01*
X139701185Y-68151185D01*
X139722169Y-68125616D01*
X139755430Y-68098320D01*
X139798815Y-68151185D01*
X139895506Y-68230537D01*
X140005820Y-68289502D01*
X140125518Y-68325812D01*
X140250000Y-68338072D01*
X140750000Y-68338072D01*
X140874482Y-68325812D01*
X140994180Y-68289502D01*
X141104494Y-68230537D01*
X141159981Y-68185000D01*
X144523294Y-68185000D01*
X146959120Y-70620826D01*
X146896435Y-70750992D01*
X146833812Y-70922214D01*
X146796428Y-71162599D01*
X146806660Y-71405656D01*
X146864113Y-71642048D01*
X146966580Y-71862689D01*
X147110123Y-72059100D01*
X147289227Y-72223734D01*
X147497006Y-72350263D01*
X147725478Y-72433824D01*
X147965863Y-72471208D01*
X148208920Y-72460976D01*
X148230985Y-72455613D01*
X148230666Y-72478319D01*
X148274775Y-72717560D01*
X148364709Y-72943600D01*
X148497014Y-73147751D01*
X148666604Y-73322167D01*
X148866963Y-73460147D01*
X149090390Y-73556388D01*
X149112593Y-73561129D01*
X149102456Y-73581444D01*
X149038394Y-73816131D01*
X149021347Y-74058806D01*
X149051971Y-74300145D01*
X149129089Y-74530871D01*
X149249739Y-74742120D01*
X149409282Y-74925771D01*
X149427233Y-74939679D01*
X149409283Y-74953586D01*
X149249738Y-75137236D01*
X149129086Y-75348483D01*
X149051965Y-75579209D01*
X149021338Y-75820547D01*
X149038382Y-76063222D01*
X149102442Y-76297910D01*
X149112580Y-76318228D01*
X149090376Y-76322969D01*
X148866948Y-76419208D01*
X148666587Y-76557186D01*
X148496995Y-76731601D01*
X148364689Y-76935750D01*
X148274752Y-77161790D01*
X148230641Y-77401030D01*
X148230959Y-77423734D01*
X148208894Y-77418371D01*
X147965837Y-77408138D01*
X147725452Y-77445519D01*
X147496979Y-77529078D01*
X147289198Y-77655605D01*
X147110093Y-77820238D01*
X146966548Y-78016647D01*
X146956984Y-78037240D01*
X146939432Y-78022835D01*
X146724885Y-77908156D01*
X146492086Y-77837536D01*
X146249984Y-77813690D01*
X146007883Y-77837533D01*
X145775084Y-77908151D01*
X145560535Y-78022828D01*
X145542984Y-78037232D01*
X145533420Y-78016639D01*
X145389877Y-77820228D01*
X145210773Y-77655594D01*
X145002994Y-77529065D01*
X144774522Y-77445504D01*
X144534137Y-77408120D01*
X144291079Y-77418352D01*
X144269015Y-77423714D01*
X144269334Y-77401010D01*
X144225225Y-77161769D01*
X144135290Y-76935728D01*
X144002986Y-76731578D01*
X143833396Y-76557161D01*
X143633036Y-76419181D01*
X143409609Y-76322940D01*
X143387407Y-76318199D01*
X143397544Y-76297884D01*
X143461606Y-76063198D01*
X143478653Y-75820522D01*
X143448029Y-75579183D01*
X143370911Y-75348457D01*
X143250261Y-75137208D01*
X143090718Y-74953557D01*
X143072767Y-74939649D01*
X143090716Y-74925742D01*
X143250261Y-74742092D01*
X143370914Y-74530845D01*
X143448035Y-74300119D01*
X143478662Y-74058781D01*
X143461617Y-73816105D01*
X143397557Y-73581418D01*
X143387419Y-73561100D01*
X143409624Y-73556359D01*
X143633052Y-73460120D01*
X143833412Y-73322142D01*
X144003004Y-73147727D01*
X144135311Y-72943578D01*
X144225248Y-72717538D01*
X144234396Y-72667924D01*
X144343703Y-72650926D01*
X144461177Y-72607962D01*
X145542343Y-72087307D01*
X145649178Y-72022251D01*
X145741268Y-71937602D01*
X145815075Y-71836614D01*
X145867761Y-71723168D01*
X145897303Y-71601622D01*
X145902565Y-71476649D01*
X145883345Y-71353051D01*
X145840381Y-71235577D01*
X144755683Y-68983150D01*
X144690627Y-68876315D01*
X144605979Y-68784225D01*
X144504991Y-68710418D01*
X144391544Y-68657732D01*
X144269999Y-68628190D01*
X144145025Y-68622928D01*
X144021427Y-68642148D01*
X143903953Y-68685112D01*
X143614763Y-68824377D01*
X143534961Y-68781722D01*
X143358713Y-68728258D01*
X143221353Y-68714729D01*
X143175421Y-68710205D01*
X143129489Y-68714729D01*
X140996203Y-68714729D01*
X140950271Y-68710205D01*
X140904339Y-68714729D01*
X140766979Y-68728258D01*
X140590731Y-68781722D01*
X140428299Y-68868543D01*
X140285927Y-68985385D01*
X140256641Y-69021070D01*
X139284228Y-69993483D01*
X139269068Y-69917271D01*
X139198586Y-69747111D01*
X139096262Y-69593972D01*
X138966028Y-69463738D01*
X138812889Y-69361414D01*
X138642729Y-69290932D01*
X138462089Y-69255000D01*
X138277911Y-69255000D01*
X138097271Y-69290932D01*
X137927111Y-69361414D01*
X137773972Y-69463738D01*
X137643738Y-69593972D01*
X137541414Y-69747111D01*
X137477346Y-69901787D01*
X137068574Y-70310559D01*
X137036710Y-70336709D01*
X136967301Y-70421284D01*
X136932364Y-70463855D01*
X136854828Y-70608914D01*
X136807082Y-70766312D01*
X136790960Y-70930000D01*
X136795001Y-70971029D01*
X136795000Y-91684132D01*
X136549444Y-91438577D01*
X136523290Y-91406708D01*
X136396145Y-91302363D01*
X136251086Y-91224827D01*
X136093688Y-91177081D01*
X135971018Y-91164999D01*
X135971017Y-91164999D01*
X135929999Y-91160959D01*
X135888981Y-91164999D01*
X130151019Y-91164999D01*
X130110000Y-91160959D01*
X130068982Y-91164999D01*
X129946312Y-91177081D01*
X129788914Y-91224827D01*
X129643855Y-91302363D01*
X129516710Y-91406708D01*
X129490560Y-91438572D01*
X127884518Y-93044614D01*
X127864236Y-92838691D01*
X127782182Y-92568192D01*
X127648932Y-92318899D01*
X127469608Y-92100392D01*
X127251101Y-91921068D01*
X127118142Y-91850000D01*
X127251101Y-91778932D01*
X127469608Y-91599608D01*
X127648932Y-91381101D01*
X127782182Y-91131808D01*
X127864236Y-90861309D01*
X127891943Y-90580000D01*
X127864236Y-90298691D01*
X127782182Y-90028192D01*
X127648932Y-89778899D01*
X127469608Y-89560392D01*
X127251101Y-89381068D01*
X127118142Y-89310000D01*
X127251101Y-89238932D01*
X127469608Y-89059608D01*
X127648932Y-88841101D01*
X127782182Y-88591808D01*
X127864236Y-88321309D01*
X127891943Y-88040000D01*
X127864236Y-87758691D01*
X127782182Y-87488192D01*
X127648932Y-87238899D01*
X127469608Y-87020392D01*
X127251101Y-86841068D01*
X127001808Y-86707818D01*
X126731309Y-86625764D01*
X126520492Y-86605000D01*
X125679508Y-86605000D01*
X125468691Y-86625764D01*
X125198192Y-86707818D01*
X124948899Y-86841068D01*
X124730392Y-87020392D01*
X124551068Y-87238899D01*
X124417818Y-87488192D01*
X124335764Y-87758691D01*
X124308057Y-88040000D01*
X124335764Y-88321309D01*
X124417818Y-88591808D01*
X124551068Y-88841101D01*
X124730392Y-89059608D01*
X124948899Y-89238932D01*
X125081858Y-89310000D01*
X124948899Y-89381068D01*
X124730392Y-89560392D01*
X124551068Y-89778899D01*
X124417818Y-90028192D01*
X124335764Y-90298691D01*
X124308057Y-90580000D01*
X124335764Y-90861309D01*
X124417818Y-91131808D01*
X124551068Y-91381101D01*
X124730392Y-91599608D01*
X124948899Y-91778932D01*
X125081858Y-91850000D01*
X124948899Y-91921068D01*
X124730392Y-92100392D01*
X124551068Y-92318899D01*
X124417818Y-92568192D01*
X124335764Y-92838691D01*
X124308057Y-93120000D01*
X124335764Y-93401309D01*
X124417818Y-93671808D01*
X124551068Y-93921101D01*
X124730392Y-94139608D01*
X124948899Y-94318932D01*
X125081858Y-94390000D01*
X124948899Y-94461068D01*
X124730392Y-94640392D01*
X124551068Y-94858899D01*
X124417818Y-95108192D01*
X124335764Y-95378691D01*
X124308057Y-95660000D01*
X124335764Y-95941309D01*
X124417818Y-96211808D01*
X124551068Y-96461101D01*
X124730392Y-96679608D01*
X124948899Y-96858932D01*
X125081858Y-96930000D01*
X124948899Y-97001068D01*
X124730392Y-97180392D01*
X124551068Y-97398899D01*
X124417818Y-97648192D01*
X124335764Y-97918691D01*
X124308057Y-98200000D01*
X124335764Y-98481309D01*
X124417818Y-98751808D01*
X124551068Y-99001101D01*
X124730392Y-99219608D01*
X124948899Y-99398932D01*
X125081858Y-99470000D01*
X124948899Y-99541068D01*
X124730392Y-99720392D01*
X124551068Y-99938899D01*
X124417818Y-100188192D01*
X124335764Y-100458691D01*
X124328162Y-100535873D01*
X124135020Y-100342731D01*
X124135020Y-86315723D01*
X129728660Y-80722083D01*
X129764344Y-80692798D01*
X129881186Y-80550426D01*
X129968007Y-80387994D01*
X129998652Y-80286971D01*
X130021472Y-80211746D01*
X130039524Y-80028454D01*
X130035000Y-79982519D01*
X130035000Y-74726126D01*
X130039524Y-74680194D01*
X130021471Y-74496902D01*
X130018060Y-74485656D01*
X129968007Y-74320654D01*
X129881186Y-74158222D01*
X129764344Y-74015850D01*
X129728659Y-73986564D01*
X128953146Y-73211051D01*
X128923860Y-73175366D01*
X128781488Y-73058524D01*
X128619056Y-72971703D01*
X128575210Y-72958403D01*
X128431792Y-72793313D01*
X128239485Y-72644316D01*
X128021806Y-72535698D01*
X127787119Y-72471636D01*
X127544443Y-72454589D01*
X127363578Y-72477539D01*
X127300423Y-72491953D01*
X127351069Y-72451565D01*
X127481781Y-72324471D01*
X127619761Y-72124112D01*
X127716002Y-71900685D01*
X127766805Y-71662775D01*
X127770218Y-71419526D01*
X127726109Y-71180285D01*
X127636174Y-70954244D01*
X127503870Y-70750094D01*
X127334280Y-70575677D01*
X127133920Y-70437697D01*
X126910493Y-70341456D01*
X126672584Y-70290653D01*
X126429334Y-70287240D01*
X126190093Y-70331349D01*
X125964053Y-70421284D01*
X125811057Y-70520436D01*
X125760413Y-70560823D01*
X125788519Y-70502461D01*
X125851142Y-70331239D01*
X125888526Y-70090854D01*
X125878294Y-69847796D01*
X125820841Y-69611404D01*
X125718374Y-69390763D01*
X125574831Y-69194352D01*
X125535000Y-69157739D01*
X125535000Y-67598354D01*
X125625518Y-67625812D01*
X125641818Y-67627417D01*
X125777502Y-67668577D01*
X126000000Y-67690491D01*
X126222498Y-67668577D01*
X126358182Y-67627417D01*
X126374482Y-67625812D01*
X126494180Y-67589502D01*
X126604494Y-67530537D01*
X126701185Y-67451185D01*
X126722172Y-67425612D01*
X126763143Y-67391988D01*
X126920131Y-67235000D01*
X130618613Y-67235000D01*
X130630498Y-67274180D01*
G37*
X130630498Y-67274180D02*
X130689463Y-67384494D01*
X130768815Y-67481185D01*
X130865506Y-67560537D01*
X130975820Y-67619502D01*
X131095518Y-67655812D01*
X131220000Y-67668072D01*
X133220000Y-67668072D01*
X133344482Y-67655812D01*
X133464180Y-67619502D01*
X133574494Y-67560537D01*
X133671185Y-67481185D01*
X133750537Y-67384494D01*
X133809502Y-67274180D01*
X133821387Y-67235000D01*
X135329868Y-67235000D01*
X136108013Y-68013146D01*
X136143551Y-68056449D01*
X136186854Y-68091987D01*
X136186856Y-68091989D01*
X136316377Y-68198284D01*
X136513553Y-68303676D01*
X136727501Y-68368577D01*
X136950000Y-68390491D01*
X137005752Y-68385000D01*
X139055752Y-68385000D01*
X139222499Y-68368577D01*
X139358183Y-68327417D01*
X139374482Y-68325812D01*
X139494180Y-68289502D01*
X139604494Y-68230537D01*
X139701185Y-68151185D01*
X139722169Y-68125616D01*
X139755430Y-68098320D01*
X139798815Y-68151185D01*
X139895506Y-68230537D01*
X140005820Y-68289502D01*
X140125518Y-68325812D01*
X140250000Y-68338072D01*
X140750000Y-68338072D01*
X140874482Y-68325812D01*
X140994180Y-68289502D01*
X141104494Y-68230537D01*
X141159981Y-68185000D01*
X144523294Y-68185000D01*
X146959120Y-70620826D01*
X146896435Y-70750992D01*
X146833812Y-70922214D01*
X146796428Y-71162599D01*
X146806660Y-71405656D01*
X146864113Y-71642048D01*
X146966580Y-71862689D01*
X147110123Y-72059100D01*
X147289227Y-72223734D01*
X147497006Y-72350263D01*
X147725478Y-72433824D01*
X147965863Y-72471208D01*
X148208920Y-72460976D01*
X148230985Y-72455613D01*
X148230666Y-72478319D01*
X148274775Y-72717560D01*
X148364709Y-72943600D01*
X148497014Y-73147751D01*
X148666604Y-73322167D01*
X148866963Y-73460147D01*
X149090390Y-73556388D01*
X149112593Y-73561129D01*
X149102456Y-73581444D01*
X149038394Y-73816131D01*
X149021347Y-74058806D01*
X149051971Y-74300145D01*
X149129089Y-74530871D01*
X149249739Y-74742120D01*
X149409282Y-74925771D01*
X149427233Y-74939679D01*
X149409283Y-74953586D01*
X149249738Y-75137236D01*
X149129086Y-75348483D01*
X149051965Y-75579209D01*
X149021338Y-75820547D01*
X149038382Y-76063222D01*
X149102442Y-76297910D01*
X149112580Y-76318228D01*
X149090376Y-76322969D01*
X148866948Y-76419208D01*
X148666587Y-76557186D01*
X148496995Y-76731601D01*
X148364689Y-76935750D01*
X148274752Y-77161790D01*
X148230641Y-77401030D01*
X148230959Y-77423734D01*
X148208894Y-77418371D01*
X147965837Y-77408138D01*
X147725452Y-77445519D01*
X147496979Y-77529078D01*
X147289198Y-77655605D01*
X147110093Y-77820238D01*
X146966548Y-78016647D01*
X146956984Y-78037240D01*
X146939432Y-78022835D01*
X146724885Y-77908156D01*
X146492086Y-77837536D01*
X146249984Y-77813690D01*
X146007883Y-77837533D01*
X145775084Y-77908151D01*
X145560535Y-78022828D01*
X145542984Y-78037232D01*
X145533420Y-78016639D01*
X145389877Y-77820228D01*
X145210773Y-77655594D01*
X145002994Y-77529065D01*
X144774522Y-77445504D01*
X144534137Y-77408120D01*
X144291079Y-77418352D01*
X144269015Y-77423714D01*
X144269334Y-77401010D01*
X144225225Y-77161769D01*
X144135290Y-76935728D01*
X144002986Y-76731578D01*
X143833396Y-76557161D01*
X143633036Y-76419181D01*
X143409609Y-76322940D01*
X143387407Y-76318199D01*
X143397544Y-76297884D01*
X143461606Y-76063198D01*
X143478653Y-75820522D01*
X143448029Y-75579183D01*
X143370911Y-75348457D01*
X143250261Y-75137208D01*
X143090718Y-74953557D01*
X143072767Y-74939649D01*
X143090716Y-74925742D01*
X143250261Y-74742092D01*
X143370914Y-74530845D01*
X143448035Y-74300119D01*
X143478662Y-74058781D01*
X143461617Y-73816105D01*
X143397557Y-73581418D01*
X143387419Y-73561100D01*
X143409624Y-73556359D01*
X143633052Y-73460120D01*
X143833412Y-73322142D01*
X144003004Y-73147727D01*
X144135311Y-72943578D01*
X144225248Y-72717538D01*
X144234396Y-72667924D01*
X144343703Y-72650926D01*
X144461177Y-72607962D01*
X145542343Y-72087307D01*
X145649178Y-72022251D01*
X145741268Y-71937602D01*
X145815075Y-71836614D01*
X145867761Y-71723168D01*
X145897303Y-71601622D01*
X145902565Y-71476649D01*
X145883345Y-71353051D01*
X145840381Y-71235577D01*
X144755683Y-68983150D01*
X144690627Y-68876315D01*
X144605979Y-68784225D01*
X144504991Y-68710418D01*
X144391544Y-68657732D01*
X144269999Y-68628190D01*
X144145025Y-68622928D01*
X144021427Y-68642148D01*
X143903953Y-68685112D01*
X143614763Y-68824377D01*
X143534961Y-68781722D01*
X143358713Y-68728258D01*
X143221353Y-68714729D01*
X143175421Y-68710205D01*
X143129489Y-68714729D01*
X140996203Y-68714729D01*
X140950271Y-68710205D01*
X140904339Y-68714729D01*
X140766979Y-68728258D01*
X140590731Y-68781722D01*
X140428299Y-68868543D01*
X140285927Y-68985385D01*
X140256641Y-69021070D01*
X139284228Y-69993483D01*
X139269068Y-69917271D01*
X139198586Y-69747111D01*
X139096262Y-69593972D01*
X138966028Y-69463738D01*
X138812889Y-69361414D01*
X138642729Y-69290932D01*
X138462089Y-69255000D01*
X138277911Y-69255000D01*
X138097271Y-69290932D01*
X137927111Y-69361414D01*
X137773972Y-69463738D01*
X137643738Y-69593972D01*
X137541414Y-69747111D01*
X137477346Y-69901787D01*
X137068574Y-70310559D01*
X137036710Y-70336709D01*
X136967301Y-70421284D01*
X136932364Y-70463855D01*
X136854828Y-70608914D01*
X136807082Y-70766312D01*
X136790960Y-70930000D01*
X136795001Y-70971029D01*
X136795000Y-91684132D01*
X136549444Y-91438577D01*
X136523290Y-91406708D01*
X136396145Y-91302363D01*
X136251086Y-91224827D01*
X136093688Y-91177081D01*
X135971018Y-91164999D01*
X135971017Y-91164999D01*
X135929999Y-91160959D01*
X135888981Y-91164999D01*
X130151019Y-91164999D01*
X130110000Y-91160959D01*
X130068982Y-91164999D01*
X129946312Y-91177081D01*
X129788914Y-91224827D01*
X129643855Y-91302363D01*
X129516710Y-91406708D01*
X129490560Y-91438572D01*
X127884518Y-93044614D01*
X127864236Y-92838691D01*
X127782182Y-92568192D01*
X127648932Y-92318899D01*
X127469608Y-92100392D01*
X127251101Y-91921068D01*
X127118142Y-91850000D01*
X127251101Y-91778932D01*
X127469608Y-91599608D01*
X127648932Y-91381101D01*
X127782182Y-91131808D01*
X127864236Y-90861309D01*
X127891943Y-90580000D01*
X127864236Y-90298691D01*
X127782182Y-90028192D01*
X127648932Y-89778899D01*
X127469608Y-89560392D01*
X127251101Y-89381068D01*
X127118142Y-89310000D01*
X127251101Y-89238932D01*
X127469608Y-89059608D01*
X127648932Y-88841101D01*
X127782182Y-88591808D01*
X127864236Y-88321309D01*
X127891943Y-88040000D01*
X127864236Y-87758691D01*
X127782182Y-87488192D01*
X127648932Y-87238899D01*
X127469608Y-87020392D01*
X127251101Y-86841068D01*
X127001808Y-86707818D01*
X126731309Y-86625764D01*
X126520492Y-86605000D01*
X125679508Y-86605000D01*
X125468691Y-86625764D01*
X125198192Y-86707818D01*
X124948899Y-86841068D01*
X124730392Y-87020392D01*
X124551068Y-87238899D01*
X124417818Y-87488192D01*
X124335764Y-87758691D01*
X124308057Y-88040000D01*
X124335764Y-88321309D01*
X124417818Y-88591808D01*
X124551068Y-88841101D01*
X124730392Y-89059608D01*
X124948899Y-89238932D01*
X125081858Y-89310000D01*
X124948899Y-89381068D01*
X124730392Y-89560392D01*
X124551068Y-89778899D01*
X124417818Y-90028192D01*
X124335764Y-90298691D01*
X124308057Y-90580000D01*
X124335764Y-90861309D01*
X124417818Y-91131808D01*
X124551068Y-91381101D01*
X124730392Y-91599608D01*
X124948899Y-91778932D01*
X125081858Y-91850000D01*
X124948899Y-91921068D01*
X124730392Y-92100392D01*
X124551068Y-92318899D01*
X124417818Y-92568192D01*
X124335764Y-92838691D01*
X124308057Y-93120000D01*
X124335764Y-93401309D01*
X124417818Y-93671808D01*
X124551068Y-93921101D01*
X124730392Y-94139608D01*
X124948899Y-94318932D01*
X125081858Y-94390000D01*
X124948899Y-94461068D01*
X124730392Y-94640392D01*
X124551068Y-94858899D01*
X124417818Y-95108192D01*
X124335764Y-95378691D01*
X124308057Y-95660000D01*
X124335764Y-95941309D01*
X124417818Y-96211808D01*
X124551068Y-96461101D01*
X124730392Y-96679608D01*
X124948899Y-96858932D01*
X125081858Y-96930000D01*
X124948899Y-97001068D01*
X124730392Y-97180392D01*
X124551068Y-97398899D01*
X124417818Y-97648192D01*
X124335764Y-97918691D01*
X124308057Y-98200000D01*
X124335764Y-98481309D01*
X124417818Y-98751808D01*
X124551068Y-99001101D01*
X124730392Y-99219608D01*
X124948899Y-99398932D01*
X125081858Y-99470000D01*
X124948899Y-99541068D01*
X124730392Y-99720392D01*
X124551068Y-99938899D01*
X124417818Y-100188192D01*
X124335764Y-100458691D01*
X124328162Y-100535873D01*
X124135020Y-100342731D01*
X124135020Y-86315723D01*
X129728660Y-80722083D01*
X129764344Y-80692798D01*
X129881186Y-80550426D01*
X129968007Y-80387994D01*
X129998652Y-80286971D01*
X130021472Y-80211746D01*
X130039524Y-80028454D01*
X130035000Y-79982519D01*
X130035000Y-74726126D01*
X130039524Y-74680194D01*
X130021471Y-74496902D01*
X130018060Y-74485656D01*
X129968007Y-74320654D01*
X129881186Y-74158222D01*
X129764344Y-74015850D01*
X129728659Y-73986564D01*
X128953146Y-73211051D01*
X128923860Y-73175366D01*
X128781488Y-73058524D01*
X128619056Y-72971703D01*
X128575210Y-72958403D01*
X128431792Y-72793313D01*
X128239485Y-72644316D01*
X128021806Y-72535698D01*
X127787119Y-72471636D01*
X127544443Y-72454589D01*
X127363578Y-72477539D01*
X127300423Y-72491953D01*
X127351069Y-72451565D01*
X127481781Y-72324471D01*
X127619761Y-72124112D01*
X127716002Y-71900685D01*
X127766805Y-71662775D01*
X127770218Y-71419526D01*
X127726109Y-71180285D01*
X127636174Y-70954244D01*
X127503870Y-70750094D01*
X127334280Y-70575677D01*
X127133920Y-70437697D01*
X126910493Y-70341456D01*
X126672584Y-70290653D01*
X126429334Y-70287240D01*
X126190093Y-70331349D01*
X125964053Y-70421284D01*
X125811057Y-70520436D01*
X125760413Y-70560823D01*
X125788519Y-70502461D01*
X125851142Y-70331239D01*
X125888526Y-70090854D01*
X125878294Y-69847796D01*
X125820841Y-69611404D01*
X125718374Y-69390763D01*
X125574831Y-69194352D01*
X125535000Y-69157739D01*
X125535000Y-67598354D01*
X125625518Y-67625812D01*
X125641818Y-67627417D01*
X125777502Y-67668577D01*
X126000000Y-67690491D01*
X126222498Y-67668577D01*
X126358182Y-67627417D01*
X126374482Y-67625812D01*
X126494180Y-67589502D01*
X126604494Y-67530537D01*
X126701185Y-67451185D01*
X126722172Y-67425612D01*
X126763143Y-67391988D01*
X126920131Y-67235000D01*
X130618613Y-67235000D01*
X130630498Y-67274180D01*
M02*
