M48
INCH,TZ
T1C0.0118
T2C0.0157
T3C0.0315
T4C0.0394
%
G90
G05
T1
X52138Y-26677
X55437Y-36051
X51744Y-27071
X75102Y-27736
X76441Y-35246
X64559Y-36026
X51843Y-33386
X76835Y-35640
X72457Y-33844
X52994Y-40520
X76441Y-36033
X51350Y-26677
X75587Y-41931
X52994Y-40126
X51744Y-27465
X51350Y-27071
X53388Y-40126
X75980Y-41931
X63772Y-36026
X72063Y-33844
X76835Y-35246
X75587Y-42719
X76374Y-42719
X53388Y-40520
X55437Y-36445
X55437Y-35657
X52138Y-27465
X64559Y-35632
X63772Y-36419
X53388Y-40913
X51449Y-34173
X52994Y-40913
X60071Y-32600
X51055Y-34173
X51843Y-34173
X75102Y-26949
X51055Y-33386
X52138Y-27071
X76441Y-35640
X51350Y-27465
X64165Y-36419
X51449Y-33386
X49091Y-34020
X51843Y-33780
X75587Y-42325
X52600Y-40520
X64559Y-36419
X64165Y-35632
X75980Y-42325
X76374Y-41931
X51055Y-33780
X51744Y-26677
X76374Y-42325
X52600Y-40126
X76835Y-36033
X73651Y-38849
X64165Y-36026
X75980Y-42719
X60071Y-32994
X73930Y-38571
X52600Y-40913
X51449Y-33780
X72063Y-34238
X75102Y-27343
X63772Y-35632
X60071Y-33388
X72457Y-34238
X72457Y-33451
X72063Y-33451
T2
X45888Y-33840
X51457Y-36496
X51457Y-37008
X51457Y-37520
X51457Y-37992
X51457Y-38504
X53850Y-36555
X54051Y-39327
X54185Y-36268
X54476Y-27634
X54476Y-40646
X54516Y-39031
X54878Y-40661
X55272Y-40661
X55661Y-40661
X56319Y-32972
X62402Y-38780
X64291Y-42618
X66988Y-33740
X71831Y-26933
X72303Y-26945
X72815Y-38071
X72835Y-36575
X72835Y-37087
X72835Y-38543
X72854Y-37579
X73157Y-38850
X74921Y-36535
X75118Y-40669
X75492Y-39409
X75846Y-40669
X76260Y-40650
X76634Y-40630
X77500Y-32854
X83425Y-37638
T3
X79067Y-34665
X79067Y-35665
X79067Y-36665
X79067Y-37665
X79067Y-38665
X79067Y-39665
X79067Y-40665
X79067Y-41665
X82067Y-34665
X82067Y-35665
X82067Y-36665
X82067Y-37665
X82067Y-38665
X82067Y-39665
X82067Y-40665
X82067Y-41665
X67984Y-34685
X67984Y-35685
X67984Y-36685
X67984Y-37685
X67984Y-38685
X67984Y-39685
X67984Y-40685
X67984Y-41685
X70984Y-34685
X70984Y-35685
X70984Y-36685
X70984Y-37685
X70984Y-38685
X70984Y-39685
X70984Y-40685
X70984Y-41685
X57709Y-34646
X57709Y-35646
X57709Y-36646
X57709Y-37646
X57709Y-38646
X57709Y-39646
X57709Y-40646
X57709Y-41646
X60709Y-34646
X60709Y-35646
X60709Y-36646
X60709Y-37646
X60709Y-38646
X60709Y-39646
X60709Y-40646
X60709Y-41646
X46646Y-34661
X46646Y-35661
X46646Y-36661
X46646Y-37661
X46646Y-38661
X46646Y-39661
X46646Y-40661
X46646Y-41661
X49646Y-34661
X49646Y-35661
X49646Y-36661
X49646Y-37661
X49646Y-38661
X49646Y-39661
X49646Y-40661
X49646Y-41661
T4
X50551Y-26024
X73732Y-30803
X73732Y-31803
X73732Y-32803
X73732Y-33803
X73732Y-34803
X54819Y-34161
X63626Y-29240
X63626Y-30240
T4
X77242Y-29914G85X76974Y-29976
G05
X77242Y-29141G85X76974Y-29079
G05
X77578Y-30611G85X77363Y-30783
G05
X77578Y-28444G85X77363Y-28272
G05
X78183Y-31094G85X78063Y-31342
G05
X78183Y-27962G85X78063Y-27713
G05
X78937Y-31266G85X78937Y-31541
G05
X79691Y-31094G85X79811Y-31342
G05
X79691Y-27962G85X79811Y-27713
G05
X80296Y-30611G85X80511Y-30783
G05
X80296Y-28444G85X80511Y-28272
G05
X80632Y-29914G85X80900Y-29976
G05
X80632Y-29141G85X80900Y-29079
G05
X67794Y-29914G85X67525Y-29976
G05
X67794Y-29141G85X67525Y-29079
G05
X68129Y-30611G85X67914Y-30783
G05
X68129Y-28444G85X67914Y-28272
G05
X68734Y-31094G85X68614Y-31342
G05
X68734Y-27962G85X68614Y-27713
G05
X69488Y-31266G85X69488Y-31541
G05
X70242Y-31094G85X70362Y-31342
G05
X70242Y-27962G85X70362Y-27713
G05
X70847Y-30611G85X71063Y-30783
G05
X70847Y-28444G85X71063Y-28272
G05
X71183Y-29914G85X71451Y-29976
G05
X71183Y-29141G85X71451Y-29079
G05
X55884Y-29891G85X55615Y-29952
G05
X55884Y-29117G85X55615Y-29056
G05
X56220Y-30588G85X56004Y-30759
G05
X56220Y-28420G85X56004Y-28248
G05
X56825Y-31070G85X56705Y-31318
G05
X56825Y-27938G85X56705Y-27689
G05
X57579Y-31242G85X57579Y-31518
G05
X58333Y-31070G85X58452Y-31318
G05
X58333Y-27938G85X58452Y-27689
G05
X58938Y-30588G85X59153Y-30759
G05
X58938Y-28420G85X59153Y-28248
G05
X59273Y-29891G85X59542Y-29952
G05
X59273Y-29117G85X59542Y-29056
G05
X46455Y-29875G85X46186Y-29936
G05
X46455Y-29101G85X46186Y-29040
G05
X46791Y-30572G85X46575Y-30744
G05
X46791Y-28404G85X46575Y-28233
G05
X47395Y-31054G85X47276Y-31303
G05
X47395Y-27922G85X47276Y-27674
G05
X48150Y-31226G85X48150Y-31502
G05
X48904Y-31054G85X49023Y-31303
G05
X48904Y-27922G85X49023Y-27674
G05
X49509Y-30572G85X49724Y-30744
G05
X49509Y-28404G85X49724Y-28233
G05
X49844Y-29875G85X50113Y-29936
G05
X49844Y-29101G85X50113Y-29040
G05
T0
M30
